<?xml version="1.0" standalone="no"?>
<!DOCTYPE svg PUBLIC "-//W3C//DTD SVG 1.1//EN" "http://www.w3.org/Graphics/SVG/1.1/DTD/svg11.dtd" >
<svg xmlns="http://www.w3.org/2000/svg" xmlns:xlink="http://www.w3.org/1999/xlink" version="1.1">
<metadata>
Created by FontForge 20170731 at Wed May 10 18:41:46 2017
 By Aleksey,,,
Copyright (c) 2016 by Zetafonts. All rights reserved.
</metadata>
<defs>
<font id="AristaProTrial-Fat" horiz-adv-x="1109" >
  <font-face 
    font-family="Arista Pro Fat"
    font-weight="900"
    font-stretch="normal"
    units-per-em="2048"
    panose-1="0 0 5 0 0 0 0 0 0 0"
    ascent="1638"
    descent="-410"
    x-height="951"
    cap-height="1311"
    bbox="-371 -745 2759 2000"
    underline-thickness="102"
    underline-position="-307"
    unicode-range="U+0020-FB06"
  />
<missing-glyph horiz-adv-x="461" 
 />
    <glyph glyph-name=".notdef" horiz-adv-x="461" 
 />
    <glyph glyph-name=".null" horiz-adv-x="0" 
 />
    <glyph glyph-name="nonmarkingreturn" horiz-adv-x="682" 
 />
    <glyph glyph-name="space" unicode=" " horiz-adv-x="461" 
 />
    <glyph glyph-name="exclam" unicode="!" horiz-adv-x="621" 
d="M140 1200.5q14 33.5 38 58.5q24 24 57 38t69 14t68 -13.5t57 -38.5q24 -25 38 -58.5t14 -69.5v-574q0 -36 -13.5 -69t-38.5 -58t-58 -38.5t-70 -13.5q-35 0 -67 14t-57 38q-24 24 -37.5 56.5t-13.5 70.5v574q0 36 14 69.5zM474 109q-14 -32 -39 -57q-25 -24 -58 -38
t-68 -14t-67 13.5t-57 38.5q-25 24 -38.5 56.5t-13.5 67.5t13.5 67.5t38.5 57.5t57 38.5t67 13.5t68 -14t58 -38q53 -56 53 -125q0 -35 -14 -67z" />
    <glyph glyph-name="quotedbl" unicode="&#x22;" horiz-adv-x="998" 
d="M430 843q-14 -33 -38 -57q-25 -25 -57.5 -38.5t-67.5 -13.5q-36 0 -69 14t-57 38t-38 57t-14 69v225q0 35 14 67.5t38 56.5t57 37.5t69 13.5t69 -13.5t57 -37.5t37.5 -56t13.5 -68v-225q0 -36 -14 -69zM895 843q-14 -33 -38 -57t-57 -38t-69 -14t-69 14t-57 38t-38 57
t-14 69v225q0 34 14.5 66.5t39.5 57.5q24 24 56 37.5t68 13.5q38 0 70.5 -13.5t56.5 -37.5t37.5 -56t13.5 -68v-225q0 -36 -14 -69z" />
    <glyph glyph-name="numbersign" unicode="#" horiz-adv-x="1313" 
d="M1084 586q56 -14 87.5 -59t31.5 -108q0 -39 -11.5 -73t-32.5 -59q-47 -53 -121 -53h-38l-24 -101q-13 -56 -62.5 -92t-112.5 -36q-85 0 -137 52q-25 23 -38 54t-13 64q0 15 5 43l3 16h-82l-24 -101q-12 -58 -62 -92t-115 -34q-87 0 -137 46q-24 21 -37 49.5t-13 61.5
q0 15 5 43l7 33q-54 14 -83.5 56.5t-29.5 104.5q0 38 11.5 72.5t32.5 60.5q22 27 53 42t67 15h29l26 114q-51 16 -79 60.5t-28 110.5q0 36 11.5 68.5t32.5 57.5q47 53 116 53h27l24 102q7 27 25 51.5t45 43.5q55 38 119 38q38 0 71.5 -14t57.5 -39q23 -25 35.5 -59t12.5 -74
q0 -17 -5 -49h77l20 87q7 30 25 57t44 47q56 42 120 42q38 0 71.5 -14t57.5 -39t37 -59t13 -73q0 -35 -7 -60q46 -18 72 -62.5t26 -106.5q0 -35 -12 -67t-34 -56q-50 -53 -116 -53h-18zM649 698l-25 -107h80l24 107h-79z" />
    <glyph glyph-name="dollar" unicode="$" horiz-adv-x="1112" 
d="M763.5 810.5q-78.5 29.5 -165.5 29.5h-151q-21 0 -34 17.5t-13 42.5q0 24 16 39.5t42 15.5h307q99 0 153.5 47.5t54.5 136.5q0 82 -55 127t-153 45h-53v50q0 62 -43 106q-21 21 -48 32.5t-56 11.5q-41 0 -76 -20.5t-55.5 -55t-20.5 -74.5v-56q-67 -11 -127.5 -42.5
t-108.5 -79.5q-61 -61 -94.5 -139.5t-33.5 -162.5q0 -81 30 -151.5t86 -125.5q55 -54 128.5 -84.5t154.5 -32.5h157l11 -2q10 -2 23 -8q33 -16 33 -59q0 -31 -25 -50q-9 -8 -21 -12t-23 -4h-329q-100 0 -152.5 -41.5t-52.5 -122.5q0 -41 14 -75.5t40 -59.5q28 -25 66.5 -39
t84.5 -14h139v-68q0 -30 12 -57.5t33 -48.5q44 -44 108 -44q30 0 57 11.5t47 32.5t31 48.5t11 57.5v84q110 32 190 116q60 61 92.5 141t32.5 166t-32.5 160t-92.5 128t-138.5 83.5z" />
    <glyph glyph-name="percent" unicode="%" horiz-adv-x="1944" 
d="M62 1079.5q30 70.5 85 125.5t125.5 85t148.5 30t148.5 -30t125.5 -85q54 -54 83.5 -125t29.5 -149t-29.5 -148.5t-83.5 -124.5q-55 -55 -125.5 -84.5t-148.5 -29.5q-77 0 -148 29.5t-126 84.5t-85 125t-30 148t30 148.5zM796 14q-38 -25 -85 -25q-65 0 -113 51
q-21 24 -33 52t-12 57q0 33 15 66l464 1005q23 42 62 65t84 23t80 -22t54.5 -60.5t19.5 -84.5q0 -40 -16 -75l-462 -985q-22 -45 -58 -67zM377.5 887.5q17.5 -18.5 43.5 -18.5t44 18.5t18 43.5q0 27 -18 44.5t-44 17.5q-27 0 -44 -17.5t-17 -44.5q0 -25 17.5 -43.5z
M1152.5 522q29.5 71 84.5 126q54 54 124.5 84t148.5 30q77 0 148.5 -30t125.5 -84q55 -55 85 -125.5t30 -148.5t-30 -148t-85 -125q-55 -54 -126 -83.5t-148 -29.5q-78 0 -148.5 29.5t-124.5 83.5q-55 55 -84.5 125t-29.5 148q0 77 29.5 148zM1466 330q18 -19 44 -19
t43.5 19t17.5 44q0 27 -17 44.5t-44 17.5q-26 0 -44 -17.5t-18 -44.5q0 -25 18 -44z" />
    <glyph glyph-name="ampersand" unicode="&#x26;" horiz-adv-x="1210" 
d="M150 643l-13 11q-50 43 -79 110.5t-29 151.5q0 81 31.5 154.5t88.5 130.5t131 87.5t154 30.5t154 -31t131 -88t88 -130.5t31 -154.5q0 -84 -35 -157.5t-102 -134.5l12 -11l102 114q27 30 65 47t78 18q35 0 66 -14.5t55 -41.5q23 -25 36 -56.5t13 -63.5q0 -66 -44 -113
l-103 -113l103 -86q81 -72 81 -147q0 -34 -16.5 -65t-44.5 -53q-26 -21 -54.5 -32t-53.5 -11q-55 0 -108 44l-129 106l-51 -56q-41 -46 -115.5 -72.5t-155.5 -26.5q-78 0 -150 31t-127 86t-85.5 127.5t-30.5 151.5q0 145 106 257zM497 873q17 21 17 34q0 12 -5.5 24.5
t-14.5 22.5q-23 22 -50 22q-20 0 -38 -19t-18 -41q0 -40 38 -64l27 -23q27 23 44 44zM480 350l11 13l-101 83q-20 -23 -20 -43q0 -24 17 -46t37 -22q32 0 56 15z" />
    <glyph glyph-name="quotesingle" unicode="'" horiz-adv-x="533" 
d="M430 845q-14 -33 -38 -57q-25 -24 -58 -38t-68 -14q-36 0 -68 13.5t-57 38.5q-24 24 -38 57t-14 68v225q0 35 14 67.5t38 56.5t56.5 37.5t68.5 13.5t69 -13.5t57 -37.5q25 -25 38.5 -57t13.5 -67v-225q0 -35 -14 -68z" />
    <glyph glyph-name="parenleft" unicode="(" horiz-adv-x="941" 
d="M176 1005q40 95 114 161q156 141 447 143h8q36 0 69 -13.5t56 -37.5q24 -24 37 -57t13 -69t-13 -67.5t-37 -55.5t-57 -38t-68 -14h-109q-28 0 -55 -14.5t-49 -40.5q-20 -25 -32 -55t-13 -59v-585q0 -32 11.5 -63.5t31.5 -56.5q21 -27 48.5 -42t56.5 -15h110q35 0 68 -14
t57 -38t37 -57t13 -69q0 -75 -50 -125q-23 -24 -55.5 -37t-69.5 -13h-10q-291 1 -444 136t-158 382v603q3 116 43 211z" />
    <glyph glyph-name="parenright" unicode=")" horiz-adv-x="942" 
d="M697.5 -81.5q-67.5 -118.5 -202 -182t-333.5 -63.5h-9q-51 0 -90.5 23t-62 62.5t-22.5 89.5q0 36 13 69t37 57q49 52 125 52h109q57 0 103 54q20 24 32 54.5t13 60.5v590q-1 29 -12.5 59.5t-30.5 55.5q-22 27 -49 42t-57 15h-108q-76 0 -125 52q-24 24 -37 55.5t-13 67.5
t13 69t37 57q49 51 125 51h9q293 -5 446 -143q74 -67 113.5 -161t42.5 -211q1 -1 1 -6v-585q0 -166 -67.5 -284.5z" />
    <glyph glyph-name="asterisk" unicode="*" horiz-adv-x="843" 
d="M689.5 780q-38.5 -19 -80.5 -19h-8q-7 0 -9 1q-22 -46 -65 -73.5t-96 -27.5q-54 0 -97.5 28t-65.5 75l-25 -2q-35 0 -67.5 14t-56.5 39q-25 25 -39.5 58t-14.5 69q0 59 35 106q-35 44 -35 103q0 76 55 131q25 25 58.5 39t69.5 14h11q8 0 11 -1q24 46 67.5 72.5t96.5 26.5
t94 -26t63 -72h14q35 0 67.5 -13.5t59.5 -37.5q26 -25 40.5 -59t14.5 -73q0 -60 -35 -104q36 -49 36 -108q0 -60 -34 -106q-26 -35 -64.5 -54z" />
    <glyph glyph-name="plus" unicode="+" horiz-adv-x="886" 
d="M689 795q35 0 67 -14t57 -39q24 -25 38 -59t14 -70t-13.5 -68t-38.5 -57q-24 -24 -56 -37.5t-68 -13.5h-67v-66q0 -36 -13.5 -68.5t-37.5 -56.5t-57 -37.5t-69 -13.5q-38 0 -71 13.5t-57 37.5q-25 25 -38.5 57t-13.5 68v66h-66q-36 0 -68.5 14t-56.5 39q-24 24 -38 57
t-14 69q0 35 14 68t38 58q25 25 57.5 39t67.5 14h66v66q0 36 14 68.5t39 56.5q24 24 57.5 38t69.5 14t68 -13.5t57 -38.5t38.5 -57t13.5 -68v-66h67z" />
    <glyph glyph-name="comma" unicode="," horiz-adv-x="561" 
d="M87 215.5q14 34.5 39 59.5t58.5 39.5t69.5 14.5q75 0 126 -54q23 -25 35.5 -59t12.5 -73v-199q0 -77 -48 -131q-49 -55 -126 -55q-38 0 -71 14.5t-57 40.5q-53 56 -53 131v199q0 38 14 72.5z" />
    <glyph glyph-name="hyphen" unicode="-" horiz-adv-x="932" 
d="M178 491.5q-33 13.5 -58 38.5t-38.5 57t-13.5 67q0 38 13.5 71.5t38.5 58.5t58 38.5t70 13.5h459q36 0 69 -14.5t58 -39.5q24 -25 38 -58.5t14 -69.5q0 -35 -13.5 -67t-38.5 -57t-58 -38.5t-69 -13.5h-459q-37 0 -70 13.5z" />
    <glyph glyph-name="period" unicode="." horiz-adv-x="604" 
d="M89 276q16 37 43 64q28 28 65 43.5t76 15.5t75 -15.5t64 -43.5q27 -27 43 -64t16 -76t-15.5 -76t-43.5 -65t-64 -43.5t-75 -15.5t-76 15.5t-65 43.5t-43.5 65t-15.5 76t16 76z" />
    <glyph glyph-name="slash" unicode="/" horiz-adv-x="703" 
d="M307 34q-48 -34 -106 -34q-36 0 -69.5 14.5t-58.5 41.5q-24 25 -37 57.5t-13 66.5q0 29 8 53l300 949q20 56 66.5 89t104.5 33q76 0 129 -59q23 -27 36 -62t13 -74q0 -30 -9 -59l-298 -926q-18 -56 -66 -90z" />
    <glyph glyph-name="zero" unicode="0" horiz-adv-x="2531" 
d="M1929 721q4 -4 8.5 -9t6.5 -10q0 -6 1 -11t1 -11q0 -12 -2 -23q-2 -6 -6.5 -10t-8.5 -6q-4 -4 -8 -7t-8 -7q-12 -4 -23 -4q-6 0 -12 1t-10 3l-10.5 7t-8.5 7q-4 2 -7 6t-3 10q-4 7 -5 12t-1 11q0 10 6 22q0 5 3 10t7 9t8.5 7t10.5 5q8 4 22 4q6 0 10.5 -1t12.5 -3
q4 -2 8 -5t8 -7zM518 702q0 -2 -4 -8q-2 0 -3 -2t-5 -2q-2 -2 -8 -2h-33v47h33q4 0 8 -2q4 0 5 -1l3 -3l4 -8q2 -2 2 -10q0 -6 -2 -9zM801 721q4 -4 8 -9t6 -10q2 -6 3 -11t1 -11t-1 -11t-3 -12q-2 -6 -6 -10t-8 -6q-2 -4 -6 -7t-11 -7q-4 -2 -10 -3t-12 -1q-12 0 -23 4
q-4 4 -9 7t-9 7l-6 6t-6 10q-2 7 -4.5 12t-2.5 11q0 10 7 22q2 5 6 10t6 9q4 4 9 7t9 5q6 2 12.5 3t10.5 1q12 0 22 -4q7 -2 11 -5t6 -7zM1090 733q0 -4 1 -6t1 -4l28 -64h-59l29 64v4v6zM270 729q2 -2 3 -5t3 -5q3 -4 3 -10v-5.5t-3 -5.5q-2 -2 -3 -5t-3 -3l-8 -8h-10h-37
v53h37q6 0 10 -2q2 0 5 -2zM2478 1092v-586h-2404v586h911q0 30 5 58t18 54q12 27 27.5 51.5t37.5 42.5q37 39 90 62q29 12 56.5 17t56.5 5q33 0 61.5 -6t53.5 -18q28 -12 51.5 -28.5t42.5 -35.5q37 -37 61 -94q21 -53 21 -108h911zM1030 1192q-22 -47 -22 -100
q0 -58 22 -105q10 -22 24.5 -44.5t30.5 -41.5q19 -18 40.5 -32.5t45.5 -24.5q48 -23 105 -23q29 0 54.5 4t49.5 15q25 12 45.5 25.5t38.5 33.5q19 19 33 40.5t27 43.5q22 51 22 109q0 22 -4 45.5t-14 44.5q-12 41 -41 75q-14 17 -30.5 31.5t-33.5 24.5q-18 10 -37.5 19
t-39.5 18q-15 4 -32.5 6t-37.5 2q-29 0 -55.5 -5t-51.5 -18q-49 -18 -86 -57q-16 -18 -29.5 -41t-23.5 -45zM295 690q6 10 6 19q0 4 -1 9t-5 11q0 2 -4 6l-6 6q-2 4 -5.5 7.5t-9.5 3.5q-4 2 -9 4t-9 2h-53v-154h16v58h37q4 0 9 1t9 3q11 4 15 8q2 4 6 8t4 8zM410 758h-95
v-154h95v19h-72v47h59v20h-59v45h72v23zM559 604l-47 66q2 2 5 2t5 4q8 4 10 10q3 2 5 5t4 7v13v10t-2 8q-4 8 -11 14q-4 9 -14 9q-2 2 -7 4t-9 2h-56v-154h23v64h22l41 -56q2 -4 7 -6q2 -2 4 -2h6h14zM664 631q0 4 1 8t1 8q0 12 -4.5 20.5t-12.5 14.5q-2 0 -3 2t-5 4h-1
t-5 2h-2t-2 4q-6 0 -8 2q-7 0 -9 1l-6 3q-8 2 -8 5q-6 4 -6 6v8v8q2 0 4 2t2 4l3 1t5 1q4 2 6 2h4l2.5 -1t4.5 -1q8 0 8 -4q2 -2 4 -2h4q8 0 14 4l4 2q0 2 -2 4l-4 4q-4 2 -6 4.5t-6 4.5q-2 0 -4 1t-6 5q-6 0 -7 1t-6 1q-4 0 -9 -1t-9 -1q-4 -4 -7 -6t-7 -2q-2 -5 -5 -8
t-6 -7q-2 -4 -3 -7t-1 -9v-9t4 -8q3 -4 6 -7t3 -5q4 -2 8 -5t8 -3q4 -2 7 -4t7 -4q2 -2 5.5 -2h5.5q6 -2 7 -2t3 -2q4 -2 4 -3t2 -6q2 -2 2 -5v-7v-3t-2 -5q-2 -4 -2 -5t-4 -3q-2 -4 -5 -5t-5 -3h-5.5h-5.5h-7h-5q-2 2 -5 3t-3 5l-2 2q-6 4 -12 4h-4.5t-4.5 -2l-6 -2
q0 -4 2 -4q0 -4 4 -6q0 -2 2 -5l2 -2h3q8 -8 17 -10t19 -2h9.5t9.5 2t9 4t7 6q6 2 9.5 5.5t5.5 9.5zM838 659q2 7 2 11v10q0 12 -2 20q0 7 -3.5 11t-5.5 10q-4 6 -12 14q-4 4 -8 6t-10 9q-2 0 -6.5 2t-10.5 6q-6 0 -10 1t-10 1q-4 0 -10.5 -1t-10.5 -1q-6 -4 -10 -6t-8 -2
q-4 -7 -8 -9t-8 -6q-5 -4 -8 -7t-5 -7q-4 -6 -5 -10t-3 -11q-2 -8 -2 -20q0 -8 2 -15.5t4 -15.5q2 -6 6 -12t11 -14q6 -5 12 -9t14 -4q12 -6 29 -6h10h10q11 4 17 8q14 6 18 11q6 8 12 18q2 4 5.5 9t3.5 9zM997 758h-20v-119q0 2 -1 5l-1 3l-74 105q-4 0 -8 6h-4h-4h-15
v-154h21v129v-4l2 -2v0v-4l88 -119h16v154zM1169 604l-67 154h-23l-65 -154h12q6 0 8 2l3 3t5 3l9 27h79l11 -27q2 -4 6 -6q0 -2 8 -2h14zM1270 623h-66v135h-22v-154h88v19zM1479 758h-21v-92v-11t-2 -8q-2 -8 -10 -12q-2 -2 -5 -4t-5 -6q-6 -2 -9.5 -2h-7.5q-10 0 -14 2
q-6 4 -10 6t-4 4q-2 2 -4.5 5t-6.5 7q0 4 -1 8t-1 11v92h-20v-92v-12t2 -7q0 -8 4 -14q4 -10 12 -15q2 -2 5 -4t8 -4q2 -2 6 -3t6 -3q6 0 9 -2t9 -2q4 0 7.5 2t9.5 2q4 2 7 3t7 3l12 8q4 5 5 8t3 7q3 2 6 6t3 8v19v92zM1597 631q7 8 7 16q0 12 -4.5 20.5t-12.5 14.5
q-6 4 -6 6h-5t-5 2h-3t-5 4h-2t-5 2q-2 0 -4 1l-6 3q-8 2 -8 5q-4 2 -5 4t-3 2q0 2 -1 3t-1 5t4 8l6 6q2 0 3 1t5 1q0 2 10 2l2.5 -1t4.5 -1q2 -2 8 -4q8 -2 10 -2q6 0 8 4l6 2l-4 4l-4 4q0 2 -3 4.5t-5 4.5q-4 0 -6 1t-6 5q-4 0 -7.5 1l-3.5 1q-6 0 -10 -1t-8 -1
q-4 -4 -8 -6t-6 -2q-4 -5 -6 -8t-7 -7q0 -4 -2 -7t-2 -9t2 -9t2 -8q5 -8 11 -12q4 -2 7 -5t5 -3q6 -2 9 -4t7 -4t6.5 -2h4.5q2 -2 5 -2t5 -2t5 -3t3 -6q2 -2 2 -5v-7v-3t-2 -5q-2 -6 -8 -8q-4 -4 -6 -5t-4 -3h-6h-5h-7h-5q-4 2 -10 8v2q-6 4 -12 4h-3.5t-5.5 -2l-6 -2
q2 -2 2 -3t2 -1q0 -2 1 -3t1 -3l1 -1t1 -4q4 -2 7 -2q6 -8 15 -10t19 -2h10.5t10.5 2l8 4t8 6q2 2 5 5.5t5 9.5zM1722 758h-94v-154h94v19h-73v47h61v20h-61v45h73v23zM1966 659v11v10v11v9q-4 11 -10 21q-4 6 -12 14q-2 4 -6.5 6t-8.5 9q-4 0 -9 2t-9 6q-6 0 -10.5 1
t-10.5 1t-11 -1t-9 -1q-12 -6 -21 -8q-4 -7 -7 -9t-7 -6l-7 -7l-7 -7q-2 -6 -4 -10t-2 -11q-5 -8 -5 -20q0 -8 2.5 -15.5t4.5 -15.5q6 -14 18 -26q4 -5 10 -9t15 -4q12 -6 30 -6h10.5h10.5q4 2 9 4t9 4q4 4 8.5 6.5t6.5 4.5q8 8 12 18q6 8 10 18zM2126 758h-23v-119
q0 2 -1 5t-3 3l-74 105l-1 1t-3 5h-5h-5h-16v-154h24v129v-4v-2v-2l2 -2l86 -119h19v154zM2251 623h-66v135h-22v-154h88v19zM2374 758h-19q-4 0 -8 -4q-8 -4 -8 -9l-35 -47l-2 -2h-2v-2v2l-2 2l-37 47q-2 5 -6 9t-10 4h-17l56 -76l2 -2q0 -2 2 -2v-2v-2q0 -2 2 -2v-2v-66
h22v66v2v4q2 0 2 4v2h2zM1188 864q-19 8 -38.5 19.5t-33.5 25.5h322q-17 -14 -35.5 -25.5t-38.5 -19.5q-21 -6 -43.5 -12t-44.5 -6q-25 0 -46.5 6t-41.5 12zM1141 936l315 317q29 -39 45.5 -79.5t16.5 -81.5q0 -23 -3.5 -44.5t-11.5 -41.5q-8 -19 -18 -36.5t-23 -33.5h-321z
M1094 928q-27 35 -45 73q-7 21 -11 43.5t-4 47.5q0 20 4 40.5t11 41.5q6 18 16 35.5t25 33.5h319zM1364 1315q20 -8 38.5 -20.5t33.5 -22.5h-324q37 28 76 43q39 18 88 18t88 -18zM78 350q-4 4 -5 8t-3 9q-2 6 -3 10t-1 10t4 16q2 5 3 10t5 7l3 9t7 7q0 2 5 5t7 5q6 5 9.5 6
t9.5 3q2 0 8 1t10 1q8 0 14.5 -1t14.5 -5q8 -2 13 -6.5t9 -8.5q-2 -2 -4 -2v-4h-2h-2h-4h-6q-4 2 -8 5t-8 3h-7.5h-9.5h-10h-8q-8 -4 -12.5 -7t-8.5 -5q-4 -6 -7 -10t-5 -8q-4 -7 -4 -13v-8q0 -8 2 -14t3 -9.5t1 -7.5q2 -2 5 -4t5 -6q4 -2 6 -5t7 -3q2 -2 6 -4t8 -2
q2 -2 6 -2h6h10.5t8.5 2q4 0 9 2t9 4v29h-12h-2l-2 2l-3 3l-3 3l-1 1t-1 3v1v3v0h38v-53l-5 -5t-5 -6q-6 -2 -12 -2q-6 -2 -14 -2h-15h-10h-8q-6 2 -9.5 4.5t-9.5 6.5q-2 0 -7 3t-5 7q-6 2 -7 6t-3 8zM240 438v-45h55v-14h-55v-47h67v-17h-84v140h84v-17h-67zM369 315v123
h-45v17h106v-17h-47v-123h-14zM532 438v-49h60v-12h-60v-62h-16v140h84v-17h-68zM641 455v-86q0 -4 2 -7.5t4 -5.5q2 -6 5 -9t5 -7q0 -2 3.5 -4t5.5 -4q6 -2 10 -2h8h7t5 2q6 2 9.5 4t7.5 4q0 4 3 7t5 9q4 4 4 13v86h14v-86q0 -7 -1 -11t-3 -10t-5 -10t-7 -8t-8 -7.5
t-8 -5.5q-13 -2 -23 -2q-12 0 -25 2q-2 2 -7 5.5t-9 7.5q-6 6 -10 18q-2 6 -4 10t-2 11v86h14zM784 455v-123h62v-17h-78v140h16zM877 455v-123h65v-17h-80v140h15zM1069 315l-61 140h8q4 0 8 -2q2 -2 3 -2t3 -5l43 -104v-4q2 -2 2 -6v6l1 2l1 2q6 14 12.5 26.5t12.5 24.5
q4 17 10 29l12 24q0 5 2 5t2 2q2 2 3.5 2h5.5h8q-8 -17 -15.5 -34.5t-17.5 -33.5q-6 -20 -13 -36.5t-16 -35.5h-14zM1171 438v-45h58v-14h-58v-47h68v-17h-84v140h84v-17h-68zM1341 381q-2 -2 -10 -4l47 -62h-10q-2 0 -5 1l-3 1q-2 2 -4 3.5t-4 5.5l-39 51h-25v-62h-14v140
h51h5t7 -2q9 -2 15 -9q2 -4 4 -7t4 -7q2 -2 2 -7v-5v-9t-2 -6q0 -4 -2 -8t-4 -6l-4 -4t-9 -4zM1325 389q4 0 6 4q2 0 4 1t4 1l3 6t4 5q0 2 1 4t1 8l-1 2t-1 6q-3 2 -4 3t-3 5q-2 0 -4 1t-4 3h-6h-37v-49h37zM1452 336q2 2 4 8q2 2 3 6t1 6q0 6 -2 11q-2 0 -3 3t-3 5t-8 4
q-4 0 -6 1l-6 3q-5 0 -9 2t-4 4q-10 0 -14 6q-4 0 -5 4t-3 7v14v9t2 7q0 6 8 10q4 5 6 6t8 3q4 0 6.5 1t8.5 1q2 0 5 -1t5 -1t4 -1l6 -3q2 0 4 -2.5t2 -4.5q4 -2 5 -4t3 -2l-4 -2q-2 -2 -8 -2h-6q-4 2 -4 4h-2h-2h-2h-3h-1h-2h-9q-8 0 -8 -2q-6 -6 -6 -8q-4 0 -4 -8
q0 -6 4 -6q0 -4 2 -6t5 -3.5l3 -1.5q4 -4 6.5 -4t8.5 -4h3t3 -2h4t4 -4h2h1h1q2 0 4 -1l2 -1q4 -4 6 -7t7 -5q2 -10 2 -19v-10t-7 -8q0 -6 -8 -12q-2 -2 -6 -4.5t-8 -4.5t-8 -2h-10q-11 0 -18 2t-13 9q-2 0 -4 2l-4 4q0 2 -1 4l-1 2l2 2l1 1t5 1h2q2 0 4 -1t4 -3q4 -2 6 -4
t6 -2q0 -2 4 -2h7q8 0 10 2q8 0 12 4zM1524 455v-140h-17v140h17zM1579 336q-12 8 -18 20q-5 15 -5 31v7v9q7 11 9 17q6 8 14 16q6 6 12 10q4 5 9.5 6t9.5 3q4 0 8 1t10 1q4 0 9 -1t12 -1q4 -2 8 -3t8 -6l5 -5t7 -5q4 -4 6.5 -7t6.5 -9q2 -6 6 -17q2 -4 3 -9t1 -7
q0 -8 -2 -15t-6 -16q-2 -6 -5.5 -11t-9.5 -9q-6 -6 -11 -9t-11 -8q-10 -4 -27 -4q-8 0 -15 1t-11 3q-17 5 -23 17zM1579 408q-4 -7 -6 -13t-2 -8q0 -4 1 -8t1 -6q2 -8 8 -17q0 -2 2 -4t4 -6l5 -5t10 -3q2 -2 5 -4t5 -2q4 -2 8 -2h8h7t7 2q3 0 7 2l8 4q2 0 5 3l5 5q2 4 4 6
l4 4q2 4 3 7.5t3 9.5q0 2 1 6t1 8q0 2 -1 8t-5 13q0 4 -4 8t-6 10q-4 2 -8 5t-10 7h-9.5h-11.5h-12h-10q-4 -4 -9.5 -7t-9.5 -5q-2 -6 -5 -10t-3 -8zM1741 315h-17v140h13h5t5 -4l72 -103q2 0 2 -4l2 -2v-2v115h16v-140h-14l-82 115v4h-2v4v-123zM1956 438v-49h57v-12h-57
v-62h-14v140h83v-17h-69zM2114 381q-9 -2 -13 -4l45 -62h-12q-4 0 -8 2q0 2 -1 3.5t-3 5.5l-39 51h-25v-62h-16v140h51h6t8 -2t7.5 -4.5t5.5 -4.5q2 -4 4 -7t6 -7q0 -2 1 -7l1 -5q0 -6 -1 -9t-1 -6l-4 -8t-2 -6zM2101 393q2 0 3 1t3 1q7 8 7 11q2 4 2 12q0 2 -2 8q0 2 -7 8
q-2 0 -3 1l-3 3h-8h-35v-49h35q4 0 8 4zM2281 336q-4 -6 -10 -9t-12 -8q-6 -2 -12 -3t-15 -1q-8 0 -15 1t-13 3q-13 5 -23 17q-4 4 -8 9t-6 11q-2 9 -5 16t-3 15q0 2 1 7t3 9q2 5 3 10t3 7q4 6 7 9t5 7q4 2 8 5t9 5q4 5 8 6t8 3q6 0 9 1t9 1q4 0 9.5 -1t9.5 -1l9 -3t7 -6
q4 -2 8 -5t6 -5q3 -4 6 -7t5 -9q6 -6 8 -17q2 -4 3 -9t1 -7q0 -8 -1 -15t-5 -16q-2 -6 -6 -11t-11 -9zM2232 330h7.5t9.5 2q2 0 5 2t5 4q2 0 6 3t8 5l3 6t3 4q2 4 3.5 7.5t1.5 9.5q2 2 2 6v8q0 2 -1 8t-1 13l-6 8t-5 10q-6 2 -11 5t-9 7h-10.5h-10.5h-11h-11q-6 -4 -9 -7
t-8 -5q-6 -6 -8 -10l-4 -8q-2 -7 -2 -13v-8v-14q0 -6 1 -9.5t5 -7.5q0 -2 3 -4t5 -6q2 -2 5.5 -5t5.5 -3q2 -2 5 -4t9 -2q2 -2 6 -2h8zM2460 453q2 2 3 2h3h12v-140h-14v115l-2 -2v0v-2q-4 -8 -6 -17.5t-7 -15.5q-4 -6 -7 -12l-7 -14q-2 -9 -4 -15l-4 -12q-4 -6 -7 -11
t-5 -14h-15q-10 13 -15 27t-11 27q-4 14 -11.5 28.5t-11.5 28.5v2l-4 2v-115h-16v140h14q6 0 8 -2l2 -2v-5l49 -108q0 -2 2 -2v-4q0 2 1 4t1 4q0 4 5 8l43 98q0 5 1 5t3 2zM74 262h157v-20v-4v-5q0 -4 -2 -6l-4 -4l-106 -145h2v2h4h2h104v-37h-165v12q0 11 2 13q0 2 4 8
q2 2 2 4t2 4t3 4l3 6l94 129h-102v39zM260 262h139v-39h-100v-49h80v-41h-80v-53h100v-37h-139v219zM571 223h-59v-180h-43v180h-63v39h165v-39zM672 262l94 -219h-25q-8 0 -16 4q-4 2 -5 6t-5 8l-13 29h-100l-10 -29q-2 -4 -3 -5t-3 -1q0 -4 -1 -5t-5 -3q-2 0 -4.5 -1
t-4.5 -1q0 -2 -2 -2h-4h-24l94 219h37zM684 129l-27 68q0 2 -1 3t-1 3q0 4 -2 6v-6q0 -2 -2 -3t-2 -3l-26 -68h61zM774 262h139v-39h-100v-55h82v-39h-82v-86h-39v219zM1133 207q4 -6 6 -12.5t6 -12.5q2 -8 2 -15v-13v-17t-2 -14q-4 -6 -6 -13.5t-6 -13.5q-5 -4 -9 -10
l-8 -12q-8 -4 -12 -9.5t-10 -7.5q-7 -6 -14 -8t-13 -4q-8 -2 -15.5 -3t-15.5 -1q-10 0 -21 3t-22 5q-12 6 -19 12.5t-18 12.5q-14 16 -20 35q-6 12 -8 22t-2 23q0 6 1 13t3 15q4 17 12 25q4 8 7 13t7 11q9 5 14 9t11 8t12 6t15 6q6 0 13 1t15 1t15.5 -1t15.5 -1q6 -4 13 -6
t14 -6q6 -4 10 -8t12 -9q4 -6 8 -11t9 -13zM1104 127q2 6 3 12t1 15q0 12 -4 24q-4 10 -8 15.5t-11 9.5q-4 4 -9 8t-11 6q-12 6 -29 6q-16 0 -28 -6q-4 -2 -9.5 -6t-11.5 -8t-9 -9.5t-7 -15.5q-4 -4 -4 -11v-13v-15t4 -12q4 -8 7 -14.5t9 -10.5t11.5 -8t9.5 -8q8 -2 14 -4
t14 -2t14.5 2t14.5 4q6 4 11 8t9 8q7 4 11 10.5t8 14.5zM1329 262h39v-219h-37l-102 147q-2 0 -2 1.5t-2 3.5q-2 4 -2 6q-4 0 -4 4l-1 1t-4 3v-166h-38v219h34q4 0 8.5 -1t4.5 -3l6 -3t4 -3q10 -16 21.5 -31.5t21.5 -34.5q12 -14 23.5 -29.5t25.5 -29.5q0 -4 1 -6t1 -6
q0 -2 1 -4t1 -5v156zM1389 262h165v-39h-65v-180h-39v180h-61v39zM1690 150q2 -5 5 -9t5 -8q0 -4 2 -9t2 -13q0 -13 -6 -27l-8 -12t-9 -11q-8 -4 -12 -8t-12 -6t-15.5 -4t-13.5 -2q-8 0 -15 2t-18 4q-6 2 -11 6t-13 13q-4 2 -6 5t-4 7q-5 2 -5 12l1.5 1t3.5 3q2 0 2 1t2 1
t4 1l2 1h10h3t3 -2q6 0 10 -2q5 -4 9 -6t6 -4q2 0 6 -2t10 -2q2 0 5 1t7 3q7 2 13 6l8 8q2 4 4 6t2 7q0 8 -6 12q-4 6 -8 6q-4 4 -7.5 5t-5.5 1q-6 2 -16 8q-4 0 -9 1t-9 6q-9 2 -13 5t-8 7q-6 4 -9 8t-5 8q-6 12 -6 25q0 18 6 26q2 7 6 11t10 8q4 4 9.5 6t13.5 6q4 0 10 1
t14 1q4 0 8.5 -1t10.5 -1q4 -2 7 -4t9 -4q2 -2 6 -5t8 -7q3 -2 6 -5.5t5 -7.5l-8 -4l-6 -4t-3 -4h-8h-4h-4h-2q-6 0 -6 2l-8 4q-3 0 -4 1l-1 1h-6h-12q-4 0 -5 -1t-5 -3q-2 -2 -4 -8q-2 -2 -2 -8t2 -6q2 -2 3 -4.5t1 -6.5q4 0 7 -1t5 -1q6 -2 11 -4t7 -4l11 -2q4 -4 9 -5
t11 -7q10 -2 17 -12zM1755 80q6 0 6 -6q2 0 2 -3v-5q0 -7 -2 -11q0 -4 -6 -8q-4 0 -6 -4q-2 0 -4 -1t-6 -1q-2 0 -4 1t-4 1q-2 2 -4.5 3t-4.5 1q-2 2 -3 4t-3 4q-2 4 -2 11v5t2 3q2 4 3 5t3 1q7 6 9 6q2 2 4 3t4 1q4 0 6 -1t4 -3q2 0 6 -6zM1839 203q-8 -8 -16 -25
q-2 -4 -4 -11t-2 -13q0 -9 2 -15l4 -12q4 -8 7 -14.5t9 -10.5q4 -4 9 -8t14 -8q8 -2 14 -4t14 -2q6 0 10.5 2t10.5 2q4 2 9 5t9 7q4 0 8 2h7h6t6 -2q6 -2 10 -6l6 -10q-6 -8 -16 -14q-6 -5 -10 -8t-11 -5q-6 -4 -11 -5t-11 -3t-11.5 -3t-11.5 -1q-14 0 -24.5 3t-20.5 5
q-20 10 -35 25q-16 16 -24 35q-2 12 -5 22t-3 23q0 6 1 13t3 15q2 6 4 12.5t6 12.5q6 8 9 13t9 11q7 5 12 9t13 8q4 4 10 6t17 6q4 0 12 1t16 1h11.5t11.5 -2t11 -4t11 -4q7 -2 11 -5t10 -7q10 -9 16 -17l-6 -8l-5 -5t-5 -3h-7h-5h-8t-7 2q-4 4 -9 7t-9 5q-6 2 -10.5 2
h-10.5q-16 0 -28 -6q-9 -2 -14 -6t-9 -8zM2195 207q3 -6 6 -12.5t5 -12.5q2 -8 2 -15v-13v-17t-2 -14t-5 -13.5t-6 -13.5q-8 -10 -16 -22q-8 -4 -14 -9.5t-11 -7.5q-6 -6 -13 -8t-15 -4q-6 -2 -13.5 -3t-15.5 -1q-20 0 -43 8q-8 6 -17 12.5t-16 12.5q-8 8 -14 16t-10 19
q-4 12 -6 22t-2 23q0 6 1 13t1 15q2 6 6 12.5t6 12.5q4 8 8 13t10 11q4 5 10.5 9t12.5 8q4 4 11 6t13 6q9 0 16 1t13 1q8 0 15.5 -1t13.5 -1q8 -4 15 -6t13 -6q5 -4 11 -8t14 -9q2 -6 8 -11t8 -13zM2165 127q4 10 4 27q0 6 -1 13t-3 11q-4 10 -7.5 15.5t-7.5 9.5
q-10 10 -24 14q-6 4 -13.5 5t-15.5 1q-14 0 -26 -6q-7 -2 -12 -6t-11 -8q-4 -4 -8 -9.5t-8 -15.5q-2 -4 -3 -11t-1 -13q0 -9 1 -15t3 -12q8 -16 16 -25q6 -4 11 -8t12 -8q6 -2 14 -4t12 -2q8 0 15.5 2t13.5 4q6 4 13 8t11 8q9 9 15 25zM2433 260l1 1t5 1h39v-219h-39v160
q0 -2 -1 -4l-3 -6v-7t-2 -4q-6 -18 -14.5 -35.5t-14.5 -33.5q-6 -17 -13 -34.5t-13 -35.5h-39l-55 139q-3 2 -3 11q-2 4 -3 5t-1 3v-158h-41v219h39q4 0 6.5 -1l2.5 -1q4 -2 5 -2t3 -2l6 -4l4 -4t2 -4q4 -17 11 -32t14 -34q6 -16 13 -32.5t13 -32.5v-2v-5v-4q4 0 4 -4v4v4
q0 3 1 5l1 2l9 16l45 115q0 2 1 4t1 4q2 2 5 3l3 1q2 2 4 2t4 2z" />
    <glyph glyph-name="one" unicode="1" horiz-adv-x="2531" 
d="M1929 721q4 -4 8.5 -9t6.5 -10q0 -6 1 -11t1 -11q0 -12 -2 -23q-2 -6 -6.5 -10t-8.5 -6q-4 -4 -8 -7t-8 -7q-12 -4 -23 -4q-6 0 -12 1t-10 3l-10.5 7t-8.5 7q-4 2 -7 6t-3 10q-4 7 -5 12t-1 11q0 10 6 22q0 5 3 10t7 9t8.5 7t10.5 5q8 4 22 4q6 0 10.5 -1t12.5 -3
q4 -2 8 -5t8 -7zM518 702q0 -2 -4 -8q-2 0 -3 -2t-5 -2q-2 -2 -8 -2h-33v47h33q4 0 8 -2q4 0 5 -1l3 -3l4 -8q2 -2 2 -10q0 -6 -2 -9zM801 721q4 -4 8 -9t6 -10q2 -6 3 -11t1 -11t-1 -11t-3 -12q-2 -6 -6 -10t-8 -6q-2 -4 -6 -7t-11 -7q-4 -2 -10 -3t-12 -1q-12 0 -23 4
q-4 4 -9 7t-9 7l-6 6t-6 10q-2 7 -4.5 12t-2.5 11q0 10 7 22q2 5 6 10t6 9q4 4 9 7t9 5q6 2 12.5 3t10.5 1q12 0 22 -4q7 -2 11 -5t6 -7zM1090 733q0 -4 1 -6t1 -4l28 -64h-59l29 64v4v6zM270 729q2 -2 3 -5t3 -5q3 -4 3 -10v-5.5t-3 -5.5q-2 -2 -3 -5t-3 -3l-8 -8h-10h-37
v53h37q6 0 10 -2q2 0 5 -2zM2478 1092v-586h-2404v586h911q0 30 5 58t18 54q12 27 27.5 51.5t37.5 42.5q37 39 90 62q29 12 56.5 17t56.5 5q33 0 61.5 -6t53.5 -18q28 -12 51.5 -28.5t42.5 -35.5q37 -37 61 -94q21 -53 21 -108h911zM1030 1192q-22 -47 -22 -100
q0 -58 22 -105q10 -22 24.5 -44.5t30.5 -41.5q19 -18 40.5 -32.5t45.5 -24.5q48 -23 105 -23q29 0 54.5 4t49.5 15q25 12 45.5 25.5t38.5 33.5q19 19 33 40.5t27 43.5q22 51 22 109q0 22 -4 45.5t-14 44.5q-12 41 -41 75q-14 17 -30.5 31.5t-33.5 24.5q-18 10 -37.5 19
t-39.5 18q-15 4 -32.5 6t-37.5 2q-29 0 -55.5 -5t-51.5 -18q-49 -18 -86 -57q-16 -18 -29.5 -41t-23.5 -45zM295 690q6 10 6 19q0 4 -1 9t-5 11q0 2 -4 6l-6 6q-2 4 -5.5 7.5t-9.5 3.5q-4 2 -9 4t-9 2h-53v-154h16v58h37q4 0 9 1t9 3q11 4 15 8q2 4 6 8t4 8zM410 758h-95
v-154h95v19h-72v47h59v20h-59v45h72v23zM559 604l-47 66q2 2 5 2t5 4q8 4 10 10q3 2 5 5t4 7v13v10t-2 8q-4 8 -11 14q-4 9 -14 9q-2 2 -7 4t-9 2h-56v-154h23v64h22l41 -56q2 -4 7 -6q2 -2 4 -2h6h14zM664 631q0 4 1 8t1 8q0 12 -4.5 20.5t-12.5 14.5q-2 0 -3 2t-5 4h-1
t-5 2h-2t-2 4q-6 0 -8 2q-7 0 -9 1l-6 3q-8 2 -8 5q-6 4 -6 6v8v8q2 0 4 2t2 4l3 1t5 1q4 2 6 2h4l2.5 -1t4.5 -1q8 0 8 -4q2 -2 4 -2h4q8 0 14 4l4 2q0 2 -2 4l-4 4q-4 2 -6 4.5t-6 4.5q-2 0 -4 1t-6 5q-6 0 -7 1t-6 1q-4 0 -9 -1t-9 -1q-4 -4 -7 -6t-7 -2q-2 -5 -5 -8
t-6 -7q-2 -4 -3 -7t-1 -9v-9t4 -8q3 -4 6 -7t3 -5q4 -2 8 -5t8 -3q4 -2 7 -4t7 -4q2 -2 5.5 -2h5.5q6 -2 7 -2t3 -2q4 -2 4 -3t2 -6q2 -2 2 -5v-7v-3t-2 -5q-2 -4 -2 -5t-4 -3q-2 -4 -5 -5t-5 -3h-5.5h-5.5h-7h-5q-2 2 -5 3t-3 5l-2 2q-6 4 -12 4h-4.5t-4.5 -2l-6 -2
q0 -4 2 -4q0 -4 4 -6q0 -2 2 -5l2 -2h3q8 -8 17 -10t19 -2h9.5t9.5 2t9 4t7 6q6 2 9.5 5.5t5.5 9.5zM838 659q2 7 2 11v10q0 12 -2 20q0 7 -3.5 11t-5.5 10q-4 6 -12 14q-4 4 -8 6t-10 9q-2 0 -6.5 2t-10.5 6q-6 0 -10 1t-10 1q-4 0 -10.5 -1t-10.5 -1q-6 -4 -10 -6t-8 -2
q-4 -7 -8 -9t-8 -6q-5 -4 -8 -7t-5 -7q-4 -6 -5 -10t-3 -11q-2 -8 -2 -20q0 -8 2 -15.5t4 -15.5q2 -6 6 -12t11 -14q6 -5 12 -9t14 -4q12 -6 29 -6h10h10q11 4 17 8q14 6 18 11q6 8 12 18q2 4 5.5 9t3.5 9zM997 758h-20v-119q0 2 -1 5l-1 3l-74 105q-4 0 -8 6h-4h-4h-15
v-154h21v129v-4l2 -2v0v-4l88 -119h16v154zM1169 604l-67 154h-23l-65 -154h12q6 0 8 2l3 3t5 3l9 27h79l11 -27q2 -4 6 -6q0 -2 8 -2h14zM1270 623h-66v135h-22v-154h88v19zM1479 758h-21v-92v-11t-2 -8q-2 -8 -10 -12q-2 -2 -5 -4t-5 -6q-6 -2 -9.5 -2h-7.5q-10 0 -14 2
q-6 4 -10 6t-4 4q-2 2 -4.5 5t-6.5 7q0 4 -1 8t-1 11v92h-20v-92v-12t2 -7q0 -8 4 -14q4 -10 12 -15q2 -2 5 -4t8 -4q2 -2 6 -3t6 -3q6 0 9 -2t9 -2q4 0 7.5 2t9.5 2q4 2 7 3t7 3l12 8q4 5 5 8t3 7q3 2 6 6t3 8v19v92zM1597 631q7 8 7 16q0 12 -4.5 20.5t-12.5 14.5
q-6 4 -6 6h-5t-5 2h-3t-5 4h-2t-5 2q-2 0 -4 1l-6 3q-8 2 -8 5q-4 2 -5 4t-3 2q0 2 -1 3t-1 5t4 8l6 6q2 0 3 1t5 1q0 2 10 2l2.5 -1t4.5 -1q2 -2 8 -4q8 -2 10 -2q6 0 8 4l6 2l-4 4l-4 4q0 2 -3 4.5t-5 4.5q-4 0 -6 1t-6 5q-4 0 -7.5 1l-3.5 1q-6 0 -10 -1t-8 -1
q-4 -4 -8 -6t-6 -2q-4 -5 -6 -8t-7 -7q0 -4 -2 -7t-2 -9t2 -9t2 -8q5 -8 11 -12q4 -2 7 -5t5 -3q6 -2 9 -4t7 -4t6.5 -2h4.5q2 -2 5 -2t5 -2t5 -3t3 -6q2 -2 2 -5v-7v-3t-2 -5q-2 -6 -8 -8q-4 -4 -6 -5t-4 -3h-6h-5h-7h-5q-4 2 -10 8v2q-6 4 -12 4h-3.5t-5.5 -2l-6 -2
q2 -2 2 -3t2 -1q0 -2 1 -3t1 -3l1 -1t1 -4q4 -2 7 -2q6 -8 15 -10t19 -2h10.5t10.5 2l8 4t8 6q2 2 5 5.5t5 9.5zM1722 758h-94v-154h94v19h-73v47h61v20h-61v45h73v23zM1966 659v11v10v11v9q-4 11 -10 21q-4 6 -12 14q-2 4 -6.5 6t-8.5 9q-4 0 -9 2t-9 6q-6 0 -10.5 1
t-10.5 1t-11 -1t-9 -1q-12 -6 -21 -8q-4 -7 -7 -9t-7 -6l-7 -7l-7 -7q-2 -6 -4 -10t-2 -11q-5 -8 -5 -20q0 -8 2.5 -15.5t4.5 -15.5q6 -14 18 -26q4 -5 10 -9t15 -4q12 -6 30 -6h10.5h10.5q4 2 9 4t9 4q4 4 8.5 6.5t6.5 4.5q8 8 12 18q6 8 10 18zM2126 758h-23v-119
q0 2 -1 5t-3 3l-74 105l-1 1t-3 5h-5h-5h-16v-154h24v129v-4v-2v-2l2 -2l86 -119h19v154zM2251 623h-66v135h-22v-154h88v19zM2374 758h-19q-4 0 -8 -4q-8 -4 -8 -9l-35 -47l-2 -2h-2v-2v2l-2 2l-37 47q-2 5 -6 9t-10 4h-17l56 -76l2 -2q0 -2 2 -2v-2v-2q0 -2 2 -2v-2v-66
h22v66v2v4q2 0 2 4v2h2zM1188 864q-19 8 -38.5 19.5t-33.5 25.5h322q-17 -14 -35.5 -25.5t-38.5 -19.5q-21 -6 -43.5 -12t-44.5 -6q-25 0 -46.5 6t-41.5 12zM1141 936l315 317q29 -39 45.5 -79.5t16.5 -81.5q0 -23 -3.5 -44.5t-11.5 -41.5q-8 -19 -18 -36.5t-23 -33.5h-321z
M1094 928q-27 35 -45 73q-7 21 -11 43.5t-4 47.5q0 20 4 40.5t11 41.5q6 18 16 35.5t25 33.5h319zM1364 1315q20 -8 38.5 -20.5t33.5 -22.5h-324q37 28 76 43q39 18 88 18t88 -18zM78 350q-4 4 -5 8t-3 9q-2 6 -3 10t-1 10t4 16q2 5 3 10t5 7l3 9t7 7q0 2 5 5t7 5q6 5 9.5 6
t9.5 3q2 0 8 1t10 1q8 0 14.5 -1t14.5 -5q8 -2 13 -6.5t9 -8.5q-2 -2 -4 -2v-4h-2h-2h-4h-6q-4 2 -8 5t-8 3h-7.5h-9.5h-10h-8q-8 -4 -12.5 -7t-8.5 -5q-4 -6 -7 -10t-5 -8q-4 -7 -4 -13v-8q0 -8 2 -14t3 -9.5t1 -7.5q2 -2 5 -4t5 -6q4 -2 6 -5t7 -3q2 -2 6 -4t8 -2
q2 -2 6 -2h6h10.5t8.5 2q4 0 9 2t9 4v29h-12h-2l-2 2l-3 3l-3 3l-1 1t-1 3v1v3v0h38v-53l-5 -5t-5 -6q-6 -2 -12 -2q-6 -2 -14 -2h-15h-10h-8q-6 2 -9.5 4.5t-9.5 6.5q-2 0 -7 3t-5 7q-6 2 -7 6t-3 8zM240 438v-45h55v-14h-55v-47h67v-17h-84v140h84v-17h-67zM369 315v123
h-45v17h106v-17h-47v-123h-14zM532 438v-49h60v-12h-60v-62h-16v140h84v-17h-68zM641 455v-86q0 -4 2 -7.5t4 -5.5q2 -6 5 -9t5 -7q0 -2 3.5 -4t5.5 -4q6 -2 10 -2h8h7t5 2q6 2 9.5 4t7.5 4q0 4 3 7t5 9q4 4 4 13v86h14v-86q0 -7 -1 -11t-3 -10t-5 -10t-7 -8t-8 -7.5
t-8 -5.5q-13 -2 -23 -2q-12 0 -25 2q-2 2 -7 5.5t-9 7.5q-6 6 -10 18q-2 6 -4 10t-2 11v86h14zM784 455v-123h62v-17h-78v140h16zM877 455v-123h65v-17h-80v140h15zM1069 315l-61 140h8q4 0 8 -2q2 -2 3 -2t3 -5l43 -104v-4q2 -2 2 -6v6l1 2l1 2q6 14 12.5 26.5t12.5 24.5
q4 17 10 29l12 24q0 5 2 5t2 2q2 2 3.5 2h5.5h8q-8 -17 -15.5 -34.5t-17.5 -33.5q-6 -20 -13 -36.5t-16 -35.5h-14zM1171 438v-45h58v-14h-58v-47h68v-17h-84v140h84v-17h-68zM1341 381q-2 -2 -10 -4l47 -62h-10q-2 0 -5 1l-3 1q-2 2 -4 3.5t-4 5.5l-39 51h-25v-62h-14v140
h51h5t7 -2q9 -2 15 -9q2 -4 4 -7t4 -7q2 -2 2 -7v-5v-9t-2 -6q0 -4 -2 -8t-4 -6l-4 -4t-9 -4zM1325 389q4 0 6 4q2 0 4 1t4 1l3 6t4 5q0 2 1 4t1 8l-1 2t-1 6q-3 2 -4 3t-3 5q-2 0 -4 1t-4 3h-6h-37v-49h37zM1452 336q2 2 4 8q2 2 3 6t1 6q0 6 -2 11q-2 0 -3 3t-3 5t-8 4
q-4 0 -6 1l-6 3q-5 0 -9 2t-4 4q-10 0 -14 6q-4 0 -5 4t-3 7v14v9t2 7q0 6 8 10q4 5 6 6t8 3q4 0 6.5 1t8.5 1q2 0 5 -1t5 -1t4 -1l6 -3q2 0 4 -2.5t2 -4.5q4 -2 5 -4t3 -2l-4 -2q-2 -2 -8 -2h-6q-4 2 -4 4h-2h-2h-2h-3h-1h-2h-9q-8 0 -8 -2q-6 -6 -6 -8q-4 0 -4 -8
q0 -6 4 -6q0 -4 2 -6t5 -3.5l3 -1.5q4 -4 6.5 -4t8.5 -4h3t3 -2h4t4 -4h2h1h1q2 0 4 -1l2 -1q4 -4 6 -7t7 -5q2 -10 2 -19v-10t-7 -8q0 -6 -8 -12q-2 -2 -6 -4.5t-8 -4.5t-8 -2h-10q-11 0 -18 2t-13 9q-2 0 -4 2l-4 4q0 2 -1 4l-1 2l2 2l1 1t5 1h2q2 0 4 -1t4 -3q4 -2 6 -4
t6 -2q0 -2 4 -2h7q8 0 10 2q8 0 12 4zM1524 455v-140h-17v140h17zM1579 336q-12 8 -18 20q-5 15 -5 31v7v9q7 11 9 17q6 8 14 16q6 6 12 10q4 5 9.5 6t9.5 3q4 0 8 1t10 1q4 0 9 -1t12 -1q4 -2 8 -3t8 -6l5 -5t7 -5q4 -4 6.5 -7t6.5 -9q2 -6 6 -17q2 -4 3 -9t1 -7
q0 -8 -2 -15t-6 -16q-2 -6 -5.5 -11t-9.5 -9q-6 -6 -11 -9t-11 -8q-10 -4 -27 -4q-8 0 -15 1t-11 3q-17 5 -23 17zM1579 408q-4 -7 -6 -13t-2 -8q0 -4 1 -8t1 -6q2 -8 8 -17q0 -2 2 -4t4 -6l5 -5t10 -3q2 -2 5 -4t5 -2q4 -2 8 -2h8h7t7 2q3 0 7 2l8 4q2 0 5 3l5 5q2 4 4 6
l4 4q2 4 3 7.5t3 9.5q0 2 1 6t1 8q0 2 -1 8t-5 13q0 4 -4 8t-6 10q-4 2 -8 5t-10 7h-9.5h-11.5h-12h-10q-4 -4 -9.5 -7t-9.5 -5q-2 -6 -5 -10t-3 -8zM1741 315h-17v140h13h5t5 -4l72 -103q2 0 2 -4l2 -2v-2v115h16v-140h-14l-82 115v4h-2v4v-123zM1956 438v-49h57v-12h-57
v-62h-14v140h83v-17h-69zM2114 381q-9 -2 -13 -4l45 -62h-12q-4 0 -8 2q0 2 -1 3.5t-3 5.5l-39 51h-25v-62h-16v140h51h6t8 -2t7.5 -4.5t5.5 -4.5q2 -4 4 -7t6 -7q0 -2 1 -7l1 -5q0 -6 -1 -9t-1 -6l-4 -8t-2 -6zM2101 393q2 0 3 1t3 1q7 8 7 11q2 4 2 12q0 2 -2 8q0 2 -7 8
q-2 0 -3 1l-3 3h-8h-35v-49h35q4 0 8 4zM2281 336q-4 -6 -10 -9t-12 -8q-6 -2 -12 -3t-15 -1q-8 0 -15 1t-13 3q-13 5 -23 17q-4 4 -8 9t-6 11q-2 9 -5 16t-3 15q0 2 1 7t3 9q2 5 3 10t3 7q4 6 7 9t5 7q4 2 8 5t9 5q4 5 8 6t8 3q6 0 9 1t9 1q4 0 9.5 -1t9.5 -1l9 -3t7 -6
q4 -2 8 -5t6 -5q3 -4 6 -7t5 -9q6 -6 8 -17q2 -4 3 -9t1 -7q0 -8 -1 -15t-5 -16q-2 -6 -6 -11t-11 -9zM2232 330h7.5t9.5 2q2 0 5 2t5 4q2 0 6 3t8 5l3 6t3 4q2 4 3.5 7.5t1.5 9.5q2 2 2 6v8q0 2 -1 8t-1 13l-6 8t-5 10q-6 2 -11 5t-9 7h-10.5h-10.5h-11h-11q-6 -4 -9 -7
t-8 -5q-6 -6 -8 -10l-4 -8q-2 -7 -2 -13v-8v-14q0 -6 1 -9.5t5 -7.5q0 -2 3 -4t5 -6q2 -2 5.5 -5t5.5 -3q2 -2 5 -4t9 -2q2 -2 6 -2h8zM2460 453q2 2 3 2h3h12v-140h-14v115l-2 -2v0v-2q-4 -8 -6 -17.5t-7 -15.5q-4 -6 -7 -12l-7 -14q-2 -9 -4 -15l-4 -12q-4 -6 -7 -11
t-5 -14h-15q-10 13 -15 27t-11 27q-4 14 -11.5 28.5t-11.5 28.5v2l-4 2v-115h-16v140h14q6 0 8 -2l2 -2v-5l49 -108q0 -2 2 -2v-4q0 2 1 4t1 4q0 4 5 8l43 98q0 5 1 5t3 2zM74 262h157v-20v-4v-5q0 -4 -2 -6l-4 -4l-106 -145h2v2h4h2h104v-37h-165v12q0 11 2 13q0 2 4 8
q2 2 2 4t2 4t3 4l3 6l94 129h-102v39zM260 262h139v-39h-100v-49h80v-41h-80v-53h100v-37h-139v219zM571 223h-59v-180h-43v180h-63v39h165v-39zM672 262l94 -219h-25q-8 0 -16 4q-4 2 -5 6t-5 8l-13 29h-100l-10 -29q-2 -4 -3 -5t-3 -1q0 -4 -1 -5t-5 -3q-2 0 -4.5 -1
t-4.5 -1q0 -2 -2 -2h-4h-24l94 219h37zM684 129l-27 68q0 2 -1 3t-1 3q0 4 -2 6v-6q0 -2 -2 -3t-2 -3l-26 -68h61zM774 262h139v-39h-100v-55h82v-39h-82v-86h-39v219zM1133 207q4 -6 6 -12.5t6 -12.5q2 -8 2 -15v-13v-17t-2 -14q-4 -6 -6 -13.5t-6 -13.5q-5 -4 -9 -10
l-8 -12q-8 -4 -12 -9.5t-10 -7.5q-7 -6 -14 -8t-13 -4q-8 -2 -15.5 -3t-15.5 -1q-10 0 -21 3t-22 5q-12 6 -19 12.5t-18 12.5q-14 16 -20 35q-6 12 -8 22t-2 23q0 6 1 13t3 15q4 17 12 25q4 8 7 13t7 11q9 5 14 9t11 8t12 6t15 6q6 0 13 1t15 1t15.5 -1t15.5 -1q6 -4 13 -6
t14 -6q6 -4 10 -8t12 -9q4 -6 8 -11t9 -13zM1104 127q2 6 3 12t1 15q0 12 -4 24q-4 10 -8 15.5t-11 9.5q-4 4 -9 8t-11 6q-12 6 -29 6q-16 0 -28 -6q-4 -2 -9.5 -6t-11.5 -8t-9 -9.5t-7 -15.5q-4 -4 -4 -11v-13v-15t4 -12q4 -8 7 -14.5t9 -10.5t11.5 -8t9.5 -8q8 -2 14 -4
t14 -2t14.5 2t14.5 4q6 4 11 8t9 8q7 4 11 10.5t8 14.5zM1329 262h39v-219h-37l-102 147q-2 0 -2 1.5t-2 3.5q-2 4 -2 6q-4 0 -4 4l-1 1t-4 3v-166h-38v219h34q4 0 8.5 -1t4.5 -3l6 -3t4 -3q10 -16 21.5 -31.5t21.5 -34.5q12 -14 23.5 -29.5t25.5 -29.5q0 -4 1 -6t1 -6
q0 -2 1 -4t1 -5v156zM1389 262h165v-39h-65v-180h-39v180h-61v39zM1690 150q2 -5 5 -9t5 -8q0 -4 2 -9t2 -13q0 -13 -6 -27l-8 -12t-9 -11q-8 -4 -12 -8t-12 -6t-15.5 -4t-13.5 -2q-8 0 -15 2t-18 4q-6 2 -11 6t-13 13q-4 2 -6 5t-4 7q-5 2 -5 12l1.5 1t3.5 3q2 0 2 1t2 1
t4 1l2 1h10h3t3 -2q6 0 10 -2q5 -4 9 -6t6 -4q2 0 6 -2t10 -2q2 0 5 1t7 3q7 2 13 6l8 8q2 4 4 6t2 7q0 8 -6 12q-4 6 -8 6q-4 4 -7.5 5t-5.5 1q-6 2 -16 8q-4 0 -9 1t-9 6q-9 2 -13 5t-8 7q-6 4 -9 8t-5 8q-6 12 -6 25q0 18 6 26q2 7 6 11t10 8q4 4 9.5 6t13.5 6q4 0 10 1
t14 1q4 0 8.5 -1t10.5 -1q4 -2 7 -4t9 -4q2 -2 6 -5t8 -7q3 -2 6 -5.5t5 -7.5l-8 -4l-6 -4t-3 -4h-8h-4h-4h-2q-6 0 -6 2l-8 4q-3 0 -4 1l-1 1h-6h-12q-4 0 -5 -1t-5 -3q-2 -2 -4 -8q-2 -2 -2 -8t2 -6q2 -2 3 -4.5t1 -6.5q4 0 7 -1t5 -1q6 -2 11 -4t7 -4l11 -2q4 -4 9 -5
t11 -7q10 -2 17 -12zM1755 80q6 0 6 -6q2 0 2 -3v-5q0 -7 -2 -11q0 -4 -6 -8q-4 0 -6 -4q-2 0 -4 -1t-6 -1q-2 0 -4 1t-4 1q-2 2 -4.5 3t-4.5 1q-2 2 -3 4t-3 4q-2 4 -2 11v5t2 3q2 4 3 5t3 1q7 6 9 6q2 2 4 3t4 1q4 0 6 -1t4 -3q2 0 6 -6zM1839 203q-8 -8 -16 -25
q-2 -4 -4 -11t-2 -13q0 -9 2 -15l4 -12q4 -8 7 -14.5t9 -10.5q4 -4 9 -8t14 -8q8 -2 14 -4t14 -2q6 0 10.5 2t10.5 2q4 2 9 5t9 7q4 0 8 2h7h6t6 -2q6 -2 10 -6l6 -10q-6 -8 -16 -14q-6 -5 -10 -8t-11 -5q-6 -4 -11 -5t-11 -3t-11.5 -3t-11.5 -1q-14 0 -24.5 3t-20.5 5
q-20 10 -35 25q-16 16 -24 35q-2 12 -5 22t-3 23q0 6 1 13t3 15q2 6 4 12.5t6 12.5q6 8 9 13t9 11q7 5 12 9t13 8q4 4 10 6t17 6q4 0 12 1t16 1h11.5t11.5 -2t11 -4t11 -4q7 -2 11 -5t10 -7q10 -9 16 -17l-6 -8l-5 -5t-5 -3h-7h-5h-8t-7 2q-4 4 -9 7t-9 5q-6 2 -10.5 2
h-10.5q-16 0 -28 -6q-9 -2 -14 -6t-9 -8zM2195 207q3 -6 6 -12.5t5 -12.5q2 -8 2 -15v-13v-17t-2 -14t-5 -13.5t-6 -13.5q-8 -10 -16 -22q-8 -4 -14 -9.5t-11 -7.5q-6 -6 -13 -8t-15 -4q-6 -2 -13.5 -3t-15.5 -1q-20 0 -43 8q-8 6 -17 12.5t-16 12.5q-8 8 -14 16t-10 19
q-4 12 -6 22t-2 23q0 6 1 13t1 15q2 6 6 12.5t6 12.5q4 8 8 13t10 11q4 5 10.5 9t12.5 8q4 4 11 6t13 6q9 0 16 1t13 1q8 0 15.5 -1t13.5 -1q8 -4 15 -6t13 -6q5 -4 11 -8t14 -9q2 -6 8 -11t8 -13zM2165 127q4 10 4 27q0 6 -1 13t-3 11q-4 10 -7.5 15.5t-7.5 9.5
q-10 10 -24 14q-6 4 -13.5 5t-15.5 1q-14 0 -26 -6q-7 -2 -12 -6t-11 -8q-4 -4 -8 -9.5t-8 -15.5q-2 -4 -3 -11t-1 -13q0 -9 1 -15t3 -12q8 -16 16 -25q6 -4 11 -8t12 -8q6 -2 14 -4t12 -2q8 0 15.5 2t13.5 4q6 4 13 8t11 8q9 9 15 25zM2433 260l1 1t5 1h39v-219h-39v160
q0 -2 -1 -4l-3 -6v-7t-2 -4q-6 -18 -14.5 -35.5t-14.5 -33.5q-6 -17 -13 -34.5t-13 -35.5h-39l-55 139q-3 2 -3 11q-2 4 -3 5t-1 3v-158h-41v219h39q4 0 6.5 -1l2.5 -1q4 -2 5 -2t3 -2l6 -4l4 -4t2 -4q4 -17 11 -32t14 -34q6 -16 13 -32.5t13 -32.5v-2v-5v-4q4 0 4 -4v4v4
q0 3 1 5l1 2l9 16l45 115q0 2 1 4t1 4q2 2 5 3l3 1q2 2 4 2t4 2z" />
    <glyph glyph-name="two" unicode="2" horiz-adv-x="2531" 
d="M1929 721q4 -4 8.5 -9t6.5 -10q0 -6 1 -11t1 -11q0 -12 -2 -23q-2 -6 -6.5 -10t-8.5 -6q-4 -4 -8 -7t-8 -7q-12 -4 -23 -4q-6 0 -12 1t-10 3l-10.5 7t-8.5 7q-4 2 -7 6t-3 10q-4 7 -5 12t-1 11q0 10 6 22q0 5 3 10t7 9t8.5 7t10.5 5q8 4 22 4q6 0 10.5 -1t12.5 -3
q4 -2 8 -5t8 -7zM518 702q0 -2 -4 -8q-2 0 -3 -2t-5 -2q-2 -2 -8 -2h-33v47h33q4 0 8 -2q4 0 5 -1l3 -3l4 -8q2 -2 2 -10q0 -6 -2 -9zM801 721q4 -4 8 -9t6 -10q2 -6 3 -11t1 -11t-1 -11t-3 -12q-2 -6 -6 -10t-8 -6q-2 -4 -6 -7t-11 -7q-4 -2 -10 -3t-12 -1q-12 0 -23 4
q-4 4 -9 7t-9 7l-6 6t-6 10q-2 7 -4.5 12t-2.5 11q0 10 7 22q2 5 6 10t6 9q4 4 9 7t9 5q6 2 12.5 3t10.5 1q12 0 22 -4q7 -2 11 -5t6 -7zM1090 733q0 -4 1 -6t1 -4l28 -64h-59l29 64v4v6zM270 729q2 -2 3 -5t3 -5q3 -4 3 -10v-5.5t-3 -5.5q-2 -2 -3 -5t-3 -3l-8 -8h-10h-37
v53h37q6 0 10 -2q2 0 5 -2zM2478 1092v-586h-2404v586h911q0 30 5 58t18 54q12 27 27.5 51.5t37.5 42.5q37 39 90 62q29 12 56.5 17t56.5 5q33 0 61.5 -6t53.5 -18q28 -12 51.5 -28.5t42.5 -35.5q37 -37 61 -94q21 -53 21 -108h911zM1030 1192q-22 -47 -22 -100
q0 -58 22 -105q10 -22 24.5 -44.5t30.5 -41.5q19 -18 40.5 -32.5t45.5 -24.5q48 -23 105 -23q29 0 54.5 4t49.5 15q25 12 45.5 25.5t38.5 33.5q19 19 33 40.5t27 43.5q22 51 22 109q0 22 -4 45.5t-14 44.5q-12 41 -41 75q-14 17 -30.5 31.5t-33.5 24.5q-18 10 -37.5 19
t-39.5 18q-15 4 -32.5 6t-37.5 2q-29 0 -55.5 -5t-51.5 -18q-49 -18 -86 -57q-16 -18 -29.5 -41t-23.5 -45zM295 690q6 10 6 19q0 4 -1 9t-5 11q0 2 -4 6l-6 6q-2 4 -5.5 7.5t-9.5 3.5q-4 2 -9 4t-9 2h-53v-154h16v58h37q4 0 9 1t9 3q11 4 15 8q2 4 6 8t4 8zM410 758h-95
v-154h95v19h-72v47h59v20h-59v45h72v23zM559 604l-47 66q2 2 5 2t5 4q8 4 10 10q3 2 5 5t4 7v13v10t-2 8q-4 8 -11 14q-4 9 -14 9q-2 2 -7 4t-9 2h-56v-154h23v64h22l41 -56q2 -4 7 -6q2 -2 4 -2h6h14zM664 631q0 4 1 8t1 8q0 12 -4.5 20.5t-12.5 14.5q-2 0 -3 2t-5 4h-1
t-5 2h-2t-2 4q-6 0 -8 2q-7 0 -9 1l-6 3q-8 2 -8 5q-6 4 -6 6v8v8q2 0 4 2t2 4l3 1t5 1q4 2 6 2h4l2.5 -1t4.5 -1q8 0 8 -4q2 -2 4 -2h4q8 0 14 4l4 2q0 2 -2 4l-4 4q-4 2 -6 4.5t-6 4.5q-2 0 -4 1t-6 5q-6 0 -7 1t-6 1q-4 0 -9 -1t-9 -1q-4 -4 -7 -6t-7 -2q-2 -5 -5 -8
t-6 -7q-2 -4 -3 -7t-1 -9v-9t4 -8q3 -4 6 -7t3 -5q4 -2 8 -5t8 -3q4 -2 7 -4t7 -4q2 -2 5.5 -2h5.5q6 -2 7 -2t3 -2q4 -2 4 -3t2 -6q2 -2 2 -5v-7v-3t-2 -5q-2 -4 -2 -5t-4 -3q-2 -4 -5 -5t-5 -3h-5.5h-5.5h-7h-5q-2 2 -5 3t-3 5l-2 2q-6 4 -12 4h-4.5t-4.5 -2l-6 -2
q0 -4 2 -4q0 -4 4 -6q0 -2 2 -5l2 -2h3q8 -8 17 -10t19 -2h9.5t9.5 2t9 4t7 6q6 2 9.5 5.5t5.5 9.5zM838 659q2 7 2 11v10q0 12 -2 20q0 7 -3.5 11t-5.5 10q-4 6 -12 14q-4 4 -8 6t-10 9q-2 0 -6.5 2t-10.5 6q-6 0 -10 1t-10 1q-4 0 -10.5 -1t-10.5 -1q-6 -4 -10 -6t-8 -2
q-4 -7 -8 -9t-8 -6q-5 -4 -8 -7t-5 -7q-4 -6 -5 -10t-3 -11q-2 -8 -2 -20q0 -8 2 -15.5t4 -15.5q2 -6 6 -12t11 -14q6 -5 12 -9t14 -4q12 -6 29 -6h10h10q11 4 17 8q14 6 18 11q6 8 12 18q2 4 5.5 9t3.5 9zM997 758h-20v-119q0 2 -1 5l-1 3l-74 105q-4 0 -8 6h-4h-4h-15
v-154h21v129v-4l2 -2v0v-4l88 -119h16v154zM1169 604l-67 154h-23l-65 -154h12q6 0 8 2l3 3t5 3l9 27h79l11 -27q2 -4 6 -6q0 -2 8 -2h14zM1270 623h-66v135h-22v-154h88v19zM1479 758h-21v-92v-11t-2 -8q-2 -8 -10 -12q-2 -2 -5 -4t-5 -6q-6 -2 -9.5 -2h-7.5q-10 0 -14 2
q-6 4 -10 6t-4 4q-2 2 -4.5 5t-6.5 7q0 4 -1 8t-1 11v92h-20v-92v-12t2 -7q0 -8 4 -14q4 -10 12 -15q2 -2 5 -4t8 -4q2 -2 6 -3t6 -3q6 0 9 -2t9 -2q4 0 7.5 2t9.5 2q4 2 7 3t7 3l12 8q4 5 5 8t3 7q3 2 6 6t3 8v19v92zM1597 631q7 8 7 16q0 12 -4.5 20.5t-12.5 14.5
q-6 4 -6 6h-5t-5 2h-3t-5 4h-2t-5 2q-2 0 -4 1l-6 3q-8 2 -8 5q-4 2 -5 4t-3 2q0 2 -1 3t-1 5t4 8l6 6q2 0 3 1t5 1q0 2 10 2l2.5 -1t4.5 -1q2 -2 8 -4q8 -2 10 -2q6 0 8 4l6 2l-4 4l-4 4q0 2 -3 4.5t-5 4.5q-4 0 -6 1t-6 5q-4 0 -7.5 1l-3.5 1q-6 0 -10 -1t-8 -1
q-4 -4 -8 -6t-6 -2q-4 -5 -6 -8t-7 -7q0 -4 -2 -7t-2 -9t2 -9t2 -8q5 -8 11 -12q4 -2 7 -5t5 -3q6 -2 9 -4t7 -4t6.5 -2h4.5q2 -2 5 -2t5 -2t5 -3t3 -6q2 -2 2 -5v-7v-3t-2 -5q-2 -6 -8 -8q-4 -4 -6 -5t-4 -3h-6h-5h-7h-5q-4 2 -10 8v2q-6 4 -12 4h-3.5t-5.5 -2l-6 -2
q2 -2 2 -3t2 -1q0 -2 1 -3t1 -3l1 -1t1 -4q4 -2 7 -2q6 -8 15 -10t19 -2h10.5t10.5 2l8 4t8 6q2 2 5 5.5t5 9.5zM1722 758h-94v-154h94v19h-73v47h61v20h-61v45h73v23zM1966 659v11v10v11v9q-4 11 -10 21q-4 6 -12 14q-2 4 -6.5 6t-8.5 9q-4 0 -9 2t-9 6q-6 0 -10.5 1
t-10.5 1t-11 -1t-9 -1q-12 -6 -21 -8q-4 -7 -7 -9t-7 -6l-7 -7l-7 -7q-2 -6 -4 -10t-2 -11q-5 -8 -5 -20q0 -8 2.5 -15.5t4.5 -15.5q6 -14 18 -26q4 -5 10 -9t15 -4q12 -6 30 -6h10.5h10.5q4 2 9 4t9 4q4 4 8.5 6.5t6.5 4.5q8 8 12 18q6 8 10 18zM2126 758h-23v-119
q0 2 -1 5t-3 3l-74 105l-1 1t-3 5h-5h-5h-16v-154h24v129v-4v-2v-2l2 -2l86 -119h19v154zM2251 623h-66v135h-22v-154h88v19zM2374 758h-19q-4 0 -8 -4q-8 -4 -8 -9l-35 -47l-2 -2h-2v-2v2l-2 2l-37 47q-2 5 -6 9t-10 4h-17l56 -76l2 -2q0 -2 2 -2v-2v-2q0 -2 2 -2v-2v-66
h22v66v2v4q2 0 2 4v2h2zM1188 864q-19 8 -38.5 19.5t-33.5 25.5h322q-17 -14 -35.5 -25.5t-38.5 -19.5q-21 -6 -43.5 -12t-44.5 -6q-25 0 -46.5 6t-41.5 12zM1141 936l315 317q29 -39 45.5 -79.5t16.5 -81.5q0 -23 -3.5 -44.5t-11.5 -41.5q-8 -19 -18 -36.5t-23 -33.5h-321z
M1094 928q-27 35 -45 73q-7 21 -11 43.5t-4 47.5q0 20 4 40.5t11 41.5q6 18 16 35.5t25 33.5h319zM1364 1315q20 -8 38.5 -20.5t33.5 -22.5h-324q37 28 76 43q39 18 88 18t88 -18zM78 350q-4 4 -5 8t-3 9q-2 6 -3 10t-1 10t4 16q2 5 3 10t5 7l3 9t7 7q0 2 5 5t7 5q6 5 9.5 6
t9.5 3q2 0 8 1t10 1q8 0 14.5 -1t14.5 -5q8 -2 13 -6.5t9 -8.5q-2 -2 -4 -2v-4h-2h-2h-4h-6q-4 2 -8 5t-8 3h-7.5h-9.5h-10h-8q-8 -4 -12.5 -7t-8.5 -5q-4 -6 -7 -10t-5 -8q-4 -7 -4 -13v-8q0 -8 2 -14t3 -9.5t1 -7.5q2 -2 5 -4t5 -6q4 -2 6 -5t7 -3q2 -2 6 -4t8 -2
q2 -2 6 -2h6h10.5t8.5 2q4 0 9 2t9 4v29h-12h-2l-2 2l-3 3l-3 3l-1 1t-1 3v1v3v0h38v-53l-5 -5t-5 -6q-6 -2 -12 -2q-6 -2 -14 -2h-15h-10h-8q-6 2 -9.5 4.5t-9.5 6.5q-2 0 -7 3t-5 7q-6 2 -7 6t-3 8zM240 438v-45h55v-14h-55v-47h67v-17h-84v140h84v-17h-67zM369 315v123
h-45v17h106v-17h-47v-123h-14zM532 438v-49h60v-12h-60v-62h-16v140h84v-17h-68zM641 455v-86q0 -4 2 -7.5t4 -5.5q2 -6 5 -9t5 -7q0 -2 3.5 -4t5.5 -4q6 -2 10 -2h8h7t5 2q6 2 9.5 4t7.5 4q0 4 3 7t5 9q4 4 4 13v86h14v-86q0 -7 -1 -11t-3 -10t-5 -10t-7 -8t-8 -7.5
t-8 -5.5q-13 -2 -23 -2q-12 0 -25 2q-2 2 -7 5.5t-9 7.5q-6 6 -10 18q-2 6 -4 10t-2 11v86h14zM784 455v-123h62v-17h-78v140h16zM877 455v-123h65v-17h-80v140h15zM1069 315l-61 140h8q4 0 8 -2q2 -2 3 -2t3 -5l43 -104v-4q2 -2 2 -6v6l1 2l1 2q6 14 12.5 26.5t12.5 24.5
q4 17 10 29l12 24q0 5 2 5t2 2q2 2 3.5 2h5.5h8q-8 -17 -15.5 -34.5t-17.5 -33.5q-6 -20 -13 -36.5t-16 -35.5h-14zM1171 438v-45h58v-14h-58v-47h68v-17h-84v140h84v-17h-68zM1341 381q-2 -2 -10 -4l47 -62h-10q-2 0 -5 1l-3 1q-2 2 -4 3.5t-4 5.5l-39 51h-25v-62h-14v140
h51h5t7 -2q9 -2 15 -9q2 -4 4 -7t4 -7q2 -2 2 -7v-5v-9t-2 -6q0 -4 -2 -8t-4 -6l-4 -4t-9 -4zM1325 389q4 0 6 4q2 0 4 1t4 1l3 6t4 5q0 2 1 4t1 8l-1 2t-1 6q-3 2 -4 3t-3 5q-2 0 -4 1t-4 3h-6h-37v-49h37zM1452 336q2 2 4 8q2 2 3 6t1 6q0 6 -2 11q-2 0 -3 3t-3 5t-8 4
q-4 0 -6 1l-6 3q-5 0 -9 2t-4 4q-10 0 -14 6q-4 0 -5 4t-3 7v14v9t2 7q0 6 8 10q4 5 6 6t8 3q4 0 6.5 1t8.5 1q2 0 5 -1t5 -1t4 -1l6 -3q2 0 4 -2.5t2 -4.5q4 -2 5 -4t3 -2l-4 -2q-2 -2 -8 -2h-6q-4 2 -4 4h-2h-2h-2h-3h-1h-2h-9q-8 0 -8 -2q-6 -6 -6 -8q-4 0 -4 -8
q0 -6 4 -6q0 -4 2 -6t5 -3.5l3 -1.5q4 -4 6.5 -4t8.5 -4h3t3 -2h4t4 -4h2h1h1q2 0 4 -1l2 -1q4 -4 6 -7t7 -5q2 -10 2 -19v-10t-7 -8q0 -6 -8 -12q-2 -2 -6 -4.5t-8 -4.5t-8 -2h-10q-11 0 -18 2t-13 9q-2 0 -4 2l-4 4q0 2 -1 4l-1 2l2 2l1 1t5 1h2q2 0 4 -1t4 -3q4 -2 6 -4
t6 -2q0 -2 4 -2h7q8 0 10 2q8 0 12 4zM1524 455v-140h-17v140h17zM1579 336q-12 8 -18 20q-5 15 -5 31v7v9q7 11 9 17q6 8 14 16q6 6 12 10q4 5 9.5 6t9.5 3q4 0 8 1t10 1q4 0 9 -1t12 -1q4 -2 8 -3t8 -6l5 -5t7 -5q4 -4 6.5 -7t6.5 -9q2 -6 6 -17q2 -4 3 -9t1 -7
q0 -8 -2 -15t-6 -16q-2 -6 -5.5 -11t-9.5 -9q-6 -6 -11 -9t-11 -8q-10 -4 -27 -4q-8 0 -15 1t-11 3q-17 5 -23 17zM1579 408q-4 -7 -6 -13t-2 -8q0 -4 1 -8t1 -6q2 -8 8 -17q0 -2 2 -4t4 -6l5 -5t10 -3q2 -2 5 -4t5 -2q4 -2 8 -2h8h7t7 2q3 0 7 2l8 4q2 0 5 3l5 5q2 4 4 6
l4 4q2 4 3 7.5t3 9.5q0 2 1 6t1 8q0 2 -1 8t-5 13q0 4 -4 8t-6 10q-4 2 -8 5t-10 7h-9.5h-11.5h-12h-10q-4 -4 -9.5 -7t-9.5 -5q-2 -6 -5 -10t-3 -8zM1741 315h-17v140h13h5t5 -4l72 -103q2 0 2 -4l2 -2v-2v115h16v-140h-14l-82 115v4h-2v4v-123zM1956 438v-49h57v-12h-57
v-62h-14v140h83v-17h-69zM2114 381q-9 -2 -13 -4l45 -62h-12q-4 0 -8 2q0 2 -1 3.5t-3 5.5l-39 51h-25v-62h-16v140h51h6t8 -2t7.5 -4.5t5.5 -4.5q2 -4 4 -7t6 -7q0 -2 1 -7l1 -5q0 -6 -1 -9t-1 -6l-4 -8t-2 -6zM2101 393q2 0 3 1t3 1q7 8 7 11q2 4 2 12q0 2 -2 8q0 2 -7 8
q-2 0 -3 1l-3 3h-8h-35v-49h35q4 0 8 4zM2281 336q-4 -6 -10 -9t-12 -8q-6 -2 -12 -3t-15 -1q-8 0 -15 1t-13 3q-13 5 -23 17q-4 4 -8 9t-6 11q-2 9 -5 16t-3 15q0 2 1 7t3 9q2 5 3 10t3 7q4 6 7 9t5 7q4 2 8 5t9 5q4 5 8 6t8 3q6 0 9 1t9 1q4 0 9.5 -1t9.5 -1l9 -3t7 -6
q4 -2 8 -5t6 -5q3 -4 6 -7t5 -9q6 -6 8 -17q2 -4 3 -9t1 -7q0 -8 -1 -15t-5 -16q-2 -6 -6 -11t-11 -9zM2232 330h7.5t9.5 2q2 0 5 2t5 4q2 0 6 3t8 5l3 6t3 4q2 4 3.5 7.5t1.5 9.5q2 2 2 6v8q0 2 -1 8t-1 13l-6 8t-5 10q-6 2 -11 5t-9 7h-10.5h-10.5h-11h-11q-6 -4 -9 -7
t-8 -5q-6 -6 -8 -10l-4 -8q-2 -7 -2 -13v-8v-14q0 -6 1 -9.5t5 -7.5q0 -2 3 -4t5 -6q2 -2 5.5 -5t5.5 -3q2 -2 5 -4t9 -2q2 -2 6 -2h8zM2460 453q2 2 3 2h3h12v-140h-14v115l-2 -2v0v-2q-4 -8 -6 -17.5t-7 -15.5q-4 -6 -7 -12l-7 -14q-2 -9 -4 -15l-4 -12q-4 -6 -7 -11
t-5 -14h-15q-10 13 -15 27t-11 27q-4 14 -11.5 28.5t-11.5 28.5v2l-4 2v-115h-16v140h14q6 0 8 -2l2 -2v-5l49 -108q0 -2 2 -2v-4q0 2 1 4t1 4q0 4 5 8l43 98q0 5 1 5t3 2zM74 262h157v-20v-4v-5q0 -4 -2 -6l-4 -4l-106 -145h2v2h4h2h104v-37h-165v12q0 11 2 13q0 2 4 8
q2 2 2 4t2 4t3 4l3 6l94 129h-102v39zM260 262h139v-39h-100v-49h80v-41h-80v-53h100v-37h-139v219zM571 223h-59v-180h-43v180h-63v39h165v-39zM672 262l94 -219h-25q-8 0 -16 4q-4 2 -5 6t-5 8l-13 29h-100l-10 -29q-2 -4 -3 -5t-3 -1q0 -4 -1 -5t-5 -3q-2 0 -4.5 -1
t-4.5 -1q0 -2 -2 -2h-4h-24l94 219h37zM684 129l-27 68q0 2 -1 3t-1 3q0 4 -2 6v-6q0 -2 -2 -3t-2 -3l-26 -68h61zM774 262h139v-39h-100v-55h82v-39h-82v-86h-39v219zM1133 207q4 -6 6 -12.5t6 -12.5q2 -8 2 -15v-13v-17t-2 -14q-4 -6 -6 -13.5t-6 -13.5q-5 -4 -9 -10
l-8 -12q-8 -4 -12 -9.5t-10 -7.5q-7 -6 -14 -8t-13 -4q-8 -2 -15.5 -3t-15.5 -1q-10 0 -21 3t-22 5q-12 6 -19 12.5t-18 12.5q-14 16 -20 35q-6 12 -8 22t-2 23q0 6 1 13t3 15q4 17 12 25q4 8 7 13t7 11q9 5 14 9t11 8t12 6t15 6q6 0 13 1t15 1t15.5 -1t15.5 -1q6 -4 13 -6
t14 -6q6 -4 10 -8t12 -9q4 -6 8 -11t9 -13zM1104 127q2 6 3 12t1 15q0 12 -4 24q-4 10 -8 15.5t-11 9.5q-4 4 -9 8t-11 6q-12 6 -29 6q-16 0 -28 -6q-4 -2 -9.5 -6t-11.5 -8t-9 -9.5t-7 -15.5q-4 -4 -4 -11v-13v-15t4 -12q4 -8 7 -14.5t9 -10.5t11.5 -8t9.5 -8q8 -2 14 -4
t14 -2t14.5 2t14.5 4q6 4 11 8t9 8q7 4 11 10.5t8 14.5zM1329 262h39v-219h-37l-102 147q-2 0 -2 1.5t-2 3.5q-2 4 -2 6q-4 0 -4 4l-1 1t-4 3v-166h-38v219h34q4 0 8.5 -1t4.5 -3l6 -3t4 -3q10 -16 21.5 -31.5t21.5 -34.5q12 -14 23.5 -29.5t25.5 -29.5q0 -4 1 -6t1 -6
q0 -2 1 -4t1 -5v156zM1389 262h165v-39h-65v-180h-39v180h-61v39zM1690 150q2 -5 5 -9t5 -8q0 -4 2 -9t2 -13q0 -13 -6 -27l-8 -12t-9 -11q-8 -4 -12 -8t-12 -6t-15.5 -4t-13.5 -2q-8 0 -15 2t-18 4q-6 2 -11 6t-13 13q-4 2 -6 5t-4 7q-5 2 -5 12l1.5 1t3.5 3q2 0 2 1t2 1
t4 1l2 1h10h3t3 -2q6 0 10 -2q5 -4 9 -6t6 -4q2 0 6 -2t10 -2q2 0 5 1t7 3q7 2 13 6l8 8q2 4 4 6t2 7q0 8 -6 12q-4 6 -8 6q-4 4 -7.5 5t-5.5 1q-6 2 -16 8q-4 0 -9 1t-9 6q-9 2 -13 5t-8 7q-6 4 -9 8t-5 8q-6 12 -6 25q0 18 6 26q2 7 6 11t10 8q4 4 9.5 6t13.5 6q4 0 10 1
t14 1q4 0 8.5 -1t10.5 -1q4 -2 7 -4t9 -4q2 -2 6 -5t8 -7q3 -2 6 -5.5t5 -7.5l-8 -4l-6 -4t-3 -4h-8h-4h-4h-2q-6 0 -6 2l-8 4q-3 0 -4 1l-1 1h-6h-12q-4 0 -5 -1t-5 -3q-2 -2 -4 -8q-2 -2 -2 -8t2 -6q2 -2 3 -4.5t1 -6.5q4 0 7 -1t5 -1q6 -2 11 -4t7 -4l11 -2q4 -4 9 -5
t11 -7q10 -2 17 -12zM1755 80q6 0 6 -6q2 0 2 -3v-5q0 -7 -2 -11q0 -4 -6 -8q-4 0 -6 -4q-2 0 -4 -1t-6 -1q-2 0 -4 1t-4 1q-2 2 -4.5 3t-4.5 1q-2 2 -3 4t-3 4q-2 4 -2 11v5t2 3q2 4 3 5t3 1q7 6 9 6q2 2 4 3t4 1q4 0 6 -1t4 -3q2 0 6 -6zM1839 203q-8 -8 -16 -25
q-2 -4 -4 -11t-2 -13q0 -9 2 -15l4 -12q4 -8 7 -14.5t9 -10.5q4 -4 9 -8t14 -8q8 -2 14 -4t14 -2q6 0 10.5 2t10.5 2q4 2 9 5t9 7q4 0 8 2h7h6t6 -2q6 -2 10 -6l6 -10q-6 -8 -16 -14q-6 -5 -10 -8t-11 -5q-6 -4 -11 -5t-11 -3t-11.5 -3t-11.5 -1q-14 0 -24.5 3t-20.5 5
q-20 10 -35 25q-16 16 -24 35q-2 12 -5 22t-3 23q0 6 1 13t3 15q2 6 4 12.5t6 12.5q6 8 9 13t9 11q7 5 12 9t13 8q4 4 10 6t17 6q4 0 12 1t16 1h11.5t11.5 -2t11 -4t11 -4q7 -2 11 -5t10 -7q10 -9 16 -17l-6 -8l-5 -5t-5 -3h-7h-5h-8t-7 2q-4 4 -9 7t-9 5q-6 2 -10.5 2
h-10.5q-16 0 -28 -6q-9 -2 -14 -6t-9 -8zM2195 207q3 -6 6 -12.5t5 -12.5q2 -8 2 -15v-13v-17t-2 -14t-5 -13.5t-6 -13.5q-8 -10 -16 -22q-8 -4 -14 -9.5t-11 -7.5q-6 -6 -13 -8t-15 -4q-6 -2 -13.5 -3t-15.5 -1q-20 0 -43 8q-8 6 -17 12.5t-16 12.5q-8 8 -14 16t-10 19
q-4 12 -6 22t-2 23q0 6 1 13t1 15q2 6 6 12.5t6 12.5q4 8 8 13t10 11q4 5 10.5 9t12.5 8q4 4 11 6t13 6q9 0 16 1t13 1q8 0 15.5 -1t13.5 -1q8 -4 15 -6t13 -6q5 -4 11 -8t14 -9q2 -6 8 -11t8 -13zM2165 127q4 10 4 27q0 6 -1 13t-3 11q-4 10 -7.5 15.5t-7.5 9.5
q-10 10 -24 14q-6 4 -13.5 5t-15.5 1q-14 0 -26 -6q-7 -2 -12 -6t-11 -8q-4 -4 -8 -9.5t-8 -15.5q-2 -4 -3 -11t-1 -13q0 -9 1 -15t3 -12q8 -16 16 -25q6 -4 11 -8t12 -8q6 -2 14 -4t12 -2q8 0 15.5 2t13.5 4q6 4 13 8t11 8q9 9 15 25zM2433 260l1 1t5 1h39v-219h-39v160
q0 -2 -1 -4l-3 -6v-7t-2 -4q-6 -18 -14.5 -35.5t-14.5 -33.5q-6 -17 -13 -34.5t-13 -35.5h-39l-55 139q-3 2 -3 11q-2 4 -3 5t-1 3v-158h-41v219h39q4 0 6.5 -1l2.5 -1q4 -2 5 -2t3 -2l6 -4l4 -4t2 -4q4 -17 11 -32t14 -34q6 -16 13 -32.5t13 -32.5v-2v-5v-4q4 0 4 -4v4v4
q0 3 1 5l1 2l9 16l45 115q0 2 1 4t1 4q2 2 5 3l3 1q2 2 4 2t4 2z" />
    <glyph glyph-name="three" unicode="3" horiz-adv-x="2531" 
d="M1929 721q4 -4 8.5 -9t6.5 -10q0 -6 1 -11t1 -11q0 -12 -2 -23q-2 -6 -6.5 -10t-8.5 -6q-4 -4 -8 -7t-8 -7q-12 -4 -23 -4q-6 0 -12 1t-10 3l-10.5 7t-8.5 7q-4 2 -7 6t-3 10q-4 7 -5 12t-1 11q0 10 6 22q0 5 3 10t7 9t8.5 7t10.5 5q8 4 22 4q6 0 10.5 -1t12.5 -3
q4 -2 8 -5t8 -7zM518 702q0 -2 -4 -8q-2 0 -3 -2t-5 -2q-2 -2 -8 -2h-33v47h33q4 0 8 -2q4 0 5 -1l3 -3l4 -8q2 -2 2 -10q0 -6 -2 -9zM801 721q4 -4 8 -9t6 -10q2 -6 3 -11t1 -11t-1 -11t-3 -12q-2 -6 -6 -10t-8 -6q-2 -4 -6 -7t-11 -7q-4 -2 -10 -3t-12 -1q-12 0 -23 4
q-4 4 -9 7t-9 7l-6 6t-6 10q-2 7 -4.5 12t-2.5 11q0 10 7 22q2 5 6 10t6 9q4 4 9 7t9 5q6 2 12.5 3t10.5 1q12 0 22 -4q7 -2 11 -5t6 -7zM1090 733q0 -4 1 -6t1 -4l28 -64h-59l29 64v4v6zM270 729q2 -2 3 -5t3 -5q3 -4 3 -10v-5.5t-3 -5.5q-2 -2 -3 -5t-3 -3l-8 -8h-10h-37
v53h37q6 0 10 -2q2 0 5 -2zM2478 1092v-586h-2404v586h911q0 30 5 58t18 54q12 27 27.5 51.5t37.5 42.5q37 39 90 62q29 12 56.5 17t56.5 5q33 0 61.5 -6t53.5 -18q28 -12 51.5 -28.5t42.5 -35.5q37 -37 61 -94q21 -53 21 -108h911zM1030 1192q-22 -47 -22 -100
q0 -58 22 -105q10 -22 24.5 -44.5t30.5 -41.5q19 -18 40.5 -32.5t45.5 -24.5q48 -23 105 -23q29 0 54.5 4t49.5 15q25 12 45.5 25.5t38.5 33.5q19 19 33 40.5t27 43.5q22 51 22 109q0 22 -4 45.5t-14 44.5q-12 41 -41 75q-14 17 -30.5 31.5t-33.5 24.5q-18 10 -37.5 19
t-39.5 18q-15 4 -32.5 6t-37.5 2q-29 0 -55.5 -5t-51.5 -18q-49 -18 -86 -57q-16 -18 -29.5 -41t-23.5 -45zM295 690q6 10 6 19q0 4 -1 9t-5 11q0 2 -4 6l-6 6q-2 4 -5.5 7.5t-9.5 3.5q-4 2 -9 4t-9 2h-53v-154h16v58h37q4 0 9 1t9 3q11 4 15 8q2 4 6 8t4 8zM410 758h-95
v-154h95v19h-72v47h59v20h-59v45h72v23zM559 604l-47 66q2 2 5 2t5 4q8 4 10 10q3 2 5 5t4 7v13v10t-2 8q-4 8 -11 14q-4 9 -14 9q-2 2 -7 4t-9 2h-56v-154h23v64h22l41 -56q2 -4 7 -6q2 -2 4 -2h6h14zM664 631q0 4 1 8t1 8q0 12 -4.5 20.5t-12.5 14.5q-2 0 -3 2t-5 4h-1
t-5 2h-2t-2 4q-6 0 -8 2q-7 0 -9 1l-6 3q-8 2 -8 5q-6 4 -6 6v8v8q2 0 4 2t2 4l3 1t5 1q4 2 6 2h4l2.5 -1t4.5 -1q8 0 8 -4q2 -2 4 -2h4q8 0 14 4l4 2q0 2 -2 4l-4 4q-4 2 -6 4.5t-6 4.5q-2 0 -4 1t-6 5q-6 0 -7 1t-6 1q-4 0 -9 -1t-9 -1q-4 -4 -7 -6t-7 -2q-2 -5 -5 -8
t-6 -7q-2 -4 -3 -7t-1 -9v-9t4 -8q3 -4 6 -7t3 -5q4 -2 8 -5t8 -3q4 -2 7 -4t7 -4q2 -2 5.5 -2h5.5q6 -2 7 -2t3 -2q4 -2 4 -3t2 -6q2 -2 2 -5v-7v-3t-2 -5q-2 -4 -2 -5t-4 -3q-2 -4 -5 -5t-5 -3h-5.5h-5.5h-7h-5q-2 2 -5 3t-3 5l-2 2q-6 4 -12 4h-4.5t-4.5 -2l-6 -2
q0 -4 2 -4q0 -4 4 -6q0 -2 2 -5l2 -2h3q8 -8 17 -10t19 -2h9.5t9.5 2t9 4t7 6q6 2 9.5 5.5t5.5 9.5zM838 659q2 7 2 11v10q0 12 -2 20q0 7 -3.5 11t-5.5 10q-4 6 -12 14q-4 4 -8 6t-10 9q-2 0 -6.5 2t-10.5 6q-6 0 -10 1t-10 1q-4 0 -10.5 -1t-10.5 -1q-6 -4 -10 -6t-8 -2
q-4 -7 -8 -9t-8 -6q-5 -4 -8 -7t-5 -7q-4 -6 -5 -10t-3 -11q-2 -8 -2 -20q0 -8 2 -15.5t4 -15.5q2 -6 6 -12t11 -14q6 -5 12 -9t14 -4q12 -6 29 -6h10h10q11 4 17 8q14 6 18 11q6 8 12 18q2 4 5.5 9t3.5 9zM997 758h-20v-119q0 2 -1 5l-1 3l-74 105q-4 0 -8 6h-4h-4h-15
v-154h21v129v-4l2 -2v0v-4l88 -119h16v154zM1169 604l-67 154h-23l-65 -154h12q6 0 8 2l3 3t5 3l9 27h79l11 -27q2 -4 6 -6q0 -2 8 -2h14zM1270 623h-66v135h-22v-154h88v19zM1479 758h-21v-92v-11t-2 -8q-2 -8 -10 -12q-2 -2 -5 -4t-5 -6q-6 -2 -9.5 -2h-7.5q-10 0 -14 2
q-6 4 -10 6t-4 4q-2 2 -4.5 5t-6.5 7q0 4 -1 8t-1 11v92h-20v-92v-12t2 -7q0 -8 4 -14q4 -10 12 -15q2 -2 5 -4t8 -4q2 -2 6 -3t6 -3q6 0 9 -2t9 -2q4 0 7.5 2t9.5 2q4 2 7 3t7 3l12 8q4 5 5 8t3 7q3 2 6 6t3 8v19v92zM1597 631q7 8 7 16q0 12 -4.5 20.5t-12.5 14.5
q-6 4 -6 6h-5t-5 2h-3t-5 4h-2t-5 2q-2 0 -4 1l-6 3q-8 2 -8 5q-4 2 -5 4t-3 2q0 2 -1 3t-1 5t4 8l6 6q2 0 3 1t5 1q0 2 10 2l2.5 -1t4.5 -1q2 -2 8 -4q8 -2 10 -2q6 0 8 4l6 2l-4 4l-4 4q0 2 -3 4.5t-5 4.5q-4 0 -6 1t-6 5q-4 0 -7.5 1l-3.5 1q-6 0 -10 -1t-8 -1
q-4 -4 -8 -6t-6 -2q-4 -5 -6 -8t-7 -7q0 -4 -2 -7t-2 -9t2 -9t2 -8q5 -8 11 -12q4 -2 7 -5t5 -3q6 -2 9 -4t7 -4t6.5 -2h4.5q2 -2 5 -2t5 -2t5 -3t3 -6q2 -2 2 -5v-7v-3t-2 -5q-2 -6 -8 -8q-4 -4 -6 -5t-4 -3h-6h-5h-7h-5q-4 2 -10 8v2q-6 4 -12 4h-3.5t-5.5 -2l-6 -2
q2 -2 2 -3t2 -1q0 -2 1 -3t1 -3l1 -1t1 -4q4 -2 7 -2q6 -8 15 -10t19 -2h10.5t10.5 2l8 4t8 6q2 2 5 5.5t5 9.5zM1722 758h-94v-154h94v19h-73v47h61v20h-61v45h73v23zM1966 659v11v10v11v9q-4 11 -10 21q-4 6 -12 14q-2 4 -6.5 6t-8.5 9q-4 0 -9 2t-9 6q-6 0 -10.5 1
t-10.5 1t-11 -1t-9 -1q-12 -6 -21 -8q-4 -7 -7 -9t-7 -6l-7 -7l-7 -7q-2 -6 -4 -10t-2 -11q-5 -8 -5 -20q0 -8 2.5 -15.5t4.5 -15.5q6 -14 18 -26q4 -5 10 -9t15 -4q12 -6 30 -6h10.5h10.5q4 2 9 4t9 4q4 4 8.5 6.5t6.5 4.5q8 8 12 18q6 8 10 18zM2126 758h-23v-119
q0 2 -1 5t-3 3l-74 105l-1 1t-3 5h-5h-5h-16v-154h24v129v-4v-2v-2l2 -2l86 -119h19v154zM2251 623h-66v135h-22v-154h88v19zM2374 758h-19q-4 0 -8 -4q-8 -4 -8 -9l-35 -47l-2 -2h-2v-2v2l-2 2l-37 47q-2 5 -6 9t-10 4h-17l56 -76l2 -2q0 -2 2 -2v-2v-2q0 -2 2 -2v-2v-66
h22v66v2v4q2 0 2 4v2h2zM1188 864q-19 8 -38.5 19.5t-33.5 25.5h322q-17 -14 -35.5 -25.5t-38.5 -19.5q-21 -6 -43.5 -12t-44.5 -6q-25 0 -46.5 6t-41.5 12zM1141 936l315 317q29 -39 45.5 -79.5t16.5 -81.5q0 -23 -3.5 -44.5t-11.5 -41.5q-8 -19 -18 -36.5t-23 -33.5h-321z
M1094 928q-27 35 -45 73q-7 21 -11 43.5t-4 47.5q0 20 4 40.5t11 41.5q6 18 16 35.5t25 33.5h319zM1364 1315q20 -8 38.5 -20.5t33.5 -22.5h-324q37 28 76 43q39 18 88 18t88 -18zM78 350q-4 4 -5 8t-3 9q-2 6 -3 10t-1 10t4 16q2 5 3 10t5 7l3 9t7 7q0 2 5 5t7 5q6 5 9.5 6
t9.5 3q2 0 8 1t10 1q8 0 14.5 -1t14.5 -5q8 -2 13 -6.5t9 -8.5q-2 -2 -4 -2v-4h-2h-2h-4h-6q-4 2 -8 5t-8 3h-7.5h-9.5h-10h-8q-8 -4 -12.5 -7t-8.5 -5q-4 -6 -7 -10t-5 -8q-4 -7 -4 -13v-8q0 -8 2 -14t3 -9.5t1 -7.5q2 -2 5 -4t5 -6q4 -2 6 -5t7 -3q2 -2 6 -4t8 -2
q2 -2 6 -2h6h10.5t8.5 2q4 0 9 2t9 4v29h-12h-2l-2 2l-3 3l-3 3l-1 1t-1 3v1v3v0h38v-53l-5 -5t-5 -6q-6 -2 -12 -2q-6 -2 -14 -2h-15h-10h-8q-6 2 -9.5 4.5t-9.5 6.5q-2 0 -7 3t-5 7q-6 2 -7 6t-3 8zM240 438v-45h55v-14h-55v-47h67v-17h-84v140h84v-17h-67zM369 315v123
h-45v17h106v-17h-47v-123h-14zM532 438v-49h60v-12h-60v-62h-16v140h84v-17h-68zM641 455v-86q0 -4 2 -7.5t4 -5.5q2 -6 5 -9t5 -7q0 -2 3.5 -4t5.5 -4q6 -2 10 -2h8h7t5 2q6 2 9.5 4t7.5 4q0 4 3 7t5 9q4 4 4 13v86h14v-86q0 -7 -1 -11t-3 -10t-5 -10t-7 -8t-8 -7.5
t-8 -5.5q-13 -2 -23 -2q-12 0 -25 2q-2 2 -7 5.5t-9 7.5q-6 6 -10 18q-2 6 -4 10t-2 11v86h14zM784 455v-123h62v-17h-78v140h16zM877 455v-123h65v-17h-80v140h15zM1069 315l-61 140h8q4 0 8 -2q2 -2 3 -2t3 -5l43 -104v-4q2 -2 2 -6v6l1 2l1 2q6 14 12.5 26.5t12.5 24.5
q4 17 10 29l12 24q0 5 2 5t2 2q2 2 3.5 2h5.5h8q-8 -17 -15.5 -34.5t-17.5 -33.5q-6 -20 -13 -36.5t-16 -35.5h-14zM1171 438v-45h58v-14h-58v-47h68v-17h-84v140h84v-17h-68zM1341 381q-2 -2 -10 -4l47 -62h-10q-2 0 -5 1l-3 1q-2 2 -4 3.5t-4 5.5l-39 51h-25v-62h-14v140
h51h5t7 -2q9 -2 15 -9q2 -4 4 -7t4 -7q2 -2 2 -7v-5v-9t-2 -6q0 -4 -2 -8t-4 -6l-4 -4t-9 -4zM1325 389q4 0 6 4q2 0 4 1t4 1l3 6t4 5q0 2 1 4t1 8l-1 2t-1 6q-3 2 -4 3t-3 5q-2 0 -4 1t-4 3h-6h-37v-49h37zM1452 336q2 2 4 8q2 2 3 6t1 6q0 6 -2 11q-2 0 -3 3t-3 5t-8 4
q-4 0 -6 1l-6 3q-5 0 -9 2t-4 4q-10 0 -14 6q-4 0 -5 4t-3 7v14v9t2 7q0 6 8 10q4 5 6 6t8 3q4 0 6.5 1t8.5 1q2 0 5 -1t5 -1t4 -1l6 -3q2 0 4 -2.5t2 -4.5q4 -2 5 -4t3 -2l-4 -2q-2 -2 -8 -2h-6q-4 2 -4 4h-2h-2h-2h-3h-1h-2h-9q-8 0 -8 -2q-6 -6 -6 -8q-4 0 -4 -8
q0 -6 4 -6q0 -4 2 -6t5 -3.5l3 -1.5q4 -4 6.5 -4t8.5 -4h3t3 -2h4t4 -4h2h1h1q2 0 4 -1l2 -1q4 -4 6 -7t7 -5q2 -10 2 -19v-10t-7 -8q0 -6 -8 -12q-2 -2 -6 -4.5t-8 -4.5t-8 -2h-10q-11 0 -18 2t-13 9q-2 0 -4 2l-4 4q0 2 -1 4l-1 2l2 2l1 1t5 1h2q2 0 4 -1t4 -3q4 -2 6 -4
t6 -2q0 -2 4 -2h7q8 0 10 2q8 0 12 4zM1524 455v-140h-17v140h17zM1579 336q-12 8 -18 20q-5 15 -5 31v7v9q7 11 9 17q6 8 14 16q6 6 12 10q4 5 9.5 6t9.5 3q4 0 8 1t10 1q4 0 9 -1t12 -1q4 -2 8 -3t8 -6l5 -5t7 -5q4 -4 6.5 -7t6.5 -9q2 -6 6 -17q2 -4 3 -9t1 -7
q0 -8 -2 -15t-6 -16q-2 -6 -5.5 -11t-9.5 -9q-6 -6 -11 -9t-11 -8q-10 -4 -27 -4q-8 0 -15 1t-11 3q-17 5 -23 17zM1579 408q-4 -7 -6 -13t-2 -8q0 -4 1 -8t1 -6q2 -8 8 -17q0 -2 2 -4t4 -6l5 -5t10 -3q2 -2 5 -4t5 -2q4 -2 8 -2h8h7t7 2q3 0 7 2l8 4q2 0 5 3l5 5q2 4 4 6
l4 4q2 4 3 7.5t3 9.5q0 2 1 6t1 8q0 2 -1 8t-5 13q0 4 -4 8t-6 10q-4 2 -8 5t-10 7h-9.5h-11.5h-12h-10q-4 -4 -9.5 -7t-9.5 -5q-2 -6 -5 -10t-3 -8zM1741 315h-17v140h13h5t5 -4l72 -103q2 0 2 -4l2 -2v-2v115h16v-140h-14l-82 115v4h-2v4v-123zM1956 438v-49h57v-12h-57
v-62h-14v140h83v-17h-69zM2114 381q-9 -2 -13 -4l45 -62h-12q-4 0 -8 2q0 2 -1 3.5t-3 5.5l-39 51h-25v-62h-16v140h51h6t8 -2t7.5 -4.5t5.5 -4.5q2 -4 4 -7t6 -7q0 -2 1 -7l1 -5q0 -6 -1 -9t-1 -6l-4 -8t-2 -6zM2101 393q2 0 3 1t3 1q7 8 7 11q2 4 2 12q0 2 -2 8q0 2 -7 8
q-2 0 -3 1l-3 3h-8h-35v-49h35q4 0 8 4zM2281 336q-4 -6 -10 -9t-12 -8q-6 -2 -12 -3t-15 -1q-8 0 -15 1t-13 3q-13 5 -23 17q-4 4 -8 9t-6 11q-2 9 -5 16t-3 15q0 2 1 7t3 9q2 5 3 10t3 7q4 6 7 9t5 7q4 2 8 5t9 5q4 5 8 6t8 3q6 0 9 1t9 1q4 0 9.5 -1t9.5 -1l9 -3t7 -6
q4 -2 8 -5t6 -5q3 -4 6 -7t5 -9q6 -6 8 -17q2 -4 3 -9t1 -7q0 -8 -1 -15t-5 -16q-2 -6 -6 -11t-11 -9zM2232 330h7.5t9.5 2q2 0 5 2t5 4q2 0 6 3t8 5l3 6t3 4q2 4 3.5 7.5t1.5 9.5q2 2 2 6v8q0 2 -1 8t-1 13l-6 8t-5 10q-6 2 -11 5t-9 7h-10.5h-10.5h-11h-11q-6 -4 -9 -7
t-8 -5q-6 -6 -8 -10l-4 -8q-2 -7 -2 -13v-8v-14q0 -6 1 -9.5t5 -7.5q0 -2 3 -4t5 -6q2 -2 5.5 -5t5.5 -3q2 -2 5 -4t9 -2q2 -2 6 -2h8zM2460 453q2 2 3 2h3h12v-140h-14v115l-2 -2v0v-2q-4 -8 -6 -17.5t-7 -15.5q-4 -6 -7 -12l-7 -14q-2 -9 -4 -15l-4 -12q-4 -6 -7 -11
t-5 -14h-15q-10 13 -15 27t-11 27q-4 14 -11.5 28.5t-11.5 28.5v2l-4 2v-115h-16v140h14q6 0 8 -2l2 -2v-5l49 -108q0 -2 2 -2v-4q0 2 1 4t1 4q0 4 5 8l43 98q0 5 1 5t3 2zM74 262h157v-20v-4v-5q0 -4 -2 -6l-4 -4l-106 -145h2v2h4h2h104v-37h-165v12q0 11 2 13q0 2 4 8
q2 2 2 4t2 4t3 4l3 6l94 129h-102v39zM260 262h139v-39h-100v-49h80v-41h-80v-53h100v-37h-139v219zM571 223h-59v-180h-43v180h-63v39h165v-39zM672 262l94 -219h-25q-8 0 -16 4q-4 2 -5 6t-5 8l-13 29h-100l-10 -29q-2 -4 -3 -5t-3 -1q0 -4 -1 -5t-5 -3q-2 0 -4.5 -1
t-4.5 -1q0 -2 -2 -2h-4h-24l94 219h37zM684 129l-27 68q0 2 -1 3t-1 3q0 4 -2 6v-6q0 -2 -2 -3t-2 -3l-26 -68h61zM774 262h139v-39h-100v-55h82v-39h-82v-86h-39v219zM1133 207q4 -6 6 -12.5t6 -12.5q2 -8 2 -15v-13v-17t-2 -14q-4 -6 -6 -13.5t-6 -13.5q-5 -4 -9 -10
l-8 -12q-8 -4 -12 -9.5t-10 -7.5q-7 -6 -14 -8t-13 -4q-8 -2 -15.5 -3t-15.5 -1q-10 0 -21 3t-22 5q-12 6 -19 12.5t-18 12.5q-14 16 -20 35q-6 12 -8 22t-2 23q0 6 1 13t3 15q4 17 12 25q4 8 7 13t7 11q9 5 14 9t11 8t12 6t15 6q6 0 13 1t15 1t15.5 -1t15.5 -1q6 -4 13 -6
t14 -6q6 -4 10 -8t12 -9q4 -6 8 -11t9 -13zM1104 127q2 6 3 12t1 15q0 12 -4 24q-4 10 -8 15.5t-11 9.5q-4 4 -9 8t-11 6q-12 6 -29 6q-16 0 -28 -6q-4 -2 -9.5 -6t-11.5 -8t-9 -9.5t-7 -15.5q-4 -4 -4 -11v-13v-15t4 -12q4 -8 7 -14.5t9 -10.5t11.5 -8t9.5 -8q8 -2 14 -4
t14 -2t14.5 2t14.5 4q6 4 11 8t9 8q7 4 11 10.5t8 14.5zM1329 262h39v-219h-37l-102 147q-2 0 -2 1.5t-2 3.5q-2 4 -2 6q-4 0 -4 4l-1 1t-4 3v-166h-38v219h34q4 0 8.5 -1t4.5 -3l6 -3t4 -3q10 -16 21.5 -31.5t21.5 -34.5q12 -14 23.5 -29.5t25.5 -29.5q0 -4 1 -6t1 -6
q0 -2 1 -4t1 -5v156zM1389 262h165v-39h-65v-180h-39v180h-61v39zM1690 150q2 -5 5 -9t5 -8q0 -4 2 -9t2 -13q0 -13 -6 -27l-8 -12t-9 -11q-8 -4 -12 -8t-12 -6t-15.5 -4t-13.5 -2q-8 0 -15 2t-18 4q-6 2 -11 6t-13 13q-4 2 -6 5t-4 7q-5 2 -5 12l1.5 1t3.5 3q2 0 2 1t2 1
t4 1l2 1h10h3t3 -2q6 0 10 -2q5 -4 9 -6t6 -4q2 0 6 -2t10 -2q2 0 5 1t7 3q7 2 13 6l8 8q2 4 4 6t2 7q0 8 -6 12q-4 6 -8 6q-4 4 -7.5 5t-5.5 1q-6 2 -16 8q-4 0 -9 1t-9 6q-9 2 -13 5t-8 7q-6 4 -9 8t-5 8q-6 12 -6 25q0 18 6 26q2 7 6 11t10 8q4 4 9.5 6t13.5 6q4 0 10 1
t14 1q4 0 8.5 -1t10.5 -1q4 -2 7 -4t9 -4q2 -2 6 -5t8 -7q3 -2 6 -5.5t5 -7.5l-8 -4l-6 -4t-3 -4h-8h-4h-4h-2q-6 0 -6 2l-8 4q-3 0 -4 1l-1 1h-6h-12q-4 0 -5 -1t-5 -3q-2 -2 -4 -8q-2 -2 -2 -8t2 -6q2 -2 3 -4.5t1 -6.5q4 0 7 -1t5 -1q6 -2 11 -4t7 -4l11 -2q4 -4 9 -5
t11 -7q10 -2 17 -12zM1755 80q6 0 6 -6q2 0 2 -3v-5q0 -7 -2 -11q0 -4 -6 -8q-4 0 -6 -4q-2 0 -4 -1t-6 -1q-2 0 -4 1t-4 1q-2 2 -4.5 3t-4.5 1q-2 2 -3 4t-3 4q-2 4 -2 11v5t2 3q2 4 3 5t3 1q7 6 9 6q2 2 4 3t4 1q4 0 6 -1t4 -3q2 0 6 -6zM1839 203q-8 -8 -16 -25
q-2 -4 -4 -11t-2 -13q0 -9 2 -15l4 -12q4 -8 7 -14.5t9 -10.5q4 -4 9 -8t14 -8q8 -2 14 -4t14 -2q6 0 10.5 2t10.5 2q4 2 9 5t9 7q4 0 8 2h7h6t6 -2q6 -2 10 -6l6 -10q-6 -8 -16 -14q-6 -5 -10 -8t-11 -5q-6 -4 -11 -5t-11 -3t-11.5 -3t-11.5 -1q-14 0 -24.5 3t-20.5 5
q-20 10 -35 25q-16 16 -24 35q-2 12 -5 22t-3 23q0 6 1 13t3 15q2 6 4 12.5t6 12.5q6 8 9 13t9 11q7 5 12 9t13 8q4 4 10 6t17 6q4 0 12 1t16 1h11.5t11.5 -2t11 -4t11 -4q7 -2 11 -5t10 -7q10 -9 16 -17l-6 -8l-5 -5t-5 -3h-7h-5h-8t-7 2q-4 4 -9 7t-9 5q-6 2 -10.5 2
h-10.5q-16 0 -28 -6q-9 -2 -14 -6t-9 -8zM2195 207q3 -6 6 -12.5t5 -12.5q2 -8 2 -15v-13v-17t-2 -14t-5 -13.5t-6 -13.5q-8 -10 -16 -22q-8 -4 -14 -9.5t-11 -7.5q-6 -6 -13 -8t-15 -4q-6 -2 -13.5 -3t-15.5 -1q-20 0 -43 8q-8 6 -17 12.5t-16 12.5q-8 8 -14 16t-10 19
q-4 12 -6 22t-2 23q0 6 1 13t1 15q2 6 6 12.5t6 12.5q4 8 8 13t10 11q4 5 10.5 9t12.5 8q4 4 11 6t13 6q9 0 16 1t13 1q8 0 15.5 -1t13.5 -1q8 -4 15 -6t13 -6q5 -4 11 -8t14 -9q2 -6 8 -11t8 -13zM2165 127q4 10 4 27q0 6 -1 13t-3 11q-4 10 -7.5 15.5t-7.5 9.5
q-10 10 -24 14q-6 4 -13.5 5t-15.5 1q-14 0 -26 -6q-7 -2 -12 -6t-11 -8q-4 -4 -8 -9.5t-8 -15.5q-2 -4 -3 -11t-1 -13q0 -9 1 -15t3 -12q8 -16 16 -25q6 -4 11 -8t12 -8q6 -2 14 -4t12 -2q8 0 15.5 2t13.5 4q6 4 13 8t11 8q9 9 15 25zM2433 260l1 1t5 1h39v-219h-39v160
q0 -2 -1 -4l-3 -6v-7t-2 -4q-6 -18 -14.5 -35.5t-14.5 -33.5q-6 -17 -13 -34.5t-13 -35.5h-39l-55 139q-3 2 -3 11q-2 4 -3 5t-1 3v-158h-41v219h39q4 0 6.5 -1l2.5 -1q4 -2 5 -2t3 -2l6 -4l4 -4t2 -4q4 -17 11 -32t14 -34q6 -16 13 -32.5t13 -32.5v-2v-5v-4q4 0 4 -4v4v4
q0 3 1 5l1 2l9 16l45 115q0 2 1 4t1 4q2 2 5 3l3 1q2 2 4 2t4 2z" />
    <glyph glyph-name="four" unicode="4" horiz-adv-x="2531" 
d="M1929 721q4 -4 8.5 -9t6.5 -10q0 -6 1 -11t1 -11q0 -12 -2 -23q-2 -6 -6.5 -10t-8.5 -6q-4 -4 -8 -7t-8 -7q-12 -4 -23 -4q-6 0 -12 1t-10 3l-10.5 7t-8.5 7q-4 2 -7 6t-3 10q-4 7 -5 12t-1 11q0 10 6 22q0 5 3 10t7 9t8.5 7t10.5 5q8 4 22 4q6 0 10.5 -1t12.5 -3
q4 -2 8 -5t8 -7zM518 702q0 -2 -4 -8q-2 0 -3 -2t-5 -2q-2 -2 -8 -2h-33v47h33q4 0 8 -2q4 0 5 -1l3 -3l4 -8q2 -2 2 -10q0 -6 -2 -9zM801 721q4 -4 8 -9t6 -10q2 -6 3 -11t1 -11t-1 -11t-3 -12q-2 -6 -6 -10t-8 -6q-2 -4 -6 -7t-11 -7q-4 -2 -10 -3t-12 -1q-12 0 -23 4
q-4 4 -9 7t-9 7l-6 6t-6 10q-2 7 -4.5 12t-2.5 11q0 10 7 22q2 5 6 10t6 9q4 4 9 7t9 5q6 2 12.5 3t10.5 1q12 0 22 -4q7 -2 11 -5t6 -7zM1090 733q0 -4 1 -6t1 -4l28 -64h-59l29 64v4v6zM270 729q2 -2 3 -5t3 -5q3 -4 3 -10v-5.5t-3 -5.5q-2 -2 -3 -5t-3 -3l-8 -8h-10h-37
v53h37q6 0 10 -2q2 0 5 -2zM2478 1092v-586h-2404v586h911q0 30 5 58t18 54q12 27 27.5 51.5t37.5 42.5q37 39 90 62q29 12 56.5 17t56.5 5q33 0 61.5 -6t53.5 -18q28 -12 51.5 -28.5t42.5 -35.5q37 -37 61 -94q21 -53 21 -108h911zM1030 1192q-22 -47 -22 -100
q0 -58 22 -105q10 -22 24.5 -44.5t30.5 -41.5q19 -18 40.5 -32.5t45.5 -24.5q48 -23 105 -23q29 0 54.5 4t49.5 15q25 12 45.5 25.5t38.5 33.5q19 19 33 40.5t27 43.5q22 51 22 109q0 22 -4 45.5t-14 44.5q-12 41 -41 75q-14 17 -30.5 31.5t-33.5 24.5q-18 10 -37.5 19
t-39.5 18q-15 4 -32.5 6t-37.5 2q-29 0 -55.5 -5t-51.5 -18q-49 -18 -86 -57q-16 -18 -29.5 -41t-23.5 -45zM295 690q6 10 6 19q0 4 -1 9t-5 11q0 2 -4 6l-6 6q-2 4 -5.5 7.5t-9.5 3.5q-4 2 -9 4t-9 2h-53v-154h16v58h37q4 0 9 1t9 3q11 4 15 8q2 4 6 8t4 8zM410 758h-95
v-154h95v19h-72v47h59v20h-59v45h72v23zM559 604l-47 66q2 2 5 2t5 4q8 4 10 10q3 2 5 5t4 7v13v10t-2 8q-4 8 -11 14q-4 9 -14 9q-2 2 -7 4t-9 2h-56v-154h23v64h22l41 -56q2 -4 7 -6q2 -2 4 -2h6h14zM664 631q0 4 1 8t1 8q0 12 -4.5 20.5t-12.5 14.5q-2 0 -3 2t-5 4h-1
t-5 2h-2t-2 4q-6 0 -8 2q-7 0 -9 1l-6 3q-8 2 -8 5q-6 4 -6 6v8v8q2 0 4 2t2 4l3 1t5 1q4 2 6 2h4l2.5 -1t4.5 -1q8 0 8 -4q2 -2 4 -2h4q8 0 14 4l4 2q0 2 -2 4l-4 4q-4 2 -6 4.5t-6 4.5q-2 0 -4 1t-6 5q-6 0 -7 1t-6 1q-4 0 -9 -1t-9 -1q-4 -4 -7 -6t-7 -2q-2 -5 -5 -8
t-6 -7q-2 -4 -3 -7t-1 -9v-9t4 -8q3 -4 6 -7t3 -5q4 -2 8 -5t8 -3q4 -2 7 -4t7 -4q2 -2 5.5 -2h5.5q6 -2 7 -2t3 -2q4 -2 4 -3t2 -6q2 -2 2 -5v-7v-3t-2 -5q-2 -4 -2 -5t-4 -3q-2 -4 -5 -5t-5 -3h-5.5h-5.5h-7h-5q-2 2 -5 3t-3 5l-2 2q-6 4 -12 4h-4.5t-4.5 -2l-6 -2
q0 -4 2 -4q0 -4 4 -6q0 -2 2 -5l2 -2h3q8 -8 17 -10t19 -2h9.5t9.5 2t9 4t7 6q6 2 9.5 5.5t5.5 9.5zM838 659q2 7 2 11v10q0 12 -2 20q0 7 -3.5 11t-5.5 10q-4 6 -12 14q-4 4 -8 6t-10 9q-2 0 -6.5 2t-10.5 6q-6 0 -10 1t-10 1q-4 0 -10.5 -1t-10.5 -1q-6 -4 -10 -6t-8 -2
q-4 -7 -8 -9t-8 -6q-5 -4 -8 -7t-5 -7q-4 -6 -5 -10t-3 -11q-2 -8 -2 -20q0 -8 2 -15.5t4 -15.5q2 -6 6 -12t11 -14q6 -5 12 -9t14 -4q12 -6 29 -6h10h10q11 4 17 8q14 6 18 11q6 8 12 18q2 4 5.5 9t3.5 9zM997 758h-20v-119q0 2 -1 5l-1 3l-74 105q-4 0 -8 6h-4h-4h-15
v-154h21v129v-4l2 -2v0v-4l88 -119h16v154zM1169 604l-67 154h-23l-65 -154h12q6 0 8 2l3 3t5 3l9 27h79l11 -27q2 -4 6 -6q0 -2 8 -2h14zM1270 623h-66v135h-22v-154h88v19zM1479 758h-21v-92v-11t-2 -8q-2 -8 -10 -12q-2 -2 -5 -4t-5 -6q-6 -2 -9.5 -2h-7.5q-10 0 -14 2
q-6 4 -10 6t-4 4q-2 2 -4.5 5t-6.5 7q0 4 -1 8t-1 11v92h-20v-92v-12t2 -7q0 -8 4 -14q4 -10 12 -15q2 -2 5 -4t8 -4q2 -2 6 -3t6 -3q6 0 9 -2t9 -2q4 0 7.5 2t9.5 2q4 2 7 3t7 3l12 8q4 5 5 8t3 7q3 2 6 6t3 8v19v92zM1597 631q7 8 7 16q0 12 -4.5 20.5t-12.5 14.5
q-6 4 -6 6h-5t-5 2h-3t-5 4h-2t-5 2q-2 0 -4 1l-6 3q-8 2 -8 5q-4 2 -5 4t-3 2q0 2 -1 3t-1 5t4 8l6 6q2 0 3 1t5 1q0 2 10 2l2.5 -1t4.5 -1q2 -2 8 -4q8 -2 10 -2q6 0 8 4l6 2l-4 4l-4 4q0 2 -3 4.5t-5 4.5q-4 0 -6 1t-6 5q-4 0 -7.5 1l-3.5 1q-6 0 -10 -1t-8 -1
q-4 -4 -8 -6t-6 -2q-4 -5 -6 -8t-7 -7q0 -4 -2 -7t-2 -9t2 -9t2 -8q5 -8 11 -12q4 -2 7 -5t5 -3q6 -2 9 -4t7 -4t6.5 -2h4.5q2 -2 5 -2t5 -2t5 -3t3 -6q2 -2 2 -5v-7v-3t-2 -5q-2 -6 -8 -8q-4 -4 -6 -5t-4 -3h-6h-5h-7h-5q-4 2 -10 8v2q-6 4 -12 4h-3.5t-5.5 -2l-6 -2
q2 -2 2 -3t2 -1q0 -2 1 -3t1 -3l1 -1t1 -4q4 -2 7 -2q6 -8 15 -10t19 -2h10.5t10.5 2l8 4t8 6q2 2 5 5.5t5 9.5zM1722 758h-94v-154h94v19h-73v47h61v20h-61v45h73v23zM1966 659v11v10v11v9q-4 11 -10 21q-4 6 -12 14q-2 4 -6.5 6t-8.5 9q-4 0 -9 2t-9 6q-6 0 -10.5 1
t-10.5 1t-11 -1t-9 -1q-12 -6 -21 -8q-4 -7 -7 -9t-7 -6l-7 -7l-7 -7q-2 -6 -4 -10t-2 -11q-5 -8 -5 -20q0 -8 2.5 -15.5t4.5 -15.5q6 -14 18 -26q4 -5 10 -9t15 -4q12 -6 30 -6h10.5h10.5q4 2 9 4t9 4q4 4 8.5 6.5t6.5 4.5q8 8 12 18q6 8 10 18zM2126 758h-23v-119
q0 2 -1 5t-3 3l-74 105l-1 1t-3 5h-5h-5h-16v-154h24v129v-4v-2v-2l2 -2l86 -119h19v154zM2251 623h-66v135h-22v-154h88v19zM2374 758h-19q-4 0 -8 -4q-8 -4 -8 -9l-35 -47l-2 -2h-2v-2v2l-2 2l-37 47q-2 5 -6 9t-10 4h-17l56 -76l2 -2q0 -2 2 -2v-2v-2q0 -2 2 -2v-2v-66
h22v66v2v4q2 0 2 4v2h2zM1188 864q-19 8 -38.5 19.5t-33.5 25.5h322q-17 -14 -35.5 -25.5t-38.5 -19.5q-21 -6 -43.5 -12t-44.5 -6q-25 0 -46.5 6t-41.5 12zM1141 936l315 317q29 -39 45.5 -79.5t16.5 -81.5q0 -23 -3.5 -44.5t-11.5 -41.5q-8 -19 -18 -36.5t-23 -33.5h-321z
M1094 928q-27 35 -45 73q-7 21 -11 43.5t-4 47.5q0 20 4 40.5t11 41.5q6 18 16 35.5t25 33.5h319zM1364 1315q20 -8 38.5 -20.5t33.5 -22.5h-324q37 28 76 43q39 18 88 18t88 -18zM78 350q-4 4 -5 8t-3 9q-2 6 -3 10t-1 10t4 16q2 5 3 10t5 7l3 9t7 7q0 2 5 5t7 5q6 5 9.5 6
t9.5 3q2 0 8 1t10 1q8 0 14.5 -1t14.5 -5q8 -2 13 -6.5t9 -8.5q-2 -2 -4 -2v-4h-2h-2h-4h-6q-4 2 -8 5t-8 3h-7.5h-9.5h-10h-8q-8 -4 -12.5 -7t-8.5 -5q-4 -6 -7 -10t-5 -8q-4 -7 -4 -13v-8q0 -8 2 -14t3 -9.5t1 -7.5q2 -2 5 -4t5 -6q4 -2 6 -5t7 -3q2 -2 6 -4t8 -2
q2 -2 6 -2h6h10.5t8.5 2q4 0 9 2t9 4v29h-12h-2l-2 2l-3 3l-3 3l-1 1t-1 3v1v3v0h38v-53l-5 -5t-5 -6q-6 -2 -12 -2q-6 -2 -14 -2h-15h-10h-8q-6 2 -9.5 4.5t-9.5 6.5q-2 0 -7 3t-5 7q-6 2 -7 6t-3 8zM240 438v-45h55v-14h-55v-47h67v-17h-84v140h84v-17h-67zM369 315v123
h-45v17h106v-17h-47v-123h-14zM532 438v-49h60v-12h-60v-62h-16v140h84v-17h-68zM641 455v-86q0 -4 2 -7.5t4 -5.5q2 -6 5 -9t5 -7q0 -2 3.5 -4t5.5 -4q6 -2 10 -2h8h7t5 2q6 2 9.5 4t7.5 4q0 4 3 7t5 9q4 4 4 13v86h14v-86q0 -7 -1 -11t-3 -10t-5 -10t-7 -8t-8 -7.5
t-8 -5.5q-13 -2 -23 -2q-12 0 -25 2q-2 2 -7 5.5t-9 7.5q-6 6 -10 18q-2 6 -4 10t-2 11v86h14zM784 455v-123h62v-17h-78v140h16zM877 455v-123h65v-17h-80v140h15zM1069 315l-61 140h8q4 0 8 -2q2 -2 3 -2t3 -5l43 -104v-4q2 -2 2 -6v6l1 2l1 2q6 14 12.5 26.5t12.5 24.5
q4 17 10 29l12 24q0 5 2 5t2 2q2 2 3.5 2h5.5h8q-8 -17 -15.5 -34.5t-17.5 -33.5q-6 -20 -13 -36.5t-16 -35.5h-14zM1171 438v-45h58v-14h-58v-47h68v-17h-84v140h84v-17h-68zM1341 381q-2 -2 -10 -4l47 -62h-10q-2 0 -5 1l-3 1q-2 2 -4 3.5t-4 5.5l-39 51h-25v-62h-14v140
h51h5t7 -2q9 -2 15 -9q2 -4 4 -7t4 -7q2 -2 2 -7v-5v-9t-2 -6q0 -4 -2 -8t-4 -6l-4 -4t-9 -4zM1325 389q4 0 6 4q2 0 4 1t4 1l3 6t4 5q0 2 1 4t1 8l-1 2t-1 6q-3 2 -4 3t-3 5q-2 0 -4 1t-4 3h-6h-37v-49h37zM1452 336q2 2 4 8q2 2 3 6t1 6q0 6 -2 11q-2 0 -3 3t-3 5t-8 4
q-4 0 -6 1l-6 3q-5 0 -9 2t-4 4q-10 0 -14 6q-4 0 -5 4t-3 7v14v9t2 7q0 6 8 10q4 5 6 6t8 3q4 0 6.5 1t8.5 1q2 0 5 -1t5 -1t4 -1l6 -3q2 0 4 -2.5t2 -4.5q4 -2 5 -4t3 -2l-4 -2q-2 -2 -8 -2h-6q-4 2 -4 4h-2h-2h-2h-3h-1h-2h-9q-8 0 -8 -2q-6 -6 -6 -8q-4 0 -4 -8
q0 -6 4 -6q0 -4 2 -6t5 -3.5l3 -1.5q4 -4 6.5 -4t8.5 -4h3t3 -2h4t4 -4h2h1h1q2 0 4 -1l2 -1q4 -4 6 -7t7 -5q2 -10 2 -19v-10t-7 -8q0 -6 -8 -12q-2 -2 -6 -4.5t-8 -4.5t-8 -2h-10q-11 0 -18 2t-13 9q-2 0 -4 2l-4 4q0 2 -1 4l-1 2l2 2l1 1t5 1h2q2 0 4 -1t4 -3q4 -2 6 -4
t6 -2q0 -2 4 -2h7q8 0 10 2q8 0 12 4zM1524 455v-140h-17v140h17zM1579 336q-12 8 -18 20q-5 15 -5 31v7v9q7 11 9 17q6 8 14 16q6 6 12 10q4 5 9.5 6t9.5 3q4 0 8 1t10 1q4 0 9 -1t12 -1q4 -2 8 -3t8 -6l5 -5t7 -5q4 -4 6.5 -7t6.5 -9q2 -6 6 -17q2 -4 3 -9t1 -7
q0 -8 -2 -15t-6 -16q-2 -6 -5.5 -11t-9.5 -9q-6 -6 -11 -9t-11 -8q-10 -4 -27 -4q-8 0 -15 1t-11 3q-17 5 -23 17zM1579 408q-4 -7 -6 -13t-2 -8q0 -4 1 -8t1 -6q2 -8 8 -17q0 -2 2 -4t4 -6l5 -5t10 -3q2 -2 5 -4t5 -2q4 -2 8 -2h8h7t7 2q3 0 7 2l8 4q2 0 5 3l5 5q2 4 4 6
l4 4q2 4 3 7.5t3 9.5q0 2 1 6t1 8q0 2 -1 8t-5 13q0 4 -4 8t-6 10q-4 2 -8 5t-10 7h-9.5h-11.5h-12h-10q-4 -4 -9.5 -7t-9.5 -5q-2 -6 -5 -10t-3 -8zM1741 315h-17v140h13h5t5 -4l72 -103q2 0 2 -4l2 -2v-2v115h16v-140h-14l-82 115v4h-2v4v-123zM1956 438v-49h57v-12h-57
v-62h-14v140h83v-17h-69zM2114 381q-9 -2 -13 -4l45 -62h-12q-4 0 -8 2q0 2 -1 3.5t-3 5.5l-39 51h-25v-62h-16v140h51h6t8 -2t7.5 -4.5t5.5 -4.5q2 -4 4 -7t6 -7q0 -2 1 -7l1 -5q0 -6 -1 -9t-1 -6l-4 -8t-2 -6zM2101 393q2 0 3 1t3 1q7 8 7 11q2 4 2 12q0 2 -2 8q0 2 -7 8
q-2 0 -3 1l-3 3h-8h-35v-49h35q4 0 8 4zM2281 336q-4 -6 -10 -9t-12 -8q-6 -2 -12 -3t-15 -1q-8 0 -15 1t-13 3q-13 5 -23 17q-4 4 -8 9t-6 11q-2 9 -5 16t-3 15q0 2 1 7t3 9q2 5 3 10t3 7q4 6 7 9t5 7q4 2 8 5t9 5q4 5 8 6t8 3q6 0 9 1t9 1q4 0 9.5 -1t9.5 -1l9 -3t7 -6
q4 -2 8 -5t6 -5q3 -4 6 -7t5 -9q6 -6 8 -17q2 -4 3 -9t1 -7q0 -8 -1 -15t-5 -16q-2 -6 -6 -11t-11 -9zM2232 330h7.5t9.5 2q2 0 5 2t5 4q2 0 6 3t8 5l3 6t3 4q2 4 3.5 7.5t1.5 9.5q2 2 2 6v8q0 2 -1 8t-1 13l-6 8t-5 10q-6 2 -11 5t-9 7h-10.5h-10.5h-11h-11q-6 -4 -9 -7
t-8 -5q-6 -6 -8 -10l-4 -8q-2 -7 -2 -13v-8v-14q0 -6 1 -9.5t5 -7.5q0 -2 3 -4t5 -6q2 -2 5.5 -5t5.5 -3q2 -2 5 -4t9 -2q2 -2 6 -2h8zM2460 453q2 2 3 2h3h12v-140h-14v115l-2 -2v0v-2q-4 -8 -6 -17.5t-7 -15.5q-4 -6 -7 -12l-7 -14q-2 -9 -4 -15l-4 -12q-4 -6 -7 -11
t-5 -14h-15q-10 13 -15 27t-11 27q-4 14 -11.5 28.5t-11.5 28.5v2l-4 2v-115h-16v140h14q6 0 8 -2l2 -2v-5l49 -108q0 -2 2 -2v-4q0 2 1 4t1 4q0 4 5 8l43 98q0 5 1 5t3 2zM74 262h157v-20v-4v-5q0 -4 -2 -6l-4 -4l-106 -145h2v2h4h2h104v-37h-165v12q0 11 2 13q0 2 4 8
q2 2 2 4t2 4t3 4l3 6l94 129h-102v39zM260 262h139v-39h-100v-49h80v-41h-80v-53h100v-37h-139v219zM571 223h-59v-180h-43v180h-63v39h165v-39zM672 262l94 -219h-25q-8 0 -16 4q-4 2 -5 6t-5 8l-13 29h-100l-10 -29q-2 -4 -3 -5t-3 -1q0 -4 -1 -5t-5 -3q-2 0 -4.5 -1
t-4.5 -1q0 -2 -2 -2h-4h-24l94 219h37zM684 129l-27 68q0 2 -1 3t-1 3q0 4 -2 6v-6q0 -2 -2 -3t-2 -3l-26 -68h61zM774 262h139v-39h-100v-55h82v-39h-82v-86h-39v219zM1133 207q4 -6 6 -12.5t6 -12.5q2 -8 2 -15v-13v-17t-2 -14q-4 -6 -6 -13.5t-6 -13.5q-5 -4 -9 -10
l-8 -12q-8 -4 -12 -9.5t-10 -7.5q-7 -6 -14 -8t-13 -4q-8 -2 -15.5 -3t-15.5 -1q-10 0 -21 3t-22 5q-12 6 -19 12.5t-18 12.5q-14 16 -20 35q-6 12 -8 22t-2 23q0 6 1 13t3 15q4 17 12 25q4 8 7 13t7 11q9 5 14 9t11 8t12 6t15 6q6 0 13 1t15 1t15.5 -1t15.5 -1q6 -4 13 -6
t14 -6q6 -4 10 -8t12 -9q4 -6 8 -11t9 -13zM1104 127q2 6 3 12t1 15q0 12 -4 24q-4 10 -8 15.5t-11 9.5q-4 4 -9 8t-11 6q-12 6 -29 6q-16 0 -28 -6q-4 -2 -9.5 -6t-11.5 -8t-9 -9.5t-7 -15.5q-4 -4 -4 -11v-13v-15t4 -12q4 -8 7 -14.5t9 -10.5t11.5 -8t9.5 -8q8 -2 14 -4
t14 -2t14.5 2t14.5 4q6 4 11 8t9 8q7 4 11 10.5t8 14.5zM1329 262h39v-219h-37l-102 147q-2 0 -2 1.5t-2 3.5q-2 4 -2 6q-4 0 -4 4l-1 1t-4 3v-166h-38v219h34q4 0 8.5 -1t4.5 -3l6 -3t4 -3q10 -16 21.5 -31.5t21.5 -34.5q12 -14 23.5 -29.5t25.5 -29.5q0 -4 1 -6t1 -6
q0 -2 1 -4t1 -5v156zM1389 262h165v-39h-65v-180h-39v180h-61v39zM1690 150q2 -5 5 -9t5 -8q0 -4 2 -9t2 -13q0 -13 -6 -27l-8 -12t-9 -11q-8 -4 -12 -8t-12 -6t-15.5 -4t-13.5 -2q-8 0 -15 2t-18 4q-6 2 -11 6t-13 13q-4 2 -6 5t-4 7q-5 2 -5 12l1.5 1t3.5 3q2 0 2 1t2 1
t4 1l2 1h10h3t3 -2q6 0 10 -2q5 -4 9 -6t6 -4q2 0 6 -2t10 -2q2 0 5 1t7 3q7 2 13 6l8 8q2 4 4 6t2 7q0 8 -6 12q-4 6 -8 6q-4 4 -7.5 5t-5.5 1q-6 2 -16 8q-4 0 -9 1t-9 6q-9 2 -13 5t-8 7q-6 4 -9 8t-5 8q-6 12 -6 25q0 18 6 26q2 7 6 11t10 8q4 4 9.5 6t13.5 6q4 0 10 1
t14 1q4 0 8.5 -1t10.5 -1q4 -2 7 -4t9 -4q2 -2 6 -5t8 -7q3 -2 6 -5.5t5 -7.5l-8 -4l-6 -4t-3 -4h-8h-4h-4h-2q-6 0 -6 2l-8 4q-3 0 -4 1l-1 1h-6h-12q-4 0 -5 -1t-5 -3q-2 -2 -4 -8q-2 -2 -2 -8t2 -6q2 -2 3 -4.5t1 -6.5q4 0 7 -1t5 -1q6 -2 11 -4t7 -4l11 -2q4 -4 9 -5
t11 -7q10 -2 17 -12zM1755 80q6 0 6 -6q2 0 2 -3v-5q0 -7 -2 -11q0 -4 -6 -8q-4 0 -6 -4q-2 0 -4 -1t-6 -1q-2 0 -4 1t-4 1q-2 2 -4.5 3t-4.5 1q-2 2 -3 4t-3 4q-2 4 -2 11v5t2 3q2 4 3 5t3 1q7 6 9 6q2 2 4 3t4 1q4 0 6 -1t4 -3q2 0 6 -6zM1839 203q-8 -8 -16 -25
q-2 -4 -4 -11t-2 -13q0 -9 2 -15l4 -12q4 -8 7 -14.5t9 -10.5q4 -4 9 -8t14 -8q8 -2 14 -4t14 -2q6 0 10.5 2t10.5 2q4 2 9 5t9 7q4 0 8 2h7h6t6 -2q6 -2 10 -6l6 -10q-6 -8 -16 -14q-6 -5 -10 -8t-11 -5q-6 -4 -11 -5t-11 -3t-11.5 -3t-11.5 -1q-14 0 -24.5 3t-20.5 5
q-20 10 -35 25q-16 16 -24 35q-2 12 -5 22t-3 23q0 6 1 13t3 15q2 6 4 12.5t6 12.5q6 8 9 13t9 11q7 5 12 9t13 8q4 4 10 6t17 6q4 0 12 1t16 1h11.5t11.5 -2t11 -4t11 -4q7 -2 11 -5t10 -7q10 -9 16 -17l-6 -8l-5 -5t-5 -3h-7h-5h-8t-7 2q-4 4 -9 7t-9 5q-6 2 -10.5 2
h-10.5q-16 0 -28 -6q-9 -2 -14 -6t-9 -8zM2195 207q3 -6 6 -12.5t5 -12.5q2 -8 2 -15v-13v-17t-2 -14t-5 -13.5t-6 -13.5q-8 -10 -16 -22q-8 -4 -14 -9.5t-11 -7.5q-6 -6 -13 -8t-15 -4q-6 -2 -13.5 -3t-15.5 -1q-20 0 -43 8q-8 6 -17 12.5t-16 12.5q-8 8 -14 16t-10 19
q-4 12 -6 22t-2 23q0 6 1 13t1 15q2 6 6 12.5t6 12.5q4 8 8 13t10 11q4 5 10.5 9t12.5 8q4 4 11 6t13 6q9 0 16 1t13 1q8 0 15.5 -1t13.5 -1q8 -4 15 -6t13 -6q5 -4 11 -8t14 -9q2 -6 8 -11t8 -13zM2165 127q4 10 4 27q0 6 -1 13t-3 11q-4 10 -7.5 15.5t-7.5 9.5
q-10 10 -24 14q-6 4 -13.5 5t-15.5 1q-14 0 -26 -6q-7 -2 -12 -6t-11 -8q-4 -4 -8 -9.5t-8 -15.5q-2 -4 -3 -11t-1 -13q0 -9 1 -15t3 -12q8 -16 16 -25q6 -4 11 -8t12 -8q6 -2 14 -4t12 -2q8 0 15.5 2t13.5 4q6 4 13 8t11 8q9 9 15 25zM2433 260l1 1t5 1h39v-219h-39v160
q0 -2 -1 -4l-3 -6v-7t-2 -4q-6 -18 -14.5 -35.5t-14.5 -33.5q-6 -17 -13 -34.5t-13 -35.5h-39l-55 139q-3 2 -3 11q-2 4 -3 5t-1 3v-158h-41v219h39q4 0 6.5 -1l2.5 -1q4 -2 5 -2t3 -2l6 -4l4 -4t2 -4q4 -17 11 -32t14 -34q6 -16 13 -32.5t13 -32.5v-2v-5v-4q4 0 4 -4v4v4
q0 3 1 5l1 2l9 16l45 115q0 2 1 4t1 4q2 2 5 3l3 1q2 2 4 2t4 2z" />
    <glyph glyph-name="five" unicode="5" horiz-adv-x="2531" 
d="M1929 721q4 -4 8.5 -9t6.5 -10q0 -6 1 -11t1 -11q0 -12 -2 -23q-2 -6 -6.5 -10t-8.5 -6q-4 -4 -8 -7t-8 -7q-12 -4 -23 -4q-6 0 -12 1t-10 3l-10.5 7t-8.5 7q-4 2 -7 6t-3 10q-4 7 -5 12t-1 11q0 10 6 22q0 5 3 10t7 9t8.5 7t10.5 5q8 4 22 4q6 0 10.5 -1t12.5 -3
q4 -2 8 -5t8 -7zM518 702q0 -2 -4 -8q-2 0 -3 -2t-5 -2q-2 -2 -8 -2h-33v47h33q4 0 8 -2q4 0 5 -1l3 -3l4 -8q2 -2 2 -10q0 -6 -2 -9zM801 721q4 -4 8 -9t6 -10q2 -6 3 -11t1 -11t-1 -11t-3 -12q-2 -6 -6 -10t-8 -6q-2 -4 -6 -7t-11 -7q-4 -2 -10 -3t-12 -1q-12 0 -23 4
q-4 4 -9 7t-9 7l-6 6t-6 10q-2 7 -4.5 12t-2.5 11q0 10 7 22q2 5 6 10t6 9q4 4 9 7t9 5q6 2 12.5 3t10.5 1q12 0 22 -4q7 -2 11 -5t6 -7zM1090 733q0 -4 1 -6t1 -4l28 -64h-59l29 64v4v6zM270 729q2 -2 3 -5t3 -5q3 -4 3 -10v-5.5t-3 -5.5q-2 -2 -3 -5t-3 -3l-8 -8h-10h-37
v53h37q6 0 10 -2q2 0 5 -2zM2478 1092v-586h-2404v586h911q0 30 5 58t18 54q12 27 27.5 51.5t37.5 42.5q37 39 90 62q29 12 56.5 17t56.5 5q33 0 61.5 -6t53.5 -18q28 -12 51.5 -28.5t42.5 -35.5q37 -37 61 -94q21 -53 21 -108h911zM1030 1192q-22 -47 -22 -100
q0 -58 22 -105q10 -22 24.5 -44.5t30.5 -41.5q19 -18 40.5 -32.5t45.5 -24.5q48 -23 105 -23q29 0 54.5 4t49.5 15q25 12 45.5 25.5t38.5 33.5q19 19 33 40.5t27 43.5q22 51 22 109q0 22 -4 45.5t-14 44.5q-12 41 -41 75q-14 17 -30.5 31.5t-33.5 24.5q-18 10 -37.5 19
t-39.5 18q-15 4 -32.5 6t-37.5 2q-29 0 -55.5 -5t-51.5 -18q-49 -18 -86 -57q-16 -18 -29.5 -41t-23.5 -45zM295 690q6 10 6 19q0 4 -1 9t-5 11q0 2 -4 6l-6 6q-2 4 -5.5 7.5t-9.5 3.5q-4 2 -9 4t-9 2h-53v-154h16v58h37q4 0 9 1t9 3q11 4 15 8q2 4 6 8t4 8zM410 758h-95
v-154h95v19h-72v47h59v20h-59v45h72v23zM559 604l-47 66q2 2 5 2t5 4q8 4 10 10q3 2 5 5t4 7v13v10t-2 8q-4 8 -11 14q-4 9 -14 9q-2 2 -7 4t-9 2h-56v-154h23v64h22l41 -56q2 -4 7 -6q2 -2 4 -2h6h14zM664 631q0 4 1 8t1 8q0 12 -4.5 20.5t-12.5 14.5q-2 0 -3 2t-5 4h-1
t-5 2h-2t-2 4q-6 0 -8 2q-7 0 -9 1l-6 3q-8 2 -8 5q-6 4 -6 6v8v8q2 0 4 2t2 4l3 1t5 1q4 2 6 2h4l2.5 -1t4.5 -1q8 0 8 -4q2 -2 4 -2h4q8 0 14 4l4 2q0 2 -2 4l-4 4q-4 2 -6 4.5t-6 4.5q-2 0 -4 1t-6 5q-6 0 -7 1t-6 1q-4 0 -9 -1t-9 -1q-4 -4 -7 -6t-7 -2q-2 -5 -5 -8
t-6 -7q-2 -4 -3 -7t-1 -9v-9t4 -8q3 -4 6 -7t3 -5q4 -2 8 -5t8 -3q4 -2 7 -4t7 -4q2 -2 5.5 -2h5.5q6 -2 7 -2t3 -2q4 -2 4 -3t2 -6q2 -2 2 -5v-7v-3t-2 -5q-2 -4 -2 -5t-4 -3q-2 -4 -5 -5t-5 -3h-5.5h-5.5h-7h-5q-2 2 -5 3t-3 5l-2 2q-6 4 -12 4h-4.5t-4.5 -2l-6 -2
q0 -4 2 -4q0 -4 4 -6q0 -2 2 -5l2 -2h3q8 -8 17 -10t19 -2h9.5t9.5 2t9 4t7 6q6 2 9.5 5.5t5.5 9.5zM838 659q2 7 2 11v10q0 12 -2 20q0 7 -3.5 11t-5.5 10q-4 6 -12 14q-4 4 -8 6t-10 9q-2 0 -6.5 2t-10.5 6q-6 0 -10 1t-10 1q-4 0 -10.5 -1t-10.5 -1q-6 -4 -10 -6t-8 -2
q-4 -7 -8 -9t-8 -6q-5 -4 -8 -7t-5 -7q-4 -6 -5 -10t-3 -11q-2 -8 -2 -20q0 -8 2 -15.5t4 -15.5q2 -6 6 -12t11 -14q6 -5 12 -9t14 -4q12 -6 29 -6h10h10q11 4 17 8q14 6 18 11q6 8 12 18q2 4 5.5 9t3.5 9zM997 758h-20v-119q0 2 -1 5l-1 3l-74 105q-4 0 -8 6h-4h-4h-15
v-154h21v129v-4l2 -2v0v-4l88 -119h16v154zM1169 604l-67 154h-23l-65 -154h12q6 0 8 2l3 3t5 3l9 27h79l11 -27q2 -4 6 -6q0 -2 8 -2h14zM1270 623h-66v135h-22v-154h88v19zM1479 758h-21v-92v-11t-2 -8q-2 -8 -10 -12q-2 -2 -5 -4t-5 -6q-6 -2 -9.5 -2h-7.5q-10 0 -14 2
q-6 4 -10 6t-4 4q-2 2 -4.5 5t-6.5 7q0 4 -1 8t-1 11v92h-20v-92v-12t2 -7q0 -8 4 -14q4 -10 12 -15q2 -2 5 -4t8 -4q2 -2 6 -3t6 -3q6 0 9 -2t9 -2q4 0 7.5 2t9.5 2q4 2 7 3t7 3l12 8q4 5 5 8t3 7q3 2 6 6t3 8v19v92zM1597 631q7 8 7 16q0 12 -4.5 20.5t-12.5 14.5
q-6 4 -6 6h-5t-5 2h-3t-5 4h-2t-5 2q-2 0 -4 1l-6 3q-8 2 -8 5q-4 2 -5 4t-3 2q0 2 -1 3t-1 5t4 8l6 6q2 0 3 1t5 1q0 2 10 2l2.5 -1t4.5 -1q2 -2 8 -4q8 -2 10 -2q6 0 8 4l6 2l-4 4l-4 4q0 2 -3 4.5t-5 4.5q-4 0 -6 1t-6 5q-4 0 -7.5 1l-3.5 1q-6 0 -10 -1t-8 -1
q-4 -4 -8 -6t-6 -2q-4 -5 -6 -8t-7 -7q0 -4 -2 -7t-2 -9t2 -9t2 -8q5 -8 11 -12q4 -2 7 -5t5 -3q6 -2 9 -4t7 -4t6.5 -2h4.5q2 -2 5 -2t5 -2t5 -3t3 -6q2 -2 2 -5v-7v-3t-2 -5q-2 -6 -8 -8q-4 -4 -6 -5t-4 -3h-6h-5h-7h-5q-4 2 -10 8v2q-6 4 -12 4h-3.5t-5.5 -2l-6 -2
q2 -2 2 -3t2 -1q0 -2 1 -3t1 -3l1 -1t1 -4q4 -2 7 -2q6 -8 15 -10t19 -2h10.5t10.5 2l8 4t8 6q2 2 5 5.5t5 9.5zM1722 758h-94v-154h94v19h-73v47h61v20h-61v45h73v23zM1966 659v11v10v11v9q-4 11 -10 21q-4 6 -12 14q-2 4 -6.5 6t-8.5 9q-4 0 -9 2t-9 6q-6 0 -10.5 1
t-10.5 1t-11 -1t-9 -1q-12 -6 -21 -8q-4 -7 -7 -9t-7 -6l-7 -7l-7 -7q-2 -6 -4 -10t-2 -11q-5 -8 -5 -20q0 -8 2.5 -15.5t4.5 -15.5q6 -14 18 -26q4 -5 10 -9t15 -4q12 -6 30 -6h10.5h10.5q4 2 9 4t9 4q4 4 8.5 6.5t6.5 4.5q8 8 12 18q6 8 10 18zM2126 758h-23v-119
q0 2 -1 5t-3 3l-74 105l-1 1t-3 5h-5h-5h-16v-154h24v129v-4v-2v-2l2 -2l86 -119h19v154zM2251 623h-66v135h-22v-154h88v19zM2374 758h-19q-4 0 -8 -4q-8 -4 -8 -9l-35 -47l-2 -2h-2v-2v2l-2 2l-37 47q-2 5 -6 9t-10 4h-17l56 -76l2 -2q0 -2 2 -2v-2v-2q0 -2 2 -2v-2v-66
h22v66v2v4q2 0 2 4v2h2zM1188 864q-19 8 -38.5 19.5t-33.5 25.5h322q-17 -14 -35.5 -25.5t-38.5 -19.5q-21 -6 -43.5 -12t-44.5 -6q-25 0 -46.5 6t-41.5 12zM1141 936l315 317q29 -39 45.5 -79.5t16.5 -81.5q0 -23 -3.5 -44.5t-11.5 -41.5q-8 -19 -18 -36.5t-23 -33.5h-321z
M1094 928q-27 35 -45 73q-7 21 -11 43.5t-4 47.5q0 20 4 40.5t11 41.5q6 18 16 35.5t25 33.5h319zM1364 1315q20 -8 38.5 -20.5t33.5 -22.5h-324q37 28 76 43q39 18 88 18t88 -18zM78 350q-4 4 -5 8t-3 9q-2 6 -3 10t-1 10t4 16q2 5 3 10t5 7l3 9t7 7q0 2 5 5t7 5q6 5 9.5 6
t9.5 3q2 0 8 1t10 1q8 0 14.5 -1t14.5 -5q8 -2 13 -6.5t9 -8.5q-2 -2 -4 -2v-4h-2h-2h-4h-6q-4 2 -8 5t-8 3h-7.5h-9.5h-10h-8q-8 -4 -12.5 -7t-8.5 -5q-4 -6 -7 -10t-5 -8q-4 -7 -4 -13v-8q0 -8 2 -14t3 -9.5t1 -7.5q2 -2 5 -4t5 -6q4 -2 6 -5t7 -3q2 -2 6 -4t8 -2
q2 -2 6 -2h6h10.5t8.5 2q4 0 9 2t9 4v29h-12h-2l-2 2l-3 3l-3 3l-1 1t-1 3v1v3v0h38v-53l-5 -5t-5 -6q-6 -2 -12 -2q-6 -2 -14 -2h-15h-10h-8q-6 2 -9.5 4.5t-9.5 6.5q-2 0 -7 3t-5 7q-6 2 -7 6t-3 8zM240 438v-45h55v-14h-55v-47h67v-17h-84v140h84v-17h-67zM369 315v123
h-45v17h106v-17h-47v-123h-14zM532 438v-49h60v-12h-60v-62h-16v140h84v-17h-68zM641 455v-86q0 -4 2 -7.5t4 -5.5q2 -6 5 -9t5 -7q0 -2 3.5 -4t5.5 -4q6 -2 10 -2h8h7t5 2q6 2 9.5 4t7.5 4q0 4 3 7t5 9q4 4 4 13v86h14v-86q0 -7 -1 -11t-3 -10t-5 -10t-7 -8t-8 -7.5
t-8 -5.5q-13 -2 -23 -2q-12 0 -25 2q-2 2 -7 5.5t-9 7.5q-6 6 -10 18q-2 6 -4 10t-2 11v86h14zM784 455v-123h62v-17h-78v140h16zM877 455v-123h65v-17h-80v140h15zM1069 315l-61 140h8q4 0 8 -2q2 -2 3 -2t3 -5l43 -104v-4q2 -2 2 -6v6l1 2l1 2q6 14 12.5 26.5t12.5 24.5
q4 17 10 29l12 24q0 5 2 5t2 2q2 2 3.5 2h5.5h8q-8 -17 -15.5 -34.5t-17.5 -33.5q-6 -20 -13 -36.5t-16 -35.5h-14zM1171 438v-45h58v-14h-58v-47h68v-17h-84v140h84v-17h-68zM1341 381q-2 -2 -10 -4l47 -62h-10q-2 0 -5 1l-3 1q-2 2 -4 3.5t-4 5.5l-39 51h-25v-62h-14v140
h51h5t7 -2q9 -2 15 -9q2 -4 4 -7t4 -7q2 -2 2 -7v-5v-9t-2 -6q0 -4 -2 -8t-4 -6l-4 -4t-9 -4zM1325 389q4 0 6 4q2 0 4 1t4 1l3 6t4 5q0 2 1 4t1 8l-1 2t-1 6q-3 2 -4 3t-3 5q-2 0 -4 1t-4 3h-6h-37v-49h37zM1452 336q2 2 4 8q2 2 3 6t1 6q0 6 -2 11q-2 0 -3 3t-3 5t-8 4
q-4 0 -6 1l-6 3q-5 0 -9 2t-4 4q-10 0 -14 6q-4 0 -5 4t-3 7v14v9t2 7q0 6 8 10q4 5 6 6t8 3q4 0 6.5 1t8.5 1q2 0 5 -1t5 -1t4 -1l6 -3q2 0 4 -2.5t2 -4.5q4 -2 5 -4t3 -2l-4 -2q-2 -2 -8 -2h-6q-4 2 -4 4h-2h-2h-2h-3h-1h-2h-9q-8 0 -8 -2q-6 -6 -6 -8q-4 0 -4 -8
q0 -6 4 -6q0 -4 2 -6t5 -3.5l3 -1.5q4 -4 6.5 -4t8.5 -4h3t3 -2h4t4 -4h2h1h1q2 0 4 -1l2 -1q4 -4 6 -7t7 -5q2 -10 2 -19v-10t-7 -8q0 -6 -8 -12q-2 -2 -6 -4.5t-8 -4.5t-8 -2h-10q-11 0 -18 2t-13 9q-2 0 -4 2l-4 4q0 2 -1 4l-1 2l2 2l1 1t5 1h2q2 0 4 -1t4 -3q4 -2 6 -4
t6 -2q0 -2 4 -2h7q8 0 10 2q8 0 12 4zM1524 455v-140h-17v140h17zM1579 336q-12 8 -18 20q-5 15 -5 31v7v9q7 11 9 17q6 8 14 16q6 6 12 10q4 5 9.5 6t9.5 3q4 0 8 1t10 1q4 0 9 -1t12 -1q4 -2 8 -3t8 -6l5 -5t7 -5q4 -4 6.5 -7t6.5 -9q2 -6 6 -17q2 -4 3 -9t1 -7
q0 -8 -2 -15t-6 -16q-2 -6 -5.5 -11t-9.5 -9q-6 -6 -11 -9t-11 -8q-10 -4 -27 -4q-8 0 -15 1t-11 3q-17 5 -23 17zM1579 408q-4 -7 -6 -13t-2 -8q0 -4 1 -8t1 -6q2 -8 8 -17q0 -2 2 -4t4 -6l5 -5t10 -3q2 -2 5 -4t5 -2q4 -2 8 -2h8h7t7 2q3 0 7 2l8 4q2 0 5 3l5 5q2 4 4 6
l4 4q2 4 3 7.5t3 9.5q0 2 1 6t1 8q0 2 -1 8t-5 13q0 4 -4 8t-6 10q-4 2 -8 5t-10 7h-9.5h-11.5h-12h-10q-4 -4 -9.5 -7t-9.5 -5q-2 -6 -5 -10t-3 -8zM1741 315h-17v140h13h5t5 -4l72 -103q2 0 2 -4l2 -2v-2v115h16v-140h-14l-82 115v4h-2v4v-123zM1956 438v-49h57v-12h-57
v-62h-14v140h83v-17h-69zM2114 381q-9 -2 -13 -4l45 -62h-12q-4 0 -8 2q0 2 -1 3.5t-3 5.5l-39 51h-25v-62h-16v140h51h6t8 -2t7.5 -4.5t5.5 -4.5q2 -4 4 -7t6 -7q0 -2 1 -7l1 -5q0 -6 -1 -9t-1 -6l-4 -8t-2 -6zM2101 393q2 0 3 1t3 1q7 8 7 11q2 4 2 12q0 2 -2 8q0 2 -7 8
q-2 0 -3 1l-3 3h-8h-35v-49h35q4 0 8 4zM2281 336q-4 -6 -10 -9t-12 -8q-6 -2 -12 -3t-15 -1q-8 0 -15 1t-13 3q-13 5 -23 17q-4 4 -8 9t-6 11q-2 9 -5 16t-3 15q0 2 1 7t3 9q2 5 3 10t3 7q4 6 7 9t5 7q4 2 8 5t9 5q4 5 8 6t8 3q6 0 9 1t9 1q4 0 9.5 -1t9.5 -1l9 -3t7 -6
q4 -2 8 -5t6 -5q3 -4 6 -7t5 -9q6 -6 8 -17q2 -4 3 -9t1 -7q0 -8 -1 -15t-5 -16q-2 -6 -6 -11t-11 -9zM2232 330h7.5t9.5 2q2 0 5 2t5 4q2 0 6 3t8 5l3 6t3 4q2 4 3.5 7.5t1.5 9.5q2 2 2 6v8q0 2 -1 8t-1 13l-6 8t-5 10q-6 2 -11 5t-9 7h-10.5h-10.5h-11h-11q-6 -4 -9 -7
t-8 -5q-6 -6 -8 -10l-4 -8q-2 -7 -2 -13v-8v-14q0 -6 1 -9.5t5 -7.5q0 -2 3 -4t5 -6q2 -2 5.5 -5t5.5 -3q2 -2 5 -4t9 -2q2 -2 6 -2h8zM2460 453q2 2 3 2h3h12v-140h-14v115l-2 -2v0v-2q-4 -8 -6 -17.5t-7 -15.5q-4 -6 -7 -12l-7 -14q-2 -9 -4 -15l-4 -12q-4 -6 -7 -11
t-5 -14h-15q-10 13 -15 27t-11 27q-4 14 -11.5 28.5t-11.5 28.5v2l-4 2v-115h-16v140h14q6 0 8 -2l2 -2v-5l49 -108q0 -2 2 -2v-4q0 2 1 4t1 4q0 4 5 8l43 98q0 5 1 5t3 2zM74 262h157v-20v-4v-5q0 -4 -2 -6l-4 -4l-106 -145h2v2h4h2h104v-37h-165v12q0 11 2 13q0 2 4 8
q2 2 2 4t2 4t3 4l3 6l94 129h-102v39zM260 262h139v-39h-100v-49h80v-41h-80v-53h100v-37h-139v219zM571 223h-59v-180h-43v180h-63v39h165v-39zM672 262l94 -219h-25q-8 0 -16 4q-4 2 -5 6t-5 8l-13 29h-100l-10 -29q-2 -4 -3 -5t-3 -1q0 -4 -1 -5t-5 -3q-2 0 -4.5 -1
t-4.5 -1q0 -2 -2 -2h-4h-24l94 219h37zM684 129l-27 68q0 2 -1 3t-1 3q0 4 -2 6v-6q0 -2 -2 -3t-2 -3l-26 -68h61zM774 262h139v-39h-100v-55h82v-39h-82v-86h-39v219zM1133 207q4 -6 6 -12.5t6 -12.5q2 -8 2 -15v-13v-17t-2 -14q-4 -6 -6 -13.5t-6 -13.5q-5 -4 -9 -10
l-8 -12q-8 -4 -12 -9.5t-10 -7.5q-7 -6 -14 -8t-13 -4q-8 -2 -15.5 -3t-15.5 -1q-10 0 -21 3t-22 5q-12 6 -19 12.5t-18 12.5q-14 16 -20 35q-6 12 -8 22t-2 23q0 6 1 13t3 15q4 17 12 25q4 8 7 13t7 11q9 5 14 9t11 8t12 6t15 6q6 0 13 1t15 1t15.5 -1t15.5 -1q6 -4 13 -6
t14 -6q6 -4 10 -8t12 -9q4 -6 8 -11t9 -13zM1104 127q2 6 3 12t1 15q0 12 -4 24q-4 10 -8 15.5t-11 9.5q-4 4 -9 8t-11 6q-12 6 -29 6q-16 0 -28 -6q-4 -2 -9.5 -6t-11.5 -8t-9 -9.5t-7 -15.5q-4 -4 -4 -11v-13v-15t4 -12q4 -8 7 -14.5t9 -10.5t11.5 -8t9.5 -8q8 -2 14 -4
t14 -2t14.5 2t14.5 4q6 4 11 8t9 8q7 4 11 10.5t8 14.5zM1329 262h39v-219h-37l-102 147q-2 0 -2 1.5t-2 3.5q-2 4 -2 6q-4 0 -4 4l-1 1t-4 3v-166h-38v219h34q4 0 8.5 -1t4.5 -3l6 -3t4 -3q10 -16 21.5 -31.5t21.5 -34.5q12 -14 23.5 -29.5t25.5 -29.5q0 -4 1 -6t1 -6
q0 -2 1 -4t1 -5v156zM1389 262h165v-39h-65v-180h-39v180h-61v39zM1690 150q2 -5 5 -9t5 -8q0 -4 2 -9t2 -13q0 -13 -6 -27l-8 -12t-9 -11q-8 -4 -12 -8t-12 -6t-15.5 -4t-13.5 -2q-8 0 -15 2t-18 4q-6 2 -11 6t-13 13q-4 2 -6 5t-4 7q-5 2 -5 12l1.5 1t3.5 3q2 0 2 1t2 1
t4 1l2 1h10h3t3 -2q6 0 10 -2q5 -4 9 -6t6 -4q2 0 6 -2t10 -2q2 0 5 1t7 3q7 2 13 6l8 8q2 4 4 6t2 7q0 8 -6 12q-4 6 -8 6q-4 4 -7.5 5t-5.5 1q-6 2 -16 8q-4 0 -9 1t-9 6q-9 2 -13 5t-8 7q-6 4 -9 8t-5 8q-6 12 -6 25q0 18 6 26q2 7 6 11t10 8q4 4 9.5 6t13.5 6q4 0 10 1
t14 1q4 0 8.5 -1t10.5 -1q4 -2 7 -4t9 -4q2 -2 6 -5t8 -7q3 -2 6 -5.5t5 -7.5l-8 -4l-6 -4t-3 -4h-8h-4h-4h-2q-6 0 -6 2l-8 4q-3 0 -4 1l-1 1h-6h-12q-4 0 -5 -1t-5 -3q-2 -2 -4 -8q-2 -2 -2 -8t2 -6q2 -2 3 -4.5t1 -6.5q4 0 7 -1t5 -1q6 -2 11 -4t7 -4l11 -2q4 -4 9 -5
t11 -7q10 -2 17 -12zM1755 80q6 0 6 -6q2 0 2 -3v-5q0 -7 -2 -11q0 -4 -6 -8q-4 0 -6 -4q-2 0 -4 -1t-6 -1q-2 0 -4 1t-4 1q-2 2 -4.5 3t-4.5 1q-2 2 -3 4t-3 4q-2 4 -2 11v5t2 3q2 4 3 5t3 1q7 6 9 6q2 2 4 3t4 1q4 0 6 -1t4 -3q2 0 6 -6zM1839 203q-8 -8 -16 -25
q-2 -4 -4 -11t-2 -13q0 -9 2 -15l4 -12q4 -8 7 -14.5t9 -10.5q4 -4 9 -8t14 -8q8 -2 14 -4t14 -2q6 0 10.5 2t10.5 2q4 2 9 5t9 7q4 0 8 2h7h6t6 -2q6 -2 10 -6l6 -10q-6 -8 -16 -14q-6 -5 -10 -8t-11 -5q-6 -4 -11 -5t-11 -3t-11.5 -3t-11.5 -1q-14 0 -24.5 3t-20.5 5
q-20 10 -35 25q-16 16 -24 35q-2 12 -5 22t-3 23q0 6 1 13t3 15q2 6 4 12.5t6 12.5q6 8 9 13t9 11q7 5 12 9t13 8q4 4 10 6t17 6q4 0 12 1t16 1h11.5t11.5 -2t11 -4t11 -4q7 -2 11 -5t10 -7q10 -9 16 -17l-6 -8l-5 -5t-5 -3h-7h-5h-8t-7 2q-4 4 -9 7t-9 5q-6 2 -10.5 2
h-10.5q-16 0 -28 -6q-9 -2 -14 -6t-9 -8zM2195 207q3 -6 6 -12.5t5 -12.5q2 -8 2 -15v-13v-17t-2 -14t-5 -13.5t-6 -13.5q-8 -10 -16 -22q-8 -4 -14 -9.5t-11 -7.5q-6 -6 -13 -8t-15 -4q-6 -2 -13.5 -3t-15.5 -1q-20 0 -43 8q-8 6 -17 12.5t-16 12.5q-8 8 -14 16t-10 19
q-4 12 -6 22t-2 23q0 6 1 13t1 15q2 6 6 12.5t6 12.5q4 8 8 13t10 11q4 5 10.5 9t12.5 8q4 4 11 6t13 6q9 0 16 1t13 1q8 0 15.5 -1t13.5 -1q8 -4 15 -6t13 -6q5 -4 11 -8t14 -9q2 -6 8 -11t8 -13zM2165 127q4 10 4 27q0 6 -1 13t-3 11q-4 10 -7.5 15.5t-7.5 9.5
q-10 10 -24 14q-6 4 -13.5 5t-15.5 1q-14 0 -26 -6q-7 -2 -12 -6t-11 -8q-4 -4 -8 -9.5t-8 -15.5q-2 -4 -3 -11t-1 -13q0 -9 1 -15t3 -12q8 -16 16 -25q6 -4 11 -8t12 -8q6 -2 14 -4t12 -2q8 0 15.5 2t13.5 4q6 4 13 8t11 8q9 9 15 25zM2433 260l1 1t5 1h39v-219h-39v160
q0 -2 -1 -4l-3 -6v-7t-2 -4q-6 -18 -14.5 -35.5t-14.5 -33.5q-6 -17 -13 -34.5t-13 -35.5h-39l-55 139q-3 2 -3 11q-2 4 -3 5t-1 3v-158h-41v219h39q4 0 6.5 -1l2.5 -1q4 -2 5 -2t3 -2l6 -4l4 -4t2 -4q4 -17 11 -32t14 -34q6 -16 13 -32.5t13 -32.5v-2v-5v-4q4 0 4 -4v4v4
q0 3 1 5l1 2l9 16l45 115q0 2 1 4t1 4q2 2 5 3l3 1q2 2 4 2t4 2z" />
    <glyph glyph-name="six" unicode="6" horiz-adv-x="2531" 
d="M1929 721q4 -4 8.5 -9t6.5 -10q0 -6 1 -11t1 -11q0 -12 -2 -23q-2 -6 -6.5 -10t-8.5 -6q-4 -4 -8 -7t-8 -7q-12 -4 -23 -4q-6 0 -12 1t-10 3l-10.5 7t-8.5 7q-4 2 -7 6t-3 10q-4 7 -5 12t-1 11q0 10 6 22q0 5 3 10t7 9t8.5 7t10.5 5q8 4 22 4q6 0 10.5 -1t12.5 -3
q4 -2 8 -5t8 -7zM518 702q0 -2 -4 -8q-2 0 -3 -2t-5 -2q-2 -2 -8 -2h-33v47h33q4 0 8 -2q4 0 5 -1l3 -3l4 -8q2 -2 2 -10q0 -6 -2 -9zM801 721q4 -4 8 -9t6 -10q2 -6 3 -11t1 -11t-1 -11t-3 -12q-2 -6 -6 -10t-8 -6q-2 -4 -6 -7t-11 -7q-4 -2 -10 -3t-12 -1q-12 0 -23 4
q-4 4 -9 7t-9 7l-6 6t-6 10q-2 7 -4.5 12t-2.5 11q0 10 7 22q2 5 6 10t6 9q4 4 9 7t9 5q6 2 12.5 3t10.5 1q12 0 22 -4q7 -2 11 -5t6 -7zM1090 733q0 -4 1 -6t1 -4l28 -64h-59l29 64v4v6zM270 729q2 -2 3 -5t3 -5q3 -4 3 -10v-5.5t-3 -5.5q-2 -2 -3 -5t-3 -3l-8 -8h-10h-37
v53h37q6 0 10 -2q2 0 5 -2zM2478 1092v-586h-2404v586h911q0 30 5 58t18 54q12 27 27.5 51.5t37.5 42.5q37 39 90 62q29 12 56.5 17t56.5 5q33 0 61.5 -6t53.5 -18q28 -12 51.5 -28.5t42.5 -35.5q37 -37 61 -94q21 -53 21 -108h911zM1030 1192q-22 -47 -22 -100
q0 -58 22 -105q10 -22 24.5 -44.5t30.5 -41.5q19 -18 40.5 -32.5t45.5 -24.5q48 -23 105 -23q29 0 54.5 4t49.5 15q25 12 45.5 25.5t38.5 33.5q19 19 33 40.5t27 43.5q22 51 22 109q0 22 -4 45.5t-14 44.5q-12 41 -41 75q-14 17 -30.5 31.5t-33.5 24.5q-18 10 -37.5 19
t-39.5 18q-15 4 -32.5 6t-37.5 2q-29 0 -55.5 -5t-51.5 -18q-49 -18 -86 -57q-16 -18 -29.5 -41t-23.5 -45zM295 690q6 10 6 19q0 4 -1 9t-5 11q0 2 -4 6l-6 6q-2 4 -5.5 7.5t-9.5 3.5q-4 2 -9 4t-9 2h-53v-154h16v58h37q4 0 9 1t9 3q11 4 15 8q2 4 6 8t4 8zM410 758h-95
v-154h95v19h-72v47h59v20h-59v45h72v23zM559 604l-47 66q2 2 5 2t5 4q8 4 10 10q3 2 5 5t4 7v13v10t-2 8q-4 8 -11 14q-4 9 -14 9q-2 2 -7 4t-9 2h-56v-154h23v64h22l41 -56q2 -4 7 -6q2 -2 4 -2h6h14zM664 631q0 4 1 8t1 8q0 12 -4.5 20.5t-12.5 14.5q-2 0 -3 2t-5 4h-1
t-5 2h-2t-2 4q-6 0 -8 2q-7 0 -9 1l-6 3q-8 2 -8 5q-6 4 -6 6v8v8q2 0 4 2t2 4l3 1t5 1q4 2 6 2h4l2.5 -1t4.5 -1q8 0 8 -4q2 -2 4 -2h4q8 0 14 4l4 2q0 2 -2 4l-4 4q-4 2 -6 4.5t-6 4.5q-2 0 -4 1t-6 5q-6 0 -7 1t-6 1q-4 0 -9 -1t-9 -1q-4 -4 -7 -6t-7 -2q-2 -5 -5 -8
t-6 -7q-2 -4 -3 -7t-1 -9v-9t4 -8q3 -4 6 -7t3 -5q4 -2 8 -5t8 -3q4 -2 7 -4t7 -4q2 -2 5.5 -2h5.5q6 -2 7 -2t3 -2q4 -2 4 -3t2 -6q2 -2 2 -5v-7v-3t-2 -5q-2 -4 -2 -5t-4 -3q-2 -4 -5 -5t-5 -3h-5.5h-5.5h-7h-5q-2 2 -5 3t-3 5l-2 2q-6 4 -12 4h-4.5t-4.5 -2l-6 -2
q0 -4 2 -4q0 -4 4 -6q0 -2 2 -5l2 -2h3q8 -8 17 -10t19 -2h9.5t9.5 2t9 4t7 6q6 2 9.5 5.5t5.5 9.5zM838 659q2 7 2 11v10q0 12 -2 20q0 7 -3.5 11t-5.5 10q-4 6 -12 14q-4 4 -8 6t-10 9q-2 0 -6.5 2t-10.5 6q-6 0 -10 1t-10 1q-4 0 -10.5 -1t-10.5 -1q-6 -4 -10 -6t-8 -2
q-4 -7 -8 -9t-8 -6q-5 -4 -8 -7t-5 -7q-4 -6 -5 -10t-3 -11q-2 -8 -2 -20q0 -8 2 -15.5t4 -15.5q2 -6 6 -12t11 -14q6 -5 12 -9t14 -4q12 -6 29 -6h10h10q11 4 17 8q14 6 18 11q6 8 12 18q2 4 5.5 9t3.5 9zM997 758h-20v-119q0 2 -1 5l-1 3l-74 105q-4 0 -8 6h-4h-4h-15
v-154h21v129v-4l2 -2v0v-4l88 -119h16v154zM1169 604l-67 154h-23l-65 -154h12q6 0 8 2l3 3t5 3l9 27h79l11 -27q2 -4 6 -6q0 -2 8 -2h14zM1270 623h-66v135h-22v-154h88v19zM1479 758h-21v-92v-11t-2 -8q-2 -8 -10 -12q-2 -2 -5 -4t-5 -6q-6 -2 -9.5 -2h-7.5q-10 0 -14 2
q-6 4 -10 6t-4 4q-2 2 -4.5 5t-6.5 7q0 4 -1 8t-1 11v92h-20v-92v-12t2 -7q0 -8 4 -14q4 -10 12 -15q2 -2 5 -4t8 -4q2 -2 6 -3t6 -3q6 0 9 -2t9 -2q4 0 7.5 2t9.5 2q4 2 7 3t7 3l12 8q4 5 5 8t3 7q3 2 6 6t3 8v19v92zM1597 631q7 8 7 16q0 12 -4.5 20.5t-12.5 14.5
q-6 4 -6 6h-5t-5 2h-3t-5 4h-2t-5 2q-2 0 -4 1l-6 3q-8 2 -8 5q-4 2 -5 4t-3 2q0 2 -1 3t-1 5t4 8l6 6q2 0 3 1t5 1q0 2 10 2l2.5 -1t4.5 -1q2 -2 8 -4q8 -2 10 -2q6 0 8 4l6 2l-4 4l-4 4q0 2 -3 4.5t-5 4.5q-4 0 -6 1t-6 5q-4 0 -7.5 1l-3.5 1q-6 0 -10 -1t-8 -1
q-4 -4 -8 -6t-6 -2q-4 -5 -6 -8t-7 -7q0 -4 -2 -7t-2 -9t2 -9t2 -8q5 -8 11 -12q4 -2 7 -5t5 -3q6 -2 9 -4t7 -4t6.5 -2h4.5q2 -2 5 -2t5 -2t5 -3t3 -6q2 -2 2 -5v-7v-3t-2 -5q-2 -6 -8 -8q-4 -4 -6 -5t-4 -3h-6h-5h-7h-5q-4 2 -10 8v2q-6 4 -12 4h-3.5t-5.5 -2l-6 -2
q2 -2 2 -3t2 -1q0 -2 1 -3t1 -3l1 -1t1 -4q4 -2 7 -2q6 -8 15 -10t19 -2h10.5t10.5 2l8 4t8 6q2 2 5 5.5t5 9.5zM1722 758h-94v-154h94v19h-73v47h61v20h-61v45h73v23zM1966 659v11v10v11v9q-4 11 -10 21q-4 6 -12 14q-2 4 -6.5 6t-8.5 9q-4 0 -9 2t-9 6q-6 0 -10.5 1
t-10.5 1t-11 -1t-9 -1q-12 -6 -21 -8q-4 -7 -7 -9t-7 -6l-7 -7l-7 -7q-2 -6 -4 -10t-2 -11q-5 -8 -5 -20q0 -8 2.5 -15.5t4.5 -15.5q6 -14 18 -26q4 -5 10 -9t15 -4q12 -6 30 -6h10.5h10.5q4 2 9 4t9 4q4 4 8.5 6.5t6.5 4.5q8 8 12 18q6 8 10 18zM2126 758h-23v-119
q0 2 -1 5t-3 3l-74 105l-1 1t-3 5h-5h-5h-16v-154h24v129v-4v-2v-2l2 -2l86 -119h19v154zM2251 623h-66v135h-22v-154h88v19zM2374 758h-19q-4 0 -8 -4q-8 -4 -8 -9l-35 -47l-2 -2h-2v-2v2l-2 2l-37 47q-2 5 -6 9t-10 4h-17l56 -76l2 -2q0 -2 2 -2v-2v-2q0 -2 2 -2v-2v-66
h22v66v2v4q2 0 2 4v2h2zM1188 864q-19 8 -38.5 19.5t-33.5 25.5h322q-17 -14 -35.5 -25.5t-38.5 -19.5q-21 -6 -43.5 -12t-44.5 -6q-25 0 -46.5 6t-41.5 12zM1141 936l315 317q29 -39 45.5 -79.5t16.5 -81.5q0 -23 -3.5 -44.5t-11.5 -41.5q-8 -19 -18 -36.5t-23 -33.5h-321z
M1094 928q-27 35 -45 73q-7 21 -11 43.5t-4 47.5q0 20 4 40.5t11 41.5q6 18 16 35.5t25 33.5h319zM1364 1315q20 -8 38.5 -20.5t33.5 -22.5h-324q37 28 76 43q39 18 88 18t88 -18zM78 350q-4 4 -5 8t-3 9q-2 6 -3 10t-1 10t4 16q2 5 3 10t5 7l3 9t7 7q0 2 5 5t7 5q6 5 9.5 6
t9.5 3q2 0 8 1t10 1q8 0 14.5 -1t14.5 -5q8 -2 13 -6.5t9 -8.5q-2 -2 -4 -2v-4h-2h-2h-4h-6q-4 2 -8 5t-8 3h-7.5h-9.5h-10h-8q-8 -4 -12.5 -7t-8.5 -5q-4 -6 -7 -10t-5 -8q-4 -7 -4 -13v-8q0 -8 2 -14t3 -9.5t1 -7.5q2 -2 5 -4t5 -6q4 -2 6 -5t7 -3q2 -2 6 -4t8 -2
q2 -2 6 -2h6h10.5t8.5 2q4 0 9 2t9 4v29h-12h-2l-2 2l-3 3l-3 3l-1 1t-1 3v1v3v0h38v-53l-5 -5t-5 -6q-6 -2 -12 -2q-6 -2 -14 -2h-15h-10h-8q-6 2 -9.5 4.5t-9.5 6.5q-2 0 -7 3t-5 7q-6 2 -7 6t-3 8zM240 438v-45h55v-14h-55v-47h67v-17h-84v140h84v-17h-67zM369 315v123
h-45v17h106v-17h-47v-123h-14zM532 438v-49h60v-12h-60v-62h-16v140h84v-17h-68zM641 455v-86q0 -4 2 -7.5t4 -5.5q2 -6 5 -9t5 -7q0 -2 3.5 -4t5.5 -4q6 -2 10 -2h8h7t5 2q6 2 9.5 4t7.5 4q0 4 3 7t5 9q4 4 4 13v86h14v-86q0 -7 -1 -11t-3 -10t-5 -10t-7 -8t-8 -7.5
t-8 -5.5q-13 -2 -23 -2q-12 0 -25 2q-2 2 -7 5.5t-9 7.5q-6 6 -10 18q-2 6 -4 10t-2 11v86h14zM784 455v-123h62v-17h-78v140h16zM877 455v-123h65v-17h-80v140h15zM1069 315l-61 140h8q4 0 8 -2q2 -2 3 -2t3 -5l43 -104v-4q2 -2 2 -6v6l1 2l1 2q6 14 12.5 26.5t12.5 24.5
q4 17 10 29l12 24q0 5 2 5t2 2q2 2 3.5 2h5.5h8q-8 -17 -15.5 -34.5t-17.5 -33.5q-6 -20 -13 -36.5t-16 -35.5h-14zM1171 438v-45h58v-14h-58v-47h68v-17h-84v140h84v-17h-68zM1341 381q-2 -2 -10 -4l47 -62h-10q-2 0 -5 1l-3 1q-2 2 -4 3.5t-4 5.5l-39 51h-25v-62h-14v140
h51h5t7 -2q9 -2 15 -9q2 -4 4 -7t4 -7q2 -2 2 -7v-5v-9t-2 -6q0 -4 -2 -8t-4 -6l-4 -4t-9 -4zM1325 389q4 0 6 4q2 0 4 1t4 1l3 6t4 5q0 2 1 4t1 8l-1 2t-1 6q-3 2 -4 3t-3 5q-2 0 -4 1t-4 3h-6h-37v-49h37zM1452 336q2 2 4 8q2 2 3 6t1 6q0 6 -2 11q-2 0 -3 3t-3 5t-8 4
q-4 0 -6 1l-6 3q-5 0 -9 2t-4 4q-10 0 -14 6q-4 0 -5 4t-3 7v14v9t2 7q0 6 8 10q4 5 6 6t8 3q4 0 6.5 1t8.5 1q2 0 5 -1t5 -1t4 -1l6 -3q2 0 4 -2.5t2 -4.5q4 -2 5 -4t3 -2l-4 -2q-2 -2 -8 -2h-6q-4 2 -4 4h-2h-2h-2h-3h-1h-2h-9q-8 0 -8 -2q-6 -6 -6 -8q-4 0 -4 -8
q0 -6 4 -6q0 -4 2 -6t5 -3.5l3 -1.5q4 -4 6.5 -4t8.5 -4h3t3 -2h4t4 -4h2h1h1q2 0 4 -1l2 -1q4 -4 6 -7t7 -5q2 -10 2 -19v-10t-7 -8q0 -6 -8 -12q-2 -2 -6 -4.5t-8 -4.5t-8 -2h-10q-11 0 -18 2t-13 9q-2 0 -4 2l-4 4q0 2 -1 4l-1 2l2 2l1 1t5 1h2q2 0 4 -1t4 -3q4 -2 6 -4
t6 -2q0 -2 4 -2h7q8 0 10 2q8 0 12 4zM1524 455v-140h-17v140h17zM1579 336q-12 8 -18 20q-5 15 -5 31v7v9q7 11 9 17q6 8 14 16q6 6 12 10q4 5 9.5 6t9.5 3q4 0 8 1t10 1q4 0 9 -1t12 -1q4 -2 8 -3t8 -6l5 -5t7 -5q4 -4 6.5 -7t6.5 -9q2 -6 6 -17q2 -4 3 -9t1 -7
q0 -8 -2 -15t-6 -16q-2 -6 -5.5 -11t-9.5 -9q-6 -6 -11 -9t-11 -8q-10 -4 -27 -4q-8 0 -15 1t-11 3q-17 5 -23 17zM1579 408q-4 -7 -6 -13t-2 -8q0 -4 1 -8t1 -6q2 -8 8 -17q0 -2 2 -4t4 -6l5 -5t10 -3q2 -2 5 -4t5 -2q4 -2 8 -2h8h7t7 2q3 0 7 2l8 4q2 0 5 3l5 5q2 4 4 6
l4 4q2 4 3 7.5t3 9.5q0 2 1 6t1 8q0 2 -1 8t-5 13q0 4 -4 8t-6 10q-4 2 -8 5t-10 7h-9.5h-11.5h-12h-10q-4 -4 -9.5 -7t-9.5 -5q-2 -6 -5 -10t-3 -8zM1741 315h-17v140h13h5t5 -4l72 -103q2 0 2 -4l2 -2v-2v115h16v-140h-14l-82 115v4h-2v4v-123zM1956 438v-49h57v-12h-57
v-62h-14v140h83v-17h-69zM2114 381q-9 -2 -13 -4l45 -62h-12q-4 0 -8 2q0 2 -1 3.5t-3 5.5l-39 51h-25v-62h-16v140h51h6t8 -2t7.5 -4.5t5.5 -4.5q2 -4 4 -7t6 -7q0 -2 1 -7l1 -5q0 -6 -1 -9t-1 -6l-4 -8t-2 -6zM2101 393q2 0 3 1t3 1q7 8 7 11q2 4 2 12q0 2 -2 8q0 2 -7 8
q-2 0 -3 1l-3 3h-8h-35v-49h35q4 0 8 4zM2281 336q-4 -6 -10 -9t-12 -8q-6 -2 -12 -3t-15 -1q-8 0 -15 1t-13 3q-13 5 -23 17q-4 4 -8 9t-6 11q-2 9 -5 16t-3 15q0 2 1 7t3 9q2 5 3 10t3 7q4 6 7 9t5 7q4 2 8 5t9 5q4 5 8 6t8 3q6 0 9 1t9 1q4 0 9.5 -1t9.5 -1l9 -3t7 -6
q4 -2 8 -5t6 -5q3 -4 6 -7t5 -9q6 -6 8 -17q2 -4 3 -9t1 -7q0 -8 -1 -15t-5 -16q-2 -6 -6 -11t-11 -9zM2232 330h7.5t9.5 2q2 0 5 2t5 4q2 0 6 3t8 5l3 6t3 4q2 4 3.5 7.5t1.5 9.5q2 2 2 6v8q0 2 -1 8t-1 13l-6 8t-5 10q-6 2 -11 5t-9 7h-10.5h-10.5h-11h-11q-6 -4 -9 -7
t-8 -5q-6 -6 -8 -10l-4 -8q-2 -7 -2 -13v-8v-14q0 -6 1 -9.5t5 -7.5q0 -2 3 -4t5 -6q2 -2 5.5 -5t5.5 -3q2 -2 5 -4t9 -2q2 -2 6 -2h8zM2460 453q2 2 3 2h3h12v-140h-14v115l-2 -2v0v-2q-4 -8 -6 -17.5t-7 -15.5q-4 -6 -7 -12l-7 -14q-2 -9 -4 -15l-4 -12q-4 -6 -7 -11
t-5 -14h-15q-10 13 -15 27t-11 27q-4 14 -11.5 28.5t-11.5 28.5v2l-4 2v-115h-16v140h14q6 0 8 -2l2 -2v-5l49 -108q0 -2 2 -2v-4q0 2 1 4t1 4q0 4 5 8l43 98q0 5 1 5t3 2zM74 262h157v-20v-4v-5q0 -4 -2 -6l-4 -4l-106 -145h2v2h4h2h104v-37h-165v12q0 11 2 13q0 2 4 8
q2 2 2 4t2 4t3 4l3 6l94 129h-102v39zM260 262h139v-39h-100v-49h80v-41h-80v-53h100v-37h-139v219zM571 223h-59v-180h-43v180h-63v39h165v-39zM672 262l94 -219h-25q-8 0 -16 4q-4 2 -5 6t-5 8l-13 29h-100l-10 -29q-2 -4 -3 -5t-3 -1q0 -4 -1 -5t-5 -3q-2 0 -4.5 -1
t-4.5 -1q0 -2 -2 -2h-4h-24l94 219h37zM684 129l-27 68q0 2 -1 3t-1 3q0 4 -2 6v-6q0 -2 -2 -3t-2 -3l-26 -68h61zM774 262h139v-39h-100v-55h82v-39h-82v-86h-39v219zM1133 207q4 -6 6 -12.5t6 -12.5q2 -8 2 -15v-13v-17t-2 -14q-4 -6 -6 -13.5t-6 -13.5q-5 -4 -9 -10
l-8 -12q-8 -4 -12 -9.5t-10 -7.5q-7 -6 -14 -8t-13 -4q-8 -2 -15.5 -3t-15.5 -1q-10 0 -21 3t-22 5q-12 6 -19 12.5t-18 12.5q-14 16 -20 35q-6 12 -8 22t-2 23q0 6 1 13t3 15q4 17 12 25q4 8 7 13t7 11q9 5 14 9t11 8t12 6t15 6q6 0 13 1t15 1t15.5 -1t15.5 -1q6 -4 13 -6
t14 -6q6 -4 10 -8t12 -9q4 -6 8 -11t9 -13zM1104 127q2 6 3 12t1 15q0 12 -4 24q-4 10 -8 15.5t-11 9.5q-4 4 -9 8t-11 6q-12 6 -29 6q-16 0 -28 -6q-4 -2 -9.5 -6t-11.5 -8t-9 -9.5t-7 -15.5q-4 -4 -4 -11v-13v-15t4 -12q4 -8 7 -14.5t9 -10.5t11.5 -8t9.5 -8q8 -2 14 -4
t14 -2t14.5 2t14.5 4q6 4 11 8t9 8q7 4 11 10.5t8 14.5zM1329 262h39v-219h-37l-102 147q-2 0 -2 1.5t-2 3.5q-2 4 -2 6q-4 0 -4 4l-1 1t-4 3v-166h-38v219h34q4 0 8.5 -1t4.5 -3l6 -3t4 -3q10 -16 21.5 -31.5t21.5 -34.5q12 -14 23.5 -29.5t25.5 -29.5q0 -4 1 -6t1 -6
q0 -2 1 -4t1 -5v156zM1389 262h165v-39h-65v-180h-39v180h-61v39zM1690 150q2 -5 5 -9t5 -8q0 -4 2 -9t2 -13q0 -13 -6 -27l-8 -12t-9 -11q-8 -4 -12 -8t-12 -6t-15.5 -4t-13.5 -2q-8 0 -15 2t-18 4q-6 2 -11 6t-13 13q-4 2 -6 5t-4 7q-5 2 -5 12l1.5 1t3.5 3q2 0 2 1t2 1
t4 1l2 1h10h3t3 -2q6 0 10 -2q5 -4 9 -6t6 -4q2 0 6 -2t10 -2q2 0 5 1t7 3q7 2 13 6l8 8q2 4 4 6t2 7q0 8 -6 12q-4 6 -8 6q-4 4 -7.5 5t-5.5 1q-6 2 -16 8q-4 0 -9 1t-9 6q-9 2 -13 5t-8 7q-6 4 -9 8t-5 8q-6 12 -6 25q0 18 6 26q2 7 6 11t10 8q4 4 9.5 6t13.5 6q4 0 10 1
t14 1q4 0 8.5 -1t10.5 -1q4 -2 7 -4t9 -4q2 -2 6 -5t8 -7q3 -2 6 -5.5t5 -7.5l-8 -4l-6 -4t-3 -4h-8h-4h-4h-2q-6 0 -6 2l-8 4q-3 0 -4 1l-1 1h-6h-12q-4 0 -5 -1t-5 -3q-2 -2 -4 -8q-2 -2 -2 -8t2 -6q2 -2 3 -4.5t1 -6.5q4 0 7 -1t5 -1q6 -2 11 -4t7 -4l11 -2q4 -4 9 -5
t11 -7q10 -2 17 -12zM1755 80q6 0 6 -6q2 0 2 -3v-5q0 -7 -2 -11q0 -4 -6 -8q-4 0 -6 -4q-2 0 -4 -1t-6 -1q-2 0 -4 1t-4 1q-2 2 -4.5 3t-4.5 1q-2 2 -3 4t-3 4q-2 4 -2 11v5t2 3q2 4 3 5t3 1q7 6 9 6q2 2 4 3t4 1q4 0 6 -1t4 -3q2 0 6 -6zM1839 203q-8 -8 -16 -25
q-2 -4 -4 -11t-2 -13q0 -9 2 -15l4 -12q4 -8 7 -14.5t9 -10.5q4 -4 9 -8t14 -8q8 -2 14 -4t14 -2q6 0 10.5 2t10.5 2q4 2 9 5t9 7q4 0 8 2h7h6t6 -2q6 -2 10 -6l6 -10q-6 -8 -16 -14q-6 -5 -10 -8t-11 -5q-6 -4 -11 -5t-11 -3t-11.5 -3t-11.5 -1q-14 0 -24.5 3t-20.5 5
q-20 10 -35 25q-16 16 -24 35q-2 12 -5 22t-3 23q0 6 1 13t3 15q2 6 4 12.5t6 12.5q6 8 9 13t9 11q7 5 12 9t13 8q4 4 10 6t17 6q4 0 12 1t16 1h11.5t11.5 -2t11 -4t11 -4q7 -2 11 -5t10 -7q10 -9 16 -17l-6 -8l-5 -5t-5 -3h-7h-5h-8t-7 2q-4 4 -9 7t-9 5q-6 2 -10.5 2
h-10.5q-16 0 -28 -6q-9 -2 -14 -6t-9 -8zM2195 207q3 -6 6 -12.5t5 -12.5q2 -8 2 -15v-13v-17t-2 -14t-5 -13.5t-6 -13.5q-8 -10 -16 -22q-8 -4 -14 -9.5t-11 -7.5q-6 -6 -13 -8t-15 -4q-6 -2 -13.5 -3t-15.5 -1q-20 0 -43 8q-8 6 -17 12.5t-16 12.5q-8 8 -14 16t-10 19
q-4 12 -6 22t-2 23q0 6 1 13t1 15q2 6 6 12.5t6 12.5q4 8 8 13t10 11q4 5 10.5 9t12.5 8q4 4 11 6t13 6q9 0 16 1t13 1q8 0 15.5 -1t13.5 -1q8 -4 15 -6t13 -6q5 -4 11 -8t14 -9q2 -6 8 -11t8 -13zM2165 127q4 10 4 27q0 6 -1 13t-3 11q-4 10 -7.5 15.5t-7.5 9.5
q-10 10 -24 14q-6 4 -13.5 5t-15.5 1q-14 0 -26 -6q-7 -2 -12 -6t-11 -8q-4 -4 -8 -9.5t-8 -15.5q-2 -4 -3 -11t-1 -13q0 -9 1 -15t3 -12q8 -16 16 -25q6 -4 11 -8t12 -8q6 -2 14 -4t12 -2q8 0 15.5 2t13.5 4q6 4 13 8t11 8q9 9 15 25zM2433 260l1 1t5 1h39v-219h-39v160
q0 -2 -1 -4l-3 -6v-7t-2 -4q-6 -18 -14.5 -35.5t-14.5 -33.5q-6 -17 -13 -34.5t-13 -35.5h-39l-55 139q-3 2 -3 11q-2 4 -3 5t-1 3v-158h-41v219h39q4 0 6.5 -1l2.5 -1q4 -2 5 -2t3 -2l6 -4l4 -4t2 -4q4 -17 11 -32t14 -34q6 -16 13 -32.5t13 -32.5v-2v-5v-4q4 0 4 -4v4v4
q0 3 1 5l1 2l9 16l45 115q0 2 1 4t1 4q2 2 5 3l3 1q2 2 4 2t4 2z" />
    <glyph glyph-name="seven" unicode="7" horiz-adv-x="2531" 
d="M1929 721q4 -4 8.5 -9t6.5 -10q0 -6 1 -11t1 -11q0 -12 -2 -23q-2 -6 -6.5 -10t-8.5 -6q-4 -4 -8 -7t-8 -7q-12 -4 -23 -4q-6 0 -12 1t-10 3l-10.5 7t-8.5 7q-4 2 -7 6t-3 10q-4 7 -5 12t-1 11q0 10 6 22q0 5 3 10t7 9t8.5 7t10.5 5q8 4 22 4q6 0 10.5 -1t12.5 -3
q4 -2 8 -5t8 -7zM518 702q0 -2 -4 -8q-2 0 -3 -2t-5 -2q-2 -2 -8 -2h-33v47h33q4 0 8 -2q4 0 5 -1l3 -3l4 -8q2 -2 2 -10q0 -6 -2 -9zM801 721q4 -4 8 -9t6 -10q2 -6 3 -11t1 -11t-1 -11t-3 -12q-2 -6 -6 -10t-8 -6q-2 -4 -6 -7t-11 -7q-4 -2 -10 -3t-12 -1q-12 0 -23 4
q-4 4 -9 7t-9 7l-6 6t-6 10q-2 7 -4.5 12t-2.5 11q0 10 7 22q2 5 6 10t6 9q4 4 9 7t9 5q6 2 12.5 3t10.5 1q12 0 22 -4q7 -2 11 -5t6 -7zM1090 733q0 -4 1 -6t1 -4l28 -64h-59l29 64v4v6zM270 729q2 -2 3 -5t3 -5q3 -4 3 -10v-5.5t-3 -5.5q-2 -2 -3 -5t-3 -3l-8 -8h-10h-37
v53h37q6 0 10 -2q2 0 5 -2zM2478 1092v-586h-2404v586h911q0 30 5 58t18 54q12 27 27.5 51.5t37.5 42.5q37 39 90 62q29 12 56.5 17t56.5 5q33 0 61.5 -6t53.5 -18q28 -12 51.5 -28.5t42.5 -35.5q37 -37 61 -94q21 -53 21 -108h911zM1030 1192q-22 -47 -22 -100
q0 -58 22 -105q10 -22 24.5 -44.5t30.5 -41.5q19 -18 40.5 -32.5t45.5 -24.5q48 -23 105 -23q29 0 54.5 4t49.5 15q25 12 45.5 25.5t38.5 33.5q19 19 33 40.5t27 43.5q22 51 22 109q0 22 -4 45.5t-14 44.5q-12 41 -41 75q-14 17 -30.5 31.5t-33.5 24.5q-18 10 -37.5 19
t-39.5 18q-15 4 -32.5 6t-37.5 2q-29 0 -55.5 -5t-51.5 -18q-49 -18 -86 -57q-16 -18 -29.5 -41t-23.5 -45zM295 690q6 10 6 19q0 4 -1 9t-5 11q0 2 -4 6l-6 6q-2 4 -5.5 7.5t-9.5 3.5q-4 2 -9 4t-9 2h-53v-154h16v58h37q4 0 9 1t9 3q11 4 15 8q2 4 6 8t4 8zM410 758h-95
v-154h95v19h-72v47h59v20h-59v45h72v23zM559 604l-47 66q2 2 5 2t5 4q8 4 10 10q3 2 5 5t4 7v13v10t-2 8q-4 8 -11 14q-4 9 -14 9q-2 2 -7 4t-9 2h-56v-154h23v64h22l41 -56q2 -4 7 -6q2 -2 4 -2h6h14zM664 631q0 4 1 8t1 8q0 12 -4.5 20.5t-12.5 14.5q-2 0 -3 2t-5 4h-1
t-5 2h-2t-2 4q-6 0 -8 2q-7 0 -9 1l-6 3q-8 2 -8 5q-6 4 -6 6v8v8q2 0 4 2t2 4l3 1t5 1q4 2 6 2h4l2.5 -1t4.5 -1q8 0 8 -4q2 -2 4 -2h4q8 0 14 4l4 2q0 2 -2 4l-4 4q-4 2 -6 4.5t-6 4.5q-2 0 -4 1t-6 5q-6 0 -7 1t-6 1q-4 0 -9 -1t-9 -1q-4 -4 -7 -6t-7 -2q-2 -5 -5 -8
t-6 -7q-2 -4 -3 -7t-1 -9v-9t4 -8q3 -4 6 -7t3 -5q4 -2 8 -5t8 -3q4 -2 7 -4t7 -4q2 -2 5.5 -2h5.5q6 -2 7 -2t3 -2q4 -2 4 -3t2 -6q2 -2 2 -5v-7v-3t-2 -5q-2 -4 -2 -5t-4 -3q-2 -4 -5 -5t-5 -3h-5.5h-5.5h-7h-5q-2 2 -5 3t-3 5l-2 2q-6 4 -12 4h-4.5t-4.5 -2l-6 -2
q0 -4 2 -4q0 -4 4 -6q0 -2 2 -5l2 -2h3q8 -8 17 -10t19 -2h9.5t9.5 2t9 4t7 6q6 2 9.5 5.5t5.5 9.5zM838 659q2 7 2 11v10q0 12 -2 20q0 7 -3.5 11t-5.5 10q-4 6 -12 14q-4 4 -8 6t-10 9q-2 0 -6.5 2t-10.5 6q-6 0 -10 1t-10 1q-4 0 -10.5 -1t-10.5 -1q-6 -4 -10 -6t-8 -2
q-4 -7 -8 -9t-8 -6q-5 -4 -8 -7t-5 -7q-4 -6 -5 -10t-3 -11q-2 -8 -2 -20q0 -8 2 -15.5t4 -15.5q2 -6 6 -12t11 -14q6 -5 12 -9t14 -4q12 -6 29 -6h10h10q11 4 17 8q14 6 18 11q6 8 12 18q2 4 5.5 9t3.5 9zM997 758h-20v-119q0 2 -1 5l-1 3l-74 105q-4 0 -8 6h-4h-4h-15
v-154h21v129v-4l2 -2v0v-4l88 -119h16v154zM1169 604l-67 154h-23l-65 -154h12q6 0 8 2l3 3t5 3l9 27h79l11 -27q2 -4 6 -6q0 -2 8 -2h14zM1270 623h-66v135h-22v-154h88v19zM1479 758h-21v-92v-11t-2 -8q-2 -8 -10 -12q-2 -2 -5 -4t-5 -6q-6 -2 -9.5 -2h-7.5q-10 0 -14 2
q-6 4 -10 6t-4 4q-2 2 -4.5 5t-6.5 7q0 4 -1 8t-1 11v92h-20v-92v-12t2 -7q0 -8 4 -14q4 -10 12 -15q2 -2 5 -4t8 -4q2 -2 6 -3t6 -3q6 0 9 -2t9 -2q4 0 7.5 2t9.5 2q4 2 7 3t7 3l12 8q4 5 5 8t3 7q3 2 6 6t3 8v19v92zM1597 631q7 8 7 16q0 12 -4.5 20.5t-12.5 14.5
q-6 4 -6 6h-5t-5 2h-3t-5 4h-2t-5 2q-2 0 -4 1l-6 3q-8 2 -8 5q-4 2 -5 4t-3 2q0 2 -1 3t-1 5t4 8l6 6q2 0 3 1t5 1q0 2 10 2l2.5 -1t4.5 -1q2 -2 8 -4q8 -2 10 -2q6 0 8 4l6 2l-4 4l-4 4q0 2 -3 4.5t-5 4.5q-4 0 -6 1t-6 5q-4 0 -7.5 1l-3.5 1q-6 0 -10 -1t-8 -1
q-4 -4 -8 -6t-6 -2q-4 -5 -6 -8t-7 -7q0 -4 -2 -7t-2 -9t2 -9t2 -8q5 -8 11 -12q4 -2 7 -5t5 -3q6 -2 9 -4t7 -4t6.5 -2h4.5q2 -2 5 -2t5 -2t5 -3t3 -6q2 -2 2 -5v-7v-3t-2 -5q-2 -6 -8 -8q-4 -4 -6 -5t-4 -3h-6h-5h-7h-5q-4 2 -10 8v2q-6 4 -12 4h-3.5t-5.5 -2l-6 -2
q2 -2 2 -3t2 -1q0 -2 1 -3t1 -3l1 -1t1 -4q4 -2 7 -2q6 -8 15 -10t19 -2h10.5t10.5 2l8 4t8 6q2 2 5 5.5t5 9.5zM1722 758h-94v-154h94v19h-73v47h61v20h-61v45h73v23zM1966 659v11v10v11v9q-4 11 -10 21q-4 6 -12 14q-2 4 -6.5 6t-8.5 9q-4 0 -9 2t-9 6q-6 0 -10.5 1
t-10.5 1t-11 -1t-9 -1q-12 -6 -21 -8q-4 -7 -7 -9t-7 -6l-7 -7l-7 -7q-2 -6 -4 -10t-2 -11q-5 -8 -5 -20q0 -8 2.5 -15.5t4.5 -15.5q6 -14 18 -26q4 -5 10 -9t15 -4q12 -6 30 -6h10.5h10.5q4 2 9 4t9 4q4 4 8.5 6.5t6.5 4.5q8 8 12 18q6 8 10 18zM2126 758h-23v-119
q0 2 -1 5t-3 3l-74 105l-1 1t-3 5h-5h-5h-16v-154h24v129v-4v-2v-2l2 -2l86 -119h19v154zM2251 623h-66v135h-22v-154h88v19zM2374 758h-19q-4 0 -8 -4q-8 -4 -8 -9l-35 -47l-2 -2h-2v-2v2l-2 2l-37 47q-2 5 -6 9t-10 4h-17l56 -76l2 -2q0 -2 2 -2v-2v-2q0 -2 2 -2v-2v-66
h22v66v2v4q2 0 2 4v2h2zM1188 864q-19 8 -38.5 19.5t-33.5 25.5h322q-17 -14 -35.5 -25.5t-38.5 -19.5q-21 -6 -43.5 -12t-44.5 -6q-25 0 -46.5 6t-41.5 12zM1141 936l315 317q29 -39 45.5 -79.5t16.5 -81.5q0 -23 -3.5 -44.5t-11.5 -41.5q-8 -19 -18 -36.5t-23 -33.5h-321z
M1094 928q-27 35 -45 73q-7 21 -11 43.5t-4 47.5q0 20 4 40.5t11 41.5q6 18 16 35.5t25 33.5h319zM1364 1315q20 -8 38.5 -20.5t33.5 -22.5h-324q37 28 76 43q39 18 88 18t88 -18zM78 350q-4 4 -5 8t-3 9q-2 6 -3 10t-1 10t4 16q2 5 3 10t5 7l3 9t7 7q0 2 5 5t7 5q6 5 9.5 6
t9.5 3q2 0 8 1t10 1q8 0 14.5 -1t14.5 -5q8 -2 13 -6.5t9 -8.5q-2 -2 -4 -2v-4h-2h-2h-4h-6q-4 2 -8 5t-8 3h-7.5h-9.5h-10h-8q-8 -4 -12.5 -7t-8.5 -5q-4 -6 -7 -10t-5 -8q-4 -7 -4 -13v-8q0 -8 2 -14t3 -9.5t1 -7.5q2 -2 5 -4t5 -6q4 -2 6 -5t7 -3q2 -2 6 -4t8 -2
q2 -2 6 -2h6h10.5t8.5 2q4 0 9 2t9 4v29h-12h-2l-2 2l-3 3l-3 3l-1 1t-1 3v1v3v0h38v-53l-5 -5t-5 -6q-6 -2 -12 -2q-6 -2 -14 -2h-15h-10h-8q-6 2 -9.5 4.5t-9.5 6.5q-2 0 -7 3t-5 7q-6 2 -7 6t-3 8zM240 438v-45h55v-14h-55v-47h67v-17h-84v140h84v-17h-67zM369 315v123
h-45v17h106v-17h-47v-123h-14zM532 438v-49h60v-12h-60v-62h-16v140h84v-17h-68zM641 455v-86q0 -4 2 -7.5t4 -5.5q2 -6 5 -9t5 -7q0 -2 3.5 -4t5.5 -4q6 -2 10 -2h8h7t5 2q6 2 9.5 4t7.5 4q0 4 3 7t5 9q4 4 4 13v86h14v-86q0 -7 -1 -11t-3 -10t-5 -10t-7 -8t-8 -7.5
t-8 -5.5q-13 -2 -23 -2q-12 0 -25 2q-2 2 -7 5.5t-9 7.5q-6 6 -10 18q-2 6 -4 10t-2 11v86h14zM784 455v-123h62v-17h-78v140h16zM877 455v-123h65v-17h-80v140h15zM1069 315l-61 140h8q4 0 8 -2q2 -2 3 -2t3 -5l43 -104v-4q2 -2 2 -6v6l1 2l1 2q6 14 12.5 26.5t12.5 24.5
q4 17 10 29l12 24q0 5 2 5t2 2q2 2 3.5 2h5.5h8q-8 -17 -15.5 -34.5t-17.5 -33.5q-6 -20 -13 -36.5t-16 -35.5h-14zM1171 438v-45h58v-14h-58v-47h68v-17h-84v140h84v-17h-68zM1341 381q-2 -2 -10 -4l47 -62h-10q-2 0 -5 1l-3 1q-2 2 -4 3.5t-4 5.5l-39 51h-25v-62h-14v140
h51h5t7 -2q9 -2 15 -9q2 -4 4 -7t4 -7q2 -2 2 -7v-5v-9t-2 -6q0 -4 -2 -8t-4 -6l-4 -4t-9 -4zM1325 389q4 0 6 4q2 0 4 1t4 1l3 6t4 5q0 2 1 4t1 8l-1 2t-1 6q-3 2 -4 3t-3 5q-2 0 -4 1t-4 3h-6h-37v-49h37zM1452 336q2 2 4 8q2 2 3 6t1 6q0 6 -2 11q-2 0 -3 3t-3 5t-8 4
q-4 0 -6 1l-6 3q-5 0 -9 2t-4 4q-10 0 -14 6q-4 0 -5 4t-3 7v14v9t2 7q0 6 8 10q4 5 6 6t8 3q4 0 6.5 1t8.5 1q2 0 5 -1t5 -1t4 -1l6 -3q2 0 4 -2.5t2 -4.5q4 -2 5 -4t3 -2l-4 -2q-2 -2 -8 -2h-6q-4 2 -4 4h-2h-2h-2h-3h-1h-2h-9q-8 0 -8 -2q-6 -6 -6 -8q-4 0 -4 -8
q0 -6 4 -6q0 -4 2 -6t5 -3.5l3 -1.5q4 -4 6.5 -4t8.5 -4h3t3 -2h4t4 -4h2h1h1q2 0 4 -1l2 -1q4 -4 6 -7t7 -5q2 -10 2 -19v-10t-7 -8q0 -6 -8 -12q-2 -2 -6 -4.5t-8 -4.5t-8 -2h-10q-11 0 -18 2t-13 9q-2 0 -4 2l-4 4q0 2 -1 4l-1 2l2 2l1 1t5 1h2q2 0 4 -1t4 -3q4 -2 6 -4
t6 -2q0 -2 4 -2h7q8 0 10 2q8 0 12 4zM1524 455v-140h-17v140h17zM1579 336q-12 8 -18 20q-5 15 -5 31v7v9q7 11 9 17q6 8 14 16q6 6 12 10q4 5 9.5 6t9.5 3q4 0 8 1t10 1q4 0 9 -1t12 -1q4 -2 8 -3t8 -6l5 -5t7 -5q4 -4 6.5 -7t6.5 -9q2 -6 6 -17q2 -4 3 -9t1 -7
q0 -8 -2 -15t-6 -16q-2 -6 -5.5 -11t-9.5 -9q-6 -6 -11 -9t-11 -8q-10 -4 -27 -4q-8 0 -15 1t-11 3q-17 5 -23 17zM1579 408q-4 -7 -6 -13t-2 -8q0 -4 1 -8t1 -6q2 -8 8 -17q0 -2 2 -4t4 -6l5 -5t10 -3q2 -2 5 -4t5 -2q4 -2 8 -2h8h7t7 2q3 0 7 2l8 4q2 0 5 3l5 5q2 4 4 6
l4 4q2 4 3 7.5t3 9.5q0 2 1 6t1 8q0 2 -1 8t-5 13q0 4 -4 8t-6 10q-4 2 -8 5t-10 7h-9.5h-11.5h-12h-10q-4 -4 -9.5 -7t-9.5 -5q-2 -6 -5 -10t-3 -8zM1741 315h-17v140h13h5t5 -4l72 -103q2 0 2 -4l2 -2v-2v115h16v-140h-14l-82 115v4h-2v4v-123zM1956 438v-49h57v-12h-57
v-62h-14v140h83v-17h-69zM2114 381q-9 -2 -13 -4l45 -62h-12q-4 0 -8 2q0 2 -1 3.5t-3 5.5l-39 51h-25v-62h-16v140h51h6t8 -2t7.5 -4.5t5.5 -4.5q2 -4 4 -7t6 -7q0 -2 1 -7l1 -5q0 -6 -1 -9t-1 -6l-4 -8t-2 -6zM2101 393q2 0 3 1t3 1q7 8 7 11q2 4 2 12q0 2 -2 8q0 2 -7 8
q-2 0 -3 1l-3 3h-8h-35v-49h35q4 0 8 4zM2281 336q-4 -6 -10 -9t-12 -8q-6 -2 -12 -3t-15 -1q-8 0 -15 1t-13 3q-13 5 -23 17q-4 4 -8 9t-6 11q-2 9 -5 16t-3 15q0 2 1 7t3 9q2 5 3 10t3 7q4 6 7 9t5 7q4 2 8 5t9 5q4 5 8 6t8 3q6 0 9 1t9 1q4 0 9.5 -1t9.5 -1l9 -3t7 -6
q4 -2 8 -5t6 -5q3 -4 6 -7t5 -9q6 -6 8 -17q2 -4 3 -9t1 -7q0 -8 -1 -15t-5 -16q-2 -6 -6 -11t-11 -9zM2232 330h7.5t9.5 2q2 0 5 2t5 4q2 0 6 3t8 5l3 6t3 4q2 4 3.5 7.5t1.5 9.5q2 2 2 6v8q0 2 -1 8t-1 13l-6 8t-5 10q-6 2 -11 5t-9 7h-10.5h-10.5h-11h-11q-6 -4 -9 -7
t-8 -5q-6 -6 -8 -10l-4 -8q-2 -7 -2 -13v-8v-14q0 -6 1 -9.5t5 -7.5q0 -2 3 -4t5 -6q2 -2 5.5 -5t5.5 -3q2 -2 5 -4t9 -2q2 -2 6 -2h8zM2460 453q2 2 3 2h3h12v-140h-14v115l-2 -2v0v-2q-4 -8 -6 -17.5t-7 -15.5q-4 -6 -7 -12l-7 -14q-2 -9 -4 -15l-4 -12q-4 -6 -7 -11
t-5 -14h-15q-10 13 -15 27t-11 27q-4 14 -11.5 28.5t-11.5 28.5v2l-4 2v-115h-16v140h14q6 0 8 -2l2 -2v-5l49 -108q0 -2 2 -2v-4q0 2 1 4t1 4q0 4 5 8l43 98q0 5 1 5t3 2zM74 262h157v-20v-4v-5q0 -4 -2 -6l-4 -4l-106 -145h2v2h4h2h104v-37h-165v12q0 11 2 13q0 2 4 8
q2 2 2 4t2 4t3 4l3 6l94 129h-102v39zM260 262h139v-39h-100v-49h80v-41h-80v-53h100v-37h-139v219zM571 223h-59v-180h-43v180h-63v39h165v-39zM672 262l94 -219h-25q-8 0 -16 4q-4 2 -5 6t-5 8l-13 29h-100l-10 -29q-2 -4 -3 -5t-3 -1q0 -4 -1 -5t-5 -3q-2 0 -4.5 -1
t-4.5 -1q0 -2 -2 -2h-4h-24l94 219h37zM684 129l-27 68q0 2 -1 3t-1 3q0 4 -2 6v-6q0 -2 -2 -3t-2 -3l-26 -68h61zM774 262h139v-39h-100v-55h82v-39h-82v-86h-39v219zM1133 207q4 -6 6 -12.5t6 -12.5q2 -8 2 -15v-13v-17t-2 -14q-4 -6 -6 -13.5t-6 -13.5q-5 -4 -9 -10
l-8 -12q-8 -4 -12 -9.5t-10 -7.5q-7 -6 -14 -8t-13 -4q-8 -2 -15.5 -3t-15.5 -1q-10 0 -21 3t-22 5q-12 6 -19 12.5t-18 12.5q-14 16 -20 35q-6 12 -8 22t-2 23q0 6 1 13t3 15q4 17 12 25q4 8 7 13t7 11q9 5 14 9t11 8t12 6t15 6q6 0 13 1t15 1t15.5 -1t15.5 -1q6 -4 13 -6
t14 -6q6 -4 10 -8t12 -9q4 -6 8 -11t9 -13zM1104 127q2 6 3 12t1 15q0 12 -4 24q-4 10 -8 15.5t-11 9.5q-4 4 -9 8t-11 6q-12 6 -29 6q-16 0 -28 -6q-4 -2 -9.5 -6t-11.5 -8t-9 -9.5t-7 -15.5q-4 -4 -4 -11v-13v-15t4 -12q4 -8 7 -14.5t9 -10.5t11.5 -8t9.5 -8q8 -2 14 -4
t14 -2t14.5 2t14.5 4q6 4 11 8t9 8q7 4 11 10.5t8 14.5zM1329 262h39v-219h-37l-102 147q-2 0 -2 1.5t-2 3.5q-2 4 -2 6q-4 0 -4 4l-1 1t-4 3v-166h-38v219h34q4 0 8.5 -1t4.5 -3l6 -3t4 -3q10 -16 21.5 -31.5t21.5 -34.5q12 -14 23.5 -29.5t25.5 -29.5q0 -4 1 -6t1 -6
q0 -2 1 -4t1 -5v156zM1389 262h165v-39h-65v-180h-39v180h-61v39zM1690 150q2 -5 5 -9t5 -8q0 -4 2 -9t2 -13q0 -13 -6 -27l-8 -12t-9 -11q-8 -4 -12 -8t-12 -6t-15.5 -4t-13.5 -2q-8 0 -15 2t-18 4q-6 2 -11 6t-13 13q-4 2 -6 5t-4 7q-5 2 -5 12l1.5 1t3.5 3q2 0 2 1t2 1
t4 1l2 1h10h3t3 -2q6 0 10 -2q5 -4 9 -6t6 -4q2 0 6 -2t10 -2q2 0 5 1t7 3q7 2 13 6l8 8q2 4 4 6t2 7q0 8 -6 12q-4 6 -8 6q-4 4 -7.5 5t-5.5 1q-6 2 -16 8q-4 0 -9 1t-9 6q-9 2 -13 5t-8 7q-6 4 -9 8t-5 8q-6 12 -6 25q0 18 6 26q2 7 6 11t10 8q4 4 9.5 6t13.5 6q4 0 10 1
t14 1q4 0 8.5 -1t10.5 -1q4 -2 7 -4t9 -4q2 -2 6 -5t8 -7q3 -2 6 -5.5t5 -7.5l-8 -4l-6 -4t-3 -4h-8h-4h-4h-2q-6 0 -6 2l-8 4q-3 0 -4 1l-1 1h-6h-12q-4 0 -5 -1t-5 -3q-2 -2 -4 -8q-2 -2 -2 -8t2 -6q2 -2 3 -4.5t1 -6.5q4 0 7 -1t5 -1q6 -2 11 -4t7 -4l11 -2q4 -4 9 -5
t11 -7q10 -2 17 -12zM1755 80q6 0 6 -6q2 0 2 -3v-5q0 -7 -2 -11q0 -4 -6 -8q-4 0 -6 -4q-2 0 -4 -1t-6 -1q-2 0 -4 1t-4 1q-2 2 -4.5 3t-4.5 1q-2 2 -3 4t-3 4q-2 4 -2 11v5t2 3q2 4 3 5t3 1q7 6 9 6q2 2 4 3t4 1q4 0 6 -1t4 -3q2 0 6 -6zM1839 203q-8 -8 -16 -25
q-2 -4 -4 -11t-2 -13q0 -9 2 -15l4 -12q4 -8 7 -14.5t9 -10.5q4 -4 9 -8t14 -8q8 -2 14 -4t14 -2q6 0 10.5 2t10.5 2q4 2 9 5t9 7q4 0 8 2h7h6t6 -2q6 -2 10 -6l6 -10q-6 -8 -16 -14q-6 -5 -10 -8t-11 -5q-6 -4 -11 -5t-11 -3t-11.5 -3t-11.5 -1q-14 0 -24.5 3t-20.5 5
q-20 10 -35 25q-16 16 -24 35q-2 12 -5 22t-3 23q0 6 1 13t3 15q2 6 4 12.5t6 12.5q6 8 9 13t9 11q7 5 12 9t13 8q4 4 10 6t17 6q4 0 12 1t16 1h11.5t11.5 -2t11 -4t11 -4q7 -2 11 -5t10 -7q10 -9 16 -17l-6 -8l-5 -5t-5 -3h-7h-5h-8t-7 2q-4 4 -9 7t-9 5q-6 2 -10.5 2
h-10.5q-16 0 -28 -6q-9 -2 -14 -6t-9 -8zM2195 207q3 -6 6 -12.5t5 -12.5q2 -8 2 -15v-13v-17t-2 -14t-5 -13.5t-6 -13.5q-8 -10 -16 -22q-8 -4 -14 -9.5t-11 -7.5q-6 -6 -13 -8t-15 -4q-6 -2 -13.5 -3t-15.5 -1q-20 0 -43 8q-8 6 -17 12.5t-16 12.5q-8 8 -14 16t-10 19
q-4 12 -6 22t-2 23q0 6 1 13t1 15q2 6 6 12.5t6 12.5q4 8 8 13t10 11q4 5 10.5 9t12.5 8q4 4 11 6t13 6q9 0 16 1t13 1q8 0 15.5 -1t13.5 -1q8 -4 15 -6t13 -6q5 -4 11 -8t14 -9q2 -6 8 -11t8 -13zM2165 127q4 10 4 27q0 6 -1 13t-3 11q-4 10 -7.5 15.5t-7.5 9.5
q-10 10 -24 14q-6 4 -13.5 5t-15.5 1q-14 0 -26 -6q-7 -2 -12 -6t-11 -8q-4 -4 -8 -9.5t-8 -15.5q-2 -4 -3 -11t-1 -13q0 -9 1 -15t3 -12q8 -16 16 -25q6 -4 11 -8t12 -8q6 -2 14 -4t12 -2q8 0 15.5 2t13.5 4q6 4 13 8t11 8q9 9 15 25zM2433 260l1 1t5 1h39v-219h-39v160
q0 -2 -1 -4l-3 -6v-7t-2 -4q-6 -18 -14.5 -35.5t-14.5 -33.5q-6 -17 -13 -34.5t-13 -35.5h-39l-55 139q-3 2 -3 11q-2 4 -3 5t-1 3v-158h-41v219h39q4 0 6.5 -1l2.5 -1q4 -2 5 -2t3 -2l6 -4l4 -4t2 -4q4 -17 11 -32t14 -34q6 -16 13 -32.5t13 -32.5v-2v-5v-4q4 0 4 -4v4v4
q0 3 1 5l1 2l9 16l45 115q0 2 1 4t1 4q2 2 5 3l3 1q2 2 4 2t4 2z" />
    <glyph glyph-name="eight" unicode="8" horiz-adv-x="2531" 
d="M1929 721q4 -4 8.5 -9t6.5 -10q0 -6 1 -11t1 -11q0 -12 -2 -23q-2 -6 -6.5 -10t-8.5 -6q-4 -4 -8 -7t-8 -7q-12 -4 -23 -4q-6 0 -12 1t-10 3l-10.5 7t-8.5 7q-4 2 -7 6t-3 10q-4 7 -5 12t-1 11q0 10 6 22q0 5 3 10t7 9t8.5 7t10.5 5q8 4 22 4q6 0 10.5 -1t12.5 -3
q4 -2 8 -5t8 -7zM518 702q0 -2 -4 -8q-2 0 -3 -2t-5 -2q-2 -2 -8 -2h-33v47h33q4 0 8 -2q4 0 5 -1l3 -3l4 -8q2 -2 2 -10q0 -6 -2 -9zM801 721q4 -4 8 -9t6 -10q2 -6 3 -11t1 -11t-1 -11t-3 -12q-2 -6 -6 -10t-8 -6q-2 -4 -6 -7t-11 -7q-4 -2 -10 -3t-12 -1q-12 0 -23 4
q-4 4 -9 7t-9 7l-6 6t-6 10q-2 7 -4.5 12t-2.5 11q0 10 7 22q2 5 6 10t6 9q4 4 9 7t9 5q6 2 12.5 3t10.5 1q12 0 22 -4q7 -2 11 -5t6 -7zM1090 733q0 -4 1 -6t1 -4l28 -64h-59l29 64v4v6zM270 729q2 -2 3 -5t3 -5q3 -4 3 -10v-5.5t-3 -5.5q-2 -2 -3 -5t-3 -3l-8 -8h-10h-37
v53h37q6 0 10 -2q2 0 5 -2zM2478 1092v-586h-2404v586h911q0 30 5 58t18 54q12 27 27.5 51.5t37.5 42.5q37 39 90 62q29 12 56.5 17t56.5 5q33 0 61.5 -6t53.5 -18q28 -12 51.5 -28.5t42.5 -35.5q37 -37 61 -94q21 -53 21 -108h911zM1030 1192q-22 -47 -22 -100
q0 -58 22 -105q10 -22 24.5 -44.5t30.5 -41.5q19 -18 40.5 -32.5t45.5 -24.5q48 -23 105 -23q29 0 54.5 4t49.5 15q25 12 45.5 25.5t38.5 33.5q19 19 33 40.5t27 43.5q22 51 22 109q0 22 -4 45.5t-14 44.5q-12 41 -41 75q-14 17 -30.5 31.5t-33.5 24.5q-18 10 -37.5 19
t-39.5 18q-15 4 -32.5 6t-37.5 2q-29 0 -55.5 -5t-51.5 -18q-49 -18 -86 -57q-16 -18 -29.5 -41t-23.5 -45zM295 690q6 10 6 19q0 4 -1 9t-5 11q0 2 -4 6l-6 6q-2 4 -5.5 7.5t-9.5 3.5q-4 2 -9 4t-9 2h-53v-154h16v58h37q4 0 9 1t9 3q11 4 15 8q2 4 6 8t4 8zM410 758h-95
v-154h95v19h-72v47h59v20h-59v45h72v23zM559 604l-47 66q2 2 5 2t5 4q8 4 10 10q3 2 5 5t4 7v13v10t-2 8q-4 8 -11 14q-4 9 -14 9q-2 2 -7 4t-9 2h-56v-154h23v64h22l41 -56q2 -4 7 -6q2 -2 4 -2h6h14zM664 631q0 4 1 8t1 8q0 12 -4.5 20.5t-12.5 14.5q-2 0 -3 2t-5 4h-1
t-5 2h-2t-2 4q-6 0 -8 2q-7 0 -9 1l-6 3q-8 2 -8 5q-6 4 -6 6v8v8q2 0 4 2t2 4l3 1t5 1q4 2 6 2h4l2.5 -1t4.5 -1q8 0 8 -4q2 -2 4 -2h4q8 0 14 4l4 2q0 2 -2 4l-4 4q-4 2 -6 4.5t-6 4.5q-2 0 -4 1t-6 5q-6 0 -7 1t-6 1q-4 0 -9 -1t-9 -1q-4 -4 -7 -6t-7 -2q-2 -5 -5 -8
t-6 -7q-2 -4 -3 -7t-1 -9v-9t4 -8q3 -4 6 -7t3 -5q4 -2 8 -5t8 -3q4 -2 7 -4t7 -4q2 -2 5.5 -2h5.5q6 -2 7 -2t3 -2q4 -2 4 -3t2 -6q2 -2 2 -5v-7v-3t-2 -5q-2 -4 -2 -5t-4 -3q-2 -4 -5 -5t-5 -3h-5.5h-5.5h-7h-5q-2 2 -5 3t-3 5l-2 2q-6 4 -12 4h-4.5t-4.5 -2l-6 -2
q0 -4 2 -4q0 -4 4 -6q0 -2 2 -5l2 -2h3q8 -8 17 -10t19 -2h9.5t9.5 2t9 4t7 6q6 2 9.5 5.5t5.5 9.5zM838 659q2 7 2 11v10q0 12 -2 20q0 7 -3.5 11t-5.5 10q-4 6 -12 14q-4 4 -8 6t-10 9q-2 0 -6.5 2t-10.5 6q-6 0 -10 1t-10 1q-4 0 -10.5 -1t-10.5 -1q-6 -4 -10 -6t-8 -2
q-4 -7 -8 -9t-8 -6q-5 -4 -8 -7t-5 -7q-4 -6 -5 -10t-3 -11q-2 -8 -2 -20q0 -8 2 -15.5t4 -15.5q2 -6 6 -12t11 -14q6 -5 12 -9t14 -4q12 -6 29 -6h10h10q11 4 17 8q14 6 18 11q6 8 12 18q2 4 5.5 9t3.5 9zM997 758h-20v-119q0 2 -1 5l-1 3l-74 105q-4 0 -8 6h-4h-4h-15
v-154h21v129v-4l2 -2v0v-4l88 -119h16v154zM1169 604l-67 154h-23l-65 -154h12q6 0 8 2l3 3t5 3l9 27h79l11 -27q2 -4 6 -6q0 -2 8 -2h14zM1270 623h-66v135h-22v-154h88v19zM1479 758h-21v-92v-11t-2 -8q-2 -8 -10 -12q-2 -2 -5 -4t-5 -6q-6 -2 -9.5 -2h-7.5q-10 0 -14 2
q-6 4 -10 6t-4 4q-2 2 -4.5 5t-6.5 7q0 4 -1 8t-1 11v92h-20v-92v-12t2 -7q0 -8 4 -14q4 -10 12 -15q2 -2 5 -4t8 -4q2 -2 6 -3t6 -3q6 0 9 -2t9 -2q4 0 7.5 2t9.5 2q4 2 7 3t7 3l12 8q4 5 5 8t3 7q3 2 6 6t3 8v19v92zM1597 631q7 8 7 16q0 12 -4.5 20.5t-12.5 14.5
q-6 4 -6 6h-5t-5 2h-3t-5 4h-2t-5 2q-2 0 -4 1l-6 3q-8 2 -8 5q-4 2 -5 4t-3 2q0 2 -1 3t-1 5t4 8l6 6q2 0 3 1t5 1q0 2 10 2l2.5 -1t4.5 -1q2 -2 8 -4q8 -2 10 -2q6 0 8 4l6 2l-4 4l-4 4q0 2 -3 4.5t-5 4.5q-4 0 -6 1t-6 5q-4 0 -7.5 1l-3.5 1q-6 0 -10 -1t-8 -1
q-4 -4 -8 -6t-6 -2q-4 -5 -6 -8t-7 -7q0 -4 -2 -7t-2 -9t2 -9t2 -8q5 -8 11 -12q4 -2 7 -5t5 -3q6 -2 9 -4t7 -4t6.5 -2h4.5q2 -2 5 -2t5 -2t5 -3t3 -6q2 -2 2 -5v-7v-3t-2 -5q-2 -6 -8 -8q-4 -4 -6 -5t-4 -3h-6h-5h-7h-5q-4 2 -10 8v2q-6 4 -12 4h-3.5t-5.5 -2l-6 -2
q2 -2 2 -3t2 -1q0 -2 1 -3t1 -3l1 -1t1 -4q4 -2 7 -2q6 -8 15 -10t19 -2h10.5t10.5 2l8 4t8 6q2 2 5 5.5t5 9.5zM1722 758h-94v-154h94v19h-73v47h61v20h-61v45h73v23zM1966 659v11v10v11v9q-4 11 -10 21q-4 6 -12 14q-2 4 -6.5 6t-8.5 9q-4 0 -9 2t-9 6q-6 0 -10.5 1
t-10.5 1t-11 -1t-9 -1q-12 -6 -21 -8q-4 -7 -7 -9t-7 -6l-7 -7l-7 -7q-2 -6 -4 -10t-2 -11q-5 -8 -5 -20q0 -8 2.5 -15.5t4.5 -15.5q6 -14 18 -26q4 -5 10 -9t15 -4q12 -6 30 -6h10.5h10.5q4 2 9 4t9 4q4 4 8.5 6.5t6.5 4.5q8 8 12 18q6 8 10 18zM2126 758h-23v-119
q0 2 -1 5t-3 3l-74 105l-1 1t-3 5h-5h-5h-16v-154h24v129v-4v-2v-2l2 -2l86 -119h19v154zM2251 623h-66v135h-22v-154h88v19zM2374 758h-19q-4 0 -8 -4q-8 -4 -8 -9l-35 -47l-2 -2h-2v-2v2l-2 2l-37 47q-2 5 -6 9t-10 4h-17l56 -76l2 -2q0 -2 2 -2v-2v-2q0 -2 2 -2v-2v-66
h22v66v2v4q2 0 2 4v2h2zM1188 864q-19 8 -38.5 19.5t-33.5 25.5h322q-17 -14 -35.5 -25.5t-38.5 -19.5q-21 -6 -43.5 -12t-44.5 -6q-25 0 -46.5 6t-41.5 12zM1141 936l315 317q29 -39 45.5 -79.5t16.5 -81.5q0 -23 -3.5 -44.5t-11.5 -41.5q-8 -19 -18 -36.5t-23 -33.5h-321z
M1094 928q-27 35 -45 73q-7 21 -11 43.5t-4 47.5q0 20 4 40.5t11 41.5q6 18 16 35.5t25 33.5h319zM1364 1315q20 -8 38.5 -20.5t33.5 -22.5h-324q37 28 76 43q39 18 88 18t88 -18zM78 350q-4 4 -5 8t-3 9q-2 6 -3 10t-1 10t4 16q2 5 3 10t5 7l3 9t7 7q0 2 5 5t7 5q6 5 9.5 6
t9.5 3q2 0 8 1t10 1q8 0 14.5 -1t14.5 -5q8 -2 13 -6.5t9 -8.5q-2 -2 -4 -2v-4h-2h-2h-4h-6q-4 2 -8 5t-8 3h-7.5h-9.5h-10h-8q-8 -4 -12.5 -7t-8.5 -5q-4 -6 -7 -10t-5 -8q-4 -7 -4 -13v-8q0 -8 2 -14t3 -9.5t1 -7.5q2 -2 5 -4t5 -6q4 -2 6 -5t7 -3q2 -2 6 -4t8 -2
q2 -2 6 -2h6h10.5t8.5 2q4 0 9 2t9 4v29h-12h-2l-2 2l-3 3l-3 3l-1 1t-1 3v1v3v0h38v-53l-5 -5t-5 -6q-6 -2 -12 -2q-6 -2 -14 -2h-15h-10h-8q-6 2 -9.5 4.5t-9.5 6.5q-2 0 -7 3t-5 7q-6 2 -7 6t-3 8zM240 438v-45h55v-14h-55v-47h67v-17h-84v140h84v-17h-67zM369 315v123
h-45v17h106v-17h-47v-123h-14zM532 438v-49h60v-12h-60v-62h-16v140h84v-17h-68zM641 455v-86q0 -4 2 -7.5t4 -5.5q2 -6 5 -9t5 -7q0 -2 3.5 -4t5.5 -4q6 -2 10 -2h8h7t5 2q6 2 9.5 4t7.5 4q0 4 3 7t5 9q4 4 4 13v86h14v-86q0 -7 -1 -11t-3 -10t-5 -10t-7 -8t-8 -7.5
t-8 -5.5q-13 -2 -23 -2q-12 0 -25 2q-2 2 -7 5.5t-9 7.5q-6 6 -10 18q-2 6 -4 10t-2 11v86h14zM784 455v-123h62v-17h-78v140h16zM877 455v-123h65v-17h-80v140h15zM1069 315l-61 140h8q4 0 8 -2q2 -2 3 -2t3 -5l43 -104v-4q2 -2 2 -6v6l1 2l1 2q6 14 12.5 26.5t12.5 24.5
q4 17 10 29l12 24q0 5 2 5t2 2q2 2 3.5 2h5.5h8q-8 -17 -15.5 -34.5t-17.5 -33.5q-6 -20 -13 -36.5t-16 -35.5h-14zM1171 438v-45h58v-14h-58v-47h68v-17h-84v140h84v-17h-68zM1341 381q-2 -2 -10 -4l47 -62h-10q-2 0 -5 1l-3 1q-2 2 -4 3.5t-4 5.5l-39 51h-25v-62h-14v140
h51h5t7 -2q9 -2 15 -9q2 -4 4 -7t4 -7q2 -2 2 -7v-5v-9t-2 -6q0 -4 -2 -8t-4 -6l-4 -4t-9 -4zM1325 389q4 0 6 4q2 0 4 1t4 1l3 6t4 5q0 2 1 4t1 8l-1 2t-1 6q-3 2 -4 3t-3 5q-2 0 -4 1t-4 3h-6h-37v-49h37zM1452 336q2 2 4 8q2 2 3 6t1 6q0 6 -2 11q-2 0 -3 3t-3 5t-8 4
q-4 0 -6 1l-6 3q-5 0 -9 2t-4 4q-10 0 -14 6q-4 0 -5 4t-3 7v14v9t2 7q0 6 8 10q4 5 6 6t8 3q4 0 6.5 1t8.5 1q2 0 5 -1t5 -1t4 -1l6 -3q2 0 4 -2.5t2 -4.5q4 -2 5 -4t3 -2l-4 -2q-2 -2 -8 -2h-6q-4 2 -4 4h-2h-2h-2h-3h-1h-2h-9q-8 0 -8 -2q-6 -6 -6 -8q-4 0 -4 -8
q0 -6 4 -6q0 -4 2 -6t5 -3.5l3 -1.5q4 -4 6.5 -4t8.5 -4h3t3 -2h4t4 -4h2h1h1q2 0 4 -1l2 -1q4 -4 6 -7t7 -5q2 -10 2 -19v-10t-7 -8q0 -6 -8 -12q-2 -2 -6 -4.5t-8 -4.5t-8 -2h-10q-11 0 -18 2t-13 9q-2 0 -4 2l-4 4q0 2 -1 4l-1 2l2 2l1 1t5 1h2q2 0 4 -1t4 -3q4 -2 6 -4
t6 -2q0 -2 4 -2h7q8 0 10 2q8 0 12 4zM1524 455v-140h-17v140h17zM1579 336q-12 8 -18 20q-5 15 -5 31v7v9q7 11 9 17q6 8 14 16q6 6 12 10q4 5 9.5 6t9.5 3q4 0 8 1t10 1q4 0 9 -1t12 -1q4 -2 8 -3t8 -6l5 -5t7 -5q4 -4 6.5 -7t6.5 -9q2 -6 6 -17q2 -4 3 -9t1 -7
q0 -8 -2 -15t-6 -16q-2 -6 -5.5 -11t-9.5 -9q-6 -6 -11 -9t-11 -8q-10 -4 -27 -4q-8 0 -15 1t-11 3q-17 5 -23 17zM1579 408q-4 -7 -6 -13t-2 -8q0 -4 1 -8t1 -6q2 -8 8 -17q0 -2 2 -4t4 -6l5 -5t10 -3q2 -2 5 -4t5 -2q4 -2 8 -2h8h7t7 2q3 0 7 2l8 4q2 0 5 3l5 5q2 4 4 6
l4 4q2 4 3 7.5t3 9.5q0 2 1 6t1 8q0 2 -1 8t-5 13q0 4 -4 8t-6 10q-4 2 -8 5t-10 7h-9.5h-11.5h-12h-10q-4 -4 -9.5 -7t-9.5 -5q-2 -6 -5 -10t-3 -8zM1741 315h-17v140h13h5t5 -4l72 -103q2 0 2 -4l2 -2v-2v115h16v-140h-14l-82 115v4h-2v4v-123zM1956 438v-49h57v-12h-57
v-62h-14v140h83v-17h-69zM2114 381q-9 -2 -13 -4l45 -62h-12q-4 0 -8 2q0 2 -1 3.5t-3 5.5l-39 51h-25v-62h-16v140h51h6t8 -2t7.5 -4.5t5.5 -4.5q2 -4 4 -7t6 -7q0 -2 1 -7l1 -5q0 -6 -1 -9t-1 -6l-4 -8t-2 -6zM2101 393q2 0 3 1t3 1q7 8 7 11q2 4 2 12q0 2 -2 8q0 2 -7 8
q-2 0 -3 1l-3 3h-8h-35v-49h35q4 0 8 4zM2281 336q-4 -6 -10 -9t-12 -8q-6 -2 -12 -3t-15 -1q-8 0 -15 1t-13 3q-13 5 -23 17q-4 4 -8 9t-6 11q-2 9 -5 16t-3 15q0 2 1 7t3 9q2 5 3 10t3 7q4 6 7 9t5 7q4 2 8 5t9 5q4 5 8 6t8 3q6 0 9 1t9 1q4 0 9.5 -1t9.5 -1l9 -3t7 -6
q4 -2 8 -5t6 -5q3 -4 6 -7t5 -9q6 -6 8 -17q2 -4 3 -9t1 -7q0 -8 -1 -15t-5 -16q-2 -6 -6 -11t-11 -9zM2232 330h7.5t9.5 2q2 0 5 2t5 4q2 0 6 3t8 5l3 6t3 4q2 4 3.5 7.5t1.5 9.5q2 2 2 6v8q0 2 -1 8t-1 13l-6 8t-5 10q-6 2 -11 5t-9 7h-10.5h-10.5h-11h-11q-6 -4 -9 -7
t-8 -5q-6 -6 -8 -10l-4 -8q-2 -7 -2 -13v-8v-14q0 -6 1 -9.5t5 -7.5q0 -2 3 -4t5 -6q2 -2 5.5 -5t5.5 -3q2 -2 5 -4t9 -2q2 -2 6 -2h8zM2460 453q2 2 3 2h3h12v-140h-14v115l-2 -2v0v-2q-4 -8 -6 -17.5t-7 -15.5q-4 -6 -7 -12l-7 -14q-2 -9 -4 -15l-4 -12q-4 -6 -7 -11
t-5 -14h-15q-10 13 -15 27t-11 27q-4 14 -11.5 28.5t-11.5 28.5v2l-4 2v-115h-16v140h14q6 0 8 -2l2 -2v-5l49 -108q0 -2 2 -2v-4q0 2 1 4t1 4q0 4 5 8l43 98q0 5 1 5t3 2zM74 262h157v-20v-4v-5q0 -4 -2 -6l-4 -4l-106 -145h2v2h4h2h104v-37h-165v12q0 11 2 13q0 2 4 8
q2 2 2 4t2 4t3 4l3 6l94 129h-102v39zM260 262h139v-39h-100v-49h80v-41h-80v-53h100v-37h-139v219zM571 223h-59v-180h-43v180h-63v39h165v-39zM672 262l94 -219h-25q-8 0 -16 4q-4 2 -5 6t-5 8l-13 29h-100l-10 -29q-2 -4 -3 -5t-3 -1q0 -4 -1 -5t-5 -3q-2 0 -4.5 -1
t-4.5 -1q0 -2 -2 -2h-4h-24l94 219h37zM684 129l-27 68q0 2 -1 3t-1 3q0 4 -2 6v-6q0 -2 -2 -3t-2 -3l-26 -68h61zM774 262h139v-39h-100v-55h82v-39h-82v-86h-39v219zM1133 207q4 -6 6 -12.5t6 -12.5q2 -8 2 -15v-13v-17t-2 -14q-4 -6 -6 -13.5t-6 -13.5q-5 -4 -9 -10
l-8 -12q-8 -4 -12 -9.5t-10 -7.5q-7 -6 -14 -8t-13 -4q-8 -2 -15.5 -3t-15.5 -1q-10 0 -21 3t-22 5q-12 6 -19 12.5t-18 12.5q-14 16 -20 35q-6 12 -8 22t-2 23q0 6 1 13t3 15q4 17 12 25q4 8 7 13t7 11q9 5 14 9t11 8t12 6t15 6q6 0 13 1t15 1t15.5 -1t15.5 -1q6 -4 13 -6
t14 -6q6 -4 10 -8t12 -9q4 -6 8 -11t9 -13zM1104 127q2 6 3 12t1 15q0 12 -4 24q-4 10 -8 15.5t-11 9.5q-4 4 -9 8t-11 6q-12 6 -29 6q-16 0 -28 -6q-4 -2 -9.5 -6t-11.5 -8t-9 -9.5t-7 -15.5q-4 -4 -4 -11v-13v-15t4 -12q4 -8 7 -14.5t9 -10.5t11.5 -8t9.5 -8q8 -2 14 -4
t14 -2t14.5 2t14.5 4q6 4 11 8t9 8q7 4 11 10.5t8 14.5zM1329 262h39v-219h-37l-102 147q-2 0 -2 1.5t-2 3.5q-2 4 -2 6q-4 0 -4 4l-1 1t-4 3v-166h-38v219h34q4 0 8.5 -1t4.5 -3l6 -3t4 -3q10 -16 21.5 -31.5t21.5 -34.5q12 -14 23.5 -29.5t25.5 -29.5q0 -4 1 -6t1 -6
q0 -2 1 -4t1 -5v156zM1389 262h165v-39h-65v-180h-39v180h-61v39zM1690 150q2 -5 5 -9t5 -8q0 -4 2 -9t2 -13q0 -13 -6 -27l-8 -12t-9 -11q-8 -4 -12 -8t-12 -6t-15.5 -4t-13.5 -2q-8 0 -15 2t-18 4q-6 2 -11 6t-13 13q-4 2 -6 5t-4 7q-5 2 -5 12l1.5 1t3.5 3q2 0 2 1t2 1
t4 1l2 1h10h3t3 -2q6 0 10 -2q5 -4 9 -6t6 -4q2 0 6 -2t10 -2q2 0 5 1t7 3q7 2 13 6l8 8q2 4 4 6t2 7q0 8 -6 12q-4 6 -8 6q-4 4 -7.5 5t-5.5 1q-6 2 -16 8q-4 0 -9 1t-9 6q-9 2 -13 5t-8 7q-6 4 -9 8t-5 8q-6 12 -6 25q0 18 6 26q2 7 6 11t10 8q4 4 9.5 6t13.5 6q4 0 10 1
t14 1q4 0 8.5 -1t10.5 -1q4 -2 7 -4t9 -4q2 -2 6 -5t8 -7q3 -2 6 -5.5t5 -7.5l-8 -4l-6 -4t-3 -4h-8h-4h-4h-2q-6 0 -6 2l-8 4q-3 0 -4 1l-1 1h-6h-12q-4 0 -5 -1t-5 -3q-2 -2 -4 -8q-2 -2 -2 -8t2 -6q2 -2 3 -4.5t1 -6.5q4 0 7 -1t5 -1q6 -2 11 -4t7 -4l11 -2q4 -4 9 -5
t11 -7q10 -2 17 -12zM1755 80q6 0 6 -6q2 0 2 -3v-5q0 -7 -2 -11q0 -4 -6 -8q-4 0 -6 -4q-2 0 -4 -1t-6 -1q-2 0 -4 1t-4 1q-2 2 -4.5 3t-4.5 1q-2 2 -3 4t-3 4q-2 4 -2 11v5t2 3q2 4 3 5t3 1q7 6 9 6q2 2 4 3t4 1q4 0 6 -1t4 -3q2 0 6 -6zM1839 203q-8 -8 -16 -25
q-2 -4 -4 -11t-2 -13q0 -9 2 -15l4 -12q4 -8 7 -14.5t9 -10.5q4 -4 9 -8t14 -8q8 -2 14 -4t14 -2q6 0 10.5 2t10.5 2q4 2 9 5t9 7q4 0 8 2h7h6t6 -2q6 -2 10 -6l6 -10q-6 -8 -16 -14q-6 -5 -10 -8t-11 -5q-6 -4 -11 -5t-11 -3t-11.5 -3t-11.5 -1q-14 0 -24.5 3t-20.5 5
q-20 10 -35 25q-16 16 -24 35q-2 12 -5 22t-3 23q0 6 1 13t3 15q2 6 4 12.5t6 12.5q6 8 9 13t9 11q7 5 12 9t13 8q4 4 10 6t17 6q4 0 12 1t16 1h11.5t11.5 -2t11 -4t11 -4q7 -2 11 -5t10 -7q10 -9 16 -17l-6 -8l-5 -5t-5 -3h-7h-5h-8t-7 2q-4 4 -9 7t-9 5q-6 2 -10.5 2
h-10.5q-16 0 -28 -6q-9 -2 -14 -6t-9 -8zM2195 207q3 -6 6 -12.5t5 -12.5q2 -8 2 -15v-13v-17t-2 -14t-5 -13.5t-6 -13.5q-8 -10 -16 -22q-8 -4 -14 -9.5t-11 -7.5q-6 -6 -13 -8t-15 -4q-6 -2 -13.5 -3t-15.5 -1q-20 0 -43 8q-8 6 -17 12.5t-16 12.5q-8 8 -14 16t-10 19
q-4 12 -6 22t-2 23q0 6 1 13t1 15q2 6 6 12.5t6 12.5q4 8 8 13t10 11q4 5 10.5 9t12.5 8q4 4 11 6t13 6q9 0 16 1t13 1q8 0 15.5 -1t13.5 -1q8 -4 15 -6t13 -6q5 -4 11 -8t14 -9q2 -6 8 -11t8 -13zM2165 127q4 10 4 27q0 6 -1 13t-3 11q-4 10 -7.5 15.5t-7.5 9.5
q-10 10 -24 14q-6 4 -13.5 5t-15.5 1q-14 0 -26 -6q-7 -2 -12 -6t-11 -8q-4 -4 -8 -9.5t-8 -15.5q-2 -4 -3 -11t-1 -13q0 -9 1 -15t3 -12q8 -16 16 -25q6 -4 11 -8t12 -8q6 -2 14 -4t12 -2q8 0 15.5 2t13.5 4q6 4 13 8t11 8q9 9 15 25zM2433 260l1 1t5 1h39v-219h-39v160
q0 -2 -1 -4l-3 -6v-7t-2 -4q-6 -18 -14.5 -35.5t-14.5 -33.5q-6 -17 -13 -34.5t-13 -35.5h-39l-55 139q-3 2 -3 11q-2 4 -3 5t-1 3v-158h-41v219h39q4 0 6.5 -1l2.5 -1q4 -2 5 -2t3 -2l6 -4l4 -4t2 -4q4 -17 11 -32t14 -34q6 -16 13 -32.5t13 -32.5v-2v-5v-4q4 0 4 -4v4v4
q0 3 1 5l1 2l9 16l45 115q0 2 1 4t1 4q2 2 5 3l3 1q2 2 4 2t4 2z" />
    <glyph glyph-name="nine" unicode="9" horiz-adv-x="2531" 
d="M1929 721q4 -4 8.5 -9t6.5 -10q0 -6 1 -11t1 -11q0 -12 -2 -23q-2 -6 -6.5 -10t-8.5 -6q-4 -4 -8 -7t-8 -7q-12 -4 -23 -4q-6 0 -12 1t-10 3l-10.5 7t-8.5 7q-4 2 -7 6t-3 10q-4 7 -5 12t-1 11q0 10 6 22q0 5 3 10t7 9t8.5 7t10.5 5q8 4 22 4q6 0 10.5 -1t12.5 -3
q4 -2 8 -5t8 -7zM518 702q0 -2 -4 -8q-2 0 -3 -2t-5 -2q-2 -2 -8 -2h-33v47h33q4 0 8 -2q4 0 5 -1l3 -3l4 -8q2 -2 2 -10q0 -6 -2 -9zM801 721q4 -4 8 -9t6 -10q2 -6 3 -11t1 -11t-1 -11t-3 -12q-2 -6 -6 -10t-8 -6q-2 -4 -6 -7t-11 -7q-4 -2 -10 -3t-12 -1q-12 0 -23 4
q-4 4 -9 7t-9 7l-6 6t-6 10q-2 7 -4.5 12t-2.5 11q0 10 7 22q2 5 6 10t6 9q4 4 9 7t9 5q6 2 12.5 3t10.5 1q12 0 22 -4q7 -2 11 -5t6 -7zM1090 733q0 -4 1 -6t1 -4l28 -64h-59l29 64v4v6zM270 729q2 -2 3 -5t3 -5q3 -4 3 -10v-5.5t-3 -5.5q-2 -2 -3 -5t-3 -3l-8 -8h-10h-37
v53h37q6 0 10 -2q2 0 5 -2zM2478 1092v-586h-2404v586h911q0 30 5 58t18 54q12 27 27.5 51.5t37.5 42.5q37 39 90 62q29 12 56.5 17t56.5 5q33 0 61.5 -6t53.5 -18q28 -12 51.5 -28.5t42.5 -35.5q37 -37 61 -94q21 -53 21 -108h911zM1030 1192q-22 -47 -22 -100
q0 -58 22 -105q10 -22 24.5 -44.5t30.5 -41.5q19 -18 40.5 -32.5t45.5 -24.5q48 -23 105 -23q29 0 54.5 4t49.5 15q25 12 45.5 25.5t38.5 33.5q19 19 33 40.5t27 43.5q22 51 22 109q0 22 -4 45.5t-14 44.5q-12 41 -41 75q-14 17 -30.5 31.5t-33.5 24.5q-18 10 -37.5 19
t-39.5 18q-15 4 -32.5 6t-37.5 2q-29 0 -55.5 -5t-51.5 -18q-49 -18 -86 -57q-16 -18 -29.5 -41t-23.5 -45zM295 690q6 10 6 19q0 4 -1 9t-5 11q0 2 -4 6l-6 6q-2 4 -5.5 7.5t-9.5 3.5q-4 2 -9 4t-9 2h-53v-154h16v58h37q4 0 9 1t9 3q11 4 15 8q2 4 6 8t4 8zM410 758h-95
v-154h95v19h-72v47h59v20h-59v45h72v23zM559 604l-47 66q2 2 5 2t5 4q8 4 10 10q3 2 5 5t4 7v13v10t-2 8q-4 8 -11 14q-4 9 -14 9q-2 2 -7 4t-9 2h-56v-154h23v64h22l41 -56q2 -4 7 -6q2 -2 4 -2h6h14zM664 631q0 4 1 8t1 8q0 12 -4.5 20.5t-12.5 14.5q-2 0 -3 2t-5 4h-1
t-5 2h-2t-2 4q-6 0 -8 2q-7 0 -9 1l-6 3q-8 2 -8 5q-6 4 -6 6v8v8q2 0 4 2t2 4l3 1t5 1q4 2 6 2h4l2.5 -1t4.5 -1q8 0 8 -4q2 -2 4 -2h4q8 0 14 4l4 2q0 2 -2 4l-4 4q-4 2 -6 4.5t-6 4.5q-2 0 -4 1t-6 5q-6 0 -7 1t-6 1q-4 0 -9 -1t-9 -1q-4 -4 -7 -6t-7 -2q-2 -5 -5 -8
t-6 -7q-2 -4 -3 -7t-1 -9v-9t4 -8q3 -4 6 -7t3 -5q4 -2 8 -5t8 -3q4 -2 7 -4t7 -4q2 -2 5.5 -2h5.5q6 -2 7 -2t3 -2q4 -2 4 -3t2 -6q2 -2 2 -5v-7v-3t-2 -5q-2 -4 -2 -5t-4 -3q-2 -4 -5 -5t-5 -3h-5.5h-5.5h-7h-5q-2 2 -5 3t-3 5l-2 2q-6 4 -12 4h-4.5t-4.5 -2l-6 -2
q0 -4 2 -4q0 -4 4 -6q0 -2 2 -5l2 -2h3q8 -8 17 -10t19 -2h9.5t9.5 2t9 4t7 6q6 2 9.5 5.5t5.5 9.5zM838 659q2 7 2 11v10q0 12 -2 20q0 7 -3.5 11t-5.5 10q-4 6 -12 14q-4 4 -8 6t-10 9q-2 0 -6.5 2t-10.5 6q-6 0 -10 1t-10 1q-4 0 -10.5 -1t-10.5 -1q-6 -4 -10 -6t-8 -2
q-4 -7 -8 -9t-8 -6q-5 -4 -8 -7t-5 -7q-4 -6 -5 -10t-3 -11q-2 -8 -2 -20q0 -8 2 -15.5t4 -15.5q2 -6 6 -12t11 -14q6 -5 12 -9t14 -4q12 -6 29 -6h10h10q11 4 17 8q14 6 18 11q6 8 12 18q2 4 5.5 9t3.5 9zM997 758h-20v-119q0 2 -1 5l-1 3l-74 105q-4 0 -8 6h-4h-4h-15
v-154h21v129v-4l2 -2v0v-4l88 -119h16v154zM1169 604l-67 154h-23l-65 -154h12q6 0 8 2l3 3t5 3l9 27h79l11 -27q2 -4 6 -6q0 -2 8 -2h14zM1270 623h-66v135h-22v-154h88v19zM1479 758h-21v-92v-11t-2 -8q-2 -8 -10 -12q-2 -2 -5 -4t-5 -6q-6 -2 -9.5 -2h-7.5q-10 0 -14 2
q-6 4 -10 6t-4 4q-2 2 -4.5 5t-6.5 7q0 4 -1 8t-1 11v92h-20v-92v-12t2 -7q0 -8 4 -14q4 -10 12 -15q2 -2 5 -4t8 -4q2 -2 6 -3t6 -3q6 0 9 -2t9 -2q4 0 7.5 2t9.5 2q4 2 7 3t7 3l12 8q4 5 5 8t3 7q3 2 6 6t3 8v19v92zM1597 631q7 8 7 16q0 12 -4.5 20.5t-12.5 14.5
q-6 4 -6 6h-5t-5 2h-3t-5 4h-2t-5 2q-2 0 -4 1l-6 3q-8 2 -8 5q-4 2 -5 4t-3 2q0 2 -1 3t-1 5t4 8l6 6q2 0 3 1t5 1q0 2 10 2l2.5 -1t4.5 -1q2 -2 8 -4q8 -2 10 -2q6 0 8 4l6 2l-4 4l-4 4q0 2 -3 4.5t-5 4.5q-4 0 -6 1t-6 5q-4 0 -7.5 1l-3.5 1q-6 0 -10 -1t-8 -1
q-4 -4 -8 -6t-6 -2q-4 -5 -6 -8t-7 -7q0 -4 -2 -7t-2 -9t2 -9t2 -8q5 -8 11 -12q4 -2 7 -5t5 -3q6 -2 9 -4t7 -4t6.5 -2h4.5q2 -2 5 -2t5 -2t5 -3t3 -6q2 -2 2 -5v-7v-3t-2 -5q-2 -6 -8 -8q-4 -4 -6 -5t-4 -3h-6h-5h-7h-5q-4 2 -10 8v2q-6 4 -12 4h-3.5t-5.5 -2l-6 -2
q2 -2 2 -3t2 -1q0 -2 1 -3t1 -3l1 -1t1 -4q4 -2 7 -2q6 -8 15 -10t19 -2h10.5t10.5 2l8 4t8 6q2 2 5 5.5t5 9.5zM1722 758h-94v-154h94v19h-73v47h61v20h-61v45h73v23zM1966 659v11v10v11v9q-4 11 -10 21q-4 6 -12 14q-2 4 -6.5 6t-8.5 9q-4 0 -9 2t-9 6q-6 0 -10.5 1
t-10.5 1t-11 -1t-9 -1q-12 -6 -21 -8q-4 -7 -7 -9t-7 -6l-7 -7l-7 -7q-2 -6 -4 -10t-2 -11q-5 -8 -5 -20q0 -8 2.5 -15.5t4.5 -15.5q6 -14 18 -26q4 -5 10 -9t15 -4q12 -6 30 -6h10.5h10.5q4 2 9 4t9 4q4 4 8.5 6.5t6.5 4.5q8 8 12 18q6 8 10 18zM2126 758h-23v-119
q0 2 -1 5t-3 3l-74 105l-1 1t-3 5h-5h-5h-16v-154h24v129v-4v-2v-2l2 -2l86 -119h19v154zM2251 623h-66v135h-22v-154h88v19zM2374 758h-19q-4 0 -8 -4q-8 -4 -8 -9l-35 -47l-2 -2h-2v-2v2l-2 2l-37 47q-2 5 -6 9t-10 4h-17l56 -76l2 -2q0 -2 2 -2v-2v-2q0 -2 2 -2v-2v-66
h22v66v2v4q2 0 2 4v2h2zM1188 864q-19 8 -38.5 19.5t-33.5 25.5h322q-17 -14 -35.5 -25.5t-38.5 -19.5q-21 -6 -43.5 -12t-44.5 -6q-25 0 -46.5 6t-41.5 12zM1141 936l315 317q29 -39 45.5 -79.5t16.5 -81.5q0 -23 -3.5 -44.5t-11.5 -41.5q-8 -19 -18 -36.5t-23 -33.5h-321z
M1094 928q-27 35 -45 73q-7 21 -11 43.5t-4 47.5q0 20 4 40.5t11 41.5q6 18 16 35.5t25 33.5h319zM1364 1315q20 -8 38.5 -20.5t33.5 -22.5h-324q37 28 76 43q39 18 88 18t88 -18zM78 350q-4 4 -5 8t-3 9q-2 6 -3 10t-1 10t4 16q2 5 3 10t5 7l3 9t7 7q0 2 5 5t7 5q6 5 9.5 6
t9.5 3q2 0 8 1t10 1q8 0 14.5 -1t14.5 -5q8 -2 13 -6.5t9 -8.5q-2 -2 -4 -2v-4h-2h-2h-4h-6q-4 2 -8 5t-8 3h-7.5h-9.5h-10h-8q-8 -4 -12.5 -7t-8.5 -5q-4 -6 -7 -10t-5 -8q-4 -7 -4 -13v-8q0 -8 2 -14t3 -9.5t1 -7.5q2 -2 5 -4t5 -6q4 -2 6 -5t7 -3q2 -2 6 -4t8 -2
q2 -2 6 -2h6h10.5t8.5 2q4 0 9 2t9 4v29h-12h-2l-2 2l-3 3l-3 3l-1 1t-1 3v1v3v0h38v-53l-5 -5t-5 -6q-6 -2 -12 -2q-6 -2 -14 -2h-15h-10h-8q-6 2 -9.5 4.5t-9.5 6.5q-2 0 -7 3t-5 7q-6 2 -7 6t-3 8zM240 438v-45h55v-14h-55v-47h67v-17h-84v140h84v-17h-67zM369 315v123
h-45v17h106v-17h-47v-123h-14zM532 438v-49h60v-12h-60v-62h-16v140h84v-17h-68zM641 455v-86q0 -4 2 -7.5t4 -5.5q2 -6 5 -9t5 -7q0 -2 3.5 -4t5.5 -4q6 -2 10 -2h8h7t5 2q6 2 9.5 4t7.5 4q0 4 3 7t5 9q4 4 4 13v86h14v-86q0 -7 -1 -11t-3 -10t-5 -10t-7 -8t-8 -7.5
t-8 -5.5q-13 -2 -23 -2q-12 0 -25 2q-2 2 -7 5.5t-9 7.5q-6 6 -10 18q-2 6 -4 10t-2 11v86h14zM784 455v-123h62v-17h-78v140h16zM877 455v-123h65v-17h-80v140h15zM1069 315l-61 140h8q4 0 8 -2q2 -2 3 -2t3 -5l43 -104v-4q2 -2 2 -6v6l1 2l1 2q6 14 12.5 26.5t12.5 24.5
q4 17 10 29l12 24q0 5 2 5t2 2q2 2 3.5 2h5.5h8q-8 -17 -15.5 -34.5t-17.5 -33.5q-6 -20 -13 -36.5t-16 -35.5h-14zM1171 438v-45h58v-14h-58v-47h68v-17h-84v140h84v-17h-68zM1341 381q-2 -2 -10 -4l47 -62h-10q-2 0 -5 1l-3 1q-2 2 -4 3.5t-4 5.5l-39 51h-25v-62h-14v140
h51h5t7 -2q9 -2 15 -9q2 -4 4 -7t4 -7q2 -2 2 -7v-5v-9t-2 -6q0 -4 -2 -8t-4 -6l-4 -4t-9 -4zM1325 389q4 0 6 4q2 0 4 1t4 1l3 6t4 5q0 2 1 4t1 8l-1 2t-1 6q-3 2 -4 3t-3 5q-2 0 -4 1t-4 3h-6h-37v-49h37zM1452 336q2 2 4 8q2 2 3 6t1 6q0 6 -2 11q-2 0 -3 3t-3 5t-8 4
q-4 0 -6 1l-6 3q-5 0 -9 2t-4 4q-10 0 -14 6q-4 0 -5 4t-3 7v14v9t2 7q0 6 8 10q4 5 6 6t8 3q4 0 6.5 1t8.5 1q2 0 5 -1t5 -1t4 -1l6 -3q2 0 4 -2.5t2 -4.5q4 -2 5 -4t3 -2l-4 -2q-2 -2 -8 -2h-6q-4 2 -4 4h-2h-2h-2h-3h-1h-2h-9q-8 0 -8 -2q-6 -6 -6 -8q-4 0 -4 -8
q0 -6 4 -6q0 -4 2 -6t5 -3.5l3 -1.5q4 -4 6.5 -4t8.5 -4h3t3 -2h4t4 -4h2h1h1q2 0 4 -1l2 -1q4 -4 6 -7t7 -5q2 -10 2 -19v-10t-7 -8q0 -6 -8 -12q-2 -2 -6 -4.5t-8 -4.5t-8 -2h-10q-11 0 -18 2t-13 9q-2 0 -4 2l-4 4q0 2 -1 4l-1 2l2 2l1 1t5 1h2q2 0 4 -1t4 -3q4 -2 6 -4
t6 -2q0 -2 4 -2h7q8 0 10 2q8 0 12 4zM1524 455v-140h-17v140h17zM1579 336q-12 8 -18 20q-5 15 -5 31v7v9q7 11 9 17q6 8 14 16q6 6 12 10q4 5 9.5 6t9.5 3q4 0 8 1t10 1q4 0 9 -1t12 -1q4 -2 8 -3t8 -6l5 -5t7 -5q4 -4 6.5 -7t6.5 -9q2 -6 6 -17q2 -4 3 -9t1 -7
q0 -8 -2 -15t-6 -16q-2 -6 -5.5 -11t-9.5 -9q-6 -6 -11 -9t-11 -8q-10 -4 -27 -4q-8 0 -15 1t-11 3q-17 5 -23 17zM1579 408q-4 -7 -6 -13t-2 -8q0 -4 1 -8t1 -6q2 -8 8 -17q0 -2 2 -4t4 -6l5 -5t10 -3q2 -2 5 -4t5 -2q4 -2 8 -2h8h7t7 2q3 0 7 2l8 4q2 0 5 3l5 5q2 4 4 6
l4 4q2 4 3 7.5t3 9.5q0 2 1 6t1 8q0 2 -1 8t-5 13q0 4 -4 8t-6 10q-4 2 -8 5t-10 7h-9.5h-11.5h-12h-10q-4 -4 -9.5 -7t-9.5 -5q-2 -6 -5 -10t-3 -8zM1741 315h-17v140h13h5t5 -4l72 -103q2 0 2 -4l2 -2v-2v115h16v-140h-14l-82 115v4h-2v4v-123zM1956 438v-49h57v-12h-57
v-62h-14v140h83v-17h-69zM2114 381q-9 -2 -13 -4l45 -62h-12q-4 0 -8 2q0 2 -1 3.5t-3 5.5l-39 51h-25v-62h-16v140h51h6t8 -2t7.5 -4.5t5.5 -4.5q2 -4 4 -7t6 -7q0 -2 1 -7l1 -5q0 -6 -1 -9t-1 -6l-4 -8t-2 -6zM2101 393q2 0 3 1t3 1q7 8 7 11q2 4 2 12q0 2 -2 8q0 2 -7 8
q-2 0 -3 1l-3 3h-8h-35v-49h35q4 0 8 4zM2281 336q-4 -6 -10 -9t-12 -8q-6 -2 -12 -3t-15 -1q-8 0 -15 1t-13 3q-13 5 -23 17q-4 4 -8 9t-6 11q-2 9 -5 16t-3 15q0 2 1 7t3 9q2 5 3 10t3 7q4 6 7 9t5 7q4 2 8 5t9 5q4 5 8 6t8 3q6 0 9 1t9 1q4 0 9.5 -1t9.5 -1l9 -3t7 -6
q4 -2 8 -5t6 -5q3 -4 6 -7t5 -9q6 -6 8 -17q2 -4 3 -9t1 -7q0 -8 -1 -15t-5 -16q-2 -6 -6 -11t-11 -9zM2232 330h7.5t9.5 2q2 0 5 2t5 4q2 0 6 3t8 5l3 6t3 4q2 4 3.5 7.5t1.5 9.5q2 2 2 6v8q0 2 -1 8t-1 13l-6 8t-5 10q-6 2 -11 5t-9 7h-10.5h-10.5h-11h-11q-6 -4 -9 -7
t-8 -5q-6 -6 -8 -10l-4 -8q-2 -7 -2 -13v-8v-14q0 -6 1 -9.5t5 -7.5q0 -2 3 -4t5 -6q2 -2 5.5 -5t5.5 -3q2 -2 5 -4t9 -2q2 -2 6 -2h8zM2460 453q2 2 3 2h3h12v-140h-14v115l-2 -2v0v-2q-4 -8 -6 -17.5t-7 -15.5q-4 -6 -7 -12l-7 -14q-2 -9 -4 -15l-4 -12q-4 -6 -7 -11
t-5 -14h-15q-10 13 -15 27t-11 27q-4 14 -11.5 28.5t-11.5 28.5v2l-4 2v-115h-16v140h14q6 0 8 -2l2 -2v-5l49 -108q0 -2 2 -2v-4q0 2 1 4t1 4q0 4 5 8l43 98q0 5 1 5t3 2zM74 262h157v-20v-4v-5q0 -4 -2 -6l-4 -4l-106 -145h2v2h4h2h104v-37h-165v12q0 11 2 13q0 2 4 8
q2 2 2 4t2 4t3 4l3 6l94 129h-102v39zM260 262h139v-39h-100v-49h80v-41h-80v-53h100v-37h-139v219zM571 223h-59v-180h-43v180h-63v39h165v-39zM672 262l94 -219h-25q-8 0 -16 4q-4 2 -5 6t-5 8l-13 29h-100l-10 -29q-2 -4 -3 -5t-3 -1q0 -4 -1 -5t-5 -3q-2 0 -4.5 -1
t-4.5 -1q0 -2 -2 -2h-4h-24l94 219h37zM684 129l-27 68q0 2 -1 3t-1 3q0 4 -2 6v-6q0 -2 -2 -3t-2 -3l-26 -68h61zM774 262h139v-39h-100v-55h82v-39h-82v-86h-39v219zM1133 207q4 -6 6 -12.5t6 -12.5q2 -8 2 -15v-13v-17t-2 -14q-4 -6 -6 -13.5t-6 -13.5q-5 -4 -9 -10
l-8 -12q-8 -4 -12 -9.5t-10 -7.5q-7 -6 -14 -8t-13 -4q-8 -2 -15.5 -3t-15.5 -1q-10 0 -21 3t-22 5q-12 6 -19 12.5t-18 12.5q-14 16 -20 35q-6 12 -8 22t-2 23q0 6 1 13t3 15q4 17 12 25q4 8 7 13t7 11q9 5 14 9t11 8t12 6t15 6q6 0 13 1t15 1t15.5 -1t15.5 -1q6 -4 13 -6
t14 -6q6 -4 10 -8t12 -9q4 -6 8 -11t9 -13zM1104 127q2 6 3 12t1 15q0 12 -4 24q-4 10 -8 15.5t-11 9.5q-4 4 -9 8t-11 6q-12 6 -29 6q-16 0 -28 -6q-4 -2 -9.5 -6t-11.5 -8t-9 -9.5t-7 -15.5q-4 -4 -4 -11v-13v-15t4 -12q4 -8 7 -14.5t9 -10.5t11.5 -8t9.5 -8q8 -2 14 -4
t14 -2t14.5 2t14.5 4q6 4 11 8t9 8q7 4 11 10.5t8 14.5zM1329 262h39v-219h-37l-102 147q-2 0 -2 1.5t-2 3.5q-2 4 -2 6q-4 0 -4 4l-1 1t-4 3v-166h-38v219h34q4 0 8.5 -1t4.5 -3l6 -3t4 -3q10 -16 21.5 -31.5t21.5 -34.5q12 -14 23.5 -29.5t25.5 -29.5q0 -4 1 -6t1 -6
q0 -2 1 -4t1 -5v156zM1389 262h165v-39h-65v-180h-39v180h-61v39zM1690 150q2 -5 5 -9t5 -8q0 -4 2 -9t2 -13q0 -13 -6 -27l-8 -12t-9 -11q-8 -4 -12 -8t-12 -6t-15.5 -4t-13.5 -2q-8 0 -15 2t-18 4q-6 2 -11 6t-13 13q-4 2 -6 5t-4 7q-5 2 -5 12l1.5 1t3.5 3q2 0 2 1t2 1
t4 1l2 1h10h3t3 -2q6 0 10 -2q5 -4 9 -6t6 -4q2 0 6 -2t10 -2q2 0 5 1t7 3q7 2 13 6l8 8q2 4 4 6t2 7q0 8 -6 12q-4 6 -8 6q-4 4 -7.5 5t-5.5 1q-6 2 -16 8q-4 0 -9 1t-9 6q-9 2 -13 5t-8 7q-6 4 -9 8t-5 8q-6 12 -6 25q0 18 6 26q2 7 6 11t10 8q4 4 9.5 6t13.5 6q4 0 10 1
t14 1q4 0 8.5 -1t10.5 -1q4 -2 7 -4t9 -4q2 -2 6 -5t8 -7q3 -2 6 -5.5t5 -7.5l-8 -4l-6 -4t-3 -4h-8h-4h-4h-2q-6 0 -6 2l-8 4q-3 0 -4 1l-1 1h-6h-12q-4 0 -5 -1t-5 -3q-2 -2 -4 -8q-2 -2 -2 -8t2 -6q2 -2 3 -4.5t1 -6.5q4 0 7 -1t5 -1q6 -2 11 -4t7 -4l11 -2q4 -4 9 -5
t11 -7q10 -2 17 -12zM1755 80q6 0 6 -6q2 0 2 -3v-5q0 -7 -2 -11q0 -4 -6 -8q-4 0 -6 -4q-2 0 -4 -1t-6 -1q-2 0 -4 1t-4 1q-2 2 -4.5 3t-4.5 1q-2 2 -3 4t-3 4q-2 4 -2 11v5t2 3q2 4 3 5t3 1q7 6 9 6q2 2 4 3t4 1q4 0 6 -1t4 -3q2 0 6 -6zM1839 203q-8 -8 -16 -25
q-2 -4 -4 -11t-2 -13q0 -9 2 -15l4 -12q4 -8 7 -14.5t9 -10.5q4 -4 9 -8t14 -8q8 -2 14 -4t14 -2q6 0 10.5 2t10.5 2q4 2 9 5t9 7q4 0 8 2h7h6t6 -2q6 -2 10 -6l6 -10q-6 -8 -16 -14q-6 -5 -10 -8t-11 -5q-6 -4 -11 -5t-11 -3t-11.5 -3t-11.5 -1q-14 0 -24.5 3t-20.5 5
q-20 10 -35 25q-16 16 -24 35q-2 12 -5 22t-3 23q0 6 1 13t3 15q2 6 4 12.5t6 12.5q6 8 9 13t9 11q7 5 12 9t13 8q4 4 10 6t17 6q4 0 12 1t16 1h11.5t11.5 -2t11 -4t11 -4q7 -2 11 -5t10 -7q10 -9 16 -17l-6 -8l-5 -5t-5 -3h-7h-5h-8t-7 2q-4 4 -9 7t-9 5q-6 2 -10.5 2
h-10.5q-16 0 -28 -6q-9 -2 -14 -6t-9 -8zM2195 207q3 -6 6 -12.5t5 -12.5q2 -8 2 -15v-13v-17t-2 -14t-5 -13.5t-6 -13.5q-8 -10 -16 -22q-8 -4 -14 -9.5t-11 -7.5q-6 -6 -13 -8t-15 -4q-6 -2 -13.5 -3t-15.5 -1q-20 0 -43 8q-8 6 -17 12.5t-16 12.5q-8 8 -14 16t-10 19
q-4 12 -6 22t-2 23q0 6 1 13t1 15q2 6 6 12.5t6 12.5q4 8 8 13t10 11q4 5 10.5 9t12.5 8q4 4 11 6t13 6q9 0 16 1t13 1q8 0 15.5 -1t13.5 -1q8 -4 15 -6t13 -6q5 -4 11 -8t14 -9q2 -6 8 -11t8 -13zM2165 127q4 10 4 27q0 6 -1 13t-3 11q-4 10 -7.5 15.5t-7.5 9.5
q-10 10 -24 14q-6 4 -13.5 5t-15.5 1q-14 0 -26 -6q-7 -2 -12 -6t-11 -8q-4 -4 -8 -9.5t-8 -15.5q-2 -4 -3 -11t-1 -13q0 -9 1 -15t3 -12q8 -16 16 -25q6 -4 11 -8t12 -8q6 -2 14 -4t12 -2q8 0 15.5 2t13.5 4q6 4 13 8t11 8q9 9 15 25zM2433 260l1 1t5 1h39v-219h-39v160
q0 -2 -1 -4l-3 -6v-7t-2 -4q-6 -18 -14.5 -35.5t-14.5 -33.5q-6 -17 -13 -34.5t-13 -35.5h-39l-55 139q-3 2 -3 11q-2 4 -3 5t-1 3v-158h-41v219h39q4 0 6.5 -1l2.5 -1q4 -2 5 -2t3 -2l6 -4l4 -4t2 -4q4 -17 11 -32t14 -34q6 -16 13 -32.5t13 -32.5v-2v-5v-4q4 0 4 -4v4v4
q0 3 1 5l1 2l9 16l45 115q0 2 1 4t1 4q2 2 5 3l3 1q2 2 4 2t4 2z" />
    <glyph glyph-name="colon" unicode=":" horiz-adv-x="611" 
d="M89 841q16 37 44 65t65.5 43.5t77.5 15.5q39 0 75.5 -15.5t66.5 -43.5q28 -28 43.5 -65.5t15.5 -77.5t-15.5 -77.5t-43.5 -65.5t-65.5 -44t-76.5 -16q-41 0 -78 16t-65 44t-44 65t-16 78t16 78zM89 267.5q16 37.5 44 65.5t65 44t78 16q39 0 76.5 -16t65.5 -44
q28 -30 43.5 -66.5t15.5 -75.5q0 -41 -15.5 -77.5t-43.5 -64.5t-65.5 -44t-76.5 -16q-41 0 -78 16t-65 44t-44 65t-16 77q0 39 16 76.5z" />
    <glyph glyph-name="semicolon" unicode=";" horiz-adv-x="611" 
d="M89 841q16 37 44 65t65.5 43.5t77.5 15.5q39 0 75.5 -15.5t66.5 -43.5q28 -28 43.5 -65.5t15.5 -77.5t-15.5 -77.5t-43.5 -65.5t-65.5 -44t-76.5 -16q-41 0 -78 16t-65 44t-44 65t-16 78t16 78zM87 215.5q14 34.5 39 59.5t58.5 39.5t69.5 14.5q75 0 126 -54
q23 -25 35.5 -59t12.5 -73v-199q0 -77 -48 -131q-49 -55 -126 -55q-38 0 -71 14.5t-57 40.5q-53 56 -53 131v199q0 38 14 72.5z" />
    <glyph glyph-name="less" unicode="&#x3c;" horiz-adv-x="794" 
d="M33.5 551q-27.5 39 -27.5 84q0 42 24.5 78.5t66.5 53.5l454 233q37 17 68 17q26 0 51.5 -10.5t46.5 -29.5q45 -42 45 -105q0 -38 -19.5 -71.5t-53.5 -51.5l-228 -116l223 -117q36 -17 56.5 -51t20.5 -74q0 -32 -11.5 -59.5t-32.5 -46.5q-20 -19 -45.5 -29t-51.5 -10
q-35 0 -66 16l-449 236q-44 14 -71.5 53z" />
    <glyph glyph-name="equal" unicode="=" horiz-adv-x="920" 
d="M767.5 912q33.5 -14 58.5 -38q24 -24 38 -57t14 -68q0 -36 -14 -69.5t-38 -57.5q-25 -25 -58.5 -39.5t-69.5 -14.5h-461q-35 0 -67.5 14.5t-57.5 39.5q-24 25 -37.5 58.5t-13.5 71.5q0 36 13.5 68t37.5 56t56.5 37t68.5 13h461q36 0 69.5 -14zM767.5 437.5
q33.5 -13.5 58.5 -37.5q24 -24 38 -57t14 -69t-14 -69t-38 -57q-25 -25 -58.5 -39.5t-69.5 -14.5h-461q-35 0 -67.5 14.5t-57.5 39.5q-24 24 -37.5 57.5t-13.5 71.5q0 36 13.5 68t37.5 56t56.5 37t68.5 13h461q36 0 69.5 -13.5z" />
    <glyph glyph-name="greater" unicode="&#x3e;" horiz-adv-x="842" 
d="M167 246q-53 0 -96 40q-21 19 -33 46t-12 59q0 41 20.5 74.5t57.5 50.5l222 117l-227 116q-34 18 -53.5 51.5t-19.5 71.5q0 32 12 59t34 46q43 40 96 40q29 0 68 -17l454 -233q42 -18 66.5 -53.5t24.5 -77.5q0 -45 -27 -83.5t-71 -54.5l-450 -236q-31 -16 -66 -16z" />
    <glyph glyph-name="question" unicode="?" horiz-adv-x="856" 
d="M50.5 1063q35.5 77 96.5 135q62 58 140.5 90t163.5 32q86 0 166 -33.5t141 -93.5q62 -62 96 -141t34 -166q0 -80 -31 -154t-88 -132q-55 -57 -128 -93t-154 -44q-15 -48 -52.5 -80.5t-88.5 -39.5q31 -5 59 -20.5t49 -38.5q21 -24 32.5 -54t11.5 -62q0 -35 -14 -67.5
t-39 -57.5q-24 -25 -57 -39.5t-68 -14.5q-36 0 -69 14.5t-58 39.5q-24 24 -37.5 56.5t-13.5 68.5q0 68 42.5 116.5t110.5 59.5q-69 11 -111.5 60.5t-42.5 118.5v116q0 37 15 70q-61 13 -102.5 63.5t-41.5 113.5v15q3 85 38.5 162zM355 817h95q28 0 55.5 21t27.5 48
q0 31 -21.5 55t-59.5 24q-33 0 -59 -23t-26 -56q0 -37 -12 -69z" />
    <glyph glyph-name="at" unicode="@" horiz-adv-x="2531" 
d="M1929 721q4 -4 8.5 -9t6.5 -10q0 -6 1 -11t1 -11q0 -12 -2 -23q-2 -6 -6.5 -10t-8.5 -6q-4 -4 -8 -7t-8 -7q-12 -4 -23 -4q-6 0 -12 1t-10 3l-10.5 7t-8.5 7q-4 2 -7 6t-3 10q-4 7 -5 12t-1 11q0 10 6 22q0 5 3 10t7 9t8.5 7t10.5 5q8 4 22 4q6 0 10.5 -1t12.5 -3
q4 -2 8 -5t8 -7zM518 702q0 -2 -4 -8q-2 0 -3 -2t-5 -2q-2 -2 -8 -2h-33v47h33q4 0 8 -2q4 0 5 -1l3 -3l4 -8q2 -2 2 -10q0 -6 -2 -9zM801 721q4 -4 8 -9t6 -10q2 -6 3 -11t1 -11t-1 -11t-3 -12q-2 -6 -6 -10t-8 -6q-2 -4 -6 -7t-11 -7q-4 -2 -10 -3t-12 -1q-12 0 -23 4
q-4 4 -9 7t-9 7l-6 6t-6 10q-2 7 -4.5 12t-2.5 11q0 10 7 22q2 5 6 10t6 9q4 4 9 7t9 5q6 2 12.5 3t10.5 1q12 0 22 -4q7 -2 11 -5t6 -7zM1090 733q0 -4 1 -6t1 -4l28 -64h-59l29 64v4v6zM270 729q2 -2 3 -5t3 -5q3 -4 3 -10v-5.5t-3 -5.5q-2 -2 -3 -5t-3 -3l-8 -8h-10h-37
v53h37q6 0 10 -2q2 0 5 -2zM2478 1092v-586h-2404v586h911q0 30 5 58t18 54q12 27 27.5 51.5t37.5 42.5q37 39 90 62q29 12 56.5 17t56.5 5q33 0 61.5 -6t53.5 -18q28 -12 51.5 -28.5t42.5 -35.5q37 -37 61 -94q21 -53 21 -108h911zM1030 1192q-22 -47 -22 -100
q0 -58 22 -105q10 -22 24.5 -44.5t30.5 -41.5q19 -18 40.5 -32.5t45.5 -24.5q48 -23 105 -23q29 0 54.5 4t49.5 15q25 12 45.5 25.5t38.5 33.5q19 19 33 40.5t27 43.5q22 51 22 109q0 22 -4 45.5t-14 44.5q-12 41 -41 75q-14 17 -30.5 31.5t-33.5 24.5q-18 10 -37.5 19
t-39.5 18q-15 4 -32.5 6t-37.5 2q-29 0 -55.5 -5t-51.5 -18q-49 -18 -86 -57q-16 -18 -29.5 -41t-23.5 -45zM295 690q6 10 6 19q0 4 -1 9t-5 11q0 2 -4 6l-6 6q-2 4 -5.5 7.5t-9.5 3.5q-4 2 -9 4t-9 2h-53v-154h16v58h37q4 0 9 1t9 3q11 4 15 8q2 4 6 8t4 8zM410 758h-95
v-154h95v19h-72v47h59v20h-59v45h72v23zM559 604l-47 66q2 2 5 2t5 4q8 4 10 10q3 2 5 5t4 7v13v10t-2 8q-4 8 -11 14q-4 9 -14 9q-2 2 -7 4t-9 2h-56v-154h23v64h22l41 -56q2 -4 7 -6q2 -2 4 -2h6h14zM664 631q0 4 1 8t1 8q0 12 -4.5 20.5t-12.5 14.5q-2 0 -3 2t-5 4h-1
t-5 2h-2t-2 4q-6 0 -8 2q-7 0 -9 1l-6 3q-8 2 -8 5q-6 4 -6 6v8v8q2 0 4 2t2 4l3 1t5 1q4 2 6 2h4l2.5 -1t4.5 -1q8 0 8 -4q2 -2 4 -2h4q8 0 14 4l4 2q0 2 -2 4l-4 4q-4 2 -6 4.5t-6 4.5q-2 0 -4 1t-6 5q-6 0 -7 1t-6 1q-4 0 -9 -1t-9 -1q-4 -4 -7 -6t-7 -2q-2 -5 -5 -8
t-6 -7q-2 -4 -3 -7t-1 -9v-9t4 -8q3 -4 6 -7t3 -5q4 -2 8 -5t8 -3q4 -2 7 -4t7 -4q2 -2 5.5 -2h5.5q6 -2 7 -2t3 -2q4 -2 4 -3t2 -6q2 -2 2 -5v-7v-3t-2 -5q-2 -4 -2 -5t-4 -3q-2 -4 -5 -5t-5 -3h-5.5h-5.5h-7h-5q-2 2 -5 3t-3 5l-2 2q-6 4 -12 4h-4.5t-4.5 -2l-6 -2
q0 -4 2 -4q0 -4 4 -6q0 -2 2 -5l2 -2h3q8 -8 17 -10t19 -2h9.5t9.5 2t9 4t7 6q6 2 9.5 5.5t5.5 9.5zM838 659q2 7 2 11v10q0 12 -2 20q0 7 -3.5 11t-5.5 10q-4 6 -12 14q-4 4 -8 6t-10 9q-2 0 -6.5 2t-10.5 6q-6 0 -10 1t-10 1q-4 0 -10.5 -1t-10.5 -1q-6 -4 -10 -6t-8 -2
q-4 -7 -8 -9t-8 -6q-5 -4 -8 -7t-5 -7q-4 -6 -5 -10t-3 -11q-2 -8 -2 -20q0 -8 2 -15.5t4 -15.5q2 -6 6 -12t11 -14q6 -5 12 -9t14 -4q12 -6 29 -6h10h10q11 4 17 8q14 6 18 11q6 8 12 18q2 4 5.5 9t3.5 9zM997 758h-20v-119q0 2 -1 5l-1 3l-74 105q-4 0 -8 6h-4h-4h-15
v-154h21v129v-4l2 -2v0v-4l88 -119h16v154zM1169 604l-67 154h-23l-65 -154h12q6 0 8 2l3 3t5 3l9 27h79l11 -27q2 -4 6 -6q0 -2 8 -2h14zM1270 623h-66v135h-22v-154h88v19zM1479 758h-21v-92v-11t-2 -8q-2 -8 -10 -12q-2 -2 -5 -4t-5 -6q-6 -2 -9.5 -2h-7.5q-10 0 -14 2
q-6 4 -10 6t-4 4q-2 2 -4.5 5t-6.5 7q0 4 -1 8t-1 11v92h-20v-92v-12t2 -7q0 -8 4 -14q4 -10 12 -15q2 -2 5 -4t8 -4q2 -2 6 -3t6 -3q6 0 9 -2t9 -2q4 0 7.5 2t9.5 2q4 2 7 3t7 3l12 8q4 5 5 8t3 7q3 2 6 6t3 8v19v92zM1597 631q7 8 7 16q0 12 -4.5 20.5t-12.5 14.5
q-6 4 -6 6h-5t-5 2h-3t-5 4h-2t-5 2q-2 0 -4 1l-6 3q-8 2 -8 5q-4 2 -5 4t-3 2q0 2 -1 3t-1 5t4 8l6 6q2 0 3 1t5 1q0 2 10 2l2.5 -1t4.5 -1q2 -2 8 -4q8 -2 10 -2q6 0 8 4l6 2l-4 4l-4 4q0 2 -3 4.5t-5 4.5q-4 0 -6 1t-6 5q-4 0 -7.5 1l-3.5 1q-6 0 -10 -1t-8 -1
q-4 -4 -8 -6t-6 -2q-4 -5 -6 -8t-7 -7q0 -4 -2 -7t-2 -9t2 -9t2 -8q5 -8 11 -12q4 -2 7 -5t5 -3q6 -2 9 -4t7 -4t6.5 -2h4.5q2 -2 5 -2t5 -2t5 -3t3 -6q2 -2 2 -5v-7v-3t-2 -5q-2 -6 -8 -8q-4 -4 -6 -5t-4 -3h-6h-5h-7h-5q-4 2 -10 8v2q-6 4 -12 4h-3.5t-5.5 -2l-6 -2
q2 -2 2 -3t2 -1q0 -2 1 -3t1 -3l1 -1t1 -4q4 -2 7 -2q6 -8 15 -10t19 -2h10.5t10.5 2l8 4t8 6q2 2 5 5.5t5 9.5zM1722 758h-94v-154h94v19h-73v47h61v20h-61v45h73v23zM1966 659v11v10v11v9q-4 11 -10 21q-4 6 -12 14q-2 4 -6.5 6t-8.5 9q-4 0 -9 2t-9 6q-6 0 -10.5 1
t-10.5 1t-11 -1t-9 -1q-12 -6 -21 -8q-4 -7 -7 -9t-7 -6l-7 -7l-7 -7q-2 -6 -4 -10t-2 -11q-5 -8 -5 -20q0 -8 2.5 -15.5t4.5 -15.5q6 -14 18 -26q4 -5 10 -9t15 -4q12 -6 30 -6h10.5h10.5q4 2 9 4t9 4q4 4 8.5 6.5t6.5 4.5q8 8 12 18q6 8 10 18zM2126 758h-23v-119
q0 2 -1 5t-3 3l-74 105l-1 1t-3 5h-5h-5h-16v-154h24v129v-4v-2v-2l2 -2l86 -119h19v154zM2251 623h-66v135h-22v-154h88v19zM2374 758h-19q-4 0 -8 -4q-8 -4 -8 -9l-35 -47l-2 -2h-2v-2v2l-2 2l-37 47q-2 5 -6 9t-10 4h-17l56 -76l2 -2q0 -2 2 -2v-2v-2q0 -2 2 -2v-2v-66
h22v66v2v4q2 0 2 4v2h2zM1188 864q-19 8 -38.5 19.5t-33.5 25.5h322q-17 -14 -35.5 -25.5t-38.5 -19.5q-21 -6 -43.5 -12t-44.5 -6q-25 0 -46.5 6t-41.5 12zM1141 936l315 317q29 -39 45.5 -79.5t16.5 -81.5q0 -23 -3.5 -44.5t-11.5 -41.5q-8 -19 -18 -36.5t-23 -33.5h-321z
M1094 928q-27 35 -45 73q-7 21 -11 43.5t-4 47.5q0 20 4 40.5t11 41.5q6 18 16 35.5t25 33.5h319zM1364 1315q20 -8 38.5 -20.5t33.5 -22.5h-324q37 28 76 43q39 18 88 18t88 -18zM78 350q-4 4 -5 8t-3 9q-2 6 -3 10t-1 10t4 16q2 5 3 10t5 7l3 9t7 7q0 2 5 5t7 5q6 5 9.5 6
t9.5 3q2 0 8 1t10 1q8 0 14.5 -1t14.5 -5q8 -2 13 -6.5t9 -8.5q-2 -2 -4 -2v-4h-2h-2h-4h-6q-4 2 -8 5t-8 3h-7.5h-9.5h-10h-8q-8 -4 -12.5 -7t-8.5 -5q-4 -6 -7 -10t-5 -8q-4 -7 -4 -13v-8q0 -8 2 -14t3 -9.5t1 -7.5q2 -2 5 -4t5 -6q4 -2 6 -5t7 -3q2 -2 6 -4t8 -2
q2 -2 6 -2h6h10.5t8.5 2q4 0 9 2t9 4v29h-12h-2l-2 2l-3 3l-3 3l-1 1t-1 3v1v3v0h38v-53l-5 -5t-5 -6q-6 -2 -12 -2q-6 -2 -14 -2h-15h-10h-8q-6 2 -9.5 4.5t-9.5 6.5q-2 0 -7 3t-5 7q-6 2 -7 6t-3 8zM240 438v-45h55v-14h-55v-47h67v-17h-84v140h84v-17h-67zM369 315v123
h-45v17h106v-17h-47v-123h-14zM532 438v-49h60v-12h-60v-62h-16v140h84v-17h-68zM641 455v-86q0 -4 2 -7.5t4 -5.5q2 -6 5 -9t5 -7q0 -2 3.5 -4t5.5 -4q6 -2 10 -2h8h7t5 2q6 2 9.5 4t7.5 4q0 4 3 7t5 9q4 4 4 13v86h14v-86q0 -7 -1 -11t-3 -10t-5 -10t-7 -8t-8 -7.5
t-8 -5.5q-13 -2 -23 -2q-12 0 -25 2q-2 2 -7 5.5t-9 7.5q-6 6 -10 18q-2 6 -4 10t-2 11v86h14zM784 455v-123h62v-17h-78v140h16zM877 455v-123h65v-17h-80v140h15zM1069 315l-61 140h8q4 0 8 -2q2 -2 3 -2t3 -5l43 -104v-4q2 -2 2 -6v6l1 2l1 2q6 14 12.5 26.5t12.5 24.5
q4 17 10 29l12 24q0 5 2 5t2 2q2 2 3.5 2h5.5h8q-8 -17 -15.5 -34.5t-17.5 -33.5q-6 -20 -13 -36.5t-16 -35.5h-14zM1171 438v-45h58v-14h-58v-47h68v-17h-84v140h84v-17h-68zM1341 381q-2 -2 -10 -4l47 -62h-10q-2 0 -5 1l-3 1q-2 2 -4 3.5t-4 5.5l-39 51h-25v-62h-14v140
h51h5t7 -2q9 -2 15 -9q2 -4 4 -7t4 -7q2 -2 2 -7v-5v-9t-2 -6q0 -4 -2 -8t-4 -6l-4 -4t-9 -4zM1325 389q4 0 6 4q2 0 4 1t4 1l3 6t4 5q0 2 1 4t1 8l-1 2t-1 6q-3 2 -4 3t-3 5q-2 0 -4 1t-4 3h-6h-37v-49h37zM1452 336q2 2 4 8q2 2 3 6t1 6q0 6 -2 11q-2 0 -3 3t-3 5t-8 4
q-4 0 -6 1l-6 3q-5 0 -9 2t-4 4q-10 0 -14 6q-4 0 -5 4t-3 7v14v9t2 7q0 6 8 10q4 5 6 6t8 3q4 0 6.5 1t8.5 1q2 0 5 -1t5 -1t4 -1l6 -3q2 0 4 -2.5t2 -4.5q4 -2 5 -4t3 -2l-4 -2q-2 -2 -8 -2h-6q-4 2 -4 4h-2h-2h-2h-3h-1h-2h-9q-8 0 -8 -2q-6 -6 -6 -8q-4 0 -4 -8
q0 -6 4 -6q0 -4 2 -6t5 -3.5l3 -1.5q4 -4 6.5 -4t8.5 -4h3t3 -2h4t4 -4h2h1h1q2 0 4 -1l2 -1q4 -4 6 -7t7 -5q2 -10 2 -19v-10t-7 -8q0 -6 -8 -12q-2 -2 -6 -4.5t-8 -4.5t-8 -2h-10q-11 0 -18 2t-13 9q-2 0 -4 2l-4 4q0 2 -1 4l-1 2l2 2l1 1t5 1h2q2 0 4 -1t4 -3q4 -2 6 -4
t6 -2q0 -2 4 -2h7q8 0 10 2q8 0 12 4zM1524 455v-140h-17v140h17zM1579 336q-12 8 -18 20q-5 15 -5 31v7v9q7 11 9 17q6 8 14 16q6 6 12 10q4 5 9.5 6t9.5 3q4 0 8 1t10 1q4 0 9 -1t12 -1q4 -2 8 -3t8 -6l5 -5t7 -5q4 -4 6.5 -7t6.5 -9q2 -6 6 -17q2 -4 3 -9t1 -7
q0 -8 -2 -15t-6 -16q-2 -6 -5.5 -11t-9.5 -9q-6 -6 -11 -9t-11 -8q-10 -4 -27 -4q-8 0 -15 1t-11 3q-17 5 -23 17zM1579 408q-4 -7 -6 -13t-2 -8q0 -4 1 -8t1 -6q2 -8 8 -17q0 -2 2 -4t4 -6l5 -5t10 -3q2 -2 5 -4t5 -2q4 -2 8 -2h8h7t7 2q3 0 7 2l8 4q2 0 5 3l5 5q2 4 4 6
l4 4q2 4 3 7.5t3 9.5q0 2 1 6t1 8q0 2 -1 8t-5 13q0 4 -4 8t-6 10q-4 2 -8 5t-10 7h-9.5h-11.5h-12h-10q-4 -4 -9.5 -7t-9.5 -5q-2 -6 -5 -10t-3 -8zM1741 315h-17v140h13h5t5 -4l72 -103q2 0 2 -4l2 -2v-2v115h16v-140h-14l-82 115v4h-2v4v-123zM1956 438v-49h57v-12h-57
v-62h-14v140h83v-17h-69zM2114 381q-9 -2 -13 -4l45 -62h-12q-4 0 -8 2q0 2 -1 3.5t-3 5.5l-39 51h-25v-62h-16v140h51h6t8 -2t7.5 -4.5t5.5 -4.5q2 -4 4 -7t6 -7q0 -2 1 -7l1 -5q0 -6 -1 -9t-1 -6l-4 -8t-2 -6zM2101 393q2 0 3 1t3 1q7 8 7 11q2 4 2 12q0 2 -2 8q0 2 -7 8
q-2 0 -3 1l-3 3h-8h-35v-49h35q4 0 8 4zM2281 336q-4 -6 -10 -9t-12 -8q-6 -2 -12 -3t-15 -1q-8 0 -15 1t-13 3q-13 5 -23 17q-4 4 -8 9t-6 11q-2 9 -5 16t-3 15q0 2 1 7t3 9q2 5 3 10t3 7q4 6 7 9t5 7q4 2 8 5t9 5q4 5 8 6t8 3q6 0 9 1t9 1q4 0 9.5 -1t9.5 -1l9 -3t7 -6
q4 -2 8 -5t6 -5q3 -4 6 -7t5 -9q6 -6 8 -17q2 -4 3 -9t1 -7q0 -8 -1 -15t-5 -16q-2 -6 -6 -11t-11 -9zM2232 330h7.5t9.5 2q2 0 5 2t5 4q2 0 6 3t8 5l3 6t3 4q2 4 3.5 7.5t1.5 9.5q2 2 2 6v8q0 2 -1 8t-1 13l-6 8t-5 10q-6 2 -11 5t-9 7h-10.5h-10.5h-11h-11q-6 -4 -9 -7
t-8 -5q-6 -6 -8 -10l-4 -8q-2 -7 -2 -13v-8v-14q0 -6 1 -9.5t5 -7.5q0 -2 3 -4t5 -6q2 -2 5.5 -5t5.5 -3q2 -2 5 -4t9 -2q2 -2 6 -2h8zM2460 453q2 2 3 2h3h12v-140h-14v115l-2 -2v0v-2q-4 -8 -6 -17.5t-7 -15.5q-4 -6 -7 -12l-7 -14q-2 -9 -4 -15l-4 -12q-4 -6 -7 -11
t-5 -14h-15q-10 13 -15 27t-11 27q-4 14 -11.5 28.5t-11.5 28.5v2l-4 2v-115h-16v140h14q6 0 8 -2l2 -2v-5l49 -108q0 -2 2 -2v-4q0 2 1 4t1 4q0 4 5 8l43 98q0 5 1 5t3 2zM74 262h157v-20v-4v-5q0 -4 -2 -6l-4 -4l-106 -145h2v2h4h2h104v-37h-165v12q0 11 2 13q0 2 4 8
q2 2 2 4t2 4t3 4l3 6l94 129h-102v39zM260 262h139v-39h-100v-49h80v-41h-80v-53h100v-37h-139v219zM571 223h-59v-180h-43v180h-63v39h165v-39zM672 262l94 -219h-25q-8 0 -16 4q-4 2 -5 6t-5 8l-13 29h-100l-10 -29q-2 -4 -3 -5t-3 -1q0 -4 -1 -5t-5 -3q-2 0 -4.5 -1
t-4.5 -1q0 -2 -2 -2h-4h-24l94 219h37zM684 129l-27 68q0 2 -1 3t-1 3q0 4 -2 6v-6q0 -2 -2 -3t-2 -3l-26 -68h61zM774 262h139v-39h-100v-55h82v-39h-82v-86h-39v219zM1133 207q4 -6 6 -12.5t6 -12.5q2 -8 2 -15v-13v-17t-2 -14q-4 -6 -6 -13.5t-6 -13.5q-5 -4 -9 -10
l-8 -12q-8 -4 -12 -9.5t-10 -7.5q-7 -6 -14 -8t-13 -4q-8 -2 -15.5 -3t-15.5 -1q-10 0 -21 3t-22 5q-12 6 -19 12.5t-18 12.5q-14 16 -20 35q-6 12 -8 22t-2 23q0 6 1 13t3 15q4 17 12 25q4 8 7 13t7 11q9 5 14 9t11 8t12 6t15 6q6 0 13 1t15 1t15.5 -1t15.5 -1q6 -4 13 -6
t14 -6q6 -4 10 -8t12 -9q4 -6 8 -11t9 -13zM1104 127q2 6 3 12t1 15q0 12 -4 24q-4 10 -8 15.5t-11 9.5q-4 4 -9 8t-11 6q-12 6 -29 6q-16 0 -28 -6q-4 -2 -9.5 -6t-11.5 -8t-9 -9.5t-7 -15.5q-4 -4 -4 -11v-13v-15t4 -12q4 -8 7 -14.5t9 -10.5t11.5 -8t9.5 -8q8 -2 14 -4
t14 -2t14.5 2t14.5 4q6 4 11 8t9 8q7 4 11 10.5t8 14.5zM1329 262h39v-219h-37l-102 147q-2 0 -2 1.5t-2 3.5q-2 4 -2 6q-4 0 -4 4l-1 1t-4 3v-166h-38v219h34q4 0 8.5 -1t4.5 -3l6 -3t4 -3q10 -16 21.5 -31.5t21.5 -34.5q12 -14 23.5 -29.5t25.5 -29.5q0 -4 1 -6t1 -6
q0 -2 1 -4t1 -5v156zM1389 262h165v-39h-65v-180h-39v180h-61v39zM1690 150q2 -5 5 -9t5 -8q0 -4 2 -9t2 -13q0 -13 -6 -27l-8 -12t-9 -11q-8 -4 -12 -8t-12 -6t-15.5 -4t-13.5 -2q-8 0 -15 2t-18 4q-6 2 -11 6t-13 13q-4 2 -6 5t-4 7q-5 2 -5 12l1.5 1t3.5 3q2 0 2 1t2 1
t4 1l2 1h10h3t3 -2q6 0 10 -2q5 -4 9 -6t6 -4q2 0 6 -2t10 -2q2 0 5 1t7 3q7 2 13 6l8 8q2 4 4 6t2 7q0 8 -6 12q-4 6 -8 6q-4 4 -7.5 5t-5.5 1q-6 2 -16 8q-4 0 -9 1t-9 6q-9 2 -13 5t-8 7q-6 4 -9 8t-5 8q-6 12 -6 25q0 18 6 26q2 7 6 11t10 8q4 4 9.5 6t13.5 6q4 0 10 1
t14 1q4 0 8.5 -1t10.5 -1q4 -2 7 -4t9 -4q2 -2 6 -5t8 -7q3 -2 6 -5.5t5 -7.5l-8 -4l-6 -4t-3 -4h-8h-4h-4h-2q-6 0 -6 2l-8 4q-3 0 -4 1l-1 1h-6h-12q-4 0 -5 -1t-5 -3q-2 -2 -4 -8q-2 -2 -2 -8t2 -6q2 -2 3 -4.5t1 -6.5q4 0 7 -1t5 -1q6 -2 11 -4t7 -4l11 -2q4 -4 9 -5
t11 -7q10 -2 17 -12zM1755 80q6 0 6 -6q2 0 2 -3v-5q0 -7 -2 -11q0 -4 -6 -8q-4 0 -6 -4q-2 0 -4 -1t-6 -1q-2 0 -4 1t-4 1q-2 2 -4.5 3t-4.5 1q-2 2 -3 4t-3 4q-2 4 -2 11v5t2 3q2 4 3 5t3 1q7 6 9 6q2 2 4 3t4 1q4 0 6 -1t4 -3q2 0 6 -6zM1839 203q-8 -8 -16 -25
q-2 -4 -4 -11t-2 -13q0 -9 2 -15l4 -12q4 -8 7 -14.5t9 -10.5q4 -4 9 -8t14 -8q8 -2 14 -4t14 -2q6 0 10.5 2t10.5 2q4 2 9 5t9 7q4 0 8 2h7h6t6 -2q6 -2 10 -6l6 -10q-6 -8 -16 -14q-6 -5 -10 -8t-11 -5q-6 -4 -11 -5t-11 -3t-11.5 -3t-11.5 -1q-14 0 -24.5 3t-20.5 5
q-20 10 -35 25q-16 16 -24 35q-2 12 -5 22t-3 23q0 6 1 13t3 15q2 6 4 12.5t6 12.5q6 8 9 13t9 11q7 5 12 9t13 8q4 4 10 6t17 6q4 0 12 1t16 1h11.5t11.5 -2t11 -4t11 -4q7 -2 11 -5t10 -7q10 -9 16 -17l-6 -8l-5 -5t-5 -3h-7h-5h-8t-7 2q-4 4 -9 7t-9 5q-6 2 -10.5 2
h-10.5q-16 0 -28 -6q-9 -2 -14 -6t-9 -8zM2195 207q3 -6 6 -12.5t5 -12.5q2 -8 2 -15v-13v-17t-2 -14t-5 -13.5t-6 -13.5q-8 -10 -16 -22q-8 -4 -14 -9.5t-11 -7.5q-6 -6 -13 -8t-15 -4q-6 -2 -13.5 -3t-15.5 -1q-20 0 -43 8q-8 6 -17 12.5t-16 12.5q-8 8 -14 16t-10 19
q-4 12 -6 22t-2 23q0 6 1 13t1 15q2 6 6 12.5t6 12.5q4 8 8 13t10 11q4 5 10.5 9t12.5 8q4 4 11 6t13 6q9 0 16 1t13 1q8 0 15.5 -1t13.5 -1q8 -4 15 -6t13 -6q5 -4 11 -8t14 -9q2 -6 8 -11t8 -13zM2165 127q4 10 4 27q0 6 -1 13t-3 11q-4 10 -7.5 15.5t-7.5 9.5
q-10 10 -24 14q-6 4 -13.5 5t-15.5 1q-14 0 -26 -6q-7 -2 -12 -6t-11 -8q-4 -4 -8 -9.5t-8 -15.5q-2 -4 -3 -11t-1 -13q0 -9 1 -15t3 -12q8 -16 16 -25q6 -4 11 -8t12 -8q6 -2 14 -4t12 -2q8 0 15.5 2t13.5 4q6 4 13 8t11 8q9 9 15 25zM2433 260l1 1t5 1h39v-219h-39v160
q0 -2 -1 -4l-3 -6v-7t-2 -4q-6 -18 -14.5 -35.5t-14.5 -33.5q-6 -17 -13 -34.5t-13 -35.5h-39l-55 139q-3 2 -3 11q-2 4 -3 5t-1 3v-158h-41v219h39q4 0 6.5 -1l2.5 -1q4 -2 5 -2t3 -2l6 -4l4 -4t2 -4q4 -17 11 -32t14 -34q6 -16 13 -32.5t13 -32.5v-2v-5v-4q4 0 4 -4v4v4
q0 3 1 5l1 2l9 16l45 115q0 2 1 4t1 4q2 2 5 3l3 1q2 2 4 2t4 2z" />
    <glyph glyph-name="A" unicode="A" horiz-adv-x="1236" 
d="M862 0q-34 14 -59 39t-39.5 58.5t-14.5 69.5v120h-264v-120q0 -36 -14 -69.5t-39 -58.5t-58.5 -39t-71.5 -14t-71.5 14t-57.5 39q-25 25 -39.5 58.5t-14.5 69.5v603q0 125 33.5 227.5t97.5 174.5q64 73 157 111t209 38q115 0 207.5 -36t157.5 -107q135 -148 135 -424
v-587q0 -36 -14 -69.5t-39 -58.5t-59 -39t-70 -14q-38 0 -72 14zM749 651v106q0 107 -28 153.5t-97 46.5q-41 0 -66 -9t-40 -30q-33 -46 -33 -171v-96h264z" />
    <glyph glyph-name="B" unicode="B" horiz-adv-x="1291" 
d="M266.5 13.5q-32.5 13.5 -56.5 37.5t-38 56.5t-14 67.5v961q0 36 13.5 68t38.5 57q24 24 56.5 37t68.5 13h440q81 0 154.5 -30t128.5 -85q56 -56 86.5 -128.5t30.5 -153.5q0 -128 -73 -226q52 -58 79.5 -129t27.5 -147q0 -82 -31.5 -157.5t-89.5 -133.5t-133.5 -89.5
t-157.5 -31.5h-462q-36 0 -68.5 13.5zM513 827h244q10 1 21 8.5t20 18.5q20 26 20 49t-20.5 37.5t-44.5 14.5h-240v-128zM513 355h269q10 0 24 7.5t23 19.5q25 28 25 56q0 27 -25 49q-11 9 -23.5 14.5t-22.5 5.5h-270v-152z" />
    <glyph glyph-name="C" unicode="C" horiz-adv-x="1140" 
d="M150.5 1019q39.5 99 112.5 169q69 66 160 100.5t193 34.5q143 0 238 -53t177 -157q38 -56 38 -118q0 -35 -14 -66.5t-39 -55.5t-59.5 -38t-72.5 -14q-40 0 -71 16q-28 13 -47.5 38t-26.5 43q-8 15 -22 26q-30 20 -101 20q-36 0 -57 -4t-39 -16q-51 -37 -51 -141v-294
q0 -106 51 -140q18 -12 39 -16t57 -4q37 0 64 5q22 5 35.5 15t23.5 26q15 25 32 47q17 21 47 34.5t65 13.5q39 0 73 -13.5t59 -37.5q25 -25 39.5 -57t14.5 -66q0 -64 -38 -117q-81 -104 -176 -156.5t-239 -52.5q-102 0 -193 35t-160 101q-73 69 -112.5 167.5t-39.5 218.5
v288q0 120 39.5 219z" />
    <glyph glyph-name="D" unicode="D" horiz-adv-x="1263" 
d="M1110.5 304.5q-39.5 -98.5 -112.5 -168.5q-69 -66 -160 -101t-193 -35h-335q-36 0 -68.5 13.5t-56.5 37.5q-25 25 -38.5 57t-13.5 67v961q0 35 13.5 67.5t38.5 56.5q24 24 56.5 37.5t68.5 13.5h335q102 0 193 -34.5t160 -100.5q73 -69 112.5 -167.5t39.5 -219.5v-266
q0 -120 -39.5 -218.5zM774.5 894.5q-18.5 35.5 -50 48t-79.5 12.5h-157v-600h157q72 0 110 34t38 131v272q0 67 -18.5 102.5z" />
    <glyph glyph-name="E" unicode="E" horiz-adv-x="1054" 
d="M214.5 27.5q-37.5 23.5 -59.5 61.5t-22 84v960q0 36 13.5 68.5t37.5 57.5q49 52 125 52h531q36 0 68 -13.5t57 -38.5q24 -25 37 -58t13 -68q0 -36 -13 -69t-37 -57q-25 -25 -57 -38.5t-68 -13.5h-352v-107h275q36 0 68.5 -13t56.5 -37t38 -57t14 -68q0 -72 -52 -121
q-25 -23 -57 -36t-68 -13h-275v-149h352q36 0 68 -13.5t57 -38.5q24 -25 37 -58.5t13 -69.5q0 -75 -50 -125q-24 -23 -56.5 -36t-68.5 -13h-543q-45 4 -82.5 27.5z" />
    <glyph glyph-name="F" unicode="F" horiz-adv-x="1014" 
d="M905 1297.5q32 -13.5 57 -38.5q24 -25 37 -58t13 -68q0 -36 -13 -68.5t-37 -56.5q-24 -25 -56.5 -39t-68.5 -14h-349v-159h249q36 0 68.5 -13.5t56.5 -37.5q25 -25 38.5 -57t13.5 -68q0 -72 -52 -121q-25 -23 -57 -36t-68 -13h-249v-290q0 -35 -14 -67.5t-38 -56.5
t-57 -37.5t-69 -13.5t-69 13.5t-57 37.5t-37.5 56t-13.5 68v980q1 31 11 61.5t30 52.5q48 57 136 57h527q36 0 68 -13.5z" />
    <glyph glyph-name="G" unicode="G" horiz-adv-x="1227" 
d="M533 369q19 -12 40 -16t56 -4q78 0 116 25q16 11 29 25.5t29 39.5v13h-9q-35 0 -67.5 14t-56.5 39q-24 24 -37.5 57t-13.5 69t13.5 68t37.5 56q24 25 56.5 39t67.5 14l161 -2q35 0 68 -14t58 -38q25 -25 38.5 -56.5t13.5 -66.5v-174q0 -45 -2.5 -74t-10.5 -46
q-65 -166 -194.5 -256.5t-296.5 -90.5q-102 0 -193.5 35t-160.5 101q-73 69 -112.5 167.5t-39.5 218.5v288q0 121 40.5 219.5t115.5 168.5q71 66 163 100.5t194 34.5q143 0 238 -53t177 -157q37 -55 37 -116q0 -35 -13.5 -67t-37.5 -56q-56 -53 -133 -53q-41 0 -72 16
q-28 13 -47.5 38.5t-26.5 42.5q-8 15 -22 26q-28 20 -100 20q-36 0 -58.5 -4t-41.5 -16q-55 -37 -55 -141v-294q0 -106 52 -140z" />
    <glyph glyph-name="H" unicode="H" horiz-adv-x="1321" 
d="M818 808v344q0 35 14.5 67.5t39.5 57.5q24 23 57 36.5t69 13.5t68.5 -13t56.5 -37t37 -56.5t13 -68.5v-992q0 -36 -13.5 -68t-37.5 -56t-57 -37.5t-69 -13.5t-69 13.5t-57 37.5t-38 56.5t-14 67.5v292h-328v-292q0 -36 -13.5 -68t-37.5 -56t-57 -37.5t-69 -13.5t-69 13.5
t-57 37.5q-24 25 -38 57t-14 67v992q0 36 13.5 68t38.5 57q24 24 57 37t69 13t69 -13t57 -37t37.5 -56.5t13.5 -68.5v-344h328z" />
    <glyph glyph-name="I" unicode="I" horiz-adv-x="621" 
d="M474 92.5q-14 -32.5 -38 -56.5t-57 -37.5t-69 -13.5t-68.5 13.5t-56.5 37.5q-25 25 -38.5 57t-13.5 67v992q0 36 13.5 68t38.5 57q24 24 56.5 37t68.5 13t69 -13t57 -37q25 -25 38.5 -57t13.5 -68v-992q0 -35 -14 -67.5z" />
    <glyph glyph-name="J" unicode="J" horiz-adv-x="623" 
d="M-129 -317q-23 24 -35 55.5t-12 65.5t11.5 65t33.5 55q51 55 134 60q56 7 93 44t37 88v1011q0 38 13.5 71.5t37.5 58.5q52 54 126 54q37 0 70.5 -14.5t58.5 -39.5q24 -25 37 -58.5t13 -71.5l-1 -1027q0 -93 -36.5 -179.5t-102.5 -152.5q-67 -67 -154 -103.5t-183 -36.5
q-89 0 -141 55z" />
    <glyph glyph-name="K" unicode="K" horiz-adv-x="1221" 
d="M893 1262q52 49 121 49q33 0 65.5 -14t59.5 -38q26 -24 40.5 -57t14.5 -71q0 -76 -54 -127l-387 -335l386 -367q51 -51 51 -123q0 -35 -14 -68t-38 -57q-25 -25 -58 -39.5t-68 -14.5q-73 0 -126 53l-398 376v-254q0 -35 -14 -67.5t-38 -56.5t-57 -37.5t-69 -13.5
t-68.5 13.5t-56.5 37.5q-25 25 -38.5 57t-13.5 67v961q0 36 13.5 68t38.5 57q24 24 56.5 37t68.5 13t69 -13t57 -37q25 -25 38.5 -57t13.5 -68v-229z" />
    <glyph glyph-name="L" unicode="L" horiz-adv-x="1088" 
d="M840 352q36 0 68 -13.5t57 -38.5q24 -24 37.5 -57t13.5 -69q0 -75 -51 -125q-24 -23 -56.5 -36t-68.5 -13h-530q-18 0 -36 3l-7 2q-59 12 -98 61.5t-39 110.5q0 16 3 31v946q0 35 14 67t38 56t56.5 37t68.5 13t69 -13t57 -37t38 -56t14 -67v-800z" />
    <glyph glyph-name="M" unicode="M" horiz-adv-x="1630" 
d="M984 111.5q-14 -33.5 -39 -58.5t-58 -39t-71 -14t-71.5 14t-58.5 39t-39 58.5t-14 71.5v682q-2 33 -24 53t-55 20q-32 0 -55 -23t-24 -54v-681q0 -36 -14 -69.5t-39 -58.5t-58.5 -38.5t-71.5 -13.5t-71.5 14t-57.5 38q-25 25 -39.5 58.5t-14.5 69.5v695q0 89 34 170.5
t95 142.5q62 62 143 96t171 34q144 0 263 -89q117 89 260 89q90 0 172.5 -34.5t143.5 -95.5t95.5 -143t34.5 -170v-695q0 -36 -14.5 -69.5t-39.5 -58.5q-25 -24 -59 -38t-70 -14q-38 0 -71.5 13.5t-58.5 38.5t-39.5 58.5t-14.5 69.5v681q-2 32 -25.5 54.5t-56.5 22.5
q-32 0 -52 -20.5t-22 -53.5v-681q0 -38 -14 -71.5z" />
    <glyph glyph-name="N" unicode="N" horiz-adv-x="1217" 
d="M462.5 97.5q-14.5 -33.5 -39.5 -58.5t-58.5 -39t-71.5 -14t-71 14t-58 39t-39.5 58.5t-14.5 69.5v603q0 125 33.5 227.5t97.5 174.5q64 73 156.5 111t208.5 38q157 0 269.5 -65.5t172 -192.5t59.5 -309v-587q0 -36 -14 -69.5t-39 -58.5t-58.5 -39t-71.5 -14t-71.5 14
t-57.5 39q-25 25 -39.5 58.5t-14.5 69.5v590q0 107 -28.5 153.5t-96.5 46.5q-42 0 -66.5 -9t-40.5 -30q-17 -23 -24.5 -63.5t-7.5 -107.5v-580q0 -36 -14.5 -69.5z" />
    <glyph glyph-name="O" unicode="O" horiz-adv-x="1271" 
d="M1103 1009q40 -100 40 -220v-266q0 -120 -39.5 -219t-113.5 -172q-68 -68 -160.5 -105t-193.5 -37q-102 0 -193.5 36.5t-161.5 105.5q-74 73 -114 172t-40 219v266q0 120 40 220.5t114 172.5q70 68 162 104.5t193 36.5q100 0 192.5 -36.5t161.5 -104.5q73 -73 113 -173z
M785 788q0 96 -40 136t-109 40q-71 0 -111 -38t-40 -134v-272q0 -95 40.5 -133t110.5 -38t109.5 37.5t39.5 133.5v268z" />
    <glyph glyph-name="P" unicode="P" horiz-adv-x="1248" 
d="M885.5 1271.5q94.5 -39.5 166.5 -111.5t111.5 -166.5t39.5 -198.5q0 -102 -40 -196.5t-112 -164.5q-72 -72 -166.5 -111.5t-196.5 -39.5h-200v-124q0 -35 -14 -67.5t-38 -56.5t-57 -37.5t-69 -13.5q-35 0 -67.5 13t-56.5 37q-53 50 -53 125v974q0 35 14 68t38 58
q24 24 57 38t68 14h378q103 0 197.5 -39.5zM488 638h206q27 0 54 12.5t49 34.5t35.5 51t13.5 59q0 32 -13 61.5t-37 53.5q-22 21 -49.5 33t-54.5 12h-204v-317z" />
    <glyph glyph-name="Q" unicode="Q" horiz-adv-x="1271" 
d="M828.5 1286.5q92.5 -36.5 161.5 -104.5q73 -73 113 -173t40 -220v-266q0 -156 -66 -275q1 1 7 1h6v-3q1 1 1 3q30 0 57 -11.5t48 -32.5q43 -44 43 -106q0 -42 -20.5 -76.5t-54.5 -55t-74 -20.5q-142 0 -240 89q-98 -46 -214 -46q-102 0 -193.5 36.5t-161.5 105.5
q-74 73 -114 172t-40 219v266q0 120 40 220.5t114 172.5q70 68 162 104.5t193 36.5q100 0 192.5 -36.5zM785 650v142q0 96 -39.5 134t-109.5 38q-71 0 -111 -38t-40 -134v-137q68 27 139 27q83 0 161 -32zM583 354l7 -9q12 -25 46 -25q26 0 33 13q1 1 7 11q2 5 6 9
q-8 5 -22 8t-24 3q-30 0 -53 -10z" />
    <glyph glyph-name="R" unicode="R" horiz-adv-x="1267" 
d="M133 1201q14 33 38 58q24 24 57 38t69 14h388q103 0 197.5 -40.5t166.5 -113.5t111 -168.5t39 -199.5q0 -112 -46 -214t-129 -177l85 -98q50 -59 50 -122q0 -36 -14 -69.5t-39 -58.5t-57 -38.5t-67 -13.5q-73 0 -120 50l-199 218h-189v-94q0 -36 -13.5 -68t-37.5 -56
t-57 -37.5t-69 -13.5t-69 13.5t-57 37.5q-24 25 -38 57t-14 67v961q0 35 14 68zM474 620h218q26 0 53.5 14t49.5 39q49 55 49 116q0 30 -13.5 60.5t-36.5 54.5q-22 24 -49.5 37.5t-54.5 13.5h-216v-335z" />
    <glyph glyph-name="S" unicode="S" horiz-adv-x="1046" 
d="M161.5 14q-38.5 14 -66.5 39q-26 25 -40 59.5t-14 75.5q0 81 52.5 122.5t152.5 41.5h329q11 0 23 4t21 12q25 19 25 50q0 43 -33 59q-13 6 -23 8l-11 2h-157q-81 2 -154.5 32.5t-128.5 84.5q-56 55 -86 125.5t-30 151.5q0 84 33.5 162.5t94.5 139.5t140 94.5t165 33.5
h283q98 0 153 -45t55 -127q0 -89 -54.5 -136.5t-153.5 -47.5h-307q-26 0 -42 -15.5t-16 -39.5q0 -25 13 -42.5t34 -17.5h151q87 0 165.5 -29.5t138.5 -83.5t92.5 -128t32.5 -160t-32.5 -166t-92.5 -141q-60 -63 -138.5 -97.5t-165.5 -34.5h-324q-46 0 -84.5 14z" />
    <glyph glyph-name="T" unicode="T" 
d="M729 158q0 -35 -14 -67.5t-39 -56.5t-58 -37t-68 -13t-66 13t-54 37t-36 56t-13 68v800h-196q-36 0 -68.5 13.5t-56.5 37.5t-37.5 57t-13.5 69t13.5 68t37.5 56q25 25 57 38.5t68 13.5h726q35 0 68 -14t57 -38q25 -25 38.5 -58t13.5 -69t-13.5 -67.5t-38.5 -55.5
q-24 -24 -56.5 -37.5t-68.5 -13.5h-182v-800z" />
    <glyph glyph-name="U" unicode="U" horiz-adv-x="1236" 
d="M518 395q15 -21 40 -30t66 -9q69 0 97 45.5t28 152.5v592q0 36 14.5 69.5t39.5 58.5q25 24 59 38t72 14q36 0 70 -14t59 -38q25 -25 39 -58.5t14 -69.5v-589q0 -275 -135 -422q-65 -72 -157.5 -108t-207.5 -36q-116 0 -209 38.5t-157 111.5q-64 72 -97.5 174.5
t-33.5 227.5v603q0 36 14.5 69.5t39.5 58.5q24 24 57.5 38t71.5 14t71.5 -13.5t58.5 -38.5t39 -58.5t14 -69.5v-581q0 -123 33 -170z" />
    <glyph glyph-name="V" unicode="V" horiz-adv-x="1215" 
d="M16 1153q0 32 13 63.5t37 56.5q25 26 58.5 40.5t70.5 14.5q54 0 98.5 -29t67.5 -80l251 -600l249 601q21 50 64.5 78.5t97.5 28.5q75 0 126 -53q23 -24 36 -55.5t13 -64.5q0 -30 -14 -69l-408 -979q-20 -54 -66 -86t-101 -32t-98.5 28.5t-66.5 81.5l-413 987
q-15 33 -15 68z" />
    <glyph glyph-name="W" unicode="W" horiz-adv-x="1630" 
d="M1018 391.5q20 -22.5 54 -22.5q33 0 56.5 22t25.5 55v701q0 36 14.5 69.5t39.5 58.5t58.5 38.5t71.5 13.5q36 0 70 -14t59 -38q25 -25 39.5 -58.5t14.5 -69.5v-715q0 -89 -34 -170t-96 -143q-61 -61 -143 -95t-173 -34q-72 0 -138.5 22.5t-121.5 65.5q-118 -88 -263 -88
q-90 0 -171.5 34t-142.5 95t-95 142t-34 171v715q0 36 14.5 69.5t39.5 58.5q24 24 57.5 38t71.5 14t71.5 -13.5t58.5 -38.5t39 -58.5t14 -69.5v-697q0 -31 23.5 -56t55.5 -25q35 0 56 20.5t23 54.5v700q0 38 14 71.5t39 58.5q27 25 60.5 39t69.5 14t69 -14t60 -39
q25 -25 39 -58.5t14 -71.5v-694q0 -36 20 -58.5z" />
    <glyph glyph-name="X" unicode="X" horiz-adv-x="1079" 
d="M751 1245q47 62 129 62q73 0 126 -53q23 -24 36.5 -56t13.5 -66q0 -70 -40 -123l-259 -358l258 -356q40 -58 41 -122q0 -34 -14.5 -66t-39.5 -57t-58.5 -39t-69.5 -14q-78 0 -125 62l-210 290l-209 -290q-21 -30 -53 -46t-69 -16t-71 14t-60 40q-25 25 -39.5 57t-14.5 66
q0 32 10 63.5t30 57.5l258 356l-259 358q-40 55 -41 122q0 34 13.5 66t37.5 57q25 25 58 39t69 14q82 0 129 -62l211 -293z" />
    <glyph glyph-name="Y" unicode="Y" horiz-adv-x="1009" 
d="M394 810.5q11 -20.5 30 -35.5q18 -14 40 -22t44 -8q48 0 83 31.5t36 76.5v284q0 35 14 67.5t39 56.5q24 24 57.5 37t69.5 13t68.5 -13t56.5 -37t37 -56.5t13 -67.5v-256q0 -140 -71 -255t-192 -175v-271q0 -37 -13.5 -70t-38.5 -58q-24 -24 -57 -38t-68 -14
q-36 0 -69.5 14t-57.5 38q-25 24 -39 57t-14 71v248q-131 42 -224 152q-44 52 -72 115.5t-36 133.5q-3 14 -3 29v279q0 34 14.5 66.5t39.5 57.5q24 24 57.5 37t69.5 13q72 0 124 -50q24 -24 37 -56.5t13 -67.5v-283q1 -23 12 -43.5z" />
    <glyph glyph-name="Z" unicode="Z" horiz-adv-x="1113" 
d="M147 14q-33 14 -57 38q-25 25 -38.5 57t-13.5 68q0 62 40 118l443 660h-302q-36 0 -68 13.5t-57 38.5q-24 24 -37.5 57t-13.5 69q0 35 14.5 68t39.5 58q24 24 57.5 38t69.5 14h660q36 -1 68 -15.5t57 -40.5q24 -25 37 -57t13 -67q0 -61 -40 -119l-457 -657h344
q35 0 67.5 -14t56.5 -38t37.5 -57t13.5 -69t-13.5 -68.5t-37.5 -56.5t-56.5 -38t-67.5 -14h-691q-35 0 -68 14z" />
    <glyph glyph-name="bracketleft" unicode="[" horiz-adv-x="744" 
d="M244 -302.5q-33 14.5 -58 39.5t-39 58.5t-14 71.5v1261q0 36 14 70t39 59t58 39.5t69 14.5h226q38 0 71 -14.5t57 -40.5q25 -27 38.5 -61t13.5 -71q0 -72 -52 -121q-24 -23 -57 -35.5t-71 -12.5h-51v-915h54q38 0 71 -13t57 -36q52 -49 52 -124q0 -38 -13.5 -71.5
t-38.5 -58.5t-58.5 -39.5t-69.5 -14.5h-229q-36 0 -69 14.5z" />
    <glyph glyph-name="backslash" unicode="\" horiz-adv-x="703" 
d="M-21 1108q0 39 13 74.5t36 62.5q51 59 130 59q58 0 104.5 -33t66.5 -89l299 -949q9 -28 9 -55q0 -33 -13.5 -65t-36.5 -57q-25 -27 -58 -41.5t-71 -14.5q-59 0 -106 33.5t-65 90.5l-299 926q-9 27 -9 58z" />
    <glyph glyph-name="bracketright" unicode="]" horiz-adv-x="744" 
d="M89.5 -301.5q-33.5 14.5 -58.5 39.5t-39 58.5t-14 71.5q0 36 14 68.5t39 55.5q24 23 57 35.5t71 12.5h53v915h-50q-38 0 -71 12.5t-57 35.5q-52 49 -52 121q0 37 13.5 71t38.5 61q24 26 57 40.5t71 14.5h225q36 0 69.5 -14t58.5 -39t38.5 -58.5t13.5 -71.5v-1264
q-1 -36 -15 -69t-39 -58q-24 -25 -57 -39t-69 -14h-228q-36 0 -69.5 14.5z" />
    <glyph glyph-name="asciicircum" unicode="^" horiz-adv-x="1178" 
d="M505 1274q30 16 66 16h8q33 -1 63 -16.5t50 -42.5l362 -531q27 -39 27 -81q0 -25 -11 -55q-22 -54 -75 -78q-27 -12 -59 -12q-34 0 -65.5 16.5t-51.5 45.5l-247 361l-256 -360q-18 -29 -50 -45.5t-68 -16.5q-59 0 -102 43q-42 42 -42 97q0 46 28 80l373 533q20 30 50 46z
" />
    <glyph glyph-name="underscore" unicode="_" horiz-adv-x="1126" 
d="M944 -18.5q44 -22.5 69 -62.5t25 -90q0 -39 -14.5 -72.5t-41.5 -57.5q-56 -50 -137 -50h-578q-80 0 -133 50q-55 52 -55 130q0 49 24.5 89t67.5 63t96 23h578q55 0 99 -22.5z" />
    <glyph glyph-name="grave" unicode="`" horiz-adv-x="510" 
d="M70 1749q0 33 14 65.5t38 57.5q25 26 58 40.5t70 14.5q75 0 127 -52l74 -73q26 -26 40 -59t14 -68t-14.5 -68t-39.5 -58q-27 -27 -59 -41t-67 -14q-34 0 -66.5 13.5t-58.5 39.5l-76 75q-54 53 -54 127z" />
    <glyph glyph-name="a" unicode="a" 
d="M78.5 662.5q38.5 89.5 108.5 158.5t159 106.5t186 37.5q99 0 188.5 -37.5t158.5 -106.5t107 -158.5t38 -186.5v-310q0 -72 -53 -128q-25 -25 -59 -39t-70 -14q-35 0 -65 11.5t-52 32.5q-94 -39 -193 -39q-97 0 -186 37.5t-159 105.5q-70 67 -108.5 156.5t-38.5 186.5
t38.5 186.5zM415.5 411q19.5 -30 51 -47.5t65.5 -17.5q27 0 51.5 10t43.5 28q42 39 42 92q0 52 -41 93q-19 17 -44 27t-52 10q-26 0 -50.5 -10t-43.5 -27q-42 -40 -42 -93q0 -35 19.5 -65z" />
    <glyph glyph-name="b" unicode="b" 
d="M103 1212.5q14 34.5 38 59.5q53 53 127 53t127 -53q23 -25 36 -59t13 -73v-166q30 -6 71 -7l63 -2q98 0 187.5 -37.5t156.5 -106.5q68 -69 105.5 -158.5t37.5 -186.5q0 -98 -37 -186.5t-106 -157.5q-68 -68 -157.5 -105.5t-186.5 -37.5q-98 0 -187.5 37.5t-156.5 106.5
q-69 67 -107 156.5t-38 186.5v664q0 38 14 72.5zM486 384q18 -18 42 -28t50 -10t50 10t42 28q40 37 40 92t-39 94q-37 37 -93 37q-26 0 -50 -10t-42 -27q-41 -41 -41 -94q0 -54 41 -92z" />
    <glyph glyph-name="c" unicode="c" horiz-adv-x="1004" 
d="M439 556q-14 -19 -22 -40.5t-8 -40.5q0 -21 10.5 -43.5t28.5 -40.5q18 -20 41.5 -31.5t48.5 -11.5q32 0 58.5 10t55.5 36q18 21 55.5 35t71.5 14q26 0 57.5 -12t57.5 -33q30 -26 47.5 -59.5t17.5 -71.5q0 -79 -65 -147q-56 -58 -151.5 -94.5t-189.5 -36.5
q-104 0 -197 36.5t-163 102.5q-72 67 -110.5 156.5t-38.5 190.5t39.5 190.5t112.5 158.5q70 67 163 104t194 37q68 0 140 -20t131 -56q64 -40 99.5 -93t35.5 -112q0 -75 -65 -129q-26 -21 -58 -33.5t-57 -12.5q-33 0 -67 14t-60 37q-29 24 -55.5 34.5t-56.5 10.5h-10
q-3 -1 -11 -1q-46 -6 -80 -48z" />
    <glyph glyph-name="d" unicode="d" 
d="M82 662.5q38 89.5 107 158.5q67 69 156 106.5t187 37.5q90 0 133 -22v196q0 39 13 72.5t37 58.5q51 53 126 53q36 0 69.5 -14t57.5 -39q25 -25 38.5 -59t13.5 -72v-663q0 -97 -37.5 -186t-105.5 -157t-157.5 -105.5t-187.5 -37.5q-97 0 -186 37.5t-157 105.5
q-69 67 -107 156.5t-38 186.5t38 186.5zM441 384q38 -38 91 -38q27 0 51 10t42 28q40 37 40 92q0 54 -39 93q-40 37 -94 37q-26 0 -50 -10t-42 -27q-40 -40 -40 -93q0 -54 41 -92z" />
    <glyph glyph-name="e" unicode="e" horiz-adv-x="1074" 
d="M490.5 335q34.5 -13 72.5 -13q23 0 50 8q45 16 88 16q79 0 129 -60q18 -23 28.5 -53.5t10.5 -58.5q0 -91 -110 -141q-47 -21 -109.5 -32.5t-128.5 -11.5q-93 0 -179 37.5t-154 105.5q-69 69 -106.5 157.5t-37.5 186.5q0 99 38.5 189.5t107.5 157.5q70 68 160 105t188 37
q96 0 185 -36.5t158 -102.5q69 -67 108 -155t41 -186q0 -69 -49 -94q-21 -12 -51.5 -16.5t-74.5 -4.5h-414q15 -22 49.5 -35zM651 588q-15 27 -41.5 38t-64.5 11q-55 0 -84 -26q-16 -16 -31 -50h236z" />
    <glyph glyph-name="f" unicode="f" horiz-adv-x="809" 
d="M639 730.5q33 -13.5 58 -38.5q24 -24 37.5 -56t13.5 -68q0 -38 -13.5 -70.5t-37.5 -56.5q-25 -25 -58 -38.5t-69 -13.5v-351q0 -73 -28.5 -141t-80.5 -120q-51 -52 -119.5 -81t-142.5 -29q-36 0 -68.5 13.5t-56.5 37.5q-25 25 -38.5 58t-13.5 69q0 35 13.5 67.5
t38.5 57.5t57 38.5t68 13.5h1q10 1 13 11v356q-45 4 -82.5 29t-59 65t-21.5 85q0 33 12.5 64.5t34.5 55.5q46 49 116 55v214q2 74 31.5 140t80.5 117t118.5 79t141.5 28q36 0 69.5 -14t58.5 -38q24 -25 38 -58.5t14 -69.5t-13.5 -68t-38.5 -57q-25 -24 -58.5 -38t-69.5 -14
h-3q-5 -1 -8.5 -5t-3.5 -9v-206q36 0 69 -13.5z" />
    <glyph glyph-name="g" unicode="g" horiz-adv-x="1069" 
d="M82 662.5q38 89.5 107 158.5q67 69 156 106.5t187 37.5t188 -37.5t157 -106.5q68 -69 105.5 -158.5t37.5 -186.5q0 -132 -70 -250q39 -42 61 -102t22 -150q0 -184 -101 -272.5t-281 -95.5q-15 -1 -48 -4q-16 -3 -27 -9q-14 -6 -44 -36l-16 -15q-45 -42 -105 -42
q-35 0 -69 14.5t-62 39.5t-44 59t-16 70q0 66 59 128q27 33 47.5 53.5t45.5 38.5q68 47 149 47q78 0 93 1q18 0 48 2q14 2 17 5t3 12q0 14 -3.5 22.5t-12.5 15.5q-70 -18 -134 -18q-97 0 -186 37.5t-157 105.5q-69 67 -107 156.5t-38 186.5t38 186.5zM440 384q18 -18 42 -28
t50 -10q36 0 66.5 17.5t48.5 47t18 65.5q0 54 -39 93q-40 37 -94 37q-26 0 -50 -10t-42 -27q-40 -40 -40 -93q0 -55 40 -92z" />
    <glyph glyph-name="h" unicode="h" horiz-adv-x="1173" 
d="M1070 103q-14 -32 -39 -56q-24 -24 -56 -37t-68 -13t-68.5 13t-56.5 37q-25 24 -38.5 55.5t-13.5 67.5v318q0 54 -35 90.5t-90 36.5q-56 0 -96 -31t-41 -77v-332q0 -36 -13.5 -68t-37.5 -55q-25 -25 -57 -38.5t-68 -13.5t-69 13.5t-58 38.5q-24 24 -38 56t-14 67v958
q0 35 14.5 68t39.5 58q24 24 57 38t68 14t67.5 -13.5t56.5 -38.5q24 -24 38 -57t14 -69v-195q29 12 70.5 19.5t76.5 7.5q96 0 182 -36.5t152 -103.5q64 -67 99.5 -154.5t35.5 -183.5v-317q0 -35 -14 -67z" />
    <glyph glyph-name="i" unicode="i" horiz-adv-x="564" 
d="M111.5 1264.5q14.5 33.5 40.5 58.5q27 25 60.5 39t69.5 14t69.5 -14t60.5 -39q26 -25 40.5 -58.5t14.5 -71.5t-14.5 -71.5t-40.5 -58.5q-27 -25 -61 -39.5t-69 -14.5q-37 0 -70.5 14t-59.5 40q-26 25 -40.5 58.5t-14.5 71.5t14.5 71.5zM444 93.5q-14 -32.5 -38 -56.5
q-24 -25 -56.5 -38.5t-67.5 -13.5q-36 0 -69 14t-57 38q-25 25 -39.5 57.5t-14.5 66.5v629q0 34 14.5 66t39.5 57t58.5 38.5t70.5 13.5q35 0 67 -14t56 -38q50 -52 50 -123v-629q0 -35 -14 -67.5z" />
    <glyph glyph-name="j" unicode="j" horiz-adv-x="621" 
d="M146 1260q15 34 41 59q27 25 60 39t69 14t69 -14t58 -39t38.5 -58.5t13.5 -71.5q0 -37 -14.5 -70.5t-40.5 -59.5t-60.5 -40.5t-70.5 -14.5q-37 0 -69.5 14.5t-57.5 40.5q-51 54 -51 130q0 37 15 71zM460 -74.5q-28 -68.5 -77 -120.5q-51 -53 -117 -82t-139 -29
q-36 0 -69 14t-57 38q-25 25 -38.5 58t-13.5 69t13 68t36 56q50 50 120 54h1q6 0 10 4.5t4 10.5v718q0 36 14.5 69.5t39.5 58.5q24 24 57 38t68 14q36 0 68 -13.5t57 -38.5q24 -25 37.5 -58.5t13.5 -69.5v-718q0 -72 -28 -140.5z" />
    <glyph glyph-name="k" unicode="k" horiz-adv-x="1038" 
d="M404 173q0 -36 -13 -67.5t-37 -55.5t-56.5 -37t-67.5 -13t-68 13t-58 37q-25 25 -39.5 56.5t-14.5 66.5v966q0 70 54 122q24 23 57 36.5t69 13.5t68.5 -13t56.5 -37q50 -53 50 -122l-1 -450l236 214q50 45 111 45q36 0 70 -13.5t61 -38.5q26 -25 40.5 -58t14.5 -69
q0 -34 -14 -67t-40 -57l-166 -150l223 -195q24 -21 36 -49.5t12 -61.5q0 -35 -13.5 -68t-38.5 -60t-57.5 -42t-67.5 -15q-70 0 -129 53l-278 246v-130z" />
    <glyph glyph-name="l" unicode="l" horiz-adv-x="698" 
d="M651 85.5q-23 -39.5 -63 -62t-89 -22.5h-7q-68 1 -131 24.5t-111 65.5q-51 43 -78.5 100.5t-27.5 122.5v821q0 35 13 67.5t37 56.5q50 52 120 52q35 0 69 -14t61 -38q26 -24 40.5 -56.5t14.5 -67.5v-786q75 0 126 -51q23 -24 36 -56t13 -68q0 -49 -23 -88.5z" />
    <glyph glyph-name="m" unicode="m" horiz-adv-x="1374" 
d="M435 174q-1 -36 -14.5 -67.5t-37.5 -55.5q-51 -51 -122 -51q-36 0 -69 13.5t-57 37.5t-37.5 56t-13.5 67v435q0 77 30 147.5t85 125.5q54 54 125 84t148 30q114 0 215 -64q97 64 214 64q78 0 151.5 -30t130.5 -84q58 -55 89.5 -126t31.5 -147v-435q0 -35 -13.5 -67
t-37.5 -56t-56 -37.5t-67 -13.5q-36 0 -69 13.5t-57 37.5t-37.5 56t-13.5 67v421q0 14 -15.5 25t-33.5 11q-12 0 -21.5 -6t-13.5 -16q0 -7 1 -9v-421q0 -36 -13.5 -68.5t-37.5 -56.5t-56 -37.5t-67 -13.5q-36 0 -69 13.5t-57 37.5q-25 25 -38.5 57t-13.5 68v410l-3 9
q0 14 -11 24.5t-25 10.5q-11 0 -22 -5.5t-17 -14.5q0 -6 1 -8v-9z" />
    <glyph glyph-name="n" unicode="n" horiz-adv-x="1128" 
d="M390 105.5q-13 -31.5 -37 -55.5t-55.5 -37t-67.5 -13q-37 0 -70 13t-58 37q-26 24 -40.5 55.5t-14.5 67.5v313q0 95 38 182.5t107 156.5q69 67 157.5 103.5t184.5 36.5q131 0 250 -65q119 -67 190.5 -176.5t71.5 -236.5v-314q0 -36 -13 -67.5t-37 -55.5t-55.5 -37
t-67.5 -13q-37 0 -70 13t-57 37q-25 25 -39.5 56.5t-14.5 66.5v307q0 51 -52 92q-23 17 -51 27t-55 10q-51 0 -90 -34t-41 -83v-319q0 -36 -13 -67.5z" />
    <glyph glyph-name="o" unicode="o" horiz-adv-x="1064" 
d="M82 662.5q38 89.5 107 158.5q67 69 156 106.5t187 37.5t188 -37.5t157 -106.5q68 -69 105.5 -158.5t37.5 -186.5t-37.5 -186t-105.5 -157t-157.5 -105.5t-187.5 -37.5q-97 0 -186 37.5t-157 105.5q-69 67 -107 156.5t-38 186.5t38 186.5zM441 384q38 -38 91 -38
q27 0 51 10t42 28q40 37 40 92q0 54 -39 93q-40 37 -94 37q-26 0 -50 -10t-42 -27q-40 -40 -40 -93q0 -54 41 -92z" />
    <glyph glyph-name="p" unicode="p" 
d="M131 672.5q39 86.5 108 153.5q67 66 155 102.5t184 36.5q98 0 187.5 -37.5t156.5 -106.5q68 -69 105.5 -158.5t37.5 -186.5t-37.5 -186t-105.5 -157t-157.5 -105.5t-186.5 -37.5q-71 0 -134 18v-168q0 -39 -12 -73t-35 -58q-24 -25 -56.5 -39.5t-69.5 -14.5
q-35 0 -69 14.5t-59 39.5q-25 24 -39.5 58.5t-14.5 72.5v651q3 95 42 181.5zM486 384q18 -18 42 -28t50 -10t50 10t42 28q40 37 40 92q0 54 -39 93q-37 37 -93 37q-26 0 -50 -10t-42 -27q-41 -39 -41 -93t41 -92z" />
    <glyph glyph-name="q" unicode="q" 
d="M82 662.5q38 89.5 107 158.5q67 69 156 106.5t187 37.5t187 -37.5t158 -106.5q68 -69 105.5 -158.5t37.5 -186.5v-636q0 -38 -14.5 -72.5t-39.5 -58.5q-25 -25 -58.5 -39.5t-69.5 -14.5q-77 0 -125 54q-23 24 -35.5 58t-12.5 73v168q-70 -18 -133 -18q-97 0 -186 37.5
t-157 105.5q-69 67 -107 156.5t-38 186.5t38 186.5zM441 384q38 -38 91 -38q27 0 51 10t42 28q40 37 40 92q0 54 -39 93q-40 37 -94 37q-26 0 -50 -10t-42 -27q-40 -40 -40 -93q0 -54 41 -92z" />
    <glyph glyph-name="r" unicode="r" horiz-adv-x="808" 
d="M430.5 107q-13.5 -32 -37.5 -56t-56 -37.5t-67 -13.5q-36 0 -69 13.5t-58 37.5q-25 25 -39.5 56.5t-14.5 66.5v295q4 99 45.5 189.5t113.5 160.5q70 69 162.5 107.5t191.5 38.5h6q53 0 93 -23t62.5 -63t22.5 -90q0 -76 -52 -125q-25 -24 -58 -37.5t-69 -14.5h-7
q-64 -4 -108 -48q-22 -22 -34.5 -50t-13.5 -58v-282q0 -35 -13.5 -67z" />
    <glyph glyph-name="s" unicode="s" horiz-adv-x="892" 
d="M286 364.5q-37 6.5 -75 27.5q-96 53 -130 161q-18 53 -18 112t22.5 113.5t64.5 96.5q43 43 99 67t119 24h301q38 0 71 -18t52.5 -51.5t19.5 -77.5q0 -30 -10.5 -58.5t-29.5 -49.5t-43 -33t-50 -12h-296q-17 0 -23.5 -7.5t-6.5 -20.5q0 -12 10.5 -16.5t31.5 -4.5h153
q63 0 120 -23.5t100 -66.5q42 -42 64.5 -97.5t22.5 -117.5t-22 -118t-61 -99q-42 -45 -97.5 -69.5t-118.5 -25.5h-336q-76 0 -117 32q-51 38 -51 124q0 67 36.5 106.5t96.5 39.5h316q31 0 48.5 6t17.5 25q0 7 -11 16q-10 9 -52 9h-123q-58 0 -95 6.5z" />
    <glyph glyph-name="t" unicode="t" horiz-adv-x="967" 
d="M671 1021q35 0 68 -14t58 -38q24 -25 38 -58t14 -68t-14 -65.5t-39 -55.5q-24 -24 -56.5 -37t-68.5 -13h-218v-192q0 -28 9 -53t26 -43q36 -41 87 -41q54 0 76 22q31 30 63 45t70 15q31 0 60 -12.5t52 -35.5q24 -24 36.5 -54.5t12.5 -65.5q0 -60 -32.5 -110.5
t-90.5 -87.5q-53 -34 -118.5 -52.5t-128.5 -18.5q-98 0 -186.5 38.5t-157.5 108.5q-68 70 -105 159.5t-37 187.5v600q0 36 14.5 69.5t39.5 57.5q24 24 57 38t68 14t68.5 -14t60.5 -38q27 -25 41.5 -58t14.5 -69v-61h218z" />
    <glyph glyph-name="u" unicode="u" horiz-adv-x="1128" 
d="M454.5 414.5q10.5 -22.5 28.5 -37.5q18 -16 42.5 -24.5t51.5 -8.5q51 0 78 30t29 87v334q0 34 14.5 66.5t39.5 57.5q25 24 58.5 37.5t69.5 13.5q35 0 66.5 -13.5t56.5 -37.5q24 -24 37 -56.5t13 -67.5v-328q0 -96 -34.5 -183t-98.5 -154q-63 -67 -148 -103.5t-181 -36.5
q-97 0 -185.5 36.5t-157.5 103.5q-69 68 -107 155t-38 183v327q0 35 14 67.5t38 56.5q25 24 57 37.5t67 13.5t68 -13.5t58 -37.5q25 -25 39 -57t14 -67v-332q0 -26 10.5 -48.5z" />
    <glyph glyph-name="v" unicode="v" horiz-adv-x="994" 
d="M611 864q21 48 64 76t95 28q38 0 71 -14t58 -41q24 -25 37.5 -57t13.5 -66q0 -41 -16 -73l-273 -606q-24 -49 -67 -77.5t-93 -28.5q-54 0 -98 29t-68 77l-276 607q-16 32 -16 72q0 34 13 66.5t37 57.5q24 27 57 41.5t71 14.5q51 0 94.5 -28t66.5 -76l116 -270z" />
    <glyph glyph-name="w" unicode="w" horiz-adv-x="1374" 
d="M869 376q4 -10 13.5 -15.5t21.5 -5.5q16 0 32 9t17 21v392q0 73 51 124q24 24 57 37t69 13q71 0 123 -50q51 -53 51 -124v-400q0 -76 -31.5 -146.5t-89.5 -125.5t-131 -85t-151 -30q-117 0 -214 64q-101 -64 -215 -64q-76 0 -147 30t-126 85q-54 54 -84.5 124.5
t-30.5 147.5v400q0 73 51 124q24 24 57 37t69 13q69 0 122 -50q51 -52 52 -124l6 -387v-9q-1 -2 -1 -9q6 -9 17 -14.5t22 -5.5q14 0 25 10.5t11 25.5l3 9v377q0 36 13.5 68t38.5 57q24 24 57 38t69 14q35 0 66.5 -13.5t56.5 -38.5q24 -24 37.5 -56.5t13.5 -68.5v-389
q-1 -2 -1 -9z" />
    <glyph glyph-name="x" unicode="x" horiz-adv-x="1029" 
d="M712 920q26 26 60 39.5t71 13.5q36 0 68.5 -14.5t57.5 -40.5q24 -25 37 -57.5t13 -67.5q0 -34 -12 -64.5t-35 -53.5l-205 -204l170 -169q51 -51 51 -125q0 -35 -14 -67.5t-39 -57.5q-25 -24 -57 -37.5t-67 -13.5q-73 0 -124 51l-171 170l-173 -172q-51 -51 -127 -51
q-36 0 -69.5 14t-57.5 38q-25 25 -39.5 57t-14.5 65q0 70 52 122l177 177l-204 202q-49 47 -50 122q0 35 14.5 67.5t39.5 57.5q24 25 57 39.5t68 14.5q73 0 124 -51l202 -201z" />
    <glyph glyph-name="y" unicode="y" horiz-adv-x="1134" 
d="M74.5 897q13.5 33 37.5 57q25 25 57 38.5t68 13.5t69.5 -14t58.5 -38q25 -25 38.5 -58t13.5 -70v-305q0 -30 12 -59t33 -51q45 -48 107 -48q28 0 55.5 13t49.5 35q21 22 33.5 51t12.5 59v305q0 38 13.5 71t37.5 57t57 38t69 14q35 0 68.5 -14t58.5 -38q25 -25 39 -58.5
t14 -69.5v-965q0 -35 -14.5 -68t-39.5 -58q-25 -24 -58.5 -37.5t-70.5 -13.5q-35 0 -67 13.5t-56 37.5t-37.5 57t-13.5 69v179q-73 -33 -151 -33q-102 0 -195.5 39t-163.5 111q-70 70 -109.5 164t-39.5 196v309q0 38 13.5 71z" />
    <glyph glyph-name="z" unicode="z" horiz-adv-x="1074" 
d="M897 958q32 -12 57 -34q57 -51 57 -126q0 -44 -18.5 -81.5t-51.5 -61.5l-319 -309h230q37 0 69.5 -13t56.5 -36q52 -50 52 -121q0 -35 -13.5 -67.5t-38.5 -56.5q-24 -24 -57 -38t-69 -14h-632q-16 0 -31 3l-11 2l-18 6q-50 11 -84 66q-15 23 -23 49t-8 49q0 70 52 122
l331 322h-207q-35 0 -66.5 13.5t-55.5 38.5q-24 24 -38 57t-14 69q0 35 13.5 66.5t38.5 56.5q24 24 55.5 37t66.5 13h613q31 0 63 -12z" />
    <glyph glyph-name="braceleft" unicode="{" horiz-adv-x="1046" 
d="M234 327q-38 0 -72.5 15.5t-61.5 43.5t-41.5 64.5t-14.5 75.5q0 38 14.5 72.5t41.5 62.5q26 27 60.5 41.5t73.5 14.5h21v77q4 106 47.5 201t119.5 167t174 111t206 39q38 0 66 -4q76 0 125 -51q23 -24 36 -56.5t13 -69.5q0 -36 -13 -68t-36 -56q-49 -52 -125 -52h-111
q-28 0 -54.5 -14.5t-48.5 -40.5q-21 -25 -33 -55t-13 -58v-588q1 -31 13 -61.5t32 -54.5q21 -26 48 -40.5t56 -14.5h111q74 0 126 -52q23 -24 36 -56.5t13 -69.5q0 -50 -22.5 -90t-62.5 -62.5t-90 -22.5q-28 -4 -67 -4q-108 0 -207.5 39.5t-174.5 111.5q-76 73 -119 168.5
t-45 202.5v134h-21z" />
    <glyph glyph-name="bar" unicode="|" horiz-adv-x="621" 
d="M146.5 1201q13.5 33 37.5 58t56.5 38.5t67.5 13.5q37 0 70 -13.5t58 -38.5t38.5 -58t13.5 -69v-1217q0 -36 -14 -69t-39 -58t-58 -38.5t-69 -13.5q-35 0 -67 13.5t-57 38.5q-24 24 -37.5 56.5t-13.5 70.5v1217q0 36 13.5 69z" />
    <glyph glyph-name="braceright" unicode="}" horiz-adv-x="1048" 
d="M758 205q0 -148 -75 -271q-73 -121 -199 -192t-273 -71q-38 0 -66 4q-37 0 -69 13t-55 37q-50 50 -50 125q0 36 13 69t37 57q25 24 57 38t67 14h111q30 0 57.5 15.5t48.5 42.5q43 56 43 120v581q-1 28 -13.5 58t-32.5 55q-22 26 -48.5 40.5t-54.5 14.5h-111q-35 0 -67 14
t-57 38q-24 24 -37 56.5t-13 67.5q0 36 13 69t37 57t56 37.5t68 13.5q28 4 66 4q108 0 208.5 -41t176.5 -114q78 -73 120 -171t42 -206v-63h22q39 0 74 -14.5t61 -41.5q27 -27 41 -61.5t14 -73.5q0 -40 -14.5 -76t-40.5 -64q-27 -28 -61.5 -43.5t-73.5 -15.5h-22v-122z" />
    <glyph glyph-name="asciitilde" unicode="~" horiz-adv-x="1122" 
d="M162 744q62 45 122 71t123 26q51 0 91.5 -15t85.5 -49l10 -9q12 -15 33 -26q10 -6 21 -6q8 0 17 4q12 3 32 17l11 13q26 26 59.5 39.5t70.5 13.5q36 0 69 -14t60 -39q24 -25 38 -58t14 -68q0 -56 -32.5 -105.5t-86.5 -66.5q-128 -91 -241 -91q-50 0 -89.5 14.5
t-84.5 47.5l-8 7q-17 17 -34 26q-12 6 -22 7h-2l-21 -5q-13 -5 -42 -26q-50 -50 -125 -50q-35 0 -68 14t-57 38t-38 56.5t-14 67.5q0 76 52 128q23 23 56 38z" />
    <glyph glyph-name="exclamdown" unicode="&#xa1;" horiz-adv-x="621" 
d="M474 761.5q-14 -32.5 -39 -57.5t-58 -39.5t-68 -14.5q-34 0 -66.5 14.5t-57.5 39.5q-24 24 -38 56t-14 67t14 68t38 58q25 25 57 38.5t67 13.5t68 -14t58 -38q25 -25 39 -58t14 -68q0 -33 -14 -65.5zM139.5 517q13.5 33 37.5 58t56.5 38.5t67.5 13.5q37 0 70 -13.5
t58 -38.5t38.5 -58.5t13.5 -70.5v-572q0 -37 -13.5 -70t-38.5 -58t-57 -38.5t-68 -13.5t-69 14t-57 38q-25 25 -38.5 58t-13.5 70v572q0 38 13.5 71z" />
    <glyph glyph-name="cent" unicode="&#xa2;" horiz-adv-x="1004" 
d="M836.5 431q-31.5 12 -57.5 12q-34 0 -71.5 -14t-55.5 -35q-29 -26 -55.5 -36t-58.5 -10q-25 0 -48.5 11.5t-41.5 31.5q-18 18 -28.5 40.5t-10.5 43.5q0 19 8 40.5t22 40.5q34 42 80 48q8 0 11 1h10q30 0 56.5 -10.5t55.5 -34.5q26 -23 60 -37t67 -14q25 0 57 12.5
t58 33.5q65 54 65 129q0 62 -36 114q-35 50 -93 87t-121 55v148q0 36 -14 69.5t-38 57.5q-25 25 -58.5 38.5t-70.5 13.5q-36 0 -69 -14t-57 -38q-25 -25 -38.5 -58t-13.5 -69v-164q-87 -36 -154 -100q-73 -69 -112.5 -158.5t-39.5 -190.5q0 -102 39 -191q38 -88 108 -153.5
t159 -102.5v-109q0 -74 53 -127q24 -24 57 -38t68 -14q36 0 69 13.5t58 38.5t39.5 58t14.5 69v95q10 3 17 5.5t12 4.5q103 39 162 102t59 141q0 38 -17.5 71.5t-47.5 59.5q-26 21 -57.5 33z" />
    <glyph glyph-name="sterling" unicode="&#xa3;" horiz-adv-x="1145" 
d="M985.5 342q-32.5 13 -68.5 13h-370v132q36 21 57.5 58.5t21.5 81.5q0 42 -21.5 78.5t-57.5 57.5v190h1q0 2 3 3q2 2 11 3q35 0 66.5 13.5t56.5 38.5q24 24 37 56.5t13 68.5t-13 68.5t-37 56.5q-52 50 -123 50h-20q-69 0 -133 -28t-112 -79q-49 -51 -76.5 -116.5
t-27.5 -135.5v-167q-64 -4 -107 -48t-43 -109q0 -33 11.5 -62t32.5 -50q44 -48 106 -50v-292q0 -36 13 -67.5t37 -55.5q23 -24 55 -37.5t68 -13.5h548q36 0 69 14t57 38q25 25 38.5 58t13.5 70q0 36 -13 68.5t-37 56.5t-56.5 37z" />
    <glyph glyph-name="currency" unicode="&#xa4;" horiz-adv-x="1059" 
d="M165 876l-76 117q-29 46 -29 96q0 33 13 65.5t37 57.5q24 27 56.5 42t70.5 15q43 0 81 -20t64 -58l78 -125q20 4 53 4q34 0 66 -6l71 108q23 36 61.5 55.5t81.5 19.5q36 0 68 -13.5t57 -37.5q24 -24 37.5 -56t13.5 -68q0 -53 -30 -100l-70 -105q57 -98 57 -207
q0 -126 -66 -224l60 -95h-1q30 -43 30 -100q0 -34 -13.5 -65.5t-37.5 -55.5q-25 -25 -57.5 -39t-67.5 -14q-43 0 -81.5 20t-64.5 58l-65 106q-24 -3 -49 -3q-33 0 -56 4l-81 -116q-26 -37 -64 -57t-81 -20q-36 0 -69 15t-57 42t-37.5 58.5t-13.5 64.5q0 53 29 94l80 113
q-60 98 -60 214q0 115 62 216zM457.5 603q22.5 -24 55.5 -24q35 0 57 23.5t22 57.5t-22 56.5t-57 22.5q-33 0 -55.5 -23t-22.5 -56t22.5 -57z" />
    <glyph glyph-name="yen" unicode="&#xa5;" horiz-adv-x="1338" 
d="M982 1247q26 29 60 44.5t72 15.5q69 0 125 -53q25 -25 39.5 -57.5t14.5 -66.5q0 -62 -43 -120l-314 -426h2q21 0 41.5 -8.5t35.5 -22.5q31 -32 31 -75q0 -33 -19 -60.5t-49 -39.5q30 -11 49 -38t19 -59q0 -45 -31 -77q-15 -15 -35 -23.5t-42 -8.5h-100
q-1 -36 -14.5 -67.5t-37.5 -55.5q-24 -23 -56.5 -36t-68.5 -13t-68.5 13t-56.5 36q-25 24 -39 56t-14 67h-82q-44 0 -74 32t-30 77q0 34 17.5 60t46.5 37q-29 12 -46.5 39t-17.5 61q0 41 24 69.5t62 34.5l-316 426q-42 50 -42 115q0 35 14 67.5t39 59.5q56 56 130 56
q39 0 72 -15.5t57 -45.5l323 -443z" />
    <glyph glyph-name="brokenbar" unicode="&#xa6;" horiz-adv-x="625" 
d="M146.5 1204q13.5 33 38.5 58q24 24 57 38t68 14q37 0 70 -13.5t58 -38.5t38.5 -58t13.5 -69v-375q0 -37 -13.5 -70t-38.5 -58t-58.5 -39t-69.5 -14t-68.5 14t-56.5 39q-25 25 -38.5 58t-13.5 70v375q0 36 13.5 69zM147 312q14 33 38 57t57 38t68 14q37 0 70 -13.5
t58 -38.5q24 -24 38 -57t14 -68v-382q0 -36 -13.5 -68t-38.5 -57q-25 -24 -58.5 -37.5t-69.5 -13.5t-68.5 13.5t-56.5 37.5q-25 25 -38.5 57t-13.5 68v382q0 35 14 68z" />
    <glyph glyph-name="section" unicode="&#xa7;" horiz-adv-x="1093" 
d="M956 187q23 -63 23 -128q0 -86 -35 -160.5t-99 -129.5t-146 -85t-174 -30q-130 0 -234 49q-118 53 -170 144q-14 26 -14 52q0 50 36 86q38 35 89 35q44 0 78 -24l48 -32q39 -26 78.5 -35t84.5 -9q89 0 141 40q24 18 37 43t13 54q0 35 -18 56q-35 38 -147 53
q-86 14 -145.5 28.5t-112.5 38.5q-142 62 -203 189q-32 69 -32 153q0 117 65 212q-22 50 -22 127q0 86 35 161t99 130t146 85t174 30q61 0 121.5 -12.5t113.5 -36.5q116 -53 169 -145q14 -26 14 -51q0 -51 -37 -86t-88 -35q-43 0 -78 24l-48 32q-39 26 -78.5 35t-84.5 9
q-88 0 -140 -39q-24 -19 -37 -44.5t-13 -54.5q0 -36 18 -55q34 -38 147 -53q99 -18 152.5 -30.5t105.5 -36.5q141 -65 202 -189q32 -69 32 -154q0 -113 -66 -211zM300 607q-1 -2 -1 -8v-8q0 -64 53 -96t156 -52q176 -32 267 -77l2 17q0 68 -72 107q-47 25 -137 40
q-177 32 -268 77z" />
    <glyph glyph-name="dieresis" unicode="&#xa8;" horiz-adv-x="799" 
d="M15.5 1309q14.5 34 40.5 60q54 54 131 54q37 0 71.5 -14t58.5 -40q25 -27 40 -61t15 -69q0 -38 -14 -71.5t-41 -60.5q-25 -25 -59.5 -39.5t-70.5 -14.5q-76 0 -131 54q-26 25 -40.5 59.5t-14.5 72.5q0 36 14.5 70zM471 1308q15 34 40 61q25 26 58.5 40t71.5 14
q78 0 132 -54q26 -26 40 -59.5t14 -70.5q0 -39 -14 -73t-40 -59q-27 -25 -61 -39.5t-71 -14.5q-36 0 -70.5 14.5t-59.5 39.5q-27 27 -41 60.5t-14 71.5q0 35 15 69z" />
    <glyph glyph-name="copyright" unicode="&#xa9;" horiz-adv-x="1457" 
d="M546 -54q-88 24 -164 70q-76 44 -138.5 106.5t-106.5 137.5q-92 158 -92 346q0 139 52 264t147 220q95 96 219.5 148.5t263.5 52.5q92 0 180 -24t166 -69q156 -91 246 -246q46 -78 70 -165.5t24 -180.5q0 -186 -94 -345q-45 -76 -107.5 -138.5t-138.5 -106.5
q-78 -46 -166 -70t-180 -24q-93 0 -181 24zM887 228q76 31 132 87q57 57 88 132t31 159q0 83 -31 157.5t-88 131.5t-132.5 88t-158.5 31t-158 -31t-132 -88t-88 -131.5t-31 -157.5q0 -84 31 -159t88 -132t131.5 -87.5t158.5 -30.5q83 0 159 31zM670.5 721.5
q-25.5 -12.5 -44.5 -34.5q-18 -21 -28 -47t-10 -51q0 -26 11 -52.5t30 -47.5t46 -33.5t57 -12.5q29 0 51 7t44 25q28 20 44.5 28.5t35.5 8.5q12 0 27.5 -6t29.5 -17q33 -25 33 -66q0 -33 -23.5 -63.5t-65.5 -52.5q-38 -21 -83.5 -32.5t-85.5 -11.5q-68 0 -128.5 24
t-106.5 69q-47 44 -72.5 103.5t-25.5 127.5t25.5 128t72.5 106q46 45 106.5 70t128.5 25q137 0 226 -89q33 -33 33 -72q0 -38 -32 -65q-12 -11 -28 -17.5t-30 -6.5q-19 0 -36 8.5t-45 28.5q-23 18 -44 25.5t-45 7.5h-7q-2 -1 -8 -1q-27 -1 -52.5 -13.5z" />
    <glyph glyph-name="ordfeminine" unicode="&#xaa;" horiz-adv-x="917" 
d="M592.5 1289.5q70.5 -30.5 124.5 -86.5q52 -57 80.5 -129.5t28.5 -152.5v-267q0 -28 -10.5 -53t-29.5 -43q-19 -19 -44.5 -30t-52.5 -11q-30 0 -55.5 11.5t-43.5 32.5q-68 -40 -147 -40q-80 0 -153 31t-128 87q-57 55 -87.5 128t-30.5 154q0 80 30.5 152.5t87.5 129.5
q55 55 128.5 86t152.5 31t149.5 -30.5zM496 792q26 11 46 31q41 41 41 98q0 27 -11 53t-30 45q-21 19 -46.5 30t-52.5 11t-52.5 -11t-43.5 -30q-19 -19 -30 -45t-11 -53q0 -54 41 -98q18 -20 43.5 -31t52.5 -11t53 11z" />
    <glyph glyph-name="guillemotleft" unicode="&#xab;" horiz-adv-x="1500" 
d="M1344 304q53 -53 53 -125q0 -36 -14.5 -69t-40.5 -57q-27 -25 -59.5 -39.5t-66.5 -14.5q-72 0 -126 54l-302 299l-17 18q-43 43 -43 114q0 68 43 120l9 11q6 6 10 8l301 292q56 53 122 53q37 0 71 -14t60 -40q25 -27 39.5 -60t14.5 -67t-13.5 -66t-39.5 -58l-185 -178z
M667 301q26 -26 39.5 -58.5t13.5 -66.5q0 -36 -14.5 -69t-40.5 -57q-27 -25 -60 -39t-68 -14q-34 0 -66.5 13.5t-58.5 39.5l-310 308q-52 52 -52 124q0 37 13 70.5t39 59.5l313 300q26 27 58.5 40.5t66.5 13.5t67 -14.5t60 -39.5q26 -25 40.5 -58t14.5 -68
q0 -34 -13.5 -66.5t-39.5 -59.5l-187 -178z" />
    <glyph glyph-name="logicalnot" unicode="&#xac;" horiz-adv-x="1111" 
d="M1009.5 266q-13.5 -33 -38.5 -58q-24 -24 -56.5 -37.5t-68.5 -13.5q-38 0 -71 13.5t-57 37.5q-25 25 -38.5 58t-13.5 70v104h-443q-38 0 -70.5 13.5t-56.5 37.5t-38 57t-14 69t14 69.5t38 58.5q25 25 58 38.5t69 13.5h631q2 -1 9 -1l13 -2q30 -5 57 -20t46 -37
q20 -23 31.5 -52.5t12.5 -59.5v-289q0 -37 -13.5 -70z" />
    <glyph glyph-name="uni00AD" unicode="&#xad;" horiz-adv-x="932" 
d="M838 729.5q23 -9.5 41 -25.5q17 -16 26 -38t9 -47q0 -49 -35 -87q-18 -18 -40.5 -27.5t-46.5 -9.5h-631q-51 0 -85 37t-34 88t34 85t85 34h631q23 0 46 -9.5z" />
    <glyph glyph-name="registered" unicode="&#xae;" horiz-adv-x="1375" 
d="M825 1302.5q84 -23.5 160 -66.5q74 -43 134.5 -103t102.5 -133q91 -154 91 -333q0 -132 -50.5 -252.5t-143.5 -211.5q-92 -92 -212.5 -142.5t-253.5 -50.5q-134 0 -253.5 50t-210.5 143q-91 92 -141 212t-50 252q0 179 89 333q42 73 101.5 133t132.5 103q76 43 160 66.5
t172 23.5t172 -23.5zM454.5 749q22.5 47 59.5 84q37 36 85.5 56t101.5 20h6q51 -2 82 -33.5t31 -80.5q0 -47 -33.5 -80t-79.5 -34h-6q-17 -2 -28.5 -14t-13.5 -29v-127q0 -47 -33 -80t-80 -33q-20 0 -46 8q67 -40 155 -40q62 0 117.5 22.5t96.5 63.5q41 40 63.5 95.5
t22.5 119.5q0 61 -22.5 116t-63.5 97t-96.5 65t-117.5 23t-116.5 -23t-96.5 -65t-64.5 -97.5t-22.5 -115.5q0 -69 26 -127.5t75 -101.5q-27 31 -27 73v141q3 50 25.5 97z" />
    <glyph glyph-name="macron" unicode="&#xaf;" horiz-adv-x="860" 
d="M721.5 1361.5q35.5 -20.5 56.5 -55t21 -74.5q0 -32 -12 -61t-33 -50q-47 -47 -109 -47h-354q-63 0 -107 47q-20 22 -31.5 51t-11.5 61q0 30 11.5 58t31.5 48q43 43 107 43h354q41 0 76.5 -20.5z" />
    <glyph glyph-name="degree" unicode="&#xb0;" horiz-adv-x="948" 
d="M116.5 1072.5q32.5 76.5 91.5 135.5q58 58 133.5 89.5t157.5 31.5q84 0 160.5 -31.5t134.5 -89.5q57 -58 88.5 -134.5t31.5 -160.5q0 -83 -31.5 -159.5t-88.5 -134.5q-58 -60 -134.5 -92.5t-160.5 -32.5q-81 0 -157 32.5t-134 92.5q-58 58 -91 135t-33 159
q0 83 32.5 159.5zM411 827q36 -38 88 -38q53 0 89 36.5t36 88.5t-36.5 88.5t-88.5 36.5q-33 0 -62 -17t-46 -46t-17 -62q0 -50 37 -87z" />
    <glyph glyph-name="plusminus" unicode="&#xb1;" horiz-adv-x="886" 
d="M689 972q35 0 67 -14t57 -39q24 -25 38 -59t14 -70q0 -35 -13.5 -67t-38.5 -57q-24 -24 -56 -37.5t-68 -13.5h-67v-67q0 -36 -13.5 -68.5t-37.5 -56.5t-57 -37.5t-69 -13.5q-38 0 -71 13.5t-57 37.5q-25 25 -38.5 57t-13.5 68v67h-66q-36 0 -68 13.5t-57 38.5
q-24 24 -38 57t-14 69q0 35 14 68t38 58q25 25 57.5 39t67.5 14h66v66q0 36 14 68.5t39 56.5q24 24 57.5 38t69.5 14t68 -13.5t57 -38.5t38.5 -57t13.5 -68v-66h67zM149 -74.5q-33 13.5 -58 38.5q-24 24 -37.5 56.5t-13.5 68.5q0 38 13.5 71t37.5 57q25 25 58 38.5t70 13.5
h459q37 0 70.5 -13.5t58.5 -38.5q24 -25 38 -58.5t14 -69.5q0 -35 -14 -68t-38 -57q-25 -25 -58.5 -38.5t-70.5 -13.5h-459q-37 0 -70 13.5z" />
    <glyph glyph-name="uni00B2" unicode="&#xb2;" horiz-adv-x="746" 
d="M646 887l-44 -49q44 -20 70.5 -62t26.5 -94q0 -35 -12.5 -65t-35.5 -52q-24 -22 -55 -34.5t-66 -12.5h-295q-2 -1 -9 -1h-10q-76 0 -128 57q-24 27 -37.5 59.5t-13.5 68.5q0 34 12 63.5t35 50.5l111 100q-43 4 -78.5 28t-56 62t-20.5 83q0 26 5 45t15 42
q40 61 114.5 98.5t181.5 37.5q66 0 127.5 -21t109.5 -58t74 -87t26 -106v-17q3 -15 3 -29q0 -53 -36 -92l-1 -1q-11 -14 -13 -14z" />
    <glyph glyph-name="uni00B3" unicode="&#xb3;" horiz-adv-x="671" 
d="M23 736q0 20 8.5 41.5t24.5 39.5q36 39 86 39h11q3 0 11 -2v1q-1 0 -1 1q-30 32 -30 74q0 46 32 78l16 16h-49q-36 0 -68 17t-51.5 48t-19.5 72q0 31 12.5 59.5t34.5 49.5q20 19 44.5 29.5t47.5 10.5h358q20 0 42.5 -11.5t41.5 -31.5q44 -49 44 -101q0 -24 -13 -56.5
t-28 -47.5l-48 -50q91 -76 91 -200q0 -62 -24 -118.5t-67 -99.5t-100 -66.5t-120 -23.5q-83 0 -159 54q-36 24 -65 57t-48 69q-14 26 -14 52zM256.5 779q7.5 -7 17.5 -10q12 -4 54 -4q9 0 18 9.5t9 24.5q0 4 -6 8q-4 4 -23 4h-25q-3 -1 -11 -1h-11q-23 0 -52 9l7 -8l7 -11
q8 -14 15.5 -21z" />
    <glyph glyph-name="acute" unicode="&#xb4;" horiz-adv-x="510" 
d="M317.5 1515.5q-32.5 -13.5 -66.5 -13.5q-35 0 -68 15t-58 41q-25 27 -39.5 59.5t-14.5 65.5q0 72 55 127l74 73q52 52 126 52q35 0 68 -14.5t60 -39.5q24 -25 38 -58t14 -66q0 -34 -13.5 -67.5t-39.5 -59.5l-76 -75q-27 -26 -59.5 -39.5z" />
    <glyph glyph-name="uni00B5" unicode="&#xb5;" horiz-adv-x="1214" 
d="M500.5 400q12.5 -28 34.5 -50t49.5 -35t56.5 -13t54 13t43 35q16 21 25 49.5t9 58.5v329q0 36 13.5 69t37.5 57q25 25 57 38.5t68 13.5t69 -14t57 -38t37.5 -57t13.5 -69v-340q-2 -104 -38 -195t-101 -160q-67 -71 -155.5 -109t-189.5 -38q-76 0 -153 24v-136
q0 -77 -49 -127q-24 -25 -55.5 -38.5t-67.5 -13.5q-37 0 -70.5 13.5t-58.5 38.5t-39.5 58t-14.5 69v954q0 35 14.5 68t39.5 58q24 24 57 38t69 14t68 -13.5t57 -38.5q24 -24 37 -57t13 -69v-329q0 -30 12.5 -58z" />
    <glyph glyph-name="paragraph" unicode="&#xb6;" horiz-adv-x="1696" 
d="M1627 1299q33 -12 58 -34q52 -49 52 -123q0 -38 -13.5 -71.5t-38.5 -58.5t-58.5 -39.5t-69.5 -14.5h-25v-778q0 -36 -14 -69.5t-39 -58.5t-58.5 -38.5t-71.5 -13.5q-36 0 -67.5 15.5t-55.5 43.5q-48 56 -48 133v766h-226v-768q0 -80 -47 -133q-49 -57 -123 -57
q-38 0 -71.5 13.5t-58.5 38.5q-25 24 -39 57t-14 71v136h-56q-100 0 -190.5 38t-161.5 107q-70 69 -108.5 160t-38.5 191q0 99 38.5 190.5t108.5 161.5t161 108.5t191 38.5h1014q37 0 70 -12zM427.5 715.5q36.5 -36.5 96.5 -36.5h75v265h-75q-59 0 -96 -37t-37 -95
q0 -60 36.5 -96.5z" />
    <glyph glyph-name="periodcentered" unicode="&#xb7;" horiz-adv-x="420" 
d="M371.5 435q-12.5 -30 -35.5 -53q-24 -24 -55 -37t-66 -13q-32 0 -62 13.5t-52 36.5q-22 24 -35 54t-13 62t13 62.5t35 54.5q22 23 51.5 35.5t62.5 12.5q73 0 121 -48q23 -23 35.5 -53.5t12.5 -63.5t-12.5 -63z" />
    <glyph glyph-name="cedilla" unicode="&#xb8;" horiz-adv-x="481" 
d="M523 -196q24 -34 37.5 -76t13.5 -87q0 -53 -20.5 -101t-56.5 -84q-37 -36 -85 -56t-101 -20q-81 0 -149 45q-26 17 -45 37t-26 36q-22 28 -22 66q0 47 33 80t79 33q29 0 54 -14t39 -38q2 -3 9 -9q7 -8 13 -11.5t17 -3.5q17 0 30 12.5t13 30.5q0 24 -15 34.5t-51 10.5h-3
q-61 0 -92 24t-31 66v241q0 18 10 35.5t26 30.5q16 12 35.5 19t38.5 7t40 -7t37 -19q17 -13 27 -30.5t10 -35.5v-122q83 -23 135 -94z" />
    <glyph glyph-name="uni00B9" unicode="&#xb9;" horiz-adv-x="704" 
d="M608 583q-14 -33 -39 -58t-58.5 -38.5t-71.5 -13.5t-71.5 13.5t-58.5 38.5q-53 53 -53 127v175q-35 -11 -60 -11q-33 0 -64.5 14t-58.5 39t-42.5 59.5t-15.5 72.5q0 46 24 87t66 67l238 131q49 25 88 25q40 0 75.5 -13.5t61.5 -38.5q26 -24 40 -57t14 -71v-479
q0 -36 -14 -69z" />
    <glyph glyph-name="ordmasculine" unicode="&#xba;" horiz-adv-x="896" 
d="M86 1071.5q30 71.5 84 125.5t125.5 84t149.5 30q79 0 150 -29.5t126 -84.5q54 -54 84 -125.5t30 -149.5t-30 -149.5t-84 -125.5q-55 -55 -126 -84.5t-150 -29.5q-78 0 -149.5 30t-125.5 84t-84 125.5t-30 149.5t30 149.5zM413 889q13 -13 32 -13q16 0 28 13t12 33
q0 14 -12.5 26.5t-27.5 12.5q-18 0 -31.5 -12t-13.5 -27q0 -20 13 -33z" />
    <glyph glyph-name="guillemotright" unicode="&#xbb;" horiz-adv-x="1500" 
d="M115 663q-26 26 -39.5 58.5t-13.5 66.5q0 35 15 68.5t40 58.5t58 39t68 14q73 0 126 -53l313 -301q50 -50 50 -132q0 -34 -13 -65.5t-37 -55.5l-311 -308q-54 -54 -127 -54q-33 0 -65.5 14.5t-59.5 39.5t-41.5 57.5t-14.5 68.5q0 34 13.5 66.5t39.5 58.5l184 181z
M792 660q-26 26 -40 59t-14 67q0 35 15 68t41 58q59 54 126 54q34 0 66.5 -13.5t58.5 -40.5l296 -286l17 -14q26 -27 39.5 -60.5t13.5 -69.5q0 -74 -53 -124l-310 -308q-56 -53 -125 -53q-34 0 -67 14.5t-60 39.5t-41.5 57.5t-14.5 67.5q0 71 54 125l184 181z" />
    <glyph glyph-name="onequarter" unicode="&#xbc;" horiz-adv-x="1706" 
 />
    <glyph glyph-name="onehalf" unicode="&#xbd;" horiz-adv-x="1651" 
 />
    <glyph glyph-name="threequarters" unicode="&#xbe;" horiz-adv-x="1679" 
 />
    <glyph glyph-name="questiondown" unicode="&#xbf;" horiz-adv-x="875" 
d="M785 -58q-34 -79 -96 -141q-61 -61 -141 -94.5t-167 -33.5q-85 0 -165 33.5t-141 94.5q-62 62 -96 141t-34 165q0 81 31 154.5t88 133.5q54 57 127 92t154 43q14 48 50 79.5t86 39.5q-61 12 -104 61q-43 50 -43 115q0 36 14 68.5t39 57.5t57.5 39.5t66.5 14.5
q36 0 69.5 -14.5t57.5 -39.5t38 -58t14 -68q0 -66 -43 -116t-107 -60q65 -10 108 -61t43 -118v-114q0 -40 -16 -72q30 -7 56.5 -23.5t45.5 -39.5q42 -54 42 -113v-1q0 -86 -34 -165zM377 531q6 0 7 1h-7v-1zM477 177h-96q-17 0 -36 -10t-32 -26t-13 -34q0 -32 20.5 -55
t59.5 -23q32 0 58.5 23.5t26.5 54.5q0 37 12 70z" />
    <glyph glyph-name="Agrave" unicode="&#xc0;" horiz-adv-x="1236" 
d="M477.5 1411.5q32.5 -13.5 66.5 -13.5q35 0 68 15t58 41q25 27 39.5 59.5t14.5 65.5q0 72 -55 127l-74 73q-52 52 -126 52q-35 0 -68.5 -14.5t-58.5 -39.5t-39 -57.5t-14 -66.5t13.5 -67.5t39.5 -59.5l76 -75q27 -26 59.5 -39.5zM862 0q-34 14 -59 39t-39.5 58.5
t-14.5 69.5v120h-264v-120q0 -36 -14 -69.5t-39 -58.5t-58.5 -39t-71.5 -14t-71.5 14t-57.5 39q-25 25 -39.5 58.5t-14.5 69.5v603q0 125 33.5 227.5t97.5 174.5q64 73 157 111t209 38q115 0 207.5 -36t157.5 -107q135 -148 135 -424v-587q0 -36 -14 -69.5t-39 -58.5
t-59 -39t-70 -14q-38 0 -72 14zM749 651v106q0 107 -28 153.5t-97 46.5q-41 0 -66 -9t-40 -30q-33 -46 -33 -171v-96h264z" />
    <glyph glyph-name="Aacute" unicode="&#xc1;" horiz-adv-x="1236" 
d="M728.5 1393.5q-32.5 -13.5 -66.5 -13.5q-35 0 -68 15t-58 41q-25 27 -39.5 59.5t-14.5 65.5q0 72 55 127l74 73q52 52 126 52q35 0 68 -14.5t60 -39.5q24 -25 38 -58t14 -66q0 -34 -13.5 -67.5t-39.5 -59.5l-76 -75q-27 -26 -59.5 -39.5zM862 0q-34 14 -59 39t-39.5 58.5
t-14.5 69.5v120h-264v-120q0 -36 -14 -69.5t-39 -58.5t-58.5 -39t-71.5 -14t-71.5 14t-57.5 39q-25 25 -39.5 58.5t-14.5 69.5v603q0 125 33.5 227.5t97.5 174.5q64 73 157 111t209 38q115 0 207.5 -36t157.5 -107q135 -148 135 -424v-587q0 -36 -14 -69.5t-39 -58.5
t-59 -39t-70 -14q-38 0 -72 14zM749 651v106q0 107 -28 153.5t-97 46.5q-41 0 -66 -9t-40 -30q-33 -46 -33 -171v-96h264z" />
    <glyph glyph-name="Acircumflex" unicode="&#xc2;" horiz-adv-x="1236" 
d="M622 1851q-2 0 -3 1l-9 2l-16 2q-3 1 -17 1q-20 0 -45.5 -9.5t-39.5 -23.5l-12 -11q-3 -1 -4 -4l-183 -185q-43 -43 -43 -96q0 -57 45 -102t102 -45q55 0 97 42l88 86l89 -86q45 -42 96 -42q58 0 103 45q21 21 32.5 47.5t11.5 53.5q0 54 -43 97l-186 189q-28 28 -63 38z
M862 0q-34 14 -59 39t-39.5 58.5t-14.5 69.5v120h-264v-120q0 -36 -14 -69.5t-39 -58.5t-58.5 -39t-71.5 -14t-71.5 14t-57.5 39q-25 25 -39.5 58.5t-14.5 69.5v603q0 125 33.5 227.5t97.5 174.5q64 73 157 111t209 38q115 0 207.5 -36t157.5 -107q135 -148 135 -424v-587
q0 -36 -14 -69.5t-39 -58.5t-59 -39t-70 -14q-38 0 -72 14zM749 651v106q0 107 -28 153.5t-97 46.5q-41 0 -66 -9t-40 -30q-33 -46 -33 -171v-96h264z" />
    <glyph glyph-name="Atilde" unicode="&#xc3;" horiz-adv-x="1236" 
d="M584 1495q-18 14 -33 20q-14 2 -19 2q-33 0 -75 -45l-5 -6q-30 -31 -76 -31q-44 0 -74 32q-32 30 -32 74q0 48 22 91.5t62 76.5q37 30 82 47t88 17q39 0 71.5 -12.5t71.5 -40.5q25 -21 42 -31t34 -10q29 0 80 51q31 31 74 31q40 0 75 -32q31 -32 31 -75q0 -86 -31 -117
l-3 -3q-59 -59 -111 -85t-109 -26q-38 0 -69 12t-74 43q-9 5 -22 17zM862 0q-34 14 -59 39t-39.5 58.5t-14.5 69.5v120h-264v-120q0 -36 -14 -69.5t-39 -58.5t-58.5 -39t-71.5 -14t-71.5 14t-57.5 39q-25 25 -39.5 58.5t-14.5 69.5v603q0 125 33.5 227.5t97.5 174.5
q64 73 157 111t209 38q115 0 207.5 -36t157.5 -107q135 -148 135 -424v-587q0 -36 -14 -69.5t-39 -58.5t-59 -39t-70 -14q-38 0 -72 14zM749 651v106q0 107 -28 153.5t-97 46.5q-41 0 -66 -9t-40 -30q-33 -46 -33 -171v-96h264z" />
    </font>
</defs>
</svg>
