<?xml version="1.0" standalone="no"?>
<!DOCTYPE svg PUBLIC "-//W3C//DTD SVG 1.1//EN" "http://www.w3.org/Graphics/SVG/1.1/DTD/svg11.dtd" >
<svg xmlns="http://www.w3.org/2000/svg" xmlns:xlink="http://www.w3.org/1999/xlink" version="1.1">
<metadata>
Created by FontForge 20171206 at Thu Sep 12 14:25:08 2019
 By fw_worker
COPYRIGHT c 2004-2014 by TypoDesign Lab. Inc. All rights reserved. Font designed by TypoDesign Lab. Inc.
</metadata>
<defs>
<font id="TypoDodamM" horiz-adv-x="984" >
  <font-face 
    font-family="Typo_Dodam M"
    font-weight="400"
    font-stretch="normal"
    units-per-em="1000"
    panose-1="2 2 5 3 2 1 1 2 1 1"
    ascent="858"
    descent="-142"
    x-height="542"
    cap-height="704"
    bbox="0 -204 985 858"
    underline-thickness="25"
    underline-position="-154"
    unicode-range="U+0020-FFE6"
  />
<missing-glyph horiz-adv-x="1000" 
d="M100 -42v800h800v-800h-800zM150 8h700v700h-700v-700z" />
    <glyph glyph-name=".notdef" horiz-adv-x="1000" 
d="M100 -42v800h800v-800h-800zM150 8h700v700h-700v-700z" />
    <glyph glyph-name="glyph1" horiz-adv-x="0" 
 />
    <glyph glyph-name="glyph2" horiz-adv-x="1000" 
 />
    <glyph glyph-name="space" unicode=" " horiz-adv-x="250" 
d="M0 -141z" />
    <glyph glyph-name="exclam" unicode="!" horiz-adv-x="438" 
d="M153 733q0 66 66 66t66 -66v-452q0 -66 -66 -66t-66 66v452zM300 67q0 -33 -24 -57.5t-58 -24.5q-33 0 -57.5 24.5t-24.5 57.5q0 34 24.5 58.5t57.5 24.5q34 0 58 -24.5t24 -58.5z" />
    <glyph glyph-name="quotedbl" unicode="&#x22;" horiz-adv-x="432" 
d="M75 552v187q0 57 57 57q58 0 58 -57v-187q0 -57 -58 -57q-57 0 -57 57zM358 552q0 -57 -58 -57q-57 0 -57 57v187q0 57 57 57q58 0 58 -57v-187z" />
    <glyph glyph-name="numbersign" unicode="#" horiz-adv-x="820" 
d="M88 209q-50 0 -50 49q0 50 50 50h103l45 157h-102q-49 0 -49 50q0 49 49 49h131l41 143q15 49 70 38q52 -16 38 -68l-33 -113h157l41 143q15 49 69 38q52 -16 39 -68l-33 -113h79q50 0 50 -49q0 -50 -50 -50h-108l-46 -157h108q49 0 49 -50q0 -49 -49 -49h-137l-46 -156
q-15 -52 -68 -40q-54 11 -37 69l37 127h-158l-46 -156q-16 -52 -68 -40q-55 12 -38 69l37 127h-75zM306 308h158l45 157h-157z" />
    <glyph glyph-name="dollar" unicode="$" horiz-adv-x="651" 
d="M386 -50q0 -48 -48 -48q-47 0 -47 48v46q-75 6 -135 45q-72 46 -93 126q-15 63 39 76q63 14 82 -43q16 -47 55 -66q25 -14 52 -18v228q-102 19 -166 83q-22 25 -36 53t-14 64q0 99 73 159q59 47 143 57v39q0 48 47 48q48 0 48 -48v-41q55 -9 97 -37q62 -42 77 -99
q18 -68 -35 -78q-59 -13 -78 36q-15 41 -48 55q-7 2 -13 4v-199q8 -2 15 -4q84 -23 136.5 -75t53.5 -128q-1 -114 -78 -176q-54 -43 -127 -56v-51zM291 465v179q-31 -6 -53 -24q-37 -28 -37 -69q0 -29 29 -55q20 -17 61 -31zM386 319v-196q21 7 38 18q39 27 39 84
q0 42 -34 70q-18 13 -43 24z" />
    <glyph glyph-name="percent" unicode="%" horiz-adv-x="880" 
d="M28 565q0 39 13.5 72.5t40.5 59.5q25 27 60 41.5t73 14.5q40 0 74.5 -14.5t59.5 -41.5q28 -26 42 -59.5t14 -72.5q0 -36 -14 -70t-42 -60q-25 -27 -59.5 -41t-74.5 -14q-38 0 -73 14t-60 40q-27 26 -40.5 60.5t-13.5 70.5zM582 752q19 36 70 18q47 -23 25 -64l-375 -678
q-22 -40 -73 -19q-48 22 -24 66zM301 566q0 35 -26 60.5t-59 25.5q-32 0 -58 -25.5t-26 -60.5q0 -34 26 -60t58 -26q33 0 59 26t26 60zM474 197q0 38 13.5 72t40.5 60q26 26 60.5 41t74.5 15q39 0 74 -15t60 -41q27 -26 41.5 -60t14.5 -72q0 -39 -14 -72t-42 -61
q-25 -25 -60 -39.5t-74 -14.5q-40 0 -74.5 14.5t-60.5 39.5q-27 27 -40.5 60.5t-13.5 72.5zM749 197q0 36 -26 62t-60 26q-33 0 -58.5 -26t-25.5 -62q0 -35 25.5 -60.5t58.5 -25.5q34 0 60 25.5t26 60.5z" />
    <glyph glyph-name="ampersand" unicode="&#x26;" horiz-adv-x="724" 
d="M281 482q31 17 56.5 42.5t25.5 50.5q0 30 -18 52.5t-53 22.5q-38 0 -56 -22t-18 -50q0 -27 19 -50t44 -46zM407 208l-145 140q-44 -25 -69 -58.5t-25 -67.5q0 -47 29.5 -80.5t78.5 -33.5q50 0 81 25.5t50 74.5zM495 122q-22 -49 -79.5 -86.5t-138.5 -37.5
q-103 0 -168.5 64t-65.5 158q0 55 39 110.5t102 92.5q-37 32 -61.5 70t-24.5 79q0 78 50 131t147 53q91 0 139 -54t48 -124q0 -52 -39 -97t-86 -72l95 -91l8 20q23 55 77 31q53 -23 29 -79l-25 -58l119 -115q40 -40 4 -80q-38 -43 -78 -3z" />
    <glyph glyph-name="quotesingle" unicode="'" horiz-adv-x="284" 
d="M84 739q0 59 59 59q58 0 58 -59v-184q0 -58 -58 -58q-59 0 -59 59v183z" />
    <glyph glyph-name="parenleft" unicode="(" horiz-adv-x="406" 
d="M218 363q0 -198 116 -383q32 -46 -14 -75q-25 -10 -46 -4.5t-37 29.5q-142 207 -142 433q0 227 142 434q16 24 37 29.5t46 -4.5q46 -29 14 -75q-116 -184 -116 -384z" />
    <glyph glyph-name="parenright" unicode=")" horiz-adv-x="406" 
d="M188 362q0 200 -116 384q-32 46 14 75q25 10 46 4.5t37 -29.5q142 -207 142 -434q0 -226 -142 -433q-16 -24 -37 -29.5t-46 4.5q-46 29 -14 75q116 185 116 383z" />
    <glyph glyph-name="asterisk" unicode="*" horiz-adv-x="475" 
d="M238 413l-43 -67q-31 -45 -75 -12q-43 32 -11 75l50 63l-71 23q-49 15 -32 64q17 50 66 31l67 -24l-3 69q-1 54 52 54q54 0 53 -54l-3 -69l66 24q50 19 66 -31q17 -49 -31 -64l-72 -23l49 -62q33 -43 -11 -75q-44 -33 -74 12z" />
    <glyph glyph-name="plus" unicode="+" horiz-adv-x="680" 
d="M248 335h-149q-57 0 -57 56q0 58 57 58h149q28 0 28 27v149q0 64 64 64t64 -64v-149q0 -27 28 -27h149q57 0 57 -58q0 -56 -57 -56h-149q-28 0 -28 -28v-150q0 -64 -64 -64t-64 64v150q0 28 -28 28z" />
    <glyph glyph-name="comma" unicode="," horiz-adv-x="325" 
d="M235 40q0 -73 -39.5 -116.5t-90.5 -50.5q-33 -4 -38 19q-6 25 19 34q49 18 49 43q0 8 -7 14t-20 12q-19 9 -33.5 28.5t-14.5 46.5q0 34 24 58t58 24q40 0 66.5 -31.5t26.5 -80.5z" />
    <glyph glyph-name="hyphen" unicode="-" horiz-adv-x="471" 
d="M21 392q0 59 60 59h310q59 0 59 -59t-59 -59h-310q-60 0 -60 59z" />
    <glyph glyph-name="period" unicode="." horiz-adv-x="325" 
d="M224 72q0 -33 -24 -57.5t-58 -24.5t-58 24.5t-24 57.5q0 34 24 58.5t58 24.5t58 -24.5t24 -58.5z" />
    <glyph glyph-name="slash" unicode="/" horiz-adv-x="530" 
d="M133 -30q-27 -56 -82 -33q-54 22 -31 73l376 730q26 54 81 31q57 -23 33 -70z" />
    <glyph glyph-name="zero" unicode="0" horiz-adv-x="628" 
d="M574 273q0 -120 -47 -178q-79 -99 -214 -99q-133 0 -212 99q-46 58 -46 178v211q0 121 46 178q79 99 212 99q135 0 214 -99q47 -57 47 -178v-211zM443 279v199q-2 67 -11 89q-32 76 -119 76q-86 0 -117 -76q-10 -23 -10 -90v-197q0 -66 10 -90q31 -75 117 -75
q87 0 119 75q9 23 11 89z" />
    <glyph glyph-name="one" unicode="1" horiz-adv-x="628" 
d="M332 748q66 0 66 -66v-622q0 -65 -66 -65q-65 0 -65 65v559q0 12 -12 12h-71q-59 0 -59 58q0 59 59 59h148z" />
    <glyph glyph-name="two" unicode="2" horiz-adv-x="628" 
d="M263 139q-12 -12 0 -12h255q59 0 59 -59q0 -58 -59 -58h-395q-54 0 -68 40q-15 41 16 71l260 260q98 98 98 159q0 42 -30 72t-95 30q-52 0 -88 -34q-24 -24 -31 -60q-11 -68 -66 -64q-62 5 -54 80q12 76 64 127q72 71 183 71q113 0 180.5 -65t67.5 -154q0 -107 -109 -216
z" />
    <glyph glyph-name="three" unicode="3" horiz-adv-x="628" 
d="M366 619q11 12 -1 12h-209q-58 0 -58 58q0 59 58 59h330q27 0 47.5 -20.5t20.5 -48.5q0 -26 -19 -47l-141 -155q9 -1 45 -13t67 -39q39 -33 60 -77t21 -100q0 -52 -20.5 -97.5t-57.5 -81.5q-36 -33 -86 -53.5t-107 -20.5q-56 0 -105 20.5t-86 53.5q-60 61 -62 118t54 61
t69 -48q15 -54 78 -81q26 -11 53 -11q28 0 53 10.5t43 29.5q19 18 30 43t11 53q0 27 -11 52.5t-30 44.5q-18 18 -44 29t-43 11q-31 0 -39 -4q-6 -1 -12 -1q-24 0 -41.5 17.5t-17.5 41.5q0 23 18 41z" />
    <glyph glyph-name="four" unicode="4" horiz-adv-x="628" 
d="M511 138q-12 0 -12 -12v-62q0 -64 -63 -64q-64 0 -64 64v62q0 12 -12 12h-256q-78 0 -78 78q0 25 13 42l318 469q25 35 65 35q77 0 77 -77v-419q0 -12 12 -12h32q58 0 58 -58t-58 -58h-32zM187 266q-8 -12 4 -12h169q12 0 12 12v271q0 12 -12 -6z" />
    <glyph glyph-name="five" unicode="5" horiz-adv-x="628" 
d="M253 631q-12 0 -15 -12l-32 -135q40 32 90 38q110 11 196 -61q87 -76 87 -200q0 -54 -25 -105.5t-59 -82.5q-87 -78 -187 -78q-110 0 -184 69q-66 62 -73 118q-7 54 54 64q49 7 68 -40q13 -39 45 -63q43 -32 82 -32q31 0 58 11.5t47 32.5q20 20 32 47.5t12 57.5
q0 31 -12 59t-32 48q-20 21 -47 33t-58 12q-30 0 -49.5 -8t-39.5 -21q-49 -30 -98.5 -4t-33.5 100l42 190q17 79 77 79h284q58 0 58 -59q0 -58 -58 -58h-229z" />
    <glyph glyph-name="six" unicode="6" horiz-adv-x="628" 
d="M242 723q27 54 85 33q61 -21 31 -86l-91 -183q23 7 47 6q57 0 105.5 -20t85.5 -53q36 -36 57.5 -79.5t21.5 -89.5q0 -58 -21.5 -104t-57.5 -78q-37 -35 -88.5 -54.5t-102.5 -19.5q-56 0 -104.5 19.5t-86.5 52.5q-36 31 -57 78t-21 106q0 67 31 129zM454 247
q0 27 -11.5 52.5t-30.5 44.5q-18 18 -43.5 29t-54.5 11q-28 0 -53.5 -11t-44.5 -29q-18 -19 -29.5 -44.5t-11.5 -52.5q0 -28 11.5 -53.5t29.5 -43.5q19 -19 44.5 -30t53.5 -11q29 0 54.5 11t43.5 30q19 18 30.5 43.5t11.5 53.5z" />
    <glyph glyph-name="seven" unicode="7" horiz-adv-x="628" 
d="M400 619q4 12 -7 12h-259q-58 0 -58 58q0 59 58 59h337q81 0 81 -82q0 -16 -6 -31l-265 -600q-24 -56 -86 -34q-61 21 -32 86z" />
    <glyph glyph-name="eight" unicode="8" horiz-adv-x="628" 
d="M574 229q0 -48 -21 -90.5t-56 -74.5q-36 -31 -83 -50t-100 -19q-52 0 -99 19t-83 50q-35 32 -56 74.5t-21 90.5q0 110 113 181q-81 65 -81 146q0 42 18.5 78.5t48.5 65.5q31 29 72.5 45.5t86.5 16.5q46 0 87.5 -16.5t72.5 -45.5q29 -29 48 -65.5t19 -78.5q0 -81 -80 -145
q114 -72 114 -182zM408 557q0 39 -27.5 67t-66.5 28q-38 0 -66 -28t-28 -67q0 -38 28 -66.5t66 -28.5q39 0 66.5 28.5t27.5 66.5zM439 231q0 51 -37 88t-89 37q-51 0 -88 -37t-37 -88q0 -52 37 -89t88 -37q52 0 89 37t37 89z" />
    <glyph glyph-name="nine" unicode="9" horiz-adv-x="628" 
d="M454 508q0 29 -11.5 54.5t-30.5 45.5q-18 19 -43.5 30.5t-54.5 11.5q-28 0 -53.5 -11.5t-44.5 -30.5q-18 -20 -29.5 -45.5t-11.5 -54.5t11.5 -54t29.5 -45q19 -19 44.5 -30.5t53.5 -11.5q29 0 54.5 11.5t43.5 30.5q19 20 30.5 45t11.5 54zM553 378l-166 -342
q-29 -58 -86 -34q-60 26 -30 86l91 174q-24 -7 -48 -7q-56 0 -104.5 20t-86.5 54q-35 35 -56.5 80.5t-21.5 98.5q0 52 21.5 98t56.5 82q38 34 86.5 54t104.5 20q57 0 105.5 -20t85.5 -54q36 -36 57.5 -82t21.5 -98q0 -66 -31 -130z" />
    <glyph glyph-name="colon" unicode=":" horiz-adv-x="354" 
d="M259 210q0 -34 -24.5 -58t-57.5 -24q-34 0 -58 24t-24 58t24 58t58 24q33 0 57.5 -24t24.5 -58zM259 562q0 -33 -24.5 -57.5t-57.5 -24.5q-34 0 -58 24.5t-24 57.5q0 34 24 58.5t58 24.5q33 0 57.5 -24.5t24.5 -58.5z" />
    <glyph glyph-name="semicolon" unicode=";" horiz-adv-x="354" 
d="M259 562q0 -33 -24.5 -57.5t-57.5 -24.5q-34 0 -58 24.5t-24 57.5q0 34 24 58.5t58 24.5q33 0 57.5 -24.5t24.5 -58.5zM270 180q0 -73 -39.5 -116.5t-90.5 -50.5q-33 -4 -38 19q-6 25 19 34q49 18 49 43q0 8 -7 14t-20 12q-19 9 -33.5 28.5t-14.5 46.5q0 34 24 58t58 24
q38 0 65.5 -32.5t27.5 -79.5z" />
    <glyph glyph-name="less" unicode="&#x3c;" horiz-adv-x="560" 
d="M199 371q-6 -8 0 -16l287 -342q16 -21 15 -45t-21 -39q-44 -31 -81 9l-315 379q-39 46 0 93l315 379q37 40 81 9q20 -15 21 -39t-15 -45z" />
    <glyph glyph-name="equal" unicode="=" horiz-adv-x="597" 
d="M500 545q57 0 57 -57q0 -56 -57 -56h-402q-57 0 -57 56q0 57 57 57h402zM500 236h-402q-57 0 -57 56q0 57 57 57h402q57 0 57 -57q0 -56 -57 -56z" />
    <glyph glyph-name="greater" unicode="&#x3e;" horiz-adv-x="560" 
d="M362 371l-287 343q-17 21 -16 45t22 39q43 31 81 -9l315 -379q38 -47 0 -93l-315 -379q-38 -40 -81 -9q-21 15 -22 39t16 45l287 342q6 8 0 16z" />
    <glyph glyph-name="question" unicode="?" horiz-adv-x="586" 
d="M224 276v17q0 83 108 166q65 50 65 104q0 49 -30 77.5t-81 28.5q-45 0 -74.5 -31.5t-29.5 -75.5q0 -59 -63 -61q-61 -2 -61 65q0 95 65.5 157t169.5 62q103 0 169.5 -64t66.5 -156q0 -113 -99 -176q-75 -47 -75 -105v-8q0 -68 -65 -68q-66 0 -66 68zM373 67
q0 -33 -24.5 -57.5t-57.5 -24.5q-34 0 -58.5 24.5t-24.5 57.5q0 34 24.5 58.5t58.5 24.5q33 0 57.5 -24.5t24.5 -58.5z" />
    <glyph glyph-name="at" unicode="@" 
d="M596 191q-54 -45 -130 -45q-88 0 -150 61t-62 151q0 43 15.5 81.5t44.5 67.5q32 33 70.5 48.5t79.5 15.5q84 0 135 -56l1 11q5 43 51 43q51 0 48 -42l-20 -272q-1 -23 8 -32.5t23 -10.5q36 -2 62 49.5t30 116.5q3 55 -14 109.5t-69 107.5q-42 44 -101 66.5t-124 22.5
q-66 0 -125 -25t-101 -69q-44 -43 -65 -103t-21 -124q0 -67 21 -125t65 -101q42 -44 101 -68.5t125 -24.5q80 -1 135 29q57 33 81 -4q32 -46 -21 -77q-82 -48 -194 -48q-88 0 -166 32t-135 88q-57 58 -90.5 136t-33.5 165t34.5 164.5t91.5 134.5t134 88.5t165 31.5
q87 0 162.5 -29t136.5 -86q57 -54 90.5 -130.5t28.5 -163.5q-6 -100 -64.5 -178t-146.5 -73q-81 5 -106 67zM585 356q0 48 -33.5 82.5t-78.5 34.5q-46 0 -79 -34.5t-33 -82.5q0 -47 33 -81.5t79 -34.5q45 0 78.5 34.5t33.5 81.5z" />
    <glyph glyph-name="A" unicode="A" horiz-adv-x="692" 
d="M477 205h-262q-12 0 -16 -12l-63 -150q-23 -60 -83 -37q-60 22 -39 81l251 615q24 55 81 55t81 -55l251 -615q22 -59 -39 -81q-60 -23 -83 37l-62 150q-5 12 -17 12zM265 326h164q12 0 7 12l-85 224q-4 10 -8 0l-85 -224q-5 -12 7 -12z" />
    <glyph glyph-name="B" unicode="B" horiz-adv-x="641" 
d="M145 748h190q121 0 184.5 -53.5t63.5 -154.5q0 -47 -24 -81.5t-58 -51.5q41 -14 73.5 -58t32.5 -120q0 -105 -62 -162t-212 -57h-188q-27 0 -46.5 20t-19.5 46v605q0 27 19.5 47t46.5 20zM210 469q0 -19 20 -19h87q72 0 103 20t31 72q0 45 -27.5 66.5t-84.5 21.5h-109
q-20 0 -20 -20v-141zM210 319v-172q0 -20 20 -20h122q63 0 94.5 23.5t31.5 75.5q0 58 -31 85.5t-92 27.5h-125q-20 0 -20 -20z" />
    <glyph glyph-name="C" unicode="C" horiz-adv-x="805" 
d="M447 -5q-180 0 -283 112q-107 119 -107 268q0 170 107 275q111 112 283 112q203 0 308 -163q40 -64 -19 -96q-53 -28 -88 24q-76 113 -200 113q-120 0 -187 -76q-69 -77 -69 -188q0 -104 69 -183q67 -75 187 -75q132 0 201 113q33 52 89 23q58 -28 18 -96
q-98 -163 -309 -163z" />
    <glyph glyph-name="D" unicode="D" horiz-adv-x="749" 
d="M145 748h194q166 -1 269 -105t104 -267q0 -93 -38 -170.5t-111 -129.5q-48 -35 -104 -50.5t-150 -15.5h-164q-27 0 -46.5 20t-19.5 46v605q0 27 19.5 47t46.5 20zM210 611v-464q0 -20 20 -20h106q110 0 177 66t67 182q0 121 -66 188.5t-190 67.5h-94q-20 0 -20 -20z" />
    <glyph glyph-name="E" unicode="E" horiz-adv-x="581" 
d="M230 129h245q59 0 59 -60q0 -59 -59 -59h-330q-27 0 -46.5 20t-19.5 46v605q0 27 19.5 47t46.5 20h331q58 0 58 -58t-58 -58h-246q-20 0 -20 -20v-156q0 -19 20 -19h237q56 0 56 -56t-56 -56h-237q-20 0 -20 -20v-156q0 -20 20 -20z" />
    <glyph glyph-name="F" unicode="F" horiz-adv-x="548" 
d="M230 325q-20 0 -20 -20v-240q0 -65 -65 -65q-66 0 -66 65v616q0 27 19.5 47t46.5 20h313q58 0 58 -58t-58 -58h-228q-20 0 -20 -20v-156q0 -19 20 -19h229q56 0 56 -56t-56 -56h-229z" />
    <glyph glyph-name="G" unicode="G" horiz-adv-x="852" 
d="M678 294q2 16 -10 16h-254q-56 0 -56 56t56 56h329q67 0 68 -69q0 -63 -22 -130t-82 -127q-105 -101 -269 -101q-160 -1 -269.5 112t-109.5 275q0 153 109 266.5t295 113.5q183 0 293 -141q40 -60 -13 -92q-52 -32 -93 22q-67 91 -194 91q-132 0 -197 -85t-65 -176
q-1 -114 71 -189t179 -75q97 0 157.5 46.5t76.5 130.5z" />
    <glyph glyph-name="H" unicode="H" horiz-adv-x="720" 
d="M509 303q0 20 -19 20h-260q-20 0 -20 -20v-238q0 -65 -65 -65q-66 0 -66 65v626q0 66 66 66q65 0 65 -65v-231q0 -19 20 -19h260q19 0 19 19v230q0 66 67 66q65 0 65 -66v-625q0 -66 -65 -66q-67 0 -67 66v237z" />
    <glyph glyph-name="I" unicode="I" horiz-adv-x="287" 
d="M79 691q0 66 66 66q65 0 65 -65v-627q0 -65 -65 -65q-66 0 -66 65v626z" />
    <glyph glyph-name="J" unicode="J" horiz-adv-x="485" 
d="M141 158q11 -26 27.5 -36t39.5 -10q44 0 65.5 27t21.5 145v407q0 66 66 66q65 0 65 -65v-426q0 -77 -7 -113.5t-26 -66.5q-28 -43 -78.5 -67t-108.5 -24q-66 0 -112.5 27.5t-70.5 85.5q-22 63 33 88q59 23 85 -38z" />
    <glyph glyph-name="K" unicode="K" horiz-adv-x="650" 
d="M210 65q0 -65 -65 -65q-66 0 -66 65v626q0 66 66 66q65 0 65 -65v-270q0 -12 9 -4l299 318q41 41 87 6q47 -36 0 -90l-249 -264q-8 -9 0 -18l246 -259q51 -55 0 -95q-44 -36 -91 10l-293 308q-8 9 -8 -3v-266z" />
    <glyph glyph-name="L" unicode="L" horiz-adv-x="544" 
d="M210 149q0 -20 20 -20h240q60 0 60 -60q0 -59 -60 -59h-325q-27 0 -46.5 20t-19.5 46v615q0 66 66 66q65 0 65 -65v-543z" />
    <glyph glyph-name="M" unicode="M" horiz-adv-x="910" 
d="M459 274l180 419q11 29 35.5 46.5t57.5 17.5q46 0 72.5 -33.5t26.5 -88.5v-571q0 -64 -63 -64q-65 0 -65 64v487q-1 10 -5 0l-183 -419q-17 -43 -60 -43q-44 0 -60 43l-184 419q-4 10 -5 0v-487q0 -64 -64 -64q-63 0 -63 64v571q0 56 26.5 89t72.5 33q32 0 57 -17.5
t36 -46.5l180 -419q4 -11 8 0z" />
    <glyph glyph-name="N" unicode="N" horiz-adv-x="769" 
d="M552 252q7 -11 7 0v440q0 65 65 65q66 0 66 -65v-617q0 -35 -20.5 -55t-56.5 -20q-27 0 -43.5 15t-27.5 33l-325 473q-7 11 -7 0v-456q0 -65 -65 -65q-66 0 -66 65v612q0 37 21 58.5t58 21.5q23 0 40 -10.5t33 -35.5z" />
    <glyph glyph-name="O" unicode="O" horiz-adv-x="894" 
d="M702 378q0 54 -21 103t-56 84t-80.5 55.5t-98.5 20.5t-98.5 -20.5t-80.5 -55.5t-56 -84t-21 -103q0 -53 21 -101.5t56 -84.5q35 -35 80.5 -55t98.5 -20t98.5 20t80.5 55q35 36 56 84.5t21 101.5zM838 378q0 -79 -30.5 -148.5t-84.5 -121.5q-52 -52 -123.5 -82.5
t-152.5 -30.5t-152.5 30.5t-123.5 82.5q-54 52 -84.5 121.5t-30.5 148.5t30.5 149t84.5 123q52 51 123.5 81.5t152.5 30.5t152.5 -30.5t123.5 -81.5q54 -53 84.5 -123t30.5 -149z" />
    <glyph glyph-name="P" unicode="P" horiz-adv-x="630" 
d="M477 513q0 57 -33.5 88t-104.5 31h-109q-20 0 -20 -20v-198q0 -20 20 -20h109q71 0 104 30.5t34 88.5zM608 514q-1 -105 -71.5 -170t-180.5 -65h-126q-20 0 -20 -20v-194q0 -65 -65 -65q-66 0 -66 65v616q0 27 19.5 47t46.5 20h211q110 0 181 -67t71 -167z" />
    <glyph glyph-name="Q" unicode="Q" horiz-adv-x="894" 
d="M796 62q39 -39 -2 -77q-42 -37 -82 2l-64 63q-24 -13 -49 -24q-72 -31 -152 -31t-151.5 30.5t-124.5 82.5q-53 51 -84 121t-31 149t31 149.5t84 122.5t124.5 82t151.5 30t151.5 -30t124.5 -82t84 -122.5t31 -149.5t-31 -149q-27 -61 -70 -107zM555 142l-72 72
q-41 40 1 80t83 -1l78 -79q22 29 37 64q20 47 20 100q0 54 -20 102t-55 83q-35 36 -82 57t-99 21t-99 -21t-82 -57q-35 -35 -55 -83t-20 -102q0 -53 20 -100.5t55 -83.5t82 -56.5t99 -20.5t99 21z" />
    <glyph glyph-name="R" unicode="R" horiz-adv-x="663" 
d="M230 632q-20 0 -20 -20v-188q0 -20 20 -20h60q110 0 151.5 30.5t41.5 88.5q0 51 -41.5 80t-129.5 29h-82zM522 34l-172 244q-7 10 -19 10h-101q-20 0 -20 -20v-203q0 -65 -66 -65q-65 0 -65 65v616q0 27 19 47t46 20h191q134 0 205.5 -63t71.5 -162q0 -87 -40 -140
t-93 -70l149 -211q38 -53 -15 -89q-50 -35 -91 21z" />
    <glyph glyph-name="S" unicode="S" horiz-adv-x="640" 
d="M62 167q-15 63 40 76q62 14 81 -43q16 -47 54.5 -66.5t78.5 -19.5q67 0 106.5 27t39.5 84q0 42 -34.5 69.5t-100.5 42.5l-35 7q-103 18 -168 83q-22 25 -36 53t-14 64q0 99 73 158.5t185 59.5q88 0 150 -41.5t77 -98.5q18 -68 -35 -78q-59 -13 -78 36q-15 41 -48.5 54.5
t-68.5 13.5q-56 0 -92.5 -28t-36.5 -69q0 -29 29 -55q30 -26 111 -44q34 -9 60 -16q84 -23 136.5 -75t53.5 -128q-1 -114 -78 -176t-194 -62q-92 0 -163.5 46t-92.5 126z" />
    <glyph glyph-name="T" unicode="T" horiz-adv-x="547" 
d="M360 632q-20 0 -20 -20v-546q0 -66 -65 -66q-67 0 -67 66v546q0 20 -19 20h-122q-59 0 -59 58t59 58h415q58 0 58 -58t-58 -58h-122z" />
    <glyph glyph-name="U" unicode="U" horiz-adv-x="708" 
d="M502 691q0 66 67 66q65 0 65 -66v-394q0 -302 -280 -302t-280 302v394q0 66 66 66q65 0 65 -66v-367q0 -209 149 -209q148 0 148 208v368z" />
    <glyph glyph-name="V" unicode="V" horiz-adv-x="682" 
d="M337 212q4 -10 8 0l192 503q22 55 84 38q64 -17 38 -84l-238 -613q-22 -56 -80 -56q-57 0 -81 56l-238 613q-24 67 38 84t84 -38z" />
    <glyph glyph-name="W" unicode="W" horiz-adv-x="910" 
d="M569 56l-111 451q-3 11 -6 0l-111 -451q-15 -56 -74 -56q-58 0 -74 56l-175 620q-16 63 43 78q60 15 78 -42l125 -482q3 -10 6 0l124 482q11 45 61 45q49 0 61 -45l124 -482q3 -10 6 0l125 482q18 57 78 42t43 -78l-175 -620q-15 -56 -74 -56q-57 0 -74 56z" />
    <glyph glyph-name="X" unicode="X" horiz-adv-x="665" 
d="M340 486l198 248q36 44 89 5q46 -40 6 -89l-212 -266q-7 -9 0 -18l207 -258q43 -53 -6 -89q-53 -40 -89 5l-193 241q-7 9 -14 0l-194 -241q-35 -45 -89 -5q-47 36 -6 89l207 258q7 9 0 18l-212 266q-38 49 6 89q54 39 89 -5l199 -248q7 -9 14 0z" />
    <glyph glyph-name="Y" unicode="Y" horiz-adv-x="660" 
d="M325 452q7 -11 14 0l191 275q33 50 87 18q53 -34 18 -89l-231 -338q-6 -11 -6 -23v-230q0 -65 -66 -65q-65 0 -65 65v230q0 12 -7 23l-231 338q-33 55 18 89q55 32 87 -18z" />
    <glyph glyph-name="Z" unicode="Z" horiz-adv-x="634" 
d="M72 141l319 474q8 12 -3 12h-261q-60 0 -60 60q0 61 60 61h364q52 0 71 -39q20 -40 -16 -92l-326 -476q-8 -12 4 -12h301q60 0 60 -60q0 -59 -60 -59h-399q-51 0 -70 39q-20 39 16 92z" />
    <glyph glyph-name="bracketleft" unicode="[" horiz-adv-x="368" 
d="M260 -113h-92q-25 0 -43.5 18.5t-18.5 43.5v816q0 25 18.5 43.5t43.5 18.5h92q49 0 49 -50q0 -49 -49 -49h-19q-12 0 -12 -12v-718q0 -12 12 -12h19q49 0 49 -49q0 -50 -49 -50z" />
    <glyph glyph-name="backslash" unicode="\" 
d="M68 343q-44 0 -44 43q0 44 44 44h56l-69 246q-18 63 43 78q60 15 78 -42l73 -282h108l73 282q12 45 62 45q49 0 61 -45l73 -282h108l73 282q18 57 79 42q60 -15 42 -78l-69 -246h56q44 0 44 -44q0 -43 -44 -43h-80l-81 -287q-15 -56 -74 -56q-58 0 -75 56l-70 287h-86
l-71 -287q-15 -56 -75 -56q-57 0 -74 56l-81 287h-80zM470 430h44l-19 77q-3 11 -6 0zM712 343h-64l29 -113q3 -10 6 0zM335 343h-63l29 -113q2 -10 5 0z" />
    <glyph glyph-name="bracketright" unicode="]" horiz-adv-x="368" 
d="M108 -113q-49 0 -49 50q0 49 49 49h19q12 0 12 12v718q0 12 -12 12h-19q-49 0 -49 49q0 50 49 50h93q24 0 42.5 -18.5t18.5 -43.5v-816q0 -25 -18.5 -43.5t-42.5 -18.5h-93z" />
    <glyph glyph-name="asciicircum" unicode="^" horiz-adv-x="694" 
d="M355 660q-8 9 -16 0l-159 -175q-37 -41 -83 -7q-48 36 -12 78l205 222q25 30 57 30t57 -30l205 -222q36 -42 -11 -78q-47 -34 -84 7z" />
    <glyph glyph-name="underscore" unicode="_" horiz-adv-x="640" 
d="M86 -84q-49 0 -49 48q0 49 49 49h469q48 0 48 -49q0 -48 -48 -48h-469z" />
    <glyph glyph-name="grave" unicode="`" horiz-adv-x="421" 
d="M306 655q29 -42 -13 -67q-44 -28 -72 14l-106 155q-28 38 15 64q44 25 71 -13z" />
    <glyph glyph-name="a" unicode="a" horiz-adv-x="684" 
d="M167 278q0 -72 46 -120t115 -48q66 0 111 48t45 116q0 72 -44.5 121t-113.5 49q-67 0 -113 -47t-46 -119zM480 498q0 56 65 56q64 0 64 -55v-443q0 -56 -64 -56q-65 0 -65 56q-65 -56 -166 -56q-114 0 -195 79.5t-81 198.5q0 57 20.5 107t58.5 87q41 43 91 63.5t102 20.5
q105 0 170 -58z" />
    <glyph glyph-name="b" unicode="b" horiz-adv-x="684" 
d="M202 56q0 -56 -65 -56q-64 0 -64 56v636q0 65 65 65q64 0 64 -65v-195q71 60 170 60q53 0 102 -20.5t91 -63.5q38 -38 59 -87t21 -106q0 -121 -81.5 -200.5t-196.5 -79.5q-94 0 -165 56v0zM527 277q0 34 -13 64t-35 53q-22 22 -52 35.5t-64 13.5t-64 -13.5t-52 -35.5
q-23 -23 -35.5 -53t-12.5 -64q0 -33 12.5 -63.5t35.5 -53.5q22 -21 52 -34.5t64 -13.5t64 13.5t52 34.5q22 23 35 53.5t13 63.5z" />
    <glyph glyph-name="c" unicode="c" horiz-adv-x="615" 
d="M42 277q0 119 85.5 199.5t209.5 80.5q155 0 237 -120q33 -49 -16 -83q-48 -32 -82 18q-52 70 -139 70q-74 0 -119.5 -49t-46.5 -117q1 -67 46.5 -116t119.5 -49q87 0 139 73q34 51 82 18q48 -34 16 -82q-82 -125 -237 -125q-124 0 -209.5 82t-85.5 200z" />
    <glyph glyph-name="d" unicode="d" horiz-adv-x="684" 
d="M483 56q-71 -56 -165 -56q-115 0 -196.5 79.5t-81.5 200.5q0 57 21 106t59 87q42 43 91 63.5t102 20.5q99 0 170 -60v195q0 65 64 65q65 0 65 -65v-636q0 -56 -64 -56q-65 0 -65 56zM158 277q0 -33 13 -63.5t35 -53.5q22 -21 52.5 -34.5t63.5 -13.5q34 0 64 13.5t52 34.5
q23 23 36 53.5t13 63.5q0 34 -13 64t-36 53q-22 22 -52 35.5t-64 13.5q-33 0 -63.5 -13.5t-52.5 -35.5q-22 -23 -35 -53t-13 -64z" />
    <glyph glyph-name="e" unicode="e" horiz-adv-x="652" 
d="M476 336q-13 47 -51.5 77.5t-98.5 30.5q-56 0 -94.5 -31t-51.5 -77h296zM553 100q-83 -105 -228 -105q-126 0 -204.5 86.5t-78.5 195.5q0 114 83.5 197t199.5 83t197.5 -81.5t81.5 -173.5q0 -29 -20 -49t-68 -20h-340q3 -54 44.5 -88.5t105.5 -34.5q93 0 146 68
q31 42 80 6q42 -30 1 -84z" />
    <glyph glyph-name="f" unicode="f" horiz-adv-x="356" 
d="M231 64q0 -64 -65 -64q-64 0 -64 64v366q0 12 -12 12h-26q-52 0 -52 51q0 52 52 52h26q12 0 12 11v31q0 161 176 161h11q56 0 56 -53t-56 -53h-11q-47 0 -47 -47v-39q0 -11 12 -11h51q51 0 51 -52q0 -51 -51 -51h-51q-12 0 -12 -12v-366z" />
    <glyph glyph-name="g" unicode="g" horiz-adv-x="680" 
d="M167 279q0 -73 46 -119.5t115 -46.5q66 0 110.5 46.5t44.5 113.5q0 74 -44 122t-113 48q-67 0 -113 -46.5t-46 -117.5zM176 -37q27 -33 58.5 -46t76.5 -13q86 0 128.5 38t42.5 85v34q-79 -61 -168 -61q-113 0 -194.5 80t-81.5 199q0 57 20.5 107t58.5 86q41 44 90 64.5
t103 20.5q93 0 170 -60v2q0 55 64 55q65 0 65 -55v-438q0 -110 -74.5 -187.5t-216.5 -77.5q-85 0 -139 25.5t-87 62.5q-38 51 8 85q37 29 76 -6z" />
    <glyph glyph-name="h" unicode="h" horiz-adv-x="620" 
d="M75 65v627q0 65 64 65q65 0 65 -65v-189q46 48 125 48q93 0 156.5 -57.5t63.5 -157.5v-271q0 -65 -64 -65q-66 0 -66 65v236q0 77 -28 108t-75 31q-28 0 -54 -16t-40 -46q-8 -18 -13 -43t-5 -88v-182q0 -65 -64 -65q-65 0 -65 65z" />
    <glyph glyph-name="i" unicode="i" horiz-adv-x="274" 
d="M74 65v419q0 66 64 66q65 0 65 -66v-419q0 -65 -64 -65q-65 0 -65 65zM220 675q0 -33 -24 -57.5t-58 -24.5t-58 24.5t-24 57.5q0 34 24 58t58 24t58 -24t24 -58z" />
    <glyph glyph-name="j" unicode="j" horiz-adv-x="312" 
d="M69 -154q-58 0 -58 56q0 58 58 58q51 0 51 68v456q0 66 65 66t65 -66v-470q0 -169 -181 -168zM267 675q0 -33 -24.5 -57.5t-57.5 -24.5q-34 0 -58 24.5t-24 57.5q0 34 24 58t58 24q33 0 57.5 -24t24.5 -58z" />
    <glyph glyph-name="k" unicode="k" horiz-adv-x="577" 
d="M337 295q-9 -8 0 -16l194 -167q59 -47 16 -92q-39 -42 -90 1l-245 209q-8 9 -9 -4v-161q0 -65 -64 -65q-65 0 -65 65v627q0 65 64 65q65 0 65 -65v-344q0 -12 9 -4l217 188q48 38 86 -1q44 -45 -13 -90z" />
    <glyph glyph-name="l" unicode="l" horiz-adv-x="273" 
d="M74 65v627q0 65 64 65q65 0 65 -65v-627q0 -65 -64 -65q-65 0 -65 65z" />
    <glyph glyph-name="m" unicode="m" horiz-adv-x="907" 
d="M461 470q20 36 60 59t102 23q86 0 147.5 -51t61.5 -148v-288q0 -65 -64 -65q-66 0 -66 65v269q0 65 -27.5 88t-62.5 23q-42 0 -68.5 -32t-27.5 -121v-228q0 -64 -63 -64q-64 0 -64 64v231q0 93 -27 121.5t-67 28.5q-45 0 -69 -35.5t-24 -122.5v-222q0 -65 -63 -65
q-65 0 -65 65v438q0 51 61 51q62 0 62 -51v-2q42 51 111 51q48 0 90 -18.5t63 -63.5z" />
    <glyph glyph-name="n" unicode="n" horiz-adv-x="620" 
d="M419 65v242q0 81 -32 107t-73 26q-35 0 -72.5 -35.5t-37.5 -142.5v-197q0 -65 -64 -65q-65 0 -65 65v437q0 52 63 52t63 -52v-5q46 55 126 55q90 0 156 -54.5t66 -165.5v-267q0 -65 -64 -65q-66 0 -66 65z" />
    <glyph glyph-name="o" unicode="o" horiz-adv-x="648" 
d="M168 277q0 -73 44.5 -119t111.5 -46q68 0 112.5 46t44.5 119t-44.5 119t-112.5 46q-67 0 -111.5 -46.5t-44.5 -118.5zM38 276q0 56 19.5 105t58.5 86q41 44 94.5 67.5t109.5 23.5q60 0 112 -21t94 -62q41 -40 62.5 -89.5t21.5 -105.5q0 -53 -20 -104.5t-58 -89.5
q-41 -44 -94.5 -67.5t-113.5 -23.5q-59 0 -111.5 21.5t-92.5 61.5q-39 40 -60.5 91.5t-21.5 106.5z" />
    <glyph glyph-name="p" unicode="p" horiz-adv-x="685" 
d="M528 278q0 34 -12.5 64t-34.5 53q-22 22 -52 35.5t-64 13.5t-64 -13.5t-52 -35.5q-23 -23 -35.5 -53t-12.5 -64q0 -33 12.5 -63.5t35.5 -53.5q22 -21 52 -34.5t64 -13.5t64 13.5t52 34.5q22 23 34.5 53.5t12.5 63.5zM203 62v-202q0 -64 -64 -64q-65 0 -65 64v639
q0 55 64 55q66 0 66 -55v-4q72 61 164 61q115 0 196.5 -79.5t81.5 -198.5t-81.5 -198.5t-196.5 -79.5q-92 0 -165 62z" />
    <glyph glyph-name="q" unicode="q" horiz-adv-x="685" 
d="M157 278q0 -33 12.5 -63.5t34.5 -53.5q22 -21 52.5 -34.5t63.5 -13.5q34 0 64 13.5t52 34.5q23 23 36 53.5t13 63.5q0 34 -13 64t-36 53q-22 22 -52 35.5t-64 13.5q-33 0 -63.5 -13.5t-52.5 -35.5q-22 -23 -34.5 -53t-12.5 -64zM482 62q-73 -62 -165 -62
q-115 0 -196.5 79.5t-81.5 198.5t81.5 198.5t196.5 79.5q92 0 164 -61v4q0 55 66 55q64 0 64 -55v-639q0 -64 -65 -64q-64 0 -64 64v202z" />
    <glyph glyph-name="r" unicode="r" horiz-adv-x="406" 
d="M331 434h-10q-69 -6 -93.5 -35t-24.5 -103v-231q0 -65 -64 -65q-65 0 -65 65v438q0 51 62 51t62 -51v-1q17 24 46 37t77 13h10q60 0 60 -59t-60 -59z" />
    <glyph glyph-name="s" unicode="s" horiz-adv-x="506" 
d="M46 111q-28 64 33 81q51 14 75 -30q29 -60 96 -60q50 0 73 16t23 45q0 50 -125 76q-171 35 -171 152q0 71 53 119t151 48q138 0 188 -97q32 -61 -17 -80q-51 -19 -75 22q-28 49 -98 49q-44 0 -61 -16t-17 -41q0 -40 99 -62q196 -46 196 -167q0 -82 -62.5 -126.5
t-156.5 -44.5q-147 0 -204 116z" />
    <glyph glyph-name="t" unicode="t" horiz-adv-x="400" 
d="M268 426v-361q0 -65 -65 -65t-65 65v361q0 12 -12 12h-55q-54 0 -54 53q0 54 54 54h55q12 0 12 11v99q0 66 64 66q66 0 66 -66v-99q0 -11 12 -11h50q54 0 54 -54q0 -53 -53 -53h-51q-12 0 -12 -12z" />
    <glyph glyph-name="u" unicode="u" horiz-adv-x="620" 
d="M203 489v-243q0 -83 32 -108t73 -25q39 0 74.5 33t35.5 144v199q0 65 65 65t65 -65v-436q0 -53 -63 -53t-63 53v3q-46 -56 -126 -56q-92 0 -157 54.5t-65 166.5v268q0 65 64 65q65 0 65 -65z" />
    <glyph glyph-name="v" unicode="v" horiz-adv-x="526" 
d="M259 206q4 -11 8 0l119 307q21 55 79 37q59 -18 36 -77l-173 -424q-18 -49 -65 -49t-65 49l-173 424q-22 59 36 77t79 -37z" />
    <glyph glyph-name="w" unicode="w" horiz-adv-x="768" 
d="M388 331q-4 11 -8 0l-97 -288q-13 -43 -50 -43q-36 0 -51 43l-159 432q-18 59 39 76q59 16 78 -39l97 -283q4 -11 8 0l87 266q12 40 52 40q39 0 51 -40l87 -266q4 -11 8 0l97 283q19 55 78 39q59 -17 39 -76l-158 -432q-15 -43 -52 -43q-36 0 -49 43z" />
    <glyph glyph-name="x" unicode="x" horiz-adv-x="511" 
d="M259 378l120 146q40 52 85 18q53 -40 16 -87l-142 -171q-4 -6 0 -13l138 -167q37 -48 -5 -85q-49 -43 -90 10l-122 148q-4 5 -8 0l-123 -148q-41 -53 -89 -10q-39 37 -5 85l139 167q5 7 0 13l-143 171q-34 49 16 87q45 33 85 -18l120 -146q4 -5 8 0z" />
    <glyph glyph-name="y" unicode="y" horiz-adv-x="560" 
d="M532 455l-272 -616q-26 -60 -84 -36q-59 24 -31 81l63 142q5 11 -1 22l-179 407q-28 73 28 94q57 20 80 -34l138 -318q5 -12 10 0q64 146 138 318q23 54 82 34q57 -21 28 -94z" />
    <glyph glyph-name="z" unicode="z" horiz-adv-x="483" 
d="M100 10q-57 0 -73 46q-17 49 15 87l246 290q8 12 -4 12h-192q-56 0 -56 54q0 56 56 56h271q61 0 79 -34q26 -49 -12 -94l-249 -294q-9 -12 3 -12h222q56 0 56 -56q0 -55 -56 -55h-306z" />
    <glyph glyph-name="braceleft" unicode="{" horiz-adv-x="540" 
d="M122 354q0 62 61 62q40 0 64 21t24 89v130q0 176 160 176q50 0 50 -49q0 -50 -50 -50q-39 0 -38 -98v-134q0 -73 -25 -104t-66 -43q41 -11 66 -42t25 -104v-134q-1 -98 38 -98q50 0 50 -50q0 -49 -50 -49q-160 0 -160 176v130q0 68 -24 89t-64 21q-61 0 -61 61z" />
    <glyph glyph-name="bar" unicode="|" horiz-adv-x="600" 
d="M240 780q0 62 61 62q62 0 62 -62v-823q0 -62 -62 -62q-61 0 -61 62v823z" />
    <glyph glyph-name="braceright" unicode="}" horiz-adv-x="540" 
d="M418 354q0 -61 -61 -61q-41 0 -64.5 -21t-23.5 -89v-130q0 -176 -161 -176q-49 0 -49 49q0 50 49 50q40 0 39 98v134q0 73 25 104t65 42q-40 12 -65 43t-25 104v134q1 98 -39 98q-49 0 -49 50q0 49 49 49q161 0 161 -176v-130q0 -68 23.5 -89t64.5 -21q61 0 61 -62z" />
    <glyph glyph-name="asciitilde" unicode="~" horiz-adv-x="686" 
d="M162 344q-22 -45 -72 -31t-29 71q50 112 171 112q39 0 68.5 -14.5t53.5 -38.5q28 -28 49 -47.5t50 -19.5q51 0 74 55q21 43 70 29q48 -13 29 -69q-49 -114 -173 -114q-42 0 -75 14.5t-57 39.5q-26 23 -44 39.5t-45 16.5q-47 0 -70 -43z" />
    <glyph glyph-name="uni007F" horiz-adv-x="500" 
d="M367 64v574h-230v-574h230zM63 710h379v-718h-379v718z" />
    <glyph glyph-name="uni0081" 
d="M68 343q-44 0 -44 43q0 44 44 44h56l-69 246q-18 63 43 78q60 15 78 -42l73 -282h108l73 282q12 45 62 45q49 0 61 -45l73 -282h108l73 282q18 57 79 42q60 -15 42 -78l-69 -246h56q44 0 44 -44q0 -43 -44 -43h-80l-81 -287q-15 -56 -74 -56q-58 0 -75 56l-70 287h-86
l-71 -287q-15 -56 -75 -56q-57 0 -74 56l-81 287h-80zM470 430h44l-19 77q-3 11 -6 0zM712 343h-64l29 -113q3 -10 6 0zM335 343h-63l29 -113q2 -10 5 0z" />
    <glyph glyph-name="uni0082" 
d="M277 392q0 59 59 59h310q59 0 59 -59t-59 -59h-310q-59 0 -59 59z" />
    <glyph glyph-name="uni0083" 
d="M257 366q0 97 70.5 164.5t170.5 67.5q126 0 193 -99q29 -43 -14 -72q-42 -30 -73 15q-40 53 -106 53q-57 0 -91 -38.5t-35 -90.5q1 -51 35 -89.5t91 -38.5q66 0 106 56q31 45 73 15t14 -72q-67 -102 -193 -102q-100 0 -170.5 68t-70.5 163zM948 373q0 -93 -36 -175.5
t-99 -143.5q-61 -60 -144.5 -96.5t-176.5 -36.5t-177 36.5t-145 96.5q-63 61 -99 143.5t-36 175.5t36 176t99 144q61 59 145 96t177 37t176.5 -37t144.5 -96q63 -61 99 -144t36 -176zM848 373q0 73 -28.5 138t-77.5 113q-47 48 -112.5 77t-137.5 29q-73 0 -138 -29t-114 -77
q-47 -48 -76 -113t-29 -138q0 -72 29 -137.5t76 -113.5q49 -48 114 -76.5t138 -28.5q72 0 137.5 28.5t112.5 76.5q49 48 77.5 113.5t28.5 137.5z" />
    <glyph glyph-name="uni0084" 
d="M223 703h-64q-51 0 -51 51t51 51h259q51 0 51 -51t-51 -51h-63q-12 0 -12 -12v-190q0 -53 -53 -53q-55 0 -55 53v190q0 12 -12 12zM585 781l94 -124q15 -19 29 0l94 124q18 24 47 24q24 0 41 -14.5t17 -63.5v-226q0 -53 -52 -53q-54 0 -54 53v135l-83 -106q-25 -33 -51 0
l-80 105v-138q0 -49 -50 -49t-50 49v235q0 44 15.5 58.5t37.5 14.5q27 0 45 -24z" />
    <glyph glyph-name="uni0085" unicode="&#x85;" 
d="M248 397q0 -29 -20.5 -49.5t-48.5 -20.5q-29 0 -49.5 20.5t-20.5 49.5t20.5 49.5t49.5 20.5q28 0 48.5 -20.5t20.5 -49.5zM561 397q0 -29 -20.5 -49.5t-48.5 -20.5q-29 0 -49.5 20.5t-20.5 49.5t20.5 49.5t49.5 20.5q28 0 48.5 -20.5t20.5 -49.5zM874 397
q0 -29 -20.5 -49.5t-49.5 -20.5q-28 0 -48.5 20.5t-20.5 49.5t20.5 49.5t48.5 20.5q29 0 49.5 -20.5t20.5 -49.5z" />
    <glyph glyph-name="uni00A0" unicode="&#xa0;" horiz-adv-x="250" 
d="M0 -141z" />
    <glyph glyph-name="exclamdown" unicode="&#xa1;" 
d="M426 45v456q0 66 67 66q65 0 65 -66v-456q0 -67 -65 -67q-67 0 -67 67zM569 715q0 -32 -23 -54.5t-54 -22.5q-32 0 -54.5 22.5t-22.5 54.5t22.5 54.5t54.5 22.5q31 0 54 -22.5t23 -54.5z" />
    <glyph glyph-name="cent" unicode="&#xa2;" 
d="M522 27q-45 0 -85 8l-27 -76q-15 -41 -57 -26q-41 16 -28 58l26 74q-48 24 -85 66q-98 110 -98 249q0 157 98 255q101 104 256 104q36 0 69 -6l21 59q17 39 57 27q42 -15 29 -59l-20 -56q74 -38 124 -117q37 -59 -17 -89q-49 -26 -81 22q-30 45 -67 71l-160 -446
q22 -4 46 -4q119 0 182 105q30 48 82 21q53 -26 16 -89q-89 -151 -281 -151zM552 623q-14 2 -29 2q-108 0 -169 -71q-62 -71 -62 -173q0 -97 62 -170q17 -20 38 -34z" />
    <glyph glyph-name="sterling" unicode="&#xa3;" 
d="M375 142q-9 6 -21.5 11t-27.5 5q-12 0 -22.5 -9t-12.5 -25q-1 -12 10 -22.5t26 -10.5q18 0 30 15t18 36zM686 166q16 50 64 44q50 -10 35 -64q-6 -18 -21 -50.5t-36 -53.5q-21 -23 -48 -33t-63 -10q-35 1 -73 21t-80 55q-15 -31 -53.5 -54.5t-86.5 -23.5
q-51 0 -93.5 33.5t-42.5 93.5q0 29 10 53t30 43q19 15 44 24.5t54 9.5q31 0 53 -9q-2 16 -7 42t-11 46h-109q-44 0 -44 43q0 44 44 44h82q-10 26 -19.5 61t-9.5 71q0 99 60.5 154.5t155.5 55.5q47 0 86.5 -14.5t67.5 -42.5q19 -19 33 -45.5t17 -52.5q7 -60 -35 -68
q-58 -11 -68 47q-9 40 -36.5 58t-64.5 18q-45 0 -72.5 -26t-27.5 -79q0 -32 9.5 -66t21.5 -71h253q44 0 44 -44q0 -43 -44 -43h-228q9 -36 12.5 -75.5t0.5 -70.5q14 -13 33.5 -26.5t38.5 -26.5q65 -43 98 -7q10 12 16 21t10 18z" />
    <glyph glyph-name="currency" unicode="&#xa4;" horiz-adv-x="950" 
d="M816 375q0 -70 -27 -132q-21 -47 -52 -86l123 -122l-50 -49l-121 123q-38 -31 -84 -52q-63 -27 -134 -27q-73 0 -135 27q-47 21 -85 52l-122 -123l-50 49l123 123q-30 38 -50 85q-28 62 -28 132q0 72 28 134q20 46 51 86l-123 124l50 49l123 -124q38 30 83 50
q63 27 135 27q70 0 133 -27q46 -20 83 -49l122 123l50 -49l-123 -123q33 -40 54 -87q26 -62 26 -134zM723 375q0 55 -20.5 103t-53.5 82q-36 37 -82.5 57.5t-95.5 20.5q-51 0 -97.5 -20.5t-81.5 -57.5q-33 -34 -54 -82t-21 -103q0 -53 21 -101t54 -84q35 -35 81.5 -55.5
t97.5 -20.5q49 0 95.5 20.5t82.5 55.5q33 36 53.5 84t20.5 101z" />
    <glyph glyph-name="yen" unicode="&#xa5;" 
d="M183 490q-46 0 -46 46t46 46h81l-40 70q-30 52 23 83q52 32 84 -21l69 -132h183l69 132q33 53 84 21q54 -31 23 -83l-40 -70h80q47 0 47 -46t-47 -46h-132l-65 -114h197q47 0 47 -46t-47 -46h-242v-219q0 -65 -65 -65q-66 0 -66 65v219h-243q-46 0 -46 46t46 46h198
l-65 114h-133zM535 490h-87l44 -83z" />
    <glyph glyph-name="section" unicode="&#xa7;" horiz-adv-x="492" 
d="M272 -67q-74 0 -131 44t-57 101q0 26 30 26q32 0 35 -26q5 -12 24 -40q9 -13 35.5 -31t56.5 -18q37 0 61 18t25 43q1 18 -10 33q-7 9 -36 35.5t-64 52.5q-42 32 -84 67.5t-60 60.5q-16 18 -25 42t-9 44q0 48 30.5 82t87.5 37q-11 10 -23 21q-24 22 -54 61t-30 79
q0 59 48 104t115 45q71 0 120.5 -44.5t49.5 -105.5q0 -26 -29 -26q-29 1 -34 26q-6 24 -16 43q-9 17 -37.5 34.5t-56.5 17.5q-38 0 -60.5 -20t-22.5 -54q0 -11 7 -29.5t21 -33.5q15 -16 44 -43.5t61 -53.5q34 -27 64 -54.5t44 -45.5q13 -17 21.5 -39.5t8.5 -43.5
q-1 -59 -32.5 -89.5t-82.5 -30.5q10 -8 23 -17q31 -22 62 -50q18 -18 29 -43.5t11 -48.5q0 -52 -46.5 -91t-113.5 -39zM273 419q-28 23 -37 28t-14 8q-6 2 -15 2q-28 0 -47.5 -16t-19.5 -41q0 -18 20 -47t51 -53q18 -15 42.5 -26.5t36.5 -11.5q19 0 33.5 15.5t14.5 38.5
q-6 55 -65 103z" />
    <glyph glyph-name="dieresis" unicode="&#xa8;" 
d="M316 671q0 -31 -22 -53.5t-53 -22.5t-53 22.5t-22 53.5q0 32 22 54.5t53 22.5t53 -22.5t22 -54.5zM807 671q0 -31 -22 -53.5t-53 -22.5t-53 22.5t-22 53.5q0 32 22 54.5t53 22.5t53 -22.5t22 -54.5z" />
    <glyph glyph-name="copyright" unicode="&#xa9;" 
d="M257 366q0 97 70.5 164.5t170.5 67.5q126 0 193 -99q29 -43 -14 -72q-42 -30 -73 15q-40 53 -106 53q-57 0 -91 -38.5t-35 -90.5q1 -51 35 -89.5t91 -38.5q66 0 106 56q31 45 73 15t14 -72q-67 -102 -193 -102q-100 0 -170.5 68t-70.5 163zM948 373q0 -93 -36 -175.5
t-99 -143.5q-61 -60 -144.5 -96.5t-176.5 -36.5t-177 36.5t-145 96.5q-63 61 -99 143.5t-36 175.5t36 176t99 144q61 59 145 96t177 37t176.5 -37t144.5 -96q63 -61 99 -144t36 -176zM848 373q0 73 -28.5 138t-77.5 113q-47 48 -112.5 77t-137.5 29q-73 0 -138 -29t-114 -77
q-47 -48 -76 -113t-29 -138q0 -72 29 -137.5t76 -113.5q49 -48 114 -76.5t138 -28.5q72 0 137.5 28.5t112.5 76.5q49 48 77.5 113.5t28.5 137.5z" />
    <glyph glyph-name="ordfeminine" unicode="&#xaa;" 
d="M670 364q40 0 40 -38q0 -39 -40 -39h-355q-40 0 -40 39q0 38 40 38h355zM381 602q0 -45 29 -75t70 -30q43 0 71 30t28 74q0 43 -28 74t-72 31q-40 0 -69 -29.5t-29 -74.5zM577 740q0 35 40 35q41 0 41 -35v-277q0 -35 -41 -35q-40 0 -40 35q-42 -35 -104 -35
q-71 0 -122.5 50t-51.5 124q0 35 13.5 66.5t37.5 54.5q25 27 56.5 40t64.5 13q64 0 106 -36z" />
    <glyph glyph-name="guillemotleft" unicode="&#xab;" horiz-adv-x="1000" 
d="M601 0l-481 342q-52 38 0 76l481 341q33 24 61 -11q20 -34 -11 -57l-442 -312l442 -311q31 -23 11 -57q-28 -35 -61 -11zM842 0l-482 342q-55 37 0 76l482 341q33 24 61 -11q20 -34 -11 -57l-443 -312l443 -311q31 -23 11 -57q-28 -35 -61 -11z" />
    <glyph glyph-name="logicalnot" unicode="&#xac;" 
d="M812 149q0 9 -10 9h-706q-47 0 -47 55q0 54 47 54h779q22 0 40 -18t18 -40v-206q0 -65 -60 -65q-61 0 -61 70v141z" />
    <glyph glyph-name="uni00AD" unicode="&#xad;" 
d="M324 338q-53 0 -53 53q0 54 53 54h335q53 0 53 -54q0 -53 -53 -53h-335z" />
    <glyph glyph-name="registered" unicode="&#xae;" 
d="M423 557q-13 0 -13 -13v-125q0 -14 13 -14h42q73 0 101 20.5t28 59.5q0 33 -28 52.5t-85 19.5h-58zM623 131l-123 176q-2 4 -10 4h-67q-13 0 -13 -14v-146q0 -47 -53 -47t-53 48v449q0 19 16 34.5t35 15.5h140q96 0 149.5 -46t53.5 -120q0 -65 -29.5 -104t-62.5 -49
l102 -146q32 -42 -11 -72q-41 -29 -74 17zM957 373q0 -94 -37 -178.5t-101 -146.5q-62 -61 -147.5 -98.5t-179.5 -37.5t-180 37.5t-148 98.5q-63 62 -100.5 146.5t-37.5 178.5t37.5 179t100.5 147q62 60 148 98t180 38t179.5 -38t147.5 -98q64 -62 101 -147t37 -179z
M855 373q0 74 -29 140.5t-79 115.5q-49 49 -115.5 78.5t-139.5 29.5q-74 0 -140.5 -29.5t-116.5 -78.5q-48 -49 -77.5 -115.5t-29.5 -140.5q0 -73 29.5 -140t77.5 -116q50 -49 116.5 -78t140.5 -29q73 0 139.5 29t115.5 78q50 49 79 116t29 140z" />
    <glyph glyph-name="degree" unicode="&#xb0;" 
d="M406 676q0 -56 -42.5 -96.5t-98.5 -40.5t-99 40.5t-43 96.5t43 96.5t99 40.5t98.5 -40.5t42.5 -96.5zM331 676q0 26 -20 46.5t-46 20.5t-46 -20.5t-20 -46.5t20 -46t46 -20t46 20t20 46z" />
    <glyph glyph-name="plusminus" unicode="&#xb1;" 
d="M711 526q57 0 57 -57q0 -56 -57 -56h-157v-138q0 -62 -62 -62q-64 0 -63 62v138h-161q-57 0 -57 56q0 57 57 57h161v132q0 63 63 63q62 0 62 -63v-132h157zM270 65q-57 0 -57 57q0 56 57 56h443q57 0 57 -56q0 -57 -57 -57h-443z" />
    <glyph glyph-name="uni00B2" unicode="&#xb2;" horiz-adv-x="492" 
d="M284 482h-198q-29 0 -38 26q-10 27 11 45l131 117q30 28 30 49q0 18 -10 25.5t-25 7.5q-20 0 -32 -13q-9 -8 -11 -22q-7 -42 -45 -40q-43 3 -37 51q5 38 32 66q34 39 93 39q52 0 87.5 -33.5t35.5 -77.5q0 -51 -50 -94l-71 -66l-0.5 -1t3.5 -1h95q38 0 38 -39t-39 -39z
" />
    <glyph glyph-name="uni00B3" unicode="&#xb3;" horiz-adv-x="492" 
d="M96 830h162q16 0 29.5 -13.5t13.5 -31.5q0 -16 -13 -30l-55 -49l11.5 -4.5t28.5 -17.5q20 -18 30 -37t10 -50q-2 -26 -11 -48t-27 -39q-19 -18 -45.5 -28.5t-55.5 -10.5q-30 0 -55.5 10.5t-45.5 28.5q-32 33 -34 67q-1 36 38 37q38 4 47 -31q6 -20 31 -32q10 -3 20 -3
q9 0 18.5 3.5t16.5 10.5q6 7 10 16t4 18q0 12 -3 20.5t-10 15.5q-8 8 -17.5 10t-16.5 2q-11 0 -15 -1h-8q-17 0 -29 11t-12 26q0 17 13 28l44 41q1 2 -3 2h-72q-38 0 -38 39q0 40 39 40z" />
    <glyph glyph-name="acute" unicode="&#xb4;" 
d="M397 686l112 125q35 39 84 8q52 -35 5 -78l-128 -113q-38 -35 -68 -8q-36 32 -5 66z" />
    <glyph glyph-name="paragraph" unicode="&#xb6;" 
d="M722 794v-863h-89v784h-72v-784h-88v488h-38q-70 0 -122 51q-52 53 -52 136q0 82 51 133q58 55 129 55h281z" />
    <glyph glyph-name="periodcentered" unicode="&#xb7;" horiz-adv-x="338" 
d="M259 396q0 -32 -22.5 -54t-52.5 -22q-31 0 -53.5 22t-22.5 54t22.5 54t53.5 22q30 0 52.5 -22t22.5 -54z" />
    <glyph glyph-name="cedilla" unicode="&#xb8;" 
d="M471 -117q-43 -3 -96 16l28 69q28 -11 51 -9q39 2 44 34q6 33 -67 33l59 131h112l-36 -87q42 -20 37 -73q-3 -41 -35 -74q-36 -36 -97 -40z" />
    <glyph glyph-name="uni00B9" unicode="&#xb9;" horiz-adv-x="492" 
d="M199 518q0 -42 -44 -42t-44 42v225q0 6 -6 6h-32q-39 0 -39 38q0 40 39 40h87q39 0 39 -35v-274z" />
    <glyph glyph-name="ordmasculine" unicode="&#xba;" 
d="M492 815q42 0 79 -15t67 -45q28 -29 42.5 -65t14.5 -80q0 -45 -14.5 -81t-42.5 -64q-30 -29 -67 -43.5t-79 -14.5q-43 0 -79.5 14.5t-66.5 43.5q-30 28 -43.5 64t-13.5 81q0 44 13.5 80t43.5 65q30 30 66.5 45t79.5 15zM375 610q0 -28 8 -50t25 -39q18 -18 39 -27.5
t45 -9.5q23 0 44.5 9.5t39.5 27.5q17 17 25.5 39t8.5 50q0 27 -8.5 50t-25.5 41q-18 18 -39.5 27t-44.5 9q-24 0 -45 -9t-39 -27q-17 -18 -25 -41t-8 -50zM280 355h423v-78h-423v78z" />
    <glyph glyph-name="guillemotright" unicode="&#xbb;" 
d="M393 0q-33 -24 -61 11q-20 34 11 57l442 311l-442 312q-31 23 -11 57q28 35 61 11l481 -341q52 -38 0 -76zM152 0q-33 -24 -61 11q-20 34 11 57l443 311l-443 312q-31 23 -11 57q28 35 61 11l482 -341q55 -39 0 -76z" />
    <glyph glyph-name="onequarter" unicode="&#xbc;" 
d="M225 725q0 10 -12 10h-34q-47 0 -47 38q0 40 47 40h98q22 0 37.5 -13.5t15.5 -30.5v-332q0 -46 -53 -46q-52 0 -52 46v288zM625 71q-4 -6 4 -6h78q8 0 8 7v112q0 8 -5 0zM819 -50q0 -45 -50 -45q-54 0 -54 45v29q0 8 -9 8h-140q-58 0 -58 54q0 14 9 27l189 250
q20 24 53 24q60 0 60 -49v-220q0 -8 10 -8h28q46 0 46 -37q0 -41 -46 -41h-28q-10 0 -10 -8v-29zM190 -66q-35 -39 -74 -4q-37 33 -3 70l683 779q32 37 69 4q38 -34 7 -70z" />
    <glyph glyph-name="onehalf" unicode="&#xbd;" 
d="M225 725q0 10 -12 10h-34q-47 0 -47 38q0 40 47 40h98q22 0 37.5 -13.5t15.5 -30.5v-332q0 -46 -53 -46q-52 0 -52 46v288zM719 -19q-7 -8 5 -8h118q40 0 40 -38q0 -41 -42 -41h-229q-38 0 -47 28q-12 27 12 47l157 140q42 39 42 77q0 25 -17 39.5t-46 14.5
q-28 0 -46 -15q-14 -11 -15 -34q-2 -39 -48 -39q-48 0 -46 50q5 47 37 75q45 41 123 42q72 -1 115 -39t44 -93q1 -67 -69 -127zM190 -66q-35 -39 -74 -4q-37 33 -3 70l683 779q32 37 69 4q38 -34 7 -70z" />
    <glyph glyph-name="threequarters" unicode="&#xbe;" 
d="M625 71q-4 -6 4 -6h78q8 0 8 7v112q0 8 -5 0zM819 -50q0 -45 -50 -45q-54 0 -54 45v29q0 8 -9 8h-140q-58 0 -58 54q0 14 9 27l189 250q20 24 53 24q60 0 60 -49v-220q0 -8 10 -8h28q46 0 46 -37q0 -41 -46 -41h-28q-10 0 -10 -8v-29zM190 -66q-35 -39 -74 -4
q-37 33 -3 70l683 779q32 37 69 4q38 -34 7 -70zM159 818h208q21 0 37 -13.5t16 -32.5q0 -17 -15 -29l-88 -77q38 -7 68 -26q61 -41 61 -99q0 -68 -62 -114q-18 -14 -53 -25.5t-72 -11.5q-63 0 -100 23t-56 57q-24 43 24 64q31 14 61 -31q14 -19 32 -28.5t40 -9.5
q30 0 54 20t24 53q0 13 -6.5 26.5t-18.5 24.5q-11 11 -26.5 14t-21.5 3h-42q-19 0 -32.5 9.5t-13.5 25.5q0 14 15 25l80 74h-113q-48 0 -48 38q0 40 48 40z" />
    <glyph glyph-name="questiondown" unicode="&#xbf;" 
d="M557 509v-22q0 -83 -108 -166q-64 -50 -64 -104q0 -49 29.5 -77.5t81.5 -28.5q44 0 73.5 31.5t29.5 75.5q0 59 63 61q61 2 61 -65q0 -95 -65 -157t-169 -62q-103 0 -170 64t-67 156q0 114 99 176q75 48 75 105v13q0 68 66 68q65 0 65 -68zM414 718q0 31 23 54t55 23
q31 0 53.5 -23t22.5 -54q0 -32 -22.5 -54.5t-53.5 -22.5q-32 0 -55 22.5t-23 54.5z" />
    <glyph glyph-name="AE" unicode="&#xc6;" 
d="M502 576l-135 -265h135v265zM596 354v-247h268v-88h-362v209h-178l-106 -209h-99l383 736h359v-88h-265v-227h238v-86h-238z" />
    <glyph glyph-name="Eth" unicode="&#xd0;" 
d="M514 755q133 0 202 -45q83 -55 104 -143q16 -66 15 -180q0 -113 -15 -180q-21 -88 -104 -143q-70 -45 -181 -45h-249v261h-139v80h139v395h228zM519 659h-124v-299h133v-80h-133v-165h143q78 0 122 37q41 35 53 85.5t13 149.5q0 108 -12 155t-53 80q-50 37 -142 37z" />
    <glyph glyph-name="multiply" unicode="&#xd7;" 
d="M492 305l-155 -154q-41 -42 -83 1q-41 40 1 82l153 153l-152 154q-42 41 0 83q41 40 82 -1l154 -153l153 153q42 41 82 1q42 -42 0 -83l-152 -154l153 -153q42 -42 1 -82q-41 -43 -83 -1z" />
    <glyph glyph-name="Oslash" unicode="&#xd8;" 
d="M492 16q-58 0 -103 13l-29 -72h-85l41 103q0 1 -1 1q-84 52 -106 140q-15 64 -15 125v122q1 61 17 127q21 84 101 138q67 45 180 45q58 0 104 -12l28 70h83l-40 -100q2 -2 4 -3q80 -54 101 -138q17 -66 18 -127v-122q0 -61 -16 -125q-24 -86 -105 -140q-68 -45 -177 -45z
M492 104q81 0 127 39q43 34 56 85q12 44 12 102v114q0 58 -12 104q-11 43 -46 76l-207 -511q31 -9 70 -9zM562 661q-32 9 -70 9q-84 0 -127 -38q-43 -35 -57 -84q-11 -46 -11 -104v-114q0 -58 11 -102q10 -45 45 -77z" />
    <glyph glyph-name="Thorn" unicode="&#xde;" 
d="M217 755h105v-116h196q117 0 182 -67t65 -168q0 -99 -65.5 -166t-181.5 -67h-196v-152h-105v736zM322 546v-282h179q82 0 117 39.5t35 100.5q0 62 -35 102t-117 40h-179z" />
    <glyph glyph-name="germandbls" unicode="&#xdf;" 
d="M477 666q-96 0 -96 -115v-116q49 -6 106 3q45 7 67 35.5t22 78.5q0 65 -26 89.5t-73 24.5zM678 569q-1 -126 -74 -166q39 -15 66.5 -58t27.5 -112q0 -62 -20 -107q-40 -86 -158 -98q-67 -7 -139 8v-25h-97v559q0 174 176 185q85 5 142 -31q42 -26 59 -67t17 -88zM381 130
q67 -23 131 -11q42 7 64.5 36t22.5 81q0 56 -29.5 82t-74.5 32q-63 7 -114 4v-224z" />
    <glyph glyph-name="ae" unicode="&#xe6;" 
d="M549 388q-10 -29 -12 -62h182q0 28 -11 62q-11 32 -32.5 48.5t-48.5 16.5q-24 0 -45.5 -16.5t-32.5 -48.5zM687 115q25 21 32 60h95q-9 -81 -54 -126q-50 -46 -125 -46q-86 1 -134 68q-4 7 -8 13q-3 -3 -6 -8q-60 -73 -160 -73q-75 0 -122 51q-38 40 -38 113q0 76 45 119
t113 43h115v54q0 29 -21.5 52t-58.5 23q-39 0 -62 -20t-25 -77h-95q4 100 53.5 143.5t134.5 43.5q63 0 112 -42q13 -12 22 -25q45 65 127 65q94 0 141 -72.5t47 -198.5v-37h-278q0 -61 28.5 -101.5t71.5 -40.5q29 0 50 19zM440 207v38h-88q-40 -4 -62 -17q-27 -19 -27 -61
q0 -32 16 -49q20 -22 60 -21q51 2 82 44q19 24 19 66z" />
    <glyph glyph-name="eth" unicode="&#xf0;" 
d="M616 242q0 63 -36 98.5t-92 35.5q-59 0 -94.5 -40t-35.5 -106q0 -63 36.5 -99.5t94.5 -36.5q61 0 93 39q34 43 34 109zM471 628q-52 47 -111 83l54 61q89 -45 141 -94l8 -8l136 63l29 -69l-113 -51q55 -71 87 -161q31 -91 27 -181q-5 -123 -68 -196t-169 -73t-174 64
t-68 165q0 105 67 169.5t172 64.5q65 0 111 -38q-6 29 -28 73q-18 37 -47 72l-140 -64l-41 61z" />
    <glyph glyph-name="divide" unicode="&#xf7;" 
d="M236 336q-56 0 -56 56q0 57 56 57h511q56 0 56 -57q0 -56 -56 -56h-511zM574 629q0 -34 -24.5 -58t-57.5 -24q-34 0 -58.5 24t-24.5 58q0 33 24.5 57.5t58.5 24.5q33 0 57.5 -24.5t24.5 -57.5zM574 155q0 -33 -24.5 -57.5t-57.5 -24.5q-34 0 -58.5 24.5t-24.5 57.5
q0 34 24.5 58.5t58.5 24.5q33 0 57.5 -24.5t24.5 -58.5z" />
    <glyph glyph-name="oslash" unicode="&#xf8;" 
d="M734 272q0 -53 -16.5 -105.5t-47.5 -91.5q-65 -74 -178 -74q-26 0 -50 4l-52 -127h-86l64 153q-31 17 -55 44q-31 38 -48 91t-17 106q0 55 17 108.5t48 89.5q65 76 179 76q47 0 87 -13l44 107h83l-60 -145q13 -11 25 -25q31 -37 47 -90t16 -108zM632 271q0 80 -28 124
l-126 -305q7 -1 14 -1q66 0 103 47q37 46 37 135zM543 448q-23 6 -51 6q-67 0 -103 -46q-39 -47 -39 -137t39 -135q8 -10 15 -18z" />
    <glyph glyph-name="thorn" unicode="&#xfe;" 
d="M371 -130h-105v856h105v-230q19 20 44 34q42 22 91 22q88 0 141 -49q42 -38 58 -102q12 -47 12 -118q0 -72 -13 -118q-16 -62 -59 -101q-53 -51 -139 -51q-53 0 -96 22q-22 12 -39 27v-192zM608 283q0 87 -20 125q-28 50 -97 50q-60 0 -95 -57q-22 -34 -23 -118
q-1 -83 22 -119q34 -56 96 -56q65 0 95 51q22 40 22 124z" />
    <glyph glyph-name="dcroat" unicode="&#x111;" 
d="M547 755h103v-94h133v-75h-133v-567h-103v51q-21 -25 -47 -41q-39 -24 -91 -24q-84 0 -138 51q-41 36 -58 100q-12 47 -12 118q0 74 12 118q17 62 58 101q53 52 138 52q51 0 88 -19q26 -15 50 -44v104h-146v75h146v94zM307 274q0 -83 22 -123q27 -52 96 -52q62 0 96 53
q22 33 22 122q0 82 -25 119q-35 57 -93 57q-70 0 -97 -52q-21 -38 -21 -124z" />
    <glyph glyph-name="Hbar" unicode="&#x126;" 
d="M226 19v561h-120v80h120v95h109v-95h316v95h109v-95h116v-80h-116v-561h-109v333h-316v-333h-109zM335 580v-142h316v142h-316z" />
    <glyph glyph-name="hbar" unicode="&#x127;" 
d="M336 19v567h-133v75h133v94h105v-94h143v-75h-143v-122q20 30 59 54q33 23 95 27q91 6 138.5 -45t47.5 -147v-334h-105v332q0 52 -22 77t-72 25q-61 0 -101 -46t-40 -117v-271h-105z" />
    <glyph glyph-name="dotlessi" unicode="&#x131;" 
d="M439 17v516h105v-516h-105z" />
    <glyph glyph-name="IJ" unicode="&#x132;" 
d="M203 19v736h108v-736h-108zM780 755v-553q1 -49 -18 -94q-20 -46 -67.5 -74.5t-125.5 -28.5q-99 0 -148 54.5t-49 161.5v46h109v-38q-1 -60 17 -94.5t74 -34.5q54 0 77 30.5t22 85.5v539h109z" />
    <glyph glyph-name="ij" unicode="&#x133;" 
d="M302 18v516h101v-516h-101zM408 753v-108h-111v108h111zM681 534v-527q0 -68 -35 -99t-95 -30q-23 -1 -53 5v82q19 -2 27 -2.5t16 -0.5q22 0 30 12.5t8 50.5v509h102zM686 753v-108h-112v108h112z" />
    <glyph glyph-name="kgreenlandic" unicode="&#x138;" 
d="M265 17v517h105v-220l226 220h122l-219 -222l217 -295h-114l-175 236l-57 -57v-179h-105z" />
    <glyph glyph-name="Ldot" unicode="&#x13f;" 
d="M247 19v736h113v-641h376v-95h-489zM653 430q0 -29 -21 -49t-49 -20q-30 0 -51 20t-21 49q0 26 21 46.5t51 20.5q28 0 49 -20.5t21 -46.5z" />
    <glyph glyph-name="ldot" unicode="&#x140;" 
d="M327 19v736h105v-736h-105zM656 430q0 -29 -21 -49t-49 -20q-30 0 -51 20t-21 49q0 26 21 46.5t51 20.5q28 0 49 -20.5t21 -46.5z" />
    <glyph glyph-name="Lslash" unicode="&#x141;" 
d="M338 19v320l-126 -84l-45 61l171 114v325h109v-253l142 95l41 -64l-183 -122v-297h369v-95h-478z" />
    <glyph glyph-name="lslash" unicode="&#x142;" 
d="M439 19v325l-137 -91l-49 66l186 123v313h105v-242l131 87l45 -69l-176 -118v-394h-105z" />
    <glyph glyph-name="napostrophe" unicode="&#x149;" 
d="M349 19v516h103v-63q70 71 155 73q94 2 140.5 -47t46.5 -145v-334h-105v332q0 52 -22 77t-72 25q-61 0 -101 -46t-40 -117v-271h-105zM270 475h-80l121 262h128z" />
    <glyph glyph-name="Eng" unicode="&#x14a;" 
d="M216 18v736h105v-94q70 105 217 105q119 0 173.5 -59.5t54.5 -183.5l1 -427q0 -111 -53 -210l-104 30q49 107 49 170l-1 444q0 67 -32 105t-105 38q-79 0 -138.5 -67.5t-59.5 -158.5v-428h-107z" />
    <glyph glyph-name="eng" unicode="&#x14b;" 
d="M713 7q0 -67 -36 -99.5t-96 -31.5q-23 -1 -54 6v85q20 -2 28 -2.5t16 -0.5q22 0 29.5 12t7.5 49v323q0 52 -21.5 77.5t-72.5 25.5q-60 0 -100 -47.5t-40 -117.5v-270h-105v516h103v-66q59 71 155 76q94 5 140 -45.5t46 -145.5v-344z" />
    <glyph glyph-name="OE" unicode="&#x152;" 
d="M470 115v542q-38 28 -93 24q-57 0 -99 -39q-42 -37 -55 -89q-12 -47 -12 -107v-117q0 -61 12 -107q11 -54 55 -89q45 -40 100 -40q52 -4 92 22zM483 749h391v-90h-300v-218h273v-88h-273v-238h303v-89h-391q-51 -23 -109 -24q-84 0 -152 48q-81 53 -102 145
q-17 66 -17 129v126q2 63 19 131q20 87 98 144q65 47 155 47q55 -3 105 -23z" />
    <glyph glyph-name="oe" unicode="&#x153;" 
d="M493 92q-4 -8 -9 -15q-52 -76 -144 -76q-94 0 -145 76q-26 37 -40.5 90t-14.5 106q0 54 14.5 107t40.5 89q50 77 145 77q92 0 145 -77q3 -4 7 -10q3 7 8 13q45 74 132 74q94 0 141 -72.5t47 -200.5v-35h-278q0 -62 28.5 -102t71.5 -40q29 0 50 19q25 21 32 60h95
q-9 -81 -54 -126q-50 -46 -125 -46q-86 1 -134 68q-6 9 -13 21zM445 273q0 89 -30 135q-26 44 -75 44q-47 0 -74 -44q-30 -47 -30 -135q0 -91 30 -136q27 -45 74 -45q48 0 75 45q30 46 30 136zM554 388q-10 -29 -12 -62h182q0 28 -11 62q-12 31 -33 48t-48 17
q-24 0 -45.5 -17t-32.5 -48z" />
    <glyph glyph-name="Tbar" unicode="&#x166;" 
d="M439 19v342h-198v83h198v220h-236v91h578v-91h-237v-220h199v-83h-199v-342h-105z" />
    <glyph glyph-name="tbar" unicode="&#x167;" 
d="M656 19h-76q-77 0 -110.5 36.5t-33.5 95.5v197h-105v80h105v87l-121 -29l-23 73l144 37v132h105v-105l131 33l20 -84l-151 -34v-110h122v-80h-122v-182q0 -57 65 -57h50v-90z" />
    <glyph glyph-name="uni02BC" unicode="&#x2bc;" horiz-adv-x="338" 
d="M227 691q0 -73 -39.5 -116.5t-90.5 -50.5q-33 -4 -38 19q-6 25 19 34q49 18 49 43q0 8 -7 14t-20 12q-19 9 -33.5 28.5t-14.5 46.5q0 34 24 58t58 24q40 0 66.5 -31.5t26.5 -80.5z" />
    <glyph glyph-name="caron" unicode="&#x2c7;" 
d="M491 602l-218 169l31 41l187 -99l187 99l31 -41z" />
    <glyph glyph-name="uni02D0" unicode="&#x2d0;" horiz-adv-x="492" 
d="M273 459q-18 -31 -36 0l-85 148q-12 21 0 21h205q12 0 -1 -23zM273 299l83 -146q13 -23 1 -23h-205q-12 0 0 21l85 148q18 31 36 0z" />
    <glyph glyph-name="breve" unicode="&#x2d8;" 
d="M491 641q-141 0 -232 131l67 42q76 -86 165 -86q87 0 165 86l67 -42q-95 -131 -232 -131z" />
    <glyph glyph-name="dotaccent" unicode="&#x2d9;" 
d="M578 734q0 -36 -25.5 -61t-60.5 -25q-37 0 -62.5 25t-25.5 61q0 34 25.5 59.5t62.5 25.5q35 0 60.5 -25.5t25.5 -59.5z" />
    <glyph glyph-name="ring" unicode="&#x2da;" 
d="M633 691q0 -29 -12 -53t-29 -44q-19 -18 -45 -29.5t-54 -11.5q-30 0 -56 11.5t-44 29.5q-18 20 -30 44t-12 53q0 28 12 52t30 44q18 18 44 29.5t56 11.5q28 0 54 -11.5t45 -29.5q17 -20 29 -44t12 -52zM556 691q0 26 -19 44.5t-44 18.5q-27 0 -46 -18.5t-19 -44.5
q0 -27 19 -45.5t46 -18.5q25 0 44 18.5t19 45.5z" />
    <glyph glyph-name="ogonek" unicode="&#x2db;" 
d="M482 -121q-41 2 -69 30q-24 25 -25 71q-1 62 45 119l63 -22q-28 -45 -30 -80q-1 -12 7.5 -24t19.5 -14q19 -2 30 13q3 5 9 26l64 -12q-8 -59 -40 -84t-74 -23z" />
    <glyph glyph-name="tilde" unicode="&#x2dc;" 
d="M316 650q-21 -45 -72 -31q-49 14 -29 71q51 112 172 112q38 0 68 -14.5t53 -38.5q28 -28 49.5 -47.5t49.5 -19.5q52 0 75 55q20 43 69 29q48 -14 30 -69q-50 -114 -174 -114q-41 0 -74 14.5t-57 39.5q-27 23 -45 39.5t-44 16.5q-48 0 -71 -43z" />
    <glyph glyph-name="hungarumlaut" unicode="&#x2dd;" 
d="M271 686l113 125q34 39 83 8q52 -35 5 -78l-128 -113q-38 -35 -67 -8q-37 32 -6 66zM462 686l113 125q34 39 83 8q52 -35 5 -78l-128 -113q-37 -35 -67 -8q-37 32 -6 66z" />
    <glyph glyph-name="Alpha" unicode="&#x391;" 
d="M541 717l270 -707h-103l-78 199h-277l-78 -199h-103l270 707h99zM492 582l-101 -276h202z" />
    <glyph glyph-name="Beta" unicode="&#x392;" 
d="M276 704h171q39 0 71 -3t59 -8q24 -6 47.5 -18.5t45.5 -30.5q12 -14 21 -28.5t16 -29.5q6 -17 9.5 -39.5t3.5 -41.5q0 -36 -19 -73.5t-57 -58.5q51 -21 77 -63.5t26 -93.5q0 -21 -4 -44.5t-11 -40.5q-9 -18 -20 -34t-23 -29q-14 -14 -32 -24.5t-40 -17.5
q-22 -9 -65 -12.5t-105 -3.5h-171v694zM383 316v-209h120q24 0 41.5 1.5t29.5 6.5q11 3 19 7t14 10q17 13 26 36.5t9 47.5q0 22 -9 41t-26 34q-6 4 -14 8.5t-19 9.5q-12 3 -29.5 5t-41.5 2h-120zM459 412q27 0 48.5 1.5t39.5 4.5q33 10 49.5 32t16.5 55t-16.5 59.5
t-49.5 37.5q-18 2 -39.5 3.5t-48.5 1.5h-76v-195h76z" />
    <glyph glyph-name="Gamma" unicode="&#x393;" 
d="M276 10v694h431v-97h-324v-597h-107z" />
    <glyph glyph-name="uni0394" unicode="&#x394;" 
d="M493 582l-158 -475h312zM212 10v97l233 610h98l230 -606v-101h-561z" />
    <glyph glyph-name="Epsilon" unicode="&#x395;" 
d="M384 107h330v-97h-437v694h419v-97h-312v-195h277v-96h-277v-209z" />
    <glyph glyph-name="Zeta" unicode="&#x396;" 
d="M742 704v-91l-359 -506h364v-97h-512v65l383 532h-374v97h498z" />
    <glyph glyph-name="Eta" unicode="&#x397;" 
d="M338 412h309v292h108v-694h-108v306h-309v-306h-107v694h107v-292z" />
    <glyph glyph-name="Theta" unicode="&#x398;" 
d="M347 410h290v-99h-290v99zM700 359q0 129 -60 193q-15 15 -31.5 27t-34.5 21q-20 7 -41 11.5t-41 4.5q-23 0 -43.5 -4.5t-38.5 -11.5q-19 -9 -36 -21t-30 -27q-60 -64 -60 -193q0 -126 60 -191q13 -16 30 -27.5t36 -18.5q19 -9 39.5 -12.5t42.5 -3.5q21 0 41.5 3.5
t40.5 12.5q18 7 34.5 18.5t31.5 27.5q60 65 60 191zM807 359q0 -154 -84 -250q-21 -24 -46 -42.5t-54 -29.5q-29 -14 -62.5 -20.5t-68.5 -6.5q-38 0 -70.5 6.5t-61.5 20.5q-30 11 -55 29.5t-45 42.5q-83 95 -83 250q0 158 84 253q20 23 45 41t55 32q29 12 61.5 19t69.5 7
q36 0 69.5 -7t62.5 -19q29 -14 54 -32t46 -41q83 -95 83 -253z" />
    <glyph glyph-name="Iota" unicode="&#x399;" 
d="M439 10v694h107v-694h-107z" />
    <glyph glyph-name="Kappa" unicode="&#x39a;" 
d="M277 10v694h107v-318l272 318h128l-297 -344l316 -350h-128l-291 312v-312h-107z" />
    <glyph glyph-name="Lambda" unicode="&#x39b;" 
d="M193 10l254 694h89l255 -694h-108l-191 544l-193 -544h-106z" />
    <glyph glyph-name="Mu" unicode="&#x39c;" 
d="M527 10h-72l-201 529v-529h-101v694h131l208 -530l206 530h131v-694h-102v529z" />
    <glyph glyph-name="Nu" unicode="&#x39d;" 
d="M311 704l359 -508v508h107v-694h-88l-358 506v-506h-107v694h87z" />
    <glyph glyph-name="Xi" unicode="&#x39e;" 
d="M276 405h431v-96h-431v96zM236 107h511v-97h-511v97zM236 704h511v-97h-511v97z" />
    <glyph glyph-name="Omicron" unicode="&#x39f;" 
d="M704 359q0 129 -62 193q-15 15 -31.5 27t-35.5 21q-20 7 -41.5 11.5t-41.5 4.5q-23 0 -44 -4.5t-39 -11.5q-20 -9 -37 -21t-30 -27q-62 -64 -62 -193q0 -126 62 -191q13 -16 30 -27.5t37 -18.5q19 -9 40 -12.5t43 -3.5q21 0 42 3.5t41 12.5q19 7 35.5 18.5t31.5 27.5
q62 65 62 191zM813 359q0 -154 -86 -250q-99 -99 -235 -99t-236 99q-85 95 -85 250q0 158 86 253q20 23 45.5 41t56.5 32q29 12 62.5 19t70.5 7q36 0 70.5 -7t63.5 -19q30 -14 55.5 -32t46.5 -41q85 -95 85 -253z" />
    <glyph glyph-name="Pi" unicode="&#x3a0;" 
d="M763 10h-107v597h-312v-597h-107v694h526v-694z" />
    <glyph glyph-name="Rho" unicode="&#x3a1;" 
d="M276 704h206q53 0 92 -6.5t66 -18.5q18 -8 34 -18.5t30 -25.5q26 -27 39.5 -63t13.5 -81q0 -46 -13.5 -82t-39.5 -61q-14 -15 -30 -26.5t-34 -18.5q-27 -12 -66 -18t-92 -6h-99v-269h-107v694zM383 376h125q34 0 60.5 8t45.5 26q17 15 26 35t9 46q0 25 -9 45t-26 37
q-19 16 -45.5 25t-60.5 9h-125v-231z" />
    <glyph glyph-name="Sigma" unicode="&#x3a3;" 
d="M563 357l-199 -250h352v-97h-505v76l224 271l-201 270v77h479v-97h-322z" />
    <glyph glyph-name="Tau" unicode="&#x3a4;" 
d="M545 10h-106v597h-218v97h541v-97h-217v-597z" />
    <glyph glyph-name="Upsilon" unicode="&#x3a5;" 
d="M437 325l-244 379h117l182 -287l178 287h120l-245 -380v-314h-108v315z" />
    <glyph glyph-name="Phi" unicode="&#x3a6;" 
d="M439 -18v112q-53 6 -97 26t-79 52q-45 40 -67 89t-22 108q0 58 22 107.5t67 90.5q35 32 79 51.5t97 26.5v99h107v-99q53 -7 97.5 -26.5t79.5 -51.5q44 -41 66 -90.5t22 -107.5q0 -59 -22 -108t-66 -89q-35 -32 -79.5 -52t-97.5 -26v-112h-107zM439 193v353
q-28 -6 -51.5 -17.5t-44.5 -27.5q-32 -26 -47 -59t-15 -73q0 -41 15 -74t47 -56q21 -18 44.5 -29.5t51.5 -16.5zM546 546v-353q27 5 51 16.5t46 29.5q30 23 45.5 56t15.5 74q0 40 -15.5 73t-45.5 59q-22 16 -46 27.5t-51 17.5z" />
    <glyph glyph-name="Chi" unicode="&#x3a7;" 
d="M491 284l-184 -274h-123l240 353l-225 341h119l174 -263l172 263h120l-228 -343l239 -351h-123z" />
    <glyph glyph-name="Psi" unicode="&#x3a8;" 
d="M439 704h107v-323q30 9 54 30t44 53q25 41 38 101t13 139h106q0 -102 -20 -179t-59 -131q-35 -47 -79 -75.5t-97 -37.5v-271h-107v271q-53 9 -97 37.5t-79 75.5q-41 54 -60 131t-19 179h107q0 -79 12 -139t38 -101q19 -32 43.5 -53t54.5 -30v323z" />
    <glyph glyph-name="uni03A9" unicode="&#x3a9;" 
d="M176 107h165q-83 50 -123.5 124t-40.5 159q0 66 22 127t67 106q44 43 100.5 65.5t125.5 22.5q68 0 124.5 -22.5t100.5 -65.5q45 -45 67 -106t22 -127q0 -85 -41.5 -159t-122.5 -124h165v-97h-259v119q75 53 113 121.5t38 139.5q0 51 -14.5 96t-43.5 73q-30 28 -67.5 42.5
t-81.5 14.5q-46 0 -83 -14.5t-66 -42.5q-30 -28 -44.5 -73t-14.5 -96q0 -71 37.5 -139.5t113.5 -121.5v-119h-259v97z" />
    <glyph glyph-name="alpha" unicode="&#x3b1;" 
d="M558 261q-6 24 -15.5 49.5t-22.5 52.5q-15 25 -33 38.5t-40 13.5q-24 0 -43 -12.5t-34 -36.5q-16 -25 -23.5 -54.5t-7.5 -63.5q0 -32 7.5 -60t23.5 -49q15 -22 32.5 -32.5t39.5 -10.5q19 0 37.5 11t34.5 34q15 22 26.5 52.5t17.5 67.5zM232 258q0 55 13.5 101t42.5 81
q26 35 63 53t84 18q54 0 93.5 -39t63.5 -114l38 128h100l-98 -248q3 -29 11 -54.5t21 -44.5q15 -23 37 -30t53 3v-94q-42 -12 -72.5 -5.5t-51.5 29.5l-17.5 17.5t-13.5 17.5q-7 9 -11.5 20.5t-5.5 26.5q-27 -66 -64.5 -95t-94.5 -29q-41 0 -75 16.5t-60 50.5
q-29 33 -42.5 77t-13.5 100v14z" />
    <glyph glyph-name="beta" unicode="&#x3b2;" 
d="M688 518q0 -51 -23.5 -86.5t-67.5 -56.5q30 -11 54.5 -25.5t41.5 -33.5q14 -21 22.5 -47t8.5 -58q0 -45 -13.5 -81t-40.5 -64q-29 -28 -67 -42t-87 -14q-36 0 -69.5 12t-62.5 37v-204h-105v611q0 75 20.5 125.5t64.5 75.5q12 6 25.5 11.5t28.5 10.5q15 3 30.5 5t32.5 2
q44 0 81 -12t67 -36q29 -23 44 -56t15 -74zM448 410h31q28 0 47.5 9t30.5 27q9 16 13.5 34t4.5 38q0 21 -7.5 38.5t-21.5 30.5q-15 12 -30.5 18.5t-33.5 6.5q-48 -2 -71.5 -32t-23.5 -89v-351q12 -12 24 -21t26 -13q13 -6 27.5 -8t30.5 -2q27 0 49 7.5t38 23.5q15 15 22 35
t7 46q0 59 -33.5 89t-99.5 30h-30v83z" />
    <glyph glyph-name="gamma" unicode="&#x3b3;" 
d="M497 -137h-124l64 372l10 60q0 29 -6 53.5t-18 45.5q-13 20 -28 30.5t-33 10.5q-22 0 -41 -6t-37 -16l14 98q20 9 42 14t44 5q56 0 90 -38.5t47 -113.5q12 40 34 69.5t53 49.5q24 16 52.5 24.5t59.5 8.5q27 0 53 -7t53 -20l-20 -93q-20 12 -40.5 18.5t-41.5 6.5
q-52 0 -90 -36t-62 -107q-3 -11 -5.5 -21.5t-3.5 -21.5z" />
    <glyph glyph-name="delta" unicode="&#x3b4;" 
d="M610 217q0 17 -5 33t-13 32q-10 15 -27.5 36t-41.5 48q-42 -21 -71 -39t-44 -33q-16 -17 -23.5 -38t-7.5 -45t8 -45t25 -37q16 -18 36.5 -26.5t44.5 -8.5q59 0 89 30t30 93v0zM466 572q0 -7 3 -14t10 -14q6 -8 13.5 -15.5t18.5 -15.5q9 -9 20.5 -18.5t25.5 -18.5
q6 -6 12 -11t12 -11q7 -5 13 -10.5t13 -10.5q34 -33 58.5 -62.5t37.5 -52.5q12 -26 19 -51.5t7 -49.5q0 -26 -4.5 -48t-13.5 -39q-9 -20 -21.5 -36.5t-27.5 -31.5q-17 -15 -36 -26.5t-40 -18.5q-23 -9 -48 -13t-51 -4q-56 0 -97.5 15t-71.5 46q-29 30 -44 67t-15 81
q0 31 11 61.5t33 60.5q22 27 57.5 52.5t82.5 48.5v1q-46 34 -69 70t-23 75q0 24 9 44.5t28 38.5q17 16 46 25t69 9q54 0 107.5 -10.5t106.5 -31.5v-98q-50 24 -101 36t-102 12q-14 0 -23.5 -2.5t-13.5 -6.5q-6 -6 -8.5 -11t-2.5 -11v0z" />
    <glyph glyph-name="epsilon" unicode="&#x3b5;" 
d="M603 222h-103q-50 0 -74 -16.5t-24 -47.5q0 -14 6 -24.5t18 -18.5q11 -9 29 -13.5t43 -4.5q23 0 47 2.5t48 8.5q23 5 44.5 12.5t41.5 16.5v-98q-49 -20 -97.5 -29.5t-95.5 -9.5q-27 0 -49.5 2.5t-39.5 8.5q-20 4 -36 11.5t-28 17.5q-14 9 -22.5 21t-14.5 27q-6 14 -9 29
t-3 30q0 22 6 41.5t17 37.5q12 15 27.5 26.5t35.5 17.5q-17 4 -29.5 13.5t-21.5 24.5q-11 13 -15 29.5t-4 36.5q0 15 2.5 29t10.5 28q6 11 16.5 22.5t24.5 20.5q12 9 28 16t35 13q18 5 39 8t44 3q19 0 39.5 -1.5t42.5 -4.5q20 -4 40.5 -8.5t40.5 -8.5v-95q-24 5 -44.5 9
t-38.5 7q-20 2 -36.5 3.5t-30.5 1.5q-23 0 -40.5 -4t-29.5 -10q-13 -8 -19 -18t-6 -22q0 -16 5 -26t17 -14q10 -6 26.5 -8.5t38.5 -2.5h98v-90z" />
    <glyph glyph-name="zeta" unicode="&#x3b6;" 
d="M669 641q-27 -17 -51.5 -35.5t-47.5 -37.5q-24 -20 -45 -41.5t-38 -43.5q-19 -23 -33.5 -46.5t-24.5 -47.5q-12 -26 -17 -49.5t-5 -46.5q0 -16 2.5 -28.5t8.5 -22.5q4 -11 11.5 -19t16.5 -14q7 -7 17 -12t22 -8q10 -5 21.5 -8.5t24.5 -6.5q6 -2 12.5 -4t13.5 -4t13.5 -4
t13.5 -3q12 -4 23.5 -9t22.5 -11q10 -8 19 -16.5t16 -18.5q6 -12 9 -25.5t3 -28.5q0 -17 -4 -35t-11 -38q-8 -20 -18.5 -41.5t-23.5 -42.5h-118q16 23 27.5 42.5t18.5 35.5q6 15 9.5 28t3.5 23q0 9 -3 16.5t-8 13.5q-6 4 -13.5 8t-16.5 7q-5 1 -10 2.5t-10 3.5t-10.5 3.5
t-10.5 3.5q-6 1 -12.5 2.5t-12.5 3.5q-7 1 -13.5 3t-12.5 5q-31 7 -55 23t-42 39q-19 23 -27.5 54.5t-8.5 69.5q0 26 4 51t13 51q8 24 20.5 47t29.5 46q15 21 33.5 42t42.5 40q22 18 45 35t47 32q-41 -9 -88 -14t-101 -8v95q31 0 71 1t88 4q48 1 90 5.5t79 10.5v-77z" />
    <glyph glyph-name="eta" unicode="&#x3b7;" 
d="M599 324q0 53 -27 80.5t-80 27.5q-56 0 -82.5 -27.5t-26.5 -80.5v-292h-107v295q0 50 13.5 87.5t43.5 63.5q28 25 67.5 38t91.5 13q50 0 89 -13.5t69 -39.5q28 -26 42 -63.5t14 -84.5v-464h-107v460z" />
    <glyph glyph-name="theta" unicode="&#x3b8;" 
d="M359 295q3 -43 11 -76.5t23 -57.5q17 -32 42 -48t58 -16q30 0 55.5 16t44.5 48q12 24 21 57.5t12 76.5h-267zM626 392q-3 40 -12 73.5t-21 59.5q-19 30 -44.5 46.5t-55.5 16.5q-33 0 -58 -16.5t-42 -46.5q-15 -26 -23 -59.5t-11 -73.5h267zM250 342q0 72 16 132.5
t48 111.5q32 48 76.5 73.5t102.5 25.5q56 0 100.5 -25.5t77.5 -73.5q31 -51 47.5 -111.5t16.5 -132.5q0 -73 -16.5 -134t-47.5 -109q-33 -51 -77.5 -75t-100.5 -24q-58 0 -102.5 24t-76.5 75q-32 48 -48 109t-16 134z" />
    <glyph glyph-name="iota" unicode="&#x3b9;" 
d="M492 175q0 -27 3.5 -43t10.5 -22q9 -8 23 -11.5t35 -3.5h12t13 2q6 0 16.5 2t28.5 7v-92q-12 -4 -21.5 -6.5t-17.5 -3.5q-10 -3 -20.5 -3.5t-20.5 -0.5q-45 0 -76.5 9.5t-52.5 29.5q-21 19 -31 48.5t-10 69.5v342h108v-324z" />
    <glyph glyph-name="kappa" unicode="&#x3ba;" 
d="M481 392q38 38 71.5 61.5t59.5 33.5q18 6 44.5 7t59.5 -5v-69q-26 0 -46 -3.5t-32 -12.5q-18 -12 -32.5 -25t-26.5 -25l-96 -98l225 -246h-129l-197 214v-214h-106v485h106v-205z" />
    <glyph glyph-name="lambda" unicode="&#x3bb;" 
d="M395 692q18 0 35 -3t32 -9q14 -7 26.5 -17t24.5 -22q11 -13 21.5 -30t21.5 -36q9 -21 19 -44.5t21 -50.5l184 -470h-116l-113 303l-142 -303h-117l199 425q-15 42 -26.5 70t-20.5 43q-10 13 -19 23t-17 16q-8 4 -18 7t-22 3q-3 0 -6 -0.5t-6 -0.5t-5.5 -0.5t-5.5 -0.5
q-7 -2 -13 -3.5t-11 -2.5v91q7 3 16 5t19 4q9 1 18.5 2t20.5 1z" />
    <glyph glyph-name="uni03BC" unicode="&#x3bc;" 
d="M277 507h106v-292q0 -55 26.5 -81.5t82.5 -26.5q53 0 80 26.5t27 81.5v292h106v-296q0 -48 -14.5 -85t-42.5 -63q-30 -26 -69 -39.5t-89 -13.5q-32 0 -59 4.5t-48 14.5v-167h-106v645z" />
    <glyph glyph-name="nu" unicode="&#x3bd;" 
d="M512 10h-72l-166 485h104l114 -371q68 83 102 175.5t34 195.5h92q0 -119 -52 -240.5t-156 -244.5z" />
    <glyph glyph-name="xi" unicode="&#x3be;" 
d="M655 347h-18q-26 0 -49 -2.5t-44 -5.5q-23 -5 -41 -10.5t-33 -12.5q-16 -8 -28 -16.5t-20 -18.5q-9 -11 -13.5 -23t-4.5 -26q0 -12 3 -20.5t9 -14.5q6 -8 13.5 -13t16.5 -8q9 -5 20 -8t26 -6q12 -3 25.5 -5.5t27.5 -4.5q13 -3 27 -6l28 -6q13 -5 25 -10t24 -11
q10 -8 18.5 -16.5t16.5 -18.5q6 -12 9.5 -25t3.5 -29q0 -39 -16 -76.5t-46 -74.5h-119q11 16 21.5 33.5t20.5 36.5q9 17 13.5 32t4.5 28q0 9 -3 17t-9 14q-6 5 -14 9.5t-17 7.5q-5 1 -10.5 2.5t-10.5 2.5t-10 2.5t-11 3.5q-12 1 -25.5 3.5t-26.5 5.5q-38 6 -66 17.5
t-47 27.5q-21 15 -30 38t-9 55q0 56 36.5 97.5t110.5 68.5q-27 4 -46.5 13t-32.5 21q-14 12 -20.5 26.5t-6.5 34.5q0 25 11 48t34 42q21 18 54.5 35.5t78.5 32.5v2q-59 -9 -104.5 -14.5t-75.5 -6.5v85h64.5t88.5 2q48 0 99.5 2.5t106.5 5.5v-77q-27 -6 -52 -13t-46 -14
q-23 -8 -42 -16t-34 -15q-15 -9 -27 -18t-20 -18q-9 -11 -13 -21.5t-4 -22.5q0 -10 1.5 -17.5t6.5 -13.5q3 -7 9.5 -12t15.5 -9q8 -5 19 -7.5t26 -3.5q14 -2 32 -2.5t39 -0.5h59v-82z" />
    <glyph glyph-name="omicron" unicode="&#x3bf;" 
d="M492 511q53 0 99 -19t85 -56q34 -35 52 -80.5t18 -100.5q0 -56 -18 -101t-52 -81q-39 -37 -85 -55t-99 -18q-54 0 -100 18t-83 55q-36 36 -54 81t-18 101q0 55 18 100.5t54 80.5q37 37 83 56t100 19zM345 255q0 -35 10.5 -63.5t32.5 -49.5q20 -22 46.5 -33.5t57.5 -11.5
q30 0 56.5 11.5t49.5 33.5q20 21 31 49.5t11 63.5q0 34 -11 62t-31 51q-23 22 -49.5 33.5t-56.5 12.5q-31 -1 -57.5 -12.5t-46.5 -33.5q-22 -23 -32.5 -51t-10.5 -62z" />
    <glyph glyph-name="pi" unicode="&#x3c0;" 
d="M394 413v-388h-106v388h-109v97h626v-97h-108v-281q0 -10 1.5 -16t6.5 -7q4 -3 11 -3.5t17 -0.5q7 0 17.5 0.5t22.5 2.5v-91q-9 -2 -18.5 -3.5t-18.5 -1.5q-11 -2 -18.5 -2h-13.5q-57 0 -85 30t-28 92v281h-197z" />
    <glyph glyph-name="rho" unicode="&#x3c1;" 
d="M496 107q29 0 53 11t41 33q14 21 22.5 50t8.5 64t-8.5 63t-22.5 51q-17 21 -40 32.5t-52 12.5h-2h3h-1q-33 -1 -62.5 -17t-52.5 -47v-198q26 -28 54.5 -41.5t57.5 -13.5h1zM514 521q46 0 84.5 -17t69.5 -50q30 -33 45 -80.5t15 -108.5q0 -62 -15 -109t-45 -80
q-31 -33 -69.5 -49.5t-84.5 -16.5q-39 0 -72 12t-59 35v-197h-107v648h99v-45q32 28 67 43t72 15z" />
    <glyph glyph-name="sigma" unicode="&#x3c3;" 
d="M492 511q20 0 40 -3t40 -8q25 18 62 26.5t86 8.5h81v-91h-56q-19 0 -36.5 -1.5t-34.5 -4.5l2 -2q34 -35 52 -80.5t18 -100.5q0 -56 -18 -101t-52 -81q-39 -37 -85 -55t-99 -18q-54 0 -100 18t-83 55q-36 36 -54 81t-18 101q0 55 18 100.5t54 80.5q37 37 83 56t100 19z
M345 255q0 -35 10.5 -63.5t32.5 -49.5q20 -22 46.5 -33.5t57.5 -11.5q30 0 56.5 11.5t49.5 33.5q20 21 31 49.5t11 63.5q0 34 -11 62t-31 51q-23 22 -49.5 33.5t-56.5 12.5q-31 -1 -57.5 -12.5t-46.5 -33.5q-22 -23 -32.5 -51t-10.5 -62z" />
    <glyph glyph-name="tau" unicode="&#x3c4;" 
d="M276 508h431v-97h-163v-283q0 -10 2 -16t7 -7q4 -3 11 -3.5t17 -0.5q7 0 17 0.5t22 2.5v-91q-9 -2 -18 -3.5t-18 -1.5q-11 -2 -18.5 -2h-13.5q-57 0 -85.5 30t-28.5 92v283h-162v97z" />
    <glyph glyph-name="upsilon" unicode="&#x3c5;" 
d="M310 375q0 16 -7 25t-22 9q-6 0 -12.5 -1.5t-12.5 -3.5v89q13 4 29 6.5t34 2.5q48 0 71.5 -27t23.5 -79l-7 -164q0 -30 6 -55t19 -43q12 -21 31.5 -30.5t45.5 -9.5q28 0 50.5 12t37.5 36q14 24 21.5 56t7.5 70q0 57 -13.5 114t-38.5 116h106q26 -59 39.5 -117t13.5 -116
q0 -62 -15.5 -111t-44.5 -84q-32 -35 -73 -52.5t-92 -17.5q-49 0 -87 13.5t-65 40.5q-29 27 -42 68.5t-13 100.5z" />
    <glyph glyph-name="phi" unicode="&#x3c6;" 
d="M546 -149h-95v164q-27 5 -49.5 12.5t-40.5 18.5q-20 10 -36.5 22.5t-28.5 30.5q-15 16 -26.5 36t-19.5 44q-9 22 -13 48.5t-4 56.5q0 27 3.5 51t11.5 46q7 22 16.5 41t23.5 35q12 15 26 28.5t32 25.5q7 4 12.5 7t11.5 5q5 2 10 3.5t12 4.5l1 -100q-2 -3 -5.5 -4.5
t-7.5 -4.5q-5 -3 -10.5 -8.5t-12.5 -17.5q-13 -21 -18.5 -49.5t-5.5 -62.5q0 -32 7 -60t22 -49q13 -22 37 -37.5t52 -25.5v288q0 15 -0.5 34.5t-0.5 39.5v38.5t1 32.5q6 2 28 2.5t52 -0.5q21 -1 47.5 -11.5t44.5 -20.5q17 -12 33 -25.5t29 -30.5q12 -17 21.5 -37.5
t17.5 -43.5q7 -24 11 -48t4 -50q0 -27 -4.5 -51.5t-11.5 -45.5q-9 -24 -18.5 -43t-21.5 -36q-14 -18 -29 -32t-31 -22q-18 -12 -36 -19t-41 -11v-169zM638 280q0 21 -3 40.5t-8 37.5q-6 16 -15 31.5t-20 28.5q-2 1 -4.5 3t-5.5 4q-1 0 -5.5 4t-8.5 4q-2 0 -4.5 1t-6.5 2
q-3 1 -6 1t-4 -3q-2 -2 -2 -6v-8t0.5 -8t0.5 -5v-290q23 12 40 27t29 36q11 21 17 46t6 54z" />
    <glyph glyph-name="chi" unicode="&#x3c7;" 
d="M492 335l114 160h121l-172 -241l180 -244h-121l-123 166l-121 -166h-121l181 246l-174 239h121z" />
    <glyph glyph-name="psi" unicode="&#x3c8;" 
d="M439 704h107v-568q73 23 110.5 118.5t38.5 263.5h106q-1 -223 -64.5 -343.5t-190.5 -139.5v-165h-107v165q-129 19 -192.5 139.5t-62.5 343.5h107q-1 -168 36 -264t112 -118v568z" />
    <glyph glyph-name="omega" unicode="&#x3c9;" 
d="M492 101q-17 -51 -54 -76t-95 -25q-44 0 -79.5 16t-59.5 48q-23 30 -34 73t-11 100q0 66 18 131.5t53 131.5h112q-38 -66 -56 -130t-18 -128q0 -41 6.5 -69.5t21.5 -42.5q12 -17 26.5 -24.5t30.5 -7.5q42 0 63 39.5t21 119.5v104h109v-104q-1 -80 20 -119.5t64 -39.5
q15 0 29.5 7.5t29.5 24.5q12 14 19 42.5t7 69.5q0 64 -18.5 128t-55.5 130h112q36 -66 53.5 -131.5t17.5 -131.5q0 -57 -12 -100t-33 -73q-26 -32 -60 -48t-79 -16q-59 0 -96.5 25t-51.5 76z" />
    <glyph glyph-name="phi1" unicode="&#x3d5;" 
d="M361 27q17 41 40 119q-23 4 -44 12q-34 14 -57 39t-34 58t-4 71q6 37 27.5 70.5t53.5 57.5q32 25 70.5 39.5t80.5 14.5h7q6 24 11 48q14 65 23 129q2 16 7 34.5t13 32.5q15 28 44 26q21 -2 24.5 -17.5t-2.5 -35.5q-7 -19 -18 -41t-22 -59l-36 -123l24 -8q33 -15 57 -40
q24 -24 34 -57.5t4 -70.5q-7 -38 -28 -71t-53 -58t-70 -39q-35 -12 -72 -14v-1q-14 -50 -34 -129q-5 -46 -20.5 -65.5t-33.5 -12.5q-21 8 -20 32q0 12 9 27t19 32zM417 201q47 152 79 283q-28 -1 -55 -11q-30 -12 -52 -31q-25 -20 -41.5 -46t-20.5 -55q-6 -30 2 -56t26 -45
q16 -20 41 -31q10 -5 21 -8zM539 479l-82 -282q28 1 55 12q29 11 53 31q24 19 39.5 45t21.5 56q4 29 -3.5 55t-23.5 46q-17 19 -42 31z" />
    <glyph glyph-name="uni0401" unicode="&#x401;" 
d="M358 775h78v-71h-78v71zM557 775h78v-71h-78v71zM384 77h330v-97h-437v672h419v-97h-312v-184h277v-96h-277v-198z" />
    <glyph glyph-name="uni0410" unicode="&#x410;" 
d="M291 31h-116l270 686h98l269 -686h-116l-78 197h-249zM493 582l-87 -257h176z" />
    <glyph glyph-name="uni0411" unicode="&#x411;" 
d="M383 326v-198h121q23 0 40.5 1.5t29.5 6.5q11 3 19.5 7t14.5 10q16 14 25 32.5t9 41.5q0 22 -9 41t-25 34q-6 4 -14.5 8.5t-19.5 9.5q-12 3 -29.5 4.5t-40.5 1.5h-121zM447 423q63 0 105.5 -4t64.5 -11q22 -9 40 -19.5t32 -23.5q13 -14 23.5 -29t19.5 -33q7 -18 11 -37.5
t4 -38.5q0 -20 -4 -38.5t-11 -36.5q-9 -18 -19.5 -33.5t-23.5 -28.5q-14 -14 -32 -25t-40 -18q-22 -9 -64.5 -12.5t-105.5 -3.5h-171v673h432v-97h-325v-184h64z" />
    <glyph glyph-name="uni0412" unicode="&#x412;" 
d="M276 704h171q39 0 71 -3t59 -8q25 -6 48 -18.5t45 -31.5q12 -14 21.5 -28t16.5 -29q5 -17 8.5 -35t3.5 -36q0 -45 -19 -77.5t-57 -53.5q51 -21 77 -60t26 -97q0 -20 -4 -38.5t-11 -36.5q-9 -18 -19.5 -33.5t-23.5 -28.5q-14 -14 -32 -25t-40 -18q-22 -9 -64.5 -12.5
t-105.5 -3.5h-171v673zM383 326v-198h121q23 0 40.5 1.5t29.5 6.5q11 3 19.5 7t14.5 10q16 14 25 32.5t9 41.5q0 22 -9 41t-25 34q-6 4 -14.5 8.5t-19.5 9.5q-12 3 -29.5 4.5t-40.5 1.5h-121zM459 422q27 0 48.5 1.5t39.5 4.5q33 10 49.5 32t16.5 55q0 32 -16.5 54t-49.5 33
q-18 2 -39.5 3.5t-48.5 1.5h-76v-185h76z" />
    <glyph glyph-name="uni0413" unicode="&#x413;" 
d="M276 31v673h437v-97h-330v-576h-107z" />
    <glyph glyph-name="uni0414" unicode="&#x414;" 
d="M219 128q72 129 107.5 273t35.5 303h346v-576h76v-256h-107v159h-440v-159h-107v256h89zM455 605q0 -107 -31 -226t-92 -250v-1h269v477h-146z" />
    <glyph glyph-name="uni0415" unicode="&#x415;" 
d="M384 128h330v-97h-437v673h419v-97h-312v-185h277v-96h-277v-198z" />
    <glyph glyph-name="uni0416" unicode="&#x416;" 
d="M438 397v307h107v-307l203 307h128l-228 -333l248 -340h-129l-222 301v-301h-107v301l-222 -301h-128l247 340l-227 333h127z" />
    <glyph glyph-name="uni0417" unicode="&#x417;" 
d="M284 672q44 21 91.5 32t100.5 11t95.5 -13.5t74.5 -39.5q29 -25 44 -60t15 -81q0 -49 -24 -84.5t-70 -56.5q25 -8 45.5 -20t36.5 -30q15 -18 22.5 -41.5t7.5 -51.5q0 -20 -4.5 -41t-10.5 -42q-9 -22 -21.5 -39.5t-28.5 -30.5q-18 -15 -38.5 -26.5t-45.5 -18.5
q-26 -9 -55.5 -12t-62.5 -3q-29 0 -54 2.5t-48 8.5q-24 6 -44.5 13.5t-38.5 17.5v100q14 -12 32 -20t42 -12q22 -6 47.5 -8t55.5 -2q49 0 82.5 8.5t51.5 27.5q17 18 25.5 37.5t8.5 41.5q0 8 -2 16t-5 17q-4 7 -9 14.5t-11 14.5q-8 6 -17.5 10.5t-21.5 9.5q-13 2 -27.5 4
t-30.5 2h-106v99h93q59 0 89 22.5t30 68.5q0 20 -8.5 37.5t-23.5 32.5q-17 13 -43.5 20.5t-63.5 7.5q-23 0 -46 -3t-48 -8q-27 -6 -46.5 -13t-34.5 -16v97z" />
    <glyph glyph-name="uni0418" unicode="&#x418;" 
d="M687 704h90v-673h-107v489l-355 -489h-91v673h107v-490z" />
    <glyph glyph-name="uni0419" unicode="&#x419;" 
d="M687 595h90v-672h-107v488l-355 -488h-91v672h107v-490zM492 717q24 0 42.5 13.5t30.5 43.5h104q-21 -68 -65 -102.5t-112 -34.5q-69 0 -113.5 34.5t-64.5 102.5h104q10 -30 28.5 -43.5t45.5 -13.5z" />
    <glyph glyph-name="uni041A" unicode="&#x41a;" 
d="M277 31v673h107v-307l272 307h128l-297 -333l317 -340h-129l-291 301v-301h-107z" />
    <glyph glyph-name="uni041B" unicode="&#x41b;" 
d="M513 607q-8 -59 -16 -112.5t-16 -101.5q-9 -51 -18 -91.5t-18 -70.5q-10 -31 -20 -56.5t-19 -44.5q-12 -20 -23.5 -36t-23.5 -27q-13 -12 -26.5 -20.5t-26.5 -12.5q-15 -5 -31 -6.5t-33 -1.5q-14 0 -26 1t-23 4v105q9 -3 17 -3.5t17 -0.5t17.5 1.5t16.5 4.5q7 3 14 8.5
t15 14.5q6 7 13.5 20t15.5 31q7 15 15 39t17 56q7 29 15.5 70.5t17.5 93.5q7 50 15.5 108.5t16.5 124.5h346v-673h-107v576h-142z" />
    <glyph glyph-name="uni041C" unicode="&#x41c;" 
d="M520 31h-56l-209 513v-513h-101v673h136l202 -494l201 494h137v-673h-102v507z" />
    <glyph glyph-name="uni041D" unicode="&#x41d;" 
d="M337 422h309v282h108v-673h-108v295h-309v-295h-107v673h107v-282z" />
    <glyph glyph-name="uni041E" unicode="&#x41e;" 
d="M701 367q0 31 -4.5 58t-12.5 51q-9 22 -20 40.5t-24 35.5q-15 15 -31.5 27t-34.5 21q-20 7 -41 11.5t-41 4.5q-23 0 -43.5 -4.5t-37.5 -11.5q-20 -9 -37 -21t-30 -27q-15 -17 -26 -35.5t-18 -40.5q-9 -24 -12.5 -51t-3.5 -58q0 -33 4 -59.5t13 -48.5q7 -24 17.5 -42.5
t25.5 -33.5q13 -16 30 -28t37 -19q18 -9 38.5 -12t42.5 -3q21 0 41.5 3t40.5 12q18 7 34.5 19t31.5 28q13 15 24 33.5t20 42.5q8 22 12.5 48.5t4.5 59.5zM807 367q0 -39 -5.5 -72.5t-15.5 -63.5q-12 -31 -28 -58t-35 -49q-20 -24 -45.5 -42.5t-54.5 -30.5q-29 -14 -62.5 -20
t-68.5 -6q-38 0 -70.5 6t-61.5 20q-30 12 -55 30.5t-45 42.5q-21 22 -36.5 49t-25.5 58q-11 30 -16 63.5t-5 72.5q0 38 5 72t17 66q10 29 25.5 56t36.5 51q20 22 45 40.5t55 32.5q29 12 61.5 19t69.5 7q36 0 69.5 -7t62.5 -19q29 -14 54.5 -32.5t45.5 -40.5q20 -24 35.5 -51
t27.5 -56q10 -32 15 -66t5 -72z" />
    <glyph glyph-name="uni041F" unicode="&#x41f;" 
d="M763 31h-107v576h-312v-576h-107v673h526v-673z" />
    <glyph glyph-name="uni0420" unicode="&#x420;" 
d="M276 704h206q53 0 92 -6.5t66 -18.5q18 -8 34 -19t31 -26q25 -26 38.5 -62.5t13.5 -80.5q0 -47 -13.5 -82.5t-38.5 -61.5q-15 -15 -31 -26t-34 -18q-27 -12 -66 -18t-92 -6h-99v-248h-107v673zM383 376h126q33 0 59.5 8t45.5 26q17 14 26 34.5t9 46.5q0 25 -9 45t-26 37
q-19 16 -45.5 25t-59.5 9h-126v-231z" />
    <glyph glyph-name="uni0421" unicode="&#x421;" 
d="M568 620q-27 0 -51 -4t-46 -12q-24 -9 -43 -21t-34 -27q-17 -17 -30 -36.5t-22 -43.5q-10 -25 -14.5 -53t-4.5 -61t4.5 -61t13.5 -51q8 -24 20.5 -43t29.5 -34q15 -15 34 -26.5t43 -17.5q22 -7 47.5 -10.5t55.5 -3.5q38 0 75.5 6t75.5 21v-97q-19 -8 -38.5 -13t-38.5 -7
q-21 -3 -40.5 -4.5t-40.5 -1.5q-42 0 -79 5.5t-69 17.5q-32 11 -60 28t-49 40q-24 20 -41 47.5t-27 60.5q-12 30 -17.5 66t-5.5 75t6 74.5t19 69.5q12 32 29 60.5t40 52.5q21 23 49 41.5t60 32.5q32 13 68 20t77 7q38 0 76 -7.5t76 -21.5v-94q-24 6 -44.5 11.5t-36.5 9.5
q-17 3 -33.5 4t-33.5 1z" />
    <glyph glyph-name="uni0422" unicode="&#x422;" 
d="M545 31h-106v576h-218v97h541v-97h-217v-576z" />
    <glyph glyph-name="uni0423" unicode="&#x423;" 
d="M437 324l-244 380h118l181 -287l178 287h120l-245 -381v-292h-108v293z" />
    <glyph glyph-name="uni0424" unicode="&#x424;" 
d="M439 31v63q-53 6 -97 25.5t-79 52.5q-45 40 -67 89t-22 108q0 57 22 106.5t67 91.5q35 32 79 51t97 26v60h107v-60q53 -7 97.5 -26t79.5 -51q44 -42 66 -91.5t22 -106.5q0 -59 -22 -108t-66 -89q-35 -33 -79.5 -52.5t-97.5 -25.5v-63h-107zM439 193v352q-28 -6 -51.5 -17
t-44.5 -27q-31 -26 -46.5 -59t-15.5 -73q0 -42 15.5 -74.5t46.5 -56.5q21 -17 44.5 -28.5t51.5 -16.5zM546 545v-352q27 5 51 16.5t46 28.5q30 24 46 56.5t16 74.5q0 40 -16 73t-46 59q-22 16 -46 27t-51 17z" />
    <glyph glyph-name="uni0425" unicode="&#x425;" 
d="M491 295l-183 -264h-124l240 343l-225 330h119l174 -253l172 253h120l-228 -332l239 -341h-123z" />
    <glyph glyph-name="uni0426" unicode="&#x426;" 
d="M737 32h-500v673h107v-576h302v576h107v-576h91v-255h-107v158z" />
    <glyph glyph-name="uni0427" unicode="&#x427;" 
d="M706 9h-106v260q-30 -33 -64.5 -48t-74.5 -15q-38 0 -70 11.5t-59 35.5q-28 23 -41.5 61.5t-13.5 92.5v297h106v-296q0 -53 26.5 -79t81.5 -26q32 0 59.5 20.5t49.5 63.5v317h106v-695z" />
    <glyph glyph-name="uni0428" unicode="&#x428;" 
d="M824 31h-666v673h108v-576h172v576h107v-576h171v576h108v-673z" />
    <glyph glyph-name="uni0429" unicode="&#x429;" 
d="M767 31h-609v673h108v-576h172v576h107v-576h171v576h108v-575h50v-255h-107v157z" />
    <glyph glyph-name="uni042A" unicode="&#x42a;" 
d="M495 432h-1q-29 0 -57 -14t-55 -41v-198q24 -32 53 -47.5t62 -15.5q29 0 51.5 10.5t39.5 33.5q15 21 23 49.5t8 64.5q0 35 -8 63.5t-23 51.5q-17 21 -40.5 32t-52.5 11zM382 704v-222q27 24 59.5 35.5t71.5 11.5q46 0 84.5 -16.5t69.5 -49.5q30 -34 45 -81.5t15 -107.5
q0 -62 -15 -109t-45 -80q-31 -34 -69.5 -50t-84.5 -16q-41 0 -77 16t-69 51v-55h-91v576h-116v97h222z" />
    <glyph glyph-name="uni042B" unicode="&#x42b;" 
d="M693 31v673h108v-673h-108zM389 432h-1q-29 0 -57 -14t-55 -41v-198q24 -32 53 -47.5t62 -15.5h1h-3h2q29 0 51.5 10.5t39.5 33.5q15 21 23 49.5t8 64.5q0 35 -8 63.5t-23 51.5q-17 21 -40.5 32t-52.5 11zM408 19q-42 0 -78 16t-69 51v-55h-91v673h106v-222
q27 24 59.5 35.5t72.5 11.5q45 0 83.5 -16.5t69.5 -49.5q30 -34 45 -81.5t15 -107.5q0 -62 -15 -109t-45 -80q-31 -34 -69.5 -50t-83.5 -16z" />
    <glyph glyph-name="uni042C" unicode="&#x42c;" 
d="M495 432h-1q-29 0 -57 -14t-55 -41v-198q24 -32 53 -47.5t62 -15.5h1h-3h2q29 0 51.5 10.5t39.5 33.5q15 21 23 49.5t8 64.5q0 35 -8 63.5t-23 51.5q-17 21 -40.5 32t-52.5 11zM513 19q-41 0 -77 16t-69 51v-55h-91v695h106v-244q27 24 59.5 35.5t71.5 11.5
q46 0 84.5 -16.5t69.5 -49.5q30 -34 45 -81.5t15 -107.5q0 -62 -15 -109t-45 -80q-31 -34 -69.5 -50t-84.5 -16z" />
    <glyph glyph-name="uni042D" unicode="&#x42d;" 
d="M369 605q-35 0 -67 -6t-62 -16v100q31 10 66 16t74 6t74.5 -6t66.5 -18q30 -13 56 -30.5t47 -37.5q21 -23 38 -49.5t29 -55.5q11 -32 16.5 -65.5t5.5 -70.5q0 -39 -5 -73.5t-15 -65.5q-12 -31 -28 -58t-37 -49t-48 -39t-59 -29q-32 -13 -70.5 -19t-79.5 -6
q-20 0 -38.5 1.5t-34.5 4.5q-18 3 -34.5 6t-31.5 8v102q13 -6 29.5 -10.5t35.5 -6.5q17 -3 35 -4t36 -1q27 0 51 3t46 9q21 6 38.5 15t32.5 22q14 12 25.5 27t20.5 33q8 18 13 39.5t8 45.5h-327v99h323q-4 21 -10.5 40.5t-15.5 37.5q-11 16 -23 30t-26 26q-14 10 -31 19
t-36 15q-21 5 -42.5 8t-45.5 3z" />
    <glyph glyph-name="uni042E" unicode="&#x42e;" 
d="M773 367q0 31 -4 58t-11 51q-9 22 -18.5 40.5t-21.5 35.5q-13 15 -28 27t-31 21q-18 7 -35 11.5t-33 4.5q-18 0 -35.5 -4.5t-33.5 -11.5q-17 -9 -32 -21t-27 -27q-14 -17 -23.5 -35.5t-15.5 -40.5q-8 -24 -10.5 -51t-2.5 -58q0 -33 2.5 -59.5t10.5 -48.5q6 -24 16 -42.5
t23 -33.5q12 -16 27.5 -28t32.5 -19q16 -9 33 -12t35 -3q17 0 33.5 3t34.5 12q16 7 31 19t28 28q12 15 21.5 33.5t18.5 42.5q7 22 11 48.5t4 59.5zM120 704h108v-287h76q2 23 6 45t11 43q9 29 23.5 56t33.5 51q18 22 40.5 40.5t49.5 32.5q27 12 57 19t66 7q34 0 65.5 -7
t57.5 -19q26 -14 48.5 -32.5t42.5 -40.5q17 -24 31 -51t25 -56q9 -32 14.5 -66t5.5 -72q0 -39 -5.5 -72.5t-15.5 -63.5q-11 -31 -25 -58t-31 -49q-20 -24 -42.5 -42.5t-48.5 -30.5q-26 -14 -57.5 -20t-64.5 -6q-36 0 -66.5 6t-57.5 20q-27 12 -49.5 30.5t-40.5 42.5
q-20 22 -34 49t-23 58q-7 20 -11 42.5t-5 46.5h-76v-289h-108v673z" />
    <glyph glyph-name="uni042F" unicode="&#x42f;" 
d="M708 704v-673h-107v282h-59l-209 -282h-119l209 288q-11 1 -19.5 3.5t-17.5 6.5q-24 7 -42 18t-31 25q-13 13 -23.5 29t-17.5 33q-9 17 -13 35.5t-4 38.5q0 17 4 36t13 38q7 18 17.5 33t23.5 29q13 12 31 23t42 20q22 8 51.5 12.5t65.5 4.5h205zM601 410v197h-111
q-34 0 -57.5 -7.5t-38.5 -21.5q-16 -15 -23.5 -32.5t-7.5 -36.5q0 -21 7.5 -38.5t23.5 -31.5q15 -15 38.5 -22t57.5 -7h111z" />
    <glyph glyph-name="uni0430" unicode="&#x430;" 
d="M593 240q-18 4 -33.5 7t-28.5 5q-15 1 -29 1.5t-28 0.5q-20 -2 -35 -6t-25 -11q-13 -11 -20 -24t-7 -31t4.5 -31.5t15.5 -21.5q8 -8 21.5 -12t30.5 -4q39 0 72 13.5t62 43.5v70zM601 76q-36 -30 -74.5 -43.5t-81.5 -13.5q-38 0 -69 11.5t-52 35.5q-22 23 -33 51.5
t-11 64.5t13.5 66t40.5 54q25 21 57 32t73 11q36 0 68 -4.5t61 -13.5v20q0 41 -29.5 62.5t-85.5 24.5q-36 1 -71 -2.5t-70 -9.5v93q36 7 73.5 10.5t76.5 3.5q44 -2 82.5 -13.5t68.5 -35.5q30 -26 46 -63t16 -86v-300h-99v45z" />
    <glyph glyph-name="uni0431" unicode="&#x431;" 
d="M500 117q26 0 46.5 7t35.5 24q15 16 22.5 38t7.5 48q0 28 -7 49t-22 36q-16 12 -38.5 19.5t-49.5 7.5q-15 0 -30.5 -2t-30.5 -5q-17 -4 -31.5 -9.5t-28.5 -10.5q0 -47 7.5 -83.5t22.5 -63.5q14 -29 38 -42t58 -13zM556 722q38 0 75.5 3.5t76.5 12.5v-101
q-36 -9 -73 -13.5t-75 -4.5q-71 -2 -116 -54t-66 -154q33 14 66 22.5t66 8.5q44 0 81.5 -13.5t69.5 -40.5q30 -27 44.5 -64t14.5 -83q0 -53 -15.5 -94.5t-45.5 -69.5q-33 -30 -73 -44t-88 -14q-55 0 -97.5 19.5t-73.5 61.5q-32 39 -48 94t-16 127q0 83 20 154.5t61 133.5
q39 52 92 80.5t120 32.5z" />
    <glyph glyph-name="uni0432" unicode="&#x432;" 
d="M295 517h161q55 0 95 -10.5t63 -29.5q22 -21 34 -45t12 -51q0 -31 -15 -54.5t-42 -40.5q37 -15 56.5 -43t19.5 -71q0 -31 -12.5 -56t-36.5 -44q-24 -21 -68.5 -31t-107.5 -10h-159v486zM398 237v-115h103q11 0 20.5 1t17.5 3q6 1 11 3.5t8 5.5q9 8 14 19t5 25q0 13 -5 24
t-14 20q-3 2 -8 4.5l-11 5.5q-8 1 -17.5 2.5t-20.5 1.5h-103zM471 321q15 0 27 0.5t23 2.5q18 5 27 17.5t9 32.5q0 18 -9 30.5t-27 17.5q-11 1 -22.5 2.5t-26.5 1.5h-74v-105h73z" />
    <glyph glyph-name="uni0433" unicode="&#x433;" 
d="M648 420h-206v-389h-107v486h313v-97z" />
    <glyph glyph-name="uni0434" unicode="&#x434;" 
d="M308 128q32 70 49.5 167t17.5 222h282v-389h58v-198h-106v101h-240v-101h-107v198h46zM475 447q0 -80 -15 -159.5t-44 -159.5h134v319h-75z" />
    <glyph glyph-name="uni0435" unicode="&#x435;" 
d="M381 313h223q-2 27 -9.5 49.5t-20.5 40.5q-15 16 -35.5 24t-46.5 8q-27 0 -47 -8t-33 -24q-14 -18 -22 -40.5t-9 -49.5zM380 224q3 -26 14 -46t28 -34q17 -15 41 -23t54 -8q37 -3 79 1.5t90 15.5v-92q-43 -12 -85 -17t-84 -3q-56 0 -100.5 16.5t-77.5 49.5t-49.5 80.5
t-16.5 109.5q0 58 15.5 104.5t47.5 82.5q31 34 69.5 51t86.5 17q47 0 86 -17.5t71 -51.5q30 -36 45.5 -82.5t15.5 -103.5v-50h-330z" />
    <glyph glyph-name="uni0436" unicode="&#x436;" 
d="M438 312v205h106v-205l198 205h129l-226 -239l226 -247h-130l-197 214v-214h-106v214l-197 -214h-129l225 247l-225 239h128z" />
    <glyph glyph-name="uni0437" unicode="&#x437;" 
d="M329 491q18 7 37.5 12.5t40.5 10.5q20 3 41 5t42 2q22 0 43 -3t40 -7q18 -6 32.5 -13t27.5 -16q12 -9 21.5 -20t17.5 -23q6 -13 9.5 -26.5t3.5 -28.5q0 -19 -5 -34.5t-14 -26.5q-10 -14 -21.5 -23.5t-23.5 -15.5v-2q7 -3 14.5 -7t15.5 -8q6 -5 12 -10.5t12 -11.5
q4 -7 8.5 -14t8.5 -14q3 -9 4.5 -18t1.5 -19q0 -16 -3.5 -31t-9.5 -27q-7 -15 -17 -27t-22 -22q-14 -11 -30.5 -19t-37.5 -14t-46 -9t-53 -3q-24 0 -46 1.5t-41 6.5q-21 3 -38.5 8t-32.5 13v92q18 -9 37 -14t38 -8q17 -3 34.5 -4.5t35.5 -1.5q15 0 28.5 0.5t24.5 3.5
q10 0 19 3.5t16 8.5q6 3 11 8.5t8 11.5q2 5 3.5 11t1.5 14q0 19 -10.5 30.5t-30.5 16.5q-9 1 -20 2.5t-26 1.5h-109v90h114h20.5t14.5 3q9 3 15 7.5t11 12.5q3 6 5 13t2 15q0 12 -6 22.5t-16 18.5q-12 6 -28 9.5t-38 3.5q-19 0 -38 -2.5t-37 -4.5l-38 -9.5t-34 -9.5v89z" />
    <glyph glyph-name="uni0438" unicode="&#x438;" 
d="M708 517v-486h-107v325l-220 -325h-105v486h107v-318l219 318h106z" />
    <glyph glyph-name="uni0439" unicode="&#x439;" 
d="M708 517v-486h-107v325l-220 -325h-105v486h107v-318l219 318h106zM492 646q24 0 42.5 14t30.5 44h104q-21 -69 -65 -103t-112 -34q-69 0 -113.5 34t-64.5 103h104q10 -30 28.5 -44t45.5 -14z" />
    <glyph glyph-name="uni043A" unicode="&#x43a;" 
d="M580 517h128l-225 -239l225 -247h-129l-197 214v-214h-106v486h106v-205z" />
    <glyph glyph-name="uni043B" unicode="&#x43b;" 
d="M708 514v-483h-107v386h-91q-7 -47 -14 -87t-14 -73q-9 -34 -17 -61.5t-17 -48.5q-9 -22 -18.5 -38t-18.5 -28q-10 -13 -20 -22t-19 -14q-11 -6 -21 -9.5t-19 -4.5q-11 -3 -21 -3.5t-20 -0.5h-10t-9 1q-6 0 -10.5 0.5t-8.5 2.5v101q6 -2 13 -2h13q8 0 15.5 0.5t14.5 3.5
q5 1 10.5 5.5t11.5 10.5q5 6 10.5 15t11.5 22q5 12 10.5 28.5t11.5 37.5q5 21 10.5 47.5t11.5 60.5q5 33 10.5 70.5t11.5 82.5h289z" />
    <glyph glyph-name="uni043C" unicode="&#x43c;" 
d="M474 173l109 344h151v-486h-98v368l-127 -368h-73l-126 367v-367h-98v486h150l109 -344h3z" />
    <glyph glyph-name="uni043D" unicode="&#x43d;" 
d="M367 324h249v193h108v-486h-108v197h-249v-197h-107v486h107v-193z" />
    <glyph glyph-name="uni043E" unicode="&#x43e;" 
d="M492 529q53 0 99 -18.5t85 -55.5q34 -35 52 -81t18 -100q0 -56 -18 -101.5t-52 -80.5q-39 -38 -85 -55.5t-99 -17.5q-54 0 -100 17.5t-82 55.5q-37 35 -55 80.5t-18 101.5q0 54 18 100t55 81q36 37 82 55.5t100 18.5zM345 274q0 -36 10.5 -64t32.5 -49q21 -23 47 -34
t57 -11q30 0 56.5 11t49.5 34q20 21 31 49t11 64q0 34 -11 62t-31 51q-23 22 -49.5 33t-56.5 12q-31 -1 -57 -12t-47 -33q-22 -23 -32.5 -51t-10.5 -62z" />
    <glyph glyph-name="uni043F" unicode="&#x43f;" 
d="M383 420v-389h-107v486h432v-486h-107v389h-218z" />
    <glyph glyph-name="uni0440" unicode="&#x440;" 
d="M496 116q29 0 53 10.5t41 33.5q15 21 23 49.5t8 64.5q0 35 -8 63t-23 51q-17 21 -40 32t-52 12h-2h3h-1q-33 -1 -62 -16.5t-53 -46.5v-198q27 -29 55 -42t57 -13h1zM514 529q46 0 84.5 -16.5t69.5 -49.5q30 -34 45 -81.5t15 -107.5q0 -62 -15 -109t-45 -80
q-31 -34 -69.5 -50t-84.5 -16q-39 0 -71.5 11.5t-59.5 35.5v-214h-107v665h99v-45q33 28 67.5 42.5t71.5 14.5z" />
    <glyph glyph-name="uni0441" unicode="&#x441;" 
d="M401 275q-1 -35 7.5 -62t27.5 -47q22 -26 54.5 -37.5t76.5 -11.5q34 0 65.5 3t60.5 10v-94q-36 -10 -70.5 -14.5t-68.5 -1.5q-62 3 -110.5 21.5t-82.5 53.5q-35 33 -51.5 78.5t-16.5 101.5q0 55 16.5 100.5t51.5 79.5q34 33 82.5 51.5t110.5 22.5q33 1 66.5 -3t69.5 -13
v-94q-29 5 -59.5 9t-63.5 4q-44 0 -76.5 -12.5t-54.5 -36.5q-19 -21 -27.5 -47.5t-7.5 -60.5z" />
    <glyph glyph-name="uni0442" unicode="&#x442;" 
d="M276 420v97h432v-97h-163v-389h-107v389h-162z" />
    <glyph glyph-name="uni0443" unicode="&#x443;" 
d="M248 517h109l127 -338l140 338h108l-281 -668h-107l86 203z" />
    <glyph glyph-name="uni0444" unicode="&#x444;" 
d="M545 694v-169q39 -7 73 -24.5t64 -44.5q37 -37 56.5 -83t19.5 -99q0 -55 -19.5 -101t-56.5 -81q-30 -29 -64 -46.5t-73 -22.5v-148h-107v149q-38 5 -72 22.5t-61 45.5q-39 35 -58.5 81t-19.5 101q0 53 19.5 99t58.5 83q27 27 61.5 44.5t72.5 23.5v170h106zM545 425v-302
q18 5 34 15.5t30 25.5q20 24 30.5 51t10.5 59q0 30 -10.5 57.5t-30.5 52.5q-14 15 -30 25.5t-34 15.5zM438 124l1 300q-20 -5 -35 -15t-27 -25q-21 -25 -31.5 -52.5t-10.5 -57.5q0 -32 10.5 -59t31.5 -51q12 -15 27 -25t34 -15z" />
    <glyph glyph-name="uni0445" unicode="&#x445;" 
d="M492 357l115 160h120l-172 -241l180 -245h-121l-123 167l-121 -167h-121l181 247l-174 239h121z" />
    <glyph glyph-name="uni0446" unicode="&#x446;" 
d="M677 32h-411v485h107v-388h242v388h107v-388h62v-245h-107v148z" />
    <glyph glyph-name="uni0447" unicode="&#x447;" 
d="M706 -90h-106v260q-30 -33 -64.5 -48t-74.5 -15q-38 0 -70 11.5t-59 35.5q-28 23 -41.5 61.5t-13.5 92.5v209h106v-208q0 -53 26.5 -79t81.5 -26q32 0 59 20.5t50 63.5v229h106v-607z" />
    <glyph glyph-name="uni0448" unicode="&#x448;" 
d="M786 31h-589v486h105v-389h137v389h105v-389h137v389h105v-486z" />
    <glyph glyph-name="uni0449" unicode="&#x449;" 
d="M727 31h-530v486h105v-389h137v389h105v-389h137v389h105v-390h52v-241h-111v145z" />
    <glyph glyph-name="uni044A" unicode="&#x44a;" 
d="M438 346q8 0 16.5 1t16.5 1q8 1 16 1.5t16 0.5q52 0 90.5 -11.5t64.5 -31.5q24 -23 37 -50t13 -59q0 -40 -16.5 -70t-49.5 -51q-33 -23 -74.5 -33.5t-89.5 -10.5q-23 0 -42.5 1t-34.5 4q-18 2 -35.5 5t-34.5 8v369h-141v97h248v-171zM485 127q25 0 46 4.5t36 13.5
q15 8 22.5 20t7.5 29q0 13 -6.5 24.5t-18.5 20.5q-14 8 -34 12.5t-46 4.5q-7 0 -13.5 -0.5t-13.5 -1.5q-6 0 -13 -1t-14 -1v-123q10 -2 21.5 -2h25.5v0z" />
    <glyph glyph-name="uni044B" unicode="&#x44b;" 
d="M367 127q26 0 46.5 4.5t35.5 13.5q15 8 22.5 20t7.5 29q0 13 -6.5 24.5t-18.5 20.5q-14 8 -33.5 12.5t-46.5 4.5q-7 0 -13.5 -0.5t-13.5 -1.5q-6 0 -13 -1t-14 -1v-123q10 -2 21.5 -2h25.5v0zM213 517h107v-171q8 0 16.5 1t16.5 1q8 1 16 1.5t16 0.5q52 0 90.5 -11.5
t64.5 -31.5q24 -23 37 -50t13 -59q0 -40 -16.5 -70t-49.5 -51q-32 -23 -73.5 -33.5t-90.5 -10.5q-23 0 -42 1t-35 4q-18 2 -35.5 5t-34.5 8v466zM747 32h-107v485h107v-485z" />
    <glyph glyph-name="uni044C" unicode="&#x44c;" 
d="M458 127q26 0 46.5 4.5t35.5 13.5q15 8 22.5 20t7.5 29q0 13 -6.5 24.5t-18.5 20.5q-14 8 -33.5 12.5t-46.5 4.5q-7 0 -13.5 -0.5t-13.5 -1.5q-6 0 -13 -1t-14 -1v-123q10 -2 21.5 -2h25.5v0zM305 517h106v-171q8 0 16.5 1t16.5 1q8 1 16 1.5t16 0.5q52 0 91 -11.5
t64 -31.5q24 -23 37 -50t13 -59q0 -40 -16.5 -70t-49.5 -51q-32 -23 -73.5 -33.5t-90.5 -10.5q-23 0 -42 1t-35 4q-18 2 -35.5 5t-33.5 8v466z" />
    <glyph glyph-name="uni044D" unicode="&#x44d;" 
d="M446 516q27 0 52 -4.5t49 -12.5q22 -9 42 -21t37 -27q16 -17 29 -36t23 -41q9 -24 13.5 -50t4.5 -56q0 -32 -4.5 -58.5t-13.5 -48.5q-10 -24 -23.5 -43t-29.5 -34q-17 -16 -37 -27.5t-43 -18.5q-24 -8 -50.5 -11t-55.5 -3q-21 0 -39.5 1t-34.5 6q-18 3 -32 8t-23 11v91
q14 -8 29 -12t31 -7q15 -3 30.5 -4.5t32.5 -1.5q34 0 60.5 6t46.5 21q18 13 29.5 34.5t15.5 50.5h-239v90h235q-3 12 -7.5 24.5t-10.5 23.5q-7 9 -15 17.5t-17 15.5q-10 6 -20 10.5t-22 8.5q-13 3 -26.5 4t-26.5 1q-18 0 -34.5 -1t-31.5 -4q-16 -4 -29.5 -8.5t-24.5 -8.5v89
q13 6 28.5 10.5t33.5 8.5q16 3 33 5t35 2z" />
    <glyph glyph-name="uni044E" unicode="&#x44e;" 
d="M183 31v486h106v-194h87q5 39 20 72t41 60q33 37 75 55.5t93 18.5q50 0 92.5 -18.5t77.5 -55.5q32 -35 48 -81t16 -100q0 -56 -16 -101.5t-48 -80.5q-35 -38 -77.5 -55.5t-92.5 -17.5q-51 0 -93 17.5t-75 55.5q-26 27 -41 60.5t-21 73.5h-86v-195h-106zM479 274
q0 -36 9 -64t28 -49q19 -23 41.5 -34t48.5 -11q24 0 46.5 11t43.5 34q18 21 28 49t10 64q0 34 -10 62t-28 51q-21 22 -43.5 33t-46.5 12q-26 -1 -48.5 -12t-41.5 -33q-19 -23 -28 -51t-9 -62z" />
    <glyph glyph-name="uni044F" unicode="&#x44f;" 
d="M491 428q-40 0 -59.5 -17t-19.5 -50q0 -32 21 -46.5t63 -14.5h77v128h-82zM304 356q0 39 11.5 68t36.5 50q27 21 61.5 32t78.5 11h188v-486h-107v181h-85l-84 -181h-109l104 203q-48 17 -71.5 47.5t-23.5 74.5v0z" />
    <glyph glyph-name="uni0451" unicode="&#x451;" 
d="M358 678h78v-71h-78v71zM557 678h78v-71h-78v71zM381 313h223q-2 27 -9.5 49.5t-20.5 40.5q-15 16 -35.5 24t-46.5 8q-27 0 -47 -8t-33 -24q-14 -18 -22 -40.5t-9 -49.5zM380 224q3 -26 14 -46t28 -34q17 -15 41 -23t54 -8q37 -3 79 1.5t90 15.5v-92q-43 -12 -85 -17
t-84 -3q-56 0 -100.5 16.5t-77.5 49.5t-49.5 80.5t-16.5 109.5q0 58 15.5 104.5t47.5 82.5q31 34 69.5 51t86.5 17q47 0 86 -17.5t71 -51.5q30 -36 45.5 -82.5t15.5 -103.5v-50h-330z" />
    <glyph glyph-name="endash" unicode="&#x2013;" horiz-adv-x="363" 
d="M312 411q36 0 36 -36q0 -34 -36 -34h-258q-35 0 -35 34q0 36 35 36h258z" />
    <glyph glyph-name="emdash" unicode="&#x2014;" 
d="M859 336h-736q-39 0 -39 38q0 42 39 42h736q40 0 40 -42q0 -38 -40 -38z" />
    <glyph glyph-name="uni2015" unicode="&#x2015;" 
d="M166 338q-53 0 -53 53q0 54 53 54h652q53 0 53 -54q0 -53 -53 -53h-652z" />
    <glyph glyph-name="uni2016" unicode="&#x2016;" 
d="M345 -93v889q0 38 38 38t38 -38v-889q0 -38 -38 -38t-38 38zM637 -93q0 -38 -39 -38t-39 38v888q0 39 39 39t39 -39v-888z" />
    <glyph glyph-name="quoteleft" unicode="&#x2018;" horiz-adv-x="338" 
d="M119 640q0 71 39.5 116.5t90.5 50.5q33 2 38 -19q6 -24 -19 -34q-49 -19 -49 -43q0 -8 8.5 -15t18.5 -11q15 -6 31.5 -25.5t16.5 -48.5q0 -34 -24 -58.5t-58 -24.5q-36 0 -64.5 30t-28.5 82z" />
    <glyph glyph-name="quoteright" unicode="&#x2019;" horiz-adv-x="338" 
d="M226 701q0 -71 -39.5 -116.5t-90.5 -50.5q-33 -2 -38 19q-6 24 19 34q49 19 49 43q0 8 -8.5 15t-18.5 11q-15 6 -31.5 25.5t-16.5 48.5q0 34 24 58.5t58 24.5q36 0 64.5 -30t28.5 -82z" />
    <glyph glyph-name="quotereversed" unicode="&#x201b;" horiz-adv-x="338" 
d="M43 691q0 54 27.5 83t64.5 29q34 0 58 -24.5t24 -58.5q0 -29 -16.5 -48.5t-31.5 -25.5q-10 -4 -18.5 -11t-8.5 -15q0 -26 49 -43q25 -11 20 -34q-5 -21 -39 -19q-50 6 -89.5 49.5t-39.5 117.5z" />
    <glyph glyph-name="quotedblleft" unicode="&#x201c;" horiz-adv-x="550" 
d="M123 640q0 71 39.5 116.5t90.5 50.5q33 2 38 -19q6 -24 -19 -34q-49 -19 -49 -43q0 -8 8.5 -15t18.5 -11q15 -6 31.5 -25.5t16.5 -48.5q0 -34 -24 -58.5t-58 -24.5q-36 0 -64.5 30t-28.5 82zM333 640q0 71 39.5 116.5t90.5 50.5q33 2 38 -19q6 -24 -19 -34
q-49 -19 -49 -43q0 -8 8.5 -15t18.5 -11q15 -6 31.5 -25.5t16.5 -48.5q0 -34 -24 -58.5t-58 -24.5q-36 0 -64.5 30t-28.5 82z" />
    <glyph glyph-name="quotedblright" unicode="&#x201d;" horiz-adv-x="550" 
d="M431 701q0 -71 -39.5 -116.5t-90.5 -50.5q-33 -2 -38 19q-6 24 19 34q49 19 49 43q0 8 -8.5 15t-18.5 11q-15 6 -31.5 25.5t-16.5 48.5q0 34 24 58.5t58 24.5q36 0 64.5 -30t28.5 -82zM221 701q0 -71 -39.5 -116.5t-90.5 -50.5q-33 -2 -38 19q-6 24 19 34q49 19 49 43
q0 8 -8.5 15t-18.5 11q-15 6 -31.5 25.5t-16.5 48.5q0 34 24 58.5t58 24.5q36 0 64.5 -30t28.5 -82z" />
    <glyph glyph-name="uni201F" unicode="&#x201f;" horiz-adv-x="550" 
d="M41 691q0 54 27.5 83t64.5 29q34 0 58 -24.5t24 -58.5q0 -29 -16.5 -48.5t-31.5 -25.5q-10 -4 -18.5 -11t-8.5 -15q0 -26 49 -43q25 -11 20 -34q-5 -21 -39 -19q-50 6 -89.5 49.5t-39.5 117.5zM235 691q0 54 27.5 83t64.5 29q34 0 58 -24.5t24 -58.5q0 -29 -16.5 -48.5
t-31.5 -25.5q-10 -4 -18.5 -11t-8.5 -15q0 -26 49 -43q25 -11 20 -34q-5 -21 -39 -19q-50 6 -89.5 49.5t-39.5 117.5z" />
    <glyph glyph-name="dagger" unicode="&#x2020;" 
d="M492 800q38 0 46 -39.5t-1 -83.5q-13 -58 -13 -79q23 0 66 16q33 11 74 4t40 -50q-1 -37 -41 -45.5t-74 3.5q-42 16 -65 16q0 -59 17 -79q17 -19 22.5 -26t-21.5 -54q-21 -37 -19 -203t-2 -220q-5 -52 -29 -52q-26 0 -30 52q-4 54 -2 220t-19 203q-27 47 -21.5 54
t22.5 26q17 20 17 79q-27 0 -64 -16q-35 -14 -75 -4.5t-41 46.5q-1 43 40 50t75 -4q44 -16 65 -16q0 21 -13 79q-9 44 -0.5 83.5t46.5 39.5z" />
    <glyph glyph-name="daggerdbl" unicode="&#x2021;" 
d="M524 424q1 -50 15 -71q14 -20 20.5 -25t-19.5 -54q-20 -38 -19.5 -149t-0.5 -166q-1 -53 -28 -53t-29 53q-2 55 -2 169t-18 146q-27 49 -19.5 54t19.5 25q14 21 16 70q-33 -2 -64 -13q-35 -13 -75 -5t-41 46q-1 42 40 48t75 -5q36 -12 65 -14v70q-33 -2 -64 -13
q-35 -13 -75 -5t-41 45q-1 43 40 49t75 -5q35 -11 64 -13q-3 28 -12 69q-9 44 -0.5 83.5t46.5 39.5t46 -39.5t-1 -83.5q-9 -41 -12 -70q29 2 65 14q33 12 74 5.5t40 -49.5q-1 -37 -41 -45t-74 5q-35 13 -65 14v-71q30 1 66 14q33 12 74 5.5t40 -48.5q-1 -38 -41 -46t-74 5
q-35 13 -65 14z" />
    <glyph glyph-name="bullet" unicode="&#x2022;" 
d="M623 387q0 -27 -11 -50.5t-27 -41.5q-18 -17 -42 -27.5t-51 -10.5q-26 0 -50 10.5t-42 27.5q-17 18 -27.5 41.5t-10.5 50.5t10.5 50.5t27.5 41.5q18 17 42 28t50 11q27 0 51 -11t42 -28q16 -18 27 -41.5t11 -50.5z" />
    <glyph glyph-name="twodotenleader" unicode="&#x2025;" 
d="M316 396q0 -32 -22 -54t-53 -22t-53 22t-22 54t22 54t53 22t53 -22t22 -54zM807 396q0 -32 -22 -54t-53 -22t-53 22t-22 54t22 54t53 22t53 -22t22 -54z" />
    <glyph glyph-name="ellipsis" unicode="&#x2026;" 
d="M248 397q0 -29 -20.5 -49.5t-48.5 -20.5q-29 0 -49.5 20.5t-20.5 49.5t20.5 49.5t49.5 20.5q28 0 48.5 -20.5t20.5 -49.5zM561 397q0 -29 -20.5 -49.5t-48.5 -20.5q-29 0 -49.5 20.5t-20.5 49.5t20.5 49.5t49.5 20.5q28 0 48.5 -20.5t20.5 -49.5zM874 397
q0 -29 -20.5 -49.5t-49.5 -20.5q-28 0 -48.5 20.5t-20.5 49.5t20.5 49.5t48.5 20.5q29 0 49.5 -20.5t20.5 -49.5z" />
    <glyph glyph-name="perthousand" unicode="&#x2030;" 
d="M319 575q0 -32 -10.5 -63t-30.5 -53q-20 -21 -47.5 -33t-56.5 -12q-30 0 -57 12t-47 33q-20 22 -31 53t-11 63q0 33 11 63.5t31 52.5t47 34t57 12q29 0 56.5 -12t47.5 -34t30.5 -52.5t10.5 -63.5zM602 182q0 -32 -10.5 -63t-30.5 -53q-20 -21 -47 -33t-57 -12t-57 12
t-47 33q-20 22 -31 53t-11 63q0 33 11 63.5t31 52.5t47 34t57 12t57 -12t47 -34t30.5 -52.5t10.5 -63.5zM919 182q0 -32 -11 -63t-30 -53q-20 -21 -47.5 -33t-56.5 -12q-30 0 -57 12t-47 33q-20 22 -31 53t-11 63q0 33 11 63.5t31 52.5t47 34t57 12q29 0 56.5 -12t47.5 -34
q19 -22 30 -52.5t11 -63.5zM465 751q20 36 55 18q45 -23 24 -64l-374 -678q-20 -40 -56 -19q-45 22 -23 66zM233 575q0 34 -16.5 56t-42.5 22t-43 -22t-17 -56q0 -33 17 -55.5t43 -22.5t42.5 22.5t16.5 55.5zM516 182q0 34 -16.5 56t-42.5 22t-42.5 -22t-16.5 -56
q0 -33 16.5 -55.5t42.5 -22.5t42.5 22.5t16.5 55.5zM833 182q0 34 -17 56t-42 22q-26 0 -43 -22t-17 -56q0 -33 17 -55.5t43 -22.5q25 0 42 22.5t17 55.5z" />
    <glyph glyph-name="minute" unicode="&#x2032;" 
d="M112 610l104 179q23 35 70 16q46 -19 18 -66l-104 -183q-25 -41 -72 -15q-43 23 -16 69z" />
    <glyph glyph-name="second" unicode="&#x2033;" 
d="M112 610l104 179q23 35 70 16q46 -19 18 -66l-104 -183q-25 -41 -72 -15q-43 23 -16 69zM294 610l104 179q22 35 69 16q46 -19 19 -66l-105 -183q-25 -41 -72 -15q-43 23 -15 69z" />
    <glyph glyph-name="uni2034" unicode="&#x2034;" 
d="M438 821l-149 -269h-81l85 269h145zM617 821l-149 -269h-80l84 269h145zM797 821l-150 -269h-80l84 269h146z" />
    <glyph glyph-name="uni2035" unicode="&#x2035;" horiz-adv-x="401" 
d="M338 672v-58l-249 116v103z" />
    <glyph glyph-name="uni2036" unicode="&#x2036;" horiz-adv-x="401" 
d="M338 510v-58l-249 114v103zM338 674v-59l-249 116v103z" />
    <glyph glyph-name="guilsinglleft" unicode="&#x2039;" 
d="M870 -84l-760 446l760 445v-84l-614 -361l614 -359v-87z" />
    <glyph glyph-name="guilsinglright" unicode="&#x203a;" 
d="M888 362l-760 -446v87l614 359l-614 361v84z" />
    <glyph glyph-name="uni203B" unicode="&#x203b;" 
d="M573 642q0 -32 -23.5 -55t-55.5 -23q-33 0 -56.5 23t-23.5 55q0 31 23.5 54t56.5 23q32 0 55.5 -23t23.5 -54zM573 116q0 -32 -23.5 -54.5t-55.5 -22.5q-33 0 -56.5 22.5t-23.5 54.5t23.5 54.5t56.5 22.5q32 0 55.5 -22.5t23.5 -54.5zM312 380q0 -31 -23 -54t-56 -23
q-32 0 -55.5 23t-23.5 54q0 32 23.5 54.5t55.5 22.5q33 0 56 -22.5t23 -54.5zM834 380q0 -31 -23 -54t-56 -23t-56 23t-23 54q0 32 23 54.5t56 22.5t56 -22.5t23 -54.5zM259 66q-38 -37 -76 -1q-39 39 0 78q117 118 235 236l-235 238q-39 38 0 76q38 38 76 0
q118 -119 235 -237q117 118 234 237q38 38 76 0q39 -38 0 -76l-235 -238q118 -118 235 -236q39 -39 0 -78q-38 -36 -76 1l-234 237z" />
    <glyph glyph-name="exclamdbl" unicode="&#x203c;" 
d="M431 -10h-119v125h119v-125zM686 -10h-119v125h119v-125zM427 497l-21 -291h-70l-20 291v283h111v-283zM682 497l-21 -291h-70l-20 291v283h111v-283z" />
    <glyph glyph-name="uni203E" unicode="&#x203e;" 
d="M887 841q49 0 49 -50q0 -48 -49 -48h-790q-49 0 -49 48q0 50 49 50h790z" />
    <glyph glyph-name="uni2042" unicode="&#x2042;" 
d="M273 130l-30 -26q-7 -6 -18 -16t-23 -17q-12 -6 -27 -7t-24 17q-11 15 -4 28.5t19 21.5q12 6 26.5 12t24.5 8l37 10l-38 12q-11 4 -24.5 8.5t-24.5 12.5q-13 8 -19.5 20.5t3.5 28.5q9 16 23.5 17t27.5 -6q11 -6 22 -15.5t20 -18.5l31 -29l-9 41q-3 13 -6 27.5t-2 26.5
q0 14 7 26t27 12q19 0 25.5 -11.5t8.5 -28.5q0 -13 -3 -26.5t-6 -26.5l-8 -39l30 28q9 8 19.5 17.5t23.5 15.5t26.5 5t22.5 -16q11 -16 4 -28.5t-19 -22.5q-12 -8 -26 -13t-24 -8l-36 -10l36 -11q11 -3 24.5 -8.5t24.5 -12.5q13 -8 19.5 -19.5t-2.5 -27.5q-9 -17 -24 -18
t-28 5q-13 7 -25 16.5t-19 17.5l-28 27l8 -37q3 -13 6 -27t3 -27q-2 -16 -8.5 -27.5t-25.5 -11.5t-27 12t-8 26q-1 14 2 28.5t10 44.5zM690 130l-30 -26q-7 -6 -18 -16t-24 -17q-12 -6 -26.5 -7t-23.5 17q-11 15 -4 28.5t19 21.5q12 6 26.5 12t24.5 8l37 10l-38 12
q-11 4 -24.5 8.5t-24.5 12.5q-13 8 -19.5 20.5t3.5 28.5q9 16 23 17t27 -6q12 -6 23 -15.5t20 -18.5l31 -29l-9 41q-3 13 -6 27.5t-2 26.5q0 14 7 26t26 12q20 0 26.5 -11.5t8.5 -28.5q0 -13 -3 -26.5t-6 -26.5l-8 -39l30 28q9 8 19.5 17.5t22.5 15.5q13 6 27 5t23 -16
q11 -16 4 -28.5t-19 -22.5q-12 -8 -26 -13t-24 -8l-36 -10l36 -11q11 -3 24.5 -8.5t24.5 -12.5q13 -8 19.5 -19.5t-2.5 -27.5q-9 -17 -24.5 -18t-27.5 5q-13 7 -25 16.5t-19 17.5l-28 27l8 -37q3 -13 6 -27t3 -27q-2 -16 -8.5 -27.5t-26.5 -11.5q-18 0 -26 12t-8 26
q-1 14 2 28.5t10 44.5zM481 571l-30 -25q-7 -6 -18 -16t-24 -17q-11 -6 -26 -7t-24 17q-11 15 -4 28t19 21q12 6 26.5 12t24.5 8l37 11l-38 12q-11 4 -24.5 8.5t-24.5 12.5q-13 8 -19.5 20t3.5 28q9 17 23.5 18t26.5 -7q12 -6 23 -15.5t20 -18.5l31 -28l-9 40q-3 13 -6 28
t-2 27q0 14 7 25.5t27 11.5q19 0 25.5 -11t8.5 -28q0 -13 -3 -27t-6 -27l-8 -38l30 27q9 8 19.5 17.5t23.5 15.5q12 7 26 6t23 -17q11 -16 4 -28t-19 -22q-12 -8 -26 -13t-24 -8l-36 -10l36 -12q11 -3 24.5 -8.5t24.5 -12.5q13 -8 19.5 -19t-2.5 -27q-9 -17 -24.5 -18
t-27.5 5q-13 7 -25 16.5t-19 17.5l-28 26l8 -36q3 -13 6 -27.5t3 -27.5q-2 -16 -8.5 -27t-25.5 -11t-27 11.5t-8 27.5q-1 11 2 26.5t10 44.5z" />
    <glyph glyph-name="uni2047" unicode="&#x2047;" 
d="M90 715q26 28 66 46q47 22 95 22q89 0 142 -52.5t53 -137.5q0 -55 -29 -102t-67 -83q-52 -51 -65.5 -78t-13.5 -72v-81h-76v95q0 51 20 89.5t62 77.5q87 78 87 153q0 55 -31 84.5t-84 29.5q-41 0 -80 -23q-36 -20 -79 -64v96zM183 -18v118h107v-118h-107zM512 715
q27 28 67 46q47 22 95 22q89 0 142 -52.5t53 -137.5q0 -55 -29.5 -102t-66.5 -83q-53 -51 -66 -78t-13 -72v-81h-77v95q0 51 20.5 89.5t61.5 77.5q88 78 88 153q0 55 -31.5 84.5t-83.5 29.5q-41 0 -80 -23q-36 -20 -80 -64v96zM605 -18v118h107v-118h-107z" />
    <glyph glyph-name="uni2049" unicode="&#x2049;" 
d="M314 767v-156l-11 -431h-67l-11 431v156h89zM323 -16h-108v107h108v-107zM450 715q27 28 66 46q48 22 95 22q89 0 142 -52.5t53 -137.5q0 -55 -29 -102t-67 -83q-52 -51 -65.5 -78t-13.5 -72v-81h-76v95q0 51 20.5 89.5t61.5 77.5q87 78 87 153q0 55 -31 84.5t-84 29.5
q-40 0 -80 -23q-35 -20 -79 -64v96zM543 -18v118h107v-118h-107z" />
    <glyph glyph-name="uni204C" unicode="&#x204c;" horiz-adv-x="469" 
d="M418 782v-830h-40v830h40zM331 -46q-15 4 -30 11q-75 35 -131 93q-56 60 -88 139t-32 169t32 169.5t88 138.5t131 93q14 6 30 12v-825z" />
    <glyph glyph-name="uni204D" unicode="&#x204d;" horiz-adv-x="469" 
d="M58 781h41v-830h-41v830zM145 -47v825q16 -6 31 -12q74 -34 130 -93t88 -138.5t32 -169.5t-32 -169t-88 -139q-56 -58 -130 -93q-16 -7 -31 -11z" />
    <glyph glyph-name="uni204E" unicode="&#x204e;" 
d="M446 413l-18 163h92l-18 -163l131 98l46 -76l-154 -68l153 -65l-44 -75l-132 96l18 -164h-92l18 164l-131 -96l-43 75l152 65l-153 68l44 76z" />
    <glyph glyph-name="uni2051" unicode="&#x2051;" horiz-adv-x="284" 
d="M129 575l-9 92h50l-10 -92l73 56l25 -44l-85 -36l85 -37l-25 -43l-73 55l10 -91h-50l9 91l-72 -55l-25 43l85 37l-85 36l25 44zM129 205l-9 91h50l-10 -91l73 54l25 -42l-85 -37l85 -36l-25 -43l-73 54l10 -92h-50l9 92l-72 -54l-25 43l85 36l-85 37l25 42z" />
    <glyph glyph-name="uni2074" unicode="&#x2074;" horiz-adv-x="492" 
d="M279 536q-6 0 -6 -6v-30q0 -31 -42 -31q-41 0 -41 31v30q0 6 -6 6h-111q-26 0 -41 25q-14 25 2 50l151 199q15 22 40 22q48 0 48 -38v-175q0 -6 6 -6h21q28 0 28 -39q0 -38 -28 -38h-21zM127 617q-3 -4 1 -4h59q3 0 3 4v75q0 5 -3 1z" />
    <glyph glyph-name="uni207A" unicode="&#x207a;" horiz-adv-x="452" 
d="M391 559h-124v-125q0 -39 -39 -39q-38 0 -38 39v125h-125q-37 0 -37 37q0 38 37 38h125v122q0 39 38 39q39 0 39 -39v-122h124q37 0 37 -38q0 -37 -37 -37z" />
    <glyph glyph-name="uni207B" unicode="&#x207b;" horiz-adv-x="452" 
d="M65 554q-42 0 -42 43q0 42 42 42h326q42 0 42 -43q0 -42 -42 -42h-326z" />
    <glyph glyph-name="uni207C" unicode="&#x207c;" horiz-adv-x="452" 
d="M65 683h326q32 0 32 -33q0 -31 -32 -31h-326q-32 0 -32 31q0 33 32 33zM65 470q-32 0 -32 32q0 33 32 33h326q32 0 32 -33q0 -32 -32 -32h-326z" />
    <glyph glyph-name="uni207D" unicode="&#x207d;" horiz-adv-x="248" 
d="M203 373q17 -23 -0.5 -34t-35.5 0q-25 17 -47 42.5t-37 56.5q-18 29 -28 64t-10 74q0 40 10 74.5t28 64.5q15 31 37 56t47 43q18 11 35.5 0t0.5 -35q-21 -28 -35.5 -51.5t-22.5 -45.5q-9 -23 -12.5 -48.5t-3.5 -57.5q0 -30 3.5 -55.5t12.5 -48.5q8 -22 22.5 -46.5
t35.5 -52.5z" />
    <glyph glyph-name="uni207E" unicode="&#x207e;" horiz-adv-x="248" 
d="M209 576q0 -39 -9.5 -73.5t-26.5 -64.5q-16 -31 -38.5 -56.5t-46.5 -42.5q-18 -11 -36 0t0 34q21 28 35.5 52.5t21.5 46.5q9 23 12.5 48.5t3.5 55.5q0 32 -3.5 57.5t-12.5 48.5q-7 22 -21.5 45.5t-35.5 51.5q-18 24 0 35t36 0q24 -18 46.5 -43t38.5 -56q17 -31 26.5 -65
t9.5 -74z" />
    <glyph glyph-name="uni207F" unicode="&#x207f;" horiz-adv-x="492" 
d="M251 519v142q0 53 -15.5 68.5t-39.5 15.5q-20 0 -39 -21.5t-19 -89.5v-115q0 -43 -45 -43q-46 0 -46 43v273q0 35 45 35q43 0 43 -28v-3q18 29 68 29q60 0 99.5 -36.5t39.5 -108.5v-161q0 -43 -44 -43q-47 0 -47 43z" />
    <glyph glyph-name="uni2081" unicode="&#x2081;" horiz-adv-x="492" 
d="M200 -70q0 -42 -44 -42t-44 42v225q0 5 -6 5h-32q-39 0 -39 39q0 40 39 40h87q39 0 39 -35v-274z" />
    <glyph glyph-name="uni2082" unicode="&#x2082;" horiz-adv-x="492" 
d="M298 -103h-198q-29 0 -38 26q-10 27 11 45l130 117q31 28 31 49q0 18 -10.5 25.5t-24.5 7.5q-20 0 -32 -13q-9 -8 -11 -22q-7 -42 -46 -40q-42 3 -36 51q5 38 31 66q35 39 94 39q52 0 87.5 -33.5t35.5 -77.5q0 -51 -50 -94l-71 -66v-1t3 -1h95q38 0 38 -39t-39 -39z" />
    <glyph glyph-name="uni2083" unicode="&#x2083;" horiz-adv-x="492" 
d="M107 246h163q16 0 29 -13.5t13 -31.5q0 -16 -12 -30l-55 -49l11.5 -4.5t28.5 -17.5q19 -18 29.5 -37t10.5 -50q-2 -26 -11.5 -48t-26.5 -39q-19 -18 -45.5 -28.5t-55.5 -10.5q-30 0 -56 10.5t-45 28.5q-32 32 -34 67q-1 36 38 37q38 4 47 -31q6 -20 31 -32q10 -4 20 -4
q9 0 18.5 4t16.5 11q6 7 10 16t4 18q0 12 -3 20.5t-10 15.5q-8 8 -17.5 9.5t-16.5 1.5q-11 0 -15 -1h-8q-17 0 -29 11.5t-12 26.5q0 17 13 28l44 40q1 3 -3 3h-73q-37 0 -37 39q0 40 38 40z" />
    <glyph glyph-name="uni2084" unicode="&#x2084;" horiz-adv-x="492" 
d="M298 -45q-6 0 -6 -6v-30q0 -31 -44 -31t-44 31v30q0 6 -5 6h-111q-26 0 -41 25t2 50l151 199q14 22 41 22q51 0 51 -38v-175q0 -6 6 -6h20q29 0 29 -39q0 -38 -29 -38h-20zM145 36q-2 -4 1 -4h56q2 0 2 4v76z" />
    <glyph glyph-name="uni20A9" unicode="&#x20a9;" 
d="M68 343q-44 0 -44 43q0 44 44 44h56l-69 246q-18 63 43 78q60 15 78 -42l73 -282h108l73 282q12 45 62 45q49 0 61 -45l73 -282h108l73 282q18 57 79 42q60 -15 42 -78l-69 -246h56q44 0 44 -44q0 -43 -44 -43h-80l-81 -287q-15 -56 -74 -56q-58 0 -75 56l-70 287h-86
l-71 -287q-15 -56 -75 -56q-57 0 -74 56l-81 287h-80zM470 430h44l-19 77q-3 11 -6 0zM712 343h-64l29 -113q3 -10 6 0zM335 343h-63l29 -113q2 -10 5 0z" />
    <glyph glyph-name="Euro" unicode="&#x20ac;" 
d="M577 33q-161 0 -254 101q-49 54 -73 116h-57q-47 0 -47 46q0 47 47 47h35q-1 16 -1 32q0 21 2 40h-36q-47 0 -47 46q0 47 47 47h56q24 65 74 114q100 101 254 101q183 0 277 -148q37 -57 -17 -86q-47 -25 -79 22q-68 101 -180 101q-107 0 -168 -67q-16 -18 -27 -37h247
q47 0 47 -47q0 -46 -47 -46h-279q-3 -19 -3 -39q0 -17 2 -33h280q47 0 47 -47q0 -46 -47 -46h-248q12 -20 28 -39q61 -67 168 -67q119 0 181 101q30 47 80 21q53 -25 16 -86q-88 -147 -278 -147z" />
    <glyph glyph-name="uni2103" unicode="&#x2103;" 
d="M337 694q0 -52 -38.5 -89.5t-91.5 -37.5q-51 0 -90 37.5t-39 89.5t39 89t90 37q53 0 91.5 -37t38.5 -89zM267 694q0 24 -18 41.5t-42 17.5q-23 0 -41 -17.5t-18 -41.5t18 -41.5t41 -17.5q24 0 42 17.5t18 41.5zM629 -5q-163 0 -256 104q-98 110 -98 250q0 156 98 254
q101 104 256 104q184 0 280 -152q37 -59 -17 -89q-49 -25 -81 22q-69 105 -181 105q-108 0 -169 -70q-62 -71 -62 -173q0 -97 62 -171q61 -70 169 -70q119 0 182 105q30 48 82 22q53 -27 16 -89q-89 -152 -281 -152z" />
    <glyph glyph-name="uni2109" unicode="&#x2109;" 
d="M383 685q0 -52 -39 -89.5t-91 -37.5q-51 0 -90.5 37.5t-39.5 89.5t39.5 89t90.5 37q52 0 91 -37t39 -89zM312 685q0 24 -17.5 42t-41.5 18t-41.5 -18t-17.5 -42t17.5 -41.5t41.5 -17.5t41.5 17.5t17.5 41.5zM587 302q-20 0 -20 -20v-234q0 -58 -59 -58q-57 0 -57 58v587
q0 23 17.5 40.5t40.5 17.5h285q51 0 51 -52t-51 -52h-207q-20 0 -20 -20v-145q0 -20 20 -20h205q51 1 51 -51q0 -51 -51 -51h-205z" />
    <glyph glyph-name="uni2113" unicode="&#x2113;" 
d="M463 176q35 37 64 109q21 57 32 143q12 116 -1 187q-8 53 -30 57q-18 4 -43 -45q-41 -86 -48 -215q-2 -63 4 -133q10 -65 22 -103zM710 51q-51 -88 -150 -94q-73 -1 -135 73q-44 -26 -112 -26q-47 0 -50 43q-3 45 45 49q42 8 65 20q-22 51 -36 136q-16 85 -7 199
q8 115 62 222q60 112 155 96q88 -13 112 -111q21 -95 6 -236q-11 -98 -49 -186q-37 -101 -105 -155q25 -31 48 -31q41 5 61 37q26 44 66 26q46 -20 24 -62z" />
    <glyph glyph-name="uni2116" unicode="&#x2116;" 
d="M781 261q0 33 -8 62.5t-21 51.5t-30.5 35t-35.5 13q-19 0 -36.5 -13t-30.5 -35t-20.5 -51.5t-7.5 -62.5q0 -32 7.5 -62t20.5 -51q13 -22 30.5 -35t36.5 -13q18 0 35.5 13t30.5 35q13 21 21 51t8 62zM341 255q4 -10 4 0v438q0 63 54 63q53 0 53 -63v-619q0 -35 -19.5 -54
t-48.5 -19q-22 0 -38.5 14t-23.5 34l-151 446q-3 11 -3 0v-431q0 -63 -54 -63t-54 63v612q0 37 20 57.5t48 20.5q20 0 38 -10.5t27 -35.5zM968 70q0 -24 -16.5 -42.5t-38.5 -18.5q-21 0 -37.5 18.5t-16.5 42.5q0 25 16.5 43.5t37.5 18.5q22 0 38.5 -18.5t16.5 -43.5z
M888 261q0 -54 -16 -102t-44 -84q-28 -35 -64.5 -56t-77.5 -21q-42 0 -78.5 21t-64.5 56q-28 36 -43.5 84t-15.5 102q0 55 15.5 103t43.5 84q28 35 64.5 56t78.5 21q41 0 77.5 -21t64.5 -56q28 -36 44 -84t16 -103z" />
    <glyph glyph-name="uni2121" unicode="&#x2121;" 
d="M576 435q-95 0 -95 -122h199q0 122 -104 122zM208 56v575q0 12 -11 12h-126q-52 0 -52 51q0 53 52 53h383q52 0 52 -53q0 -51 -52 -51h-125q-12 0 -12 -12v-575q0 -55 -54 -55q-55 0 -55 55zM953 56q0 -55 -55 -55q-54 0 -54 55v678q0 54 54 54q55 0 55 -54v-678z
M783 287q0 -28 -19.5 -47.5t-47.5 -19.5h-235q0 -50 26.5 -91t80.5 -41q63 0 89 54q18 35 60 19q44 -15 21 -63q-61 -106 -171 -106q-86 0 -144 61q-70 73 -70 209q0 130 57 200.5t145 70.5q102 0 155 -69.5t53 -176.5z" />
    <glyph glyph-name="trademark" unicode="&#x2122;" 
d="M223 703h-64q-51 0 -51 51t51 51h259q51 0 51 -51t-51 -51h-63q-12 0 -12 -12v-190q0 -53 -53 -53q-55 0 -55 53v190q0 12 -12 12zM585 781l94 -124q15 -19 29 0l94 124q18 24 47 24q24 0 41 -14.5t17 -63.5v-226q0 -53 -52 -53q-54 0 -54 53v135l-83 -106q-25 -33 -51 0
l-80 105v-138q0 -49 -50 -49t-50 49v235q0 44 15.5 58.5t37.5 14.5q27 0 45 -24z" />
    <glyph glyph-name="Omega" unicode="&#x2126;" 
d="M446 21h-152q-30 0 -30 36q0 35 30 35h81v75q-73 35 -127.5 107.5t-54.5 172.5q0 131 84 218t215 87q132 0 216.5 -87t84.5 -218q0 -100 -59 -174.5t-124 -105.5v-75h81q30 0 30 -35q0 -36 -30 -36h-152q-20 0 -20 20v139q0 29 23 37q57 21 108 78.5t51 148.5
q0 112 -64.5 173t-144.5 61q-81 0 -144.5 -61.5t-63.5 -172.5q0 -91 51 -148.5t107 -78.5q24 -8 24 -37v-139q0 -20 -20 -20z" />
    <glyph glyph-name="uni212B" unicode="&#x212b;" 
d="M621 708q0 -53 -38.5 -90t-90.5 -37t-91 37t-39 90q0 51 39 88.5t91 37.5t90.5 -37.5t38.5 -88.5zM551 708q0 24 -18 41.5t-41 17.5q-24 0 -42 -17.5t-18 -41.5t18 -41.5t42 -17.5q23 0 41 17.5t18 41.5zM612 160h-241q-11 0 -16 -9l-58 -115q-23 -50 -78 -31
q-58 19 -35 67l232 453q23 45 76 45q52 0 75 -45l232 -453q23 -48 -35 -67q-55 -19 -77 31l-59 115q-5 9 -16 9zM416 261h153q11 0 6 11l-79 167q-4 8 -6 0l-80 -167q-5 -11 6 -11z" />
    <glyph glyph-name="onethird" unicode="&#x2153;" 
d="M225 725q0 10 -12 10h-34q-47 0 -47 38q0 40 47 40h98q22 0 37.5 -13.5t15.5 -30.5v-332q0 -46 -53 -46q-52 0 -52 46v288zM603 314h208q21 0 37.5 -13.5t16.5 -32.5q0 -16 -15 -29l-88 -77q37 -7 67 -26q62 -41 62 -99q0 -68 -63 -114q-18 -14 -53 -25.5t-72 -11.5
q-63 0 -99.5 23t-56.5 57q-24 43 25 64q30 14 60 -31q14 -19 32.5 -28.5t39.5 -9.5q30 0 54.5 20t24.5 53q0 14 -6.5 27t-18.5 24q-11 11 -27 14t-22 3h-41q-19 0 -33 9.5t-14 25.5q0 15 15 25l80 74h-113q-47 0 -47 38q0 40 47 40zM190 -66q-35 -39 -74 -4q-37 33 -3 70
l683 779q32 37 69 4q38 -34 7 -70z" />
    <glyph glyph-name="twothirds" unicode="&#x2154;" 
d="M265 484q-7 -8 5 -8h118q39 0 39 -38q0 -41 -41 -41h-229q-39 0 -48 28q-11 27 12 47l158 140q41 38 41 77q0 25 -16.5 39.5t-45.5 14.5t-47 -15q-13 -11 -14 -34q-2 -40 -48 -40q-48 0 -46 51q4 46 36 75q46 41 124 42q71 -1 114 -39t44 -93q1 -67 -68 -127zM190 -66
q-35 -39 -74 -4q-37 33 -3 70l683 779q32 37 69 4q38 -34 7 -70zM603 314h208q21 0 37.5 -13.5t16.5 -32.5q0 -16 -15 -29l-88 -77q37 -7 67 -26q62 -41 62 -99q0 -68 -63 -114q-18 -14 -53 -25.5t-72 -11.5q-63 0 -99.5 23t-56.5 57q-24 43 25 64q30 14 60 -31
q14 -19 32.5 -28.5t39.5 -9.5q30 0 54.5 20t24.5 53q0 14 -6.5 27t-18.5 24q-11 11 -27 14t-22 3h-41q-19 0 -33 9.5t-14 25.5q0 15 15 25l80 74h-113q-47 0 -47 38q0 40 47 40z" />
    <glyph glyph-name="oneeighth" unicode="&#x215b;" 
d="M225 725q0 10 -12 10h-34q-47 0 -47 38q0 40 47 40h98q22 0 37.5 -13.5t15.5 -30.5v-332q0 -46 -53 -46q-52 0 -52 46v288zM190 -66q-35 -39 -74 -4q-37 33 -3 70l683 779q32 37 69 4q38 -34 7 -70zM895 18q0 -30 -15.5 -52t-40.5 -42q-25 -19 -59 -29.5t-70 -10.5
q-35 0 -69.5 10.5t-59.5 29.5q-24 20 -39.5 42t-15.5 52q0 63 73 101q-50 35 -50 83q0 25 13 47t35 38q21 19 51 28t62 9t61 -9t50 -27q23 -17 36 -39t13 -47q0 -48 -50 -82q75 -39 75 -102zM769 202q0 20 -18 34.5t-41 14.5q-22 0 -40 -14.5t-18 -34.5t18 -34.5t40 -14.5
q23 0 41 14.5t18 34.5zM791 24q0 27 -24.5 46.5t-57.5 19.5q-32 0 -56.5 -19.5t-24.5 -46.5t24.5 -47t56.5 -20q33 0 57.5 20t24.5 47z" />
    <glyph glyph-name="threeeighths" unicode="&#x215c;" 
d="M190 -66q-35 -39 -74 -4q-37 33 -3 70l683 779q32 37 69 4q38 -34 7 -70zM895 18q0 -30 -15.5 -52t-40.5 -42q-25 -19 -59 -29.5t-70 -10.5q-35 0 -69.5 10.5t-59.5 29.5q-24 20 -39.5 42t-15.5 52q0 63 73 101q-50 35 -50 83q0 25 13 47t35 38q21 19 51 28t62 9t61 -9
t50 -27q23 -17 36 -39t13 -47q0 -48 -50 -82q75 -39 75 -102zM769 202q0 20 -18 34.5t-41 14.5q-22 0 -40 -14.5t-18 -34.5t18 -34.5t40 -14.5q23 0 41 14.5t18 34.5zM791 24q0 27 -24.5 46.5t-57.5 19.5q-32 0 -56.5 -19.5t-24.5 -46.5t24.5 -47t56.5 -20q33 0 57.5 20
t24.5 47zM159 818h208q21 0 37 -13.5t16 -32.5q0 -17 -15 -29l-88 -77q38 -7 68 -26q61 -41 61 -99q0 -68 -62 -114q-18 -14 -53 -25.5t-72 -11.5q-63 0 -100 23t-56 57q-24 43 24 64q31 14 61 -31q14 -19 32 -28.5t40 -9.5q30 0 54 20t24 53q0 13 -6.5 26.5t-18.5 24.5
q-11 11 -26.5 14t-21.5 3h-42q-19 0 -32.5 9.5t-13.5 25.5q0 14 15 25l80 74h-113q-48 0 -48 38q0 40 48 40z" />
    <glyph glyph-name="fiveeighths" unicode="&#x215d;" 
d="M190 -66q-35 -39 -74 -4q-37 33 -3 70l683 779q32 37 69 4q38 -34 7 -70zM379 738h-153q-7 0 -9 -6l-16 -66q12 12 50 14q82 5 137 -34q54 -43 54 -105q0 -70 -54 -111t-127 -41q-78 0 -134 43q-45 36 -48 72q-5 38 44 43q39 3 52 -27q8 -20 27 -35q22 -17 53 -17
q14 0 32.5 5.5t30.5 17.5q22 23 22 49q0 28 -27 50q-23 15 -57 15q-20 0 -33.5 -2.5t-26.5 -8.5q-37 -18 -75.5 -3.5t-27.5 61.5l29 114q13 51 56 51h201q48 0 48 -42q0 -37 -48 -37zM895 18q0 -30 -15.5 -52t-40.5 -42q-25 -19 -59 -29.5t-70 -10.5q-35 0 -69.5 10.5
t-59.5 29.5q-24 20 -39.5 42t-15.5 52q0 63 73 101q-50 35 -50 83q0 25 13 47t35 38q21 19 51 28t62 9t61 -9t50 -27q23 -17 36 -39t13 -47q0 -48 -50 -82q75 -39 75 -102zM769 202q0 20 -18 34.5t-41 14.5q-22 0 -40 -14.5t-18 -34.5t18 -34.5t40 -14.5q23 0 41 14.5
t18 34.5zM791 24q0 27 -24.5 46.5t-57.5 19.5q-32 0 -56.5 -19.5t-24.5 -46.5t24.5 -47t56.5 -20q33 0 57.5 20t24.5 47z" />
    <glyph glyph-name="seveneighths" unicode="&#x215e;" 
d="M190 -66q-35 -39 -74 -4q-37 33 -3 70l683 779q32 37 69 4q38 -34 7 -70zM354 715q2 3 -6 3h-191q-44 0 -44 40q0 42 45 42h258q64 0 64 -54q0 -12 -5 -23l-161 -305q-20 -40 -70 -23q-48 17 -25 59zM895 18q0 -30 -15.5 -52t-40.5 -42q-25 -19 -59 -29.5t-70 -10.5
q-35 0 -69.5 10.5t-59.5 29.5q-24 20 -39.5 42t-15.5 52q0 63 73 101q-50 35 -50 83q0 25 13 47t35 38q21 19 51 28t62 9t61 -9t50 -27q23 -17 36 -39t13 -47q0 -48 -50 -82q75 -39 75 -102zM769 202q0 20 -18 34.5t-41 14.5q-22 0 -40 -14.5t-18 -34.5t18 -34.5t40 -14.5
q23 0 41 14.5t18 34.5zM791 24q0 27 -24.5 46.5t-57.5 19.5q-32 0 -56.5 -19.5t-24.5 -46.5t24.5 -47t56.5 -20q33 0 57.5 20t24.5 47z" />
    <glyph glyph-name="uni2160" unicode="&#x2160;" 
d="M545 11h-107v741h107v-741z" />
    <glyph glyph-name="uni2161" unicode="&#x2161;" 
d="M258 11v741h107v-741h-107zM617 11v741h107v-741h-107z" />
    <glyph glyph-name="uni2162" unicode="&#x2162;" 
d="M541 11h-99v741h99v-741zM774 11h-98v741h98v-741zM307 11h-99v741h99v-741z" />
    <glyph glyph-name="uni2163" unicode="&#x2163;" 
d="M817 752l-225 -741h-48l-226 741h105l145 -503l144 503h105zM265 11h-99v741h99v-741z" />
    <glyph glyph-name="uni2164" unicode="&#x2164;" 
d="M763 752l-246 -741h-51l-246 741h107l165 -513l164 513h107z" />
    <glyph glyph-name="uni2165" unicode="&#x2165;" 
d="M166 752h105l144 -503l145 503h105l-226 -741h-47zM718 11v741h99v-741h-99z" />
    <glyph glyph-name="uni2166" unicode="&#x2166;" 
d="M103 752h104l125 -489l125 489h105l-206 -741h-48zM615 11v741h99v-741h-99zM782 11v741h99v-741h-99z" />
    <glyph glyph-name="uni2167" unicode="&#x2167;" 
d="M55 752h102l105 -466l105 466h102l-183 -741h-48zM508 11v741h97v-741h-97zM670 11v741h97v-741h-97zM831 11v741h97v-741h-97z" />
    <glyph glyph-name="uni2168" unicode="&#x2168;" 
d="M260 11h-99v741h99v-741zM805 752l-182 -352l200 -389h-115l-141 279l-142 -279h-115l200 389l-182 352h117l122 -242l122 242h116z" />
    <glyph glyph-name="uni2169" unicode="&#x2169;" 
d="M744 752l-193 -355l209 -386h-118l-148 279l-149 -279h-118l209 386l-193 355h120l131 -247l130 247h120z" />
    <glyph glyph-name="uni2170" unicode="&#x2170;" 
d="M438 11v501h107v-501h-107zM437 768h108v-110h-108v110z" />
    <glyph glyph-name="uni2171" unicode="&#x2171;" 
d="M259 11v501h107v-501h-107zM258 768h108v-110h-108v110zM618 11v501h107v-501h-107zM617 768h108v-110h-108v110z" />
    <glyph glyph-name="uni2172" unicode="&#x2172;" 
d="M541 11h-99v501h99v-501zM774 11h-98v501h98v-501zM307 11h-99v501h99v-501zM676 768h99v-110h-99v110zM208 768h100v-110h-100v110zM443 768h99v-110h-99v110z" />
    <glyph glyph-name="uni2173" unicode="&#x2173;" 
d="M812 512l-215 -501h-48l-216 501h105l135 -333l134 333h105zM270 11h-99v501h99v-501zM171 768h100v-110h-100v110z" />
    <glyph glyph-name="uni2174" unicode="&#x2174;" 
d="M733 512l-216 -501h-51l-216 501h107l135 -333l134 333h107z" />
    <glyph glyph-name="uni2175" unicode="&#x2175;" 
d="M171 512h105l134 -333l135 333h105l-216 -501h-47zM713 11v501h99v-501h-99zM812 768v-110h-100v110h100z" />
    <glyph glyph-name="uni2176" unicode="&#x2176;" 
d="M103 512h104l125 -333l125 333h105l-206 -501h-48zM615 11v501h99v-501h-99zM714 768v-110h-100v110h100zM782 11v501h99v-501h-99zM881 768v-110h-100v110h100z" />
    <glyph glyph-name="uni2177" unicode="&#x2177;" 
d="M55 512h102l105 -320l105 320h102l-183 -501h-48zM508 11v501h97v-501h-97zM605 768v-110h-98v110h98zM670 11v501h97v-501h-97zM767 768v-110h-98v110h98zM831 11v501h97v-501h-97zM928 768v-110h-98v110h98z" />
    <glyph glyph-name="uni2178" unicode="&#x2178;" 
d="M265 11h-99v501h99v-501zM166 768h100v-110h-100v110zM800 512l-171 -238l189 -263h-118l-128 184l-129 -184h-118l189 263l-171 238h120l109 -158l109 158h119z" />
    <glyph glyph-name="uni2179" unicode="&#x2179;" 
d="M722 512l-171 -239l187 -262h-120l-126 181l-127 -181h-120l188 262l-172 239h122l109 -158l108 158h122z" />
    <glyph glyph-name="arrowleft" unicode="&#x2190;" 
d="M61 379l361 126l-21 -88h521v-79h-521l21 -88z" />
    <glyph glyph-name="arrowup" unicode="&#x2191;" 
d="M493 817l127 -369l-88 22v-586h-81v586l-88 -22z" />
    <glyph glyph-name="arrowright" unicode="&#x2192;" 
d="M922 379l-361 -129l21 88h-521v79h521l-21 88z" />
    <glyph glyph-name="arrowdown" unicode="&#x2193;" 
d="M493 -107l-130 367l88 -20v584h81v-584l87 20z" />
    <glyph glyph-name="arrowboth" unicode="&#x2194;" 
d="M659 338h-338l22 -91l-285 132l284 129l-21 -91h338l-21 91l286 -129l-287 -132z" />
    <glyph glyph-name="arrowupdn" unicode="&#x2195;" 
d="M647 179l-155 -301l-157 301l119 -21v389l-119 -21l157 301l155 -301l-119 21v-389z" />
    <glyph glyph-name="uni2196" unicode="&#x2196;" 
d="M63 795l330 -158l-75 -46l601 -602l-49 -49l-604 599l-45 -75z" />
    <glyph glyph-name="uni2197" unicode="&#x2197;" 
d="M919 786l-159 -330l-46 76l-602 -601l-49 49l599 604l-72 45z" />
    <glyph glyph-name="uni2198" unicode="&#x2198;" 
d="M919 -72l-329 157l74 47l-601 601l49 50l603 -599l46 73z" />
    <glyph glyph-name="uni2199" unicode="&#x2199;" 
d="M63 -72l158 329l47 -75l601 601l50 -50l-599 -603l73 -45z" />
    <glyph glyph-name="uni219C" unicode="&#x219c;" 
d="M365 662v-125l-131 141l131 134v-117h110q95 0 144 -40q64 -47 64 -128q0 -45 -13.5 -77.5t-37.5 -56.5t-54 -42.5t-62 -36.5q-31 -18 -62 -36.5t-54 -39.5q-27 -24 -38.5 -51.5t-11.5 -60.5q0 -69 52 -116q46 -41 119 -58q65 -16 149 -13v-32q-86 -1 -160 15
q-76 17 -138 67q-60 53 -60 137q0 38 13 71.5t39 57.5q25 25 55.5 45t63.5 38q32 17 63 35t53 40q24 23 36 47.5t12 66.5q0 57 -42 96t-128 39h-112z" />
    <glyph glyph-name="uni219D" unicode="&#x219d;" 
d="M587 662h-112q-86 0 -128.5 -39t-42.5 -96q0 -42 12 -66.5t36 -47.5q23 -22 53.5 -40t63.5 -35q32 -18 63 -38t56 -45q25 -24 38 -57.5t13 -71.5q0 -84 -59 -137q-63 -50 -139 -67q-73 -16 -159 -15v32q84 -3 148 13q73 17 119 58q52 47 52 116q0 33 -11 60.5t-38 51.5
q-24 21 -54.5 39.5t-62.5 36.5t-62 36.5t-54 42.5q-23 24 -36.5 56.5t-13.5 77.5q0 81 63 128q50 40 145 40h110v117l130 -134l-130 -141v125z" />
    <glyph glyph-name="uni21B0" unicode="&#x21b0;" 
d="M913 -134h-67v724h-542v-153l-178 187l178 186v-153h609v-791z" />
    <glyph glyph-name="uni21B1" unicode="&#x21b1;" 
d="M922 573l-178 -187v154h-593v-664h-67v731h660v152z" />
    <glyph glyph-name="uni21B2" unicode="&#x21b2;" 
d="M914 47h-660v-154l-178 187l178 186v-152h593v675h67v-742z" />
    <glyph glyph-name="uni21B3" unicode="&#x21b3;" 
d="M923 91l-178 -187v153h-661v762h67v-694h594v152z" />
    <glyph glyph-name="uni21B4" unicode="&#x21b4;" 
d="M913 88l-186 -178l-187 178h154v644h-627v67h694v-711h152z" />
    <glyph glyph-name="uni21BC" unicode="&#x21bc;" 
d="M89 352l302 136l-21 -78h545v-58h-826z" />
    <glyph glyph-name="uni21C0" unicode="&#x21c0;" 
d="M885 353l-294 -1h-533v58h544l-19 78z" />
    <glyph glyph-name="uni21C4" unicode="&#x21c4;" 
d="M898 544l-315 -112l19 81h-544v58h544l-19 80zM75 219l316 108l-21 -80h545v-59h-545l21 -81z" />
    <glyph glyph-name="uni21C5" unicode="&#x21c5;" 
d="M336 810l111 -314l-81 20v-607h-57v607l-81 -20zM659 -96l-108 314l81 -20v608h57v-608l81 20z" />
    <glyph glyph-name="uni21CD" unicode="&#x21cd;" 
d="M355 670l45 -43l-119 -118h278l49 185l65 -17l-46 -168h296v-60h-312l-37 -139h349v-60h-365l-51 -187l-64 16l46 171h-208l119 -118l-45 -44l-289 291zM542 449h-320l-71 -70l71 -69h283z" />
    <glyph glyph-name="uni21CF" unicode="&#x21cf;" 
d="M640 88l-44 44l118 118h-275l-50 -187l-64 17l46 170h-299v60h315l37 139h-352v60h368l50 185l64 -17l-46 -168h206l-118 118l44 43l289 -291zM455 310h318l71 69l-71 70h-280z" />
    <glyph glyph-name="arrowdblleft" unicode="&#x21d0;" 
d="M355 670l45 -43l-119 -118h642v-60h-701l-71 -70l71 -69h701v-60h-642l119 -118l-45 -44l-289 291z" />
    <glyph glyph-name="arrowdblup" unicode="&#x21d1;" 
d="M790 487l-44 -44l-118 118v-642h-60v701l-69 71l-70 -71v-701h-60v642l-118 -118l-44 44l292 289z" />
    <glyph glyph-name="arrowdblright" unicode="&#x21d2;" 
d="M615 60l-61 63l112 110h-603v84h683l61 59l-61 61h-683v84h603l-112 109l61 62l312 -316z" />
    <glyph glyph-name="arrowdbldown" unicode="&#x21d3;" 
d="M207 192l44 45l118 -119v642h60v-701l70 -71l69 71v701h60v-642l118 119l44 -45l-291 -289z" />
    <glyph glyph-name="arrowdblboth" unicode="&#x21d4;" 
d="M672 238h-361l116 -113l-59 -62l-312 315l312 315l59 -61l-116 -112h361l-116 112l59 61l312 -315l-312 -315l-59 62zM235 319h513l61 59l-61 61h-513l-61 -61z" />
    <glyph glyph-name="uni21E0" unicode="&#x21e0;" 
d="M281 133l-229 248l229 249v-497zM497 381q0 -34 -25.5 -58.5t-59.5 -24.5q-33 0 -58 25t-25 58q0 34 25 58.5t58 24.5q34 0 59.5 -24t25.5 -59zM717 381q0 -34 -25 -58.5t-59 -24.5t-58.5 25t-24.5 58q0 34 24.5 58.5t58.5 24.5t59 -24t25 -59zM938 381q0 -34 -25 -58.5
t-59 -24.5t-58.5 25t-24.5 58q0 34 24.5 58.5t58.5 24.5t59 -24t25 -59z" />
    <glyph glyph-name="uni21E1" unicode="&#x21e1;" 
d="M583 5q0 -34 -24.5 -59t-58.5 -25q-35 0 -59.5 25t-24.5 59t25 58.5t59 24.5q33 0 58 -24.5t25 -58.5zM583 226q0 -34 -24.5 -59t-58.5 -25q-35 0 -59.5 25t-24.5 59q0 33 25 58t59 25q33 0 58 -25t25 -58zM583 447q0 -34 -24.5 -59.5t-58.5 -25.5q-35 0 -59.5 25.5
t-24.5 59.5q0 33 25 58t59 25q33 0 58 -25t25 -58zM748 578h-497l249 228z" />
    <glyph glyph-name="uni21E2" unicode="&#x21e2;" 
d="M227 381q0 -33 -24.5 -58t-58.5 -25t-59 24.5t-25 58.5q0 35 25 59t59 24t58.5 -24.5t24.5 -58.5zM448 381q0 -33 -24.5 -58t-58.5 -25t-59 24.5t-25 58.5q0 35 25 59t59 24t58.5 -24.5t24.5 -58.5zM669 381q0 -33 -25 -58t-58 -25q-34 0 -59.5 24.5t-25.5 58.5
q0 35 25.5 59t59.5 24q33 0 58 -24.5t25 -58.5zM945 381l-228 -248v497z" />
    <glyph glyph-name="uni21E3" unicode="&#x21e3;" 
d="M748 146l-248 -229l-249 229h497zM583 277q0 -33 -25 -58t-58 -25q-34 0 -59 25t-25 58q0 34 24.5 59t59.5 25q34 0 58.5 -25t24.5 -59zM583 498q0 -34 -25 -58.5t-58 -24.5q-34 0 -59 24.5t-25 58.5t24.5 59t59.5 25q34 0 58.5 -25t24.5 -59zM583 719q0 -34 -25 -58.5
t-58 -24.5q-34 0 -59 24.5t-25 58.5q0 33 24.5 58.5t59.5 25.5q34 0 58.5 -25.5t24.5 -58.5z" />
    <glyph glyph-name="uni21E6" unicode="&#x21e6;" 
d="M871 270v222h-482v130l-241 -241l241 -240v129h482zM938 203h-482v-227l-403 405l403 405v-227h482v-356z" />
    <glyph glyph-name="uni21E7" unicode="&#x21e7;" 
d="M740 481l-240 241l-241 -241h130v-518h221v518h130zM904 414h-226v-518h-357v518h-226l405 403z" />
    <glyph glyph-name="uni21E8" unicode="&#x21e8;" 
d="M851 381l-241 241v-130h-482v-222h482v-129zM946 381l-403 -405v227h-482v356h482v227z" />
    <glyph glyph-name="uni21E9" unicode="&#x21e9;" 
d="M740 224h-130v527h-221v-527h-130l241 -241zM904 291l-404 -403l-405 403h226v528h357v-528h226z" />
    <glyph glyph-name="uni21F0" unicode="&#x21f0;" 
d="M900 363q-284 -138 -501 -347v270h-207l-139 -88v331l139 -88h207v270q217 -209 501 -348zM844 363q-241 123 -418 283v-231h-241l-107 60v-223l107 60h241v-231q177 160 418 282z" />
    <glyph glyph-name="universal" unicode="&#x2200;" 
d="M621 562q12 0 17 12l62 151q23 59 84 36q61 -21 38 -81l-250 -615q-24 -55 -81 -55q-58 0 -82 55l-250 615q-23 60 39 81q60 23 83 -36l62 -151q5 -12 17 -12h261zM409 442q-11 0 -7 -12l86 -225q4 -10 8 0l85 225q5 12 -7 12h-165z" />
    <glyph glyph-name="partialdiff" unicode="&#x2202;" horiz-adv-x="620" 
d="M129 586q21 56 58 97q25 27 57 45t74 18q79 0 123.5 -57t42.5 -162q-2 -106 -26 -196q-39 -131 -81 -215q-39 -66 -80.5 -93.5t-88.5 -27.5q-77 -1 -120 49q-40 46 -38 123q3 110 64 195q32 45 76 74q44 28 95 23q68 -7 98 -77q14 65 13 144q-1 55 -19 92q-19 41 -63 41
q-27 0 -55 -25.5t-53 -83.5q-15 -38 -58 -22q-31 14 -19 58zM186 318q-44 -69 -47 -149q-2 -42 19 -66t52 -24q41 -1 78 58.5t43 131.5q3 38 -12 72q-18 34 -57 34q-17 0 -38.5 -15.5t-37.5 -41.5z" />
    <glyph glyph-name="existential" unicode="&#x2203;" 
d="M583 129q19 0 19 20v156q0 20 -19 20h-257q-56 0 -56 56t56 56h257q19 0 19 19v156q0 20 -19 20h-266q-58 0 -58 58t58 58h351q27 0 46.5 -20t19.5 -47v-605q0 -26 -19.5 -46t-46.5 -20h-350q-59 0 -59 59q0 60 59 60h265z" />
    <glyph glyph-name="Delta" unicode="&#x2206;" 
d="M684 115l-215 461l-219 -461h434zM803 93q17 -37 8 -51.5t-32 -14.5h-585q-24 0 -30 14t7 39l290 614q16 29 34 26t27 -24z" />
    <glyph glyph-name="gradient" unicode="&#x2207;" 
d="M492 -59l-414 796h826zM203 661l289 -568l287 568h-576z" />
    <glyph glyph-name="element" unicode="&#x2208;" 
d="M105 359q0 120 83 205q93 99 248 99h441v-88h-441q-107 0 -168 -58q-59 -55 -64 -112h672v-90h-672q5 -58 64 -112q61 -58 168 -58h441v-89h-441q-155 0 -248 98q-83 87 -83 205z" />
    <glyph glyph-name="notelement" unicode="&#x2209;" 
d="M486 347h-224q0 -13 12 -43.5t34 -49.5q21 -22 53.5 -33.5t66.5 -11.5h20zM541 555h-112q-76 0 -119.5 -42.5t-47.5 -89.5h243zM798 133h-293l-25 -98l-74 20l22 78h-17q-97 0 -163.5 68t-66.5 181q0 115 67 182.5t176 67.5h137l26 94l73 -20l-21 -74h159v-77h-179
l-35 -132h214v-76h-235l-38 -138h273v-76z" />
    <glyph glyph-name="suchthat" unicode="&#x220b;" 
d="M877 359q0 -118 -82 -205q-94 -98 -249 -98h-441v89h441q107 0 168 58q59 54 64 112h-672v90h672q-5 57 -64 112q-61 58 -168 58h-441v88h441q155 0 249 -99q82 -85 82 -205z" />
    <glyph glyph-name="uni220C" unicode="&#x220c;" 
d="M476 346l-38 -137h111q78 0 122 43.5t46 93.5h-241zM716 422q-2 48 -46 90.5t-117 42.5h-21l-36 -133h220zM798 382q0 -113 -66.5 -181t-176.5 -68h-137l-25 -98l-74 20l22 78h-160v76h180l38 137h-218v76h237l37 133h-274v77h294l25 94l73 -20l-21 -74h16
q96 0 163 -67.5t67 -182.5z" />
    <glyph glyph-name="product" unicode="&#x220f;" 
d="M822 629h-135v-609h-92v609h-206v-609h-92v609h-136v79h661v-79z" />
    <glyph glyph-name="summation" unicode="&#x2211;" 
d="M722 103l-20 -83h-536l19 74l315 301l-189 256l17 73h488l-19 -83h-379l185 -256l-296 -282h415z" />
    <glyph glyph-name="uni2213" unicode="&#x2213;" 
d="M819 298h-289v-243h-77v243h-289v76h289v231h77v-231h289v-76zM819 635h-655v76h655v-76z" />
    <glyph glyph-name="radical" unicode="&#x221a;" 
d="M862 819q40 0 40 -40t-40 -40h-251l-254 -841l-184 430l-49 -47q-23 -24 -50 11q-20 30 6 57l129 123l131 -307l200 654h322z" />
    <glyph glyph-name="proportional" unicode="&#x221d;" 
d="M321 233q43 -1 81 34.5t57 85.5q-19 48 -56.5 83t-81.5 35q-50 0 -85 -31q-33 -31 -33 -87q0 -54 33 -88q35 -31 85 -32zM797 266q13 12 27.5 15t34.5 -8q38 -26 12 -57q-66 -69 -159 -69q-62 0 -119.5 39t-76.5 81q-22 -44 -77 -82t-118 -38q-93 1 -151 57
q-59 57 -59 149q0 91 59 147q59 57 151 57q64 0 119.5 -41.5t76.5 -87.5q20 41 75 84.5t120 44.5q100 0 159 -67q19 -33 -12 -57q-18 -13 -35 -7.5t-27 14.5q-32 31 -85 31q-43 0 -80.5 -35t-56.5 -83q19 -50 57 -85.5t80 -34.5q51 1 85 33z" />
    <glyph glyph-name="infinity" unicode="&#x221e;" 
d="M296 229q44 -1 82.5 35.5t58.5 88.5q-20 50 -58 86t-83 36q-53 0 -89 -32q-35 -36 -34 -90q0 -56 34 -91q36 -32 89 -33zM491 273q-18 -38 -76 -80t-119 -42q-92 1 -149 56q-57 56 -57 146q0 89 57 144q58 56 149 56q62 0 120 -43t76 -81q19 38 75.5 80.5t119.5 43.5
q90 0 148 -56q58 -55 58 -144q0 -90 -58 -146t-148 -56q-63 0 -121 41.5t-75 80.5zM687 229q52 1 87 33q35 35 35 91q1 54 -35 90q-35 32 -87 32q-46 0 -84 -36t-58 -86q20 -52 58.5 -88.5t83.5 -35.5z" />
    <glyph glyph-name="orthogonal" unicode="&#x221f;" 
d="M796 97h-593v584h77v-508h516v-76z" />
    <glyph glyph-name="angle" unicode="&#x2220;" 
d="M234 106h616v-85h-746v74l612 623l64 -62z" />
    <glyph glyph-name="uni2222" unicode="&#x2222;" 
d="M634 382q0 74 -27 121l-280 -121l280 -121q27 47 27 121zM808 175l-27 -68l-145 62q-14 -19 -44.5 -46.5t-97.5 -63.5v85q14 8 19 12t40 48l-409 178l422 181q-18 24 -72 58v83q67 -35 97.5 -62t44.5 -47l145 62l27 -68l-132 -57q9 -17 20.5 -59.5t11.5 -90.5
q0 -47 -11.5 -89.5t-20.5 -59.5z" />
    <glyph glyph-name="uni2225" unicode="&#x2225;" 
d="M336 -79v872q0 51 50 51t50 -51v-872q0 -51 -50 -51t-50 51zM652 -79q0 -51 -51 -51t-51 51v871q0 52 51 52t51 -52v-871z" />
    <glyph glyph-name="uni2226" unicode="&#x2226;" 
d="M336 -79v110l-36 -60q-23 -36 -56 -19q-30 22 -10 56l102 169v616q0 51 50 51t50 -51v-450l114 189v260q0 52 51 52t51 -52v-91l31 51q23 36 56 19q30 -22 10 -56l-97 -161v-633q0 -51 -51 -51t-51 51v464l-114 -189v-275q0 -51 -50 -51t-50 51z" />
    <glyph glyph-name="logicaland" unicode="&#x2227;" 
d="M492 557l-285 -577l-86 39l325 661q16 33 46 33q28 0 44 -33l325 -661l-86 -39z" />
    <glyph glyph-name="logicalor" unicode="&#x2228;" 
d="M492 138l283 578l86 -40l-325 -661q-16 -33 -44 -33q-30 0 -46 33l-325 661l86 40z" />
    <glyph glyph-name="intersection" unicode="&#x2229;" 
d="M188 36v398q0 161 97 246q91 77 207 77q123 1 206 -77q97 -92 97 -246v-398q0 -50 -50 -50q-49 0 -49 50v400q0 106 -57 168q-53 56 -123 62q-26 3 -50 0q-69 -8 -123 -62q-56 -63 -56 -168v-400q0 -50 -50 -50q-49 0 -49 50z" />
    <glyph glyph-name="union" unicode="&#x222a;" 
d="M188 704q0 49 49 49q50 0 50 -49v-400q0 -105 56 -168q54 -55 123 -63q24 -3 50 0q70 6 123 63q57 62 57 168v400q0 49 49 49q50 0 50 -49v-398q0 -154 -97 -247q-83 -78 -206 -77q-116 0 -207 77q-97 86 -97 247v398z" />
    <glyph glyph-name="integral" unicode="&#x222b;" 
d="M475 673q-8 59 -58 59q-18 0 -39.5 -42.5t-21.5 -114.5q0 -58 6 -143q5 -85 8 -166q3 -118 -22 -190q-23 -66 -72 -106q-54 -40 -98 -40q-62 0 -92.5 33.5t-30.5 76.5q0 33 41 34q38 0 41 -34q-1 -56 54 -56q11 0 29.5 16t32.5 40q30 51 29 127q-1 42 -4 81
q-15 165 -14 239q1 88 14.5 141.5t33.5 83.5q19 31 56 50.5t73 19.5q23 0 41 -6t30 -17q20 -15 30 -42.5t10 -43.5q0 -34 -39 -34q-33 0 -38 34z" />
    <glyph glyph-name="uni222C" unicode="&#x222c;" 
d="M383 16q-54 -82 -136 -83q-31 0 -51 25t-19 69q2 19 26 19q23 0 26 -19q6 -31 21 -36t35 1q9 3 29 31q33 52 33 190q-1 101 -3 191q-1 74 5 140q10 117 48 186q32 59 96 59q30 0 61 -23.5t32 -76.5q0 -22 -28 -22q-25 -1 -30 22q-13 60 -63 43q-7 -2 -13 -14
q-19 -45 -21 -156q-1 -143 0 -286q2 -183 -48 -260zM605 16q-54 -82 -136 -83q-31 0 -51 25t-19 69q2 19 26 19q23 0 26 -19q6 -31 21 -36t35 1q9 3 29 31q33 52 33 190q-1 101 -3 191q-1 74 5 140q10 117 48 186q32 59 96 59q30 0 61 -23.5t32 -76.5q0 -22 -28 -22
q-25 -1 -30 22q-13 60 -63 43q-7 -2 -13 -14q-19 -45 -21 -156q-1 -143 0 -286q2 -183 -48 -260z" />
    <glyph glyph-name="uni222E" unicode="&#x222e;" 
d="M463 12q-60 -81 -122 -82q-42 0 -67 30.5t-23 83.5h59q0 -62 51 -51q12 1 34 30q36 49 48 171q-9 3 -18 7q-32 14 -57 38q-25 22 -39 53.5t-14 65.5q0 36 14 67t39 54q26 24 58 38q23 9 49 12q1 6 2 13q22 123 66 185q40 54 88 59q49 0 73.5 -24.5t24.5 -75.5h-61
q-7 47 -31.5 50t-40.5 -30q-24 -46 -36 -148l-4 -38q5 -2 9 -3q33 -14 56 -38q26 -23 40 -54t14 -67q0 -34 -14 -65.5t-40 -53.5q-23 -24 -56 -38q-20 -8 -40 -12q-19 -118 -62 -177zM449 261q6 74 10 141q2 31 6 60q-26 -8 -47 -27q-33 -32 -33 -77q0 -44 33 -75
q14 -14 31 -22zM550 452q-8 -91 -16 -180q-1 -7 -1 -14q21 7 40 25q32 31 32 75q0 45 -32 77q-11 10 -23 17z" />
    <glyph glyph-name="therefore" unicode="&#x2234;" 
d="M491 529q-31 0 -53.5 23.5t-22.5 54.5q0 30 23.5 51.5t53.5 21.5q31 0 53 -21.5t22 -53.5q0 -31 -23.5 -53.5t-52.5 -22.5zM758 88q-30 0 -52.5 23.5t-22.5 53.5t23.5 52t52.5 22q32 0 54 -22t22 -54q0 -30 -23.5 -52.5t-53.5 -22.5zM223 88q-29 0 -52 23.5t-23 53.5
t24 52t52 22q32 0 54.5 -22t22.5 -54q0 -30 -24 -52.5t-54 -22.5z" />
    <glyph glyph-name="uni2235" unicode="&#x2235;" 
d="M491 208q26 0 45.5 -21t19.5 -47t-20.5 -45t-45.5 -19q-28 0 -47 19t-19 47q0 26 20.5 46t46.5 20zM223 649q26 0 46 -20.5t20 -47.5q0 -26 -21 -44.5t-46 -18.5q-27 0 -46.5 18.5t-19.5 46.5q0 27 21 46.5t46 19.5zM758 649q26 0 45.5 -20.5t19.5 -47.5
q0 -26 -20.5 -44.5t-45.5 -18.5q-28 0 -47 18.5t-19 46.5q0 27 20.5 46.5t46.5 19.5z" />
    <glyph glyph-name="uni2236" unicode="&#x2236;" 
d="M511 459q-18 -31 -36 0l-85 148q-11 21 10 21h185q21 0 9 -23zM511 299l83 -146q12 -23 -9 -23h-185q-22 0 -10 21l85 148q18 31 36 0z" />
    <glyph glyph-name="uni2237" unicode="&#x2237;" 
d="M748 545h-93v94h93v-94zM292 545h-92v94h92v-94zM748 88h-93v94h93v-94zM292 88h-92v94h92v-94z" />
    <glyph glyph-name="similar" unicode="&#x223c;" 
d="M310 344q-21 -45 -72 -31q-49 14 -29 71q51 112 172 112q38 0 68 -14.5t53 -38.5q28 -28 49.5 -47.5t49.5 -19.5q52 0 75 55q21 43 69 29q49 -13 30 -69q-50 -114 -174 -114q-41 0 -74 14.5t-57 39.5q-27 23 -45 39.5t-44 16.5q-48 0 -71 -43z" />
    <glyph glyph-name="uni223D" unicode="&#x223d;" 
d="M524 320q-44 -76 -87 -115q-66 -58 -147 -58q-87 0 -146 56q-59 58 -59 155q0 80 54 137q59 62 154 62q39 0 72 -14.5t50 -27.5q40 -33 10 -68q-29 -34 -66 3q-16 12 -27.5 16.5t-39.5 4.5q-44 0 -83 -34q-33 -30 -33 -81q0 -56 30 -89q33 -34 87 -34q30 0 68 24.5
t64 68.5q21 33 32 53q37 68 87 117q64 61 149 61q87 0 145 -56q59 -58 59 -155q0 -80 -55 -138q-57 -61 -152 -61q-39 0 -68.5 11t-58.5 32q-39 34 -13 66q29 32 60 8q30 -25 35 -22q17 -9 46 -9q43 0 82 34q33 30 33 80q0 57 -30 89q-33 35 -86 35q-31 0 -61.5 -20
t-69.5 -74q-21 -33 -35 -57z" />
    <glyph glyph-name="uni2243" unicode="&#x2243;" 
d="M870 202h-756v100h756v-100zM849 527q-31 -43 -50.5 -58.5t-44.5 -27.5q-24 -11 -51 -17.5t-56 -6.5q-43 0 -85 6.5t-80 20.5q-13 6 -32 11.5t-40 10.5q-20 5 -39 8t-31 3q-18 0 -35.5 -3t-31.5 -9q-17 -6 -29.5 -12.5t-40.5 -38.5l-66 56q31 42 50.5 58.5t45.5 26.5
q23 12 49.5 19t56.5 7q43 0 85.5 -7t77.5 -20q39 -16 77.5 -24.5t66.5 -8.5q16 0 34 3t34 9q16 5 28.5 12t38.5 39z" />
    <glyph glyph-name="congruent" unicode="&#x2245;" 
d="M870 121h-756v100h756v-100zM870 283h-756v100h756v-100zM849 578q-31 -42 -50.5 -57.5t-44.5 -28.5q-24 -11 -51 -17.5t-56 -6.5q-43 0 -85 6.5t-80 20.5q-13 6 -32 12t-40 11q-20 5 -39 8t-31 3q-18 0 -35.5 -3t-31.5 -9q-17 -6 -29.5 -13t-40.5 -39l-66 57
q31 41 50.5 57.5t45.5 27.5q23 12 49.5 19t56.5 7q43 0 85.5 -7t77.5 -20q39 -17 77.5 -25.5t66.5 -8.5q16 0 34 3t34 9q16 5 28.5 12.5t38.5 39.5z" />
    <glyph glyph-name="approxequal" unicode="&#x2248;" 
d="M848 281q-31 -42 -50.5 -57.5t-44.5 -28.5q-24 -11 -51 -17.5t-56 -6.5q-43 0 -85 6.5t-80 20.5q-13 6 -32 12t-40 11q-20 5 -39 8t-31 3q-18 0 -35.5 -3t-31.5 -9q-17 -6 -29.5 -13t-39.5 -39l-67 57q31 41 50.5 57.5t45.5 27.5q23 12 49.5 19t56.5 7q43 0 85.5 -7
t77.5 -20q39 -17 77.5 -25.5t66.5 -8.5q16 0 34.5 3t33.5 9q16 5 28.5 12.5t38.5 39.5zM848 527q-31 -43 -50.5 -58.5t-44.5 -27.5q-24 -11 -51 -17.5t-56 -6.5q-43 0 -85 6.5t-80 20.5q-13 6 -32 11.5t-40 10.5q-20 5 -39 8t-31 3q-18 0 -35.5 -3t-31.5 -9
q-17 -6 -29.5 -12.5t-39.5 -38.5l-67 56q31 42 50.5 58.5t45.5 26.5q23 12 49.5 19t56.5 7q43 0 85.5 -7t77.5 -20q39 -16 77.5 -24.5t66.5 -8.5q16 0 34.5 3t33.5 9q16 5 28.5 12t38.5 39z" />
    <glyph glyph-name="uni2250" unicode="&#x2250;" 
d="M571 504q0 -32 -23.5 -54.5t-55.5 -22.5q-33 0 -56.5 22.5t-23.5 54.5t23.5 54.5t56.5 22.5q32 0 55.5 -22.5t23.5 -54.5zM783 126h-578q-52 0 -52 52q0 54 52 54h578q53 0 53 -54q0 -52 -53 -52zM784 291h-578q-52 0 -52 53t52 53h578q53 0 53 -53t-53 -53z" />
    <glyph glyph-name="uni2251" unicode="&#x2251;" 
d="M571 625q0 -32 -23.5 -54.5t-55.5 -22.5q-33 0 -56.5 22.5t-23.5 54.5q0 31 23.5 54t56.5 23q32 0 55.5 -23t23.5 -54zM571 138q0 -32 -23.5 -55t-55.5 -23q-33 0 -56.5 23t-23.5 55q0 31 23.5 54t56.5 23q32 0 55.5 -23t23.5 -54zM783 245h-578q-52 0 -52 52q0 54 52 54
h578q53 0 53 -54q0 -52 -53 -52zM784 412h-578q-52 0 -52 52q0 54 52 54h578q53 0 53 -54q0 -52 -53 -52z" />
    <glyph glyph-name="uni2252" unicode="&#x2252;" 
d="M409 625q0 -32 -23 -54.5t-56 -22.5q-32 0 -55.5 22.5t-23.5 54.5q0 31 23.5 54t55.5 23q33 0 56 -23t23 -54zM742 138q0 -32 -23 -55t-56 -23t-56 23t-23 55q0 31 23 54t56 23t56 -23t23 -54zM783 245h-578q-52 0 -52 52q0 54 52 54h578q53 0 53 -54q0 -52 -53 -52z
M784 412h-578q-52 0 -52 52q0 54 52 54h578q53 0 53 -54q0 -52 -53 -52z" />
    <glyph glyph-name="uni2253" unicode="&#x2253;" 
d="M590 625q0 31 23 54t56 23q32 0 55.5 -23t23.5 -54q0 -32 -23.5 -54.5t-55.5 -22.5q-33 0 -56 22.5t-23 54.5zM257 138q0 31 23 54t56 23t56 -23t23 -54q0 -32 -23 -55t-56 -23t-56 23t-23 55zM216 245q-53 0 -53 52q0 54 53 54h578q52 0 52 -54q0 -52 -52 -52h-578z
M215 412q-53 0 -53 52q0 54 53 54h578q52 0 52 -54q0 -52 -52 -52h-578z" />
    <glyph glyph-name="uni225A" unicode="&#x225a;" 
d="M815 59h-645v77h645v-77zM815 221h-645v76h284l-229 381l66 39l202 -339l201 339l66 -39l-229 -381h284v-76z" />
    <glyph glyph-name="notequal" unicode="&#x2260;" 
d="M721 241h-284l-125 -152q-31 -37 -67 -6q-38 30 -6 66l76 92h-53q-57 0 -57 56t57 56h145l66 80h-211q-57 0 -57 55q0 57 57 57h303l108 131q30 37 67 7q36 -31 6 -66l-59 -72h34q57 0 57 -57q0 -55 -57 -55h-126l-66 -80h192q57 0 57 -56t-57 -56z" />
    <glyph glyph-name="equivalence" unicode="&#x2261;" 
d="M779 329h-576q-46 0 -46 51t46 51h576q46 0 46 -51t-46 -51zM779 495h-576q-46 0 -46 49q0 53 46 53h576q46 0 46 -53q0 -49 -46 -49zM779 161h-576q-46 0 -46 51t46 51h576q46 0 46 -51t-46 -51z" />
    <glyph glyph-name="uni2262" unicode="&#x2262;" 
d="M842 198h-420l-72 -123l-64 37l49 86h-192v74h236l42 75h-278v74h322l41 74h-363v74h407l86 148l64 -38l-62 -110h204v-74h-247l-43 -74h290v-74h-334l-42 -75h376v-74z" />
    <glyph glyph-name="lessequal" unicode="&#x2264;" 
d="M261 29q-57 0 -57 56q0 57 57 57h463q57 0 57 -57q0 -56 -57 -56h-463zM287 538l383 188q46 26 74 -20q28 -49 -21 -75l-317 -155q-21 -12 0 -24l317 -154q49 -27 21 -75q-28 -47 -74 -20l-383 188q-65 30 -65 73q0 44 65 74z" />
    <glyph glyph-name="greaterequal" unicode="&#x2265;" 
d="M724 29h-463q-57 0 -57 56q0 57 57 57h463q57 0 57 -57q0 -56 -57 -56zM698 538q65 -30 65 -74q0 -43 -65 -73l-383 -188q-46 -27 -74 20q-28 48 21 75l317 154q21 12 0 24l-317 155q-49 26 -21 75q28 46 74 20z" />
    <glyph glyph-name="uni2266" unicode="&#x2266;" 
d="M822 35h-659v78h659v-78zM822 213h-659v78h508l-460 176q-33 14 -33 41q0 20 33 33l579 222l31 -71l-493 -187l493 -188l-12 -26h13v-78z" />
    <glyph glyph-name="uni2267" unicode="&#x2267;" 
d="M822 35h-659v78h659v-78zM822 213h-659v78h13l-12 26l493 188l-493 187l32 71l578 -222q33 -13 33 -33q0 -27 -33 -41l-460 -176h508v-78z" />
    <glyph glyph-name="uni226A" unicode="&#x226a;" 
d="M601 0l-481 342q-52 38 0 76l481 341q33 24 61 -11q20 -34 -11 -57l-442 -312l442 -311q31 -23 11 -57q-28 -35 -61 -11zM842 0l-482 342q-55 37 0 76l482 341q33 24 61 -11q20 -34 -11 -57l-443 -312l443 -311q31 -23 11 -57q-28 -35 -61 -11z" />
    <glyph glyph-name="uni226B" unicode="&#x226b;" 
d="M393 0q-33 -24 -61 11q-20 34 11 57l442 311l-442 312q-31 23 -11 57q28 35 61 11l481 -341q52 -38 0 -76zM152 0q-33 -24 -61 11q-20 34 11 57l443 311l-443 312q-31 23 -11 57q28 35 61 11l482 -341q55 -39 0 -76z" />
    <glyph glyph-name="uni226E" unicode="&#x226e;" 
d="M497 480l-195 -99l147 -75zM815 120l-34 -67l-283 143l-43 -161l-73 20l47 176l-230 117q-23 10 -23 33t24 34l323 164l39 147l73 -20l-22 -81l168 85l34 -67l-228 -117l-69 -255z" />
    <glyph glyph-name="uni226F" unicode="&#x226f;" 
d="M682 381l-146 74l-45 -171zM808 381q0 -23 -22 -33l-322 -164l-40 -149l-73 20l23 84l-171 -86l-35 67l233 118l67 252l-300 153l35 67l285 -145l43 161l73 -20l-47 -175l229 -116q22 -11 22 -34z" />
    <glyph glyph-name="uni2270" unicode="&#x2270;" 
d="M781 249v-67h-353l-34 -86h387v-66h-414l-55 -138l-44 14l49 124h-115v66h142l35 86h-177v67h202l68 166l-264 107l367 151l64 161l43 -14l-49 -122l106 44l24 -55l-160 -65l-68 -171l228 -93l-26 -52l-224 91l-59 -148h327zM358 523l135 -55l52 131z" />
    <glyph glyph-name="uni2271" unicode="&#x2271;" 
d="M781 249v-67h-402l-35 -86h437v-66h-464l-54 -138l-45 14l50 124h-66v66h93l34 86h-127v67h153l48 120l-155 -63l-26 52l212 87l54 134l-266 108l24 55l263 -109l81 201l42 -14l-81 -204l226 -94l-314 -129l-59 -144h377zM529 562l-36 -94l134 55z" />
    <glyph glyph-name="uni2272" unicode="&#x2272;" 
d="M885 109q-31 -43 -51 -58t-44 -28q-24 -11 -51.5 -17.5t-55.5 -6.5q-43 0 -85 6.5t-81 20.5q-13 6 -31.5 12t-39.5 11t-39.5 7.5t-30.5 2.5q-18 0 -36 -2.5t-32 -8.5q-16 -6 -28.5 -13t-40.5 -39l-66 57q30 41 50 57.5t46 27.5q23 12 49.5 18.5t56.5 6.5q42 0 84.5 -6.5
t78.5 -19.5q39 -17 77.5 -25.5t66.5 -8.5q16 0 34 3t34 9q16 5 28.5 12.5t37.5 38.5zM855 285l-35 -101l-700 284l700 285l35 -101l-453 -184z" />
    <glyph glyph-name="uni2273" unicode="&#x2273;" 
d="M832 109q-31 -43 -50.5 -58t-44.5 -28q-24 -11 -51 -17.5t-56 -6.5q-42 0 -84.5 6.5t-80.5 20.5q-13 6 -32 12t-39 11q-21 5 -40 7.5t-31 2.5q-18 0 -35.5 -2.5t-31.5 -8.5q-17 -6 -29.5 -13t-39.5 -39l-67 57q31 41 51 57.5t45 27.5q23 12 50 18.5t56 6.5
q43 0 85.5 -6.5t78.5 -19.5q38 -17 76.5 -25.5t66.5 -8.5q16 0 34.5 3t34.5 9q15 5 27.5 12.5t38.5 38.5zM884 468l-700 -284l-35 101l452 183l-452 184l35 101z" />
    <glyph glyph-name="uni2276" unicode="&#x2276;" 
d="M847 250l-704 -226v104l404 121l-404 120v104zM842 317l-706 226l706 223v-104l-407 -120l407 -121v-104z" />
    <glyph glyph-name="uni2277" unicode="&#x2277;" 
d="M136 250l706 223v-104l-407 -120l407 -121v-104zM143 317v104l404 121l-404 120v104l704 -223z" />
    <glyph glyph-name="uni2279" unicode="&#x2279;" 
d="M136 220l287 91l21 72l-301 -96v104l331 99l11 41l-342 102v104l367 -117l54 193l98 -28l-56 -196l241 -76l-289 -93l-21 -73l305 97v-104l-335 -99l-11 -40l346 -103v-104l-371 119l-64 -223l-94 26l64 227z" />
    <glyph glyph-name="uni227A" unicode="&#x227a;" 
d="M94 392q313 69 468 136.5t278 185.5l67 -83q-115 -96 -244 -159.5t-213 -79.5q84 -16 213 -79t244 -159l-67 -84q-123 118 -278 185.5t-468 136.5z" />
    <glyph glyph-name="uni227B" unicode="&#x227b;" 
d="M891 392q-315 -69 -469 -136.5t-279 -185.5l-66 84q117 96 245.5 159t209.5 79q-81 16 -209.5 79.5t-245.5 159.5l66 83q125 -118 279 -185.5t469 -136.5z" />
    <glyph glyph-name="uni2280" unicode="&#x2280;" 
d="M564 765h102v-184q94 56 174 133l67 -83q-114 -95 -241 -159v-160q127 -63 241 -158l-67 -84q-80 78 -174 133v-178h-102v229l-1 1q-156 68 -469 137q313 69 469 137l1 1v235zM564 357v70q-64 -26 -114 -35q50 -9 114 -35z" />
    <glyph glyph-name="uni2281" unicode="&#x2281;" 
d="M421 765v-236h1q154 -68 469 -137q-315 -69 -469 -137h-1v-230h-102v178q-94 -55 -176 -133l-66 84q116 95 242 158v160q-126 64 -242 159l66 83q82 -77 176 -133v184h102zM421 427v-70q64 26 111 35q-47 9 -111 35z" />
    <glyph glyph-name="propersubset" unicode="&#x2282;" 
d="M841 575h-405q-107 0 -168 -58q-59 -55 -65 -131q-2 -29 0 -52q6 -77 65 -131q61 -58 168 -58h404q46 0 46 -45q0 -44 -46 -44h-404q-155 0 -248 98q-83 87 -83 205q0 120 83 205q93 99 248 99h405q46 0 46 -44t-46 -44z" />
    <glyph glyph-name="propersuperset" unicode="&#x2283;" 
d="M141 575q-45 0 -45 44t45 44h405q155 0 249 -99q82 -85 82 -205q0 -118 -82 -205q-94 -98 -249 -98h-404q-45 0 -45 44q0 45 45 45h404q107 0 168 58q59 54 65 131q3 23 0 52q-6 76 -65 131q-61 58 -168 58h-405z" />
    <glyph glyph-name="notsubset" unicode="&#x2284;" 
d="M544 555h-112q-81 0 -125 -47.5t-44 -126.5q0 -38 11.5 -70.5t31.5 -54.5q23 -21 56.5 -34t67.5 -13h21zM801 133h-293l-25 -98l-74 20l22 78h-17q-97 0 -163.5 68t-66.5 181q0 115 67 182.5t176 67.5h137l26 94l73 -20l-21 -74h159v-77h-179l-94 -346h273v-76z" />
    <glyph glyph-name="uni2285" unicode="&#x2285;" 
d="M722 381q0 79 -44 126.5t-122 47.5h-21l-94 -346h108q41 0 74 13t55 34q21 22 32.5 54.5t11.5 70.5zM801 382q0 -113 -66.5 -181t-176.5 -68h-137l-25 -98l-74 20l22 78h-160v76h180l93 346h-273v77h293l25 94l74 -20l-21 -74h16q96 0 163 -67.5t67 -182.5z" />
    <glyph glyph-name="reflexsubset" unicode="&#x2286;" 
d="M831 615h-402q-122 0 -182 -56q-51 -47 -51 -115q0 -70 51 -117q60 -55 182 -55h402q46 0 46 -45t-46 -45h-410q-154 0 -242 79q-82 74 -82 183q0 108 82 181q89 80 242 80h410q46 0 46 -46q0 -44 -46 -44zM851 18h-717q-44 0 -44 44q0 46 44 46h717q45 0 45 -46
q0 -44 -45 -44z" />
    <glyph glyph-name="reflexsuperset" unicode="&#x2287;" 
d="M152 615q-46 0 -46 44q0 46 46 46h410q153 0 242 -80q83 -73 83 -181q0 -109 -83 -183q-88 -79 -242 -79h-410q-46 0 -46 45t46 45h402q122 0 182 55q52 47 52 117q0 68 -52 115q-60 56 -182 56h-402zM132 18q-45 0 -45 44q0 46 45 46h717q45 0 45 -46q0 -44 -45 -44
h-717z" />
    <glyph glyph-name="uni228A" unicode="&#x228a;" 
d="M872 20h-367l-31 -106l-89 29l21 77h-290v97h318l19 64h-337v97h365l19 72h-122q-265 0 -265 198q0 196 265 196h489v-97h-499q-154 0 -154 -101q0 -99 154 -99h499v-97h-290l23 -7l-18 -65h290v-97h-319l-19 -64h338v-97z" />
    <glyph glyph-name="uni228B" unicode="&#x228b;" 
d="M112 20v97h327l19 64h-346v97h374l19 72h-388v97h499q154 0 154 99q0 101 -154 101h-499v97h489q265 0 265 -196q0 -198 -265 -198h-24l23 -7l-18 -65h281v-97h-310l-19 -64h329v-97h-358l-31 -106l-89 29l21 77h-299z" />
    <glyph glyph-name="circleplus" unicode="&#x2295;" 
d="M762 342h-231v-228h-77v228h-231v78h231v229h77v-229h231v-78zM833 381q0 70 -26.5 132t-73.5 109q-46 46 -108.5 73t-131.5 27q-71 0 -132.5 -27t-108.5 -73q-47 -47 -73.5 -109t-26.5 -132t26.5 -132t74.5 -107q46 -48 107.5 -74.5t132.5 -26.5q69 0 131.5 26.5
t108.5 73.5q47 46 73.5 108t26.5 132zM911 381q0 -87 -33 -163t-89 -133q-57 -56 -133.5 -89.5t-162.5 -33.5q-88 0 -164 33.5t-132 89.5q-57 57 -90 133t-33 163q0 86 33 163t90 133q56 57 132 90t164 33q86 0 162.5 -33t134.5 -89q55 -57 88 -134t33 -163z" />
    <glyph glyph-name="uni2296" unicode="&#x2296;" 
d="M772 342h-559v78h559v-78zM833 381q0 70 -26.5 132t-73.5 109q-46 46 -108.5 73t-131.5 27q-71 0 -132.5 -27t-108.5 -73q-47 -47 -73.5 -109t-26.5 -132t26.5 -132t74.5 -107q46 -48 107.5 -74.5t132.5 -26.5q69 0 131.5 26.5t108.5 73.5q47 46 73.5 108t26.5 132z
M911 381q0 -87 -33 -163t-89 -133q-57 -56 -133.5 -89.5t-162.5 -33.5q-88 0 -164 33.5t-132 89.5q-57 57 -90 133t-33 163q0 86 33 163t90 133q56 57 132 90t164 33q86 0 162.5 -33t134.5 -89q55 -57 88 -134t33 -163z" />
    <glyph glyph-name="circlemultiply" unicode="&#x2297;" 
d="M719 552l-172 -172l170 -170l-54 -55l-170 171l-173 -172l-54 54l172 173l-171 171l53 54l172 -171l173 172zM833 381q0 70 -26.5 132t-73.5 109q-46 46 -108.5 73t-131.5 27q-71 0 -132.5 -27t-108.5 -73q-47 -47 -73.5 -109t-26.5 -132t26.5 -132t74.5 -107
q46 -48 107.5 -74.5t132.5 -26.5q69 0 131.5 26.5t108.5 73.5q47 46 73.5 108t26.5 132zM911 381q0 -87 -33 -163t-89 -133q-57 -56 -133.5 -89.5t-162.5 -33.5q-88 0 -164 33.5t-132 89.5q-57 57 -90 133t-33 163q0 86 33 163t90 133q56 57 132 90t164 33q86 0 162.5 -33
t134.5 -89q55 -57 88 -134t33 -163z" />
    <glyph glyph-name="uni2299" unicode="&#x2299;" 
d="M492 155q-86 0 -145 59t-59 143t59 143t145 59q84 0 143.5 -59t59.5 -143t-59.5 -143t-143.5 -59zM492 -54q-173 0 -293.5 120.5t-120.5 290.5q0 173 120.5 293.5t293.5 120.5q172 0 292 -120.5t120 -293.5q0 -170 -120 -290.5t-292 -120.5zM492 698
q-140 0 -239.5 -100.5t-99.5 -239.5q0 -140 99.5 -239.5t239.5 -99.5q138 0 237.5 99.5t99.5 239.5q0 139 -99.5 239.5t-237.5 100.5z" />
    <glyph glyph-name="uni22A3" unicode="&#x22a3;" 
d="M764 61h-77v284h-466v76h466v283h77v-643z" />
    <glyph glyph-name="uni22A4" unicode="&#x22a4;" 
d="M837 582h-295v-527h-99v527h-295v96h689v-96z" />
    <glyph glyph-name="perpendicular" unicode="&#x22a5;" 
d="M135 104h311v571h92v-571h311v-83h-714v83z" />
    <glyph glyph-name="uni22BB" unicode="&#x22bb;" 
d="M820 67h-655v79h312l-272 532l69 35l219 -432l218 432l69 -35l-272 -532h312v-79z" />
    <glyph glyph-name="uni22BC" unicode="&#x22bc;" 
d="M780 68l-69 -34l-218 430l-219 -430l-69 34l272 533h-312v78h655v-78h-312z" />
    <glyph glyph-name="uni22CE" unicode="&#x22ce;" 
d="M493 750q69 -314 136.5 -468t184.5 -279l-83 -66q-96 117 -159.5 245.5t-78.5 209.5q-16 -81 -79.5 -209.5t-159.5 -245.5l-83 66q118 125 185 279t137 468z" />
    <glyph glyph-name="uni22CF" unicode="&#x22cf;" 
d="M493 -66q-70 314 -137 468.5t-185 277.5l83 68q96 -116 159.5 -245t79.5 -213q15 84 78.5 213t159.5 245l83 -68q-117 -123 -184.5 -277.5t-136.5 -468.5z" />
    <glyph glyph-name="uni22DA" unicode="&#x22da;" 
d="M842 325h-621l631 -160l-709 -184v104l379 79l-379 80v178h592l-602 156l709 179v-101l-380 -79l380 -79v-173z" />
    <glyph glyph-name="uni22DB" unicode="&#x22db;" 
d="M842 244l-380 -80l380 -79v-104l-709 184l631 160h-621v173l379 79l-379 79v101l709 -179l-602 -156h592v-178z" />
    <glyph glyph-name="uni22EE" unicode="&#x22ee;" 
d="M475 119q28 0 49 -20.5t21 -48.5q0 -29 -21 -49.5t-49 -20.5q-29 0 -50 20.5t-21 49.5q0 28 21 48.5t50 20.5zM475 432q28 0 49 -20.5t21 -49.5q0 -28 -21 -48.5t-49 -20.5q-29 0 -50 20.5t-21 48.5q0 29 21 49.5t50 20.5zM475 745q28 0 49 -20.5t21 -49.5
q0 -28 -21 -48.5t-49 -20.5q-29 0 -50 20.5t-21 48.5q0 29 21 49.5t50 20.5z" />
    <glyph glyph-name="uni22EF" unicode="&#x22ef;" 
d="M248 397q0 -29 -20.5 -49.5t-48.5 -20.5q-29 0 -49.5 20.5t-20.5 49.5t20.5 49.5t49.5 20.5q28 0 48.5 -20.5t20.5 -49.5zM561 397q0 -29 -20.5 -49.5t-48.5 -20.5q-29 0 -49.5 20.5t-20.5 49.5t20.5 49.5t49.5 20.5q28 0 48.5 -20.5t20.5 -49.5zM874 397
q0 -29 -20.5 -49.5t-49.5 -20.5q-28 0 -48.5 20.5t-20.5 49.5t20.5 49.5t48.5 20.5q29 0 49.5 -20.5t20.5 -49.5z" />
    <glyph glyph-name="uni2306" unicode="&#x2306;" 
d="M760 69l-66 -38l-201 339l-202 -339l-66 38l229 383h-284v76h645v-76h-284zM815 613h-645v76h645v-76z" />
    <glyph glyph-name="uni2312" unicode="&#x2312;" 
d="M115 523q25 130 129.5 207.5t247.5 77.5q141 0 246 -77.5t130 -207.5h-92q-20 98 -99 152.5t-185 54.5q-107 0 -184.5 -54t-100.5 -153h-92z" />
    <glyph glyph-name="uni2314" unicode="&#x2314;" 
d="M708 552q-50 32 -80 46t-135 25q-105 -11 -136.5 -25t-79.5 -46l216 -388zM493 18l-321 570q81 52 154.5 79.5t166.5 27.5t166 -27.5t154 -79.5z" />
    <glyph glyph-name="uni2460" unicode="&#x2460;" 
d="M510 619q51 0 51 -49v-414q0 -48 -53 -48q-49 0 -49 47v361q0 9 -9 9h-52q-43 0 -43 46q0 48 45 48h110zM957 373q0 -94 -37 -178.5t-101 -146.5q-62 -61 -147.5 -98.5t-179.5 -37.5t-180 37.5t-148 98.5q-63 62 -100.5 146.5t-37.5 178.5t37.5 179t100.5 147
q62 60 148 98t180 38t179.5 -38t147.5 -98q64 -62 101 -147t37 -179zM855 373q0 74 -29 140.5t-79 115.5q-49 49 -115.5 78.5t-139.5 29.5q-74 0 -140.5 -29.5t-116.5 -78.5q-48 -49 -77.5 -115.5t-29.5 -140.5q0 -73 29.5 -140t77.5 -116q50 -49 116.5 -78t140.5 -29
q73 0 139.5 29t115.5 78q50 49 79 116t29 140z" />
    <glyph glyph-name="uni2461" unicode="&#x2461;" 
d="M472 241l-2 -2.5t5 -2.5h176q41 0 41 -50q0 -49 -43 -49h-297q-42 0 -53 31q-12 37 13 61l199 176q51 47 51 85q0 30 -19.5 45t-46.5 15q-37 0 -60 -22q-16 -17 -18 -42q-9 -54 -55 -51q-53 3 -47 66q8 54 47 95q51 55 134 55q73 0 123.5 -47t50.5 -111q0 -73 -72 -136z
M957 373q0 -94 -37 -178.5t-101 -146.5q-62 -61 -147.5 -98.5t-179.5 -37.5t-180 37.5t-148 98.5q-63 62 -100.5 146.5t-37.5 178.5t37.5 179t100.5 147q62 60 148 98t180 38t179.5 -38t147.5 -98q64 -62 101 -147t37 -179zM855 373q0 74 -29 140.5t-79 115.5
q-49 49 -115.5 78.5t-139.5 29.5q-74 0 -140.5 -29.5t-116.5 -78.5q-48 -49 -77.5 -115.5t-29.5 -140.5q0 -73 29.5 -140t77.5 -116q50 -49 116.5 -78t140.5 -29q73 0 139.5 29t115.5 78q50 49 79 116t29 140z" />
    <glyph glyph-name="uni2462" unicode="&#x2462;" 
d="M633 150q-26 -25 -64.5 -41t-77.5 -16q-42 0 -79.5 16t-64.5 41q-46 46 -48 92q-1 47 46 50q46 4 57 -39q10 -38 54 -56q17 -7 36 -7q17 0 33.5 7t30.5 19q10 13 16.5 27t7.5 31q0 20 -6 34t-18 29q-13 12 -31 16t-29 4q-20 0 -26 -2h-9q-22 0 -36.5 14t-14.5 33
q0 20 16 35l93 86q-3 -2 -11 -2h-144q-41 0 -41 49q0 51 45 51h245q23 0 39.5 -17t16.5 -41q0 -20 -15 -37l-98 -90q9 0 30 -8t45 -27q31 -26 44.5 -54t13.5 -71q-1 -36 -14.5 -68.5t-41.5 -57.5zM957 373q0 -94 -37 -178.5t-101 -146.5q-62 -61 -147.5 -98.5t-179.5 -37.5
t-180 37.5t-148 98.5q-63 62 -100.5 146.5t-37.5 178.5t37.5 179t100.5 147q62 60 148 98t180 38t179.5 -38t147.5 -98q64 -62 101 -147t37 -179zM855 373q0 74 -29 140.5t-79 115.5q-49 49 -115.5 78.5t-139.5 29.5q-74 0 -140.5 -29.5t-116.5 -78.5q-48 -49 -77.5 -115.5
t-29.5 -140.5q0 -73 29.5 -140t77.5 -116q50 -49 116.5 -78t140.5 -29q73 0 139.5 29t115.5 78q50 49 79 116t29 140z" />
    <glyph glyph-name="uni2463" unicode="&#x2463;" 
d="M626 199q-9 0 -9 -9v-45q0 -48 -53 -48q-54 0 -54 48v45q0 9 -9 9h-185q-56 0 -56 63q0 22 10 35l230 304q20 30 54 30q63 0 63 -58v-267q0 -9 9 -9h32q43 0 43 -49t-43 -49h-32zM392 303q-4 -6 3 -6h107q8 0 8 8v150q0 8 -5 1zM957 373q0 -94 -37 -178.5t-101 -146.5
q-62 -61 -147.5 -98.5t-179.5 -37.5t-180 37.5t-148 98.5q-63 62 -100.5 146.5t-37.5 178.5t37.5 179t100.5 147q62 60 148 98t180 38t179.5 -38t147.5 -98q64 -62 101 -147t37 -179zM855 373q0 74 -29 140.5t-79 115.5q-49 49 -115.5 78.5t-139.5 29.5q-74 0 -140.5 -29.5
t-116.5 -78.5q-48 -49 -77.5 -115.5t-29.5 -140.5q0 -73 29.5 -140t77.5 -116q50 -49 116.5 -78t140.5 -29q73 0 139.5 29t115.5 78q50 49 79 116t29 140z" />
    <glyph glyph-name="uni2464" unicode="&#x2464;" 
d="M463 521q-9 0 -10 -2l-20 -72q16 11 55 16q82 11 145 -46q57 -48 58 -134q0 -33 -13 -68.5t-42 -60.5q-61 -61 -139 -61q-83 0 -139 54q-51 46 -56 91t47 53q42 4 56 -33q9 -26 30 -44q30 -22 57 -22q19 0 37.5 7.5t32.5 21.5q9 11 15.5 26.5t5.5 34.5q0 15 -4 32t-17 33
q-15 12 -33 17.5t-37 5.5q-21 0 -34.5 -5.5t-27.5 -12.5q-40 -23 -80 -3.5t-28 79.5l33 128q12 65 58 65h214q45 0 45 -51q0 -49 -43 -49h-166zM957 373q0 -94 -37 -178.5t-101 -146.5q-62 -61 -147.5 -98.5t-179.5 -37.5t-180 37.5t-148 98.5q-63 62 -100.5 146.5
t-37.5 178.5t37.5 179t100.5 147q62 60 148 98t180 38t179.5 -38t147.5 -98q64 -62 101 -147t37 -179zM855 373q0 74 -29 140.5t-79 115.5q-49 49 -115.5 78.5t-139.5 29.5q-74 0 -140.5 -29.5t-116.5 -78.5q-48 -49 -77.5 -115.5t-29.5 -140.5q0 -73 29.5 -140t77.5 -116
q50 -49 116.5 -78t140.5 -29q73 0 139.5 29t115.5 78q50 49 79 116t29 140z" />
    <glyph glyph-name="uni2465" unicode="&#x2465;" 
d="M577 284q0 34 -25.5 59.5t-59.5 25.5q-35 0 -60 -25.5t-25 -59.5t25 -59.5t60 -25.5q34 0 59.5 25.5t25.5 59.5zM492 460q40 0 77.5 -13.5t64.5 -39.5q29 -24 42.5 -56t13.5 -68t-13.5 -69t-42.5 -59q-27 -23 -64.5 -37t-77.5 -14q-41 0 -78.5 14t-65.5 37q-28 26 -41 59
t-13 69q0 55 18 93l122 232q23 44 69 29q52 -20 26 -74l-57 -104q4 1 11 1h9zM957 373q0 -94 -37 -178.5t-101 -146.5q-62 -61 -147.5 -98.5t-179.5 -37.5t-180 37.5t-148 98.5q-63 62 -100.5 146.5t-37.5 178.5t37.5 179t100.5 147q62 60 148 98t180 38t179.5 -38
t147.5 -98q64 -62 101 -147t37 -179zM855 373q0 74 -29 140.5t-79 115.5q-49 49 -115.5 78.5t-139.5 29.5q-74 0 -140.5 -29.5t-116.5 -78.5q-48 -49 -77.5 -115.5t-29.5 -140.5q0 -73 29.5 -140t77.5 -116q50 -49 116.5 -78t140.5 -29q73 0 139.5 29t115.5 78q50 49 79 116
t29 140z" />
    <glyph glyph-name="uni2466" unicode="&#x2466;" 
d="M543 522h-192q-43 0 -43 49q0 50 44 50h254q63 0 63 -66q0 -12 -5 -26l-172 -390q-18 -48 -70 -29q-51 19 -26 72zM957 373q0 -94 -37 -178.5t-101 -146.5q-62 -61 -147.5 -98.5t-179.5 -37.5t-180 37.5t-148 98.5q-63 62 -100.5 146.5t-37.5 178.5t37.5 179t100.5 147
q62 60 148 98t180 38t179.5 -38t147.5 -98q64 -62 101 -147t37 -179zM855 373q0 74 -29 140.5t-79 115.5q-49 49 -115.5 78.5t-139.5 29.5q-74 0 -140.5 -29.5t-116.5 -78.5q-48 -49 -77.5 -115.5t-29.5 -140.5q0 -73 29.5 -140t77.5 -116q50 -49 116.5 -78t140.5 -29
q73 0 139.5 29t115.5 78q50 49 79 116t29 140z" />
    <glyph glyph-name="uni2467" unicode="&#x2467;" 
d="M957 373q0 -94 -37 -178.5t-101 -146.5q-62 -61 -147.5 -98.5t-179.5 -37.5t-180 37.5t-148 98.5q-63 62 -100.5 146.5t-37.5 178.5t37.5 179t100.5 147q62 60 148 98t180 38t179.5 -38t147.5 -98q64 -62 101 -147t37 -179zM855 373q0 74 -29 140.5t-79 115.5
q-49 49 -115.5 78.5t-139.5 29.5q-74 0 -140.5 -29.5t-116.5 -78.5q-48 -49 -77.5 -115.5t-29.5 -140.5q0 -73 29.5 -140t77.5 -116q50 -49 116.5 -78t140.5 -29q73 0 139.5 29t115.5 78q50 49 79 116t29 140zM683 257q0 -33 -15.5 -63t-42.5 -51q-26 -23 -60.5 -36
t-71.5 -13q-38 0 -72.5 13t-60.5 36q-27 21 -42.5 51t-15.5 63q0 78 84 126q-61 47 -61 104q0 29 14.5 54.5t36.5 45.5q23 21 53.5 32.5t63.5 11.5q31 0 62 -11.5t53 -32.5q22 -20 35.5 -45.5t13.5 -54.5q0 -57 -58 -103q84 -49 84 -127zM553 488q0 24 -18 41.5t-42 17.5
q-25 0 -43 -17.5t-18 -41.5q0 -25 18 -42.5t43 -17.5q24 0 42 17.5t18 42.5zM576 258q0 34 -25.5 57.5t-57.5 23.5q-35 0 -60 -23.5t-25 -57.5q0 -32 25 -55.5t60 -23.5q32 0 57.5 23.5t25.5 55.5z" />
    <glyph glyph-name="uni2468" unicode="&#x2468;" 
d="M405 452q0 -35 26 -61t62 -26q35 0 60.5 26t25.5 61q0 36 -25.5 62t-60.5 26q-36 0 -62 -26t-26 -62zM493 278q-41 0 -78 14t-64 39q-28 23 -41 54.5t-13 67.5q0 37 13 69t41 57q27 24 64 38t78 14q40 0 77 -14t64 -38q28 -25 41.5 -57t13.5 -69q0 -54 -19 -92l-122 -231
q-22 -44 -66 -28q-50 18 -25 69l59 108q-8 -1 -14.5 -1h-8.5zM957 373q0 -94 -37 -178.5t-101 -146.5q-62 -61 -147.5 -98.5t-179.5 -37.5t-180 37.5t-148 98.5q-63 62 -100.5 146.5t-37.5 178.5t37.5 179t100.5 147q62 60 148 98t180 38t179.5 -38t147.5 -98
q64 -62 101 -147t37 -179zM855 373q0 74 -29 140.5t-79 115.5q-49 49 -115.5 78.5t-139.5 29.5q-74 0 -140.5 -29.5t-116.5 -78.5q-48 -49 -77.5 -115.5t-29.5 -140.5q0 -73 29.5 -140t77.5 -116q50 -49 116.5 -78t140.5 -29q73 0 139.5 29t115.5 78q50 49 79 116t29 140z
" />
    <glyph glyph-name="uni2469" unicode="&#x2469;" 
d="M776 288q0 -78 -30 -117q-52 -67 -140 -67t-139 67q-30 39 -30 117v143q0 77 30 116q51 66 139 66t140 -66q30 -39 30 -116v-143zM675 293v133q-1 40 -6 53q-17 42 -63 42t-64 -42q-5 -14 -5 -55v-130q0 -42 5 -55q18 -43 64 -43t63 43q5 12 6 54zM292 502q0 12 -13 12
h-13q-46 0 -46 44q0 46 46 46h76q21 0 37 -14.5t16 -36.5v-385q0 -52 -53 -52q-50 0 -50 52v334zM957 373q0 -94 -37 -178.5t-101 -146.5q-62 -61 -147.5 -98.5t-179.5 -37.5t-180 37.5t-148 98.5q-63 62 -100.5 146.5t-37.5 178.5t37.5 179t100.5 147q62 60 148 98t180 38
t179.5 -38t147.5 -98q64 -62 101 -147t37 -179zM855 373q0 74 -29 140.5t-79 115.5q-49 49 -115.5 78.5t-139.5 29.5q-74 0 -140.5 -29.5t-116.5 -78.5q-48 -49 -77.5 -115.5t-29.5 -140.5q0 -73 29.5 -140t77.5 -116q50 -49 116.5 -78t140.5 -29q73 0 139.5 29t115.5 78
q50 49 79 116t29 140z" />
    <glyph glyph-name="uni246A" unicode="&#x246a;" 
d="M338 502q0 12 -12 12h-32q-46 0 -46 44q0 46 46 46h95q21 0 36.5 -14.5t15.5 -36.5v-385q0 -52 -52 -52q-51 0 -51 52v334zM597 502q0 12 -13 12h-33q-46 0 -46 44q0 46 46 46h96q21 0 36.5 -14.5t15.5 -36.5v-385q0 -52 -52 -52q-50 0 -50 52v334zM957 373
q0 -94 -37 -178.5t-101 -146.5q-62 -61 -147.5 -98.5t-179.5 -37.5t-180 37.5t-148 98.5q-63 62 -100.5 146.5t-37.5 178.5t37.5 179t100.5 147q62 60 148 98t180 38t179.5 -38t147.5 -98q64 -62 101 -147t37 -179zM855 373q0 74 -29 140.5t-79 115.5q-49 49 -115.5 78.5
t-139.5 29.5q-74 0 -140.5 -29.5t-116.5 -78.5q-48 -49 -77.5 -115.5t-29.5 -140.5q0 -73 29.5 -140t77.5 -116q50 -49 116.5 -78t140.5 -29q73 0 139.5 29t115.5 78q50 49 79 116t29 140z" />
    <glyph glyph-name="uni246B" unicode="&#x246b;" 
d="M957 373q0 -94 -37 -178.5t-101 -146.5q-62 -61 -147.5 -98.5t-179.5 -37.5t-180 37.5t-148 98.5q-63 62 -100.5 146.5t-37.5 178.5t37.5 179t100.5 147q62 60 148 98t180 38t179.5 -38t147.5 -98q64 -62 101 -147t37 -179zM855 373q0 74 -29 140.5t-79 115.5
q-49 49 -115.5 78.5t-139.5 29.5q-74 0 -140.5 -29.5t-116.5 -78.5q-48 -49 -77.5 -115.5t-29.5 -140.5q0 -73 29.5 -140t77.5 -116q50 -49 116.5 -78t140.5 -29q73 0 139.5 29t115.5 78q50 49 79 116t29 140zM584 221q-7 -9 3 -9h113q37 0 37 -45q0 -46 -39 -46h-216
q-38 0 -46 32q-11 31 11 54l150 164q38 43 38 87q0 30 -16 46.5t-42 16.5q-28 0 -45 -17q-13 -13 -14 -40q-2 -45 -44 -45q-47 0 -45 59q5 54 36 86q41 47 117 48q67 -1 109 -44t42 -108q0 -80 -64 -148zM303 502q0 12 -11 12h-24q-46 0 -46 44q0 46 46 46h86
q21 0 36.5 -14.5t15.5 -36.5v-385q0 -52 -52 -52q-51 0 -51 52v334z" />
    <glyph glyph-name="uni246C" unicode="&#x246c;" 
d="M486 600h199q19 0 34.5 -15.5t15.5 -37.5q0 -18 -14 -34l-86 -88q36 -8 64 -32q59 -47 59 -115q2 -77 -58 -131q-16 -16 -51 -29.5t-69 -13.5q-65 0 -108.5 34t-53.5 89q-7 38 35 48q41 10 54 -28q9 -25 28.5 -39t45.5 -14q30 0 52 20t22 61q0 16 -6 31.5t-18 28.5
q-10 12 -25.5 16.5t-19.5 4.5h-40q-18 0 -31.5 10.5t-13.5 28.5q0 17 14 31l77 84h-106q-46 0 -46 44q0 46 46 46zM288 502q0 12 -12 12h-13q-46 0 -46 44q0 46 46 46h75q22 0 37.5 -14.5t15.5 -36.5v-385q0 -52 -53 -52q-50 0 -50 52v334zM957 373q0 -94 -37 -178.5
t-101 -146.5q-62 -61 -147.5 -98.5t-179.5 -37.5t-180 37.5t-148 98.5q-63 62 -100.5 146.5t-37.5 178.5t37.5 179t100.5 147q62 60 148 98t180 38t179.5 -38t147.5 -98q64 -62 101 -147t37 -179zM855 373q0 74 -29 140.5t-79 115.5q-49 49 -115.5 78.5t-139.5 29.5
q-74 0 -140.5 -29.5t-116.5 -78.5q-48 -49 -77.5 -115.5t-29.5 -140.5q0 -73 29.5 -140t77.5 -116q50 -49 116.5 -78t140.5 -29q73 0 139.5 29t115.5 78q50 49 79 116t29 140z" />
    <glyph glyph-name="uni246D" unicode="&#x246d;" 
d="M529 298q-4 -7 4 -7h73q8 0 8 8v127q0 9 -5 0zM715 167q0 -51 -49 -51q-52 0 -52 51v24q0 9 -9 9h-136q-56 0 -56 61q0 18 8 33l184 290q19 27 52 27q58 0 58 -57v-254q0 -9 9 -9h17q46 0 46 -43q0 -48 -46 -48h-17q-9 0 -9 -9v-24zM288 502q0 12 -12 12h-13
q-46 0 -46 44q0 46 46 46h75q22 0 37.5 -14.5t15.5 -36.5v-385q0 -52 -53 -52q-50 0 -50 52v334zM957 373q0 -94 -37 -178.5t-101 -146.5q-62 -61 -147.5 -98.5t-179.5 -37.5t-180 37.5t-148 98.5q-63 62 -100.5 146.5t-37.5 178.5t37.5 179t100.5 147q62 60 148 98t180 38
t179.5 -38t147.5 -98q64 -62 101 -147t37 -179zM855 373q0 74 -29 140.5t-79 115.5q-49 49 -115.5 78.5t-139.5 29.5q-74 0 -140.5 -29.5t-116.5 -78.5q-48 -49 -77.5 -115.5t-29.5 -140.5q0 -73 29.5 -140t77.5 -116q50 -49 116.5 -78t140.5 -29q73 0 139.5 29t115.5 78
q50 49 79 116t29 140z" />
    <glyph glyph-name="uni246E" unicode="&#x246e;" 
d="M715 514h-149q-6 0 -8 -7l-18 -77q14 13 50 15q81 6 133 -41q54 -50 54 -123q0 -80 -52.5 -128.5t-124.5 -48.5q-77 0 -129 50q-45 41 -48 83q-4 44 44 49q36 4 49 -31q7 -22 26 -40q22 -20 53 -20q13 0 31.5 7t30.5 20q21 26 21 58q0 34 -26 60q-24 19 -56 19
q-20 0 -33 -4t-27 -11q-36 -19 -73 -2t-26 71l29 134q13 58 53 58h196q47 0 47 -48q0 -43 -47 -43zM287 502q0 12 -12 12h-13q-46 0 -46 44q0 46 46 46h75q22 0 37.5 -14.5t15.5 -36.5v-385q0 -52 -53 -52q-50 0 -50 52v334zM957 373q0 -94 -37 -178.5t-101 -146.5
q-62 -61 -147.5 -98.5t-179.5 -37.5t-180 37.5t-148 98.5q-63 62 -100.5 146.5t-37.5 178.5t37.5 179t100.5 147q62 60 148 98t180 38t179.5 -38t147.5 -98q64 -62 101 -147t37 -179zM855 373q0 74 -29 140.5t-79 115.5q-49 49 -115.5 78.5t-139.5 29.5q-74 0 -140.5 -29.5
t-116.5 -78.5q-48 -49 -77.5 -115.5t-29.5 -140.5q0 -73 29.5 -140t77.5 -116q50 -49 116.5 -78t140.5 -29q73 0 139.5 29t115.5 78q50 49 79 116t29 140z" />
    <glyph glyph-name="uni246F" unicode="&#x246f;" 
d="M850 373q0 74 -28.5 139t-76.5 114q-48 47 -113.5 76t-138.5 29q-74 0 -139 -29t-114 -76q-47 -49 -76 -114t-29 -139q0 -73 29 -138.5t76 -113.5q49 -48 114 -76.5t139 -28.5q73 0 138.5 28.5t113.5 76.5t76.5 113.5t28.5 138.5zM939 373q0 -91 -35 -171.5t-97 -141.5
q-60 -58 -141.5 -93.5t-172.5 -35.5q-92 0 -173.5 35.5t-141.5 93.5q-62 61 -97 141.5t-35 171.5t35 172t97 141q60 59 141.5 94.5t173.5 35.5q91 0 172.5 -35.5t141.5 -94.5q62 -60 97 -141t35 -172zM307 131v384h-76v79h164v-463h-88zM579 426q20 3 34 3q63 -1 105 -42
q47 -41 47 -110q0 -74 -57 -119q-45 -37 -115 -37q-78 0 -124 45q-46 46 -46 110q0 37 16 75q14 34 42 77l130 188l75 -50zM679 277q0 35 -24.5 56.5t-61.5 21.5t-61.5 -21.5t-24.5 -56.5q0 -34 24.5 -56.5t61.5 -22.5t61 22.5t25 56.5z" />
    <glyph glyph-name="uni2470" unicode="&#x2470;" 
d="M850 373q0 74 -28.5 139t-76.5 114q-48 47 -113.5 76t-138.5 29q-74 0 -139 -29t-114 -76q-47 -49 -76 -114t-29 -139q0 -73 29 -138.5t76 -113.5q49 -48 114 -76.5t139 -28.5q73 0 138.5 28.5t113.5 76.5t76.5 113.5t28.5 138.5zM939 373q0 -91 -35 -171.5t-97 -141.5
q-60 -58 -141.5 -93.5t-172.5 -35.5q-92 0 -173.5 35.5t-141.5 93.5q-62 61 -97 141.5t-35 171.5t35 172t97 141q60 59 141.5 94.5t173.5 35.5q91 0 172.5 -35.5t141.5 -94.5q62 -60 97 -141t35 -172zM307 131v384h-76v79h164v-463h-88zM486 150l146 366h-201v78h325
l-188 -474z" />
    <glyph glyph-name="uni2471" unicode="&#x2471;" 
d="M850 373q0 74 -28.5 139t-76.5 114q-48 47 -113.5 76t-138.5 29q-74 0 -139 -29t-114 -76q-47 -49 -76 -114t-29 -139q0 -73 29 -138.5t76 -113.5q49 -48 114 -76.5t139 -28.5q73 0 138.5 28.5t113.5 76.5t76.5 113.5t28.5 138.5zM939 373q0 -91 -35 -171.5t-97 -141.5
q-60 -58 -141.5 -93.5t-172.5 -35.5q-92 0 -173.5 35.5t-141.5 93.5q-62 61 -97 141.5t-35 171.5t35 172t97 141q60 59 141.5 94.5t173.5 35.5q91 0 172.5 -35.5t141.5 -94.5q62 -60 97 -141t35 -172zM307 131v384h-76v79h164v-463h-88zM673 269q0 16 -6.5 28.5t-17.5 22.5
q-10 9 -24.5 15.5t-29.5 6.5q-17 0 -31.5 -6.5t-24.5 -15.5q-11 -10 -17.5 -22.5t-6.5 -28.5q0 -14 6.5 -26.5t17.5 -20.5q10 -10 24.5 -16.5t31.5 -6.5q15 0 29.5 6.5t24.5 16.5q11 8 17.5 20.5t6.5 26.5zM758 269q0 -28 -13 -56t-35 -49q-23 -19 -53 -31t-62 -12
q-34 0 -64 12t-52 31q-22 21 -35 49t-13 56q0 31 13 57.5t35 44.5q5 5 11 9q-20 18 -32 41q-13 23 -13 50q0 29 12.5 53.5t32.5 41.5q19 20 46.5 30t58.5 10q29 0 56.5 -10t47.5 -30q20 -17 32.5 -41.5t12.5 -53.5q0 -27 -12 -50q-13 -23 -33 -41q6 -4 11 -9
q22 -18 35 -44.5t13 -57.5zM657 471q0 24 -18.5 41t-43.5 17q-27 0 -45.5 -17t-18.5 -41q0 -22 18.5 -38.5t45.5 -16.5q25 0 43.5 16.5t18.5 38.5z" />
    <glyph glyph-name="uni2472" unicode="&#x2472;" 
d="M850 373q0 74 -28.5 139t-76.5 114q-48 47 -113.5 76t-138.5 29q-74 0 -139 -29t-114 -76q-47 -49 -76 -114t-29 -139q0 -73 29 -138.5t76 -113.5q49 -48 114 -76.5t139 -28.5q73 0 138.5 28.5t113.5 76.5t76.5 113.5t28.5 138.5zM939 373q0 -91 -35 -171.5t-97 -141.5
q-60 -58 -141.5 -93.5t-172.5 -35.5q-92 0 -173.5 35.5t-141.5 93.5q-62 61 -97 141.5t-35 171.5t35 172t97 141q60 59 141.5 94.5t173.5 35.5q91 0 172.5 -35.5t141.5 -94.5q62 -60 97 -141t35 -172zM307 131v384h-76v79h164v-463h-88zM614 302q-8 -4 -40 -3q-61 2 -104 44
q-48 41 -48 108q0 74 58 117q44 38 113 38q79 0 125 -46q45 -44 45 -108q0 -37 -14 -73q-12 -36 -40 -80l-135 -187l-72 48zM679 451q0 15 -6 29.5t-19 25.5q-11 11 -27.5 17t-33.5 6t-33.5 -6t-27.5 -17q-13 -11 -19 -25.5t-6 -29.5q0 -17 6 -32t19 -26q11 -10 27.5 -15.5
t33.5 -5.5t33.5 5.5t27.5 15.5q13 11 19 26t6 32z" />
    <glyph glyph-name="uni2473" unicode="&#x2473;" 
d="M850 373q0 74 -28.5 139t-76.5 114q-48 47 -113.5 76t-138.5 29q-74 0 -139 -29t-114 -76q-47 -49 -76 -114t-29 -139q0 -73 29 -138.5t76 -113.5q49 -48 114 -76.5t139 -28.5q73 0 138.5 28.5t113.5 76.5t76.5 113.5t28.5 138.5zM939 373q0 -91 -35 -171.5t-97 -141.5
q-60 -58 -141.5 -93.5t-172.5 -35.5q-92 0 -173.5 35.5t-141.5 93.5q-62 61 -97 141.5t-35 171.5t35 172t97 141q60 59 141.5 94.5t173.5 35.5q91 0 172.5 -35.5t141.5 -94.5q62 -60 97 -141t35 -172zM498 230v-78h-276l146 217q44 66 44 107q0 30 -9 46q-16 25 -42 23
q-20 -1 -35 -24q-14 -19 -19 -78h-80q6 95 41 135q34 44 91 45q63 1 101 -43q32 -39 32 -101q-2 -58 -57 -145q-37 -60 -69 -104h132zM784 312q0 -76 -25 -112q-41 -61 -111 -61q-71 0 -110 61q-25 36 -25 112v137q0 74 25 111q39 63 110 63q70 0 111 -63q25 -37 25 -111
v-137zM704 315v131q0 40 -4 53q-15 46 -52 46t-51 -46q-4 -14 -4 -53v-131q0 -40 4 -54q14 -44 51 -44t52 44q4 14 4 54z" />
    <glyph glyph-name="uni2474" unicode="&#x2474;" 
d="M510 619q51 0 51 -49v-414q0 -48 -53 -48q-49 0 -49 47v361q0 8 -9 8h-52q-43 0 -43 47q0 48 45 48h110zM140 374q0 -208 99 -371q19 -35 -17 -56q-38 -23 -62 14q-135 186 -134 413q-1 228 134 413q24 38 62 15q36 -22 17 -56q-99 -165 -99 -372zM843 374q0 207 -99 372
q-19 34 17 56q38 23 62 -15q135 -185 134 -413q1 -227 -134 -413q-24 -37 -62 -14q-36 21 -17 56q99 163 99 371z" />
    <glyph glyph-name="uni2475" unicode="&#x2475;" 
d="M472 241l-2 -2.5t5 -2.5h176q41 0 41 -50q0 -49 -43 -49h-297q-42 0 -53 31q-12 37 13 61l199 176q51 47 51 85q0 30 -19.5 45t-46.5 15q-37 0 -60 -22q-16 -17 -18 -42q-9 -54 -55 -51q-53 3 -47 66q8 54 47 95q51 55 134 55q73 0 123.5 -47t50.5 -111q0 -73 -72 -136z
M140 374q0 -208 99 -371q19 -35 -17 -56q-38 -23 -62 14q-135 186 -134 413q-1 228 134 413q24 38 62 15q36 -22 17 -56q-99 -165 -99 -372zM843 374q0 207 -99 372q-19 34 17 56q38 23 62 -15q135 -185 134 -413q1 -227 -134 -413q-24 -37 -62 -14q-36 21 -17 56
q99 163 99 371z" />
    <glyph glyph-name="uni2476" unicode="&#x2476;" 
d="M633 150q-26 -25 -64.5 -41t-77.5 -16q-42 0 -79.5 16t-64.5 41q-46 46 -48 92q-1 47 46 50q46 4 57 -39q10 -38 54 -56q17 -7 36 -7q17 0 33.5 7t30.5 19q10 13 16.5 27t7.5 30q0 21 -6 35t-18 29q-13 12 -31 16t-29 4q-20 0 -26 -2h-9q-22 0 -36.5 14t-14.5 33
q0 20 16 35l93 86q-3 -2 -11 -2h-144q-41 0 -41 49q0 51 45 51h245q23 0 39.5 -17t16.5 -41q0 -20 -15 -37l-98 -90q9 0 30 -8t45 -27q31 -26 44.5 -54t13.5 -71q-1 -36 -14.5 -68.5t-41.5 -57.5zM140 374q0 -208 99 -371q19 -35 -17 -56q-38 -23 -62 14q-135 186 -134 413
q-1 228 134 413q24 38 62 15q36 -22 17 -56q-99 -165 -99 -372zM843 374q0 207 -99 372q-19 34 17 56q38 23 62 -15q135 -185 134 -413q1 -227 -134 -413q-24 -37 -62 -14q-36 21 -17 56q99 163 99 371z" />
    <glyph glyph-name="uni2477" unicode="&#x2477;" 
d="M626 199q-9 0 -9 -9v-45q0 -48 -53 -48q-54 0 -54 48v45q0 9 -9 9h-185q-56 0 -56 63q0 22 10 35l230 304q20 30 54 30q63 0 63 -58v-267q0 -9 9 -9h32q43 0 43 -49t-43 -49h-32zM403 300q-2 -3 5 -3h94q8 0 8 8v137q0 8 -2 5zM140 374q0 -208 99 -371q19 -35 -17 -56
q-38 -23 -62 14q-135 186 -134 413q-1 228 134 413q24 38 62 15q36 -22 17 -56q-99 -165 -99 -372zM843 374q0 207 -99 372q-19 34 17 56q38 23 62 -15q135 -185 134 -413q1 -227 -134 -413q-24 -37 -62 -14q-36 21 -17 56q99 163 99 371z" />
    <glyph glyph-name="uni2478" unicode="&#x2478;" 
d="M463 521q-9 0 -10 -2l-20 -72q16 11 55 16q82 10 145 -46q57 -48 58 -134q0 -33 -13 -68.5t-42 -60.5q-61 -61 -139 -61q-83 0 -139 54q-51 46 -56 91t47 53q42 4 56 -33q9 -26 30 -44q30 -22 57 -22q19 0 37.5 7.5t32.5 21.5q9 11 15.5 26.5t5.5 34.5q0 15 -4 32t-17 33
q-15 12 -33 17.5t-37 5.5q-21 0 -34.5 -5.5t-27.5 -12.5q-40 -23 -80 -3.5t-28 79.5l33 128q12 65 58 65h214q45 0 45 -51q0 -49 -43 -49h-166zM140 374q0 -208 99 -371q19 -35 -17 -56q-38 -23 -62 14q-135 186 -134 413q-1 228 134 413q24 38 62 15q36 -22 17 -56
q-99 -165 -99 -372zM843 374q0 207 -99 372q-19 34 17 56q38 23 62 -15q135 -185 134 -413q1 -227 -134 -413q-24 -37 -62 -14q-36 21 -17 56q99 163 99 371z" />
    <glyph glyph-name="uni2479" unicode="&#x2479;" 
d="M577 284q0 34 -25.5 59.5t-59.5 25.5q-35 0 -60 -25.5t-25 -59.5t25 -59.5t60 -25.5q34 0 59.5 25.5t25.5 59.5zM492 460q40 0 77.5 -13.5t64.5 -39.5q29 -24 42.5 -56t13.5 -68t-13.5 -69t-42.5 -59q-27 -23 -64.5 -37t-77.5 -14q-41 0 -78.5 14t-65.5 37q-28 26 -41 59
t-13 69q0 55 18 93l122 232q23 44 69 29q52 -20 26 -74l-57 -104q4 1 11 1h9zM140 374q0 -208 99 -371q19 -35 -17 -56q-38 -23 -62 14q-135 186 -134 413q-1 228 134 413q24 38 62 15q36 -22 17 -56q-99 -165 -99 -372zM843 374q0 207 -99 372q-19 34 17 56q38 23 62 -15
q135 -185 134 -413q1 -227 -134 -413q-24 -37 -62 -14q-36 21 -17 56q99 163 99 371z" />
    <glyph glyph-name="uni247A" unicode="&#x247a;" 
d="M543 522h-192q-43 0 -43 49q0 50 44 50h254q63 0 63 -66q0 -12 -5 -26l-172 -390q-18 -48 -70 -29q-51 19 -26 72zM140 374q0 -208 99 -371q19 -35 -17 -56q-38 -23 -62 14q-135 186 -134 413q-1 228 134 413q24 38 62 15q36 -22 17 -56q-99 -165 -99 -372zM843 374
q0 207 -99 372q-19 34 17 56q38 23 62 -15q135 -185 134 -413q1 -227 -134 -413q-24 -37 -62 -14q-36 21 -17 56q99 163 99 371z" />
    <glyph glyph-name="uni247B" unicode="&#x247b;" 
d="M140 374q0 -208 99 -371q19 -35 -17 -56q-38 -23 -62 14q-135 186 -134 413q-1 228 134 413q24 38 62 15q36 -22 17 -56q-99 -165 -99 -372zM843 374q0 207 -99 372q-19 34 17 56q38 23 62 -15q135 -185 134 -413q1 -227 -134 -413q-24 -37 -62 -14q-36 21 -17 56
q99 163 99 371zM683 257q0 -33 -15.5 -63t-42.5 -51q-26 -23 -60.5 -36t-71.5 -13q-38 0 -72.5 13t-60.5 36q-27 21 -42.5 51t-15.5 63q0 78 84 126q-61 47 -61 104q0 29 14.5 54.5t36.5 45.5q23 21 53.5 32.5t63.5 11.5q31 0 62 -11.5t53 -32.5q22 -20 35.5 -45.5
t13.5 -54.5q0 -57 -58 -103q84 -49 84 -127zM553 488q0 24 -18 41.5t-42 17.5q-25 0 -43 -17.5t-18 -41.5q0 -25 18 -42.5t43 -17.5q24 0 42 17.5t18 42.5zM576 258q0 34 -25.5 57.5t-57.5 23.5q-35 0 -60 -23.5t-25 -57.5q0 -32 25 -55.5t60 -23.5q32 0 57.5 23.5
t25.5 55.5z" />
    <glyph glyph-name="uni247C" unicode="&#x247c;" 
d="M405 452q0 -35 26 -61t62 -26q35 0 60.5 26t25.5 61q0 36 -25.5 62t-60.5 26q-36 0 -62 -26t-26 -62zM493 278q-41 0 -78 14t-64 39q-28 23 -41 54.5t-13 67.5q0 37 13 69t41 57q27 24 64 38t78 14q40 0 77 -14t64 -38q28 -25 41.5 -57t13.5 -69q0 -54 -19 -92l-122 -231
q-22 -44 -66 -28q-50 18 -25 69l59 108q-8 -1 -14.5 -1h-8.5zM140 374q0 -208 99 -371q19 -35 -17 -56q-38 -23 -62 14q-135 186 -134 413q-1 228 134 413q24 38 62 15q36 -22 17 -56q-99 -165 -99 -372zM843 374q0 207 -99 372q-19 34 17 56q38 23 62 -15
q135 -185 134 -413q1 -227 -134 -413q-24 -37 -62 -14q-36 21 -17 56q99 163 99 371z" />
    <glyph glyph-name="uni247D" unicode="&#x247d;" 
d="M140 374q0 -208 99 -371q19 -35 -17 -56q-38 -23 -62 14q-135 186 -134 413q-1 228 134 413q24 38 62 15q36 -22 17 -56q-99 -165 -99 -372zM843 374q0 207 -99 372q-19 34 17 56q38 23 62 -15q135 -185 134 -413q1 -227 -134 -413q-24 -37 -62 -14q-36 21 -17 56
q99 163 99 371zM776 288q0 -78 -30 -117q-52 -67 -140 -67t-139 67q-30 39 -30 117v143q0 77 30 116q51 66 139 66t140 -66q30 -39 30 -116v-143zM675 293v133q-1 40 -6 53q-17 42 -63 42t-64 -42q-5 -14 -5 -55v-130q0 -42 5 -55q18 -43 64 -43t63 43q5 12 6 54zM292 502
q0 12 -13 12h-13q-46 0 -46 44q0 46 46 46h76q21 0 37 -14.5t16 -36.5v-385q0 -52 -53 -52q-50 0 -50 52v334z" />
    <glyph glyph-name="uni247E" unicode="&#x247e;" 
d="M338 502q0 12 -12 12h-32q-46 0 -46 44q0 46 46 46h95q21 0 36.5 -15t15.5 -36v-385q0 -52 -52 -52q-51 0 -51 52v334zM597 502q0 12 -13 12h-33q-46 0 -46 44q0 46 46 46h96q21 0 36.5 -15t15.5 -36v-385q0 -52 -52 -52q-50 0 -50 52v334zM140 374q0 -208 99 -371
q19 -35 -17 -56q-38 -23 -62 14q-135 186 -134 413q-1 228 134 413q24 38 62 15q36 -22 17 -56q-99 -165 -99 -372zM843 374q0 207 -99 372q-19 34 17 56q38 23 62 -15q135 -185 134 -413q1 -227 -134 -413q-24 -37 -62 -14q-36 21 -17 56q99 163 99 371z" />
    <glyph glyph-name="uni247F" unicode="&#x247f;" 
d="M140 374q0 -208 99 -371q19 -35 -17 -56q-38 -23 -62 14q-135 186 -134 413q-1 228 134 413q24 38 62 15q36 -22 17 -56q-99 -165 -99 -372zM843 374q0 207 -99 372q-19 34 17 56q38 23 62 -15q135 -185 134 -413q1 -227 -134 -413q-24 -37 -62 -14q-36 21 -17 56
q99 163 99 371zM584 221q-7 -9 3 -9h113q37 0 37 -45q0 -46 -39 -46h-216q-38 0 -46 32q-11 31 11 54l150 164q38 43 38 87q0 30 -16 46.5t-42 16.5q-28 0 -45 -17q-13 -13 -14 -40q-2 -45 -44 -45q-47 0 -45 59q5 54 36 86q41 47 117 48q67 -1 109 -44t42 -108
q0 -80 -64 -148zM303 502q0 12 -11 12h-24q-46 0 -46 44q0 46 46 46h86q21 0 36.5 -14.5t15.5 -36.5v-385q0 -52 -52 -52q-51 0 -51 52v334z" />
    <glyph glyph-name="uni2480" unicode="&#x2480;" 
d="M140 374q0 -208 99 -371q19 -35 -17 -56q-38 -23 -62 14q-135 186 -134 413q-1 228 134 413q24 38 62 15q36 -22 17 -56q-99 -165 -99 -372zM843 374q0 207 -99 372q-19 34 17 56q38 23 62 -15q135 -185 134 -413q1 -227 -134 -413q-24 -37 -62 -14q-36 21 -17 56
q99 163 99 371zM486 600h199q19 0 34.5 -15.5t15.5 -37.5q0 -18 -14 -34l-86 -88q36 -8 64 -32q59 -47 59 -115q2 -77 -58 -131q-16 -16 -51 -29.5t-69 -13.5q-65 0 -108.5 34t-53.5 89q-7 38 35 48q41 10 54 -28q9 -25 28.5 -39t45.5 -14q30 0 52 20t22 61q0 16 -6 31.5
t-18 28.5q-10 12 -25.5 16.5t-19.5 4.5h-40q-18 0 -31.5 10.5t-13.5 28.5q0 17 14 31l77 84h-106q-46 0 -46 44q0 46 46 46zM288 502q0 12 -12 12h-13q-46 0 -46 44q0 46 46 46h75q22 0 37.5 -14.5t15.5 -36.5v-385q0 -52 -53 -52q-50 0 -50 52v334z" />
    <glyph glyph-name="uni2481" unicode="&#x2481;" 
d="M140 374q0 -208 99 -371q19 -35 -17 -56q-38 -23 -62 14q-135 186 -134 413q-1 228 134 413q24 38 62 15q36 -22 17 -56q-99 -165 -99 -372zM843 374q0 207 -99 372q-19 34 17 56q38 23 62 -15q135 -185 134 -413q1 -227 -134 -413q-24 -37 -62 -14q-36 21 -17 56
q99 163 99 371zM529 298q-4 -7 4 -7h73q8 0 8 8v127q0 9 -5 0zM715 167q0 -51 -49 -51q-52 0 -52 51v24q0 9 -9 9h-136q-56 0 -56 61q0 18 8 33l184 290q19 27 52 27q58 0 58 -57v-254q0 -9 9 -9h17q46 0 46 -43q0 -48 -46 -48h-17q-9 0 -9 -9v-24zM288 502q0 12 -12 12h-13
q-46 0 -46 44q0 46 46 46h75q22 0 37.5 -14.5t15.5 -36.5v-385q0 -52 -53 -52q-50 0 -50 52v334z" />
    <glyph glyph-name="uni2482" unicode="&#x2482;" 
d="M715 514h-149q-6 0 -8 -7l-18 -77q14 13 50 15q81 6 133 -41q54 -50 54 -123q0 -80 -52.5 -128.5t-124.5 -48.5q-77 0 -129 50q-45 41 -48 83q-4 44 44 49q36 4 49 -31q7 -22 26 -40q22 -20 53 -20q13 0 31.5 7t30.5 20q21 26 21 58q0 34 -26 60q-24 19 -56 19
q-20 0 -33 -4t-27 -11q-36 -20 -73 -2.5t-26 71.5l29 134q13 58 53 58h196q47 0 47 -48q0 -43 -47 -43zM287 502q0 12 -12 12h-13q-46 0 -46 44q0 46 46 46h75q22 0 37.5 -15t15.5 -36v-385q0 -52 -53 -52q-50 0 -50 52v334zM140 374q0 -208 99 -371q19 -35 -17 -56
q-38 -23 -62 14q-135 186 -134 413q-1 228 134 413q24 38 62 15q36 -22 17 -56q-99 -165 -99 -372zM843 374q0 207 -99 372q-19 34 17 56q38 23 62 -15q135 -185 134 -413q1 -227 -134 -413q-24 -37 -62 -14q-36 21 -17 56q99 163 99 371z" />
    <glyph glyph-name="uni2483" unicode="&#x2483;" 
d="M307 131v384h-76v79h164v-463h-88zM579 426q20 3 34 3q63 -1 105 -42q47 -41 47 -110q0 -74 -57 -119q-45 -37 -115 -37q-78 0 -124 45q-46 46 -46 110q0 37 16 75q14 34 42 77l130 188l75 -50zM679 277q0 35 -24.5 56.5t-61.5 21.5t-61.5 -21.5t-24.5 -56.5
q0 -34 24.5 -56.5t61.5 -22.5t61 22.5t25 56.5zM709 -37q72 114 99 207.5t27 203.5q0 109 -27 202t-99 207h80q141 -176 141 -409q0 -237 -142 -411h-79zM276 -37h-78q-143 174 -143 411q0 233 142 409h79q-72 -114 -99 -207t-27 -202q0 -110 27 -203.5t99 -207.5z" />
    <glyph glyph-name="uni2484" unicode="&#x2484;" 
d="M307 131v384h-76v79h164v-463h-88zM486 150l146 366h-201v78h325l-188 -474zM709 -37q72 114 99 207.5t27 203.5q0 109 -27 202t-99 207h80q141 -176 141 -409q0 -237 -142 -411h-79zM276 -37h-78q-143 174 -143 411q0 233 142 409h79q-72 -114 -99 -207t-27 -202
q0 -110 27 -203.5t99 -207.5z" />
    <glyph glyph-name="uni2485" unicode="&#x2485;" 
d="M307 131v384h-76v79h164v-463h-88zM673 269q0 16 -6.5 28.5t-17.5 22.5q-10 9 -24.5 15.5t-29.5 6.5q-17 0 -31.5 -6.5t-24.5 -15.5q-11 -10 -17.5 -22.5t-6.5 -28.5q0 -14 6.5 -26.5t17.5 -20.5q10 -10 24.5 -16.5t31.5 -6.5q15 0 29.5 6.5t24.5 16.5q11 8 17.5 20.5
t6.5 26.5zM758 269q0 -28 -13 -56t-35 -49q-23 -19 -53 -31t-62 -12q-34 0 -64 12t-52 31q-22 21 -35 49t-13 56q0 31 13 57.5t35 44.5q5 5 11 9q-20 18 -32 41q-13 23 -13 50q0 29 12.5 53.5t32.5 41.5q19 20 46.5 30t58.5 10q29 0 56.5 -10t47.5 -30q20 -17 32.5 -41.5
t12.5 -53.5q0 -27 -12 -50q-13 -23 -33 -41q6 -4 11 -9q22 -18 35 -44.5t13 -57.5zM657 471q0 24 -18.5 41t-43.5 17q-27 0 -45.5 -17t-18.5 -41q0 -22 18.5 -38.5t45.5 -16.5q25 0 43.5 16.5t18.5 38.5zM709 -37q72 114 99 207.5t27 203.5q0 109 -27 202t-99 207h80
q141 -176 141 -409q0 -237 -142 -411h-79zM276 -37h-78q-143 174 -143 411q0 233 142 409h79q-72 -114 -99 -207t-27 -202q0 -110 27 -203.5t99 -207.5z" />
    <glyph glyph-name="uni2486" unicode="&#x2486;" 
d="M307 131v384h-76v79h164v-463h-88zM614 302q-8 -4 -40 -3q-61 2 -104 44q-48 41 -48 108q0 74 58 117q44 38 113 38q79 0 125 -46q45 -44 45 -108q0 -37 -14 -73q-12 -36 -40 -80l-135 -187l-72 48zM679 451q0 15 -6 29.5t-19 25.5q-11 11 -27.5 17t-33.5 6t-33.5 -6
t-27.5 -17q-13 -11 -19 -25.5t-6 -29.5q0 -17 6 -32t19 -26q11 -10 27.5 -15.5t33.5 -5.5t33.5 5.5t27.5 15.5q13 11 19 26t6 32zM709 -37q72 114 99 207.5t27 203.5q0 109 -27 202t-99 207h80q141 -176 141 -409q0 -237 -142 -411h-79zM276 -37h-78q-143 174 -143 411
q0 233 142 409h79q-72 -114 -99 -207t-27 -202q0 -110 27 -203.5t99 -207.5z" />
    <glyph glyph-name="uni2487" unicode="&#x2487;" 
d="M498 230v-78h-276l146 217q44 66 44 107q0 30 -9 46q-16 25 -42 23q-20 -1 -35 -24q-14 -19 -19 -78h-80q6 95 41 135q34 44 91 45q63 1 101 -43q32 -39 32 -101q-2 -58 -57 -145q-37 -60 -69 -104h132zM784 312q0 -76 -25 -112q-41 -61 -111 -61q-71 0 -110 61
q-25 36 -25 112v137q0 74 25 111q39 63 110 63q70 0 111 -63q25 -37 25 -111v-137zM704 315v131q0 40 -4 53q-15 46 -52 46t-51 -46q-4 -14 -4 -53v-131q0 -40 4 -54q14 -44 51 -44t52 44q4 14 4 54zM709 -37q72 114 99 207.5t27 203.5q0 109 -27 202t-99 207h80
q141 -176 141 -409q0 -237 -142 -411h-79zM276 -37h-78q-143 174 -143 411q0 233 142 409h79q-72 -114 -99 -207t-27 -202q0 -110 27 -203.5t99 -207.5z" />
    <glyph glyph-name="uni249C" unicode="&#x249c;" 
d="M353 363q0 -56 36 -93.5t90 -37.5q50 0 85 37.5t35 90.5q0 55 -35 93.5t-87 38.5t-88 -37t-36 -92zM598 552q0 41 58 41q57 0 57 -46v-369q0 -45 -57 -45q-58 0 -58 37q-46 -37 -129 -37q-95 0 -163 65.5t-68 164.5q0 46 17.5 88t48.5 72q34 36 76 53.5t86 17.5
q86 0 132 -42zM140 374q0 -208 99 -371q19 -35 -17 -56q-38 -23 -62 14q-135 186 -134 413q-1 228 134 413q24 38 62 15q36 -22 17 -56q-99 -165 -99 -372zM843 374q0 207 -99 372q-19 34 17 56q38 23 62 -15q135 -185 134 -413q1 -227 -134 -413q-24 -37 -62 -14
q-36 21 -17 56q99 163 99 371z" />
    <glyph glyph-name="uni249D" unicode="&#x249d;" 
d="M140 374q0 -208 99 -371q19 -35 -17 -56q-38 -23 -62 14q-135 186 -134 413q-1 228 134 413q24 38 62 15q36 -22 17 -56q-99 -165 -99 -372zM843 374q0 207 -99 372q-19 34 17 56q38 23 62 -15q135 -185 134 -413q1 -227 -134 -413q-24 -37 -62 -14q-36 21 -17 56
q99 163 99 371zM407 126q0 -40 -58 -40q-57 0 -57 47v477q0 54 58 54q57 0 57 -52v-111q51 44 131 44q45 0 86 -18t75 -53q32 -32 47.5 -70t15.5 -85q0 -100 -66 -164t-162 -64q-76 0 -127 36v-1zM656 316q0 50 -37 87t-89 37q-51 0 -88.5 -37t-37.5 -87q0 -51 37.5 -87.5
t88.5 -36.5q52 0 89 36.5t37 87.5z" />
    <glyph glyph-name="uni249E" unicode="&#x249e;" 
d="M253 366q0 98 72 167t173 69q128 0 197 -101q29 -44 -15 -73q-43 -31 -74 15q-41 54 -108 54q-58 0 -92.5 -39.5t-35.5 -91.5q1 -52 35.5 -91t92.5 -39q67 0 108 57q31 46 74 15q43 -30 15 -73q-69 -104 -197 -104q-101 0 -173 69t-72 166zM140 374q0 -208 99 -371
q19 -35 -17 -56q-38 -23 -62 14q-135 186 -134 413q-1 228 134 413q24 38 62 15q36 -22 17 -56q-99 -165 -99 -372zM843 374q0 207 -99 372q-19 34 17 56q38 23 62 -15q135 -185 134 -413q1 -227 -134 -413q-24 -37 -62 -14q-36 21 -17 56q99 163 99 371z" />
    <glyph glyph-name="uni249F" unicode="&#x249f;" 
d="M140 374q0 -208 99 -371q19 -35 -17 -56q-38 -23 -62 14q-135 186 -134 413q-1 228 134 413q24 38 62 15q36 -22 17 -56q-99 -165 -99 -372zM843 374q0 207 -99 372q-19 34 17 56q38 23 62 -15q135 -185 134 -413q1 -227 -134 -413q-24 -37 -62 -14q-36 21 -17 56
q99 163 99 371zM579 126v1q-51 -36 -127 -36q-96 0 -162 64t-66 164q0 47 15.5 85t47.5 70q34 35 75 53t86 18q80 0 131 -44v111q0 52 57 52q59 0 59 -54v-477q0 -47 -58 -47t-58 40zM330 316q0 -51 37 -87.5t89 -36.5q51 0 88.5 36.5t37.5 87.5q0 50 -37.5 87t-88.5 37
q-52 0 -89 -37t-37 -87z" />
    <glyph glyph-name="uni24A0" unicode="&#x24a0;" 
d="M609 416q-8 31 -38.5 54.5t-75.5 23.5q-43 0 -73.5 -24t-38.5 -54h226zM683 217q-70 -87 -189 -87q-104 0 -169.5 71.5t-65.5 161.5q0 94 70 164t165 70q96 0 164 -68.5t68 -146.5q0 -23 -18 -41t-56 -18h-274q3 -36 35.5 -62.5t81.5 -26.5q72 0 114 53q28 39 72 6
q38 -29 2 -76zM140 374q0 -208 99 -371q19 -35 -17 -56q-38 -23 -62 14q-135 186 -134 413q-1 228 134 413q24 38 62 15q36 -22 17 -56q-99 -165 -99 -372zM843 374q0 207 -99 372q-19 34 17 56q38 23 62 -15q135 -185 134 -413q1 -227 -134 -413q-24 -37 -62 -14
q-36 21 -17 56q99 163 99 371z" />
    <glyph glyph-name="uni24A1" unicode="&#x24a1;" 
d="M515 139q0 -53 -56 -53q-58 0 -58 53v246q0 10 -10 10h-20q-43 0 -43 48q0 46 43 46h20q10 0 10 10v25q0 130 150 130h9q48 0 48 -47q0 -49 -46 -49h-8q-39 0 -39 -32v-28q0 -9 10 -9h41q42 0 42 -46q0 -48 -42 -48h-41q-10 0 -10 -10v-246zM140 374q0 -208 99 -371
q19 -35 -17 -56q-38 -23 -62 14q-135 186 -134 413q-1 228 134 413q24 38 62 15q36 -22 17 -56q-99 -165 -99 -372zM843 374q0 207 -99 372q-19 34 17 56q38 23 62 -15q135 -185 134 -413q1 -227 -134 -413q-24 -37 -62 -14q-36 21 -17 56q99 163 99 371z" />
    <glyph glyph-name="uni24A2" unicode="&#x24a2;" 
d="M140 374q0 -208 99 -371q19 -35 -17 -56q-38 -23 -62 14q-135 186 -134 413q-1 228 134 413q24 38 62 15q36 -22 17 -56q-99 -165 -99 -372zM843 374q0 207 -99 372q-19 34 17 56q38 23 62 -15q135 -185 134 -413q1 -227 -134 -413q-24 -37 -62 -14q-36 21 -17 56
q99 163 99 371zM363 203q21 -26 44 -36t60 -10q59 0 92 28t33 60v12q-56 -45 -123 -45q-91 0 -156.5 64t-65.5 158q0 45 17 83t46 69q32 36 72 52.5t84 16.5q70 0 124 -43v1q0 39 55 39q56 0 56 -45v-331q0 -90 -60.5 -154t-167.5 -64q-69 0 -112 22t-72 54q-31 44 9 75
q31 25 65 -6zM360 434q0 -56 33.5 -88t82.5 -32q47 0 81 32t34 83q0 55 -34 88.5t-82 33.5t-81.5 -32t-33.5 -85z" />
    <glyph glyph-name="uni24A3" unicode="&#x24a3;" 
d="M140 374q0 -208 99 -371q19 -35 -17 -56q-38 -23 -62 14q-135 186 -134 413q-1 228 134 413q24 38 62 15q36 -22 17 -56q-99 -165 -99 -372zM843 374q0 207 -99 372q-19 34 17 56q38 23 62 -15q135 -185 134 -413q1 -227 -134 -413q-24 -37 -62 -14q-36 21 -17 56
q99 163 99 371zM297 141v459q0 54 59 54q60 0 60 -50v-118q36 29 98 29q80 0 133.5 -49.5t53.5 -131.5v-193q0 -55 -59 -55q-61 0 -61 54v161q0 64 -21 86t-56 22q-20 0 -41 -11.5t-33 -32.5q-6 -14 -10 -34t-4 -74v-116q0 -55 -59 -55q-60 0 -60 55z" />
    <glyph glyph-name="uni24A4" unicode="&#x24a4;" 
d="M434 141v293q0 54 58 54q57 0 57 -54v-293q0 -55 -57 -55q-58 0 -58 55zM559 589q0 -27 -20.5 -46.5t-46.5 -19.5q-27 0 -47.5 19.5t-20.5 46.5q0 26 20.5 45.5t47.5 19.5q26 0 46.5 -19.5t20.5 -45.5zM140 374q0 -208 99 -371q19 -35 -17 -56q-38 -23 -62 14
q-135 186 -134 413q-1 228 134 413q24 38 62 15q36 -22 17 -56q-99 -165 -99 -372zM843 374q0 207 -99 372q-19 34 17 56q38 23 62 -15q135 -185 134 -413q1 -227 -134 -413q-24 -37 -62 -14q-36 21 -17 56q99 163 99 371z" />
    <glyph glyph-name="uni24A5" unicode="&#x24a5;" 
d="M419 43q-51 0 -51 51q0 53 46 53q43 0 43 55v244q0 52 55 52q59 0 59 -53v-263q0 -140 -152 -139zM580 599q0 -27 -20 -46t-48 -19q-27 0 -46.5 19t-19.5 46q0 26 19.5 45.5t46.5 19.5q28 0 48 -19.5t20 -45.5zM140 374q0 -208 99 -371q19 -35 -17 -56q-38 -23 -62 14
q-135 186 -134 413q-1 228 134 413q24 38 62 15q36 -22 17 -56q-99 -165 -99 -372zM843 374q0 207 -99 372q-19 34 17 56q38 23 62 -15q135 -185 134 -413q1 -227 -134 -413q-24 -37 -62 -14q-36 21 -17 56q99 163 99 371z" />
    <glyph glyph-name="uni24A6" unicode="&#x24a6;" 
d="M140 374q0 -208 99 -371q19 -35 -17 -56q-38 -23 -62 14q-135 186 -134 413q-1 228 134 413q24 38 62 15q36 -22 17 -56q-99 -165 -99 -372zM843 374q0 207 -99 372q-19 34 17 56q38 23 62 -15q135 -185 134 -413q1 -227 -134 -413q-24 -37 -62 -14q-36 21 -17 56
q99 163 99 371zM518 328q-2 -2 0 -5l134 -137q51 -41 15 -82q-36 -39 -81 0l-168 169v-132q0 -55 -57 -55q-59 0 -59 55v459q0 54 58 54t58 -52v-216q0 -9 -2 -11l178 153q40 33 75 -2q39 -41 -10 -81z" />
    <glyph glyph-name="uni24A7" unicode="&#x24a7;" 
d="M434 141v459q0 54 58 54q57 0 57 -54v-459q0 -55 -57 -55q-58 0 -58 55zM140 374q0 -208 99 -371q19 -35 -17 -56q-38 -23 -62 14q-135 186 -134 413q-1 228 134 413q24 38 62 15q36 -22 17 -56q-99 -165 -99 -372zM843 374q0 207 -99 372q-19 34 17 56q38 23 62 -15
q135 -185 134 -413q1 -227 -134 -413q-24 -37 -62 -14q-36 21 -17 56q99 163 99 371z" />
    <glyph glyph-name="uni24A8" unicode="&#x24a8;" 
d="M140 374q0 -208 99 -371q19 -35 -17 -56q-38 -23 -62 14q-135 186 -134 413q-1 228 134 413q24 38 62 15q36 -22 17 -56q-99 -165 -99 -372zM843 374q0 207 -99 372q-19 34 17 56q38 23 62 -15q135 -185 134 -413q1 -227 -134 -413q-24 -37 -62 -14q-36 21 -17 56
q99 163 99 371zM499 530q11 21 35 40t74 19q72 0 114 -42.5t42 -120.5v-233q0 -53 -57 -53t-57 52v214q0 53 -12.5 70t-38.5 17q-31 0 -40.5 -23.5t-10.5 -93.5v-184q0 -52 -54 -52q-56 0 -56 51v184q0 76 -11.5 97t-41.5 21q-33 0 -41 -26.5t-8 -96.5v-178q0 -52 -55 -52
q-58 0 -58 53v356q0 42 55 42q53 0 53 -34v-1q8 33 66 33q38 0 65 -15.5t37 -43.5z" />
    <glyph glyph-name="uni24A9" unicode="&#x24a9;" 
d="M575 186v198q0 67 -25 86.5t-55 19.5q-26 0 -55 -27t-29 -114v-163q0 -53 -57 -53q-58 0 -58 54v363q0 44 57 44q55 0 55 -36v-3q31 37 96 37q76 0 131.5 -46.5t55.5 -138.5v-220q0 -54 -58 -54t-58 53zM140 374q0 -208 99 -371q19 -35 -17 -56q-38 -23 -62 14
q-135 186 -134 413q-1 228 134 413q24 38 62 15q36 -22 17 -56q-99 -165 -99 -372zM843 374q0 207 -99 372q-19 34 17 56q38 23 62 -15q135 -185 134 -413q1 -227 -134 -413q-24 -37 -62 -14q-36 21 -17 56q99 163 99 371z" />
    <glyph glyph-name="uni24AA" unicode="&#x24aa;" 
d="M373 367q0 -57 34.5 -92.5t87.5 -35.5q52 0 86.5 35.5t34.5 92.5q0 56 -34.5 92t-86.5 36q-53 0 -87.5 -36.5t-34.5 -91.5zM252 367q0 45 18.5 86t50.5 71q35 36 79.5 56.5t91.5 20.5t90.5 -18.5t79.5 -49.5q34 -35 52 -76.5t18 -87.5q0 -42 -17 -85.5t-48 -75.5
q-35 -37 -79.5 -56t-92.5 -19q-50 0 -93 17.5t-77 51.5q-32 34 -52.5 76.5t-20.5 88.5zM140 374q0 -208 99 -371q19 -35 -17 -56q-38 -23 -62 14q-135 186 -134 413q-1 228 134 413q24 38 62 15q36 -22 17 -56q-99 -165 -99 -372zM843 374q0 207 -99 372q-19 34 17 56
q38 23 62 -15q135 -185 134 -413q1 -227 -134 -413q-24 -37 -62 -14q-36 21 -17 56q99 163 99 371z" />
    <glyph glyph-name="uni24AB" unicode="&#x24ab;" 
d="M652 420q0 27 -10 50.5t-29 40.5q-15 19 -39 29.5t-51 10.5q-25 0 -48.5 -10.5t-41.5 -29.5q-18 -17 -27 -40.5t-9 -50.5q0 -26 9 -49t27 -41q18 -17 41.5 -27.5t48.5 -10.5q27 0 51 10.5t39 27.5q19 18 29 41t10 49zM399 235v-98q0 -52 -59 -52q-58 0 -58 55v464
q0 46 57 46q61 0 61 -39v-3q50 44 125 44q96 0 164.5 -66.5t68.5 -165.5q0 -97 -68.5 -163.5t-164.5 -66.5q-75 0 -126 45zM140 374q0 -208 99 -371q19 -35 -17 -56q-38 -23 -62 14q-135 186 -134 413q-1 228 134 413q24 38 62 15q36 -22 17 -56q-99 -165 -99 -372zM843 374
q0 207 -99 372q-19 34 17 56q38 23 62 -15q135 -185 134 -413q1 -227 -134 -413q-24 -37 -62 -14q-36 21 -17 56q99 163 99 371z" />
    <glyph glyph-name="uni24AC" unicode="&#x24ac;" 
d="M333 420q0 -26 10 -49t29 -41q16 -17 39.5 -27.5t50.5 -10.5q26 0 49 10.5t41 27.5q18 18 27.5 41t9.5 49q0 27 -9.5 50.5t-27.5 40.5q-18 19 -41 29.5t-49 10.5q-27 0 -50.5 -10.5t-39.5 -29.5q-19 -17 -29 -40.5t-10 -50.5zM587 235q-52 -45 -127 -45
q-96 0 -164.5 66.5t-68.5 163.5q0 99 68.5 165.5t164.5 66.5q75 0 126 -44v3q0 39 60 39q57 0 57 -46v-464q0 -55 -58 -55t-58 52v98zM140 374q0 -208 99 -371q19 -35 -17 -56q-38 -23 -62 14q-135 186 -134 413q-1 228 134 413q24 38 62 15q36 -22 17 -56
q-99 -165 -99 -372zM843 374q0 207 -99 372q-19 34 17 56q38 23 62 -15q135 -185 134 -413q1 -227 -134 -413q-24 -37 -62 -14q-36 21 -17 56q99 163 99 371z" />
    <glyph glyph-name="uni24AD" unicode="&#x24ad;" 
d="M140 374q0 -208 99 -371q19 -35 -17 -56q-38 -23 -62 14q-135 186 -134 413q-1 228 134 413q24 38 62 15q36 -22 17 -56q-99 -165 -99 -372zM843 374q0 207 -99 372q-19 34 17 56q38 23 62 -15q135 -185 134 -413q1 -227 -134 -413q-24 -37 -62 -14q-36 21 -17 56
q99 163 99 371zM599 485h-10q-55 -5 -72.5 -26.5t-17.5 -83.5v-189q0 -53 -58 -53t-58 54v364q0 43 56 43q55 0 55 -34v-1q6 9 30 21t66 12h9q52 0 52 -53q0 -54 -52 -54z" />
    <glyph glyph-name="uni24AE" unicode="&#x24ae;" 
d="M140 374q0 -208 99 -371q19 -35 -17 -56q-38 -23 -62 14q-135 186 -134 413q-1 228 134 413q24 38 62 15q36 -22 17 -56q-99 -165 -99 -372zM843 374q0 207 -99 372q-19 34 17 56q38 23 62 -15q135 -185 134 -413q1 -227 -134 -413q-24 -37 -62 -14q-36 21 -17 56
q99 163 99 371zM320 237q-23 54 29 69q43 11 63 -25q23 -48 77 -48q38 0 56.5 11.5t18.5 35.5q0 38 -98 60q-143 28 -143 124q0 59 44 99t125 40q112 0 153 -81q28 -52 -14 -68q-44 -15 -64 18q-22 39 -76 39q-35 0 -49 -12t-14 -32q0 -29 78 -49q162 -36 162 -135
q0 -69 -51.5 -105.5t-127.5 -36.5q-120 0 -169 96z" />
    <glyph glyph-name="uni24AF" unicode="&#x24af;" 
d="M549 400v-260q0 -54 -57 -54q-58 0 -58 54v260q0 10 -10 10h-48q-45 0 -45 48q0 49 45 49h48q10 0 10 10v85q0 53 58 53q57 0 57 -53v-85q0 -10 10 -10h44q45 0 45 -49q0 -48 -44 -48h-45q-10 0 -10 -10zM140 374q0 -208 99 -371q19 -35 -17 -56q-38 -23 -62 14
q-135 186 -134 413q-1 228 134 413q24 38 62 15q36 -22 17 -56q-99 -165 -99 -372zM843 374q0 207 -99 372q-19 34 17 56q38 23 62 -15q135 -185 134 -413q1 -227 -134 -413q-24 -37 -62 -14q-36 21 -17 56q99 163 99 371z" />
    <glyph glyph-name="uni24B0" unicode="&#x24b0;" 
d="M411 541v-198q0 -67 25 -86.5t56 -19.5q25 0 54 27t29 114v163q0 53 57 53q59 0 59 -54v-363q0 -44 -58 -44q-55 0 -55 34v3q-31 -35 -96 -35q-76 0 -131 46.5t-55 137.5v221q0 54 57 54q58 0 58 -53zM140 374q0 -208 99 -371q19 -35 -17 -56q-38 -23 -62 14
q-135 186 -134 413q-1 228 134 413q24 38 62 15q36 -22 17 -56q-99 -165 -99 -372zM843 374q0 207 -99 372q-19 34 17 56q38 23 62 -15q135 -185 134 -413q1 -227 -134 -413q-24 -37 -62 -14q-36 21 -17 56q99 163 99 371z" />
    <glyph glyph-name="uni24B1" unicode="&#x24b1;" 
d="M489 317q3 -8 6 0l87 239q19 49 71 33q54 -17 33 -69l-137 -345q-18 -42 -57 -42q-41 0 -58 42l-136 345q-22 52 31 69q53 16 72 -33zM140 374q0 -208 99 -371q19 -35 -17 -56q-38 -23 -62 14q-135 186 -134 413q-1 228 134 413q24 38 62 15q36 -22 17 -56
q-99 -165 -99 -372zM843 374q0 207 -99 372q-19 34 17 56q38 23 62 -15q135 -185 134 -413q1 -227 -134 -413q-24 -37 -62 -14q-36 21 -17 56q99 163 99 371z" />
    <glyph glyph-name="uni24B2" unicode="&#x24b2;" 
d="M497 382q-5 16 -9 0l-73 -214q-12 -35 -45 -35q-34 0 -47 35l-109 352q-16 51 35 68q51 14 68 -35l56 -204q4 -13 7 0l67 190q10 35 45 35q34 0 44 -35l67 -190q5 -13 8 0l56 204q18 49 67 35q52 -17 36 -68l-109 -352q-14 -35 -48 -35q-32 0 -44 35zM140 374
q0 -208 99 -371q19 -35 -17 -56q-38 -23 -62 14q-135 186 -134 413q-1 228 134 413q24 38 62 15q36 -22 17 -56q-99 -165 -99 -372zM843 374q0 207 -99 372q-19 34 17 56q38 23 62 -15q135 -185 134 -413q1 -227 -134 -413q-24 -37 -62 -14q-36 21 -17 56q99 163 99 371z
" />
    <glyph glyph-name="uni24B3" unicode="&#x24b3;" 
d="M140 374q0 -208 99 -371q19 -35 -17 -56q-38 -23 -62 14q-135 186 -134 413q-1 228 134 413q24 38 62 15q36 -22 17 -56q-99 -165 -99 -372zM843 374q0 207 -99 372q-19 34 17 56q38 23 62 -15q135 -185 134 -413q1 -227 -134 -413q-24 -37 -62 -14q-36 21 -17 56
q99 163 99 371zM493 446l99 121q34 44 72 17q44 -34 13 -74l-117 -143q-3 -3 0 -7l114 -140q31 -40 -5 -71q-41 -37 -75 8l-101 125q-1 1 -2 0l-101 -125q-36 -45 -77 -8q-35 31 -4 71l114 140q3 4 0 7l-117 143q-31 41 13 74q38 27 73 -17l99 -121q1 -1 2 0z" />
    <glyph glyph-name="uni24B4" unicode="&#x24b4;" 
d="M703 537l-221 -449q-24 -53 -75 -32q-56 24 -31 77l54 112q3 6 -1 12l-146 280q-26 63 26 82t71 -27l110 -221q2 -5 4 0l109 218q20 49 74 30q50 -19 26 -82zM140 374q0 -208 99 -371q19 -35 -17 -56q-38 -23 -62 14q-135 186 -134 413q-1 228 134 413q24 38 62 15
q36 -22 17 -56q-99 -165 -99 -372zM843 374q0 207 -99 372q-19 34 17 56q38 23 62 -15q135 -185 134 -413q1 -227 -134 -413q-24 -37 -62 -14q-36 21 -17 56q99 163 99 371z" />
    <glyph glyph-name="uni24B5" unicode="&#x24b5;" 
d="M373 133q-48 0 -62 39q-13 44 13 78l199 234q1 1 -8 1h-152q-44 0 -44 50q0 49 46 49h222q51 0 68 -32q22 -42 -10 -81l-202 -235q-2 -2 8 -2h179q45 0 45 -51q0 -50 -47 -50h-255zM140 374q0 -208 99 -371q19 -35 -17 -56q-38 -23 -62 14q-135 186 -134 413
q-1 228 134 413q24 38 62 15q36 -22 17 -56q-99 -165 -99 -372zM843 374q0 207 -99 372q-19 34 17 56q38 23 62 -15q135 -185 134 -413q1 -227 -134 -413q-24 -37 -62 -14q-36 21 -17 56q99 163 99 371z" />
    <glyph glyph-name="uni24B6" unicode="&#x24b6;" 
d="M850 373q0 74 -28.5 139t-76.5 114q-48 47 -113.5 76t-138.5 29q-74 0 -139 -29t-114 -76q-47 -49 -76 -114t-29 -139q0 -73 29 -138.5t76 -113.5q49 -48 114 -76.5t139 -28.5q73 0 138.5 28.5t113.5 76.5t76.5 113.5t28.5 138.5zM939 373q0 -91 -35 -171.5t-97 -141.5
q-60 -58 -141.5 -93.5t-172.5 -35.5q-92 0 -173.5 35.5t-141.5 93.5q-62 61 -97 141.5t-35 171.5t35 172t97 141q60 59 141.5 94.5t173.5 35.5q91 0 172.5 -35.5t141.5 -94.5q62 -60 97 -141t35 -172zM437 366h115l-57 130zM640 167l-52 118h-187l-52 -118h-101l214 466h66
l213 -466h-101z" />
    <glyph glyph-name="uni24B7" unicode="&#x24b7;" 
d="M850 373q0 74 -28.5 139t-76.5 114q-48 47 -113.5 76t-138.5 29q-74 0 -139 -29t-114 -76q-47 -49 -76 -114t-29 -139q0 -73 29 -138.5t76 -113.5q49 -48 114 -76.5t139 -28.5q73 0 138.5 28.5t113.5 76.5t76.5 113.5t28.5 138.5zM939 373q0 -91 -35 -171.5t-97 -141.5
q-60 -58 -141.5 -93.5t-172.5 -35.5q-92 0 -173.5 35.5t-141.5 93.5q-62 61 -97 141.5t-35 171.5t35 172t97 141q60 59 141.5 94.5t173.5 35.5q91 0 172.5 -35.5t141.5 -94.5q62 -60 97 -141t35 -172zM445 420h27q34 0 55 5q37 8 37 45q0 43 -45 50q-21 4 -47 4h-27v-104z
M445 223h32q59 0 78 11q13 8 20 20.5t7 27.5q0 18 -8 30.5t-25 19.5q-22 11 -71 11h-33v-120zM353 141v464h127q90 0 122 -22q52 -37 52 -107q0 -66 -38 -88q60 -18 60 -110q0 -62 -44 -101q-22 -20 -52 -29q-29 -7 -99 -7h-128z" />
    <glyph glyph-name="uni24B8" unicode="&#x24b8;" 
d="M850 373q0 74 -28.5 139t-76.5 114q-48 47 -113.5 76t-138.5 29q-74 0 -139 -29t-114 -76q-47 -49 -76 -114t-29 -139q0 -73 29 -138.5t76 -113.5q49 -48 114 -76.5t139 -28.5q73 0 138.5 28.5t113.5 76.5t76.5 113.5t28.5 138.5zM939 373q0 -91 -35 -171.5t-97 -141.5
q-60 -58 -141.5 -93.5t-172.5 -35.5q-92 0 -173.5 35.5t-141.5 93.5q-62 61 -97 141.5t-35 171.5t35 172t97 141q60 59 141.5 94.5t173.5 35.5q91 0 172.5 -35.5t141.5 -94.5q62 -60 97 -141t35 -172zM349 375q0 -68 45.5 -114.5t126.5 -46.5q61 1 125 42l36 -78
q-81 -47 -169 -47q-107 0 -181 66q-38 36 -56 82t-18 96q0 51 18 97t56 81q74 67 181 67q88 0 169 -48l-36 -77q-64 40 -125 41q-81 0 -126.5 -45.5t-45.5 -115.5z" />
    <glyph glyph-name="uni24B9" unicode="&#x24b9;" 
d="M850 373q0 74 -28.5 139t-76.5 114q-48 47 -113.5 76t-138.5 29q-74 0 -139 -29t-114 -76q-47 -49 -76 -114t-29 -139q0 -73 29 -138.5t76 -113.5q49 -48 114 -76.5t139 -28.5q73 0 138.5 28.5t113.5 76.5t76.5 113.5t28.5 138.5zM939 373q0 -91 -35 -171.5t-97 -141.5
q-60 -58 -141.5 -93.5t-172.5 -35.5q-92 0 -173.5 35.5t-141.5 93.5q-62 61 -97 141.5t-35 171.5t35 172t97 141q60 59 141.5 94.5t173.5 35.5q91 0 172.5 -35.5t141.5 -94.5q62 -60 97 -141t35 -172zM653 375q0 38 -14.5 70t-40.5 49q-46 31 -118 31h-67v-299h67
q72 0 118 29q27 18 41 49.5t14 70.5zM745 375q0 -122 -91 -189q-58 -43 -211 -43h-122v464h122q153 0 211 -44q91 -66 91 -188z" />
    <glyph glyph-name="uni24BA" unicode="&#x24ba;" 
d="M850 373q0 74 -28.5 139t-76.5 114q-48 47 -113.5 76t-138.5 29q-74 0 -139 -29t-114 -76q-47 -49 -76 -114t-29 -139q0 -73 29 -138.5t76 -113.5q49 -48 114 -76.5t139 -28.5q73 0 138.5 28.5t113.5 76.5t76.5 113.5t28.5 138.5zM939 373q0 -91 -35 -171.5t-97 -141.5
q-60 -58 -141.5 -93.5t-172.5 -35.5q-92 0 -173.5 35.5t-141.5 93.5q-62 61 -97 141.5t-35 171.5t35 172t97 141q60 59 141.5 94.5t173.5 35.5q91 0 172.5 -35.5t141.5 -94.5q62 -60 97 -141t35 -172zM351 141v464h298v-82h-206v-101h206v-80h-206v-118h206v-83h-298z" />
    <glyph glyph-name="uni24BB" unicode="&#x24bb;" 
d="M850 373q0 74 -28.5 139t-76.5 114q-48 47 -113.5 76t-138.5 29q-74 0 -139 -29t-114 -76q-47 -49 -76 -114t-29 -139q0 -73 29 -138.5t76 -113.5q49 -48 114 -76.5t139 -28.5q73 0 138.5 28.5t113.5 76.5t76.5 113.5t28.5 138.5zM939 373q0 -91 -35 -171.5t-97 -141.5
q-60 -58 -141.5 -93.5t-172.5 -35.5q-92 0 -173.5 35.5t-141.5 93.5q-62 61 -97 141.5t-35 171.5t35 172t97 141q60 59 141.5 94.5t173.5 35.5q91 0 172.5 -35.5t141.5 -94.5q62 -60 97 -141t35 -172zM352 138v464h298v-82h-206v-99h204v-80h-204v-203h-92z" />
    <glyph glyph-name="uni24BC" unicode="&#x24bc;" 
d="M850 373q0 74 -28.5 139t-76.5 114q-48 47 -113.5 76t-138.5 29q-74 0 -139 -29t-114 -76q-47 -49 -76 -114t-29 -139q0 -73 29 -138.5t76 -113.5q49 -48 114 -76.5t139 -28.5q73 0 138.5 28.5t113.5 76.5t76.5 113.5t28.5 138.5zM939 373q0 -91 -35 -171.5t-97 -141.5
q-60 -58 -141.5 -93.5t-172.5 -35.5q-92 0 -173.5 35.5t-141.5 93.5q-62 61 -97 141.5t-35 171.5t35 172t97 141q60 59 141.5 94.5t173.5 35.5q91 0 172.5 -35.5t141.5 -94.5q62 -60 97 -141t35 -172zM634 470q-33 36 -66.5 50t-67.5 14q-32 0 -61.5 -13t-51.5 -35
t-34.5 -51.5t-12.5 -61.5q0 -31 12.5 -61t34.5 -52q22 -21 51.5 -34t61.5 -13q34 0 63.5 13t50.5 33q32 33 32 59v6h-135v80h226v-59q0 -85 -57 -143q-35 -35 -81.5 -54t-98.5 -19q-50 0 -97 19t-81 53q-34 33 -54.5 78t-20.5 94q0 50 20.5 95t54.5 78t81 52.5t97 19.5
q52 0 102 -20t97 -69z" />
    <glyph glyph-name="uni24BD" unicode="&#x24bd;" 
d="M850 373q0 74 -28.5 139t-76.5 114q-48 47 -113.5 76t-138.5 29q-74 0 -139 -29t-114 -76q-47 -49 -76 -114t-29 -139q0 -73 29 -138.5t76 -113.5q49 -48 114 -76.5t139 -28.5q73 0 138.5 28.5t113.5 76.5t76.5 113.5t28.5 138.5zM939 373q0 -91 -35 -171.5t-97 -141.5
q-60 -58 -141.5 -93.5t-172.5 -35.5q-92 0 -173.5 35.5t-141.5 93.5q-62 61 -97 141.5t-35 171.5t35 172t97 141q60 59 141.5 94.5t173.5 35.5q91 0 172.5 -35.5t141.5 -94.5q62 -60 97 -141t35 -172zM297 142v464h90v-181h211v181h91v-464h-91v202h-211v-202h-90z" />
    <glyph glyph-name="uni24BE" unicode="&#x24be;" 
d="M850 373q0 74 -28.5 139t-76.5 114q-48 47 -113.5 76t-138.5 29q-74 0 -139 -29t-114 -76q-47 -49 -76 -114t-29 -139q0 -73 29 -138.5t76 -113.5q49 -48 114 -76.5t139 -28.5q73 0 138.5 28.5t113.5 76.5t76.5 113.5t28.5 138.5zM939 373q0 -91 -35 -171.5t-97 -141.5
q-60 -58 -141.5 -93.5t-172.5 -35.5q-92 0 -173.5 35.5t-141.5 93.5q-62 61 -97 141.5t-35 171.5t35 172t97 141q60 59 141.5 94.5t173.5 35.5q91 0 172.5 -35.5t141.5 -94.5q62 -60 97 -141t35 -172zM447 142v464h90v-464h-90z" />
    <glyph glyph-name="uni24BF" unicode="&#x24bf;" 
d="M850 373q0 74 -28.5 139t-76.5 114q-48 47 -113.5 76t-138.5 29q-74 0 -139 -29t-114 -76q-47 -49 -76 -114t-29 -139q0 -73 29 -138.5t76 -113.5q49 -48 114 -76.5t139 -28.5q73 0 138.5 28.5t113.5 76.5t76.5 113.5t28.5 138.5zM939 373q0 -91 -35 -171.5t-97 -141.5
q-60 -58 -141.5 -93.5t-172.5 -35.5q-92 0 -173.5 35.5t-141.5 93.5q-62 61 -97 141.5t-35 171.5t35 172t97 141q60 59 141.5 94.5t173.5 35.5q91 0 172.5 -35.5t141.5 -94.5q62 -60 97 -141t35 -172zM493 134q-148 0 -151 148h91q0 -65 60 -65q58 0 58 65v331h91v-338
q0 -141 -149 -141z" />
    <glyph glyph-name="uni24C0" unicode="&#x24c0;" 
d="M850 373q0 74 -28.5 139t-76.5 114q-48 47 -113.5 76t-138.5 29q-74 0 -139 -29t-114 -76q-47 -49 -76 -114t-29 -139q0 -73 29 -138.5t76 -113.5q49 -48 114 -76.5t139 -28.5q73 0 138.5 28.5t113.5 76.5t76.5 113.5t28.5 138.5zM939 373q0 -91 -35 -171.5t-97 -141.5
q-60 -58 -141.5 -93.5t-172.5 -35.5q-92 0 -173.5 35.5t-141.5 93.5q-62 61 -97 141.5t-35 171.5t35 172t97 141q60 59 141.5 94.5t173.5 35.5q91 0 172.5 -35.5t141.5 -94.5q62 -60 97 -141t35 -172zM312 142v464h92v-152l163 152h126l-227 -211l248 -253h-125l-186 191
v-191h-91z" />
    </font>
</defs>
</svg>
