<?xml version="1.0" standalone="no"?>
<!DOCTYPE svg PUBLIC "-//W3C//DTD SVG 1.1//EN" "http://www.w3.org/Graphics/SVG/1.1/DTD/svg11.dtd" >
<svg xmlns="http://www.w3.org/2000/svg" xmlns:xlink="http://www.w3.org/1999/xlink" version="1.1">
<metadata>
Created by FontForge 20170731 at Fri Mar 13 16:54:42 2020
 By Aleksey,,,
</metadata>
<defs>
<font id="HoonJunglebookRA" horiz-adv-x="920" >
  <font-face 
    font-family="HoonJunglebookRA"
    font-weight="400"
    font-stretch="normal"
    units-per-em="1000"
    panose-1="2 0 5 3 0 0 0 0 0 0"
    ascent="800"
    descent="-200"
    x-height="502"
    cap-height="672"
    bbox="-32 -200 940 798"
    underline-thickness="50"
    underline-position="-200"
    unicode-range="U+0020-FFE6"
  />
<missing-glyph horiz-adv-x="800" 
d="M100 -100h600v800h-600v-800zM150 -50v700h500v-700h-500z" />
    <glyph glyph-name=".notdef" horiz-adv-x="800" 
d="M100 -100h600v800h-600v-800zM150 -50v700h500v-700h-500z" />
    <glyph glyph-name=".null" horiz-adv-x="0" 
 />
    <glyph glyph-name="nonmarkingreturn" horiz-adv-x="333" 
 />
    <glyph glyph-name="space" unicode=" " horiz-adv-x="280" 
d="M0 0z" />
    <glyph glyph-name="exclam" unicode="!" horiz-adv-x="300" 
d="M92 196l97 -5q5 80 17 240q3 42 8.5 122.5t8.5 117.5l-111 7q-4 -78 -10 -241q-4 -83 -10 -241zM76 9l105 -6l7 116l-106 5z" />
    <glyph glyph-name="quotedbl" unicode="&#x22;" horiz-adv-x="325" 
d="M42 542h95l3 114q0 56 3 114h-106q0 -58 3 -114q0 -38 2 -114zM187 542h94l3 114q0 56 3 114h-106l3 -114q0 -57 3 -114z" />
    <glyph glyph-name="numbersign" unicode="#" horiz-adv-x="550" 
d="M141 405l-26 -116h-94v-89h74l-34 -160h99l35 160h97l-42 -190h100l42 190h110v89h-91l27 116h88v89h-70l35 155h-99l-36 -155h-97l47 205h-98l-49 -205h-115v-89h97zM312 289h-98l27 116h97z" />
    <glyph glyph-name="dollar" unicode="$" horiz-adv-x="537" 
d="M234 -87h83v96q77 15 124 62q45 45 48 115q0 29 -9 56q-10 25 -26 47q-17 19 -39 37q-27 18 -47 28q-10 4 -25 12q-23 9 -26 11v189q46 -6 108 -40l21 40q2 4 5.5 12t7 15t7.5 13q-37 23 -73 35q-33 10 -76 17v96h-83v-97q-34 -5 -72 -19q-35 -15 -58 -34
q-24 -21 -38 -49q-14 -27 -14 -63q0 -61 32 -100q29 -40 82 -62l68 -28v-207q-36 1 -77 14q-42 11 -73 31q-5 -9 -11.5 -23.5t-8.5 -17.5q-6 -14 -20 -42q43 -28 93 -41q48 -14 97 -15v-88zM165 493q0 26 19 44q17 17 50 26v-149q-28 13 -49 35q-20 20 -20 44zM324 108l-7 5
v155q25 -15 43 -35q15 -21 15 -48q-3 -33 -14 -48q-14 -19 -37 -29z" />
    <glyph glyph-name="percent" unicode="%" horiz-adv-x="768" 
d="M139 52l80 -47l409 631l-84 39zM48 492q0 -28 10 -49q9 -25 27 -41q16 -18 41 -27q21 -10 49 -10q27 0 50 10q23 9 41 27q16 16 27 41q10 25 10 49q0 23 -10 50q-11 24 -27 41q-17 16 -41 27q-27 10 -50 10q-24 0 -49 -10q-25 -11 -41 -27q-18 -18 -27 -41
q-10 -23 -10 -50zM136 492q0 17 11 28t28 11q15 0 28 -11q11 -13 11 -28q0 -17 -11 -28t-28 -11q-18 0 -28 11q-11 10 -11 28zM464 182q0 -28 10 -49q9 -25 27 -41q16 -18 41 -27q21 -10 49 -10q27 0 50 10q23 9 41 27q16 16 27 41q10 25 10 49q0 23 -10 50q-11 24 -27 41
q-17 16 -41 27q-27 10 -50 10q-24 0 -49 -10q-25 -11 -41 -27q-18 -18 -27 -41q-10 -23 -10 -50zM552 182q0 17 11 28t28 11q15 0 28 -11q11 -13 11 -28q0 -17 -11 -28t-28 -11q-18 0 -28 11q-11 10 -11 28z" />
    <glyph glyph-name="ampersand" unicode="&#x26;" horiz-adv-x="580" 
d="M255 -14q43 -1 89 14q41 14 78 41l46 -67l81 51l-64 89q20 32 33 70q9 26 20 77l-75 39q-6 -42 -12 -66q-7 -26 -18 -48l-112 151q24 11 51 31q24 17 41 39q15 19 28 50q11 27 12 61q1 69 -37 113q-39 43 -114 46q-38 0 -66 -7q-30 -8 -54 -28q-25 -22 -38 -51
q-15 -31 -15 -74q-3 -36 9 -70q9 -36 35 -74q-24 -12 -53 -32q-26 -18 -42 -39q-19 -24 -28 -50q-11 -30 -11 -64q-3 -99 53 -148q54 -49 163 -54zM257 74q-61 2 -90 33q-30 30 -27 85q2 38 27 63q24 23 61 46l142 -194q-24 -20 -52 -27q-30 -9 -61 -6zM228 518q0 35 18 56
q15 21 51 19q35 -3 47 -21q11 -19 11 -51q-3 -43 -28 -68q-28 -28 -60 -44l-2 3q-18 25 -27 53q-12 25 -10 53z" />
    <glyph glyph-name="quotesingle" unicode="'" horiz-adv-x="183" 
d="M42 542h95l6 228h-108z" />
    <glyph glyph-name="parenleft" unicode="(" horiz-adv-x="354" 
d="M230 -139h94q-35 40 -69 94q-33 54 -55 111q-26 61 -37 119q-14 56 -14 121q0 66 14 123q11 57 37 118q23 59 55 108q30 48 69 91h-95q-37 -37 -68 -84q-35 -51 -58 -104q-25 -53 -41 -120q-15 -64 -15 -133q0 -75 14 -134q13 -65 39 -121q22 -53 59 -104q34 -49 71 -85z
M228 -139l3 -1l-1 1h-2z" />
    <glyph glyph-name="parenright" unicode=")" horiz-adv-x="354" 
d="M34 -139h94q33 34 70 86q32 48 58 106q26 63 40 121q15 63 15 131q0 69 -15 133q-14 58 -40 120q-29 60 -58 104q-33 48 -69 84h-95q37 -47 66 -92q32 -54 56 -110q24 -59 39 -118q14 -64 14 -120t-13 -121q-16 -66 -37 -119q-21 -51 -56 -111q-36 -55 -69 -94z" />
    <glyph glyph-name="asterisk" unicode="*" horiz-adv-x="450" 
d="M149 553l-78 -34q11 -21 21 -39q10 -22 21 -41l37 27q5 4 35 26l-5 -92h90q-2 28 -2 47q-3 24 -3 45l72 -53l21 40l21 40q-18 7 -39 18q-28 11 -40 17l80 34q-12 21 -21 39q-11 17 -22 40q-12 -8 -36 -26q-7 -6 -35 -25l4 91h-90q0 -22 3 -46q0 -18 2 -46l-72 53
q-12 -21 -21 -39l-22 -40q20 -10 40 -18q21 -11 39 -18z" />
    <glyph glyph-name="plus" unicode="+" horiz-adv-x="537" 
d="M218 394h-156v-100h156v-155h100v155h158v100h-158v156h-100v-156z" />
    <glyph glyph-name="comma" unicode="," horiz-adv-x="267" 
d="M201 116l-99 15l-41 -256l99 -15z" />
    <glyph glyph-name="hyphen" unicode="-" horiz-adv-x="537" 
d="M54 299h427v100h-427v-100z" />
    <glyph glyph-name="period" unicode="." horiz-adv-x="267" 
d="M195 -3v132h-131v-132h131z" />
    <glyph glyph-name="slash" unicode="/" horiz-adv-x="435" 
d="M26 -39l95 -35l285 819l-94 36z" />
    <glyph glyph-name="zero" unicode="0" horiz-adv-x="537" 
d="M287 1q117 6 166 94q49 89 40 253q-9 160 -67 250q-59 88 -174 82q-119 -8 -167 -100q-49 -94 -40 -256q8 -168 67 -248q56 -81 175 -75zM282 91q-66 -3 -93 59q-29 63 -35 180q-3 56 0 104q3 46 15 81q12 32 34 53q21 18 54 21q32 0 55 -16q23 -20 37 -49q13 -29 23 -78
q8 -53 11 -104q6 -118 -14 -182q-21 -66 -87 -69z" />
    <glyph glyph-name="one" unicode="1" horiz-adv-x="370" 
d="M76 550l106 66l-29 -586l106 -5l36 713l-85 4l-186 -112z" />
    <glyph glyph-name="two" unicode="2" horiz-adv-x="516" 
d="M196 222l-159 -134l-3 -80l429 -16l4 91l-282 11l86 73q35 29 76 68q32 30 57 65q22 30 38 67q12 33 15 69q3 85 -49 137q-53 50 -173 53q-26 0 -41 -1q-16 -2 -48 -8l-47 -12q-9 -3 -23.5 -8t-17.5 -6q0 -8 0.5 -23.5t0.5 -22.5q0 -32 1 -48q35 14 83 28q43 10 77 10
q35 -1 63 -8q22 -8 38 -21q13 -16 18 -32q4 -17 4 -42q-3 -54 -40 -101q-40 -52 -107 -109z" />
    <glyph glyph-name="three" unicode="3" horiz-adv-x="514" 
d="M424 539q-5 88 -60 131q-57 42 -155 39q-38 -3 -81 -13q-50 -13 -92 -37l18 -88q36 21 75 34q36 9 74 12q31 0 49 -5q20 -7 35 -19q12 -12 20 -28q7 -18 8 -33q0 -31 -12 -52q-14 -22 -36 -37q-24 -16 -49 -23q-27 -9 -52 -9l-35 -2l4 -93l35 2q42 0 71 -4q32 -6 58 -18
q25 -14 39 -34q14 -22 16 -54q0 -47 -35 -77q-37 -31 -96 -32q-42 -3 -81 6q-39 6 -94 26v-45q-1 -24 0 -46q51 -21 98 -27q49 -8 93 -5q54 2 94 16q41 12 72 38q29 24 45 63q15 35 13 88q-3 67 -42 109q-39 41 -99 59q45 24 75 66q29 41 27 92z" />
    <glyph glyph-name="four" unicode="4" horiz-adv-x="537" 
d="M311 632l-284 -455l-2 -81l289 -5l-3 -192l106 -1l3 192l92 -2l2 90l-92 2l7 450zM316 181l-171 3l167 284l8 -2z" />
    <glyph glyph-name="five" unicode="5" horiz-adv-x="510" 
d="M346 213q0 -21 -4 -38q-5 -18 -19 -37q-14 -18 -34 -30q-22 -13 -54 -16q-36 -4 -77 5q-46 10 -81 26l-37 -85q51 -25 103 -32q44 -8 100 -6q47 1 90 20q42 18 70 46q29 29 44 68q15 38 13 85q-3 42 -18 81q-20 39 -47 64q-28 25 -73 41q-46 14 -101 11l-56 -3l4 196
l244 12l-4 92l-344 -17l-11 -380l136 7q83 3 118 -25q35 -30 38 -85z" />
    <glyph glyph-name="six" unicode="6" horiz-adv-x="535" 
d="M260 26q-34 0 -56 22t-32 53q-12 32 -15 70q-5 40 -2 74q27 12 60 22q25 7 59 7q27 0 48 -9q19 -11 31 -26q10 -15 17 -39q3 -24 3 -48q-3 -59 -32 -93q-30 -36 -81 -33zM307 587q41 0 74 -11q26 -9 69 -31l28 79q-38 25 -75 38q-42 12 -92 15q-47 0 -91 -16
q-46 -19 -82 -63q-39 -50 -62 -128q-25 -79 -31 -208q-3 -62 7 -115q9 -56 35 -102q23 -43 66 -74q42 -28 103 -31q44 -1 86 11q40 14 70 41t48 69q18 41 21 94q1 38 -8 77q-12 35 -34 65q-24 27 -58 45q-36 17 -82 18q-36 0 -65 -4q-32 -6 -74 -23q3 52 14 103q9 43 28 80
q16 33 43 52q25 17 62 19z" />
    <glyph glyph-name="seven" unicode="7" horiz-adv-x="521" 
d="M480 660l-444 29l-6 -93l330 -22l-276 -628l116 -8l274 630z" />
    <glyph glyph-name="eight" unicode="8" horiz-adv-x="530" 
d="M278 -37q56 3 100 21q45 21 71 48q26 26 42 64q12 37 11 74q-3 34 -14 58q-13 27 -30 47q-18 19 -42 37q-20 12 -49 27q42 27 69 72q26 43 23 94q-3 37 -18 70q-16 32 -44 57q-30 22 -69 36q-40 12 -91 9q-47 -3 -88 -19q-42 -19 -65 -44q-25 -25 -38 -61
q-13 -37 -10 -71q3 -56 34 -94q31 -41 72 -61q-26 -18 -42 -32q-19 -17 -34 -41q-15 -23 -22 -50q-9 -28 -6 -60q2 -41 19 -73q14 -34 47 -59q31 -25 74 -39q46 -13 100 -10zM273 59q-64 -3 -97 25q-35 27 -37 66q-3 47 32 87q33 39 89 54q58 -12 95 -44q38 -35 41 -83
q0 -17 -6 -35q-10 -20 -23 -33q-18 -17 -39 -25q-24 -10 -55 -12zM142 488q-1 14 5 32q7 17 19 29q13 13 32 22q17 8 45 10t48 -4q18 -7 34 -18q13 -12 21 -27q7 -18 8 -32q3 -46 -22 -76q-28 -31 -77 -54q-56 18 -83 45q-27 26 -30 73z" />
    <glyph glyph-name="nine" unicode="9" horiz-adv-x="537" 
d="M228 585q33 3 58 -14q23 -17 40 -47q14 -29 24 -67q9 -40 12 -74q-29 -19 -56 -30q-27 -12 -59 -15q-30 -3 -48 4q-22 6 -34 21q-15 15 -21 36q-8 20 -10 47q-6 59 19 97q24 36 75 42zM257 23q-37 -6 -74 2q-42 7 -73 20l-17 -81q36 -18 80 -28q43 -6 92 -2q47 6 89 28
q43 25 72 74t44 135q14 83 3 210q-6 60 -22 113q-18 54 -48 96q-31 40 -76 64q-46 23 -107 17q-47 -5 -83 -22q-37 -19 -64 -50t-39 -74q-14 -46 -8 -97q3 -39 20 -75q15 -36 42 -60q25 -25 63 -37q38 -13 83 -7q30 3 65 14q29 8 70 32q3 -57 0 -103q-5 -51 -16 -83
q-14 -38 -36 -58q-23 -22 -60 -28z" />
    <glyph glyph-name="colon" unicode=":" horiz-adv-x="267" 
d="M76 445h115v116h-115v-116zM76 105h115v116h-115v-116z" />
    <glyph glyph-name="semicolon" unicode=";" horiz-adv-x="267" 
d="M76 445h115v116h-115v-116zM191 221l-99 15l-41 -256l99 -15z" />
    <glyph glyph-name="less" unicode="&#x3c;" horiz-adv-x="500" 
d="M439 601l-8 142l-386 -377l5 -80l427 -329l-9 142l-303 234z" />
    <glyph glyph-name="equal" unicode="=" horiz-adv-x="537" 
d="M64 394h407v100h-407v-100zM64 198h407v100h-407v-100z" />
    <glyph glyph-name="greater" unicode="&#x3e;" horiz-adv-x="500" 
d="M72 708l-9 -141l273 -270l-305 -232l-9 -143l429 327l5 79z" />
    <glyph glyph-name="question" unicode="?" horiz-adv-x="451" 
d="M154 203l2 -53l98 5l-2 43q-2 30 15 53q13 18 45 47q46 42 68 99q20 55 17 116q-3 51 -17 81q-16 30 -41 52q-27 18 -60 27q-37 6 -72 5q-40 -3 -88 -15q-49 -14 -89 -39q1 -11 4 -29t3 -19q4 -32 8 -50q20 12 36 20q7 3 20 9t18 8l37 12q18 5 29 5q54 3 78 -15
q23 -19 26 -70q1 -42 -11 -78q-16 -38 -37 -58l-39 -38q-17 -17 -28 -34q-11 -16 -16 -37q-6 -19 -4 -47zM160 -24l106 5l-5 121l-107 -6z" />
    <glyph glyph-name="at" unicode="@" horiz-adv-x="763" 
d="M388 1q48 0 99 12q48 12 90 30l-29 62q-35 -12 -77 -21t-83 -9q-63 0 -104 17q-44 15 -75 47q-33 31 -47 73q-17 43 -17 94q-3 59 14 115q14 50 49 94q35 41 83 64q49 23 114 23q49 0 92 -16q36 -15 65 -44q25 -30 40 -68q13 -40 15 -86q1 -80 -20 -121q-23 -41 -67 -41
q-11 0 -14 7q-5 6 -2 15l17 99q7 46 1 82q-10 35 -28 55q-21 21 -50 31q-30 9 -67 9q-40 0 -75 -19q-35 -22 -56 -53q-23 -32 -34 -75q-12 -45 -11 -89q2 -66 34 -103q30 -39 91 -39q54 0 99 36q11 -16 32 -26q17 -10 54 -10q92 0 139 65q47 64 44 181q-3 64 -23 115
q-21 50 -59 90q-39 37 -93 60q-55 21 -124 21q-84 0 -150 -32q-65 -33 -110 -85q-47 -57 -67 -119q-24 -67 -21 -136q0 -69 25 -127q22 -57 66 -96q41 -39 104 -61q60 -21 136 -21zM354 221q-23 1 -35 21q-14 19 -14 47q0 27 5 51q3 25 14 51q9 23 25 39t40 16q17 0 35 -6
q16 -7 22 -27l-25 -160q-3 -20 -24 -26q-21 -9 -43 -6z" />
    <glyph glyph-name="A" unicode="A" horiz-adv-x="627" 
d="M17 -3l109 3l61 195l240 6l71 -191l111 3l-259 689l-110 -3zM217 295l82 267l92 -263z" />
    <glyph glyph-name="B" unicode="B" horiz-adv-x="560" 
d="M282 611l-211 3l-10 -650l227 -3q58 0 98 11q41 13 71 37q29 23 44 57q15 33 15 77q0 64 -27 103q-29 37 -78 58q45 22 64 58q17 31 20 81q0 83 -50 125q-50 40 -163 43zM291 56l-117 1l3 194l111 -2q53 -1 84 -26q29 -25 29 -76q-1 -50 -29 -71q-29 -21 -81 -20z
M270 343l-92 1l3 174l95 -1q30 -2 44 -4q20 -5 32 -13q13 -12 20 -25q6 -16 6 -41q-2 -51 -32 -71q-32 -21 -76 -20z" />
    <glyph glyph-name="C" unicode="C" horiz-adv-x="570" 
d="M350 94q-52 0 -86 20q-38 17 -63 52q-26 32 -40 78q-14 43 -16 97q-3 55 9 103q9 46 33 82q22 35 57 55q32 19 80 22q41 2 74 -9q35 -13 72 -37l21 47q12 30 19 46q-83 56 -190 53q-72 -4 -127 -32q-56 -29 -90 -76q-38 -52 -52 -115q-17 -68 -12 -146q3 -79 28 -145
q23 -66 64 -109q42 -46 98 -67q59 -22 126 -19q57 3 102 22q44 18 89 55l-53 79q-32 -23 -70 -39q-41 -16 -73 -17z" />
    <glyph glyph-name="D" unicode="D" horiz-adv-x="613" 
d="M247 678l-163 6l-27 -709l176 -7q73 -3 135 22q59 25 103 72q42 45 66 110q23 65 26 137q3 83 -15 150q-20 67 -59 115q-42 48 -100 74q-62 27 -142 30zM222 66l-51 2l20 514l52 -2q59 -3 97 -23q39 -21 65 -56q23 -35 34 -82q9 -50 8 -103q-6 -127 -58 -189
q-54 -66 -167 -61z" />
    <glyph glyph-name="E" unicode="E" horiz-adv-x="529" 
d="M162 584l300 13l-4 97l-411 -18l31 -700l414 18l-4 97l-303 -13l-7 164l264 11l-5 98l-264 -11z" />
    <glyph glyph-name="F" unicode="F" horiz-adv-x="490" 
d="M183 578l285 -1l1 97l-399 4l-6 -745h113l2 280l250 -2v97l-249 3z" />
    <glyph glyph-name="G" unicode="G" horiz-adv-x="650" 
d="M592 43l-10 359l-283 -27l14 -95l160 17l6 -215q-27 -14 -56 -19q-30 -6 -66 -6q-52 -3 -90 19q-37 19 -61 55q-24 32 -36 79q-13 49 -13 92q-2 50 9 101q9 50 33 92q21 40 57 67q34 25 84 28q46 0 89 -12q43 -14 82 -37l45 87q-52 26 -105 40q-51 12 -113 12
q-79 -3 -133 -35q-56 -33 -93 -86q-38 -57 -52 -121q-17 -71 -14 -140q1 -74 24 -136q20 -61 62 -106q37 -43 98 -68q57 -22 130 -21q54 2 112 16q63 17 120 60z" />
    <glyph glyph-name="H" unicode="H" horiz-adv-x="619" 
d="M451 685l-4 -317h-275l-8 317h-112l20 -730h112l-9 313h270l-4 -313h112l10 730h-112z" />
    <glyph glyph-name="I" unicode="I" horiz-adv-x="260" 
d="M83 701l-10 -696h111l10 696h-111z" />
    <glyph glyph-name="J" unicode="J" horiz-adv-x="381" 
d="M287 91l39 574l-111 7l-38 -559q-4 -50 -18 -70q-16 -22 -52 -19q-19 1 -44 6q-20 2 -54 13l-6 -87q13 -4 35 -9l17.5 -3.5t19.5 -3.5q6 -1 18 -2.5t18 -2.5q6 0 15.5 -0.5t13.5 -0.5q69 3 106 43q35 41 41 114z" />
    <glyph glyph-name="K" unicode="K" horiz-adv-x="580" 
d="M178 352l9 327l-111 3l-18 -670l111 -3l6 234l250 -291l142 -4l-298 344l280 302l-139 4z" />
    <glyph glyph-name="L" unicode="L" horiz-adv-x="527" 
d="M85 -44l419 23l-6 97l-307 -17l-33 610l-111 -6z" />
    <glyph glyph-name="M" unicode="M" horiz-adv-x="797" 
d="M742 37l-23 680l-170 -6l-144 -592l-188 550l-168 -6l25 -717l108 4l-20 547l10 1l166 -485l140 4l129 526l10 -1l19 -509z" />
    <glyph glyph-name="N" unicode="N" horiz-adv-x="641" 
d="M439 741l17 -523l-9 -2l-228 454l-162 -8l26 -714l105 6l-18 569l9 2l228 -456l163 8l-25 670z" />
    <glyph glyph-name="O" unicode="O" horiz-adv-x="660" 
d="M611 320q0 73 -15 139q-15 65 -48 114q-34 48 -87 78q-56 28 -131 28q-76 0 -132 -28q-54 -30 -87 -78q-34 -48 -49 -114t-15 -140q0 -73 15 -138q15 -67 49 -114q33 -49 87 -78q55 -29 132 -29q75 0 131 28q53 29 87 79q33 48 48 114q15 64 15 139zM164 320q0 52 6 100
q6 47 24 85q18 36 51 60q33 22 85 22q48 0 83 -22q32 -25 50 -60q17 -38 25 -86q6 -48 6 -99q0 -50 -6 -98q-8 -51 -25 -85q-17 -38 -50 -61q-32 -23 -83 -23q-55 0 -85 23q-33 21 -51 59q-18 36 -24 85q-6 48 -6 100z" />
    <glyph glyph-name="P" unicode="P" horiz-adv-x="550" 
d="M270 675l-217 -10l30 -704l111 5l-10 230l114 5q49 2 89 18q39 15 66 45q25 27 41 74q14 45 11 105q-6 117 -60 177q-57 58 -175 55zM292 296l-112 -5l-12 283l114 5q54 2 80 -30q24 -33 27 -111q3 -72 -19 -106t-78 -36z" />
    <glyph glyph-name="Q" unicode="Q" horiz-adv-x="660" 
d="M611 370q0 73 -15 139q-15 65 -48 114q-34 48 -87 78q-56 28 -131 28q-76 0 -132 -28q-54 -30 -87 -78q-34 -48 -49 -114t-15 -140q0 -73 15 -138q15 -67 49 -114q33 -49 87 -78q52 -29 132 -29q52 0 94 14l68 -107l83 57l-63 101q51 47 76 127q23 78 23 168zM315 199
l57 -91q-19 -5 -42 -5q-55 0 -85 23q-33 21 -51 59q-18 36 -24 85q-6 48 -6 100t6 100q6 47 24 85q18 36 51 60q33 22 85 22q48 0 83 -22q32 -25 50 -60q17 -38 25 -86q6 -48 6 -99q0 -54 -8 -110q-9 -53 -33 -91l-54 87z" />
    <glyph glyph-name="R" unicode="R" horiz-adv-x="563" 
d="M312 202l170 -271l83 57l-152 243q47 28 71 79t21 133q-6 117 -60 177q-57 58 -175 55l-217 -10l30 -704l111 5l-10 230l114 5q10 0 14 1zM292 296l-112 -5l-12 283l114 5q54 2 80 -30q24 -33 27 -111q3 -72 -19 -106t-78 -36z" />
    <glyph glyph-name="S" unicode="S" horiz-adv-x="501" 
d="M417 548l42 81q-48 35 -93 51q-46 15 -95 18q-42 0 -85 -10q-42 -12 -70 -32q-30 -21 -48 -53q-19 -34 -20 -75q-5 -64 25 -105q27 -43 78 -69l130 -68q29 -15 45 -39q15 -25 14 -56q-6 -46 -36 -68q-33 -24 -94 -21q-35 1 -75 17q-40 13 -74 39l-41 -86q45 -35 94 -51
q46 -17 95 -19q50 -3 96 11q44 12 77 36q34 25 54 59q19 32 25 78q0 63 -31 110q-34 46 -80 72l-129 72q-26 13 -40 35q-15 22 -14 48q2 40 31 59q28 19 79 17q32 -3 65 -12q33 -11 75 -39z" />
    <glyph glyph-name="T" unicode="T" horiz-adv-x="539" 
d="M250 -63l111 5l-33 639l192 9l-5 97l-497 -25l5 -97l194 10z" />
    <glyph glyph-name="U" unicode="U" horiz-adv-x="617" 
d="M281 1q117 -8 186 54q68 59 77 189l24 400l-112 6l-23 -381q-2 -33 -10 -75q-7 -34 -23 -56q-16 -24 -43 -34q-29 -12 -71 -9q-47 3 -69 17q-27 14 -39 39q-13 23 -16 58q-4 40 -1 76l27 437l-112 7l-27 -455q-5 -60 9 -108q12 -51 41 -84q27 -36 74 -56q47 -22 108 -25z
" />
    <glyph glyph-name="V" unicode="V" horiz-adv-x="610" 
d="M463 681l-151 -564l-173 498l-119 -5l241 -637l113 4l208 708z" />
    <glyph glyph-name="W" unicode="W" horiz-adv-x="889" 
d="M867 720l-118 -2l-110 -496h-8l-128 474l-123 -2l-106 -552h-8l-129 490l-118 -2l191 -666l130 2l101 530h8l121 -452l130 3z" />
    <glyph glyph-name="X" unicode="X" horiz-adv-x="608" 
d="M377 354l190 339l-124 -9l-67 -120l-68 -121l-164 221l-125 -8l117 -155l116 -155l-204 -360l123 9l75 133l74 132l183 -243l124 8l-125 165z" />
    <glyph glyph-name="Y" unicode="Y" horiz-adv-x="559" 
d="M316 291l227 384h-123l-154 -275l-127 335h-123l188 -444v-347h112v347z" />
    <glyph glyph-name="Z" unicode="Z" horiz-adv-x="544" 
d="M56 591l314 -8l-335 -487v-91l481 -22v97l-353 17l335 488v90l-442 13v-97z" />
    <glyph glyph-name="bracketleft" unicode="[" horiz-adv-x="355" 
d="M311 -44h-118v677h118v92h-225v-860h225v91z" />
    <glyph glyph-name="backslash" unicode="\" horiz-adv-x="933" 
d="M781 297h124v90h-102l78 313l-118 -2l-69 -311h-96l-81 318l-123 -2l-58 -316h-126l-59 225l-118 -2l64 -223h-71v-90h97l101 -353l130 2l63 351h98l69 -273l130 3zM288 122h-8l-46 175h86zM433 387l22 118h8l29 -118h-59zM653 202h-8l-24 95h53z" />
    <glyph glyph-name="bracketright" unicode="]" horiz-adv-x="355" 
d="M160 -44h-118v-91h225v860h-225v-92h118v-677z" />
    <glyph glyph-name="asciicircum" unicode="^" horiz-adv-x="500" 
d="M193 762l-173 -318h114q17 34 59 112l58 111l118 -223h112l-88 159l-89 159h-111z" />
    <glyph glyph-name="underscore" unicode="_" horiz-adv-x="500" 
d="M15 -166h470v96h-470v-96z" />
    <glyph glyph-name="grave" unicode="`" horiz-adv-x="360" 
d="M207 771h-103l39 -95q24 -64 38 -96h79q-16 56 -26 95q-15 48 -27 96z" />
    <glyph glyph-name="a" unicode="a" horiz-adv-x="497" 
d="M348 -9l105 6q-2 26 -6.5 97t-6.5 111q-5 65 -13 207q-7 75 -55 112q-50 36 -135 33q-49 -3 -98 -22q-47 -19 -83 -49l47 -75q71 49 129 54q46 0 66 -15q18 -17 21 -61q0 -12 2 -34q0 -13 2 -35q-36 -3 -63 -6q-7 -1 -23.5 -4t-23.5 -4q-24 -5 -37 -9q-4 -1 -11 -3.5
t-12.5 -4t-9.5 -3.5q-32 -13 -54 -32q-21 -20 -32 -41q-12 -24 -15 -47q-5 -24 -3 -46q6 -73 50 -111q41 -38 104 -35q28 2 41 4q28 7 37 10q18 8 36 18q16 8 38 27zM223 65q-33 -3 -51 14q-20 15 -22 52q-3 24 11 49q12 22 35 33q18 5 23 7q12 3 27 6q17 4 35 6q8 1 25 2.5
t22 2.5q2 -38 4 -56q0 -28 3 -55q-25 -28 -54 -43q-30 -16 -58 -18z" />
    <glyph glyph-name="b" unicode="b" horiz-adv-x="550" 
d="M173 392l8 336l-108 2l-18 -776l107 -2q0 18 1 26q0 4 0.5 13.5t0.5 13.5q26 -25 66 -44q36 -17 76 -18q55 -2 94 18q37 21 63 56q26 37 37 81q11 43 13 96q0 55 -10 99q-13 48 -35 80q-23 32 -61 54q-38 20 -88 21q-44 2 -79 -13q-35 -14 -67 -43zM298 354q32 -2 52 -13
q21 -14 32 -34q10 -21 16 -51q3 -30 3 -63q-1 -21 -5 -56q-7 -32 -17 -50q-13 -24 -34 -37q-22 -15 -57 -13q-29 0 -52 13q-22 10 -38 30t-22 42q-8 20 -8 47q0 19 1 30q0 5 0.5 14.5t0.5 14.5q0 24 10 47q10 25 26 41q13 15 40 29q22 9 52 9z" />
    <glyph glyph-name="c" unicode="c" horiz-adv-x="440" 
d="M39 252q0 -64 15 -113q16 -53 44 -87q30 -37 72 -55q44 -19 99 -19q38 0 82 13q37 13 77 36l-20 84q-32 -21 -64 -32q-29 -10 -64 -10q-62 0 -94 44q-34 43 -34 139q0 92 34 136q33 44 93 44q29 0 59 -8q32 -11 60 -26l23 84q-41 22 -72 32q-36 9 -80 9q-58 0 -102 -22
q-44 -23 -71 -59q-29 -38 -43 -87q-14 -46 -14 -103z" />
    <glyph glyph-name="d" unicode="d" horiz-adv-x="560" 
d="M398 731l-12 -359q-31 30 -64 46q-36 16 -78 19q-54 0 -89 -17q-38 -17 -64 -50q-27 -33 -39 -78q-14 -45 -16 -98q-3 -48 8 -95q8 -44 34 -82q23 -37 61 -60q37 -23 90 -26q36 2 77 16q38 14 69 38l-2 -53l107 -3l26 798zM259 341q30 -1 53 -13q22 -12 39 -30
q13 -17 23 -42q7 -22 7 -48q0 -5 -0.5 -14.5t-0.5 -14.5q-1 -11 -1 -30q-2 -25 -9 -47q-8 -21 -25 -40q-20 -20 -40 -28q-23 -12 -53 -10q-34 0 -56 17q-22 16 -32 38q-11 20 -14 52q-3 30 -2 56q0 28 7 63q5 29 18 50q11 18 34 31q19 10 52 10z" />
    <glyph glyph-name="e" unicode="e" horiz-adv-x="512" 
d="M275 44q-33 1 -53 16q-23 14 -35 38q-15 22 -21 54q-9 30 -12 65l317 16v42q-4 49 -17 101q-15 48 -40 85q-29 38 -67 58q-43 20 -101 17q-52 -3 -93 -25q-41 -24 -65 -60q-26 -36 -38 -85q-14 -49 -11 -102q3 -62 20 -119q15 -58 44 -98q25 -41 70 -68q43 -25 99 -26
q56 0 102 18q49 21 92 56l-46 66q-33 -21 -69 -37q-34 -15 -76 -12zM251 447q29 0 49 -9q21 -14 31 -29q12 -19 18 -42q6 -24 9 -48q-17 -1 -51.5 -2.5t-51.5 -2.5q-67 -4 -104 -5q0 27 5 47q3 23 15 44q11 19 31 32q18 12 49 15z" />
    <glyph glyph-name="f" unicode="f" horiz-adv-x="369" 
d="M357 600l4 86q-19 6 -56 13q-31 3 -55 6q-68 -3 -100 -40q-34 -40 -37 -99l-6 -120l-88 4l-5 -93q28 -2 44 -2q28 -2 44 -2l-21 -403l108 -5l21 402l135 -7l5 93q-44 2 -67 4q-35 0 -68 3l3 61q0 29 3 61q0 12 4 28q4 11 10 16q5 5 18 8q7 1 28 1q11 -2 28 -3
q15 -3 48 -12z" />
    <glyph glyph-name="g" unicode="g" horiz-adv-x="549" 
d="M271 164q-32 -3 -54 8q-22 8 -38 31q-16 21 -23 49q-8 25 -10 63q-3 25 2 55q3 28 15 52q11 23 34 41q23 16 55 19q23 -1 47 -11q20 -11 38 -28q17 -21 26 -38q9 -23 12 -45l4 -59q1 -22 -5 -48q-8 -26 -21 -43q-14 -18 -35 -31t-47 -15zM275 -90q-34 -1 -72 5
q-38 9 -76 27l-34 -79q41 -25 89 -37t100 -9q64 6 109 24q44 20 71 48q24 28 37 67q10 42 7 80q-3 16 -3 37q-1 13 -3 37l-32 476l-107 -7q0 -10 2 -26q0 -11 2 -27q-30 24 -68 37q-39 12 -80 10q-51 -6 -83 -26q-36 -23 -57 -54q-23 -32 -34 -74q-11 -39 -11 -85v-15
q0 -12 1 -16q5 -51 21 -93q14 -43 44 -76q27 -33 66 -51q38 -18 87 -15q40 3 78 22q34 16 61 46l7 -90q2 -30 -1 -51q-5 -24 -16 -41q-13 -18 -38 -30q-27 -11 -67 -14z" />
    <glyph glyph-name="h" unicode="h" horiz-adv-x="535" 
d="M364 307l15 -315l108 5l-15 319q-5 76 -51 119q-48 42 -128 39q-30 -1 -64 -14q-35 -15 -66 -42l-12 268l-110 -5l35 -752l109 5q-6 122 -8 185q-6 93 -9 186q8 17 22 32q12 13 27 24q12 7 31 14q15 5 29 6q38 1 63 -14q21 -18 24 -60z" />
    <glyph glyph-name="i" unicode="i" horiz-adv-x="229" 
d="M174 457l-110 4l-20 -516l110 -4zM184 703l-110 4l-5 -144l110 -4z" />
    <glyph glyph-name="j" unicode="j" horiz-adv-x="252" 
d="M210 750l-110 5l-6 -144l110 -5zM40 -143q33 0 61 10q26 11 41 28q15 19 24 44q7 24 10 57l25 548l-110 5l-25 -551q-3 -29 -12 -43q-12 -12 -46 -9l-36 4l-4 -87q21 -5 39 -6h33z" />
    <glyph glyph-name="k" unicode="k" horiz-adv-x="510" 
d="M169 328l-17 372l-110 -4l35 -774l110 5l-6 133q-3 42 -7 133l204 -186l142 6l-137 127l-138 126l230 242l-144 -7l-81 -86z" />
    <glyph glyph-name="l" unicode="l" horiz-adv-x="229" 
d="M71 706l-21 -738l109 -3l22 738z" />
    <glyph glyph-name="m" unicode="m" horiz-adv-x="800" 
d="M620 412l20 -378l107 5l-19 382q-4 76 -47 120q-45 42 -124 38q-35 -3 -73 -18q-39 -18 -67 -58q-23 31 -58 48q-36 15 -82 14q-33 -3 -59 -13q-29 -12 -56 -37l-2 40l-110 -5l27 -545l110 6q-4 67 -10 197q-4 63 -10 197q17 29 44 47q25 16 51 19q38 1 57 -14
q16 -17 19 -60l16 -328l108 5q-6 110 -8 171q-6 84 -9 170q15 28 44 50q26 18 52 21q38 1 58 -14q18 -18 21 -60z" />
    <glyph glyph-name="n" unicode="n" horiz-adv-x="535" 
d="M375 319l-22 -319l108 -7q2 42 11 162q2 24 5.5 78.5t5.5 82.5q0 35 -9 68q-11 33 -31 56q-21 24 -51 39q-32 14 -70 15q-10 0 -32 -2l-36 -6q-24 -8 -35 -12q-17 -7 -32 -17l3 37l-110 7l-36 -530l110 -8q8 130 13 189q2 32 6.5 95t6.5 94v-1q21 35 54 50q32 15 62 13
q39 -3 61 -22q21 -20 18 -62z" />
    <glyph glyph-name="o" unicode="o" horiz-adv-x="550" 
d="M276 -2q61 0 104 20q43 19 73 54q27 33 42 78q13 49 13 96q0 49 -13 101q-15 45 -42 81q-30 34 -73 55q-46 20 -104 20q-60 0 -105 -20q-45 -21 -73 -55q-29 -35 -43 -81q-14 -45 -14 -101q0 -53 14 -95q14 -47 43 -79q29 -35 73 -54q41 -20 105 -20zM276 411
q55 0 89 -43q32 -46 32 -122q0 -75 -32 -115q-32 -41 -89 -41q-64 0 -93 41q-31 38 -31 115q0 78 31 122q31 43 93 43z" />
    <glyph glyph-name="p" unicode="p" horiz-adv-x="560" 
d="M159 -175l10 283q28 -28 65 -45q37 -19 77 -20q49 -3 90 16q37 18 64 51q25 32 40 78q12 45 15 98q2 51 -7 97q-11 45 -32 82q-23 34 -60 59q-38 22 -93 25q-41 2 -77 -13q-38 -16 -69 -41l2 53l-107 4l-26 -723zM296 139q-29 0 -52 13q-23 12 -38 31q-16 18 -24 42
q-9 21 -7 47q0 19 1 30q0 5 0.5 14.5t0.5 14.5q0 20 10 47q10 25 26 41q14 16 39 28q22 9 53 9q37 -3 56 -17t32 -38q10 -27 13 -52q2 -19 2 -56q-2 -37 -7 -63q-6 -29 -18 -49q-14 -22 -34 -32q-22 -12 -53 -10z" />
    <glyph glyph-name="q" unicode="q" horiz-adv-x="560" 
d="M387 108l10 -283l108 4l-26 723l-107 -4q0 -18 1 -26q0 -4 0.5 -13t0.5 -14q-32 26 -68 41t-78 13q-57 -3 -92 -25q-40 -25 -60 -59q-22 -33 -32 -82q-11 -50 -8 -97q2 -55 16 -98q12 -45 39 -78q25 -33 65 -51q39 -19 89 -16q43 2 78 19q35 16 64 46zM260 139
q-33 -1 -53 10q-21 10 -33 32q-13 19 -19 49q-7 33 -7 63q-1 24 2 56q3 31 14 52q9 22 31 38q20 14 56 17q29 0 53 -9q23 -12 40 -28q17 -20 25 -41q8 -23 10 -47l2 -59q0 -26 -7 -47q-10 -26 -23 -42q-15 -18 -38 -31q-26 -13 -53 -13z" />
    <glyph glyph-name="r" unicode="r" horiz-adv-x="369" 
d="M177 466l2 54l-110 5l-27 -572l110 -5l9 184q3 93 9 183q9 43 39 74q30 30 74 30q35 -3 69 -18l4 101q-13 6 -37 14q-24 4 -35 5q-30 0 -55 -12q-27 -12 -52 -43z" />
    <glyph glyph-name="s" unicode="s" horiz-adv-x="394" 
d="M313 375l17 91q-9 6 -37 20q-21 6 -39 12q-31 4 -37 5h-32q-36 -3 -68 -17q-32 -16 -51 -35q-22 -23 -32 -50q-12 -27 -10 -59q3 -43 24 -70q21 -28 63 -51q22 -12 34 -18q18 -11 33 -17q5 -4 17 -8q3 -1 8.5 -4t8.5 -5q24 -14 35 -22q15 -13 18 -32q1 -27 -21 -42
q-26 -16 -59 -16q-27 -1 -61 12q-38 13 -67 33q-3 -8 -3 -14q-2 -9 -3 -15q-4 -19 -5 -31q-4 -22 -5 -33q46 -32 86 -42q40 -9 79 -6q82 9 126 53q44 45 39 117q-5 49 -28 78q-25 28 -67 49q-31 14 -51 25q-10 5 -28 13.5t-24 11.5q-16 8 -29 21q-14 12 -14 29q-3 22 19 36
q17 11 50 14q30 2 59 -7q26 -8 55 -26z" />
    <glyph glyph-name="t" unicode="t" horiz-adv-x="363" 
d="M317 -18l6 82q-34 -4 -44 -4q-19 -2 -33 0q-32 1 -41 16q-10 13 -7 44l9 124q3 60 9 124l129 -9l6 93q-22 1 -64 5q-42 2 -64 4l15 209l-108 7q-3 -33 -7 -104q-6 -70 -8 -104l-97 6l-6 -92q24 -3 49 -3q16 -2 48 -4q-6 -63 -9 -123l-9 -124q-3 -59 23 -100
q23 -42 90 -54q13 -1 52 -1q40 4 61 8z" />
    <glyph glyph-name="u" unicode="u" horiz-adv-x="535" 
d="M165 133l-15 319l-108 -5l15 -324q3 -76 52 -119q48 -42 129 -39q28 3 64 15q38 15 65 38l2 -37l110 6l-26 530l-110 -4l9 -189q3 -98 9 -189q-10 -20 -21 -31q-14 -16 -28 -24q-15 -10 -30 -15q-16 -6 -29 -6q-39 -3 -62 15q-23 16 -26 59z" />
    <glyph glyph-name="v" unicode="v" horiz-adv-x="470" 
d="M351 502l-126 -400l-104 347h-115l168 -496h100l191 549h-114z" />
    <glyph glyph-name="w" unicode="w" horiz-adv-x="737" 
d="M5 539l155 -536h106l48 156l47 155l100 -356h107l165 571h-112l-54 -210l-55 -210l-99 365h-102q-24 -77 -48 -161l-49 -161l-100 387h-109z" />
    <glyph glyph-name="x" unicode="x" horiz-adv-x="483" 
d="M474 485h-121l-52 -77l-53 -78l-129 191h-120l94 -139l95 -139l-172 -254h119l57 84q27 42 57 84l100 -147h122l-81 117l-81 116z" />
    <glyph glyph-name="y" unicode="y" horiz-adv-x="461" 
d="M118 -115l92 -27l244 695h-105l-57 -169q-27 -75 -57 -169l-112 304h-116l90 -220l89 -222z" />
    <glyph glyph-name="z" unicode="z" horiz-adv-x="480" 
d="M174 96l253 323v80l-384 10v-93q21 -1 62 -2.5t61 -2.5q82 -4 124 -5l-249 -317v-86l398 10v93q-22 -1 -66 -2.5t-66 -2.5q-91 -4 -133 -5z" />
    <glyph glyph-name="braceleft" unicode="{" horiz-adv-x="410" 
d="M124 191l-10 -189q-3 -57 27 -90q30 -31 84 -34l107 -5l5 86l-90 4q-16 2 -22 8q-9 9 -6 25l10 194q2 35 -12 68q-15 32 -59 55q22 8 40 23q17 14 25 27q9 14 13 32q4 19 5 34l10 191q0 16 9 24q6 5 23 5l90 -4l4 86l-107 5q-57 3 -88 -24q-33 -28 -36 -86l-9 -188
q-3 -44 -26 -58q-24 -17 -88 -17l-5 -86q36 -5 52 -10q17 -5 34 -16q10 -9 17 -24q3 -15 3 -36z" />
    <glyph glyph-name="bar" unicode="|" horiz-adv-x="400" 
d="M157 725v-853h86v853h-86z" />
    <glyph glyph-name="braceright" unicode="}" horiz-adv-x="410" 
d="M263 -39l10 189q0 40 26 58q25 16 87 17l5 86q-32 3 -52 9q-22 6 -33 16q-12 9 -17 25q-6 14 -4 36l10 188q1 59 -27 90q-29 29 -86 32l-107 6l-4 -86l90 -4q14 -3 23 -9q6 -8 6 -24l-10 -191q-1 -16 2 -35q1 -18 10 -32q6 -15 22 -30q14 -15 37 -27q-48 -19 -64 -49
q-18 -32 -18 -66l-11 -194q0 -32 -31 -30l-90 4l-4 -85l107 -5q55 -3 88 24q32 29 35 87z" />
    <glyph glyph-name="asciitilde" unicode="~" horiz-adv-x="500" 
d="M31 312l60 -39q16 21 38 38q19 14 38 14q29 0 66 -29q18 -16 45 -29q23 -13 54 -13q21 0 37 5q16 3 38 16q18 12 35 32q17 18 29 49q-16 9 -31 21q-12 7 -31 21q-16 -27 -31 -40q-15 -14 -36 -14q-27 0 -58 25q-26 19 -48 32q-27 15 -62 15q-42 0 -80 -22
q-38 -23 -63 -82zM28 315l2 -6q0 1 1 2v1z" />
    <glyph glyph-name="exclamdown" unicode="&#xa1;" horiz-adv-x="302" 
d="M132 -69h35h15q4 1 8 3q1 2 3 8v16l-14 517q-2 17 -3 20q-4 2 -17 2h-18q-16 0 -18 -2q-3 -3 -3 -21l-11 -516v-16q0 -5 3 -8q2 -2 7 -3h13zM199 633q0 19 -15 34q-16 14 -33 14q-22 0 -36 -14q-15 -15 -15 -34t15 -33q13 -15 36 -15q18 0 33 15q15 14 15 33z" />
    <glyph glyph-name="currency" unicode="&#xa4;" horiz-adv-x="838" 
d="M685 298q0 -56 -21 -106q-23 -53 -57 -88q-40 -40 -89 -60q-51 -21 -106 -21q-57 0 -108 21q-53 22 -88 60q-37 34 -59 88q-22 48 -22 106t22 108q21 50 59 88q36 36 88 59q51 21 108 21q55 0 106 -21q48 -21 89 -59q35 -40 57 -88q21 -51 21 -108zM672 482l128 115
l-33 33l-124 -112q-44 46 -103 75q-60 27 -128 27t-124 -24q-58 -24 -104 -72l-114 106l-34 -33l118 -106q-31 -43 -47 -90q-18 -49 -18 -103q0 -62 20 -111q17 -52 56 -95l-128 -114l30 -37l131 118q42 -39 96 -60q55 -22 118 -22q62 0 119 24q55 22 100 65l140 -125l28 37
l-134 123q33 44 50 92q18 48 18 105q0 51 -15 99q-18 48 -46 85z" />
    <glyph glyph-name="section" unicode="&#xa7;" horiz-adv-x="346" 
d="M237 313q11 -16 18 -34q7 -24 7 -37q0 -20 -9 -32q-10 -13 -37 -13q-18 0 -46 18q-30 18 -60 60q-16 19 -22 40q-7 20 -7 39q-2 20 7 31q8 12 31 12q28 0 56 -20q25 -20 62 -64zM309 253q0 26 -9 53q-9 26 -26 51l-41 49l-43 47q-38 35 -64 72q-27 36 -27 78q0 38 20 58
q18 20 49 20q36 0 51 -21q14 -22 14 -53h55q0 40 -31 71q-31 30 -85 30q-51 0 -84 -31t-33 -96q0 -46 20 -83q17 -40 51 -71q-45 6 -67 -16q-24 -24 -24 -72q0 -29 11 -51q9 -26 30 -49q14 -23 40 -48q22 -24 49 -46q28 -25 50 -63q19 -41 19 -74q0 -41 -20 -63
q-22 -20 -49 -20q-29 0 -47 18q-19 19 -19 56h-56q0 -47 36 -77q35 -29 87 -29t88 36q34 39 34 100q0 35 -14 72q-17 38 -41 67q37 -2 57 21q19 22 19 64z" />
    <glyph glyph-name="dieresis" unicode="&#xa8;" horiz-adv-x="540" 
d="M193 658q0 21 -17 40q-19 17 -43 17q-23 0 -38 -17q-17 -17 -17 -40q0 -28 17 -42q15 -16 38 -16q26 0 43 16q17 15 17 42zM458 658q0 21 -17 40q-19 17 -39 17q-27 0 -42 -17q-17 -17 -17 -40q0 -28 17 -42q15 -16 42 -16q22 0 39 16q17 15 17 42z" />
    <glyph glyph-name="copyright" unicode="&#xa9;" horiz-adv-x="0" 
 />
    <glyph glyph-name="ordfeminine" unicode="&#xaa;" horiz-adv-x="541" 
d="M333 564v-54q0 -47 -28 -72q-29 -26 -75 -26q-32 0 -49 13q-19 12 -19 40q0 19 8 31q6 12 26 21q19 8 42 14q11 3 61 13q8 1 20 8q10 5 14 12zM98 281h343v48h-343v-48zM411 390v32q-3 -1 -7 -1q-2 -1 -6 -1q-23 0 -23 23v167q0 30 -9 51q-9 19 -27 30q-15 15 -35 19
q-28 4 -46 4q-51 0 -88 -25q-37 -27 -38 -82h44q1 38 24 55q22 16 53 16q37 0 59 -14q21 -15 21 -48q0 -20 -12 -26q-13 -9 -33 -12q-31 -5 -68 -14q-34 -10 -53 -19q-24 -12 -35 -31q-12 -20 -12 -50q0 -44 30 -65q29 -22 73 -22q50 0 78 19q27 18 33 45q0 -24 13 -38
q12 -16 36 -16q10 0 15 1q8 0 13 2z" />
    <glyph glyph-name="guillemotleft" unicode="&#xab;" horiz-adv-x="940" 
d="M590 -36l22 31l-462 303l457 317l-24 29l-472 -329v-31zM809 -32l20 31l-462 299l458 312l-23 30l-474 -325v-31z" />
    <glyph glyph-name="degree" unicode="&#xb0;" horiz-adv-x="446" 
d="M298 612q0 -30 -22 -54q-23 -23 -55 -23t-52 23q-23 22 -23 54t23 55q21 23 52 23q30 0 55 -23q22 -25 22 -55zM330 612q0 20 -8 42q-9 18 -25 34q-11 13 -32 23q-22 8 -44 8q-20 0 -39 -8q-22 -9 -34 -23q-18 -15 -24 -34q-8 -19 -8 -42q0 -25 8 -41q6 -21 24 -33
q14 -17 34 -24q18 -9 39 -9q23 0 44 9q19 8 32 24q17 13 25 33q8 19 8 41z" />
    <glyph glyph-name="plusminus" unicode="&#xb1;" horiz-adv-x="541" 
d="M218 463h-156v-100h156v-155h100v155h158v100h-158v156h-100v-156zM54 62h427v100h-427v-100z" />
    <glyph glyph-name="uni00B2" unicode="&#xb2;" horiz-adv-x="410" 
d="M281 666q0 29 -19 48q-20 17 -53 17q-35 0 -56 -24q-22 -23 -22 -59h31q0 26 11 42q11 17 35 17q43 0 43 -41q0 -21 -8 -34t-32 -29q-35 -23 -57 -45q-23 -23 -28 -65h152v28h-115q3 15 19 28l39 31q25 14 44 36q16 19 16 50z" />
    <glyph glyph-name="uni00B3" unicode="&#xb3;" horiz-adv-x="428" 
d="M293 561q0 23 -14 40q-15 15 -34 18q20 3 31 17q11 13 11 35q0 28 -20 45q-21 15 -55 15q-31 0 -53 -22q-22 -23 -22 -55h30q0 53 46 53q21 0 33 -9q11 -11 11 -27q0 -21 -11 -30q-11 -10 -30 -10h-15v-27h15q24 0 37 -9q12 -11 12 -34q0 -20 -14 -32q-14 -14 -39 -14
q-20 0 -34 13q-17 12 -15 40h-31q-2 -36 23 -56q24 -21 57 -21q37 0 59 19t22 51z" />
    <glyph glyph-name="acute" unicode="&#xb4;" horiz-adv-x="324" 
d="M101 514l145 211h-87l-81 -211h23z" />
    <glyph glyph-name="paragraph" unicode="&#xb6;" horiz-adv-x="605" 
d="M468 -112h56v825h-234q-52 0 -91 -15q-41 -16 -67 -39q-26 -28 -38 -62q-13 -35 -13 -76q0 -43 13 -75q12 -34 38 -61q28 -28 68 -40q36 -14 92 -14v-443h52v784h124v-784z" />
    <glyph glyph-name="cedilla" unicode="&#xb8;" horiz-adv-x="317" 
d="M254 -122q0 26 -18 46q-20 21 -46 21q-21 0 -29 -4q-16 -5 -23 -8l30 77h-32l-40 -102l9 -6q5 5 15 7q6 3 21 3q27 0 47 -9q18 -7 18 -28q0 -20 -18 -32q-20 -10 -42 -10q-19 0 -43 4q-20 7 -30 14l-14 -24q15 -10 38 -19q24 -8 44 -8q52 0 84 19q29 20 29 59z" />
    <glyph glyph-name="uni00B9" unicode="&#xb9;" horiz-adv-x="405" 
d="M211 495h30v233h-26q-3 -20 -15 -29q-12 -11 -36 -12v-20h47v-172z" />
    <glyph glyph-name="ordmasculine" unicode="&#xba;" horiz-adv-x="541" 
d="M374 545q0 -62 -29 -97q-30 -36 -79 -36t-76 36q-28 34 -28 97q0 59 28 96q27 36 76 36t79 -36q29 -38 29 -96zM98 281h343v48h-343v-48zM416 545q0 35 -11 68q-13 32 -30 55q-18 20 -47 34q-30 12 -62 12t-59 -12q-30 -13 -46 -34q-21 -23 -31 -55q-10 -30 -10 -68
q0 -41 10 -70q9 -32 31 -53q17 -25 46 -35q27 -12 59 -12t62 12q27 11 47 35q19 22 30 53t11 70z" />
    <glyph glyph-name="guillemotright" unicode="&#xbb;" horiz-adv-x="940" 
d="M127 -32l485 316v31l-478 325l-19 -30l458 -312l-462 -299zM346 -36l483 320v31l-474 329l-22 -29l457 -317l-462 -303z" />
    <glyph glyph-name="onequarter" unicode="&#xbc;" horiz-adv-x="737" 
d="M547 182v-157h-108zM591 -17h61v42h-61v231h-41l-165 -231v-42h162v-88h44v88zM111 7l539 561l-27 25l-540 -561zM178 345h43v361h-36q-3 -23 -8 -40q-5 -14 -13 -22q-9 -9 -23 -12q-20 -4 -32 -4v-35h69v-248z" />
    <glyph glyph-name="onehalf" unicode="&#xbd;" horiz-adv-x="705" 
d="M396 -108h240v41h-189q8 24 29 41q21 18 39 30q19 11 43 28q22 14 36 31q19 19 29 40q10 23 10 46q0 52 -31 80q-34 25 -80 25q-62 0 -90 -37q-29 -40 -26 -97h43q0 42 17 68t56 26q26 0 48 -16q20 -18 20 -49q0 -19 -6 -31q-5 -13 -20 -28q-14 -10 -23 -20
q-10 -9 -27 -19l-42 -30q-19 -12 -40 -32q-17 -20 -25 -42q-11 -22 -11 -55zM92 7l539 561l-26 25l-538 -561zM167 345h42v361h-37q-2 -13 -7 -40q-6 -17 -14 -22q-13 -9 -23 -12q-18 -4 -34 -4v-35h73v-248z" />
    <glyph glyph-name="threequarters" unicode="&#xbe;" horiz-adv-x="746" 
d="M552 180v-156h-108zM596 -18h61v42h-61v230h-41l-165 -230v-42h162v-89h44v89zM127 7l540 561l-28 25l-538 -561zM321 453q0 28 -14 51q-13 18 -43 35q22 9 33 30q9 19 9 46q0 22 -8 41q-9 17 -24 29q-20 13 -37 19q-23 5 -39 5q-56 0 -85 -35t-29 -91h42q-1 41 18 65
q19 22 54 22q26 0 47 -15q19 -16 19 -45q0 -27 -20 -41t-40 -14h-34v-40h34q31 0 53 -17q21 -18 21 -48q0 -34 -24 -52q-23 -19 -56 -19q-38 0 -58 24q-22 25 -19 66h-43q-6 -62 30 -95q33 -33 91 -33q24 0 44 8q20 6 41 22q12 10 26 34q11 20 11 48z" />
    <glyph glyph-name="questiondown" unicode="&#xbf;" horiz-adv-x="540" 
d="M87 115q0 -97 64 -146q54 -45 141 -45q30 0 70 5q15 3 73 16q15 5 15 18l-1 41q0 11 -18 8q-37 -12 -74 -19q-33 -6 -61 -6q-57 0 -96 34q-38 32 -38 94q0 54 22 95q5 7 27 37q13 19 39 45q21 20 37 42q15 20 23 36q28 50 28 113v10l-1 5q-1 0 -4 0.5t-6 0.5h-41
q-11 0 -11 -2q-2 -2 -2 -15q0 -55 -27 -100q-21 -35 -67 -82q-46 -48 -62 -79q-30 -47 -30 -106zM351 634q0 18 -13 34q-14 14 -35 14q-17 0 -33 -14q-16 -15 -16 -34q0 -20 16 -33q15 -15 33 -15q21 0 35 15q13 15 13 33z" />
    <glyph glyph-name="AE" unicode="&#xc6;" horiz-adv-x="812" 
d="M381 606v-367h-148zM381 -41h383v57h-316v284h287v57h-287v258h309v57h-413l-300 -713h75l89 221h173v-221z" />
    <glyph glyph-name="Eth" unicode="&#xd0;" horiz-adv-x="794" 
d="M661 315q0 -79 -17 -135q-18 -55 -51 -92q-34 -38 -86 -55q-50 -17 -129 -17h-131v310h119v48h-119v241h131q75 0 129 -17q53 -19 86 -53q33 -39 51 -94q17 -59 17 -136zM725 315q0 180 -83 269q-85 88 -234 88h-229v-298h-112v-48h112v-367h229q149 0 234 88
q83 88 83 268z" />
    <glyph glyph-name="multiply" unicode="&#xd7;" horiz-adv-x="470" 
d="M440 493l-63 69q-33 -28 -71 -65q-45 -45 -75 -80q-33 37 -46 54l-39 49q-8 8 -18 23q-13 14 -17 21l-69 -61q27 -43 61 -83q35 -43 66 -77l-62 -73q-31 -36 -60 -78l66 -63l30 36l31 38l28 34q15 19 29 34q35 -38 63 -65q20 -22 62 -64l74 64q-66 62 -135 138
q24 27 74 79q59 59 71 70z" />
    <glyph glyph-name="Oslash" unicode="&#xd8;" horiz-adv-x="780" 
d="M530 583l-303 -520q-45 42 -69 106q-24 63 -24 146q0 70 19 128q19 59 54 100q33 41 80 64q47 22 101 22q79 0 142 -46zM642 315q0 -69 -18 -126q-18 -58 -51 -100q-36 -44 -81 -64q-46 -23 -104 -23q-40 0 -69 10q-32 9 -61 28l300 516q39 -42 62 -103q22 -66 22 -138z
M708 315q0 103 -30 177q-32 72 -87 123l68 111l-34 20l-65 -109q-73 50 -172 50q-67 0 -124 -24q-60 -25 -102 -72q-43 -46 -67 -115q-25 -69 -25 -161q0 -108 33 -183q31 -77 94 -125l-78 -133l32 -22l76 131q35 -18 76 -30q39 -12 85 -12q66 0 127 25q59 28 102 74
q43 48 67 116q24 69 24 159z" />
    <glyph glyph-name="Thorn" unicode="&#xde;" horiz-adv-x="530" 
d="M382 315h-1q0 -52 -22 -90t-56 -61q-32 -26 -73 -37q-38 -11 -81 -11v399q38 0 82 -11q40 -12 73 -36q34 -28 56 -63q22 -39 22 -90zM446 315q0 64 -27 112q-26 46 -69 79q-42 30 -95 46q-56 14 -106 14v106h-66v-713h67v103q54 0 106 16q53 15 94 48q41 29 69 79
q27 47 27 110z" />
    <glyph glyph-name="germandbls" unicode="&#xdf;" horiz-adv-x="683" 
d="M508 485q0 -20 -7 -46q-9 -23 -28 -41q-19 -19 -45 -29q-28 -11 -69 -11h-228v257h228q74 0 113 -31q36 -33 36 -99zM616 136q0 35 -12 71q-13 31 -32 60q-28 31 -50 46q-26 17 -63 23q57 15 87 58q30 42 30 101q0 49 -17 86q-19 34 -47 54q-27 20 -67 29q-43 8 -86 8
h-292v-714h64v343h228q39 0 78 -13q38 -17 61 -34q25 -25 38 -53q12 -30 12 -67q0 -51 -12 -84q-12 -35 -36 -53q-24 -20 -53 -27q-35 -7 -65 -7q-18 0 -52 4q-27 6 -43 16q-23 16 -32 35q-11 19 -13 52h-68q3 -49 20 -77q15 -29 45 -52q26 -19 62 -28t81 -9q46 0 88 12
q39 11 74 40q34 28 53 71q19 47 19 109z" />
    <glyph glyph-name="ae" unicode="&#xe6;" horiz-adv-x="868" 
d="M388 246l-1 -87q-2 -77 -46 -120q-44 -44 -120 -44q-53 0 -79 23q-27 21 -27 67q0 33 13 53q12 20 41 33q28 13 73 25q60 13 98 19q35 6 48 31zM753 253h-302q1 36 12 69q9 31 30 58q15 26 45 41q27 15 63 15q34 0 66 -16q27 -16 46 -41q21 -28 30 -59q8 -31 10 -67z
M452 200h364q0 58 -12 112q-12 51 -37 92q-25 37 -64 62q-42 24 -103 24q-59 0 -98 -24q-40 -25 -67 -67q-20 55 -63 73q-45 18 -101 18q-44 0 -79 -11q-37 -12 -63 -31q-24 -23 -39 -55q-16 -34 -17 -78h61q3 63 39 93q36 28 89 28q60 0 93 -24q33 -25 33 -82
q0 -29 -16 -45q-18 -16 -53 -22q-53 -8 -108 -20q-50 -13 -85 -30q-37 -23 -56 -52q-20 -29 -20 -78q0 -39 14 -63q11 -25 33 -44q27 -17 53 -26q28 -9 64 -9q32 0 72 10q37 13 60 25q29 18 49 37q19 19 27 41q29 -52 75 -83q43 -30 105 -30q91 0 142 51q50 53 70 137h-64
q-5 -29 -16 -52q-13 -24 -29 -41q-22 -20 -45 -29q-26 -10 -59 -10q-39 0 -66 14q-31 14 -46 44q-22 28 -29 65q-8 32 -8 80z" />
    <glyph glyph-name="eth" unicode="&#xf0;" horiz-adv-x="592" 
d="M469 216q0 -47 -11 -88q-11 -38 -37 -71q-21 -30 -54 -45q-35 -15 -73 -15q-40 0 -70 15q-33 15 -57 45q-21 31 -33 71q-13 38 -13 88t13 90q13 41 33 70q25 28 57 44t70 16q36 0 73 -16q32 -16 54 -44q25 -31 37 -70q11 -44 11 -90zM532 218q0 124 -36 221
q-36 96 -116 173l52 53l-23 24l-57 -54q-34 27 -87 53l-16 -30q40 -32 69 -58l-58 -54l27 -26l54 56q29 -33 47 -58q19 -31 33 -65q-23 15 -56 27q-37 10 -71 10q-51 0 -96 -20q-45 -21 -74 -56q-35 -39 -49 -88q-17 -50 -17 -110q0 -62 17 -109q15 -49 49 -87
q31 -39 74 -59q45 -20 96 -20q53 0 99 20q43 20 74 59q31 35 49 87q16 54 16 111z" />
    <glyph glyph-name="divide" unicode="&#xf7;" horiz-adv-x="534" 
d="M54 279h427v100h-427v-100zM194 464h115v116h-115v-116zM209 93h115v116h-115v-116z" />
    <glyph glyph-name="oslash" unicode="&#xf8;" horiz-adv-x="612" 
d="M375 421l-177 -383q-32 26 -50 74q-19 45 -19 104q0 51 14 90q12 38 34 70q25 28 57 44t70 16t71 -15zM481 216q0 -49 -12 -88q-13 -39 -38 -71q-21 -30 -54 -45q-35 -15 -73 -15q-40 0 -70 15l179 384q32 -29 50 -75q18 -48 18 -105zM542 216q0 77 -26 140
q-26 59 -78 95l36 80l-40 17l-34 -78q-40 20 -96 20q-54 0 -97 -20q-45 -22 -75 -56q-31 -37 -46 -88q-16 -51 -16 -110q0 -80 26 -138q26 -60 75 -96l-43 -90l40 -17l41 88q44 -22 95 -22q54 0 100 20q42 20 73 59q30 36 48 87q17 51 17 109z" />
    <glyph glyph-name="thorn" unicode="&#xfe;" horiz-adv-x="599" 
d="M449 216h-1q0 -46 -13 -88q-15 -43 -35 -71q-25 -30 -56 -45q-32 -15 -71 -15q-79 0 -123 56v327q50 56 124 56q36 0 71 -16q30 -17 56 -44q18 -26 35 -70q13 -45 13 -90zM508 216q0 54 -16 110q-18 51 -46 88q-30 34 -75 56q-46 20 -98 20q-32 0 -69 -10
q-36 -13 -54 -29v221h-63v-815h64v126q19 -19 55 -32q37 -10 68 -10q52 0 98 20q43 21 75 59q27 36 45 87q16 53 16 109z" />
    <glyph glyph-name="dcroat" unicode="&#x111;" horiz-adv-x="663" 
d="M455 216q0 -36 -10 -79q-10 -39 -29 -72q-24 -31 -55 -48q-31 -20 -82 -20q-46 0 -76 20q-32 18 -49 48q-22 31 -30 72q-9 39 -9 79q0 39 9 80q8 40 30 71q16 29 49 50q33 19 76 19q45 0 80 -19q32 -21 55 -50q18 -31 30 -71q11 -42 11 -80zM514 545h95v47h-95v80h-59
v-80h-98v-47h98v-168q-24 49 -72 82q-51 31 -104 31q-57 0 -101 -22q-45 -25 -68 -59q-28 -38 -43 -88q-15 -51 -15 -105t15 -104q15 -51 43 -88q24 -36 68 -60q43 -23 101 -23q57 0 107 30q48 32 69 85v-97h59v586z" />
    <glyph glyph-name="Hbar" unicode="&#x126;" horiz-adv-x="783" 
d="M595 499v-134h-411v134h411zM663 499h48v47h-48v126h-68v-126h-411v126h-64v-126h-50v-47h50v-540h64v347h411v-347h68v540z" />
    <glyph glyph-name="hbar" unicode="&#x127;" horiz-adv-x="653" 
d="M481 -41h61v332q0 40 -10 82q-10 33 -32 62q-23 25 -57 41q-37 14 -86 14q-25 0 -51 -8q-18 -6 -50 -22q-21 -15 -36 -33q-17 -19 -25 -42v159h179v47h-179v81h-63v-81h-91v-47h92v-585h63v300q0 40 10 71q9 32 33 56q17 23 48 37q33 13 64 13q33 0 60 -11q21 -10 41 -34
q12 -22 21 -49q8 -32 8 -61v-322z" />
    <glyph glyph-name="dotlessi" unicode="&#x131;" horiz-adv-x="280" 
d="M109 -41h61v515h-61v-515z" />
    <glyph glyph-name="IJ" unicode="&#x132;" horiz-adv-x="685" 
d="M79 -41h64v713h-64v-713zM606 173v499h-66v-502q0 -89 -33 -128q-34 -41 -92 -41q-72 0 -105 42q-36 42 -33 135h-68q-1 -118 47 -177q46 -60 152 -60q94 0 147 56q51 55 51 176z" />
    <glyph glyph-name="ij" unicode="&#x133;" horiz-adv-x="493" 
d="M120 -41h59v515h-59v-515zM373 -77v551h-63v-556q0 -36 -9 -51q-11 -15 -41 -15h-11q-2 0 -5.5 0.5t-4.5 0.5v-52q1 0 5.5 -0.5t7.5 -0.5h20q56 0 79 32q22 35 22 91zM119 572h61v100h-61v-100zM309 572h65v100h-65v-100z" />
    <glyph glyph-name="kgreenlandic" unicode="&#x138;" horiz-adv-x="568" 
d="M425 -41h75l-224 325l208 190h-84l-273 -248v248h-59v-515h59v189l103 93z" />
    <glyph glyph-name="Ldot" unicode="&#x13f;" horiz-adv-x="576" 
d="M65 -41h444v57h-380v656h-64v-713zM309 303h101v97h-101v-97z" />
    <glyph glyph-name="ldot" unicode="&#x140;" horiz-adv-x="412" 
d="M76 -41h59v713h-59v-713zM242 305h92v93h-92v-93z" />
    <glyph glyph-name="Lslash" unicode="&#x141;" horiz-adv-x="770" 
d="M247 -41h446v57h-380v307l186 186l-41 39l-145 -149v273h-66v-337l-170 -171l39 -39l131 131v-297z" />
    <glyph glyph-name="lslash" unicode="&#x142;" horiz-adv-x="455" 
d="M258 349l117 115l-34 32l-84 -84v260h-59v-322l-118 -118l32 -30l87 87v-330h59v390z" />
    <glyph glyph-name="napostrophe" unicode="&#x149;" horiz-adv-x="727" 
d="M188 506h-3v101h-102v-101h60q0 -35 -14 -60q-16 -25 -46 -31v-41q47 8 76 46t29 86zM582 -41h59v332q0 45 -9 82t-33 62q-20 26 -56 41q-37 14 -85 14q-27 0 -54 -8q-26 -9 -46 -21q-26 -16 -40 -33q-18 -21 -24 -43l1 89h-60v-515h61v300q0 38 12 71q13 34 31 56
q20 23 50 37q29 13 64 13q64 0 97 -41q32 -43 32 -113v-323z" />
    <glyph glyph-name="Eng" unicode="&#x14a;" horiz-adv-x="705" 
d="M625 -33v705h-68v-606l-402 606h-75v-713h66v604l406 -609q0 -42 -24 -70q-24 -27 -70 -27q-41 0 -66 22q-26 23 -26 80h-68q0 -79 39 -119q40 -40 121 -40q42 0 78 13q33 14 50 34q21 24 30 54t9 66z" />
    <glyph glyph-name="eng" unicode="&#x14b;" horiz-adv-x="619" 
d="M511 -38v329q0 45 -9 82q-9 36 -32 62q-20 26 -56 41q-37 14 -85 14q-27 0 -53 -8q-26 -9 -49 -21q-20 -14 -37 -33q-19 -22 -23 -43v89h-61v-515h61v300q0 38 12 71q11 32 30 56q20 23 51 37q29 13 63 13q64 0 97 -41q32 -43 32 -113v-320q0 -58 -26 -79
q-27 -21 -69 -21q-39 0 -62 18q-24 18 -29 61h-61q3 -36 16 -62q13 -27 31 -41q20 -14 49 -24q30 -7 56 -7q71 0 114 41q40 43 40 114z" />
    <glyph glyph-name="OE" unicode="&#x152;" horiz-adv-x="866" 
d="M417 615v-599h-36q-78 0 -125 17q-53 17 -85 55q-33 36 -45 92q-14 50 -14 135q0 83 14 136q12 53 46 94q31 34 85 53q51 17 125 17h35zM356 -41h464v57h-338v284h307v57h-307v258h331v57h-458q-155 0 -233 -87t-78 -270t79 -269q78 -87 233 -87z" />
    <glyph glyph-name="oe" unicode="&#x153;" horiz-adv-x="882" 
d="M422 216h-1q0 -49 -9 -88q-8 -39 -31 -71q-19 -30 -50 -45t-70 -15t-68 15q-30 15 -51 45q-20 31 -30 71q-11 36 -11 88q0 48 12 90q11 39 29 70q21 27 52 44q30 16 68 16q36 0 70 -16q30 -17 50 -44q22 -32 31 -70q9 -42 9 -90zM779 253h-295q3 36 12 69q8 32 28 58
q19 27 44 41q24 15 62 15q35 0 64 -16q24 -15 47 -41q16 -29 27 -59q10 -35 11 -67zM485 200h353q0 58 -9 112q-9 52 -35 92q-25 37 -63 62q-41 24 -102 24q-71 0 -112 -35t-65 -91q-32 58 -75 92q-46 34 -116 34q-52 0 -94 -20q-44 -22 -71 -56q-26 -37 -40 -88
q-14 -49 -14 -110q0 -60 15 -109q14 -52 40 -87q27 -38 70 -59q42 -20 95 -20q70 0 116 34q46 38 75 91q26 -56 71 -92q42 -33 107 -33q89 0 139 51q48 51 66 137h-60q-13 -42 -17 -52q-11 -25 -27 -41q-22 -21 -43 -29q-23 -10 -59 -10q-41 0 -65 14q-27 14 -47 44
q-19 29 -25 65q-8 32 -8 80z" />
    <glyph glyph-name="Tbar" unicode="&#x166;" horiz-adv-x="649" 
d="M357 615h230v57h-529v-57h233v-286h-140v-48h140v-322h66v322h135v48h-135v286z" />
    <glyph glyph-name="tbar" unicode="&#x167;" horiz-adv-x="440" 
d="M344 -47v53q-16 -2 -52 -2q-31 0 -39 14q-10 13 -10 46v220h91v48h-91v89h101v53h-101v155h-63v-155h-88v-53h89v-89h-79v-48h79v-221q0 -34 7 -55q6 -24 19 -35q9 -11 31 -17q23 -5 54 -5h26q18 2 26 2z" />
    <glyph glyph-name="afii57929" unicode="&#x2bc;" horiz-adv-x="0" 
 />
    <glyph glyph-name="caron" unicode="&#x2c7;" horiz-adv-x="514" 
d="M255 588l204 102l-15 30l-189 -91l-185 91l-19 -30z" />
    <glyph glyph-name="breve" unicode="&#x2d8;" horiz-adv-x="516" 
d="M464 699l-30 18q-33 -50 -73 -70q-42 -23 -105 -23q-60 0 -100 23q-42 21 -76 70l-32 -18q39 -59 90 -85q49 -26 118 -26q71 0 120 25t88 86z" />
    <glyph glyph-name="dotaccent" unicode="&#x2d9;" horiz-adv-x="254" 
d="M196 616q0 26 -20 48q-22 20 -51 20t-49 -20t-20 -48q0 -30 20 -49q19 -20 49 -20q31 0 51 20t20 49z" />
    <glyph glyph-name="ring" unicode="&#x2da;" horiz-adv-x="320" 
d="M236 616q0 -32 -22 -54q-22 -23 -54 -23q-35 0 -55 23q-22 21 -22 54q0 31 22 53t55 22q30 0 54 -22q22 -24 22 -53zM265 616q0 16 -7 41q-10 19 -22 33q-18 15 -36 24q-22 8 -40 8q-24 0 -43 -8q-20 -9 -34 -24q-12 -14 -22 -33q-10 -20 -10 -41q0 -25 10 -42
q9 -22 22 -33q14 -18 34 -24q16 -8 43 -8q21 0 40 8q18 6 36 24q13 11 22 33q7 21 7 42z" />
    <glyph glyph-name="ogonek" unicode="&#x2db;" horiz-adv-x="298" 
d="M233 -123l-20 13q-9 -12 -29 -26q-19 -11 -42 -11q-14 0 -22 11q-9 12 -9 25q0 11 9 30q8 21 32 44l-18 15q-36 -24 -52 -52q-17 -25 -17 -47q0 -30 16 -50q15 -21 51 -21q31 0 56 19q25 25 45 50z" />
    <glyph glyph-name="tilde" unicode="&#x2dc;" horiz-adv-x="0" 
 />
    <glyph glyph-name="hungarumlaut" unicode="&#x2dd;" horiz-adv-x="468" 
d="M87 512l145 211h-86l-81 -211h22zM258 512l145 211h-86l-81 -211h22z" />
    <glyph glyph-name="Alpha" unicode="&#x391;" horiz-adv-x="714" 
d="M357 604l134 -365h-270zM591 -41h73l-272 713h-72l-272 -713h73l81 221h308z" />
    <glyph glyph-name="Beta" unicode="&#x392;" horiz-adv-x="680" 
d="M542 159q0 -38 -14 -66q-14 -27 -37 -45q-27 -16 -59 -24q-29 -8 -70 -8h-228v285h228q87 0 134 -35q46 -37 46 -107zM516 485q0 -22 -8 -46q-8 -21 -28 -41q-23 -19 -50 -29q-26 -11 -68 -11h-228v257h228q154 0 154 -130zM610 160q0 71 -39 119q-41 48 -109 57
q59 15 90 58t31 101q0 50 -18 86q-18 33 -48 54q-26 19 -68 29q-45 8 -87 8h-292v-713h292q112 0 181 48q67 49 67 153z" />
    <glyph glyph-name="Gamma" unicode="&#x393;" horiz-adv-x="620" 
d="M139 615h404v57h-468v-713h64v656z" />
    <glyph glyph-name="uni0394" unicode="&#x394;" horiz-adv-x="734" 
d="M367 583l216 -567h-432zM63 -41h606l-277 713h-54z" />
    <glyph glyph-name="Epsilon" unicode="&#x395;" horiz-adv-x="593" 
d="M58 -41h475v57h-408v284h375v57h-375v258h401v57h-468v-713z" />
    <glyph glyph-name="Zeta" unicode="&#x396;" horiz-adv-x="655" 
d="M58 -41h535v57h-461l455 596v60h-498v-57h418l-449 -597v-59z" />
    <glyph glyph-name="Eta" unicode="&#x397;" horiz-adv-x="663" 
d="M537 -41h64v713h-64v-307h-412v307h-67v-713h67v347h412v-347z" />
    <glyph glyph-name="Theta" unicode="&#x398;" horiz-adv-x="760" 
d="M189 290h378v57h-378v-57zM632 315q0 -66 -19 -126q-19 -56 -50 -100q-36 -44 -82 -64q-46 -23 -103 -23t-103 23q-48 21 -79 64q-35 43 -52 100q-19 56 -19 126t19 128q18 58 53 100q33 41 80 64q47 22 101 22q53 0 103 -22q48 -24 82 -64q30 -42 50 -100
q19 -63 19 -128zM700 315q0 88 -25 161q-25 67 -68 115q-45 47 -102 72q-59 24 -127 24t-125 -24q-59 -26 -101 -72q-45 -48 -68 -115q-26 -68 -26 -161t26 -158q24 -69 68 -116q40 -46 101 -74q58 -26 125 -26q66 0 127 25q59 28 102 74q43 47 68 116q25 72 25 159z" />
    <glyph glyph-name="Iota" unicode="&#x399;" horiz-adv-x="245" 
d="M87 -41h69v713h-69v-713z" />
    <glyph glyph-name="Kappa" unicode="&#x39a;" horiz-adv-x="669" 
d="M528 -41h80l-309 420l292 293h-85l-381 -379v379h-66v-713h66v244l125 126z" />
    <glyph glyph-name="Lambda" unicode="&#x39b;" horiz-adv-x="714" 
d="M591 -41h73l-272 713h-72l-272 -713h73l236 645z" />
    <glyph glyph-name="Mu" unicode="&#x39c;" horiz-adv-x="812" 
d="M674 -41h68v713h-100l-236 -626l-239 626h-97v-713h64v620l239 -620h66l235 620v-620z" />
    <glyph glyph-name="Nu" unicode="&#x39d;" horiz-adv-x="685" 
d="M540 -41h75v713h-68v-606l-404 606h-73v-713h64v604z" />
    <glyph glyph-name="Xi" unicode="&#x39e;" horiz-adv-x="680" 
d="M48 -41h580v57h-580v-57zM160 300h358v57h-358v-57zM53 615h572v57h-572v-57z" />
    <glyph glyph-name="Omicron" unicode="&#x39f;" horiz-adv-x="760" 
d="M632 315q0 -66 -19 -126q-19 -56 -50 -100q-36 -44 -82 -64q-46 -23 -103 -23t-103 23q-48 21 -79 64q-35 43 -52 100q-19 56 -19 126t19 128q18 58 53 100q33 41 80 64q47 22 101 22q53 0 103 -22q48 -24 82 -64q30 -42 50 -100q19 -63 19 -128zM700 315q0 88 -25 161
q-25 67 -68 115q-45 47 -102 72q-59 24 -127 24t-125 -24q-59 -26 -101 -72q-45 -48 -68 -115q-26 -68 -26 -161t26 -158q24 -69 68 -116q40 -46 101 -74q58 -26 125 -26q66 0 127 25q59 28 102 74q43 47 68 116q25 72 25 159z" />
    <glyph glyph-name="Pi" unicode="&#x3a0;" horiz-adv-x="642" 
d="M504 -41h68v713h-502v-713h64v656h370v-656z" />
    <glyph glyph-name="Rho" unicode="&#x3a1;" horiz-adv-x="630" 
d="M502 468q0 -76 -42 -110q-42 -35 -112 -35h-223v292h223q68 0 112 -35q42 -36 42 -112zM570 468q0 47 -15 86q-15 38 -44 65q-25 24 -63 39q-40 14 -84 14h-306v-713h67v305h239q93 0 150 54q56 54 56 150z" />
    <glyph glyph-name="Sigma" unicode="&#x3a3;" horiz-adv-x="613" 
d="M48 -41h515v57h-440l229 291v51l-218 257h411v57h-497v-52l246 -288l-246 -314v-59z" />
    <glyph glyph-name="Tau" unicode="&#x3a4;" horiz-adv-x="629" 
d="M345 615h234v57h-531v-57h233v-656h64v656z" />
    <glyph glyph-name="Upsilon" unicode="&#x3a5;" horiz-adv-x="692" 
d="M377 254l261 418h-72l-222 -356l-219 356h-75l263 -418v-295h64v295z" />
    <glyph glyph-name="Phi" unicode="&#x3a6;" horiz-adv-x="750" 
d="M340 509v-378q-50 3 -89 17q-44 12 -74 36t-48 57q-19 32 -19 79q0 46 19 80q17 32 48 58q31 22 74 35q47 13 89 16zM638 320q0 -46 -18 -79q-20 -33 -48 -57q-34 -24 -74 -36q-40 -14 -90 -17v378q42 -3 90 -16q38 -12 74 -35q29 -26 48 -58q18 -35 18 -80zM701 320
q0 56 -23 100q-25 44 -62 74q-42 30 -94 47q-56 17 -114 21v110h-68v-110q-60 -4 -114 -21q-55 -18 -94 -47q-41 -32 -62 -74q-23 -42 -23 -100q0 -59 23 -99q20 -43 62 -74q37 -29 94 -46q58 -19 114 -22v-120h68v120q55 3 114 22q54 17 94 46q38 29 62 74q23 43 23 99z
" />
    <glyph glyph-name="Chi" unicode="&#x3a7;" horiz-adv-x="680" 
d="M548 -41h79l-251 368l238 345h-78l-197 -291l-197 291h-76l235 -347l-252 -366h79l210 310z" />
    <glyph glyph-name="Psi" unicode="&#x3a8;" horiz-adv-x="792" 
d="M741 603l-9 59q-24 0 -47 -12q-20 -10 -44 -29q-16 -18 -29 -43q-13 -23 -13 -53v-175q0 -37 -14 -62t-41 -41q-24 -18 -54 -24q-29 -8 -63 -8v457h-64v-457q-34 0 -61 8q-31 6 -55 24q-28 16 -41 41q-15 24 -15 62v175q0 29 -12 53q-11 23 -30 43q-21 16 -43 29
q-24 12 -48 12l-9 -59q31 0 55 -22q21 -23 21 -64v-166q0 -51 21 -87q22 -39 56 -59q33 -25 77 -36q39 -11 84 -11v-199h64v199q45 0 85 11q41 10 76 36q35 20 58 59q21 36 21 87v166q0 41 21 64q20 22 53 22z" />
    <glyph glyph-name="uni03A9" unicode="&#x3a9;" horiz-adv-x="700" 
d="M638 409q0 59 -23 111q-25 52 -62 86q-39 33 -92 55q-55 19 -113 19q-54 0 -111 -19q-57 -22 -91 -55q-39 -35 -64 -86q-24 -51 -24 -111q0 -102 49 -169q48 -69 142 -93v-131h-118v114h-64v-171h243v231q-88 24 -136 75q-49 49 -49 145q0 48 18 88q19 41 49 67
q26 28 69 47q42 16 87 16t88 -16q42 -19 71 -47q32 -27 50 -67q17 -42 17 -88q0 -95 -50 -145q-51 -51 -137 -75v-231h244v171h-64v-114h-115v131q90 24 138 93q48 68 48 169z" />
    <glyph glyph-name="alpha" unicode="&#x3b1;" horiz-adv-x="492" 
d="M301 219q0 -101 -28 -160t-79 -59q-56 0 -83 61q-28 59 -28 158q0 105 29 160t82 55q54 0 81 -55q26 -58 26 -160zM466 40l-47 18q-3 -21 -6 -38q-6 -16 -15 -16q-14 0 -23 38q-9 36 -15 102l86 336h-61l-41 -165q-3 34 -12 67q-11 32 -31 55q-18 23 -44 39
q-28 14 -59 14q-79 0 -127 -68q-49 -68 -49 -203q0 -134 43 -204q42 -72 130 -72q42 0 75 24q32 25 50 73q18 -92 76 -92q27 0 45 20q16 20 25 72z" />
    <glyph glyph-name="beta" unicode="&#x3b2;" horiz-adv-x="452" 
d="M368 158q0 -28 -10 -58q-11 -31 -25 -50q-18 -21 -45 -33q-26 -13 -58 -13q-24 0 -42 3q-21 3 -32 10q-17 5 -29 18q-13 10 -29 26v449q0 61 32 87q32 27 87 27q61 0 93 -37q30 -37 30 -93q0 -68 -22 -103q-22 -34 -57 -34q-17 0 -36 3q-22 2 -43 6v-63l43 6q28 2 37 2
q20 0 40 -9q17 -8 31 -29q14 -18 25 -48q10 -33 10 -67zM432 159q0 34 -8 66q-10 31 -22 50q-15 22 -33 40q-17 14 -33 22q34 21 53 60q19 40 19 96q0 39 -14 75q-14 32 -38 60q-27 22 -60 38q-36 15 -79 15q-39 0 -72 -11q-33 -12 -59 -35q-23 -21 -35 -53q-14 -31 -14 -72
v-695h61v170q28 -22 65 -32q40 -10 78 -10q46 0 82 18q35 19 59 49q27 29 39 70q11 39 11 79z" />
    <glyph glyph-name="gamma" unicode="&#x3b3;" horiz-adv-x="450" 
d="M321 -38q0 -23 -10 -45q-10 -17 -22 -29q-20 -12 -31 -16q-20 -5 -35 -5q-14 0 -32 5q-16 5 -30 16q-16 13 -24 29q-10 19 -10 45t17 57q15 30 47 78l32 51l34 -51q32 -45 49 -79q15 -33 15 -56zM259 202l185 272h-73l-148 -219l-144 219h-75l185 -272l-49 -72
q-36 -59 -53 -91q-23 -40 -23 -76q0 -37 12 -66q12 -26 37 -47q19 -16 50 -27q33 -10 60 -10q29 0 62 10q30 11 51 27q25 22 36 47q12 29 12 66q0 32 -22 76l-56 91z" />
    <glyph glyph-name="delta" unicode="&#x3b4;" horiz-adv-x="449" 
d="M360 178q0 -84 -34 -129q-35 -44 -106 -44q-65 0 -101 48q-36 47 -36 125q0 38 7 67q6 28 26 56q13 23 40 38q28 13 64 13q35 0 66 -13q25 -14 44 -39q13 -26 22 -56q8 -34 8 -66zM429 178q0 41 -7 83q-10 37 -25 62q-20 26 -44 47q-23 19 -61 41q-10 6 -33 21
q-28 18 -48 35q-21 20 -38 44q-18 22 -18 44q0 31 21 50q21 18 56 18q41 0 63 -17q21 -18 21 -57h63q0 29 -10 56q-11 22 -33 41q-18 16 -47 26q-30 8 -56 8q-28 0 -55 -8q-28 -9 -48 -25q-19 -17 -30 -37q-13 -22 -13 -51q0 -49 30 -83q30 -37 76 -63q-38 -3 -71 -21
q-32 -17 -54 -49q-26 -33 -38 -73q-14 -39 -14 -92q0 -55 14 -94q12 -43 41 -74q23 -30 61 -48q39 -17 88 -17q102 0 156 62q53 61 53 171z" />
    <glyph glyph-name="epsilon" unicode="&#x3b5;" horiz-adv-x="445" 
d="M418 101h-63q-15 -52 -49 -75q-33 -23 -91 -23q-23 0 -44 6q-23 6 -43 18q-16 13 -28 34q-12 20 -12 46q0 28 14 46q13 17 35 28q23 9 56 15q30 6 69 6v57q-30 0 -58 3q-30 2 -49 11q-24 9 -36 27q-12 15 -12 49q0 23 9 38t25 28q19 9 40 15q23 5 44 5q51 0 81 -19
q26 -19 37 -59h67q-15 70 -63 104q-50 33 -122 33q-29 0 -66 -10q-34 -10 -61 -27q-26 -21 -40 -46q-16 -26 -16 -63q0 -44 19 -72q17 -29 55 -44q-23 -5 -39 -16q-15 -10 -29 -31q-12 -19 -18 -38q-7 -21 -7 -45q0 -42 15 -70q16 -31 44 -51q26 -18 62 -28q37 -10 73 -10
q75 0 132 37q54 36 69 121z" />
    <glyph glyph-name="zeta" unicode="&#x3b6;" horiz-adv-x="452" 
d="M420 -74q0 56 -35 86q-36 30 -119 39q-49 5 -77 12q-30 6 -54 27q-16 14 -27 43q-11 25 -11 50q0 61 25 121q24 60 60 117q36 53 82 106q48 55 85 89l-18 55h-267v-52h203q-40 -43 -77 -90q-43 -54 -75 -109q-36 -62 -56 -120q-23 -58 -23 -118q0 -16 3 -34q3 -22 11 -36
q7 -20 18 -34q10 -16 21 -27q28 -25 61 -35q36 -13 72 -16q31 -2 65 -10q26 -4 43 -12q11 -5 21 -19q8 -11 8 -31q0 -31 -17 -48q-18 -15 -50 -15q-27 0 -53 7q-19 6 -47 20l-22 -54q31 -14 61 -22q34 -8 61 -8q56 0 93 29q35 30 35 89z" />
    <glyph glyph-name="eta" unicode="&#x3b7;" horiz-adv-x="468" 
d="M443 -77l-47 34q-7 -19 -14 -29q-8 -9 -16 -9q-15 0 -18 9q-4 8 -4 31v341q0 44 -5 84q-6 34 -22 57q-21 26 -45 37q-27 12 -68 12q-28 0 -48 -9q-22 -11 -34 -23q-19 -22 -25 -35q-11 -17 -14 -38v89h-62v-515h62v320q0 73 30 115q29 42 82 42q88 0 88 -144v-338
q0 -40 18 -66q17 -24 64 -24q25 0 45 13q18 15 33 46z" />
    <glyph glyph-name="theta" unicode="&#x3b8;" horiz-adv-x="446" 
d="M81 290h284q-3 -66 -12 -117q-11 -55 -25 -91q-19 -37 -45 -59q-27 -21 -62 -21q-33 0 -60 21q-28 21 -43 59q-20 36 -28 91q-9 51 -9 117zM365 347h-284q2 67 10 116q8 52 28 88q16 37 42 58q28 20 60 20q33 0 61 -20q23 -19 46 -58q14 -35 25 -88q9 -52 12 -116z
M429 315q0 181 -48 277q-48 95 -160 95q-111 0 -159 -95q-49 -95 -49 -277t49 -277q48 -97 159 -97t160 97q48 96 48 277z" />
    <glyph glyph-name="iota" unicode="&#x3b9;" horiz-adv-x="416" 
d="M324 66h-64q0 -27 -10 -47q-10 -19 -42 -19q-33 0 -42 16q-11 14 -11 46v418h-65v-418q0 -119 118 -119q57 0 87 32q29 34 29 91z" />
    <glyph glyph-name="kappa" unicode="&#x3ba;" horiz-adv-x="472" 
d="M361 -41h71l-197 330l191 191h-80l-255 -254v254h-59v-521h59v189l99 95z" />
    <glyph glyph-name="lambda" unicode="&#x3bb;" horiz-adv-x="449" 
d="M440 29h-65q-1 -27 -9 -38q-9 -9 -31 -9q-15 0 -26 24q-11 21 -19 60l-133 516q-15 53 -47 84q-35 24 -92 24v-57q16 0 28 -3q10 -3 24 -15q6 -8 14 -24l10 -35l45 -174l-129 -423h69l91 303l52 -201q9 -31 20 -63q7 -23 20 -42q14 -18 31 -27q18 -8 44 -8q41 0 69 25
q27 27 34 83z" />
    <glyph glyph-name="uni03BC" unicode="&#x3bc;" horiz-adv-x="453" 
d="M352 -41h65v521h-65v-290q0 -40 -8 -75q-9 -34 -24 -61q-19 -29 -44 -43t-60 -14q-66 0 -92 38q-27 37 -27 103v342h-61v-673h61v164q20 -12 47 -21q24 -9 58 -9q64 0 100 30q35 31 50 78v-90z" />
    <glyph glyph-name="nu" unicode="&#x3bd;" horiz-adv-x="454" 
d="M276 -41l163 521h-63l-136 -448l-111 374q-7 26 -14 38q-8 13 -26 23q-13 8 -29 11q-26 2 -51 2v-55q27 0 39 -5q18 -9 27 -36l130 -425h71z" />
    <glyph glyph-name="xi" unicode="&#x3be;" horiz-adv-x="443" 
d="M402 -74q0 53 -46 84q-46 28 -134 42q-57 9 -89 40q-34 30 -34 87q0 39 16 67t44 52q25 20 58 36q33 15 69 24v53q-16 6 -28 12q-19 6 -34 16q-15 11 -24 24q-10 11 -10 30t14 39q13 20 36 38q18 18 40 34q19 14 38 24l-13 44h-245v-52h153q-12 -12 -27 -24
q-17 -14 -27 -31q-16 -16 -25 -34t-9 -35q0 -26 5 -39q4 -16 17 -27q11 -15 22 -22q11 -11 33 -22q-78 -30 -119 -80q-43 -52 -43 -133q0 -45 14 -73q11 -31 35 -53q25 -23 58 -34q28 -11 69 -16q68 -7 95 -24q26 -15 26 -43q0 -30 -19 -46q-21 -15 -46 -15q-18 0 -43 7
q-21 8 -33 18l-23 -56q39 -30 99 -30q22 0 48 8q19 8 43 23q14 14 27 37q12 23 12 50z" />
    <glyph glyph-name="omicron" unicode="&#x3bf;" horiz-adv-x="450" 
d="M370 216q0 -47 -11 -88q-12 -42 -28 -71q-21 -29 -47 -45q-27 -15 -61 -15q-33 0 -60 15q-29 15 -44 45q-21 30 -30 71q-9 39 -9 88q0 48 9 90q9 40 30 70q15 27 44 44q29 16 60 16q32 0 61 -16q26 -17 47 -44q15 -27 28 -70q11 -44 11 -90zM429 216q0 57 -12 110
q-11 48 -40 88q-26 34 -63 56q-40 20 -91 20t-89 -20q-40 -22 -63 -56q-29 -39 -41 -88q-13 -51 -13 -110q0 -61 13 -109q12 -50 41 -87q24 -38 63 -59q38 -20 89 -20t91 20q35 21 63 59t40 87t12 109z" />
    <glyph glyph-name="pi" unicode="&#x3c0;" horiz-adv-x="459" 
d="M442 48l-57 14q-6 -40 -10 -48q-6 -10 -24 -10q-17 0 -21 8q-5 6 -5 35v379h105v53h-419v-53h107v-356q0 -32 -16 -51q-11 -10 -26 -11q-18 -3 -39 -3v-58q42 0 69 6q25 7 46 23q27 30 27 96v354h81v-383q0 -54 23 -76q24 -22 63 -22q44 0 65 23q21 24 31 80z" />
    <glyph glyph-name="rho" unicode="&#x3c1;" horiz-adv-x="450" 
d="M370 216q0 -47 -11 -88q-12 -42 -28 -71q-21 -29 -47 -45q-27 -15 -61 -15q-33 0 -60 15q-29 15 -44 45q-21 30 -30 71q-9 39 -9 88q0 48 9 90q9 40 30 70q15 27 44 44q29 16 60 16q32 0 61 -16q26 -17 47 -44q15 -27 28 -70q11 -44 11 -90zM429 216q0 57 -12 110
q-11 48 -40 88q-26 34 -63 56q-40 20 -91 20q-49 0 -89 -19q-40 -22 -63 -56q-29 -37 -41 -87q-13 -49 -13 -111v-417h63v211q21 -31 59 -51q38 -19 84 -19q51 0 91 20q35 21 63 59t40 87t12 109z" />
    <glyph glyph-name="sigma" unicode="&#x3c3;" horiz-adv-x="461" 
d="M369 216q0 -47 -11 -88q-12 -42 -28 -71q-21 -29 -47 -45q-27 -15 -61 -15q-33 0 -60 15q-29 15 -44 45q-21 30 -30 71q-9 39 -9 88q0 48 9 90q9 40 30 70q15 27 44 44q29 16 60 16q32 0 61 -16q26 -17 47 -44q15 -27 28 -70q11 -44 11 -90zM443 437v58q-29 6 -67 9
q-26 1 -74 1q-37 -1 -70 -6q-31 -6 -62 -17q-34 -11 -60 -34q-28 -24 -50 -58q-19 -33 -31 -78q-13 -43 -13 -96q0 -61 13 -109q12 -50 41 -87q24 -38 63 -59q38 -20 89 -20t91 20q35 21 63 59t40 87t12 109q0 76 -22 139q-22 57 -65 94q21 3 49 0q28 -5 53 -12z" />
    <glyph glyph-name="tau" unicode="&#x3c4;" horiz-adv-x="446" 
d="M213 426h217v53h-419v-53h141v-380q0 -52 28 -77q27 -24 68 -24q44 0 69 24q24 24 33 81l-55 14q-3 -40 -15 -49q-11 -11 -29 -11q-13 0 -25 9q-13 7 -13 35v378z" />
    <glyph glyph-name="upsilon" unicode="&#x3c5;" horiz-adv-x="445" 
d="M415 160q0 24 -4 82q-8 56 -14 86q-6 21 -22 85q-12 41 -30 79l-62 -18q31 -75 48 -159q16 -90 16 -159q0 -78 -32 -115q-33 -37 -106 -37q-45 0 -77 24q-33 22 -33 80v373h-61v-373q0 -46 14 -74q11 -31 35 -53q26 -18 58 -27q30 -9 69 -9q100 0 151 56q50 55 50 159z
" />
    <glyph glyph-name="phi" unicode="&#x3c6;" horiz-adv-x="450" 
d="M195 432v-431q-58 12 -88 70q-32 55 -32 145q0 89 32 146q30 58 88 70zM375 216q0 -86 -34 -145q-34 -58 -89 -70v431q54 -12 89 -70q34 -60 34 -146zM434 216q0 53 -11 103q-11 44 -37 80q-21 35 -56 60q-38 22 -78 28v185h-57v-185q-43 -6 -78 -28q-34 -23 -58 -60
q-23 -36 -34 -80q-13 -46 -13 -103t13 -103q11 -45 34 -81q22 -33 58 -58q34 -22 78 -29v-143h57v143q41 7 78 29q36 23 56 58q26 35 37 81q11 50 11 103z" />
    <glyph glyph-name="chi" unicode="&#x3c7;" horiz-adv-x="448" 
d="M259 164l180 316h-69l-133 -235l-47 164q-14 40 -36 56q-24 15 -71 15h-58v-50h60q20 0 31 -13q9 -13 15 -33l64 -214l-192 -338h71l143 256l55 -182q10 -36 34 -55t71 -19h58v49h-60q-25 0 -32 9q-7 7 -14 37z" />
    <glyph glyph-name="psi" unicode="&#x3c8;" horiz-adv-x="448" 
d="M444 460l-56 15q-20 -51 -29 -104q-10 -53 -10 -121v-155q0 -38 -22 -60q-23 -23 -75 -24v469h-57v-469q-57 1 -78 24q-22 21 -22 60v155q0 62 -8 121q-9 57 -31 104l-54 -15q10 -30 18 -50q8 -24 12 -48l6 -50q2 -36 2 -58v-158q0 -39 12 -63q11 -27 31 -42
q21 -17 51 -24t61 -8v-157h57v157q31 1 62 8q25 7 50 24q19 16 32 42q12 24 12 63v158q0 40 2 58q0 23 5 50q1 24 9 48q6 21 20 50z" />
    <glyph glyph-name="omega" unicode="&#x3c9;" horiz-adv-x="448" 
d="M441 173q0 27 -4 79q-8 52 -14 78q-9 38 -27 76q-20 36 -48 75l-45 -38q27 -32 42 -64q13 -29 23 -67q8 -44 10 -66q2 -46 2 -71q0 -50 -3 -83q-5 -36 -12 -54q-9 -23 -21 -29q-12 -8 -29 -8q-33 0 -48 25q-17 23 -17 70v231h-55v-231q0 -46 -15 -70q-16 -25 -50 -25
q-16 0 -27 8q-14 5 -20 29q-10 20 -13 54q-5 27 -5 83q0 37 3 71q1 31 11 66q6 34 22 67q14 32 39 64l-45 38q-27 -39 -45 -75q-18 -38 -27 -76q-12 -39 -15 -78q-4 -35 -4 -79q0 -55 6 -97q6 -46 23 -72q12 -30 38 -47q26 -16 60 -16q67 0 91 70q27 -70 92 -70q33 0 62 16
q25 17 40 47q11 28 19 73q6 42 6 96z" />
    <glyph glyph-name="afii10023" unicode="&#x401;" horiz-adv-x="641" 
d="M83 -41h472v57h-405v284h376v57h-376v258h398v57h-465v-713zM181 717h75v77h-75v-77zM359 717h73v77h-73v-77z" />
    <glyph glyph-name="afii10017" unicode="&#x410;" horiz-adv-x="744" 
d="M372 604l132 -365h-266zM608 -41h69l-268 713h-76l-268 -713h69l81 221h312z" />
    <glyph glyph-name="afii10018" unicode="&#x411;" horiz-adv-x="698" 
d="M563 159q0 -38 -14 -66q-15 -28 -41 -45q-24 -16 -57 -24q-31 -8 -72 -8h-224v285h224q87 0 136 -35q48 -36 48 -107zM627 160q0 100 -65 150q-66 48 -183 48h-224v257h397v57h-465v-713h292q117 0 183 48q65 48 65 153z" />
    <glyph glyph-name="afii10019" unicode="&#x412;" horiz-adv-x="693" 
d="M559 159q0 -37 -13 -66q-15 -29 -41 -45q-24 -17 -56 -24q-31 -8 -73 -8h-224v285h225q86 0 135 -35q47 -36 47 -107zM535 485h-1q0 -21 -10 -46q-12 -23 -28 -41q-23 -19 -50 -29q-28 -11 -70 -11h-224v257h225q158 0 158 -130zM625 160q0 70 -40 119q-41 48 -105 57
q58 15 89 58q30 42 30 101q0 48 -16 86q-19 34 -47 54q-30 19 -73 29q-45 8 -87 8h-292v-713h293q117 0 183 48q65 48 65 153z" />
    <glyph glyph-name="afii10020" unicode="&#x413;" horiz-adv-x="598" 
d="M131 615h401v57h-466v-713h65v656z" />
    <glyph glyph-name="afii10021" unicode="&#x414;" horiz-adv-x="807" 
d="M595 615v-599h-384q56 69 78 167q21 97 21 208v224h285zM709 -171h44l-13 130q-35 0 -56 19q-21 21 -21 54v640h-412v-281q0 -71 -6 -134q-7 -62 -29 -115q-20 -54 -55 -94q-33 -39 -91 -71l-20 -148h41q7 24 20 55q9 27 20 41q12 16 32 25q19 9 53 9h400q41 0 62 -36
q20 -35 31 -94z" />
    <glyph glyph-name="afii10022" unicode="&#x415;" horiz-adv-x="616" 
d="M71 -40h472v57h-408v284h377v57h-377v258h403v57h-467v-713z" />
    <glyph glyph-name="afii10024" unicode="&#x416;" horiz-adv-x="871" 
d="M827 -59v61q-59 0 -99 23q-43 21 -69 64q-32 42 -45 100q-14 53 -14 126q0 68 15 128q14 57 44 100q25 40 69 64q44 22 99 22v58q-65 0 -115 -21q-53 -24 -88 -64q-39 -41 -61 -104q-23 -65 -26 -142h-72v316h-61v-316h-71q-10 160 -86 246q-79 85 -205 85v-58
q54 0 98 -22q41 -23 71 -64q29 -40 43 -100q13 -65 13 -128q0 -64 -13 -126q-15 -60 -44 -100q-30 -44 -70 -64q-42 -23 -98 -23v-61q133 0 211 92q77 90 80 265h72v-339h61v339h71q3 -172 81 -264q76 -93 209 -93z" />
    <glyph glyph-name="afii10025" unicode="&#x417;" horiz-adv-x="596" 
d="M532 163q0 73 -39 120q-39 45 -104 57q49 15 82 55q32 40 32 101q0 38 -13 75q-15 32 -39 58q-31 25 -68 39q-44 13 -91 13q-48 0 -88 -17q-40 -18 -69 -48q-27 -33 -40 -74q-15 -45 -14 -92h59q0 32 13 69q11 33 28 58q22 24 48 38q28 14 63 14q76 0 115 -37
q37 -39 37 -96q0 -32 -13 -56t-30 -42q-24 -17 -45 -23q-21 -8 -51 -8h-52v-59h52q33 0 65 -9q28 -8 50 -29q24 -18 36 -45q11 -28 11 -62q0 -38 -12 -68q-14 -31 -38 -49q-26 -23 -56 -32q-31 -10 -69 -10q-77 0 -122 49q-45 48 -45 136h-60q-1 -60 15 -103q15 -46 46 -75
q31 -30 74 -45q42 -15 92 -15q44 0 88 12q41 13 78 41q33 24 54 65q20 40 20 94z" />
    <glyph glyph-name="afii10026" unicode="&#x418;" horiz-adv-x="705" 
d="M557 -41h68v713h-68v-60l-411 -494v554h-66v-713h66v59l411 495v-554z" />
    <glyph glyph-name="afii10027" unicode="&#x419;" horiz-adv-x="705" 
d="M557 -41h68v713h-68v-60l-411 -494v554h-66v-713h66v59l411 495v-554zM495 779l-32 17q-15 -34 -43 -55q-30 -21 -75 -21t-72 21q-28 21 -46 55l-28 -17q22 -49 57 -70q35 -22 89 -22q56 0 91 22q33 21 59 70z" />
    <glyph glyph-name="afii10028" unicode="&#x41a;" horiz-adv-x="681" 
d="M534 -41h80l-309 420l292 293h-85l-381 -379v379h-64v-713h64v244l125 126z" />
    <glyph glyph-name="afii10029" unicode="&#x41b;" horiz-adv-x="719" 
d="M578 -41h64v713h-409v-281q0 -69 -5 -134q-6 -64 -20 -110q-15 -52 -47 -91q-31 -39 -86 -74l34 -46q57 34 98 83q36 45 54 104q20 56 26 123q5 73 5 145v224h286v-656z" />
    <glyph glyph-name="afii10030" unicode="&#x41c;" horiz-adv-x="812" 
d="M666 -41h66v713h-100l-226 -626l-230 626h-96v-713h66v620l227 -620h66l227 620v-620z" />
    <glyph glyph-name="afii10031" unicode="&#x41d;" horiz-adv-x="663" 
d="M515 -41h68v713h-68v-307h-369v307h-66v-713h66v347h369v-347z" />
    <glyph glyph-name="afii10032" unicode="&#x41e;" horiz-adv-x="760" 
d="M624 315q0 -69 -18 -126q-19 -56 -50 -100q-31 -43 -76 -64q-46 -23 -102 -23q-57 0 -100 23q-46 21 -77 64q-35 42 -50 100q-17 54 -17 126q0 71 17 128q17 59 51 100q29 39 76 64q47 22 100 22q52 0 102 -22q47 -25 76 -64q30 -42 50 -100q18 -60 18 -128zM690 315
q0 91 -24 161q-25 68 -66 115q-41 46 -97 72q-57 24 -125 24t-124 -24q-56 -25 -97 -72q-41 -46 -64 -115q-23 -68 -23 -161t23 -158q23 -71 64 -116q39 -47 97 -74q57 -26 124 -26q66 0 125 25q57 29 97 74q40 46 66 116q24 69 24 159z" />
    <glyph glyph-name="afii10033" unicode="&#x41f;" horiz-adv-x="646" 
d="M521 -41h64v713h-528v-713h68v656h396v-656z" />
    <glyph glyph-name="afii10034" unicode="&#x420;" horiz-adv-x="638" 
d="M493 468q0 -76 -42 -110q-42 -35 -114 -35h-194v292h194q70 0 114 -35q42 -36 42 -112zM557 468q0 46 -14 86q-16 39 -43 65q-26 23 -64 39q-39 14 -85 14h-272v-713h64v305h208q95 0 151 54q55 55 55 150z" />
    <glyph glyph-name="afii10035" unicode="&#x421;" horiz-adv-x="738" 
d="M667 225h-68q-7 -53 -20 -89q-16 -41 -43 -71q-30 -29 -67 -46t-86 -17q-66 0 -114 27q-48 25 -76 71q-31 45 -44 100q-15 56 -15 115q0 58 15 115q13 53 44 102q27 44 77 71q49 26 114 26q75 0 133 -44q56 -44 73 -128h68q-8 55 -33 98q-28 43 -60 74q-39 29 -84 44
q-50 14 -98 14q-77 0 -136 -28q-58 -30 -97 -78q-41 -51 -60 -118q-20 -66 -20 -148q0 -84 20 -147q19 -68 60 -118q39 -49 98 -79q57 -30 136 -30q61 0 112 20q45 20 86 59q35 35 58 90q21 51 27 115z" />
    <glyph glyph-name="afii10036" unicode="&#x422;" horiz-adv-x="659" 
d="M362 615h225v57h-517v-57h224v-656h68v656z" />
    <glyph glyph-name="afii10037" unicode="&#x423;" horiz-adv-x="575" 
d="M283 45l224 627h-60l-153 -432l-165 432h-63l201 -504l-33 -95l-17 -35q-9 -15 -14 -20q-9 -7 -20 -9q-12 -3 -24 -3q-21 0 -42 5v-52q15 -3 19 -4q3 0 12.5 -0.5t16.5 -0.5q47 0 74 24q27 25 44 67z" />
    <glyph glyph-name="afii10038" unicode="&#x424;" horiz-adv-x="735" 
d="M333 523v-416q-49 3 -85 20q-40 17 -68 44q-26 26 -42 64q-16 35 -16 80q0 46 16 82q15 35 43 65q26 26 68 43q39 15 84 18zM613 315h-1q0 -42 -16 -80q-16 -36 -47 -64q-28 -29 -66 -44q-38 -17 -86 -20v417q46 -3 86 -18q42 -18 67 -43q30 -29 47 -65q16 -42 16 -83z
M673 315q0 59 -21 105q-22 44 -59 81q-40 33 -88 54q-51 19 -108 24v93h-64v-93q-59 -6 -108 -25q-49 -20 -87 -55q-37 -36 -58 -80q-21 -47 -21 -104q0 -55 21 -100q21 -47 58 -81q35 -34 88 -54q53 -22 107 -26v-95h65v95q54 3 108 25q50 19 87 54q36 33 59 80
q21 45 21 102z" />
    <glyph glyph-name="afii10039" unicode="&#x425;" horiz-adv-x="700" 
d="M558 -41h79l-251 368l238 345h-80l-195 -291l-195 291h-78l237 -347l-254 -366h79l210 310z" />
    <glyph glyph-name="afii10040" unicode="&#x426;" horiz-adv-x="774" 
d="M643 -171h46l-17 130q-35 0 -56 19q-21 21 -21 54v640h-64v-656h-380v656h-68v-713h465q41 0 62 -36t33 -94z" />
    <glyph glyph-name="afii10041" unicode="&#x427;" horiz-adv-x="572" 
d="M427 -41h64v713h-65v-300q0 -34 -10 -71q-11 -34 -32 -55q-20 -26 -49 -39q-28 -14 -64 -14q-37 0 -60 13q-26 12 -41 34q-14 20 -21 48q-8 24 -8 62v322h-59v-332q0 -45 9 -81q9 -38 33 -62q18 -27 55 -41q35 -15 86 -15q27 0 52 9q26 8 49 21q18 13 37 33q15 18 24 42
v-287z" />
    <glyph glyph-name="afii10042" unicode="&#x428;" horiz-adv-x="794" 
d="M88 -41h616v713h-68v-656h-208v656h-64v-656h-208v656h-68v-713z" />
    <glyph glyph-name="afii10043" unicode="&#x429;" horiz-adv-x="831" 
d="M723 -171h44l-16 130q-35 0 -56 19q-21 21 -21 54v640h-64v-656h-208v656h-68v-656h-208v656h-66v-713h568q41 0 62 -36t33 -94z" />
    <glyph glyph-name="afii10044" unicode="&#x42a;" horiz-adv-x="744" 
d="M634 159q0 -37 -13 -66q-16 -30 -38 -45q-27 -16 -59 -24q-29 -8 -70 -8h-188v285h188q87 0 134 -35q46 -37 46 -107zM702 160q0 100 -66 150q-68 48 -182 48h-188v314h-224v-57h160v-656h252q114 0 182 48q66 48 66 153z" />
    <glyph glyph-name="afii10045" unicode="&#x42b;" horiz-adv-x="794" 
d="M496 159h-1q0 -39 -15 -66q-16 -28 -38 -45q-25 -16 -59 -24q-32 -8 -70 -8h-166v285h167q86 0 135 -35q47 -36 47 -107zM560 160h-1q0 100 -66 150q-67 48 -180 48h-166v314h-66v-713h233q112 0 180 48q66 48 66 153zM646 -41h65v713h-65v-713z" />
    <glyph glyph-name="afii10046" unicode="&#x42c;" horiz-adv-x="699" 
d="M552 159h-1q0 -37 -13 -66q-16 -30 -38 -45q-27 -16 -59 -24q-29 -8 -70 -8h-228v285h229q84 0 133 -35q47 -36 47 -107zM620 160q0 100 -67 150q-67 48 -182 48h-228v314h-64v-713h293q114 0 182 48q66 48 66 153z" />
    <glyph glyph-name="afii10047" unicode="&#x42d;" horiz-adv-x="728" 
d="M667 315q0 77 -20 148q-21 67 -60 118q-38 47 -97 78q-62 28 -135 28q-53 0 -99 -12q-47 -12 -85 -39q-40 -29 -65 -66q-26 -37 -35 -94h65q10 40 32 71q22 30 49 47q30 18 66 27q37 8 73 8q60 0 106 -23q44 -24 75 -61q27 -39 43 -89q14 -51 18 -105h-366v-57h367
q-3 -53 -16 -109q-15 -54 -43 -94q-32 -41 -77 -65q-47 -24 -112 -24q-99 0 -156 53q-59 50 -70 151h-66q15 -129 94 -197t199 -68q77 0 137 30q60 31 98 79q39 50 60 118q20 68 20 147z" />
    <glyph glyph-name="afii10048" unicode="&#x42e;" horiz-adv-x="847" 
d="M713 315q0 -67 -14 -126q-15 -59 -37 -100q-27 -43 -61 -64q-33 -23 -75 -23q-43 0 -76 23q-33 19 -62 64q-22 38 -38 100q-15 57 -15 126q0 68 15 128q16 62 38 100q27 41 62 64q36 22 76 22q39 0 75 -22q36 -26 61 -64q21 -39 37 -100q14 -62 14 -128zM781 315
q0 91 -18 161q-18 67 -53 115q-34 46 -80 72q-48 24 -104 24q-112 0 -179 -85q-69 -87 -75 -251h-145v321h-61v-713h61v335h144q1 -84 20 -150q18 -66 52 -109q33 -45 79 -70q45 -24 104 -24q55 0 104 26q48 29 80 73q35 47 53 116t18 159z" />
    <glyph glyph-name="afii10049" unicode="&#x42f;" horiz-adv-x="653" 
d="M532 615v-281h-243q-33 0 -58 9q-29 10 -49 28q-20 16 -32 42q-13 23 -13 58q0 68 38 106t115 38h242zM532 -41h64v713h-312q-44 0 -81 -12q-39 -12 -69 -33q-27 -24 -44 -59q-17 -34 -17 -86q0 -70 34 -117q33 -49 101 -61q-38 -9 -60 -24q-23 -16 -34 -36
q-16 -23 -22 -48q-7 -32 -7 -55q-2 -24 -2 -43q-2 -34 -4 -52q-3 -18 -9 -50q-5 -21 -17 -37h73q1 4 3.5 12t4.5 13q1 5 2.5 14.5t2.5 14.5q1 9 5 29q1 10 3 26q1 38 6 75q3 33 16 68q13 28 42 46q28 17 75 17h246v-315z" />
    <glyph glyph-name="afii10065" unicode="&#x430;" horiz-adv-x="611" 
d="M441 246l-1 -87q0 -37 -13 -69q-14 -32 -37 -51q-21 -22 -53 -33q-35 -11 -70 -11q-54 0 -81 23q-30 21 -30 67q0 33 14 53q12 20 42 33q30 12 75 24q72 15 99 20q19 3 32 11q14 6 23 20zM556 -37v52q-8 -4 -19 -4q-21 0 -28 11q-9 9 -9 27v275q0 49 -15 82
q-17 30 -39 51q-24 16 -60 26q-40 7 -69 7q-41 0 -79 -11q-38 -13 -65 -31q-27 -26 -41 -56q-16 -34 -18 -77h61q3 64 41 93q39 28 92 28q60 0 97 -24q36 -25 36 -82q0 -29 -19 -45q-21 -16 -57 -22q-60 -11 -108 -21q-54 -13 -87 -29q-37 -22 -58 -51q-21 -30 -21 -79
q0 -37 15 -63q12 -24 35 -44q25 -15 55 -26q28 -9 64 -9q76 0 124 31q46 32 62 76q0 -44 14 -66q14 -23 56 -23q5 0 12 0.5t10 0.5q6 2 18 3z" />
    <glyph glyph-name="afii10066" unicode="&#x431;" horiz-adv-x="612" 
d="M481 216q0 -49 -12 -88q-13 -39 -38 -71q-21 -30 -54 -45q-35 -15 -73 -15q-40 0 -70 15q-33 15 -57 45q-23 33 -34 71q-14 36 -14 88q0 51 14 90q12 38 34 70q25 28 57 44t70 16q36 0 73 -16q32 -16 54 -44q24 -30 38 -70q12 -42 12 -90zM542 216q0 56 -17 110
q-18 50 -48 88q-29 35 -73 56q-46 20 -100 20q-59 0 -106 -26q13 29 37 50t53 30q23 6 52 20q24 10 45 24q19 10 46 31q25 19 44 40l-25 30q-29 -22 -45 -32q-10 -7 -43 -26l-54 -25q-34 -15 -66 -26q-34 -14 -67 -47q-31 -31 -53 -81q-27 -51 -39 -109q-13 -58 -13 -126
q0 -61 16 -110q15 -52 46 -87q32 -38 75 -59q43 -20 97 -20t100 20q42 20 73 59q30 36 48 87q17 51 17 109z" />
    <glyph glyph-name="afii10067" unicode="&#x432;" horiz-adv-x="631" 
d="M500 107q0 -51 -40 -73q-39 -23 -115 -23h-194v194h195q86 0 120 -24q34 -26 34 -74zM472 339h-1q0 -15 -5 -32q-7 -17 -16 -26q-17 -12 -40 -18q-26 -6 -65 -6h-194v164h195q38 0 64 -6q22 -5 40 -17q11 -11 17 -26q5 -17 5 -33zM559 107q0 58 -33 91q-34 32 -87 35
q54 9 75 41q21 30 21 72q0 71 -44 100q-45 27 -146 27h-257v-514h258q114 0 164 33q49 34 49 115z" />
    <glyph glyph-name="afii10068" unicode="&#x433;" horiz-adv-x="528" 
d="M125 421h337v52h-398v-514h61v462z" />
    <glyph glyph-name="afii10069" unicode="&#x434;" horiz-adv-x="724" 
d="M542 421v-410h-374q28 27 47 71q17 43 27 91q8 55 11 106q2 74 2 111v31h287zM652 -171h44l-17 130q-35 0 -56 19t-21 53v442h-398v-83q0 -66 -5 -136q-6 -69 -23 -117q-15 -52 -47 -94q-31 -39 -85 -67l-16 -147h41q8 27 18 55q5 24 22 41q12 16 32 25q19 9 53 9h361
q41 0 62 -36q19 -33 35 -94z" />
    <glyph glyph-name="afii10070" unicode="&#x435;" horiz-adv-x="586" 
d="M455 253h-326q3 38 16 69q11 29 32 58q21 26 50 41q27 15 65 15q35 0 67 -16q26 -16 51 -41q20 -31 32 -59q11 -31 13 -67zM129 200h385q0 55 -11 112q-12 51 -40 92q-26 36 -68 62q-45 24 -103 24q-53 0 -97 -22q-45 -26 -70 -59q-30 -37 -42 -87q-13 -49 -13 -106
q0 -67 15 -115q15 -50 45 -85q28 -33 73 -56q43 -19 89 -19q89 0 147 50q55 49 73 138h-59q-6 -26 -20 -52q-17 -27 -32 -41q-23 -20 -48 -29q-26 -10 -61 -10q-41 0 -68 14q-29 13 -52 44q-18 25 -31 65q-12 36 -12 80z" />
    <glyph glyph-name="afii10072" unicode="&#x436;" horiz-adv-x="774" 
d="M711 -59v56q-41 0 -71 15q-33 15 -57 45t-34 71q-12 39 -12 88q0 48 12 90q11 40 35 70q25 28 57 44t70 16v54q-49 0 -90 -18q-40 -17 -73 -50q-32 -33 -48 -76q-18 -45 -24 -96h-59v223h-61v-223h-64q-3 48 -22 96q-21 44 -49 76q-29 32 -69 50q-42 18 -94 18v-54
q37 0 74 -16q30 -15 56 -44q18 -26 35 -70q13 -45 13 -90q0 -46 -13 -88q-15 -43 -35 -71q-24 -30 -57 -45q-35 -15 -73 -15v-56q51 0 97 19q41 21 70 54q30 33 49 80q17 44 19 103h64v-238h60v238h59q3 -58 21 -103q14 -46 47 -80q31 -33 74 -54q44 -19 93 -19z" />
    <glyph glyph-name="afii10073" unicode="&#x437;" horiz-adv-x="602" 
d="M531 105q0 28 -10 53q-15 26 -26 37q-17 13 -42 23q-30 7 -50 11q54 11 78 40q23 29 23 74q0 36 -16 65q-18 27 -43 46q-31 15 -68 24q-47 7 -83 7q-37 0 -79 -10q-38 -12 -65 -34q-29 -20 -47 -53q-19 -34 -19 -79h57q0 35 18 60q14 23 41 40q21 14 49 21q31 7 46 7
q19 0 55 -4q27 -5 49 -13q22 -15 34 -29q14 -20 14 -48q0 -19 -11 -35t-28 -29q-20 -12 -46 -18t-54 -6h-52v-57h52q30 0 65 -5q28 -6 50 -15q24 -11 36 -28q11 -19 11 -45q0 -30 -14 -52q-15 -23 -39 -36q-27 -13 -58 -18q-42 -4 -66 -4q-33 0 -61 6q-29 4 -54 20
q-22 14 -37 42q-16 23 -16 66h-55q-1 -53 18 -89q18 -35 48 -58q32 -19 73 -28t84 -9q45 0 88 9q37 8 77 28q32 21 53 50q20 31 20 73z" />
    <glyph glyph-name="afii10074" unicode="&#x438;" horiz-adv-x="575" 
d="M444 -41h59v515h-59v-59l-315 -318v377h-59v-515h59v59l315 318v-377z" />
    <glyph glyph-name="afii10075" unicode="&#x439;" horiz-adv-x="575" 
d="M444 -41h59v515h-59v-59l-315 -318v377h-59v-515h59v59l315 318v-377zM428 626l-28 16q-17 -34 -45 -56q-29 -21 -73 -21q-46 0 -74 21q-31 22 -44 56l-32 -16q25 -49 60 -70q32 -22 90 -22q52 0 89 22q35 21 57 70z" />
    <glyph glyph-name="afii10076" unicode="&#x43a;" horiz-adv-x="564" 
d="M423 -41h75l-224 325l208 190h-84l-273 -248v248h-59v-515h59v189l101 93z" />
    <glyph glyph-name="afii10077" unicode="&#x43b;" horiz-adv-x="661" 
d="M536 -41h59v514h-393v-102q0 -64 -4 -144q-6 -61 -21 -106q-14 -48 -40 -80q-27 -35 -73 -65l33 -39q54 37 88 82q30 42 48 96q16 53 20 115q3 63 3 142v49h280v-462z" />
    <glyph glyph-name="afii10078" unicode="&#x43c;" horiz-adv-x="782" 
d="M639 -41h63v515h-83l-230 -443l-226 443h-83v-515h59v426l221 -426h60l219 426v-426z" />
    <glyph glyph-name="afii10079" unicode="&#x43d;" horiz-adv-x="633" 
d="M492 -41h59v515h-59v-224h-353v224h-59v-515h59v238h353v-238z" />
    <glyph glyph-name="afii10080" unicode="&#x43e;" horiz-adv-x="592" 
d="M469 216q0 -47 -11 -88q-11 -38 -37 -71q-21 -30 -54 -45q-35 -15 -73 -15q-40 0 -70 15q-33 15 -57 45q-21 31 -33 71q-13 38 -13 88t13 90q13 41 33 70q25 28 57 44t70 16q36 0 73 -16q32 -16 54 -44q25 -31 37 -70q11 -44 11 -90zM532 216q0 54 -16 110q-18 51 -49 88
q-29 35 -74 56q-46 20 -99 20q-51 0 -96 -20q-45 -21 -74 -56q-35 -39 -49 -88q-17 -50 -17 -110q0 -62 17 -109q15 -49 49 -87q31 -39 74 -59q45 -20 96 -20q53 0 99 20q43 20 74 59q31 35 49 87q16 53 16 109z" />
    <glyph glyph-name="afii10081" unicode="&#x43f;" horiz-adv-x="598" 
d="M465 -41h63v514h-458v-514h59v462h336v-462z" />
    <glyph glyph-name="afii10082" unicode="&#x440;" horiz-adv-x="592" 
d="M464 216q0 -42 -10 -85q-12 -41 -34 -70q-20 -29 -51 -46q-33 -18 -69 -18q-48 0 -79 19q-32 17 -54 49q-23 32 -31 70q-11 36 -11 81q0 46 12 86t33 71q25 28 56 45q31 18 74 18q36 0 69 -18q31 -20 51 -46q21 -30 34 -71q10 -45 10 -85zM527 216q0 61 -16 115
q-16 49 -47 86q-30 34 -71 54q-44 19 -93 19q-68 0 -113 -33q-47 -33 -62 -80v97h-60v-674h60v256q8 -24 25 -43q15 -19 42 -38q22 -14 50 -24q32 -10 58 -10q49 0 93 19q43 22 71 56q31 36 47 85q16 51 16 115z" />
    <glyph glyph-name="afii10083" unicode="&#x441;" horiz-adv-x="565" 
d="M502 133h-59q-12 -62 -52 -99q-41 -37 -99 -37q-41 0 -71 15q-32 15 -54 46q-26 32 -34 71q-11 36 -11 87q0 46 10 85q9 40 33 71q17 25 52 46q33 18 75 18q58 0 98 -35q37 -35 49 -93h61q-6 41 -24 76q-18 33 -47 56q-25 23 -60 37q-39 13 -77 13q-56 0 -98 -21
q-44 -21 -72 -57q-32 -36 -47 -88q-16 -49 -16 -108q0 -62 16 -110q15 -53 47 -87q30 -38 73 -58t97 -20q88 0 143 51q55 52 67 141z" />
    <glyph glyph-name="afii10084" unicode="&#x442;" horiz-adv-x="599" 
d="M331 421h209v52h-482v-52h208v-462h65v462z" />
    <glyph glyph-name="afii10085" unicode="&#x443;" horiz-adv-x="565" 
d="M292 -110l210 584h-60l-151 -432l-166 432h-66l202 -505l-18 -50q-18 -40 -32 -54q-16 -13 -44 -13q-10 0 -42 5v-53q7 -1 20 -3q3 0 12 -0.5t15 -0.5q47 0 77 22q27 24 43 68z" />
    <glyph glyph-name="afii10086" unicode="&#x444;" horiz-adv-x="792" 
d="M368 425v-418q-29 -10 -54 -10q-39 0 -72 15q-34 15 -57 45q-23 33 -34 71q-14 36 -14 88q0 51 14 90q12 38 34 70q23 28 57 44q35 16 72 16q23 0 54 -11zM653 216q0 -46 -13 -88q-15 -43 -35 -71q-25 -31 -56 -45q-35 -15 -73 -15q-10 0 -24 2l-25 6v421q28 10 49 10
q36 0 73 -16q30 -15 56 -44q18 -26 35 -70q13 -45 13 -90zM712 216q0 54 -16 110q-18 50 -45 88q-30 34 -75 56q-46 20 -100 20q-14 0 -24 -3q-13 -5 -25 -5v190h-59v-191q-14 2 -26 6q-15 3 -28 3q-55 0 -100 -20q-45 -21 -74 -56q-30 -38 -45 -88q-17 -50 -17 -110
q0 -62 17 -109q15 -51 45 -87q31 -39 74 -59q45 -20 100 -20q8 0 28 4q8 3 26 7v-143h59v142q19 -5 25 -7q10 -3 24 -3q54 0 100 20q43 21 75 59q27 36 45 87q16 53 16 109z" />
    <glyph glyph-name="afii10087" unicode="&#x445;" horiz-adv-x="598" 
d="M457 -41h70l-194 269l175 246h-73l-139 -200l-138 200h-75l179 -246l-191 -269h68l158 221z" />
    <glyph glyph-name="afii10088" unicode="&#x446;" horiz-adv-x="666" 
d="M556 -171h42l-15 130q-35 0 -56 19q-21 21 -21 54v442h-59v-463h-322v463h-59v-515h393q41 0 63 -36q23 -39 34 -94z" />
    <glyph glyph-name="afii10089" unicode="&#x447;" horiz-adv-x="548" 
d="M417 -41h54v515h-55v-173q0 -39 -12 -70q-11 -31 -30 -56q-23 -26 -52 -38q-30 -12 -65 -12t-59 12q-26 11 -38 33q-18 20 -24 49q-7 27 -7 62v193h-54v-204q0 -50 8 -82q7 -39 31 -61q18 -29 55 -41q32 -14 84 -14q30 0 54 8t45 21q21 14 40 33q16 18 25 41v-216z" />
    <glyph glyph-name="afii10090" unicode="&#x448;" horiz-adv-x="754" 
d="M75 -41h602v515h-59v-463h-210v463h-63v-463h-211v463h-59v-515z" />
    <glyph glyph-name="afii10091" unicode="&#x449;" horiz-adv-x="790" 
d="M699 -171h44l-17 130q-33 0 -54 19q-21 21 -21 54v442h-63v-463h-210v463h-59v-463h-211v463h-63v-515h557q41 0 62 -36q19 -33 35 -94z" />
    <glyph glyph-name="afii10092" unicode="&#x44a;" horiz-adv-x="656" 
d="M544 107h-1q0 -51 -34 -73q-33 -23 -107 -23h-166v194h167q39 0 70 -7q28 -9 42 -19q18 -12 24 -29q5 -22 5 -43zM608 107q0 38 -12 68q-13 28 -36 46q-24 19 -62 28q-43 8 -96 8h-166v216h-189v-52h128v-462h229q52 0 95 8q40 9 64 27q23 20 34 46q11 28 11 67z" />
    <glyph glyph-name="afii10093" unicode="&#x44b;" horiz-adv-x="704" 
d="M419 107q0 -52 -33 -73q-33 -23 -107 -23h-138v194h138q39 0 70 -7q27 -10 42 -19q17 -11 23 -29q5 -22 5 -43zM482 107q0 37 -11 68q-13 28 -36 46q-24 20 -61 28q-43 8 -95 8h-138v217h-59v-515h197q52 0 95 8q40 9 64 27q21 18 33 46q11 28 11 67zM559 -41h63v515h-63
v-515z" />
    <glyph glyph-name="afii10094" unicode="&#x44c;" horiz-adv-x="558" 
d="M430 107h-1q0 -51 -31 -73q-32 -23 -107 -23h-166v194h167q36 0 69 -7q29 -10 45 -19q14 -14 19 -29q5 -22 5 -43zM494 107q0 75 -46 113q-48 37 -157 37h-166v217h-60v-515h227q52 0 94 8q38 9 64 27q21 18 33 46q11 28 11 67z" />
    <glyph glyph-name="afii10095" unicode="&#x44d;" horiz-adv-x="568" 
d="M505 216q0 57 -15 108q-17 51 -43 88q-30 36 -72 57q-43 21 -99 21q-42 0 -76 -12q-38 -14 -65 -37q-26 -20 -44 -53q-19 -32 -25 -75h60q9 59 49 91t102 32q39 0 69 -15q29 -15 50 -41q21 -27 33 -60q12 -35 15 -73h-263v-56h263q-3 -43 -15 -78q-11 -34 -33 -62
q-24 -29 -52 -40q-28 -14 -69 -14q-61 0 -102 34q-44 33 -50 98h-63q15 -92 72 -140q56 -48 144 -48q54 0 99 20q41 20 72 58q26 35 43 87q15 50 15 110z" />
    <glyph glyph-name="afii10096" unicode="&#x44e;" horiz-adv-x="792" 
d="M659 216h-1q0 -49 -12 -88q-12 -38 -32 -71q-25 -31 -53 -45q-30 -15 -69 -15q-40 0 -71 15q-33 15 -51 45q-24 30 -33 71q-10 37 -10 88q0 50 10 90q9 39 34 70q19 28 51 44q34 16 71 16t69 -16q27 -15 53 -44q18 -31 32 -70q12 -42 12 -90zM718 216q0 56 -14 110
q-15 51 -43 88q-30 35 -73 56q-45 20 -95 20q-52 0 -91 -18q-40 -18 -69 -51q-30 -33 -45 -76q-16 -43 -22 -98h-134v226h-60v-514h61v232h134q4 -52 20 -99q15 -48 46 -80q26 -32 69 -52q41 -19 92 -19q50 0 95 20q40 20 73 59q27 36 42 87q14 51 14 109z" />
    <glyph glyph-name="afii10097" unicode="&#x44f;" horiz-adv-x="573" 
d="M439 421v-189h-185q-61 0 -94 21q-33 19 -33 73q0 51 34 73q35 22 94 22h184zM439 -41h61v514h-249q-83 0 -132 -32q-49 -33 -49 -111q0 -60 32 -89q30 -30 82 -35q-92 -9 -101 -116q-3 -40 -9 -68q-7 -28 -23 -63h72q1 10 6 25l6 29q2 20 4 29q1 10 3 26q6 62 32 86
q27 25 81 25h184v-220z" />
    <glyph glyph-name="afii10071" unicode="&#x451;" horiz-adv-x="586" 
d="M455 253h-326q3 38 16 69q11 29 32 58q21 26 50 41q27 15 65 15q35 0 67 -16q26 -16 51 -41q20 -31 32 -59q11 -31 13 -67zM129 200h385q0 55 -11 112q-12 51 -40 92q-26 36 -68 62q-45 24 -103 24q-53 0 -97 -22q-45 -26 -70 -59q-30 -37 -42 -87q-13 -49 -13 -106
q0 -67 15 -115q15 -50 45 -85q28 -33 73 -56q43 -19 89 -19q89 0 147 50q55 49 73 138h-59q-6 -26 -20 -52q-17 -27 -32 -41q-23 -20 -48 -29q-26 -10 -61 -10q-41 0 -68 14q-29 13 -52 44q-18 25 -31 65q-12 36 -12 80zM156 566h75v77h-75v-77zM332 566h75v77h-75v-77z" />
    <glyph glyph-name="uni2010" unicode="&#x2010;" horiz-adv-x="0" 
 />
    <glyph glyph-name="endash" unicode="&#x2013;" horiz-adv-x="410" 
d="M57 282h292v57h-292v-57z" />
    <glyph glyph-name="emdash" unicode="&#x2014;" horiz-adv-x="0" 
 />
    <glyph glyph-name="uni2016" unicode="&#x2016;" horiz-adv-x="0" 
 />
    <glyph glyph-name="quoteleft" unicode="&#x2018;" horiz-adv-x="222" 
d="M139 767l-99 -15l41 -256l99 15z" />
    <glyph glyph-name="quoteright" unicode="&#x2019;" horiz-adv-x="222" 
d="M180 752l-99 15l-41 -256l99 -15z" />
    <glyph glyph-name="quotereversed" unicode="&#x201b;" horiz-adv-x="0" 
 />
    <glyph glyph-name="quotedblleft" unicode="&#x201c;" horiz-adv-x="380" 
d="M136 767l-99 -15l41 -256l99 15zM296 767l-99 -15l41 -256l99 15z" />
    <glyph glyph-name="quotedblright" unicode="&#x201d;" horiz-adv-x="380" 
d="M337 752l-99 15l-41 -256l99 -15zM177 752l-99 15l-41 -256l99 -15z" />
    <glyph glyph-name="uni201F" unicode="&#x201f;" horiz-adv-x="0" 
 />
    <glyph glyph-name="dagger" unicode="&#x2020;" horiz-adv-x="552" 
d="M292 380h200v35h-200v223h-36v-223h-198v-35h198v-395h36v395z" />
    <glyph glyph-name="daggerdbl" unicode="&#x2021;" horiz-adv-x="552" 
d="M292 313h200v34h-200v130h200v34h-200v126h-36v-126h-198v-34h198v-130h-198v-34h198v-330h36v330z" />
    <glyph glyph-name="bullet" unicode="&#x2022;" horiz-adv-x="0" 
 />
    <glyph glyph-name="twodotenleader" unicode="&#x2025;" horiz-adv-x="940" 
d="M301 331q0 21 -17 40q-19 17 -39 17q-26 0 -41 -17q-16 -17 -16 -40q0 -27 16 -42q15 -16 41 -16q22 0 39 16q17 15 17 42zM750 331q0 21 -17 40q-19 17 -39 17q-27 0 -42 -17q-17 -17 -17 -41q0 -27 17 -41q15 -16 42 -16q22 0 39 16q17 15 17 42z" />
    <glyph glyph-name="uni22EF" unicode="&#x2026;" horiz-adv-x="940" 
d="M119 331q0 -23 15 -36q13 -14 33 -14q23 0 37 14q13 15 13 36q0 19 -13 35q-16 14 -37 14q-19 0 -33 -14q-15 -15 -15 -35zM418 331q0 -23 16 -36q14 -14 34 -14q23 0 37 14q13 15 13 36q0 19 -13 35q-16 14 -37 14q-18 0 -34 -14q-16 -15 -16 -35zM719 331q0 -23 16 -36
q14 -14 36 -14t36 14t14 36q0 19 -14 35q-16 14 -36 14t-36 -14q-16 -15 -16 -35z" />
    <glyph glyph-name="uni22EF" unicode="&#x22ef;" horiz-adv-x="940" 
d="M119 331q0 -23 15 -36q13 -14 33 -14q23 0 37 14q13 15 13 36q0 19 -13 35q-16 14 -37 14q-19 0 -33 -14q-15 -15 -15 -35zM418 331q0 -23 16 -36q14 -14 34 -14q23 0 37 14q13 15 13 36q0 19 -13 35q-16 14 -37 14q-18 0 -34 -14q-16 -15 -16 -35zM719 331q0 -23 16 -36
q14 -14 36 -14t36 14t14 36q0 19 -14 35q-16 14 -36 14t-36 -14q-16 -15 -16 -35z" />
    <glyph glyph-name="perthousand" unicode="&#x2030;" horiz-adv-x="970" 
d="M526 617l-70 37q-65 -111 -128 -255q-64 -147 -109 -278l74 -28q49 140 106 269q60 139 127 255zM78 414q8 -20 23 -32q11 -12 29 -22q20 -7 39 -4q18 0 39 16q25 13 38 31q10 15 17 40q4 25 1 44q-5 21 -14 40q-8 17 -25 34q-19 14 -36 20q-21 6 -43 4q-21 -3 -38 -17
q-23 -12 -33 -31q-11 -21 -15 -40q-3 -23 3 -44q5 -23 15 -39zM191 501q9 -17 3 -36q-5 -19 -22 -32q-9 -9 -17 -3q-10 3 -16 15q-8 11 -8 31q0 17 16 32q10 10 25 7q14 -7 19 -14zM470 213q11 -20 25 -32q13 -14 31 -20q15 -9 37 -6q20 3 39 16q24 13 38 31q13 17 19 42
q4 23 1 42q-4 19 -14 42q-9 12 -29 32q-17 13 -34 19q-19 6 -41 4q-20 -3 -42 -14q-20 -15 -30 -34q-13 -22 -14 -39q-3 -25 1 -44q3 -23 13 -39zM583 298q7 -13 3 -34q-7 -23 -19 -34q-14 -9 -20 -3q-8 3 -13 16q-8 9 -8 30q0 19 14 33q9 9 25 6q15 -4 18 -14zM721 213
q11 -20 25 -32q13 -14 31 -20q15 -9 36 -6t42 16q22 12 36 31q13 17 19 42q4 23 1 42q-4 19 -14 42q-9 12 -29 32q-18 13 -35 19q-18 6 -40 4q-20 -3 -42 -14q-19 -15 -31 -34q-13 -23 -13 -39q-3 -25 1 -44q3 -23 13 -39zM833 298q9 -13 4 -34q-7 -23 -19 -34
q-14 -9 -20 -3q-8 3 -13 16q-8 9 -8 30q0 19 14 33q9 9 25 6q14 -4 17 -14z" />
    <glyph glyph-name="minute" unicode="&#x2032;" horiz-adv-x="459" 
d="M165 493l153 234h-86l-93 -234h26z" />
    <glyph glyph-name="second" unicode="&#x2033;" horiz-adv-x="480" 
d="M100 493l153 234h-84l-89 -234h20zM247 493l153 234h-84l-93 -234h24z" />
    <glyph glyph-name="uni2034" unicode="&#x2034;" horiz-adv-x="0" 
 />
    <glyph glyph-name="uni2035" unicode="&#x2035;" horiz-adv-x="0" 
 />
    <glyph glyph-name="uni2036" unicode="&#x2036;" horiz-adv-x="0" 
 />
    <glyph glyph-name="guilsinglleft" unicode="&#x2039;" horiz-adv-x="0" 
 />
    <glyph glyph-name="guilsinglright" unicode="&#x203a;" horiz-adv-x="0" 
 />
    <glyph glyph-name="uni203B" unicode="&#x203b;" horiz-adv-x="940" 
d="M267 624l-57 -56q42 -60 84 -114q45 -58 87 -100q-45 -48 -87 -99q-35 -41 -90 -112l60 -47l92 104l84 96q54 -54 106 -99q54 -49 120 -99l46 62l-115 99q-53 44 -102 95l97 98q51 52 111 104l-55 60q-86 -78 -113 -104l-97 -98q-50 50 -89 99q-39 48 -82 111zM271 379
q-10 19 -24 31q-14 10 -38 13q-11 0 -19 -4q-10 -6 -16 -13q-7 -10 -10 -19q-4 -14 -4 -18q2 -10 3 -14q0 -9 2 -13q0 -4 4 -12q2 -8 11 -14q14 -6 20 -8q7 -4 19 -4q14 0 23 6q18 15 24 31q5 17 5 38zM767 370q-10 22 -22 32q-17 10 -37 13q-12 0 -20 -5q-9 -5 -16 -14
q-6 -9 -9 -18q-5 -12 -5 -20l3 -12q0 -9 2 -12q0 -6 4 -14q1 -7 11 -12q7 -4 21 -8q8 -4 18 -4q15 0 23 5q17 13 23 31q4 22 4 38zM515 107q-9 25 -23 33q-16 9 -35 12q-12 2 -21 -3t-16 -14q-6 -9 -9 -18q-5 -13 -5 -19l3 -12q0 -9 2 -13q0 -6 4 -14q1 -7 11 -12
q12 -6 20 -8q8 -4 19 -4q14 0 23 6q17 11 23 30q4 22 4 36zM514 628q-9 21 -23 32q-16 9 -35 12q-13 0 -21 -4q-11 -6 -16 -14q-6 -9 -9 -18q-5 -12 -5 -18q1 -6 3 -14q0 -9 2 -13q0 -4 4 -12q4 -9 11 -14q12 -6 20 -8q8 -4 19 -4q12 0 23 6q17 14 23 32q4 20 4 37z" />
    <glyph glyph-name="exclamdbl" unicode="&#x203c;" horiz-adv-x="0" 
 />
    <glyph glyph-name="uni2042" unicode="&#x2042;" horiz-adv-x="0" 
 />
    <glyph glyph-name="uni2074" unicode="&#x2074;" horiz-adv-x="406" 
d="M224 690v-115h-76zM252 547h31v28h-31v153h-27l-102 -153v-28h101v-52h28v52z" />
    <glyph glyph-name="uni207A" unicode="&#x207a;" horiz-adv-x="0" 
 />
    <glyph glyph-name="uni207B" unicode="&#x207b;" horiz-adv-x="0" 
 />
    <glyph glyph-name="uni207C" unicode="&#x207c;" horiz-adv-x="0" 
 />
    <glyph glyph-name="uni207D" unicode="&#x207d;" horiz-adv-x="0" 
 />
    <glyph glyph-name="uni207E" unicode="&#x207e;" horiz-adv-x="0" 
 />
    <glyph glyph-name="uni207F" unicode="&#x207f;" horiz-adv-x="420" 
d="M257 495h30v163q0 27 -19 46q-20 18 -54 18q-18 0 -34 -11q-17 -12 -21 -26v31h-29v-221h29v143q0 26 15 43q14 16 38 16q22 0 35 -13q10 -17 10 -38v-151z" />
    <glyph glyph-name="uni2081" unicode="&#x2081;" horiz-adv-x="405" 
d="M211 -116h30v235h-26q-3 -23 -15 -30q-13 -10 -36 -11v-22h47v-172z" />
    <glyph glyph-name="uni2082" unicode="&#x2082;" horiz-adv-x="408" 
d="M280 55q0 31 -19 50q-20 17 -53 17q-35 0 -56 -24q-22 -23 -22 -59h31q0 24 11 41q11 16 36 16q42 0 42 -41q0 -19 -8 -33q-10 -16 -32 -28q-34 -24 -57 -48q-24 -22 -28 -64h152v30h-115q4 14 20 27q12 12 38 30q25 15 44 36q16 19 16 50z" />
    <glyph glyph-name="uni2083" unicode="&#x2083;" horiz-adv-x="428" 
d="M293 -48q0 21 -14 37t-34 19q20 3 31 19t11 34q0 27 -20 45q-22 16 -55 16q-31 0 -53 -22q-22 -23 -22 -55h30q0 51 46 51q20 0 33 -8q11 -9 11 -27t-11 -29t-30 -11h-15v-26h15q25 0 37 -11q12 -9 12 -32q0 -20 -14 -34q-15 -12 -39 -12q-19 0 -34 12q-16 12 -15 42h-31
q-1 -39 23 -60q25 -20 57 -20q36 0 59 20q22 22 22 52z" />
    <glyph glyph-name="uni2084" unicode="&#x2084;" horiz-adv-x="406" 
d="M224 81v-117h-76zM252 -63h31v27h-31v155h-27l-102 -155v-27h101v-53h28v53z" />
    <glyph glyph-name="uni20A9" unicode="&#x20a9;" horiz-adv-x="0" 
 />
    <glyph glyph-name="uni2103" unicode="&#x2103;" horiz-adv-x="630" 
d="M338 566q-27 -20 -52 -51q-28 -38 -40 -65q-20 -33 -29 -73q-9 -39 -9 -77q0 -47 20 -77q19 -34 65 -43q33 -6 69 -2q28 2 78 13q30 10 85 32q50 20 86 37l-28 75q-100 -54 -212 -75q-15 -3 -30 -3q-15 -1 -27 3q-14 3 -20 13q-7 8 -7 26q0 28 6 55t21 54q9 18 29 47
q15 20 32 41q35 32 72 37q35 3 68 -12l15 73q-52 21 -98 17q-49 -6 -94 -45zM208 576q-3 31 -28 46q-27 15 -57 18q-18 0 -30 -6q-13 -7 -22 -19q-13 -16 -17 -28q-7 -17 -7 -26q-1 -6 -1 -17q0 -10 3 -21t11 -19q6 -9 20 -17q20 -14 46 -18q25 -6 41 7q28 21 37 46
q7 27 4 54zM160 563q0 -9 -2 -19q-3 -8 -15 -19q-4 -2 -12 -2q-6 0 -9 3q-6 4 -8 6q-9 6 -12 12q-3 7 -2 13q0 7 9 19q6 11 17 11q9 0 22 -5q12 -6 12 -19z" />
    <glyph glyph-name="uni2109" unicode="&#x2109;" horiz-adv-x="635" 
d="M253 629l4 -81q7 0 23 2q15 0 21 1q-5 -48 -6 -102q-4 -74 -4 -111q-4 -74 -4 -108q-1 -36 -1 -98l81 8q0 59 2 94q0 51 3 105l111 6q19 1 56 2.5t55 2.5l1 80q-36 -2 -110 -4l-110 -6q0 47 2 70q2 42 4 65q62 2 94 4q60 2 89 4l1 80q-69 -3 -155 -6q-125 -7 -157 -8z
M208 620q-3 29 -28 45q-29 16 -57 19q-18 0 -30 -6q-13 -7 -22 -19q-13 -16 -17 -28q-7 -17 -7 -26q-1 -6 -1 -17q0 -10 3 -22q3 -10 11 -18q7 -10 20 -16q19 -14 46 -19q25 -6 41 7q28 21 37 46q7 27 4 54zM160 607q0 -9 -2 -19q-3 -8 -15 -16q-6 -6 -12 -6t-9 4q-6 4 -8 6
q-9 6 -12 12q-3 7 -2 13q0 6 9 18q6 11 17 11q9 0 22 -5q12 -6 12 -18z" />
    <glyph glyph-name="afii61289" unicode="&#x2113;" horiz-adv-x="540" 
d="M383 546q0 -115 -42 -211t-104 -178q0 40 2 66q2 42 7 80q3 36 11 88q7 50 19 91q13 62 36 100q21 36 40 36q14 0 24 -19q7 -25 7 -53zM441 549q0 14 -5 42q-6 25 -15 44q-9 22 -23 34q-18 13 -34 13q-31 0 -52 -18q-22 -16 -41 -45q-20 -28 -32 -62q-14 -34 -20 -61
q-23 -105 -29 -193q-8 -93 0 -195q-30 -22 -45 -34q-28 -21 -48 -31l29 -43q19 8 39 25q19 16 31 24q6 -42 31 -70t60 -28q43 0 74 28q29 32 56 96l-44 21l-5.5 -11t-6 -12.5t-5.5 -10.5q-11 -20 -20 -31q-10 -17 -20 -22q-11 -8 -24 -8q-20 0 -33 23q-16 22 -19 64
q40 40 79 93q38 54 62 110q29 58 45 122q15 64 15 136z" />
    <glyph glyph-name="afii61352" unicode="&#x2116;" horiz-adv-x="970" 
d="M458 654l-82 -4q-3 -98 -3 -186q0 -90 3 -182l-224 361l-79 -1q-6 -76 -6 -139q-3 -63 0 -123q0 -62 6 -125q2 -39 10 -135l81 9q-4 33 -8 100q-5 45 -6 91q-2 30 -2 88q-2 42 0 89l241 -389v-1h1l79 12q-6 69 -9 135q-4 88 -4 131q-3 58 -1 133q0 66 3 136zM504 300
q0 -38 10 -69q9 -34 27 -59q14 -26 42 -41q25 -15 58 -15q40 0 71 19q28 17 47 48q19 29 28 65q8 37 8 65q0 37 -11 68q-11 27 -34 48q-24 19 -53 28q-30 8 -65 6q-31 -3 -55 -17q-25 -16 -38 -36q-17 -22 -26 -50t-9 -60zM641 394q25 2 40 -4q17 -8 26 -19q6 -13 13 -31
q4 -24 4 -37q0 -14 -5 -37q-8 -28 -13 -40q-12 -21 -25 -31q-16 -13 -38 -13q-19 0 -30 11q-14 9 -20 25q-8 14 -10 34q-3 18 -3 38q0 46 14 73q14 28 47 31zM909 181q-7 18 -20 28q-15 6 -30 9q-12 0 -18 -3q-7 -4 -11 -11q-6 -8 -9 -17q-4 -12 -4 -15q2 -6 2 -10
q0 -9 1 -13q0 -4 4 -10q3 -6 9 -9q5 -3 17 -7q8 -3 17 -3q10 0 16 5q18 9 23 25q3 15 3 31z" />
    <glyph glyph-name="uni2121" unicode="&#x2121;" horiz-adv-x="900" 
d="M321 340l-8 -71q12 -5 25 -6q8 -2 31 -4q10 -55 50 -87q38 -32 88 -40t103 7q52 12 93 50l-36 60q-31 -24 -72 -39q-43 -15 -79 -5q-46 9 -66 52q34 1 72 9q34 6 69 23q34 14 54 40q20 25 20 64q0 25 -9 44t-27 32q-16 13 -34 21q-25 7 -47 7q-82 0 -131 -44
q-50 -45 -54 -118q-24 0 -42 5zM42 683l4 -79l135 4q-3 -134 4 -251q5 -110 22 -254l80 11q-13 114 -20 250q-8 120 -6 251l150 7l-6 81q-16 -1 -47.5 -2.5t-45.5 -2.5q-19 -1 -53 -3.5t-49 -3.5q-50 -1 -93 -3q-11 -1 -27 -2t-27.5 -2t-20.5 -1zM803 713h-79q-2 -73 0 -150
q0 -79 3 -154q6 -102 10 -157q5 -88 13 -152l78 8q-15 152 -21 304q-7 141 -4 301zM542 430q15 0 30 -6q13 -6 19 -24q3 -12 -2 -20q-6 -10 -14 -20q-12 -9 -23 -13q-13 -7 -20 -8q-24 -5 -47 -6q-24 -3 -47 -3q3 43 33 71q27 26 71 29z" />
    <glyph glyph-name="trademark" unicode="&#x2122;" horiz-adv-x="940" 
d="M257 672h152v42h-350v-42h150v-265h48v265zM830 407h46v307h-51l-167 -258l-167 258h-53v-307h47v241l150 -241h43l152 242v-242z" />
    <glyph glyph-name="Omega" unicode="&#x2126;" horiz-adv-x="682" 
d="M622 411q0 59 -21 111q-21 48 -59 86q-43 38 -90 58q-51 21 -113 21q-59 0 -110 -21q-52 -20 -90 -58q-38 -35 -59 -86q-22 -51 -22 -111q0 -57 15 -101q15 -46 43 -78q23 -33 58 -54q34 -23 73 -32v-142h-119v122h-51v-167h224v222q-91 21 -136 80q-46 56 -46 150
q0 46 18 88q18 41 46 73q31 31 71 48q39 18 85 18q50 0 92 -18q40 -18 70 -48q31 -34 47 -73q15 -42 15 -88q0 -93 -48 -150q-49 -59 -138 -80v-222h228v167h-55v-122h-117v142q35 8 73 32q34 20 61 54q23 33 39 78q16 46 16 101z" />
    <glyph glyph-name="uni212B" unicode="&#x212b;" horiz-adv-x="661" 
d="M330 412l99 -243h-202zM386 631q0 -25 -15 -41q-17 -18 -41 -18q-26 0 -41 18q-17 16 -17 41q0 24 17 41q15 18 41 18q24 0 41 -18q15 -18 15 -41zM529 -66h67l-228 548h-76l-229 -548h67l77 181h247zM418 631q0 16 -6 34q-5 15 -20 28q-11 13 -28 21q-18 6 -34 6
q-38 0 -63 -25q-26 -26 -26 -64q0 -39 26 -62q23 -26 63 -26q17 0 34 7q18 7 28 16q15 16 20 32q6 15 6 33z" />
    <glyph glyph-name="onethird" unicode="&#x2153;" horiz-adv-x="713" 
d="M646 -1q0 27 -14 52q-14 21 -43 34q23 9 33 30q9 20 9 46q0 22 -8 41q-9 17 -26 29q-15 12 -34 18q-23 5 -40 5q-56 0 -84 -34q-28 -35 -28 -91h42q-3 41 17 64q19 22 53 22q25 0 47 -14q19 -16 19 -43q0 -29 -20 -43t-40 -14h-32v-40h32q30 0 51 -18t21 -47
q0 -32 -24 -53q-25 -19 -54 -19q-38 0 -58 24q-22 27 -19 67h-43q-6 -62 30 -95q33 -33 91 -33q22 0 44 6q22 8 41 24q15 13 27 33q10 23 10 49zM91 7l539 561l-25 25l-538 -561zM167 345h41v361h-36q-2 -13 -7 -40q-6 -17 -14 -22q-13 -9 -23 -12q-18 -4 -34 -4v-35h73
v-248z" />
    <glyph glyph-name="twothirds" unicode="&#x2154;" horiz-adv-x="770" 
d="M689 -1q0 27 -14 52q-14 21 -43 34q22 9 33 30q9 20 9 46q0 22 -8 41q-9 17 -26 29q-15 12 -35 18q-23 5 -39 5q-56 0 -84 -34q-28 -35 -28 -91h42q-3 41 17 64q19 22 53 22q25 0 47 -14q19 -16 19 -43q0 -29 -20 -43t-40 -14h-32v-40h32q30 0 52 -18q22 -19 22 -47
q0 -31 -25 -53q-27 -19 -55 -19q-38 0 -58 24q-22 27 -19 67h-43q-6 -62 30 -95q33 -33 91 -33q21 0 44 6q22 8 41 24q13 11 26 33q11 22 11 49zM150 7l539 561l-27 25l-538 -561zM81 346h239v41h-190q6 23 29 40l42 31l40 28q21 14 40 31q16 19 27 40q11 22 11 48
q0 51 -33 78q-34 25 -79 25q-59 0 -90 -37q-30 -40 -29 -97h43q0 42 18 69q18 26 57 26q28 0 50 -17q20 -18 20 -47q0 -17 -7 -33q-11 -18 -20 -27q-15 -15 -23 -21l-25 -19q-10 -6 -46 -29q-22 -15 -36 -35q-19 -17 -28 -39q-10 -27 -10 -56z" />
    <glyph glyph-name="oneeighth" unicode="&#x215b;" horiz-adv-x="736" 
d="M618 -4q0 -34 -24 -54q-26 -18 -60 -18t-57 18q-23 19 -23 54t23 52t58 17q33 0 59 -18q24 -18 24 -51zM601 163h-1q0 -33 -20 -45q-20 -14 -46 -14q-29 0 -48 13q-21 12 -21 46q0 24 21 39q22 14 49 14q30 0 49 -14q17 -15 17 -39zM661 -4q0 29 -16 56q-17 22 -45 35
q23 9 35 30q12 18 12 46q0 22 -11 41q-12 16 -25 28q-19 12 -39 18q-23 5 -38 5q-20 0 -40 -5q-21 -6 -36 -18t-25 -28q-11 -16 -11 -41q0 -29 13 -46q12 -21 32 -30q-27 -12 -42 -37q-16 -26 -16 -54q0 -47 30 -80q30 -32 96 -32q20 0 48 7q23 7 41 22q14 12 26 34
q11 22 11 49zM100 7l539 561l-26 25l-538 -561zM174 345h43v361h-37q-3 -23 -8 -40q-6 -16 -13 -22q-9 -9 -22 -12q-20 -4 -35 -4v-35h72v-248z" />
    <glyph glyph-name="threeeighths" unicode="&#x215c;" horiz-adv-x="770" 
d="M639 -4q0 -34 -24 -54q-24 -18 -59 -18q-32 0 -56 18q-24 20 -24 54t25 52q25 17 55 17q34 0 59 -18q24 -18 24 -51zM625 163q0 -33 -20 -45q-20 -14 -49 -14q-25 0 -44 13q-21 12 -21 46q0 24 21 39q20 14 44 14q30 0 50 -14q19 -16 19 -39zM682 -4q0 30 -14 56
q-14 23 -43 35q20 8 32 30q11 19 11 46q0 23 -9 41q-9 16 -27 28q-15 12 -34 18q-23 5 -42 5q-16 0 -36 -5q-21 -6 -36 -18q-18 -12 -27 -28q-9 -18 -9 -41q0 -55 44 -76q-31 -12 -46 -37q-15 -27 -15 -54q0 -48 32 -80q30 -32 93 -32q22 0 50 7q23 8 41 22t26 34q9 21 9 49
zM125 7l539 561l-29 25l-538 -561zM329 453q0 29 -15 51q-15 20 -40 35q19 10 31 30q11 20 11 46q0 21 -10 41q-13 18 -24 29q-20 13 -37 19q-23 5 -39 5q-54 0 -84 -35q-30 -36 -30 -91h42q-3 41 17 65q19 22 55 22q28 0 49 -15q19 -16 19 -45q0 -27 -20 -41t-44 -14h-32
v-40h32q33 0 55 -17q21 -18 21 -48q0 -34 -24 -52q-23 -19 -56 -19q-39 0 -60 24q-22 25 -19 66h-43q-3 -62 33 -95q35 -33 90 -33q26 0 46 8q19 5 39 22q12 10 26 34q11 20 11 48z" />
    <glyph glyph-name="fiveeighths" unicode="&#x215d;" horiz-adv-x="767" 
d="M639 -4q0 -34 -24 -54q-25 -18 -60 -18q-32 0 -56 18q-24 20 -24 54t25 52q25 17 56 17q34 0 59 -18q24 -18 24 -51zM625 163q0 -33 -21 -45q-20 -14 -49 -14q-25 0 -44 13q-21 12 -21 46q0 24 21 39q22 14 45 14q30 0 50 -14q19 -16 19 -39zM682 -4q0 30 -14 56
q-14 22 -43 35q20 8 32 30q11 19 11 46q0 23 -9 41q-9 16 -27 28q-15 12 -35 18q-23 5 -42 5q-16 0 -36 -5q-21 -6 -36 -18q-18 -12 -27 -28q-9 -18 -9 -41q0 -29 11 -46q11 -21 34 -30q-31 -12 -46 -37q-16 -26 -16 -54q0 -48 32 -80t94 -32q22 0 50 7q23 8 41 22t26 34
q9 21 9 49zM125 7l539 561l-30 25l-538 -561zM330 462q0 52 -34 89q-35 36 -89 36q-36 0 -66 -22l21 96h152v40h-188l-35 -192h38q13 19 33 30q18 9 43 9q36 0 60 -24q23 -25 23 -60t-22 -60q-24 -25 -61 -25q-35 0 -56 21q-22 21 -22 59h-44q0 -59 36 -88q36 -30 86 -30
q24 0 48 9q22 7 39 26q16 16 27 37q11 22 11 49z" />
    <glyph glyph-name="seveneighths" unicode="&#x215e;" horiz-adv-x="734" 
d="M618 -4q0 -34 -24 -54q-26 -18 -60 -18t-57 18q-23 19 -23 54t23 52t58 17q33 0 59 -18q24 -18 24 -51zM601 163h-1q0 -33 -20 -45q-20 -14 -46 -14q-29 0 -48 13q-21 12 -21 46q0 24 21 39q22 14 49 14q30 0 49 -14q17 -15 17 -39zM661 -4q0 29 -16 56q-17 22 -45 35
q23 9 35 30q12 18 12 46q0 22 -11 41q-12 16 -25 28q-19 12 -39 18q-23 5 -38 5q-20 0 -40 -5q-21 -6 -36 -18t-25 -28q-11 -16 -11 -41q0 -29 13 -46q12 -21 32 -30q-27 -12 -42 -37q-16 -26 -16 -54q0 -47 30 -80q30 -32 96 -32q20 0 48 7q23 7 41 22q14 12 26 34
q11 22 11 49zM98 7l539 561l-26 25l-538 -561zM328 662v39h-238v-43h188q-34 -38 -59 -76q-24 -35 -43 -75q-18 -45 -25 -78q-11 -36 -14 -86h48q4 61 20 114q14 51 37 90q17 37 43 68t43 47z" />
    <glyph glyph-name="uni2160" unicode="&#x2160;" horiz-adv-x="940" 
d="M435 -41h66v713h-66v-713z" />
    <glyph glyph-name="uni2161" unicode="&#x2161;" horiz-adv-x="940" 
d="M302 -41h68v713h-68v-713zM569 -41h64v713h-64v-713z" />
    <glyph glyph-name="uni2162" unicode="&#x2162;" horiz-adv-x="940" 
d="M215 -41h68v713h-68v-713zM435 -41h66v713h-66v-713zM657 -41h64v713h-64v-713z" />
    <glyph glyph-name="uni2163" unicode="&#x2163;" horiz-adv-x="940" 
d="M141 -41h67v713h-67v-713zM586 -41l209 713h-68l-182 -635l-180 635h-71l210 -713h82z" />
    <glyph glyph-name="uni2164" unicode="&#x2164;" horiz-adv-x="940" 
d="M507 -41l251 713h-68l-222 -638l-218 638h-73l252 -713h78z" />
    <glyph glyph-name="uni2165" unicode="&#x2165;" horiz-adv-x="940" 
d="M432 -41l210 713h-67l-184 -635l-182 635h-68l209 -713h82zM731 -41h64v713h-64v-713z" />
    <glyph glyph-name="uni2166" unicode="&#x2166;" horiz-adv-x="940" 
d="M368 -41l167 713h-71l-140 -634l-144 634h-66l166 -713h88zM609 -41h61v713h-61v-713zM760 -41h65v713h-65v-713z" />
    <glyph glyph-name="uni2167" unicode="&#x2167;" horiz-adv-x="940" 
d="M305 -41l129 713h-64l-109 -634l-105 634h-67l128 -713h88zM501 -41h65v713h-65v-713zM643 -41h65v713h-65v-713zM786 -41h61v713h-61v-713z" />
    <glyph glyph-name="uni2168" unicode="&#x2168;" horiz-adv-x="940" 
d="M119 -41h64v713h-64v-713zM742 -41h79l-233 368l216 345h-78l-175 -291l-176 291h-79l217 -347l-230 -366h79l188 310z" />
    <glyph glyph-name="uni2169" unicode="&#x2169;" horiz-adv-x="940" 
d="M678 -41h79l-251 368l238 345h-78l-197 -291l-195 291h-78l235 -347l-252 -366h79l210 310z" />
    <glyph glyph-name="uni2170" unicode="&#x2170;" horiz-adv-x="940" 
d="M439 -41h61v515h-61v-515zM438 572h62v100h-62v-100z" />
    <glyph glyph-name="uni2171" unicode="&#x2171;" horiz-adv-x="940" 
d="M307 -41h63v515h-63v-515zM569 -41h59v515h-59v-515zM306 572h65v100h-65v-100zM568 572h61v100h-61v-100z" />
    <glyph glyph-name="uni2172" unicode="&#x2172;" horiz-adv-x="940" 
d="M216 -41h63v515h-63v-515zM439 -41h61v515h-61v-515zM215 572h65v100h-65v-100zM660 -41h59v515h-59v-515zM438 572h62v100h-62v-100zM659 572h61v100h-61v-100z" />
    <glyph glyph-name="uni2173" unicode="&#x2173;" horiz-adv-x="940" 
d="M197 -41h59v515h-59v-515zM576 -41l167 515h-67l-134 -445l-136 445h-66l166 -515h70zM196 572h61v100h-61v-100z" />
    <glyph glyph-name="uni2174" unicode="&#x2174;" horiz-adv-x="940" 
d="M501 -41l189 515h-67l-156 -451l-152 451h-66l184 -515h68z" />
    <glyph glyph-name="uni2175" unicode="&#x2175;" horiz-adv-x="940" 
d="M429 -41l166 515h-62l-136 -445l-138 445h-63l167 -515h66zM679 -41h63v515h-63v-515zM678 572h65v100h-65v-100z" />
    <glyph glyph-name="uni2176" unicode="&#x2176;" horiz-adv-x="940" 
d="M362 -41l144 515h-62l-116 -445l-118 445h-63l145 -515h70zM582 -41h57v515h-57v-515zM733 -41h59v515h-59v-515zM581 572h59v100h-59v-100zM732 572h60v100h-60v-100z" />
    <glyph glyph-name="uni2177" unicode="&#x2177;" horiz-adv-x="940" 
d="M314 -41l141 515h-64l-111 -445l-113 445h-65l144 -515h68zM516 -41h58v515h-58v-515zM648 -41h56v515h-56v-515zM778 -41h55v515h-55v-515zM515 572h60v100h-60v-100zM647 572h58v100h-58v-100zM777 572h56v100h-56v-100z" />
    <glyph glyph-name="uni2178" unicode="&#x2178;" horiz-adv-x="940" 
d="M183 -41h63v515h-63v-515zM684 -41h70l-172 269l157 246h-73l-121 -200l-120 200h-73l159 -246l-173 -269h72l136 221zM182 572h65v100h-65v-100z" />
    <glyph glyph-name="uni2179" unicode="&#x2179;" horiz-adv-x="940" 
d="M626 -41h72l-196 269l177 246h-71l-141 -200l-138 200h-75l179 -246l-191 -269h68l158 221z" />
    <glyph glyph-name="arrowleft" unicode="&#x2190;" horiz-adv-x="699" 
d="M316 407q-9 9 -16 12q-10 0 -19 -3q-10 -4 -20 -11q-12 -7 -18 -12l-47 -27l-37 -25q-20 -10 -30 -20q-10 -9 -14 -18q-10 -22 -1 -47q8 -27 25 -47q21 -24 45 -45q26 -24 46 -39q15 -14 35 -27q18 -13 36 -17q7 0 12 2q6 0 11 7q5 11 2 22q-6 12 -10 17l-38 31
q-17 12 -36 29q-22 16 -36 31q-17 16 -30 37q31 4 95 8q33 0 97 2q63 0 95 2q41 1 91 8q8 4 14 6q6 0 14 4q1 1 4 3.5t5 4.5q4 4 5 12q-3 14 -14 17q-10 1 -25 5q-81 -9 -167 -6q-86 1 -167 0q8 5 23.5 16t23.5 16q21 13 30 23q19 14 16 29z" />
    <glyph glyph-name="arrowup" unicode="&#x2191;" horiz-adv-x="500" 
d="M404 411l-116 125q-1 1 -6 8t-7 11q-1 1 -16 19q-10 7 -17 8q-10 0 -26 -14q-36 -28 -69 -63q-32 -32 -64 -74q-5 -11 -2 -21q0 -11 10 -18q19 -3 30 1q9 2 25 13l78 76l15 -116q8 -83 11 -118q3 -41 7 -121q0 -68 -4 -121q1 -5 8 -10q2 -1 14 -5q17 0 24 15q8 20 11 30
q10 104 1 198q-6 58 -19 195v12l78 -74q8 -6 21 -3q12 2 18 13q3 7 2 15q-6 15 -7 19z" />
    <glyph glyph-name="arrowright" unicode="&#x2192;" horiz-adv-x="699" 
d="M383 406q-3 -16 16 -29q10 -10 31 -23l44 -32q-91 2 -167 -1q-89 -3 -167 7q-17 -4 -22 -5q-12 -3 -17 -17q0 -8 7 -12q3 -4 11 -8t12 -5l12 -6q41 -5 95 -7q31 -2 95 -2q60 -2 94 -2q64 -4 96 -8q-13 -21 -30 -38l-35 -30q-15 -12 -37 -29q-26 -20 -38 -30
q-7 -10 -8 -18q-3 -12 0 -22q3 -7 10 -7q4 -2 13 -2q17 4 38 17q18 11 33 27q23 16 48 39q21 18 41 45q19 19 29 47q6 23 -3 47q-2 8 -13 18l-29 20q-22 13 -39 25q-23 12 -45 27q-7 4 -19 12l-21 11q-9 3 -18 3q-11 -3 -17 -12z" />
    <glyph glyph-name="arrowdown" unicode="&#x2193;" horiz-adv-x="500" 
d="M241 642q-2 4 -9 11q-12 4 -15 4q-7 0 -13 -4q-7 -7 -8 -11q-8 -132 -10 -294q-3 -139 -1 -298q-25 37 -38 68q-15 30 -24 60l-10 20q-7 10 -21 7q-15 -6 -15 -21q-3 -14 2 -30q13 -49 40 -106q23 -52 70 -96q14 -12 34 -18q20 -5 36 4q57 48 91 101q43 68 74 111
q2 9 2 26q-3 11 -11 15q-7 5 -19 8q-12 0 -17 -9q-29 -40 -59 -88q-33 -51 -68 -86q-2 106 -2 314q0 154 -9 312z" />
    <glyph glyph-name="arrowboth" unicode="&#x2194;" horiz-adv-x="940" 
d="M739 135l179 163l-179 164l71 -152h-684l75 152l-183 -164l183 -163l-75 152h684z" />
    <glyph glyph-name="arrowupdn" unicode="&#x2195;" horiz-adv-x="444" 
d="M220 -200l163 179l-149 -72v781l149 -72l-163 180l-163 -180l151 72v-781l-151 72z" />
    <glyph glyph-name="uni2196" unicode="&#x2196;" horiz-adv-x="940" 
d="M886 -190l19 18l-791 879l162 45l-241 25v-241l60 152z" />
    <glyph glyph-name="uni2197" unicode="&#x2197;" horiz-adv-x="940" 
d="M841 688l64 -152v241l-241 -25l162 -45l-791 -879l15 -18z" />
    <glyph glyph-name="uni2198" unicode="&#x2198;" horiz-adv-x="940" 
d="M664 -157l241 -28v244l-64 -152l-791 878l-15 -18l791 -879z" />
    <glyph glyph-name="uni2199" unicode="&#x2199;" horiz-adv-x="940" 
d="M114 -112l791 879l-19 18l-791 -878l-60 152v-244l241 28z" />
    <glyph glyph-name="uni21B0" unicode="&#x21b0;" horiz-adv-x="0" 
 />
    <glyph glyph-name="uni21B1" unicode="&#x21b1;" horiz-adv-x="0" 
 />
    <glyph glyph-name="uni21B2" unicode="&#x21b2;" horiz-adv-x="0" 
 />
    <glyph glyph-name="uni21B3" unicode="&#x21b3;" horiz-adv-x="0" 
 />
    <glyph glyph-name="uni21B4" unicode="&#x21b4;" horiz-adv-x="0" 
 />
    <glyph glyph-name="uni21BC" unicode="&#x21bc;" horiz-adv-x="0" 
 />
    <glyph glyph-name="uni21C0" unicode="&#x21c0;" horiz-adv-x="0" 
 />
    <glyph glyph-name="uni21C4" unicode="&#x21c4;" horiz-adv-x="0" 
 />
    <glyph glyph-name="uni21C5" unicode="&#x21c5;" horiz-adv-x="0" 
 />
    <glyph glyph-name="uni21CD" unicode="&#x21cd;" horiz-adv-x="0" 
 />
    <glyph glyph-name="uni21CF" unicode="&#x21cf;" horiz-adv-x="0" 
 />
    <glyph glyph-name="arrowdblleft" unicode="&#x21d0;" horiz-adv-x="0" 
 />
    <glyph glyph-name="arrowdblup" unicode="&#x21d1;" horiz-adv-x="0" 
 />
    <glyph glyph-name="arrowdblright" unicode="&#x21d2;" horiz-adv-x="940" 
d="M668 46l250 251l-250 251l-19 -23l124 -121h-755v-28h782l79 -79l-79 -78h-782v-29h756l-125 -125z" />
    <glyph glyph-name="arrowdbldown" unicode="&#x21d3;" horiz-adv-x="0" 
 />
    <glyph glyph-name="arrowdblboth" unicode="&#x21d4;" horiz-adv-x="940" 
d="M799 376l79 -79l-79 -78h-663l-79 78l79 79h663zM667 46l250 251l-250 251l-19 -23l124 -121h-605l124 121l-23 23l-250 -251l250 -251l23 19l-125 125h607l-125 -125z" />
    <glyph glyph-name="uni21E0" unicode="&#x21e0;" horiz-adv-x="0" 
 />
    <glyph glyph-name="uni21E1" unicode="&#x21e1;" horiz-adv-x="0" 
 />
    <glyph glyph-name="uni21E2" unicode="&#x21e2;" horiz-adv-x="0" 
 />
    <glyph glyph-name="uni21E3" unicode="&#x21e3;" horiz-adv-x="0" 
 />
    <glyph glyph-name="uni21E6" unicode="&#x21e6;" horiz-adv-x="0" 
 />
    <glyph glyph-name="uni21E7" unicode="&#x21e7;" horiz-adv-x="0" 
 />
    <glyph glyph-name="uni21E8" unicode="&#x21e8;" horiz-adv-x="0" 
 />
    <glyph glyph-name="uni21E9" unicode="&#x21e9;" horiz-adv-x="0" 
 />
    <glyph glyph-name="universal" unicode="&#x2200;" horiz-adv-x="940" 
d="M334 392h268l-134 -368zM505 -41l272 713h-71l-81 -221h-310l-81 221h-71l268 -713h74z" />
    <glyph glyph-name="partialdiff" unicode="&#x2202;" horiz-adv-x="496" 
d="M345 311h-1q-2 -8 -6 -21.5t-5 -17.5q-6 -17 -14 -32l-18 -29q-3 -5 -10 -14.5t-10 -13.5q-19 -20 -41 -36q-23 -16 -48 -16q-23 0 -37 14q-16 13 -16 37q0 32 14 56t38 44q20 17 50 26q32 8 58 8q3 0 11 -0.5t13 -0.5q16 -2 22 -4zM416 352q0 33 -11 64q-12 29 -30 50
q-21 20 -47 31q-28 12 -61 12q-23 0 -49 -7q-20 -6 -44 -20q-19 -11 -33 -25q-13 -13 -25 -27l20 -14q26 23 57 44q27 16 64 16q35 0 56 -18q19 -21 25 -42q8 -26 9 -48q0 -9 -0.5 -20t-0.5 -13q-2 1 -11.5 3.5t-15.5 4.5q-24 4 -36 4q-33 0 -69 -9q-39 -11 -65 -31
q-32 -22 -49 -51q-20 -30 -20 -71q0 -43 28 -64q26 -23 68 -23q46 0 90 21q45 21 76 55q33 36 54 82q20 46 20 96z" />
    <glyph glyph-name="existential" unicode="&#x2203;" horiz-adv-x="940" 
d="M233 -41h473v713h-466v-57h398v-258h-376v-57h376v-284h-405v-57z" />
    <glyph glyph-name="Delta" unicode="&#x2206;" horiz-adv-x="0" 
 />
    <glyph glyph-name="gradient" unicode="&#x2207;" horiz-adv-x="940" 
d="M177 544h582l-291 -467zM468 -24l392 618h-780z" />
    <glyph glyph-name="element" unicode="&#x2208;" horiz-adv-x="940" 
d="M362 37h457v38h-436q-53 0 -92 16q-43 15 -69 44q-26 28 -41 70q-15 39 -18 86h653v38h-653q3 47 18 87q16 41 41 66q26 28 69 47q43 16 92 16h436v38h-441q-55 0 -106 -19q-50 -20 -81 -55q-34 -35 -52 -85q-18 -51 -18 -115q0 -63 18 -114q19 -53 50 -87q30 -34 74 -52
q42 -19 99 -19z" />
    <glyph glyph-name="notelement" unicode="&#x2209;" horiz-adv-x="0" 
 />
    <glyph glyph-name="suchthat" unicode="&#x220b;" horiz-adv-x="940" 
d="M819 309q0 64 -18 115q-17 47 -52 85q-34 34 -82 55q-51 19 -109 19h-437v-38h432q51 0 96 -16q41 -19 66 -47q29 -28 44 -66q15 -40 18 -87h-653v-38h653q-3 -47 -18 -86q-14 -39 -44 -70q-26 -28 -66 -44q-41 -16 -96 -16h-432v-38h457q51 0 95 19q45 19 77 52
q33 36 51 87t18 114z" />
    <glyph glyph-name="uni220C" unicode="&#x220c;" horiz-adv-x="0" 
 />
    <glyph glyph-name="product" unicode="&#x220f;" horiz-adv-x="754" 
d="M555 615h144v57h-646v-57h144v-656h64v656h230v-656h64v656z" />
    <glyph glyph-name="summation" unicode="&#x2211;" horiz-adv-x="658" 
d="M70 -41h516v55h-414l271 310l-267 293h407v55h-504v-55l265 -291l-274 -322v-45z" />
    <glyph glyph-name="uni2213" unicode="&#x2213;" horiz-adv-x="0" 
 />
    <glyph glyph-name="radical" unicode="&#x221a;" horiz-adv-x="804" 
d="M399 572h389v36h-422l-189 -572l-86 155l-77 -65l18 -22l48 32l110 -201z" />
    <glyph glyph-name="proportional" unicode="&#x221d;" horiz-adv-x="721" 
d="M380 311q-10 -21 -27 -46q-11 -16 -37 -46q-23 -20 -51 -34q-25 -14 -62 -14q-69 0 -102 39q-35 38 -35 102t36 103t101 39q34 0 62 -14q29 -16 51 -34q2 -2 16 -19.5t21 -26.5q17 -27 27 -49zM676 428l22 33q-24 15 -48 24q-25 9 -55 9q-37 0 -65 -12q-28 -13 -54 -32
q-23 -21 -42 -47t-34 -55l-32 50q-15 20 -40 45q-29 22 -58 37q-33 14 -73 14q-33 0 -65 -12q-34 -14 -55 -35q-26 -23 -40 -58q-14 -32 -14 -77q0 -47 14 -78q13 -34 41 -57q22 -24 55 -34q31 -12 65 -12q43 0 72 14q32 14 57 34q24 24 40 48l33 46q17 -30 34 -54
q18 -29 42 -45q22 -19 54 -32q28 -12 65 -12q27 0 49 7q25 7 40 17l-17 32q-15 -9 -32 -12q-15 -5 -40 -5q-61 0 -99 37q-40 36 -78 105q38 69 78 108q40 37 99 37q24 0 46 -8q24 -11 35 -20z" />
    <glyph glyph-name="infinity" unicode="&#x221e;" horiz-adv-x="813" 
d="M388 311h-1q-4 -8 -28 -46q-15 -24 -36 -46q-22 -19 -50 -34q-25 -14 -64 -14q-67 0 -101 39q-35 38 -35 102q0 65 38 103q37 39 99 39q36 0 64 -14q30 -17 50 -34q21 -24 36 -46q23 -40 28 -49zM741 312h-1q0 -29 -11 -56q-13 -30 -26 -45q-23 -23 -45 -31
q-23 -11 -53 -11q-65 0 -103 37q-41 35 -76 105q37 71 77 108t103 37q28 0 53 -12q22 -13 45 -32q14 -20 27 -47q10 -30 10 -53zM782 312q0 33 -14 69q-15 33 -36 57q-25 25 -57 41q-34 15 -73 15q-34 0 -64 -12q-31 -13 -53 -32q-26 -20 -45 -47q-21 -29 -32 -55l-32 50
q-19 25 -43 45q-28 23 -56 37q-33 14 -72 14q-35 0 -65 -12q-30 -13 -57 -35q-26 -24 -38 -58q-14 -32 -14 -77q0 -47 14 -78q13 -34 39 -57t57 -34q30 -12 65 -12q43 0 72 14q32 15 56 34q27 22 44 48q10 13 31 46q10 -23 32 -53q19 -29 45 -46q19 -19 53 -32
q30 -12 66 -12q38 0 70 16q32 15 58 39q19 23 35 58q14 31 14 69z" />
    <glyph glyph-name="orthogonal" unicode="&#x221f;" horiz-adv-x="0" 
 />
    <glyph glyph-name="angle" unicode="&#x2220;" horiz-adv-x="940" 
d="M167 -1h605v33h-554l455 527l-26 24l-480 -560v-24z" />
    <glyph glyph-name="uni2222" unicode="&#x2222;" horiz-adv-x="0" 
 />
    <glyph glyph-name="uni2225" unicode="&#x2225;" horiz-adv-x="0" 
 />
    <glyph glyph-name="uni2226" unicode="&#x2226;" horiz-adv-x="0" 
 />
    <glyph glyph-name="logicaland" unicode="&#x2227;" horiz-adv-x="940" 
d="M750 -1l35 16l-295 571h-40l-295 -571l34 -16l279 543z" />
    <glyph glyph-name="logicalor" unicode="&#x2228;" horiz-adv-x="940" 
d="M490 2l295 570l-35 16l-282 -542l-279 542l-34 -16l295 -570h40z" />
    <glyph glyph-name="intersection" unicode="&#x2229;" horiz-adv-x="646" 
d="M556 -30h38v457q0 49 -19 96q-20 44 -52 77q-37 32 -86 51q-53 18 -114 18q-67 0 -115 -18q-49 -19 -85 -53q-37 -33 -56 -81q-19 -47 -19 -107v-440h38v434q0 58 19 99q19 42 50 69q27 26 73 41q45 14 95 14q49 0 93 -14q43 -16 76 -41q30 -28 48 -69q16 -45 16 -99
v-434z" />
    <glyph glyph-name="union" unicode="&#x222a;" horiz-adv-x="646" 
d="M594 184v457h-38v-433q0 -57 -16 -100q-19 -44 -48 -67q-33 -29 -76 -44q-44 -14 -93 -14q-50 0 -95 14q-46 15 -73 44q-31 22 -50 67q-19 39 -19 100v433h-38v-438q0 -63 19 -108q19 -51 56 -82q36 -34 85 -53q51 -19 115 -19q59 0 114 19q49 19 86 51q33 33 52 77
t19 96z" />
    <glyph glyph-name="integral" unicode="&#x222b;" horiz-adv-x="508" 
d="M411 627l47 20q-35 64 -94 64q-32 0 -54 -24q-24 -24 -42 -62q-24 -63 -35 -140q-14 -84 -14 -187q-4 -105 -8 -154q-5 -59 -16 -117q-14 -49 -25 -72q-12 -25 -28 -25t-29 11t-22 30l-44 -26q33 -59 92 -59q30 0 54 24q22 22 41 62q22 59 35 138q12 81 15 188
q3 86 9 155q6 71 16 115q12 49 24 74q13 25 28 25q13 0 29 -11q13 -13 21 -29z" />
    <glyph glyph-name="uni222C" unicode="&#x222c;" horiz-adv-x="940" 
d="M503 627l48 20q-30 64 -93 64q-31 0 -55 -24q-25 -25 -38 -62q-26 -59 -37 -140q-11 -77 -13 -187q-3 -93 -10 -154q-12 -88 -16 -117q-12 -48 -25 -72q-16 -25 -26 -25q-19 0 -30 11q-13 13 -23 30l-44 -26q32 -59 94 -59q27 0 53 24q25 25 40 62q22 59 35 138
q11 77 13 188q3 93 10 155q5 61 19 115q9 47 23 74q12 25 27 25q13 0 29 -11q14 -14 19 -29zM749 627l45 20q-34 64 -92 64q-32 0 -55 -24q-24 -24 -39 -62q-25 -59 -37 -140q-14 -84 -14 -187q-4 -105 -8 -154q-8 -75 -16 -117q-12 -47 -24 -72q-14 -25 -27 -25
q-19 0 -30 11q-13 13 -23 30l-44 -26q32 -59 92 -59q30 0 54 24q22 22 41 62q22 59 35 138q12 81 15 188q3 86 9 155q6 67 18 115q8 45 22 74q13 25 28 25q13 0 29 -11q13 -13 21 -29z" />
    <glyph glyph-name="uni222E" unicode="&#x222e;" horiz-adv-x="940" 
d="M445 409q-5 -54 -6 -111q-7 -103 -8 -114q-32 9 -50 39q-18 31 -14 74q3 39 25 71q22 28 53 41zM580 297q-5 -46 -28 -75q-24 -31 -61 -39q1 9 2.5 28t2.5 28q0 17 2 59q0 41 4 115q40 -9 61 -41q20 -34 17 -75zM630 627l47 20q-30 64 -94 64q-31 0 -53 -24
q-25 -25 -38 -62q-18 -38 -27 -82q-11 -50 -17 -104q-51 -12 -86 -46q-38 -35 -44 -96q-3 -34 5 -56q8 -26 22 -42q17 -20 39 -29q20 -12 44 -16q-12 -112 -31 -166q-21 -58 -41 -58q-19 0 -30 11q-13 13 -23 30l-44 -26q33 -59 92 -59q30 0 54 24q23 25 41 62q14 41 24 81
q11 41 19 99q27 7 50 17q24 9 44 29q17 16 30 42q12 24 15 57q3 32 -5 59q-9 24 -27 42q-14 18 -38 31q-24 9 -52 12q12 112 32 168q20 58 44 58q13 0 29 -11q14 -14 19 -29z" />
    <glyph glyph-name="therefore" unicode="&#x2234;" horiz-adv-x="940" 
d="M278 131q0 19 -15 35q-16 16 -38 16q-19 0 -35 -16t-16 -35q0 -24 16 -36q14 -14 35 -14q24 0 38 14q15 12 15 36zM762 131q0 18 -14 35q-16 16 -37 16q-18 0 -34 -16q-15 -17 -15 -35q0 -24 15 -36q14 -14 34 -14q23 0 37 14q14 12 14 36zM521 537q0 19 -15 36
q-15 15 -38 15q-20 0 -35 -15q-16 -16 -16 -36q0 -23 16 -38q15 -16 35 -16q23 0 38 16q15 15 15 38z" />
    <glyph glyph-name="uni2235" unicode="&#x2235;" horiz-adv-x="940" 
d="M521 119q0 19 -15 36q-15 15 -38 15q-20 0 -35 -15q-16 -16 -16 -36q0 -22 16 -37q15 -16 35 -16q23 0 38 16q15 15 15 37zM278 523q0 22 -15 37t-38 15q-20 0 -35 -15q-16 -15 -16 -37q0 -20 16 -35q15 -16 35 -16q23 0 38 16q15 15 15 35zM762 523q0 21 -14 37
q-15 15 -37 15q-19 0 -34 -15t-15 -37q0 -20 15 -35q15 -16 34 -16q22 0 37 16q14 16 14 35z" />
    <glyph glyph-name="uni2236" unicode="&#x2236;" horiz-adv-x="940" 
d="M377 101h181l-91 94zM467 400l91 98h-181z" />
    <glyph glyph-name="uni2237" unicode="&#x2237;" horiz-adv-x="0" 
 />
    <glyph glyph-name="uni223D" unicode="&#x223d;" horiz-adv-x="793" 
d="M772 312q0 33 -13 69q-13 33 -39 57q-24 25 -55 41q-34 15 -73 15q-35 0 -66 -13q-29 -13 -55 -33q-25 -23 -42 -49q-17 -22 -37 -58q-8 -17 -28 -53q-16 -29 -37 -56q-26 -25 -55 -42q-29 -19 -71 -19q-69 0 -103 40q-35 38 -35 101q0 65 37 103q36 39 102 39
q18 0 43 -7q17 -7 40 -18l17 32q-24 14 -48 23q-32 10 -59 10q-33 0 -65 -12q-34 -14 -55 -35q-28 -25 -40 -58q-14 -32 -14 -77q0 -47 14 -78q13 -34 41 -57q22 -24 55 -34q31 -12 65 -12q50 0 86 20q35 18 60 47q30 30 46 58q7 11 29 53q36 70 78 110q40 37 99 37
q30 0 56 -12q19 -11 44 -32q14 -20 27 -47q10 -30 10 -53q0 -29 -11 -56q-12 -27 -27 -45q-23 -23 -44 -31q-22 -11 -56 -11q-53 0 -89 26l-16 -29q46 -36 105 -36q40 0 73 16q32 15 55 39q25 27 38 58q13 33 13 69z" />
    <glyph glyph-name="uni2243" unicode="&#x2243;" horiz-adv-x="0" 
 />
    <glyph glyph-name="congruent" unicode="&#x2245;" horiz-adv-x="0" 
 />
    <glyph glyph-name="approxequal" unicode="&#x2248;" horiz-adv-x="0" 
 />
    <glyph glyph-name="uni2250" unicode="&#x2250;" horiz-adv-x="0" 
 />
    <glyph glyph-name="uni2251" unicode="&#x2251;" horiz-adv-x="0" 
 />
    <glyph glyph-name="uni2252" unicode="&#x2252;" horiz-adv-x="748" 
d="M48 209h650v38h-650v-38zM616 81q0 20 -16 38q-19 16 -41 16q-20 0 -38 -16q-17 -16 -17 -38q0 -26 17 -40q16 -17 38 -17q24 0 41 17q16 16 16 40zM242 539q0 21 -17 38q-19 16 -40 16q-20 0 -38 -16q-17 -16 -17 -38q0 -26 17 -40q16 -17 38 -17q23 0 40 17
q17 15 17 40zM48 375h650v38h-650v-38z" />
    <glyph glyph-name="uni2253" unicode="&#x2253;" horiz-adv-x="0" 
 />
    <glyph glyph-name="uni225A" unicode="&#x225a;" horiz-adv-x="0" 
 />
    <glyph glyph-name="notequal" unicode="&#x2260;" horiz-adv-x="537" 
d="M107 72l85 -31l55 157h224v90h-193l41 116h152v90h-121l34 97l-84 32l-46 -129h-190v-90h159l-41 -116h-118v-90h87z" />
    <glyph glyph-name="equivalence" unicode="&#x2261;" horiz-adv-x="748" 
d="M48 129h650v41h-650v-41zM48 291h650v40h-650v-40zM48 452h650v39h-650v-39z" />
    <glyph glyph-name="uni2262" unicode="&#x2262;" horiz-adv-x="0" 
 />
    <glyph glyph-name="lessequal" unicode="&#x2264;" horiz-adv-x="672" 
d="M30 -38h610v37h-610v-37zM609 40l17 35l-530 283l530 272l-16 34l-569 -289v-30z" />
    <glyph glyph-name="greaterequal" unicode="&#x2265;" horiz-adv-x="672" 
d="M30 -38h610v37h-610v-37zM63 40l566 305v30l-569 289l-18 -34l532 -272l-532 -283z" />
    <glyph glyph-name="uni2266" unicode="&#x2266;" horiz-adv-x="0" 
 />
    <glyph glyph-name="uni2267" unicode="&#x2267;" horiz-adv-x="0" 
 />
    <glyph glyph-name="uni226E" unicode="&#x226e;" horiz-adv-x="0" 
 />
    <glyph glyph-name="uni226F" unicode="&#x226f;" horiz-adv-x="0" 
 />
    <glyph glyph-name="uni2270" unicode="&#x2270;" horiz-adv-x="0" 
 />
    <glyph glyph-name="uni2271" unicode="&#x2271;" horiz-adv-x="0" 
 />
    <glyph glyph-name="uni2272" unicode="&#x2272;" horiz-adv-x="0" 
 />
    <glyph glyph-name="uni2273" unicode="&#x2273;" horiz-adv-x="0" 
 />
    <glyph glyph-name="uni2276" unicode="&#x2276;" horiz-adv-x="0" 
 />
    <glyph glyph-name="uni2277" unicode="&#x2277;" horiz-adv-x="0" 
 />
    <glyph glyph-name="uni2279" unicode="&#x2279;" horiz-adv-x="0" 
 />
    <glyph glyph-name="uni227A" unicode="&#x227a;" horiz-adv-x="0" 
 />
    <glyph glyph-name="uni227B" unicode="&#x227b;" horiz-adv-x="0" 
 />
    <glyph glyph-name="uni2280" unicode="&#x2280;" horiz-adv-x="0" 
 />
    <glyph glyph-name="uni2281" unicode="&#x2281;" horiz-adv-x="0" 
 />
    <glyph glyph-name="propersubset" unicode="&#x2282;" horiz-adv-x="940" 
d="M362 37h457v38h-436q-57 0 -95 17q-41 15 -72 49q-27 30 -39 74q-14 39 -14 94q0 52 14 94q12 43 39 75q32 32 72 49q40 18 95 18h436v38h-441q-55 0 -106 -19q-50 -20 -81 -55q-34 -35 -52 -85q-18 -51 -18 -115q0 -63 18 -114q19 -53 50 -87q30 -34 74 -52
q42 -19 99 -19z" />
    <glyph glyph-name="propersuperset" unicode="&#x2283;" horiz-adv-x="940" 
d="M819 309q0 64 -18 115q-17 47 -52 85q-34 34 -82 55q-51 19 -109 19h-437v-38h432q58 0 100 -18q38 -17 67 -49q28 -30 44 -75q13 -49 13 -94q0 -49 -13 -94q-16 -46 -44 -74q-28 -35 -67 -49q-40 -17 -100 -17h-432v-38h457q51 0 95 19q45 19 77 52q33 36 51 87t18 114z
" />
    <glyph glyph-name="notsubset" unicode="&#x2284;" horiz-adv-x="0" 
 />
    <glyph glyph-name="uni2285" unicode="&#x2285;" horiz-adv-x="0" 
 />
    <glyph glyph-name="reflexsubset" unicode="&#x2286;" horiz-adv-x="940" 
d="M121 -5h701v36h-701v-36zM360 137h457v36h-436q-223 0 -223 203q0 202 223 202h436v36h-441q-57 0 -107 -14q-52 -16 -80 -44q-34 -31 -52 -75q-19 -44 -19 -105q0 -63 18 -108t48 -75q32 -28 77 -41q43 -15 99 -15z" />
    <glyph glyph-name="reflexsuperset" unicode="&#x2287;" horiz-adv-x="940" 
d="M118 -5h701v36h-701v-36zM822 376q0 60 -18 105q-20 43 -54 75q-33 28 -81 44q-50 14 -109 14h-437v-36h432q227 0 227 -202q0 -203 -227 -203h-432v-36h457q51 0 96 15q42 13 76 41q35 31 52 75q18 45 18 108z" />
    <glyph glyph-name="uni228A" unicode="&#x228a;" horiz-adv-x="0" 
 />
    <glyph glyph-name="uni228B" unicode="&#x228b;" horiz-adv-x="0" 
 />
    <glyph glyph-name="circleplus" unicode="&#x2295;" horiz-adv-x="0" 
 />
    <glyph glyph-name="uni2296" unicode="&#x2296;" horiz-adv-x="0" 
 />
    <glyph glyph-name="circlemultiply" unicode="&#x2297;" horiz-adv-x="0" 
 />
    <glyph glyph-name="uni22A3" unicode="&#x22a3;" horiz-adv-x="0" 
 />
    <glyph glyph-name="uni22A4" unicode="&#x22a4;" horiz-adv-x="0" 
 />
    <glyph glyph-name="perpendicular" unicode="&#x22a5;" horiz-adv-x="940" 
d="M153 -1h634v35h-298v531h-38v-531h-298v-35z" />
    <glyph glyph-name="uni22BB" unicode="&#x22bb;" horiz-adv-x="0" 
 />
    <glyph glyph-name="uni22BC" unicode="&#x22bc;" horiz-adv-x="0" 
 />
    <glyph glyph-name="uni22CE" unicode="&#x22ce;" horiz-adv-x="0" 
 />
    <glyph glyph-name="uni22CF" unicode="&#x22cf;" horiz-adv-x="0" 
 />
    <glyph glyph-name="uni22DA" unicode="&#x22da;" horiz-adv-x="0" 
 />
    <glyph glyph-name="uni22DB" unicode="&#x22db;" horiz-adv-x="0" 
 />
    <glyph glyph-name="uni22EE" unicode="&#x22ee;" horiz-adv-x="0" 
 />
    <glyph glyph-name="uni2306" unicode="&#x2306;" horiz-adv-x="0" 
 />
    <glyph glyph-name="uni2312" unicode="&#x2312;" horiz-adv-x="940" 
d="M667 510h56q-36 70 -96 113q-61 42 -160 42q-93 0 -155 -42q-62 -43 -100 -113h59q11 23 32 45q18 21 42 36q23 13 56 25q33 10 67 10q32 0 69 -10q32 -11 54 -25q26 -14 46 -36q18 -21 30 -45z" />
    <glyph glyph-name="uni2314" unicode="&#x2314;" horiz-adv-x="0" 
 />
    <glyph glyph-name="uni2460" unicode="&#x2460;" horiz-adv-x="940" 
d="M453 10h48v571h-39q-6 -58 -36 -82q-29 -26 -93 -29v-33h120v-427zM875 299q0 -81 -31 -159q-32 -76 -88 -129q-55 -55 -128 -87q-78 -32 -160 -32q-84 0 -157 32t-131 87q-56 55 -86 129q-31 74 -31 159t31 159q29 73 86 130q58 55 131 87t157 32q82 0 160 -32
q73 -32 128 -87q57 -55 88 -130q31 -77 31 -159zM913 299q0 91 -36 172q-35 79 -94 141q-64 61 -143 96q-82 35 -172 35q-91 0 -172 -35q-83 -37 -139 -96q-63 -60 -96 -141q-34 -80 -34 -172t34 -172q34 -83 96 -142q55 -57 139 -94q81 -35 172 -35q90 0 172 35
q80 36 143 94q58 61 94 142t36 172z" />
    <glyph glyph-name="uni2461" unicode="&#x2461;" horiz-adv-x="940" 
d="M287 35h361v48h-301q3 21 17 42q13 20 38 45q17 18 47 42q7 6 60 44q25 15 52 38q23 20 44 44q18 24 28 53q10 30 10 63q0 36 -11 67q-12 29 -36 51q-21 18 -53 30q-37 10 -69 10q-43 0 -76 -14q-31 -14 -56 -42q-21 -27 -33 -63q-12 -39 -11 -80h50q0 28 9 59
q7 30 21 51q16 22 39 35q24 12 54 12q57 0 91 -31q32 -32 32 -84q0 -54 -27 -88q-25 -34 -78 -71l-78 -56q-34 -26 -63 -56q-26 -32 -40 -65q-16 -36 -21 -84zM875 299q0 -81 -31 -159q-32 -76 -88 -129q-55 -55 -128 -87q-78 -32 -160 -32q-84 0 -157 32t-131 87
q-56 55 -86 129q-31 74 -31 159t31 159q29 73 86 130q58 55 131 87t157 32q82 0 160 -32q73 -32 128 -87q57 -55 88 -130q31 -77 31 -159zM913 299q0 91 -36 172q-35 79 -94 141q-64 61 -143 96q-82 35 -172 35q-91 0 -172 -35q-83 -37 -139 -96q-63 -60 -96 -141
q-34 -80 -34 -172t34 -172q34 -83 96 -142q55 -57 139 -94q81 -35 172 -35q90 0 172 35q80 36 143 94q58 61 94 142t36 172z" />
    <glyph glyph-name="uni2462" unicode="&#x2462;" horiz-adv-x="940" 
d="M663 180q0 62 -30 98q-32 35 -85 47q39 13 65 44q27 30 27 82q0 68 -45 107t-123 39q-40 0 -71 -14t-57 -37q-24 -30 -34 -59q-14 -35 -12 -74h49q1 58 36 100q33 41 90 41q61 0 90 -29q28 -31 28 -74q0 -27 -8 -46q-8 -20 -27 -32q-15 -16 -34 -22q-20 -7 -40 -7h-42
v-45h42q55 0 94 -31q37 -32 37 -88q0 -59 -40 -93t-102 -34q-58 0 -97 39q-40 39 -40 111h-47q-2 -48 13 -83q12 -36 37 -61q25 -23 61 -35q32 -13 74 -13q40 0 73 11q35 11 61 31q21 19 41 53q16 32 16 74zM875 299q0 -81 -31 -159q-32 -76 -88 -129q-55 -55 -128 -87
q-78 -32 -160 -32q-84 0 -157 32t-131 87q-56 55 -86 129q-31 74 -31 159t31 159q29 73 86 130q58 55 131 87t157 32q82 0 160 -32q73 -32 128 -87q57 -55 88 -130q31 -77 31 -159zM913 299q0 91 -36 172q-35 79 -94 141q-64 61 -143 96q-82 35 -172 35q-91 0 -172 -35
q-83 -37 -139 -96q-63 -60 -96 -141q-34 -80 -34 -172t34 -172q34 -83 96 -142q55 -57 139 -94q81 -35 172 -35q90 0 172 35q80 36 143 94q58 61 94 142t36 172z" />
    <glyph glyph-name="uni2463" unicode="&#x2463;" horiz-adv-x="940" 
d="M508 510v-301h-203zM556 162h78v47h-78v385h-48l-255 -385v-47h255v-139h48v139zM875 299q0 -81 -31 -159q-32 -76 -88 -129q-55 -55 -128 -87q-78 -32 -160 -32q-84 0 -157 32t-131 87q-56 55 -86 129q-31 74 -31 159t31 159q29 73 86 130q58 55 131 87t157 32
q82 0 160 -32q73 -32 128 -87q57 -55 88 -130q31 -77 31 -159zM913 299q0 91 -36 172q-35 79 -94 141q-64 61 -143 96q-82 35 -172 35q-91 0 -172 -35q-83 -37 -139 -96q-63 -60 -96 -141q-34 -80 -34 -172t34 -172q34 -83 96 -142q55 -57 139 -94q81 -35 172 -35
q90 0 172 35q80 36 143 94q58 61 94 142t36 172z" />
    <glyph glyph-name="uni2464" unicode="&#x2464;" horiz-adv-x="940" 
d="M657 199q0 89 -49 144q-50 52 -136 52q-30 0 -64 -13q-34 -15 -50 -39l32 195h239v47h-277l-51 -299h45q21 36 52 52q32 16 68 16q31 0 58 -11q26 -13 45 -32q14 -19 27 -47q11 -31 11 -59q0 -31 -10 -61q-13 -30 -27 -50q-21 -21 -45 -33q-25 -13 -58 -13q-26 0 -50 9
q-25 7 -42 27q-17 14 -28 40q-13 26 -13 55h-47q0 -42 15 -72q13 -32 36 -55q24 -23 58 -35q30 -12 70 -12t76 15q36 16 59 40q26 29 41 62q15 34 15 77zM875 299q0 -81 -31 -159q-32 -76 -88 -129q-55 -55 -128 -87q-78 -32 -160 -32q-84 0 -157 32t-131 87q-56 55 -86 129
q-31 74 -31 159t31 159q29 73 86 130q58 55 131 87t157 32q82 0 160 -32q73 -32 128 -87q57 -55 88 -130q31 -77 31 -159zM913 299q0 91 -36 172q-35 79 -94 141q-64 61 -143 96q-82 35 -172 35q-91 0 -172 -35q-83 -37 -139 -96q-63 -60 -96 -141q-34 -80 -34 -172t34 -172
q34 -83 96 -142q55 -57 139 -94q81 -35 172 -35q90 0 172 35q80 36 143 94q58 61 94 142t36 172z" />
    <glyph glyph-name="uni2465" unicode="&#x2465;" horiz-adv-x="940" 
d="M601 199q0 -29 -9 -56t-23 -49q-20 -21 -43 -33q-25 -13 -56 -13t-54 13q-27 12 -41 32q-16 20 -25 48q-10 26 -10 57q0 66 36 106q37 40 94 40q61 0 97 -38q34 -40 34 -107zM653 199q0 41 -14 78q-16 34 -37 60q-20 19 -56 35q-37 14 -76 14q-52 0 -88 -27
q-38 -26 -52 -67q0 57 8 100q8 47 28 82q15 33 45 54q28 20 62 20q53 0 84 -29q28 -29 34 -76h48q-9 66 -47 107q-41 41 -119 41q-42 0 -77 -20q-36 -21 -63 -57q-29 -41 -40 -90q-14 -50 -14 -119q0 -83 12 -140q12 -58 39 -91q21 -37 58 -52q34 -17 82 -17q40 0 76 15
q34 14 56 39q21 24 37 62q14 36 14 78zM875 299q0 -81 -31 -159q-32 -76 -88 -129q-55 -55 -128 -87q-78 -32 -160 -32q-84 0 -157 32t-131 87q-56 55 -86 129q-31 74 -31 159t31 159q29 73 86 130q58 55 131 87t157 32q82 0 160 -32q73 -32 128 -87q57 -55 88 -130
q31 -77 31 -159zM913 299q0 91 -36 172q-35 79 -94 141q-64 61 -143 96q-82 35 -172 35q-91 0 -172 -35q-83 -37 -139 -96q-63 -60 -96 -141q-34 -80 -34 -172t34 -172q34 -83 96 -142q55 -57 139 -94q81 -35 172 -35q90 0 172 35q80 36 143 94q58 61 94 142t36 172z" />
    <glyph glyph-name="uni2466" unicode="&#x2466;" horiz-adv-x="940" 
d="M658 515v46h-353v-47h301q-33 -33 -74 -91q-38 -53 -69 -117q-30 -64 -51 -141q-21 -78 -27 -165h59q4 75 21 147q15 73 40 140q29 67 67 123q35 56 86 105zM875 299q0 -81 -31 -159q-32 -76 -88 -129q-55 -55 -128 -87q-78 -32 -160 -32q-84 0 -157 32t-131 87
q-56 55 -86 129q-31 74 -31 159t31 159q29 73 86 130q58 55 131 87t157 32q82 0 160 -32q73 -32 128 -87q57 -55 88 -130q31 -77 31 -159zM913 299q0 91 -36 172q-35 79 -94 141q-64 61 -143 96q-82 35 -172 35q-91 0 -172 -35q-83 -37 -139 -96q-63 -60 -96 -141
q-34 -80 -34 -172t34 -172q34 -83 96 -142q55 -57 139 -94q81 -35 172 -35q90 0 172 35q80 36 143 94q58 61 94 142t36 172z" />
    <glyph glyph-name="uni2467" unicode="&#x2467;" horiz-adv-x="940" 
d="M609 171q0 -31 -12 -54q-11 -22 -28 -39q-22 -19 -45 -26q-23 -8 -56 -8q-30 0 -53 8q-27 8 -44 26q-21 15 -30 39q-10 21 -10 54q0 32 10 55q9 22 31 38q17 15 43 24q27 8 53 8q28 0 55 -8q24 -9 45 -24q17 -15 29 -38q12 -24 12 -55zM584 445q0 -23 -8 -44
q-8 -20 -27 -32q-15 -15 -35 -21q-20 -7 -46 -7q-22 0 -42 7q-21 6 -39 21q-16 13 -24 32q-11 18 -11 44q0 44 32 73q33 28 84 28q55 0 86 -28q30 -30 30 -73zM659 171q0 28 -9 52q-10 23 -24 43q-12 19 -33 35q-24 13 -47 19q39 15 63 47q25 31 25 78q0 27 -10 55
q-13 26 -34 47q-20 18 -51 30q-35 11 -71 11q-38 0 -69 -11q-31 -12 -53 -30q-18 -20 -31 -47q-13 -25 -13 -55q0 -47 27 -80q26 -33 61 -45q-20 -5 -42 -19q-23 -17 -35 -35q-18 -20 -24 -43q-8 -21 -8 -52q0 -44 14 -73q12 -33 38 -53q27 -24 61 -33q30 -11 74 -11
q43 0 76 11q35 9 61 33q22 19 39 53q15 31 15 73zM875 299q0 -81 -31 -159q-32 -76 -88 -129q-55 -55 -128 -87q-78 -32 -160 -32q-84 0 -157 32t-131 87q-56 55 -86 129q-31 74 -31 159t31 159q29 73 86 130q58 55 131 87t157 32q82 0 160 -32q73 -32 128 -87
q57 -55 88 -130q31 -77 31 -159zM913 299q0 91 -36 172q-35 79 -94 141q-64 61 -143 96q-82 35 -172 35q-91 0 -172 -35q-83 -37 -139 -96q-63 -60 -96 -141q-34 -80 -34 -172t34 -172q34 -83 96 -142q55 -57 139 -94q81 -35 172 -35q90 0 172 35q80 36 143 94q58 61 94 142
t36 172z" />
    <glyph glyph-name="uni2468" unicode="&#x2468;" horiz-adv-x="940" 
d="M602 400q0 -31 -9 -58q-11 -31 -25 -48q-22 -24 -44 -32q-22 -11 -55 -11q-58 0 -94 42q-36 41 -36 106q0 32 10 58q8 23 26 49q15 18 40 31q26 13 54 13t56 -13q27 -15 44 -31q15 -24 24 -48q9 -27 9 -58zM665 300q0 79 -14 138q-16 58 -37 89q-27 35 -63 51
q-36 15 -82 15q-40 0 -73 -14q-33 -15 -57 -39q-22 -26 -34 -63q-13 -35 -13 -78q0 -91 48 -140q46 -50 129 -50q57 0 94 28q36 27 51 70q0 -59 -9 -105q-11 -50 -25 -81q-18 -34 -45 -52q-28 -19 -65 -19q-53 0 -82 29q-32 27 -38 71h-49q6 -63 52 -103q43 -40 117 -40
q98 0 147 78q48 77 48 215zM875 299q0 -81 -31 -159q-32 -76 -88 -129q-55 -55 -128 -87q-78 -32 -160 -32q-84 0 -157 32t-131 87q-56 55 -86 129q-31 74 -31 159t31 159q29 73 86 130q58 55 131 87t157 32q82 0 160 -32q73 -32 128 -87q57 -55 88 -130q31 -77 31 -159z
M913 299q0 91 -36 172q-35 79 -94 141q-64 61 -143 96q-82 35 -172 35q-91 0 -172 -35q-83 -37 -139 -96q-63 -60 -96 -141q-34 -80 -34 -172t34 -172q34 -83 96 -142q55 -57 139 -94q81 -35 172 -35q90 0 172 35q80 36 143 94q58 61 94 142t36 172z" />
    <glyph glyph-name="uni2469" unicode="&#x2469;" horiz-adv-x="940" 
d="M702 301q0 -51 -6 -94q-8 -47 -22 -78q-12 -35 -34 -54q-21 -20 -54 -20q-31 0 -51 20q-23 19 -35 54q-14 37 -19 78q-8 39 -8 94t8 95q5 40 19 77q11 31 35 53q22 20 51 20q31 0 54 -20q23 -23 34 -53q14 -31 22 -77q6 -45 6 -95zM300 19h50v559h-37q-11 -56 -36 -80
q-26 -25 -88 -28v-32h111v-419zM750 301q0 65 -9 119q-11 53 -31 90q-18 36 -49 58q-34 20 -75 20q-43 0 -72 -20t-51 -58q-20 -43 -28 -90q-11 -50 -11 -120q0 -72 11 -119q9 -50 28 -89q21 -38 51 -58q28 -21 72 -21q42 0 75 21q32 21 49 58q20 34 31 89q9 51 9 120z
M875 299q0 -81 -31 -159q-32 -76 -88 -129q-55 -55 -128 -87q-78 -32 -160 -32q-84 0 -157 32t-131 87q-56 55 -86 129q-31 74 -31 159t31 159q29 73 86 130q58 55 131 87t157 32q82 0 160 -32q73 -32 128 -87q57 -55 88 -130q31 -77 31 -159zM913 299q0 91 -36 172
q-35 79 -94 141q-64 61 -143 96q-82 35 -172 35q-91 0 -172 -35q-83 -37 -139 -96q-63 -60 -96 -141q-34 -80 -34 -172t34 -172q34 -83 96 -142q55 -57 139 -94q81 -35 172 -35q90 0 172 35q80 36 143 94q58 61 94 142t36 172z" />
    <glyph glyph-name="uni246A" unicode="&#x246a;" horiz-adv-x="940" 
d="M328 19h48v559h-39q-6 -55 -36 -79q-29 -25 -93 -28v-33h120v-419zM602 19h52v559h-38q-9 -55 -39 -79q-32 -25 -91 -28v-33h116v-419zM875 299q0 -81 -31 -159q-32 -76 -88 -129q-55 -55 -128 -87q-78 -32 -160 -32q-84 0 -157 32t-131 87q-56 55 -86 129
q-31 74 -31 159t31 159q29 73 86 130q58 55 131 87t157 32q82 0 160 -32q73 -32 128 -87q57 -55 88 -130q31 -77 31 -159zM913 299q0 91 -36 172q-35 79 -94 141q-64 61 -143 96q-82 35 -172 35q-91 0 -172 -35q-83 -37 -139 -96q-63 -60 -96 -141q-34 -80 -34 -172t34 -172
q34 -83 96 -142q55 -57 139 -94q81 -35 172 -35q90 0 172 35q80 36 143 94q58 61 94 142t36 172z" />
    <glyph glyph-name="uni246B" unicode="&#x246b;" horiz-adv-x="940" 
d="M281 17h47v559h-36q-7 -53 -36 -79q-29 -27 -83 -28v-34h108v-418zM404 21h326v45h-270q6 43 48 85q44 44 99 88q28 22 44 37q24 22 41 42q17 27 26 52q9 27 9 62q0 73 -43 116q-46 40 -109 40q-39 0 -70 -14q-30 -14 -49 -40q-22 -26 -31 -63q-9 -38 -8 -79h44
q0 30 6 59t22 50q10 19 32 33q21 12 51 12q51 0 80 -29q28 -31 28 -84q0 -51 -24 -84q-25 -35 -70 -68q-33 -25 -69 -56q-32 -27 -56 -56q-21 -29 -37 -66q-16 -39 -20 -82zM875 299q0 -81 -31 -159q-32 -76 -88 -129q-55 -55 -128 -87q-78 -32 -160 -32q-84 0 -157 32
t-131 87q-56 55 -86 129q-31 74 -31 159t31 159q29 73 86 130q58 55 131 87t157 32q82 0 160 -32q73 -32 128 -87q57 -55 88 -130q31 -77 31 -159zM913 299q0 91 -36 172q-35 79 -94 141q-64 61 -143 96q-82 35 -172 35q-91 0 -172 -35q-83 -37 -139 -96q-63 -60 -96 -141
q-34 -80 -34 -172t34 -172q34 -83 96 -142q55 -57 139 -94q81 -35 172 -35q90 0 172 35q80 36 143 94q58 61 94 142t36 172z" />
    <glyph glyph-name="uni246C" unicode="&#x246c;" horiz-adv-x="940" 
d="M278 15h48v559h-37q-9 -57 -32 -80q-24 -25 -81 -28v-32h102v-419zM738 177q0 59 -28 96q-29 35 -76 45q36 14 59 46q24 30 24 76q0 70 -41 109q-42 39 -109 39q-35 0 -66 -14q-31 -15 -48 -37q-24 -27 -33 -60q-10 -33 -10 -73h45q1 59 30 100q28 40 83 40q53 0 79 -29
q25 -31 25 -75q0 -20 -7 -41q-9 -20 -24 -31q-15 -15 -32 -21q-17 -7 -34 -7h-38v-46h38q49 0 83 -30q33 -32 33 -87q0 -60 -35 -90q-35 -32 -90 -32q-56 0 -88 38q-35 36 -33 107h-47q-1 -48 11 -82q11 -35 36 -59q18 -22 53 -35q30 -13 69 -13q34 0 64 11q32 11 54 31
q24 22 38 52q15 30 15 72zM875 299q0 -81 -31 -159q-32 -76 -88 -129q-55 -55 -128 -87q-78 -32 -160 -32q-84 0 -157 32t-131 87q-56 55 -86 129q-31 74 -31 159t31 159q29 73 86 130q58 55 131 87t157 32q82 0 160 -32q73 -32 128 -87q57 -55 88 -130q31 -77 31 -159z
M913 299q0 91 -36 172q-35 79 -94 141q-64 61 -143 96q-82 35 -172 35q-91 0 -172 -35q-83 -37 -139 -96q-63 -60 -96 -141q-34 -80 -34 -172t34 -172q34 -83 96 -142q55 -57 139 -94q81 -35 172 -35q90 0 172 35q80 36 143 94q58 61 94 142t36 172z" />
    <glyph glyph-name="uni246D" unicode="&#x246d;" horiz-adv-x="940" 
d="M626 499v-296h-179zM292 20h45v559h-37q-7 -56 -30 -80q-23 -25 -79 -28v-32h101v-419zM670 156h72v47h-72v377h-44l-227 -377v-47h227v-135h44v135zM875 299q0 -81 -31 -159q-32 -76 -88 -129q-55 -55 -128 -87q-78 -32 -160 -32q-84 0 -157 32t-131 87q-56 55 -86 129
q-31 74 -31 159t31 159q29 73 86 130q58 55 131 87t157 32q82 0 160 -32q73 -32 128 -87q57 -55 88 -130q31 -77 31 -159zM913 299q0 91 -36 172q-35 79 -94 141q-64 61 -143 96q-82 35 -172 35q-91 0 -172 -35q-83 -37 -139 -96q-63 -60 -96 -141q-34 -80 -34 -172t34 -172
q34 -83 96 -142q55 -57 139 -94q81 -35 172 -35q90 0 172 35q80 36 143 94q58 61 94 142t36 172z" />
    <glyph glyph-name="uni246E" unicode="&#x246e;" horiz-adv-x="940" 
d="M285 17h47v559h-39q-6 -57 -29 -80q-25 -25 -82 -28v-32h103v-419zM740 198q0 89 -44 142q-46 52 -122 52q-32 0 -58 -14q-30 -17 -46 -38l31 191h213v45h-249l-47 -292h43q18 31 47 48q29 16 62 16q54 0 89 -40q34 -43 34 -104q0 -32 -9 -59q-11 -27 -23 -49
q-16 -19 -41 -32q-23 -13 -50 -13q-54 0 -84 34q-32 32 -34 93h-47q0 -38 13 -70q12 -32 36 -55q18 -21 50 -33q29 -13 66 -13q36 0 67 15t54 40q19 24 35 61q14 34 14 75zM875 299q0 -81 -31 -159q-32 -76 -88 -129q-55 -55 -128 -87q-78 -32 -160 -32q-84 0 -157 32
t-131 87q-56 55 -86 129q-31 74 -31 159t31 159q29 73 86 130q58 55 131 87t157 32q82 0 160 -32q73 -32 128 -87q57 -55 88 -130q31 -77 31 -159zM913 299q0 91 -36 172q-35 79 -94 141q-64 61 -143 96q-82 35 -172 35q-91 0 -172 -35q-83 -37 -139 -96q-63 -60 -96 -141
q-34 -80 -34 -172t34 -172q34 -83 96 -142q55 -57 139 -94q81 -35 172 -35q90 0 172 35q80 36 143 94q58 61 94 142t36 172z" />
    <glyph glyph-name="uni246F" unicode="&#x246f;" horiz-adv-x="0" 
 />
    <glyph glyph-name="uni2470" unicode="&#x2470;" horiz-adv-x="0" 
 />
    <glyph glyph-name="uni2471" unicode="&#x2471;" horiz-adv-x="0" 
 />
    <glyph glyph-name="uni2472" unicode="&#x2472;" horiz-adv-x="0" 
 />
    <glyph glyph-name="uni2473" unicode="&#x2473;" horiz-adv-x="0" 
 />
    <glyph glyph-name="uni2474" unicode="&#x2474;" horiz-adv-x="940" 
d="M147 -166h43q-33 62 -50 117q-20 56 -31 115q-15 58 -18 117q-4 51 -4 115q0 65 4 117q3 56 18 116q11 59 31 115q17 55 50 117h-43q-29 -42 -50 -94q-22 -52 -39 -113q-15 -60 -21 -124q-7 -62 -7 -134q0 -73 7 -133q6 -65 21 -124q16 -59 39 -113q21 -52 50 -94z
M451 -24h53v627h-43q-6 -58 -40 -89q-37 -32 -100 -32v-35h130v-471zM910 298q0 64 -8 134q-9 63 -24 124q-13 58 -35 113q-24 54 -51 94h-42q30 -60 51 -117q18 -60 30 -115q6 -40 14 -116q4 -78 4 -117t-4 -115q-8 -78 -14 -117q-12 -55 -30 -115q-21 -57 -51 -117h42
q27 40 51 94q23 56 35 113q15 59 24 124q8 69 8 133z" />
    <glyph glyph-name="uni2475" unicode="&#x2475;" horiz-adv-x="940" 
d="M147 -166h43q-33 62 -50 117q-20 56 -31 115q-15 58 -18 117q-4 51 -4 115q0 65 4 117q3 56 18 116q11 59 31 115q17 55 50 117h-43q-29 -42 -50 -94q-22 -52 -39 -113q-15 -60 -21 -124q-7 -62 -7 -134q0 -73 7 -133q6 -65 21 -124q16 -59 39 -113q21 -52 50 -94z
M268 -3h399v52h-331q3 24 21 48q12 19 40 47q25 29 53 49l64 48q28 18 56 41q20 17 49 49q17 23 31 57q13 33 13 69q0 41 -14 75q-14 29 -38 55q-27 20 -61 32t-74 12q-46 0 -83 -16q-39 -19 -61 -47q-27 -27 -38 -67q-12 -40 -10 -89h53q0 34 9 66q10 33 26 56q14 23 41 38
q26 14 59 14q64 0 101 -34q36 -34 36 -93q0 -58 -31 -97q-35 -42 -86 -77q-39 -27 -86 -63q-42 -34 -69 -61q-30 -33 -45 -72q-18 -40 -24 -92zM910 298q0 64 -8 134q-9 63 -24 124q-13 58 -35 113q-24 54 -51 94h-42q30 -60 51 -117q18 -60 30 -115q6 -40 14 -116
q4 -78 4 -117t-4 -115q-8 -78 -14 -117q-12 -55 -30 -115q-21 -57 -51 -117h42q27 40 51 94q23 56 35 113q15 59 24 124q8 69 8 133z" />
    <glyph glyph-name="uni2476" unicode="&#x2476;" horiz-adv-x="940" 
d="M147 -166h43q-33 62 -50 117q-20 56 -31 115q-15 58 -18 117q-4 51 -4 115q0 65 4 117q3 56 18 116q11 59 31 115q17 55 50 117h-43q-29 -42 -50 -94q-22 -52 -39 -113q-15 -60 -21 -124q-7 -62 -7 -134q0 -73 7 -133q6 -65 21 -124q16 -59 39 -113q21 -52 50 -94z
M688 166q0 65 -32 106q-34 40 -92 52q41 13 72 50q29 35 29 89q0 74 -50 118q-52 43 -135 43q-47 0 -80 -15t-62 -44q-26 -27 -37 -63q-13 -39 -12 -81h52q0 33 12 61q9 27 26 50q18 20 45 33q24 12 57 12q63 0 97 -32q33 -33 33 -82q0 -28 -11 -50q-12 -23 -27 -36
q-21 -18 -42 -24q-20 -8 -42 -8h-46v-49h46q27 0 56 -9q28 -11 45 -25q21 -16 31 -40q10 -28 10 -56q0 -32 -10 -59q-12 -28 -34 -45q-19 -18 -48 -27q-27 -11 -62 -11q-64 0 -106 43q-43 42 -43 122h-54q-2 -53 13 -91q14 -41 44 -65q27 -27 65 -41q39 -13 84 -13
q40 0 78 12q38 13 67 33q28 23 46 60q17 36 17 82zM910 298q0 64 -8 134q-9 63 -24 124q-13 58 -35 113q-24 54 -51 94h-42q30 -60 51 -117q18 -60 30 -115q6 -40 14 -116q4 -78 4 -117t-4 -115q-8 -78 -14 -117q-12 -55 -30 -115q-21 -57 -51 -117h42q27 40 51 94
q23 56 35 113q15 59 24 124q8 69 8 133z" />
    <glyph glyph-name="uni2477" unicode="&#x2477;" horiz-adv-x="940" 
d="M526 532v-332h-225zM147 -166h43q-33 62 -50 117q-20 56 -31 115q-15 58 -18 117q-4 51 -4 115q0 65 4 117q3 56 18 116q11 59 31 115q17 55 50 117h-43q-29 -42 -50 -94q-22 -52 -39 -113q-15 -60 -21 -124q-7 -62 -7 -134q0 -73 7 -133q6 -65 21 -124q16 -59 39 -113
q21 -52 50 -94zM579 148h86v52h-86v425h-53l-280 -425v-52h280v-150h53v150zM910 298q0 64 -8 134q-9 63 -24 124q-13 58 -35 113q-24 54 -51 94h-42q30 -60 51 -117q18 -60 30 -115q6 -40 14 -116q4 -78 4 -117t-4 -115q-8 -78 -14 -117q-12 -55 -30 -115q-21 -57 -51 -117
h42q27 40 51 94q23 56 35 113q15 59 24 124q8 69 8 133z" />
    <glyph glyph-name="uni2478" unicode="&#x2478;" horiz-adv-x="940" 
d="M147 -166h43q-33 62 -50 117q-20 56 -31 115q-15 58 -18 117q-4 51 -4 115q0 65 4 117q3 56 18 116q11 59 31 115q17 55 50 117h-43q-29 -42 -50 -94q-22 -52 -39 -113q-15 -60 -21 -124q-7 -62 -7 -134q0 -73 7 -133q6 -65 21 -124q16 -59 39 -113q21 -52 50 -94z
M677 188q0 49 -12 89q-14 40 -40 69q-27 28 -63 45q-38 15 -86 15q-36 0 -70 -15q-37 -17 -57 -43l37 213h265v54h-307l-54 -330h48q21 39 56 57q35 16 76 16q33 0 64 -11q28 -12 49 -34q18 -22 29 -51q12 -31 12 -67q0 -34 -11 -65q-12 -33 -30 -54q-19 -26 -48 -39
q-28 -14 -64 -14q-61 0 -100 38q-42 37 -45 108h-53q0 -42 16 -80q14 -37 42 -62q22 -21 61 -37q36 -14 78 -14q40 0 82 16q37 15 68 46q27 27 42 66q15 38 15 84zM910 298q0 64 -8 134q-9 63 -24 124q-13 58 -35 113q-24 54 -51 94h-42q30 -60 51 -117q18 -60 30 -115
q6 -40 14 -116q4 -78 4 -117t-4 -115q-8 -78 -14 -117q-12 -55 -30 -115q-21 -57 -51 -117h42q27 40 51 94q23 56 35 113q15 59 24 124q8 69 8 133z" />
    <glyph glyph-name="uni2479" unicode="&#x2479;" horiz-adv-x="940" 
d="M624 186q0 -32 -9 -62q-11 -32 -30 -52q-19 -26 -45 -37q-27 -14 -60 -14q-37 0 -62 14q-28 12 -44 37q-21 22 -29 50q-11 25 -11 63q0 75 40 119q40 43 106 43q63 0 104 -43q40 -45 40 -118zM147 -166h43q-33 62 -50 117q-20 56 -31 115q-15 58 -18 117q-4 51 -4 115
q0 65 4 117q3 56 18 116q11 59 31 115q17 55 50 117h-43q-29 -42 -50 -94q-22 -52 -39 -113q-15 -60 -21 -124q-7 -62 -7 -134q0 -73 7 -133q6 -65 21 -124q16 -59 39 -113q21 -52 50 -94zM677 186q0 44 -13 86q-14 39 -39 66q-28 25 -64 41q-37 14 -81 14q-59 0 -100 -29
t-56 -75q0 59 9 111t31 90q19 36 49 59q31 23 70 23q57 0 91 -33q33 -33 39 -81h53q-4 34 -18 64q-15 29 -34 52q-25 19 -56 33q-33 12 -75 12q-48 0 -87 -22q-38 -22 -67 -63q-32 -43 -47 -99q-16 -57 -16 -131q0 -92 15 -153q14 -65 43 -103q24 -39 65 -57q40 -17 91 -17
q45 0 81 15q38 17 64 45q25 27 39 66q13 42 13 86zM910 298q0 64 -8 134q-9 63 -24 124q-13 58 -35 113q-24 54 -51 94h-42q30 -60 51 -117q18 -60 30 -115q6 -40 14 -116q4 -78 4 -117t-4 -115q-8 -78 -14 -117q-12 -55 -30 -115q-21 -57 -51 -117h42q27 40 51 94
q23 56 35 113q15 59 24 124q8 69 8 133z" />
    <glyph glyph-name="uni247A" unicode="&#x247a;" horiz-adv-x="940" 
d="M147 -166h43q-33 62 -50 117q-20 56 -31 115q-15 58 -18 117q-4 51 -4 115q0 65 4 117q3 56 18 116q11 59 31 115q17 55 50 117h-43q-29 -42 -50 -94q-22 -52 -39 -113q-15 -60 -21 -124q-7 -62 -7 -134q0 -73 7 -133q6 -65 21 -124q16 -59 39 -113q21 -52 50 -94z
M678 524v54h-385v-55h329q-44 -44 -81 -98q-41 -55 -76 -129q-34 -73 -56 -157q-23 -81 -29 -180h65q4 78 23 162q16 78 44 152q31 73 72 137t94 114zM910 298q0 64 -8 134q-9 63 -24 124q-13 58 -35 113q-24 54 -51 94h-42q30 -60 51 -117q18 -60 30 -115q6 -40 14 -116
q4 -78 4 -117t-4 -115q-8 -78 -14 -117q-12 -55 -30 -115q-21 -57 -51 -117h42q27 40 51 94q23 56 35 113q15 59 24 124q8 69 8 133z" />
    <glyph glyph-name="uni247B" unicode="&#x247b;" horiz-adv-x="940" 
d="M623 156q0 -32 -13 -61q-14 -29 -31 -44q-22 -16 -51 -26q-27 -10 -60 -10q-32 0 -59 10q-30 9 -47 26q-23 16 -34 44q-11 25 -11 61q0 32 12 59q10 25 34 43q19 16 48 26q27 9 57 9q32 0 59 -9q22 -9 50 -26q19 -19 33 -43q13 -29 13 -59zM596 458q0 -29 -9 -50
q-11 -23 -29 -35q-17 -17 -39 -23q-21 -8 -51 -8q-27 0 -47 8q-23 6 -42 23q-16 12 -27 35q-12 21 -12 50q0 47 35 78q35 30 93 30q62 0 95 -30q33 -32 33 -78zM147 -166h43q-33 62 -50 117q-20 56 -31 115q-15 58 -18 117q-4 51 -4 115q0 65 4 117q3 56 18 116
q11 59 31 115q17 55 50 117h-43q-29 -42 -50 -94q-22 -52 -39 -113q-15 -60 -21 -124q-7 -62 -7 -134q0 -73 7 -133q6 -65 21 -124q16 -59 39 -113q21 -52 50 -94zM676 156q0 26 -8 56q-10 29 -26 48q-20 25 -38 38q-20 13 -50 20q40 17 71 54q28 36 28 86q0 30 -13 61
q-18 31 -35 49q-25 22 -59 35q-36 12 -78 12q-43 0 -76 -12q-34 -14 -58 -35t-35 -49q-12 -29 -12 -61q0 -52 27 -88q25 -37 68 -52q-28 -7 -46 -20q-21 -13 -41 -38q-17 -24 -25 -48q-10 -27 -10 -56q0 -49 16 -81q15 -34 46 -59q22 -22 63 -36q41 -13 83 -13q41 0 83 13
q42 15 68 36q27 24 42 59q15 33 15 81zM910 298q0 64 -8 134q-9 63 -24 124q-13 58 -35 113q-24 54 -51 94h-42q30 -60 51 -117q18 -60 30 -115q6 -40 14 -116q4 -78 4 -117t-4 -115q-8 -78 -14 -117q-12 -55 -30 -115q-21 -57 -51 -117h42q27 40 51 94q23 56 35 113
q15 59 24 124q8 69 8 133z" />
    <glyph glyph-name="uni247C" unicode="&#x247c;" horiz-adv-x="940" 
d="M616 415q0 -37 -11 -68t-29 -52q-21 -22 -48 -35q-27 -12 -60 -12q-64 0 -102 45q-39 45 -39 120q0 32 9 62q7 29 29 52q14 21 43 37q26 14 60 14q31 0 62 -13q27 -15 48 -36q16 -25 27 -52q11 -31 11 -62zM147 -166h43q-33 62 -50 117q-20 56 -31 115q-15 58 -18 117
q-4 51 -4 115q0 65 4 117q3 56 18 116q11 59 31 115q17 55 50 117h-43q-29 -42 -50 -94q-22 -52 -39 -113q-15 -60 -21 -124q-7 -62 -7 -134q0 -73 7 -133q6 -65 21 -124q16 -59 39 -113q21 -52 50 -94zM681 302q0 83 -13 151q-15 61 -43 99q-29 39 -67 56q-42 17 -90 17
q-43 0 -81 -16q-37 -16 -60 -44q-29 -29 -41 -67q-13 -38 -13 -85q0 -103 52 -156q51 -55 143 -55q63 0 104 32q41 30 53 76q0 -62 -8 -116q-9 -56 -29 -90q-18 -39 -47 -58q-31 -21 -72 -21q-55 0 -91 33q-37 34 -41 81h-52q6 -74 54 -116q46 -43 130 -43q105 0 159 85
q53 85 53 237zM910 298q0 64 -8 134q-9 63 -24 124q-13 58 -35 113q-24 54 -51 94h-42q30 -60 51 -117q18 -60 30 -115q6 -40 14 -116q4 -78 4 -117t-4 -115q-8 -78 -14 -117q-12 -55 -30 -115q-21 -57 -51 -117h42q27 40 51 94q23 56 35 113q15 59 24 124q8 69 8 133z" />
    <glyph glyph-name="uni247D" unicode="&#x247d;" horiz-adv-x="940" 
d="M723 294q0 -50 -7 -106q-7 -46 -20 -85q-17 -37 -42 -59q-24 -21 -57 -21q-31 0 -55 21q-25 21 -40 59q-14 36 -21 85q-8 43 -8 106q0 59 8 104q7 48 21 84q16 39 40 59q24 21 55 21q33 0 57 -21t42 -59q13 -39 20 -84q7 -59 7 -104zM147 -166h43q-33 62 -50 117
q-20 56 -31 115q-15 58 -18 117q-4 51 -4 115q0 65 4 117q3 56 18 116q11 59 31 115q17 55 50 117h-43q-29 -42 -50 -94q-22 -52 -39 -113q-15 -60 -21 -124q-7 -62 -7 -134q0 -73 7 -133q6 -65 21 -124q16 -59 39 -113q21 -52 50 -94zM285 -18h53v615h-43q-6 -57 -38 -86
t-97 -32v-36h125v-461zM777 294q0 69 -11 130q-12 57 -30 99q-24 41 -57 63q-33 21 -82 21q-47 0 -79 -21q-33 -22 -57 -63q-20 -40 -31 -100q-11 -54 -11 -130q0 -79 11 -131q11 -60 31 -99q24 -43 57 -65t79 -22q47 0 82 22q33 22 57 65q18 41 30 100q11 60 11 131z
M910 298q0 64 -8 134q-9 63 -24 124q-13 58 -35 113q-24 54 -51 94h-42q30 -60 51 -117q18 -60 30 -115q6 -40 14 -116q4 -78 4 -117t-4 -115q-8 -78 -14 -117q-12 -55 -30 -115q-21 -57 -51 -117h42q27 40 51 94q23 56 35 113q15 59 24 124q8 69 8 133z" />
    <glyph glyph-name="uni247E" unicode="&#x247e;" horiz-adv-x="940" 
d="M147 -166h43q-33 62 -50 117q-20 56 -31 115q-15 58 -18 117q-4 51 -4 115q0 65 4 117q3 56 18 116q11 59 31 115q17 55 50 117h-43q-29 -42 -50 -94q-22 -52 -39 -113q-15 -60 -21 -124q-7 -62 -7 -134q0 -73 7 -133q6 -65 21 -124q16 -59 39 -113q21 -52 50 -94z
M327 -21h53v613h-43q-6 -56 -40 -84q-35 -29 -100 -32v-36h130v-461zM629 -21h55v613h-42q-9 -57 -41 -84q-32 -29 -101 -32v-36h129v-461zM910 298q0 64 -8 134q-9 63 -24 124q-13 58 -35 113q-24 54 -51 94h-42q30 -60 51 -117q18 -60 30 -115q6 -40 14 -116q4 -78 4 -117
t-4 -115q-8 -78 -14 -117q-12 -55 -30 -115q-21 -57 -51 -117h42q27 40 51 94q23 56 35 113q15 59 24 124q8 69 8 133z" />
    <glyph glyph-name="uni247F" unicode="&#x247f;" horiz-adv-x="940" 
d="M147 -166h43q-33 62 -50 117q-20 56 -31 115q-15 58 -18 117q-4 51 -4 115q0 65 4 117q3 56 18 116q11 59 31 115q17 55 50 117h-43q-29 -42 -50 -94q-22 -52 -39 -113q-15 -60 -21 -124q-7 -62 -7 -134q0 -73 7 -133q6 -65 21 -124q16 -59 39 -113q21 -52 50 -94z
M262 -13h53v614h-39q-10 -56 -39 -85q-30 -30 -90 -33v-35h115v-461zM399 -7h357v51h-295q8 47 52 93q45 46 109 93q30 23 51 43q21 18 41 45q20 26 30 58q10 33 10 67q0 38 -11 73q-11 30 -35 56q-25 20 -54 32q-30 12 -69 12q-41 0 -76 -16q-34 -17 -53 -45
q-25 -33 -34 -69q-10 -39 -9 -87h49q0 37 7 66q6 31 24 53q12 24 35 37t55 13q55 0 89 -31q33 -33 33 -92q0 -57 -27 -93q-30 -40 -79 -77q-49 -34 -77 -58q-33 -28 -62 -61q-25 -31 -41 -72q-16 -40 -20 -91zM910 298q0 64 -8 134q-9 63 -24 124q-13 58 -35 113
q-24 54 -51 94h-42q30 -60 51 -117q18 -60 30 -115q6 -40 14 -116q4 -78 4 -117t-4 -115q-8 -78 -14 -117q-12 -55 -30 -115q-21 -57 -51 -117h42q27 40 51 94q23 56 35 113q15 59 24 124q8 69 8 133z" />
    <glyph glyph-name="uni2480" unicode="&#x2480;" horiz-adv-x="940" 
d="M147 -166h43q-33 62 -50 117q-20 56 -31 115q-15 58 -18 117q-4 51 -4 115q0 65 4 117q3 56 18 116q11 59 31 115q17 55 50 117h-43q-29 -42 -50 -94q-22 -52 -39 -113q-15 -60 -21 -124q-7 -62 -7 -134q0 -73 7 -133q6 -65 21 -124q16 -59 39 -113q21 -52 50 -94z
M271 -10h53v613h-41q-9 -58 -36 -85q-29 -29 -86 -35v-32h110v-461zM777 169q0 63 -30 104q-29 38 -82 52q37 12 64 48q25 36 25 86q0 73 -43 118q-45 42 -124 42q-41 0 -71 -15q-31 -16 -55 -42q-21 -27 -33 -63q-12 -37 -12 -81h48q1 62 35 108q33 44 89 44q59 0 89 -30
q29 -32 29 -81q0 -26 -10 -48q-14 -24 -26 -34q-16 -17 -33 -22q-20 -7 -41 -7h-42v-52h42q28 0 51 -9q24 -12 41 -25q17 -15 26 -38q9 -24 9 -55q0 -67 -37 -101q-38 -34 -100 -34q-58 0 -94 42q-37 40 -37 115h-52q-1 -51 12 -88q12 -40 39 -64q23 -29 58 -42
q34 -14 75 -14q37 0 73 12q33 12 58 37q28 22 44 56q15 34 15 81zM910 298q0 64 -8 134q-9 63 -24 124q-13 58 -35 113q-24 54 -51 94h-42q30 -60 51 -117q18 -60 30 -115q6 -40 14 -116q4 -78 4 -117t-4 -115q-8 -78 -14 -117q-12 -55 -30 -115q-21 -57 -51 -117h42
q27 40 51 94q23 56 35 113q15 59 24 124q8 69 8 133z" />
    <glyph glyph-name="uni2481" unicode="&#x2481;" horiz-adv-x="940" 
d="M654 521v-326h-199zM147 -166h43q-33 62 -50 117q-20 56 -31 115q-15 58 -18 117q-4 51 -4 115q0 65 4 117q3 56 18 116q11 59 31 115q17 55 50 117h-43q-29 -42 -50 -94q-22 -52 -39 -113q-15 -60 -21 -124q-7 -62 -7 -134q0 -73 7 -133q6 -65 21 -124q16 -59 39 -113
q21 -52 50 -94zM284 -4h50v612h-41q-6 -57 -33 -84q-27 -29 -89 -32v-35h113v-461zM702 144h77v51h-77v413h-48l-252 -413v-51h252v-147h48v147zM910 298q0 64 -8 134q-9 63 -24 124q-13 58 -35 113q-24 54 -51 94h-42q30 -60 51 -117q18 -60 30 -115q6 -40 14 -116
q4 -78 4 -117t-4 -115q-8 -78 -14 -117q-12 -55 -30 -115q-21 -57 -51 -117h42q27 40 51 94q23 56 35 113q15 59 24 124q8 69 8 133z" />
    <glyph glyph-name="uni2482" unicode="&#x2482;" horiz-adv-x="940" 
d="M147 -166h43q-33 62 -50 117q-20 56 -31 115q-15 58 -18 117q-4 51 -4 115q0 65 4 117q3 56 18 116q11 59 31 115q17 55 50 117h-43q-29 -42 -50 -94q-22 -52 -39 -113q-15 -60 -21 -124q-7 -62 -7 -134q0 -73 7 -133q6 -65 21 -124q16 -59 39 -113q21 -52 50 -94z
M273 -15h52v615h-41q-9 -57 -36 -87q-29 -31 -86 -31v-34h111v-463zM774 184q0 47 -12 88q-14 40 -39 68q-23 29 -57 44q-37 14 -77 14q-35 0 -63 -15q-29 -16 -49 -42l34 209h236v50h-276l-51 -321h47q19 36 50 54q29 17 68 17q64 0 100 -44q35 -46 35 -116q0 -32 -8 -64
q-8 -29 -28 -52q-20 -26 -41 -37q-24 -14 -58 -14q-54 0 -90 37q-38 36 -38 104h-52q0 -43 14 -79q12 -35 39 -61q22 -20 56 -36q34 -13 71 -13t75 16q35 16 58 45q27 25 42 65q14 39 14 83zM910 298q0 64 -8 134q-9 63 -24 124q-13 58 -35 113q-24 54 -51 94h-42
q30 -60 51 -117q18 -60 30 -115q6 -40 14 -116q4 -78 4 -117t-4 -115q-8 -78 -14 -117q-12 -55 -30 -115q-21 -57 -51 -117h42q27 40 51 94q23 56 35 113q15 59 24 124q8 69 8 133z" />
    <glyph glyph-name="uni2483" unicode="&#x2483;" horiz-adv-x="0" 
 />
    <glyph glyph-name="uni2484" unicode="&#x2484;" horiz-adv-x="0" 
 />
    <glyph glyph-name="uni2485" unicode="&#x2485;" horiz-adv-x="0" 
 />
    <glyph glyph-name="uni2486" unicode="&#x2486;" horiz-adv-x="0" 
 />
    <glyph glyph-name="uni2487" unicode="&#x2487;" horiz-adv-x="0" 
 />
    <glyph glyph-name="uni249C" unicode="&#x249c;" horiz-adv-x="940" 
d="M593 338v-79q0 -32 -10 -62q-12 -28 -34 -48q-19 -19 -48 -30q-27 -11 -62 -11q-51 0 -77 20q-28 19 -28 62q0 31 14 49q14 19 39 32q28 14 68 23q82 16 89 17q16 3 29 11q15 8 20 16zM147 -166h43q-33 62 -50 117q-20 56 -31 115q-15 58 -18 117q-4 51 -4 115
q0 65 4 117q3 56 18 116q11 59 31 115q17 55 50 117h-43q-29 -42 -50 -94q-22 -52 -39 -113q-15 -60 -21 -124q-7 -62 -7 -134q0 -73 7 -133q6 -65 21 -124q16 -59 39 -113q21 -52 50 -94zM702 81v47q-4 -2 -8 -2q-4 -1 -13 -1q-30 0 -30 35v251q0 43 -13 75q-15 29 -39 47
q-23 16 -53 23q-33 6 -64 6q-40 0 -73 -9q-35 -9 -59 -30q-22 -18 -38 -50q-17 -34 -17 -71h56q6 59 40 86q34 25 82 25q52 0 87 -22q33 -24 33 -75q0 -27 -17 -42q-19 -17 -49 -20q-76 -14 -101 -19q-47 -11 -79 -28q-33 -17 -51 -45q-19 -29 -19 -72q0 -36 11 -58
q11 -26 34 -39q19 -16 49 -22q25 -8 59 -8q70 0 113 27q41 26 56 69q0 -39 14 -59q11 -23 52 -23q13 0 19 1q8 0 18 3zM910 298q0 64 -8 134q-9 63 -24 124q-13 58 -35 113q-24 54 -51 94h-42q30 -60 51 -117q18 -60 30 -115q6 -40 14 -116q4 -78 4 -117t-4 -115
q-8 -78 -14 -117q-12 -55 -30 -115q-21 -57 -51 -117h42q27 40 51 94q23 56 35 113q15 59 24 124q8 69 8 133z" />
    <glyph glyph-name="uni249D" unicode="&#x249d;" horiz-adv-x="940" 
d="M648 213q0 -36 -9 -72q-10 -34 -26 -63q-21 -30 -48 -48q-29 -18 -67 -18q-45 0 -75 18q-32 18 -49 48q-19 26 -28 63q-10 34 -10 72q0 40 10 74q9 34 29 64q18 29 49 46q30 18 74 18q38 0 67 -18q25 -17 48 -46q16 -31 26 -64q9 -36 9 -74zM147 -166h43q-33 62 -50 117
q-20 56 -31 115q-15 58 -18 117q-4 51 -4 115q0 65 4 117q3 56 18 116q11 59 31 115q17 55 50 117h-43q-29 -42 -50 -94q-22 -52 -39 -113q-15 -60 -21 -124q-7 -62 -7 -134q0 -73 7 -133q6 -65 21 -124q16 -59 39 -113q21 -52 50 -94zM704 213q0 47 -13 97q-15 45 -37 80
q-29 34 -67 54q-40 20 -89 20q-51 0 -96 -28q-45 -30 -66 -78v274h-55v-654h55v88q15 -49 62 -75q46 -26 100 -26q49 0 89 20q40 21 67 56q21 31 37 79q13 47 13 93zM910 298q0 64 -8 134q-9 63 -24 124q-13 58 -35 113q-24 54 -51 94h-42q30 -60 51 -117q18 -60 30 -115
q6 -40 14 -116q4 -78 4 -117t-4 -115q-8 -78 -14 -117q-12 -55 -30 -115q-21 -57 -51 -117h42q27 40 51 94q23 56 35 113q15 59 24 124q8 69 8 133z" />
    <glyph glyph-name="uni249E" unicode="&#x249e;" horiz-adv-x="940" 
d="M147 -166h43q-33 62 -50 117q-20 56 -31 115q-15 58 -18 117q-4 51 -4 115q0 65 4 117q3 56 18 116q11 59 31 115q17 55 50 117h-43q-29 -42 -50 -94q-22 -52 -39 -113q-15 -60 -21 -124q-7 -62 -7 -134q0 -73 7 -133q6 -65 21 -124q16 -59 39 -113q21 -52 50 -94z
M670 223h-53q-9 -56 -46 -90q-38 -35 -94 -35q-36 0 -65 16q-30 15 -48 42q-22 23 -31 62q-10 34 -10 81q0 41 9 78q8 36 30 63q16 27 48 45q32 16 67 16q55 0 91 -33q33 -33 45 -85h54q-4 38 -21 70q-18 30 -40 52q-28 20 -58 32q-35 12 -71 12q-49 0 -90 -19
q-42 -20 -65 -52q-30 -36 -43 -80q-14 -43 -14 -99q0 -59 14 -102q14 -49 43 -77q24 -33 65 -51q38 -19 90 -19q81 0 132 45q50 43 61 128zM910 298q0 64 -8 134q-9 63 -24 124q-13 58 -35 113q-24 54 -51 94h-42q30 -60 51 -117q18 -60 30 -115q6 -40 14 -116q4 -78 4 -117
t-4 -115q-8 -78 -14 -117q-12 -55 -30 -115q-21 -57 -51 -117h42q27 40 51 94q23 56 35 113q15 59 24 124q8 69 8 133z" />
    <glyph glyph-name="uni249F" unicode="&#x249f;" horiz-adv-x="940" 
d="M599 219q0 -34 -8 -72q-10 -40 -26 -63q-21 -29 -50 -48q-30 -18 -74 -18q-41 0 -69 18q-31 19 -46 48q-22 27 -28 63q-8 32 -8 72q0 41 8 74q6 34 28 64q15 28 46 46q28 18 69 18q42 0 72 -18q27 -17 51 -46q18 -29 27 -64q8 -40 8 -74zM147 -166h43q-33 62 -50 117
q-20 56 -31 115q-15 58 -18 117q-4 51 -4 115q0 65 4 117q3 56 18 116q11 59 31 115q17 55 50 117h-43q-29 -42 -50 -94q-22 -52 -39 -113q-15 -60 -21 -124q-7 -62 -7 -134q0 -73 7 -133q6 -65 21 -124q16 -59 39 -113q21 -52 50 -94zM599 -17h58v655h-58v-271
q-11 22 -27 41q-20 20 -36 32q-27 17 -47 23q-30 7 -48 7q-54 0 -94 -20q-40 -21 -62 -54q-29 -36 -39 -81q-12 -45 -12 -96q0 -49 12 -94q11 -46 39 -79q21 -34 62 -56q40 -20 94 -20q52 0 98 26q43 26 60 78v-91zM910 298q0 64 -8 134q-9 63 -24 124q-13 58 -35 113
q-24 54 -51 94h-42q30 -60 51 -117q18 -60 30 -115q6 -40 14 -116q4 -78 4 -117t-4 -115q-8 -78 -14 -117q-12 -55 -30 -115q-21 -57 -51 -117h42q27 40 51 94q23 56 35 113q15 59 24 124q8 69 8 133z" />
    <glyph glyph-name="uni24A0" unicode="&#x24a0;" horiz-adv-x="940" 
d="M620 337h-297q3 35 13 63q8 27 31 54q15 21 44 36q28 14 59 14q33 0 61 -14q26 -14 48 -38q18 -28 29 -54q10 -30 12 -61zM147 -166h43q-33 62 -50 117q-20 56 -31 115q-15 58 -18 117q-4 51 -4 115q0 65 4 117q3 56 18 116q11 59 31 115q17 55 50 117h-43
q-29 -42 -50 -94q-22 -52 -39 -113q-15 -60 -21 -124q-7 -62 -7 -134q0 -73 7 -133q6 -65 21 -124q16 -59 39 -113q21 -52 50 -94zM323 288h350q0 48 -10 101q-10 47 -36 85q-25 36 -62 57q-39 21 -95 21q-51 0 -89 -20q-40 -21 -62 -54q-29 -38 -40 -79q-13 -43 -13 -96
q0 -58 15 -106q14 -49 43 -77q23 -32 63 -49q36 -18 83 -18q84 0 135 45q51 43 66 125h-53q-12 -53 -47 -86q-35 -35 -101 -35q-37 0 -62 14q-29 14 -45 40q-21 24 -30 59q-10 31 -10 73zM910 298q0 64 -8 134q-9 63 -24 124q-13 58 -35 113q-24 54 -51 94h-42
q30 -60 51 -117q18 -60 30 -115q6 -40 14 -116q4 -78 4 -117t-4 -115q-8 -78 -14 -117q-12 -55 -30 -115q-21 -57 -51 -117h42q27 40 51 94q23 56 35 113q15 59 24 124q8 69 8 133z" />
    <glyph glyph-name="uni24A1" unicode="&#x24a1;" horiz-adv-x="940" 
d="M147 -166h43q-33 62 -50 117q-20 56 -31 115q-15 58 -18 117q-4 51 -4 115q0 65 4 117q3 56 18 116q11 59 31 115q17 55 50 117h-43q-29 -42 -50 -94q-22 -52 -39 -113q-15 -60 -21 -124q-7 -62 -7 -134q0 -73 7 -133q6 -65 21 -124q16 -59 39 -113q21 -52 50 -94z
M583 555v51q-11 0 -25 2h-23q-60 0 -82 -31q-21 -33 -21 -96v-53h-80v-47h80v-423h57v423h86v47h-86v50q0 38 9 60q8 22 44 22q2 0 8.5 -0.5t10.5 -0.5q6 -2 22 -4zM910 298q0 64 -8 134q-9 63 -24 124q-13 58 -35 113q-24 54 -51 94h-42q30 -60 51 -117q18 -60 30 -115
q6 -40 14 -116q4 -78 4 -117t-4 -115q-8 -78 -14 -117q-12 -55 -30 -115q-21 -57 -51 -117h42q27 40 51 94q23 56 35 113q15 59 24 124q8 69 8 133z" />
    <glyph glyph-name="uni24A2" unicode="&#x24a2;" horiz-adv-x="940" 
d="M620 360q0 -32 -10 -69q-13 -35 -27 -58q-19 -23 -48 -37q-30 -15 -65 -15q-74 0 -111 50q-38 48 -38 134q0 34 9 70q10 35 31 61q17 24 45 39q28 14 64 14t68 -16q28 -16 45 -41q17 -27 28 -61q9 -35 9 -71zM147 -166h43q-33 62 -50 117q-20 56 -31 115q-15 58 -18 117
q-4 51 -4 115q0 65 4 117q3 56 18 116q11 59 31 115q17 55 50 117h-43q-29 -42 -50 -94q-22 -52 -39 -113q-15 -60 -21 -124q-7 -62 -7 -134q0 -73 7 -133q6 -65 21 -124q16 -59 39 -113q21 -52 50 -94zM674 178v407h-54v-76q-7 17 -21 34q-14 15 -32 30q-20 11 -45 19
q-24 6 -52 6q-46 0 -85 -17q-39 -18 -63 -48q-29 -32 -43 -75q-15 -44 -15 -93q0 -112 56 -171q53 -62 150 -62q30 0 52 7q21 6 45 20q20 14 32 29q15 14 21 34v-37q0 -87 -35 -128q-36 -42 -114 -42q-53 0 -89 21q-38 21 -44 72h-55q3 -36 21 -63q17 -29 41 -44
q28 -18 59 -27q35 -7 67 -7q109 0 157 57q46 58 46 154zM910 298q0 64 -8 134q-9 63 -24 124q-13 58 -35 113q-24 54 -51 94h-42q30 -60 51 -117q18 -60 30 -115q6 -40 14 -116q4 -78 4 -117t-4 -115q-8 -78 -14 -117q-12 -55 -30 -115q-21 -57 -51 -117h42q27 40 51 94
q23 56 35 113q15 59 24 124q8 69 8 133z" />
    <glyph glyph-name="uni24A3" unicode="&#x24a3;" horiz-adv-x="940" 
d="M147 -166h43q-33 62 -50 117q-20 56 -31 115q-15 58 -18 117q-4 51 -4 115q0 65 4 117q3 56 18 116q11 59 31 115q17 55 50 117h-43q-29 -42 -50 -94q-22 -52 -39 -113q-15 -60 -21 -124q-7 -62 -7 -134q0 -73 7 -133q6 -65 21 -124q16 -59 39 -113q21 -52 50 -94z
M616 -27h53v302q0 34 -7 76q-9 34 -30 59q-17 22 -51 37q-36 13 -80 13q-23 0 -47 -8q-19 -7 -41 -20q-23 -12 -37 -30q-14 -17 -21 -37v263h-58v-655h58v276q0 36 10 65q9 28 27 52q20 20 46 33q26 12 61 12q29 0 54 -11q23 -13 34 -30q12 -19 22 -47q7 -31 7 -56v-294z
M910 298q0 64 -8 134q-9 63 -24 124q-13 58 -35 113q-24 54 -51 94h-42q30 -60 51 -117q18 -60 30 -115q6 -40 14 -116q4 -78 4 -117t-4 -115q-8 -78 -14 -117q-12 -55 -30 -115q-21 -57 -51 -117h42q27 40 51 94q23 56 35 113q15 59 24 124q8 69 8 133z" />
    <glyph glyph-name="uni24A4" unicode="&#x24a4;" horiz-adv-x="940" 
d="M147 -166h43q-33 62 -50 117q-20 56 -31 115q-15 58 -18 117q-4 51 -4 115q0 65 4 117q3 56 18 116q11 59 31 115q17 55 50 117h-43q-29 -42 -50 -94q-22 -52 -39 -113q-15 -60 -21 -124q-7 -62 -7 -134q0 -73 7 -133q6 -65 21 -124q16 -59 39 -113q21 -52 50 -94z
M443 -32h56v472h-56v-472zM442 529h58v94h-58v-94zM910 298q0 64 -8 134q-9 63 -24 124q-13 58 -35 113q-24 54 -51 94h-42q30 -60 51 -117q18 -60 30 -115q6 -40 14 -116q4 -78 4 -117t-4 -115q-8 -78 -14 -117q-12 -55 -30 -115q-21 -57 -51 -117h42q27 40 51 94
q23 56 35 113q15 59 24 124q8 69 8 133z" />
    <glyph glyph-name="uni24A5" unicode="&#x24a5;" horiz-adv-x="940" 
d="M147 -166h43q-33 62 -50 117q-20 56 -31 115q-15 58 -18 117q-4 51 -4 115q0 65 4 117q3 56 18 116q11 59 31 115q17 55 50 117h-43q-29 -42 -50 -94q-22 -52 -39 -113q-15 -60 -21 -124q-7 -62 -7 -134q0 -73 7 -133q6 -65 21 -124q16 -59 39 -113q21 -52 50 -94z
M511 13v503h-55v-510q0 -30 -10 -45q-13 -13 -35 -13h-12h-7l-4 1v-50q1 0 6 -0.5t8 -0.5h16q52 0 73 29q20 31 20 86zM910 298q0 64 -8 134q-9 63 -24 124q-13 58 -35 113q-24 54 -51 94h-42q30 -60 51 -117q18 -60 30 -115q6 -40 14 -116q4 -78 4 -117t-4 -115
q-8 -78 -14 -117q-12 -55 -30 -115q-21 -57 -51 -117h42q27 40 51 94q23 56 35 113q15 59 24 124q8 69 8 133zM455 604h57v94h-57v-94z" />
    <glyph glyph-name="uni24A6" unicode="&#x24a6;" horiz-adv-x="940" 
d="M147 -166h43q-33 62 -50 117q-20 56 -31 115q-15 58 -18 117q-4 51 -4 115q0 65 4 117q3 56 18 116q11 59 31 115q17 55 50 117h-43q-29 -42 -50 -94q-22 -52 -39 -113q-15 -60 -21 -124q-7 -62 -7 -134q0 -73 7 -133q6 -65 21 -124q16 -59 39 -113q21 -52 50 -94z
M634 -25h68l-204 297l190 176h-78l-247 -228v409h-59v-654h59v173l92 84zM910 298q0 64 -8 134q-9 63 -24 124q-13 58 -35 113q-24 54 -51 94h-42q30 -60 51 -117q18 -60 30 -115q6 -40 14 -116q4 -78 4 -117t-4 -115q-8 -78 -14 -117q-12 -55 -30 -115q-21 -57 -51 -117h42
q27 40 51 94q23 56 35 113q15 59 24 124q8 69 8 133z" />
    <glyph glyph-name="uni24A7" unicode="&#x24a7;" horiz-adv-x="940" 
d="M147 -166h43q-33 62 -50 117q-20 56 -31 115q-15 58 -18 117q-4 51 -4 115q0 65 4 117q3 56 18 116q11 59 31 115q17 55 50 117h-43q-29 -42 -50 -94q-22 -52 -39 -113q-15 -60 -21 -124q-7 -62 -7 -134q0 -73 7 -133q6 -65 21 -124q16 -59 39 -113q21 -52 50 -94z
M441 -27h55v654h-55v-654zM910 298q0 64 -8 134q-9 63 -24 124q-13 58 -35 113q-24 54 -51 94h-42q30 -60 51 -117q18 -60 30 -115q6 -40 14 -116q4 -78 4 -117t-4 -115q-8 -78 -14 -117q-12 -55 -30 -115q-21 -57 -51 -117h42q27 40 51 94q23 56 35 113q15 59 24 124
q8 69 8 133z" />
    <glyph glyph-name="uni24A8" unicode="&#x24a8;" horiz-adv-x="940" 
d="M147 -166h43q-33 62 -50 117q-20 56 -31 115q-15 58 -18 117q-4 51 -4 115q0 65 4 117q3 56 18 116q11 59 31 115q17 55 50 117h-43q-29 -42 -50 -94q-22 -52 -39 -113q-15 -60 -21 -124q-7 -62 -7 -134q0 -73 7 -133q6 -65 21 -124q16 -59 39 -113q21 -52 50 -94z
M739 60h53v320q0 83 -38 126q-40 40 -114 40q-56 0 -92 -25q-36 -27 -51 -68q-10 45 -47 69q-39 24 -89 24q-55 0 -92 -26q-37 -27 -55 -68v81h-53v-473h53v267q0 72 34 121t101 49q24 0 47 -10q19 -13 29 -27q15 -21 20 -40q5 -25 5 -45v-315h53v268q0 39 8 66q6 28 25 54
q12 21 36 36q24 13 55 13q61 0 87 -32q25 -34 25 -88v-317zM910 298q0 64 -8 134q-9 63 -24 124q-13 58 -35 113q-24 54 -51 94h-42q30 -60 51 -117q18 -60 30 -115q6 -40 14 -116q4 -78 4 -117t-4 -115q-8 -78 -14 -117q-12 -55 -30 -115q-21 -57 -51 -117h42q27 40 51 94
q23 56 35 113q15 59 24 124q8 69 8 133z" />
    <glyph glyph-name="uni24A9" unicode="&#x24a9;" horiz-adv-x="940" 
d="M147 -166h43q-33 62 -50 117q-20 56 -31 115q-15 58 -18 117q-4 51 -4 115q0 65 4 117q3 56 18 116q11 59 31 115q17 55 50 117h-43q-29 -42 -50 -94q-22 -52 -39 -113q-15 -60 -21 -124q-7 -62 -7 -134q0 -73 7 -133q6 -65 21 -124q16 -59 39 -113q21 -52 50 -94z
M600 65h58v305q0 37 -10 74q-11 33 -28 58q-22 20 -53 36q-36 13 -79 13q-23 0 -48 -7q-23 -7 -43 -21q-21 -11 -37 -29q-15 -17 -22 -37v81h-54v-473h54v275q0 36 12 66q11 29 28 52q22 21 47 33t58 12q58 0 88 -38q29 -40 29 -107v-293zM910 298q0 64 -8 134
q-9 63 -24 124q-13 58 -35 113q-24 54 -51 94h-42q30 -60 51 -117q18 -60 30 -115q6 -40 14 -116q4 -78 4 -117t-4 -115q-8 -78 -14 -117q-12 -55 -30 -115q-21 -57 -51 -117h42q27 40 51 94q23 56 35 113q15 59 24 124q8 69 8 133z" />
    <glyph glyph-name="uni24AA" unicode="&#x24aa;" horiz-adv-x="940" 
d="M627 301q0 -42 -10 -82q-13 -39 -34 -62q-20 -29 -49 -42q-30 -15 -66 -15t-65 15q-29 13 -52 42q-18 23 -31 62q-13 35 -13 82q0 45 13 83q13 39 31 64q25 26 52 40q28 15 65 15q36 0 66 -15q28 -14 49 -40q21 -25 34 -64q10 -43 10 -83zM147 -166h43q-33 62 -50 117
q-20 56 -31 115q-15 58 -18 117q-4 51 -4 115q0 65 4 117q3 56 18 116q11 59 31 115q17 55 50 117h-43q-29 -42 -50 -94q-22 -52 -39 -113q-15 -60 -21 -124q-7 -62 -7 -134q0 -73 7 -133q6 -65 21 -124q16 -59 39 -113q21 -52 50 -94zM683 301q0 52 -14 102q-16 47 -44 78
q-27 32 -68 52q-41 18 -89 18q-51 0 -90 -18q-43 -20 -69 -52q-27 -33 -42 -78q-16 -47 -16 -102q0 -57 16 -101q15 -46 42 -78q26 -34 69 -52q39 -18 90 -18q48 0 89 18q40 19 68 52q28 30 44 78q14 47 14 101zM910 298q0 64 -8 134q-9 63 -24 124q-13 58 -35 113
q-24 54 -51 94h-42q30 -60 51 -117q18 -60 30 -115q6 -40 14 -116q4 -78 4 -117t-4 -115q-8 -78 -14 -117q-12 -55 -30 -115q-21 -57 -51 -117h42q27 40 51 94q23 56 35 113q15 59 24 124q8 69 8 133z" />
    <glyph glyph-name="uni24AB" unicode="&#x24ab;" horiz-adv-x="940" 
d="M643 343q0 -41 -9 -77q-10 -37 -32 -63q-20 -30 -46 -45q-28 -16 -62 -16q-46 0 -74 17q-31 16 -48 47q-22 26 -30 63q-9 36 -9 74q0 41 12 80q11 38 30 64q20 25 52 43q30 16 67 16q32 0 62 -16q26 -17 46 -45q22 -28 32 -63q9 -38 9 -79zM147 -166h43q-33 62 -50 117
q-20 56 -31 115q-15 58 -18 117q-4 51 -4 115q0 65 4 117q3 56 18 116q11 59 31 115q17 55 50 117h-43q-29 -42 -50 -94q-22 -52 -39 -113q-15 -60 -21 -124q-7 -62 -7 -134q0 -73 7 -133q6 -65 21 -124q16 -59 39 -113q21 -52 50 -94zM701 343q0 57 -15 105q-17 48 -43 79
q-24 31 -63 50q-40 17 -86 17q-65 0 -106 -29q-42 -30 -55 -74v90h-55v-618h55v236q6 -24 24 -42q14 -19 36 -31q24 -17 48 -23q21 -8 53 -8q95 0 151 65t56 183zM910 298q0 64 -8 134q-9 63 -24 124q-13 58 -35 113q-24 54 -51 94h-42q30 -60 51 -117q18 -60 30 -115
q6 -40 14 -116q4 -78 4 -117t-4 -115q-8 -78 -14 -117q-12 -55 -30 -115q-21 -57 -51 -117h42q27 40 51 94q23 56 35 113q15 59 24 124q8 69 8 133z" />
    <glyph glyph-name="uni24AC" unicode="&#x24ac;" horiz-adv-x="940" 
d="M611 342q0 -34 -10 -74q-11 -36 -27 -63q-22 -31 -51 -47q-28 -17 -73 -17q-35 0 -61 16q-28 15 -49 45q-19 27 -29 63q-12 36 -12 77q0 42 12 79q10 36 29 62q21 28 49 46q29 16 61 16q35 0 67 -16q27 -15 52 -44q18 -27 30 -63q12 -39 12 -80zM147 -166h43
q-33 62 -50 117q-20 56 -31 115q-15 58 -18 117q-4 51 -4 115q0 65 4 117q3 56 18 116q11 59 31 115q17 55 50 117h-43q-29 -42 -50 -94q-22 -52 -39 -113q-15 -60 -21 -124q-7 -62 -7 -134q0 -73 7 -133q6 -65 21 -124q16 -59 39 -113q21 -52 50 -94zM611 -37h56v617h-56
v-90q-18 44 -58 74q-43 29 -103 29q-47 0 -84 -17q-38 -18 -67 -51q-25 -30 -39 -78q-15 -48 -15 -105q0 -58 15 -104q13 -47 39 -77q28 -33 67 -49q36 -18 84 -18q56 0 100 28q42 26 61 76v-235zM910 298q0 64 -8 134q-9 63 -24 124q-13 58 -35 113q-24 54 -51 94h-42
q30 -60 51 -117q18 -60 30 -115q6 -40 14 -116q4 -78 4 -117t-4 -115q-8 -78 -14 -117q-12 -55 -30 -115q-21 -57 -51 -117h42q27 40 51 94q23 56 35 113q15 59 24 124q8 69 8 133z" />
    <glyph glyph-name="uni24AD" unicode="&#x24ad;" horiz-adv-x="940" 
d="M147 -166h43q-33 62 -50 117q-20 56 -31 115q-15 58 -18 117q-4 51 -4 115q0 65 4 117q3 56 18 116q11 59 31 115q17 55 50 117h-43q-29 -42 -50 -94q-22 -52 -39 -113q-15 -60 -21 -124q-7 -62 -7 -134q0 -73 7 -133q6 -65 21 -124q16 -59 39 -113q21 -52 50 -94z
M600 463v58q-61 1 -104 -29q-45 -33 -58 -83v107h-57v-471h57v251q0 36 12 69q13 32 36 55q19 20 51 34q30 12 63 9zM910 298q0 64 -8 134q-9 63 -24 124q-13 58 -35 113q-24 54 -51 94h-42q30 -60 51 -117q18 -60 30 -115q6 -40 14 -116q4 -78 4 -117t-4 -115
q-8 -78 -14 -117q-12 -55 -30 -115q-21 -57 -51 -117h42q27 40 51 94q23 56 35 113q15 59 24 124q8 69 8 133z" />
    <glyph glyph-name="uni24AE" unicode="&#x24ae;" horiz-adv-x="940" 
d="M147 -166h43q-33 62 -50 117q-20 56 -31 115q-15 58 -18 117q-4 51 -4 115q0 65 4 117q3 56 18 116q11 59 31 115q17 55 50 117h-43q-29 -42 -50 -94q-22 -52 -39 -113q-15 -60 -21 -124q-7 -62 -7 -134q0 -73 7 -133q6 -65 21 -124q16 -59 39 -113q21 -52 50 -94z
M660 200q0 28 -11 52q-13 23 -26 36q-20 13 -42 23q-7 2 -24 8t-26 9l-75 19q-23 5 -38 12q-16 6 -30 15q-13 7 -19 22q-7 11 -7 32q0 34 27 57q28 22 79 22q55 0 86 -26q29 -26 32 -79h57q-1 37 -14 68q-14 29 -38 47q-23 19 -54 30q-33 9 -67 9q-82 0 -124 -36
q-43 -37 -43 -96q0 -29 12 -50q11 -22 27 -35q20 -15 43 -24q20 -9 45 -16l72 -18q48 -14 73 -31q27 -18 27 -57q0 -45 -32 -66q-32 -22 -90 -22q-61 0 -96 31q-38 30 -42 86h-53q3 -44 19 -73q15 -32 38 -52q25 -21 59 -30q30 -11 70 -11q39 0 74 9q34 8 60 25q23 18 37 45
q14 28 14 65zM910 298q0 64 -8 134q-9 63 -24 124q-13 58 -35 113q-24 54 -51 94h-42q30 -60 51 -117q18 -60 30 -115q6 -40 14 -116q4 -78 4 -117t-4 -115q-8 -78 -14 -117q-12 -55 -30 -115q-21 -57 -51 -117h42q27 40 51 94q23 56 35 113q15 59 24 124q8 69 8 133z" />
    <glyph glyph-name="uni24AF" unicode="&#x24af;" horiz-adv-x="940" 
d="M147 -166h43q-33 62 -50 117q-20 56 -31 115q-15 58 -18 117q-4 51 -4 115q0 65 4 117q3 56 18 116q11 59 31 115q17 55 50 117h-43q-29 -42 -50 -94q-22 -52 -39 -113q-15 -60 -21 -124q-7 -62 -7 -134q0 -73 7 -133q6 -65 21 -124q16 -59 39 -113q21 -52 50 -94z
M572 -11v48q-9 -2 -23 -2h-24q-27 0 -37 13q-11 11 -11 42v328h95v46h-95v142h-55v-142h-82v-46h82v-329q0 -34 5 -50q4 -20 19 -32q11 -11 30 -17q20 -5 47 -5q4 0 12 0.5t12 0.5q12 2 25 3zM910 298q0 64 -8 134q-9 63 -24 124q-13 58 -35 113q-24 54 -51 94h-42
q30 -60 51 -117q18 -60 30 -115q6 -40 14 -116q4 -78 4 -117t-4 -115q-8 -78 -14 -117q-12 -55 -30 -115q-21 -57 -51 -117h42q27 40 51 94q23 56 35 113q15 59 24 124q8 69 8 133z" />
    <glyph glyph-name="uni24B0" unicode="&#x24b0;" horiz-adv-x="940" 
d="M147 -166h43q-33 62 -50 117q-20 56 -31 115q-15 58 -18 117q-4 51 -4 115q0 65 4 117q3 56 18 116q11 59 31 115q17 55 50 117h-43q-29 -42 -50 -94q-22 -52 -39 -113q-15 -60 -21 -124q-7 -62 -7 -134q0 -73 7 -133q6 -65 21 -124q16 -59 39 -113q21 -52 50 -94z
M606 59h57v473h-57v-260q0 -37 -10 -70q-11 -34 -25 -56q-22 -25 -45 -38q-27 -15 -60 -15q-122 0 -122 131v308h-53v-308q0 -88 39 -133t124 -45q58 0 98 27q39 27 54 70v-84zM910 298q0 64 -8 134q-9 63 -24 124q-13 58 -35 113q-24 54 -51 94h-42q30 -60 51 -117
q18 -60 30 -115q6 -40 14 -116q4 -78 4 -117t-4 -115q-8 -78 -14 -117q-12 -55 -30 -115q-21 -57 -51 -117h42q27 40 51 94q23 56 35 113q15 59 24 124q8 69 8 133z" />
    <glyph glyph-name="uni24B1" unicode="&#x24b1;" horiz-adv-x="940" 
d="M147 -166h43q-33 62 -50 117q-20 56 -31 115q-15 58 -18 117q-4 51 -4 115q0 65 4 117q3 56 18 116q11 59 31 115q17 55 50 117h-43q-29 -42 -50 -94q-22 -52 -39 -113q-15 -60 -21 -124q-7 -62 -7 -134q0 -73 7 -133q6 -65 21 -124q16 -59 39 -113q21 -52 50 -94z
M502 39l170 471h-59l-143 -412l-139 412h-60l170 -471h61zM910 298q0 64 -8 134q-9 63 -24 124q-13 58 -35 113q-24 54 -51 94h-42q30 -60 51 -117q18 -60 30 -115q6 -40 14 -116q4 -78 4 -117t-4 -115q-8 -78 -14 -117q-12 -55 -30 -115q-21 -57 -51 -117h42q27 40 51 94
q23 56 35 113q15 59 24 124q8 69 8 133z" />
    <glyph glyph-name="uni24B2" unicode="&#x24b2;" horiz-adv-x="940" 
d="M147 -166h43q-33 62 -50 117q-20 56 -31 115q-15 58 -18 117q-4 51 -4 115q0 65 4 117q3 56 18 116q11 59 31 115q17 55 50 117h-43q-29 -42 -50 -94q-22 -52 -39 -113q-15 -60 -21 -124q-7 -62 -7 -134q0 -73 7 -133q6 -65 21 -124q16 -59 39 -113q21 -52 50 -94z
M649 45l143 470h-58l-118 -403l-114 403h-62l-111 -403l-120 403h-57l143 -470h65l110 395l113 -395h66zM910 298q0 64 -8 134q-9 63 -24 124q-13 58 -35 113q-24 54 -51 94h-42q30 -60 51 -117q18 -60 30 -115q6 -40 14 -116q4 -78 4 -117t-4 -115q-8 -78 -14 -117
q-12 -55 -30 -115q-21 -57 -51 -117h42q27 40 51 94q23 56 35 113q15 59 24 124q8 69 8 133z" />
    <glyph glyph-name="uni24B3" unicode="&#x24b3;" horiz-adv-x="940" 
d="M147 -166h43q-33 62 -50 117q-20 56 -31 115q-15 58 -18 117q-4 51 -4 115q0 65 4 117q3 56 18 116q11 59 31 115q17 55 50 117h-43q-29 -42 -50 -94q-22 -52 -39 -113q-15 -60 -21 -124q-7 -62 -7 -134q0 -73 7 -133q6 -65 21 -124q16 -59 39 -113q21 -52 50 -94z
M617 60h62l-178 248l164 224h-69l-127 -182l-127 182h-66l164 -224l-180 -248h67l143 204zM910 298q0 64 -8 134q-9 63 -24 124q-13 58 -35 113q-24 54 -51 94h-42q30 -60 51 -117q18 -60 30 -115q6 -40 14 -116q4 -78 4 -117t-4 -115q-8 -78 -14 -117q-12 -55 -30 -115
q-21 -57 -51 -117h42q27 40 51 94q23 56 35 113q15 59 24 124q8 69 8 133z" />
    <glyph glyph-name="uni24B4" unicode="&#x24b4;" horiz-adv-x="940" 
d="M147 -166h43q-33 62 -50 117q-20 56 -31 115q-15 58 -18 117q-4 51 -4 115q0 65 4 117q3 56 18 116q11 59 31 115q17 55 50 117h-43q-29 -42 -50 -94q-22 -52 -39 -113q-15 -60 -21 -124q-7 -62 -7 -134q0 -73 7 -133q6 -65 21 -124q16 -59 39 -113q21 -52 50 -94z
M490 43l192 534h-57l-135 -397l-152 397h-57l181 -462l-17 -49q-3 -4 -6.5 -10.5t-6 -10.5t-4.5 -8q-8 -14 -12 -17q-9 -8 -18 -9q-10 -3 -22 -3q-17 0 -38 3v-48q12 -3 42 -3q43 0 70 22q24 22 40 61zM910 298q0 64 -8 134q-9 63 -24 124q-13 58 -35 113q-24 54 -51 94h-42
q30 -60 51 -117q18 -60 30 -115q6 -40 14 -116q4 -78 4 -117t-4 -115q-8 -78 -14 -117q-12 -55 -30 -115q-21 -57 -51 -117h42q27 40 51 94q23 56 35 113q15 59 24 124q8 69 8 133z" />
    <glyph glyph-name="uni24B5" unicode="&#x24b5;" horiz-adv-x="940" 
d="M147 -166h43q-33 62 -50 117q-20 56 -31 115q-15 58 -18 117q-4 51 -4 115q0 65 4 117q3 56 18 116q11 59 31 115q17 55 50 117h-43q-29 -42 -50 -94q-22 -52 -39 -113q-15 -60 -21 -124q-7 -62 -7 -134q0 -73 7 -133q6 -65 21 -124q16 -59 39 -113q21 -52 50 -94z
M288 65h371v49h-308l299 379v43h-348v-47h277l-291 -379v-45zM910 298q0 64 -8 134q-9 63 -24 124q-13 58 -35 113q-24 54 -51 94h-42q30 -60 51 -117q18 -60 30 -115q6 -40 14 -116q4 -78 4 -117t-4 -115q-8 -78 -14 -117q-12 -55 -30 -115q-21 -57 -51 -117h42
q27 40 51 94q23 56 35 113q15 59 24 124q8 69 8 133z" />
    <glyph glyph-name="uni24B6" unicode="&#x24b6;" horiz-adv-x="0" 
 />
    <glyph glyph-name="uni24B7" unicode="&#x24b7;" horiz-adv-x="0" 
 />
    <glyph glyph-name="uni24B8" unicode="&#x24b8;" horiz-adv-x="0" 
 />
    <glyph glyph-name="uni24B9" unicode="&#x24b9;" horiz-adv-x="0" 
 />
    <glyph glyph-name="uni24BA" unicode="&#x24ba;" horiz-adv-x="0" 
 />
    <glyph glyph-name="uni24BB" unicode="&#x24bb;" horiz-adv-x="0" 
 />
    <glyph glyph-name="uni24BC" unicode="&#x24bc;" horiz-adv-x="0" 
 />
    <glyph glyph-name="uni24BD" unicode="&#x24bd;" horiz-adv-x="0" 
 />
    <glyph glyph-name="uni24BE" unicode="&#x24be;" horiz-adv-x="0" 
 />
    <glyph glyph-name="uni24BF" unicode="&#x24bf;" horiz-adv-x="0" 
 />
    <glyph glyph-name="uni24C0" unicode="&#x24c0;" horiz-adv-x="0" 
 />
    <glyph glyph-name="uni24C1" unicode="&#x24c1;" horiz-adv-x="0" 
 />
    <glyph glyph-name="uni24C2" unicode="&#x24c2;" horiz-adv-x="0" 
 />
    <glyph glyph-name="uni24C3" unicode="&#x24c3;" horiz-adv-x="0" 
 />
    <glyph glyph-name="uni24C4" unicode="&#x24c4;" horiz-adv-x="0" 
 />
    <glyph glyph-name="uni24C5" unicode="&#x24c5;" horiz-adv-x="0" 
 />
    <glyph glyph-name="uni24C6" unicode="&#x24c6;" horiz-adv-x="0" 
 />
    <glyph glyph-name="uni24C7" unicode="&#x24c7;" horiz-adv-x="0" 
 />
    <glyph glyph-name="uni24C8" unicode="&#x24c8;" horiz-adv-x="0" 
 />
    <glyph glyph-name="uni24C9" unicode="&#x24c9;" horiz-adv-x="0" 
 />
    <glyph glyph-name="uni24CA" unicode="&#x24ca;" horiz-adv-x="0" 
 />
    <glyph glyph-name="uni24CB" unicode="&#x24cb;" horiz-adv-x="0" 
 />
    <glyph glyph-name="uni24CC" unicode="&#x24cc;" horiz-adv-x="0" 
 />
    <glyph glyph-name="uni24CD" unicode="&#x24cd;" horiz-adv-x="0" 
 />
    <glyph glyph-name="uni24CE" unicode="&#x24ce;" horiz-adv-x="0" 
 />
    <glyph glyph-name="uni24CF" unicode="&#x24cf;" horiz-adv-x="0" 
 />
    <glyph glyph-name="uni24D0" unicode="&#x24d0;" horiz-adv-x="940" 
d="M585 330v-75q0 -30 -10 -58q-11 -28 -31 -45q-16 -16 -46 -26q-27 -10 -57 -10q-46 0 -72 19q-27 18 -27 56q0 29 14 46q13 17 36 29q24 10 63 21q17 4 86 17q12 1 26 10q14 8 18 16zM685 88v44q-4 -2 -8 -2q-4 -1 -10 -1q-30 0 -30 34v233q0 41 -11 71q-13 28 -36 43
q-20 13 -49 22q-35 7 -60 7q-37 0 -68 -9q-31 -10 -53 -27q-26 -22 -39 -47q-15 -28 -15 -66h55q3 53 35 79q33 25 77 25q51 0 82 -21q30 -21 30 -74q0 -22 -16 -35q-15 -14 -46 -20q-50 -9 -94 -18q-45 -11 -72 -25q-32 -15 -49 -42q-18 -27 -18 -69q0 -32 10 -52
q8 -22 32 -38q17 -14 45 -20q25 -7 55 -7q68 0 108 25q37 23 50 64q0 -36 14 -56q12 -21 48 -21q13 0 18 1q3 0 15 2zM875 299q0 -81 -31 -159q-32 -76 -88 -129q-55 -55 -128 -87q-78 -32 -160 -32q-84 0 -157 32t-131 87q-56 55 -86 129q-31 74 -31 159t31 159
q29 73 86 130q58 55 131 87t157 32q82 0 160 -32q73 -32 128 -87q57 -55 88 -130q31 -77 31 -159zM913 299q0 91 -36 172q-35 79 -94 141q-64 61 -143 96q-82 35 -172 35q-91 0 -172 -35q-83 -37 -139 -96q-63 -60 -96 -141q-34 -80 -34 -172t34 -172q34 -83 96 -142
q55 -57 139 -94q81 -35 172 -35q90 0 172 35q80 36 143 94q58 61 94 142t36 172z" />
    <glyph glyph-name="uni24D1" unicode="&#x24d1;" horiz-adv-x="940" 
d="M639 217q0 -29 -7 -67q-8 -35 -24 -61q-20 -28 -44 -43q-26 -17 -64 -17q-45 0 -70 17q-28 15 -47 43q-15 25 -25 61q-9 33 -9 67q0 35 9 68q9 34 25 61q18 25 48 44q29 16 69 16q35 0 64 -16q27 -20 44 -44q17 -29 24 -61q7 -38 7 -68zM693 217q0 47 -12 90
q-12 38 -35 74q-23 31 -61 52q-40 19 -85 19q-48 0 -89 -27q-42 -29 -62 -71v253h-53v-609h53v84q17 -49 59 -73q41 -26 92 -26q47 0 85 20q38 21 61 52q22 32 35 74q12 42 12 88zM875 299q0 -81 -31 -159q-32 -76 -88 -129q-55 -55 -128 -87q-78 -32 -160 -32
q-84 0 -157 32t-131 87q-56 55 -86 129q-31 74 -31 159t31 159q29 73 86 130q58 55 131 87t157 32q82 0 160 -32q73 -32 128 -87q57 -55 88 -130q31 -77 31 -159zM913 299q0 91 -36 172q-35 79 -94 141q-64 61 -143 96q-82 35 -172 35q-91 0 -172 -35q-83 -37 -139 -96
q-63 -60 -96 -141q-34 -80 -34 -172t34 -172q34 -83 96 -142q55 -57 139 -94q81 -35 172 -35q90 0 172 35q80 36 143 94q58 61 94 142t36 172z" />
    <glyph glyph-name="uni24D2" unicode="&#x24d2;" horiz-adv-x="940" 
d="M652 232h-53q-9 -55 -42 -85q-34 -31 -87 -31q-37 0 -62 14q-28 13 -43 39q-21 21 -30 58q-9 34 -9 76q0 41 8 73q7 34 29 60q15 26 44 41q27 15 63 15q51 0 85 -31q31 -31 40 -79h54q-8 37 -21 65q-14 26 -40 50q-20 17 -52 30q-35 11 -66 11q-49 0 -85 -18
q-37 -18 -60 -50q-27 -33 -39 -75q-12 -43 -12 -92q0 -52 12 -94q12 -45 40 -74q22 -31 60 -48q34 -17 84 -17q75 0 123 42q46 43 59 120zM875 299q0 -81 -31 -159q-32 -76 -88 -129q-55 -55 -128 -87q-78 -32 -160 -32q-84 0 -157 32t-131 87q-56 55 -86 129
q-31 74 -31 159t31 159q29 73 86 130q58 55 131 87t157 32q82 0 160 -32q73 -32 128 -87q57 -55 88 -130q31 -77 31 -159zM913 299q0 91 -36 172q-35 79 -94 141q-64 61 -143 96q-82 35 -172 35q-91 0 -172 -35q-83 -37 -139 -96q-63 -60 -96 -141q-34 -80 -34 -172t34 -172
q34 -83 96 -142q55 -57 139 -94q81 -35 172 -35q90 0 172 35q80 36 143 94q58 61 94 142t36 172z" />
    <glyph glyph-name="uni24D3" unicode="&#x24d3;" horiz-adv-x="940" 
d="M588 221q0 -29 -7 -67q-8 -33 -26 -61q-16 -27 -44 -43q-29 -16 -71 -16q-39 0 -65 16q-28 15 -43 43q-16 24 -26 61q-9 33 -9 67q0 33 9 68q10 36 26 60q15 27 43 45q29 16 65 16q37 0 69 -16q28 -19 44 -45q19 -26 28 -60q7 -40 7 -68zM588 2h52v610h-52v-255
q-18 41 -58 71q-44 28 -90 28q-51 0 -87 -19t-61 -52q-26 -35 -34 -74q-11 -40 -11 -90q0 -51 11 -89q9 -41 34 -74q26 -35 61 -51q35 -18 87 -18q49 0 93 25q40 24 55 71v-83zM875 299q0 -81 -31 -159q-32 -76 -88 -129q-55 -55 -128 -87q-78 -32 -160 -32q-84 0 -157 32
t-131 87q-56 55 -86 129q-31 74 -31 159t31 159q29 73 86 130q58 55 131 87t157 32q82 0 160 -32q73 -32 128 -87q57 -55 88 -130q31 -77 31 -159zM913 299q0 91 -36 172q-35 79 -94 141q-64 61 -143 96q-82 35 -172 35q-91 0 -172 -35q-83 -37 -139 -96q-63 -60 -96 -141
q-34 -80 -34 -172t34 -172q34 -83 96 -142q55 -57 139 -94q81 -35 172 -35q90 0 172 35q80 36 143 94q58 61 94 142t36 172z" />
    <glyph glyph-name="uni24D4" unicode="&#x24d4;" horiz-adv-x="940" 
d="M599 337h-275q3 29 12 58q10 29 29 50q15 22 40 36q26 13 56 13q32 0 58 -14q23 -14 44 -37q17 -20 27 -49q9 -28 9 -57zM324 291h329q0 48 -11 95q-11 42 -32 79q-26 34 -61 54q-38 20 -88 20q-47 0 -83 -18q-37 -19 -58 -52q-27 -33 -37 -74q-11 -40 -11 -90
q0 -115 52 -173q50 -59 137 -59q79 0 126 42q46 42 64 115h-53q-12 -50 -44 -80q-32 -32 -93 -32q-35 0 -58 13q-27 12 -42 37q-20 20 -28 54q-9 32 -9 69zM875 299q0 -81 -31 -159q-32 -76 -88 -129q-55 -55 -128 -87q-78 -32 -160 -32q-84 0 -157 32t-131 87
q-56 55 -86 129q-31 74 -31 159t31 159q29 73 86 130q58 55 131 87t157 32q82 0 160 -32q73 -32 128 -87q57 -55 88 -130q31 -77 31 -159zM913 299q0 91 -36 172q-35 79 -94 141q-64 61 -143 96q-82 35 -172 35q-91 0 -172 -35q-83 -37 -139 -96q-63 -60 -96 -141
q-34 -80 -34 -172t34 -172q34 -83 96 -142q55 -57 139 -94q81 -35 172 -35q90 0 172 35q80 36 143 94q58 61 94 142t36 172z" />
    <glyph glyph-name="uni24D5" unicode="&#x24d5;" horiz-adv-x="940" 
d="M564 541v47q-15 2 -24 3h-23q-57 0 -75 -30q-20 -29 -20 -90v-50h-74v-43h74v-397h52v397h80v43h-80v47q0 37 10 57q9 21 41 21q3 0 9 -0.5t9 -0.5q6 -2 21 -4zM875 299q0 -81 -31 -159q-32 -76 -88 -129q-55 -55 -128 -87q-78 -32 -160 -32q-84 0 -157 32t-131 87
q-56 55 -86 129q-31 74 -31 159t31 159q29 73 86 130q58 55 131 87t157 32q82 0 160 -32q73 -32 128 -87q57 -55 88 -130q31 -77 31 -159zM913 299q0 91 -36 172q-35 79 -94 141q-64 61 -143 96q-82 35 -172 35q-91 0 -172 -35q-83 -37 -139 -96q-63 -60 -96 -141
q-34 -80 -34 -172t34 -172q34 -83 96 -142q55 -57 139 -94q81 -35 172 -35q90 0 172 35q80 36 143 94q58 61 94 142t36 172z" />
    <glyph glyph-name="uni24D6" unicode="&#x24d6;" horiz-adv-x="940" 
d="M601 366q0 -36 -9 -66q-9 -32 -24 -53q-23 -27 -44 -37q-25 -13 -61 -13q-68 0 -103 47q-36 45 -36 124q0 33 9 66q8 32 28 57q15 21 42 36q26 14 60 14q36 0 63 -15q24 -17 44 -41q13 -21 23 -55q8 -35 8 -64zM655 193v381h-54v-70q-12 33 -49 59q-39 24 -89 24
q-43 0 -79 -17q-38 -19 -59 -47q-28 -30 -40 -68q-13 -39 -13 -87q0 -102 51 -160q50 -59 140 -59q28 0 49 8q23 8 39 19q20 11 32 26t18 31v-32q0 -81 -30 -120t-107 -39q-49 0 -82 20q-37 20 -43 67h-51q3 -35 20 -60q16 -27 37 -44q25 -15 56 -21q33 -7 63 -7
q102 0 147 52q44 52 44 144zM875 299q0 -81 -31 -159q-32 -76 -88 -129q-55 -55 -128 -87q-78 -32 -160 -32q-84 0 -157 32t-131 87q-56 55 -86 129q-31 74 -31 159t31 159q29 73 86 130q58 55 131 87t157 32q82 0 160 -32q73 -32 128 -87q57 -55 88 -130q31 -77 31 -159z
M913 299q0 91 -36 172q-35 79 -94 141q-64 61 -143 96q-82 35 -172 35q-91 0 -172 -35q-83 -37 -139 -96q-63 -60 -96 -141q-34 -80 -34 -172t34 -172q34 -83 96 -142q55 -57 139 -94q81 -35 172 -35q90 0 172 35q80 36 143 94q58 61 94 142t36 172z" />
    <glyph glyph-name="uni24D7" unicode="&#x24d7;" horiz-adv-x="940" 
d="M598 -2h54v284q0 38 -9 69q-9 30 -26 55q-20 20 -50 34q-30 12 -72 12q-23 0 -47 -7q-26 -10 -38 -20q-23 -13 -34 -27q-14 -19 -20 -36v245h-54v-609h54v256q0 35 10 61q9 27 25 49q19 19 43 31q25 11 57 11q56 0 82 -38q25 -41 25 -96v-274zM875 299q0 -81 -31 -159
q-32 -76 -88 -129q-55 -55 -128 -87q-78 -32 -160 -32q-84 0 -157 32t-131 87q-56 55 -86 129q-31 74 -31 159t31 159q29 73 86 130q58 55 131 87t157 32q82 0 160 -32q73 -32 128 -87q57 -55 88 -130q31 -77 31 -159zM913 299q0 91 -36 172q-35 79 -94 141q-64 61 -143 96
q-82 35 -172 35q-91 0 -172 -35q-83 -37 -139 -96q-63 -60 -96 -141q-34 -80 -34 -172t34 -172q34 -83 96 -142q55 -57 139 -94q81 -35 172 -35q90 0 172 35q80 36 143 94q58 61 94 142t36 172z" />
    <glyph glyph-name="uni24D8" unicode="&#x24d8;" horiz-adv-x="940" 
d="M443 -13h52v441h-52v-441zM442 511h54v87h-54v-87zM875 299q0 -81 -31 -159q-32 -76 -88 -129q-55 -55 -128 -87q-78 -32 -160 -32q-84 0 -157 32t-131 87q-56 55 -86 129q-31 74 -31 159t31 159q29 73 86 130q58 55 131 87t157 32q82 0 160 -32q73 -32 128 -87
q57 -55 88 -130q31 -77 31 -159zM913 299q0 91 -36 172q-35 79 -94 141q-64 61 -143 96q-82 35 -172 35q-91 0 -172 -35q-83 -37 -139 -96q-63 -60 -96 -141q-34 -80 -34 -172t34 -172q34 -83 96 -142q55 -57 139 -94q81 -35 172 -35q90 0 172 35q80 36 143 94q58 61 94 142
t36 172z" />
    <glyph glyph-name="uni24D9" unicode="&#x24d9;" horiz-adv-x="940" 
d="M509 32v470h-51v-478q0 -27 -9 -41q-10 -13 -33 -13h-11q-2 0 -5 0.5t-4 0.5v-45q2 0 12 -2h14q48 0 68 27q19 30 19 81zM457 585h53v86h-53v-86zM875 299q0 -81 -31 -159q-32 -76 -88 -129q-55 -55 -128 -87q-78 -32 -160 -32q-84 0 -157 32t-131 87q-56 55 -86 129
q-31 74 -31 159t31 159q29 73 86 130q58 55 131 87t157 32q82 0 160 -32q73 -32 128 -87q57 -55 88 -130q31 -77 31 -159zM913 299q0 91 -36 172q-35 79 -94 141q-64 61 -143 96q-82 35 -172 35q-91 0 -172 -35q-83 -37 -139 -96q-63 -60 -96 -141q-34 -80 -34 -172t34 -172
q34 -83 96 -142q55 -57 139 -94q81 -35 172 -35q90 0 172 35q80 36 143 94q58 61 94 142t36 172z" />
    <glyph glyph-name="uni24DA" unicode="&#x24da;" horiz-adv-x="940" 
d="M622 1h60l-189 274l176 165h-73l-229 -211v381h-53v-609h53v162l86 79zM875 299q0 -81 -31 -159q-32 -76 -88 -129q-55 -55 -128 -87q-78 -32 -160 -32q-84 0 -157 32t-131 87q-56 55 -86 129q-31 74 -31 159t31 159q29 73 86 130q58 55 131 87t157 32q82 0 160 -32
q73 -32 128 -87q57 -55 88 -130q31 -77 31 -159zM913 299q0 91 -36 172q-35 79 -94 141q-64 61 -143 96q-82 35 -172 35q-91 0 -172 -35q-83 -37 -139 -96q-63 -60 -96 -141q-34 -80 -34 -172t34 -172q34 -83 96 -142q55 -57 139 -94q81 -35 172 -35q90 0 172 35
q80 36 143 94q58 61 94 142t36 172z" />
    <glyph glyph-name="uni24DB" unicode="&#x24db;" horiz-adv-x="940" 
d="M442 -6h51v610h-51v-610zM875 299q0 -81 -31 -159q-32 -76 -88 -129q-55 -55 -128 -87q-78 -32 -160 -32q-84 0 -157 32t-131 87q-56 55 -86 129q-31 74 -31 159t31 159q29 73 86 130q58 55 131 87t157 32q82 0 160 -32q73 -32 128 -87q57 -55 88 -130q31 -77 31 -159z
M913 299q0 91 -36 172q-35 79 -94 141q-64 61 -143 96q-82 35 -172 35q-91 0 -172 -35q-83 -37 -139 -96q-63 -60 -96 -141q-34 -80 -34 -172t34 -172q34 -83 96 -142q55 -57 139 -94q81 -35 172 -35q90 0 172 35q80 36 143 94q58 61 94 142t36 172z" />
    <glyph glyph-name="uni24DC" unicode="&#x24dc;" horiz-adv-x="940" 
d="M718 79h54v299q0 80 -36 118q-39 37 -108 37q-49 0 -85 -25q-35 -25 -49 -63q-9 40 -44 65q-37 23 -83 23q-50 0 -86 -25q-36 -27 -49 -65v76h-54v-440h54v249q0 68 30 113q30 44 96 44q23 0 41 -9q17 -8 28 -23q13 -19 18 -38q5 -23 5 -42v-294h50v250q0 33 7 61
q6 29 24 50q12 22 34 34q22 11 53 11q51 0 76 -28q24 -30 24 -82v-296zM875 299q0 -81 -31 -159q-32 -76 -88 -129q-55 -55 -128 -87q-78 -32 -160 -32q-84 0 -157 32t-131 87q-56 55 -86 129q-31 74 -31 159t31 159q29 73 86 130q58 55 131 87t157 32q82 0 160 -32
q73 -32 128 -87q57 -55 88 -130q31 -77 31 -159zM913 299q0 91 -36 172q-35 79 -94 141q-64 61 -143 96q-82 35 -172 35q-91 0 -172 -35q-83 -37 -139 -96q-63 -60 -96 -141q-34 -80 -34 -172t34 -172q34 -83 96 -142q55 -57 139 -94q81 -35 172 -35q90 0 172 35
q80 36 143 94q58 61 94 142t36 172z" />
    <glyph glyph-name="uni24DD" unicode="&#x24dd;" horiz-adv-x="940" 
d="M590 86h52v284q0 36 -8 70q-8 27 -25 54q-20 20 -50 34q-30 12 -73 12q-25 0 -47 -8q-23 -9 -39 -18q-23 -13 -35 -28q-14 -17 -20 -35v73h-52v-438h52v256q0 36 11 61q10 26 27 49q19 19 44 31q25 11 54 11q56 0 83 -36q26 -37 26 -98v-274zM875 299q0 -81 -31 -159
q-32 -76 -88 -129q-55 -55 -128 -87q-78 -32 -160 -32q-84 0 -157 32t-131 87q-56 55 -86 129q-31 74 -31 159t31 159q29 73 86 130q58 55 131 87t157 32q82 0 160 -32q73 -32 128 -87q57 -55 88 -130q31 -77 31 -159zM913 299q0 91 -36 172q-35 79 -94 141q-64 61 -143 96
q-82 35 -172 35q-91 0 -172 -35q-83 -37 -139 -96q-63 -60 -96 -141q-34 -80 -34 -172t34 -172q34 -83 96 -142q55 -57 139 -94q81 -35 172 -35q90 0 172 35q80 36 143 94q58 61 94 142t36 172z" />
    <glyph glyph-name="uni24DE" unicode="&#x24de;" horiz-adv-x="940" 
d="M618 301q0 -43 -12 -76q-11 -34 -29 -58q-23 -27 -49 -39q-27 -14 -61 -14q-37 0 -62 14q-29 12 -45 39q-23 23 -32 58q-10 31 -10 76q0 43 10 77q9 34 32 59q16 24 45 39q28 14 62 14q31 0 61 -14q26 -14 49 -39q17 -25 29 -59q12 -36 12 -77zM668 301q0 49 -14 94
q-16 45 -38 74q-31 32 -66 50q-39 17 -83 17q-47 0 -84 -17t-62 -50q-29 -30 -43 -74q-14 -41 -14 -94q0 -54 14 -93q14 -44 43 -75q24 -31 62 -49q36 -18 84 -18q45 0 83 18q37 18 66 49q22 29 38 75q14 44 14 93zM875 299q0 -81 -31 -159q-32 -76 -88 -129
q-55 -55 -128 -87q-78 -32 -160 -32q-84 0 -157 32t-131 87q-56 55 -86 129q-31 74 -31 159t31 159q29 73 86 130q58 55 131 87t157 32q82 0 160 -32q73 -32 128 -87q57 -55 88 -130q31 -77 31 -159zM913 299q0 91 -36 172q-35 79 -94 141q-64 61 -143 96q-82 35 -172 35
q-91 0 -172 -35q-83 -37 -139 -96q-63 -60 -96 -141q-34 -80 -34 -172t34 -172q34 -83 96 -142q55 -57 139 -94q81 -35 172 -35q90 0 172 35q80 36 143 94q58 61 94 142t36 172z" />
    <glyph glyph-name="uni24DF" unicode="&#x24df;" horiz-adv-x="940" 
d="M631 345q0 -39 -9 -72q-9 -34 -29 -60q-18 -27 -43 -40q-27 -15 -58 -15q-41 0 -69 16q-30 15 -48 42q-16 26 -25 60q-10 31 -10 69q0 41 11 74q10 33 29 60q23 26 49 40q27 15 63 15q31 0 58 -15q24 -14 43 -41q20 -26 29 -59q9 -36 9 -74zM683 345q0 111 -51 174
q-53 61 -140 61q-59 0 -98 -28q-39 -30 -54 -70v83h-50v-575h50v220q16 -42 59 -69q41 -27 93 -27q88 0 140 61q51 60 51 170zM875 299q0 -81 -31 -159q-32 -76 -88 -129q-55 -55 -128 -87q-78 -32 -160 -32q-84 0 -157 32t-131 87q-56 55 -86 129q-31 74 -31 159t31 159
q29 73 86 130q58 55 131 87t157 32q82 0 160 -32q73 -32 128 -87q57 -55 88 -130q31 -77 31 -159zM913 299q0 91 -36 172q-35 79 -94 141q-64 61 -143 96q-82 35 -172 35q-91 0 -172 -35q-83 -37 -139 -96q-63 -60 -96 -141q-34 -80 -34 -172t34 -172q34 -83 96 -142
q55 -57 139 -94q81 -35 172 -35q90 0 172 35q80 36 143 94q58 61 94 142t36 172z" />
    <glyph glyph-name="uni24E0" unicode="&#x24e0;" horiz-adv-x="940" 
d="M587 347q0 -31 -7 -69q-9 -34 -28 -60q-16 -28 -46 -43t-68 -15q-33 0 -57 15q-27 13 -46 40q-17 25 -27 60q-11 30 -11 72q0 41 11 74q11 34 27 59q21 26 46 41q24 15 57 15t63 -15q28 -15 47 -40q21 -25 30 -60q9 -36 9 -74zM587 -8h53v574h-53v-83q-12 40 -51 70
q-41 29 -98 29q-90 0 -140 -61q-51 -63 -51 -174q0 -109 51 -169q49 -62 140 -62q54 0 96 27q41 27 53 69v-220zM875 299q0 -81 -31 -159q-32 -76 -88 -129q-55 -55 -128 -87q-78 -32 -160 -32q-84 0 -157 32t-131 87q-56 55 -86 129q-31 74 -31 159t31 159q29 73 86 130
q58 55 131 87t157 32q82 0 160 -32q73 -32 128 -87q57 -55 88 -130q31 -77 31 -159zM913 299q0 91 -36 172q-35 79 -94 141q-64 61 -143 96q-82 35 -172 35q-91 0 -172 -35q-83 -37 -139 -96q-63 -60 -96 -141q-34 -80 -34 -172t34 -172q34 -83 96 -142q55 -57 139 -94
q81 -35 172 -35q90 0 172 35q80 36 143 94q58 61 94 142t36 172z" />
    <glyph glyph-name="uni24E1" unicode="&#x24e1;" horiz-adv-x="940" 
d="M583 456v52q-60 2 -99 -27q-40 -30 -55 -81v104h-52v-441h52v235q0 36 13 65q12 27 32 51q21 20 49 32q26 10 60 10zM875 299q0 -81 -31 -159q-32 -76 -88 -129q-55 -55 -128 -87q-78 -32 -160 -32q-84 0 -157 32t-131 87q-56 55 -86 129q-31 74 -31 159t31 159
q29 73 86 130q58 55 131 87t157 32q82 0 160 -32q73 -32 128 -87q57 -55 88 -130q31 -77 31 -159zM913 299q0 91 -36 172q-35 79 -94 141q-64 61 -143 96q-82 35 -172 35q-91 0 -172 -35q-83 -37 -139 -96q-63 -60 -96 -141q-34 -80 -34 -172t34 -172q34 -83 96 -142
q55 -57 139 -94q81 -35 172 -35q90 0 172 35q80 36 143 94q58 61 94 142t36 172z" />
    <glyph glyph-name="uni24E2" unicode="&#x24e2;" horiz-adv-x="940" 
d="M642 208q0 27 -8 48q-6 12 -25 35q-16 11 -40 21q-27 9 -46 16l-70 18q-16 3 -35 11q-16 5 -29 15q-11 6 -18 19q-6 11 -6 30q0 35 26 55t73 20q51 0 81 -24q29 -25 32 -74h51q-1 33 -14 61q-15 25 -33 45q-22 16 -52 28q-33 10 -63 10q-78 0 -117 -33q-39 -35 -39 -90
q0 -31 11 -47q10 -20 26 -33q17 -13 40 -22q19 -9 42 -16l69 -17q40 -11 68 -28q24 -16 24 -52q0 -41 -31 -63q-31 -21 -85 -21q-56 0 -88 28q-36 27 -39 81h-52q6 -82 56 -117q49 -37 120 -37q39 0 70 7q31 6 53 23q24 17 36 42q12 24 12 61zM875 299q0 -81 -31 -159
q-32 -76 -88 -129q-55 -55 -128 -87q-78 -32 -160 -32q-84 0 -157 32t-131 87q-56 55 -86 129q-31 74 -31 159t31 159q29 73 86 130q58 55 131 87t157 32q82 0 160 -32q73 -32 128 -87q57 -55 88 -130q31 -77 31 -159zM913 299q0 91 -36 172q-35 79 -94 141q-64 61 -143 96
q-82 35 -172 35q-91 0 -172 -35q-83 -37 -139 -96q-63 -60 -96 -141q-34 -80 -34 -172t34 -172q34 -83 96 -142q55 -57 139 -94q81 -35 172 -35q90 0 172 35q80 36 143 94q58 61 94 142t36 172z" />
    <glyph glyph-name="uni24E3" unicode="&#x24e3;" horiz-adv-x="940" 
d="M554 6v45q-7 -2 -20 -2h-24q-23 0 -32 13q-11 11 -11 39v307h87v44h-87v133h-50v-133h-78v-44h78v-308q0 -29 4 -45q3 -21 14 -32q12 -11 31 -14q15 -5 42 -5q17 0 25 1q13 0 21 1zM875 299q0 -81 -31 -159q-32 -76 -88 -129q-55 -55 -128 -87q-78 -32 -160 -32
q-84 0 -157 32t-131 87q-56 55 -86 129q-31 74 -31 159t31 159q29 73 86 130q58 55 131 87t157 32q82 0 160 -32q73 -32 128 -87q57 -55 88 -130q31 -77 31 -159zM913 299q0 91 -36 172q-35 79 -94 141q-64 61 -143 96q-82 35 -172 35q-91 0 -172 -35q-83 -37 -139 -96
q-63 -60 -96 -141q-34 -80 -34 -172t34 -172q34 -83 96 -142q55 -57 139 -94q81 -35 172 -35q90 0 172 35q80 36 143 94q58 61 94 142t36 172z" />
    <glyph glyph-name="uni24E4" unicode="&#x24e4;" horiz-adv-x="940" 
d="M584 72h53v440h-53v-242q0 -33 -7 -66q-10 -32 -26 -54q-16 -23 -39 -34q-23 -13 -55 -13q-61 0 -88 30q-28 29 -28 92v287h-50v-287q0 -82 37 -123q36 -43 116 -43q56 0 94 25q37 25 46 64v-76zM875 299q0 -81 -31 -159q-32 -76 -88 -129q-55 -55 -128 -87
q-78 -32 -160 -32q-84 0 -157 32t-131 87q-56 55 -86 129q-31 74 -31 159t31 159q29 73 86 130q58 55 131 87t157 32q82 0 160 -32q73 -32 128 -87q57 -55 88 -130q31 -77 31 -159zM913 299q0 91 -36 172q-35 79 -94 141q-64 61 -143 96q-82 35 -172 35q-91 0 -172 -35
q-83 -37 -139 -96q-63 -60 -96 -141q-34 -80 -34 -172t34 -172q34 -83 96 -142q55 -57 139 -94q81 -35 172 -35q90 0 172 35q80 36 143 94q58 61 94 142t36 172z" />
    <glyph glyph-name="uni24E5" unicode="&#x24e5;" horiz-adv-x="940" 
d="M498 49l159 442h-59l-132 -386l-132 386h-54l159 -442h59zM875 299q0 -81 -31 -159q-32 -76 -88 -129q-55 -55 -128 -87q-78 -32 -160 -32q-84 0 -157 32t-131 87q-56 55 -86 129q-31 74 -31 159t31 159q29 73 86 130q58 55 131 87t157 32q82 0 160 -32q73 -32 128 -87
q57 -55 88 -130q31 -77 31 -159zM913 299q0 91 -36 172q-35 79 -94 141q-64 61 -143 96q-82 35 -172 35q-91 0 -172 -35q-83 -37 -139 -96q-63 -60 -96 -141q-34 -80 -34 -172t34 -172q34 -83 96 -142q55 -57 139 -94q81 -35 172 -35q90 0 172 35q80 36 143 94q58 61 94 142
t36 172z" />
    <glyph glyph-name="uni24E6" unicode="&#x24e6;" horiz-adv-x="940" 
d="M638 61l138 441h-58l-108 -377l-107 377h-58l-106 -377l-108 377h-57l135 -441h61l103 371l107 -371h58zM875 299q0 -81 -31 -159q-32 -76 -88 -129q-55 -55 -128 -87q-78 -32 -160 -32q-84 0 -157 32t-131 87q-56 55 -86 129q-31 74 -31 159t31 159q29 73 86 130
q58 55 131 87t157 32q82 0 160 -32q73 -32 128 -87q57 -55 88 -130q31 -77 31 -159zM913 299q0 91 -36 172q-35 79 -94 141q-64 61 -143 96q-82 35 -172 35q-91 0 -172 -35q-83 -37 -139 -96q-63 -60 -96 -141q-34 -80 -34 -172t34 -172q34 -83 96 -142q55 -57 139 -94
q81 -35 172 -35q90 0 172 35q80 36 143 94q58 61 94 142t36 172z" />
    <glyph glyph-name="uni24E7" unicode="&#x24e7;" horiz-adv-x="940" 
d="M605 77h60l-166 230l151 209h-64l-119 -169l-119 169h-61l153 -209l-166 -230h59l135 189zM875 299q0 -81 -31 -159q-32 -76 -88 -129q-55 -55 -128 -87q-78 -32 -160 -32q-84 0 -157 32t-131 87q-56 55 -86 129q-31 74 -31 159t31 159q29 73 86 130q58 55 131 87t157 32
q82 0 160 -32q73 -32 128 -87q57 -55 88 -130q31 -77 31 -159zM913 299q0 91 -36 172q-35 79 -94 141q-64 61 -143 96q-82 35 -172 35q-91 0 -172 -35q-83 -37 -139 -96q-63 -60 -96 -141q-34 -80 -34 -172t34 -172q34 -83 96 -142q55 -57 139 -94q81 -35 172 -35
q90 0 172 35q80 36 143 94q58 61 94 142t36 172z" />
    <glyph glyph-name="uni24E8" unicode="&#x24e8;" horiz-adv-x="940" 
d="M480 54l181 499h-53l-128 -370l-143 370h-53l171 -431l-17 -43q-17 -38 -28 -46q-11 -11 -35 -11t-38 2v-44q16 -4 40 -4q40 0 65 20q22 22 38 58zM875 299q0 -81 -31 -159q-32 -76 -88 -129q-55 -55 -128 -87q-78 -32 -160 -32q-84 0 -157 32t-131 87q-56 55 -86 129
q-31 74 -31 159t31 159q29 73 86 130q58 55 131 87t157 32q82 0 160 -32q73 -32 128 -87q57 -55 88 -130q31 -77 31 -159zM913 299q0 91 -36 172q-35 79 -94 141q-64 61 -143 96q-82 35 -172 35q-91 0 -172 -35q-83 -37 -139 -96q-63 -60 -96 -141q-34 -80 -34 -172t34 -172
q34 -83 96 -142q55 -57 139 -94q81 -35 172 -35q90 0 172 35q80 36 143 94q58 61 94 142t36 172z" />
    <glyph glyph-name="uni24E9" unicode="&#x24e9;" horiz-adv-x="940" 
d="M296 81h347v45h-284l275 353v41h-321v-44h257l-274 -352v-43zM875 299q0 -81 -31 -159q-32 -76 -88 -129q-55 -55 -128 -87q-78 -32 -160 -32q-84 0 -157 32t-131 87q-56 55 -86 129q-31 74 -31 159t31 159q29 73 86 130q58 55 131 87t157 32q82 0 160 -32
q73 -32 128 -87q57 -55 88 -130q31 -77 31 -159zM913 299q0 91 -36 172q-35 79 -94 141q-64 61 -143 96q-82 35 -172 35q-91 0 -172 -35q-83 -37 -139 -96q-63 -60 -96 -141q-34 -80 -34 -172t34 -172q34 -83 96 -142q55 -57 139 -94q81 -35 172 -35q90 0 172 35
q80 36 143 94q58 61 94 142t36 172z" />
    <glyph glyph-name="SF100000" unicode="&#x2500;" horiz-adv-x="940" 
d="M0 285h940v28h-940v-28z" />
    <glyph glyph-name="uni2501" unicode="&#x2501;" horiz-adv-x="940" 
d="M0 269h940v54h-940v-54z" />
    <glyph glyph-name="SF110000" unicode="&#x2502;" horiz-adv-x="940" 
d="M455 -200h29v998h-29v-998z" />
    <glyph glyph-name="uni2503" unicode="&#x2503;" horiz-adv-x="940" 
d="M443 -200h54v998h-54v-998z" />
    <glyph glyph-name="SF010000" unicode="&#x250c;" horiz-adv-x="940" 
d="M484 285h455v28h-484v-513h29v485z" />
    <glyph glyph-name="uni250D" unicode="&#x250d;" horiz-adv-x="940" 
d="M488 262h451v73h-489v-535h38v462z" />
    <glyph glyph-name="uni250E" unicode="&#x250e;" horiz-adv-x="940" 
d="M505 281h434v34h-510v-515h76v481z" />
    <glyph glyph-name="uni250F" unicode="&#x250f;" horiz-adv-x="940" 
d="M496 269h443v54h-497v-523h54v469z" />
    <glyph glyph-name="SF030000" unicode="&#x2510;" horiz-adv-x="940" 
d="M456 -200h29v513h-485v-28h456v-485z" />
    <glyph glyph-name="uni2511" unicode="&#x2511;" horiz-adv-x="940" 
d="M451 -200h38v535h-489v-73h451v-462z" />
    <glyph glyph-name="uni2512" unicode="&#x2512;" horiz-adv-x="940" 
d="M430 -200h76v515h-506v-34h430v-481z" />
    <glyph glyph-name="uni2513" unicode="&#x2513;" horiz-adv-x="940" 
d="M443 -200h54v523h-497v-54h443v-469z" />
    <glyph glyph-name="SF020000" unicode="&#x2514;" horiz-adv-x="940" 
d="M455 285h484v28h-455v485h-29v-513z" />
    <glyph glyph-name="uni2515" unicode="&#x2515;" horiz-adv-x="940" 
d="M450 262h489v73h-451v463h-38v-536z" />
    <glyph glyph-name="uni2516" unicode="&#x2516;" horiz-adv-x="940" 
d="M429 281h510v34h-434v483h-76v-517z" />
    <glyph glyph-name="uni2517" unicode="&#x2517;" horiz-adv-x="940" 
d="M442 269h497v54h-443v475h-54v-529z" />
    <glyph glyph-name="SF040000" unicode="&#x2518;" horiz-adv-x="940" 
d="M0 285h485v513h-29v-485h-456v-28z" />
    <glyph glyph-name="uni2519" unicode="&#x2519;" horiz-adv-x="940" 
d="M0 262h489v536h-38v-463h-451v-73z" />
    <glyph glyph-name="uni251A" unicode="&#x251a;" horiz-adv-x="940" 
d="M0 281h506v517h-76v-483h-430v-34z" />
    <glyph glyph-name="uni251B" unicode="&#x251b;" horiz-adv-x="940" 
d="M0 269h497v529h-54v-475h-443v-54z" />
    <glyph glyph-name="SF080000" unicode="&#x251c;" horiz-adv-x="940" 
d="M484 285h455v28h-455v485h-29v-998h29v485z" />
    <glyph glyph-name="uni251D" unicode="&#x251d;" horiz-adv-x="940" 
d="M488 262h451v73h-451v463h-38v-998h38v462z" />
    <glyph glyph-name="uni251E" unicode="&#x251e;" horiz-adv-x="940" 
d="M488 281h452v34h-434v483h-76v-500h21v-498h38z" />
    <glyph glyph-name="uni251F" unicode="&#x251f;" horiz-adv-x="940" 
d="M505 281h434v34h-451v483h-38v-500h-21v-498h76v481z" />
    </font>
</defs>
</svg>
